<svg width="55" height="55" viewBox="0 0 55 55" fill="none" xmlns="http://www.w3.org/2000/svg">
<circle cx="27.5" cy="27.5" r="27" stroke="#DFDFDF"/>
<path fill-rule="evenodd" clip-rule="evenodd" d="M23.424 22.7868V22.2439H26.1344V25.3645H23.424V25.3645C22.9221 24.7509 22.3366 24.5755 21.751 24.5755C20.6468 24.5755 19.827 25.3995 19.827 26.6267C19.827 27.5559 20.6468 28.5025 21.751 28.5025C22.3364 28.5025 22.9219 28.3098 23.4237 27.714H26.1344V30.781C26.1378 33.4573 24.3476 35 21.8046 35C19.3285 35 17.5384 33.5274 17.4045 31.3185L17.3936 31.1554H20.0725L20.0985 31.3209C20.2164 32.1084 20.7851 32.5983 21.7879 32.5983C22.7248 32.5983 23.4275 32.0022 23.424 30.8336V30.168C22.8217 30.5362 22.1023 30.7641 21.2156 30.7641C19.0072 30.7641 17.1836 28.9233 17.1836 26.6267C17.1836 24.0321 19.0072 22.2439 21.2156 22.2439C22.1023 22.2439 22.8217 22.4011 23.424 22.7868Z" fill="#141414"/>
<path fill-rule="evenodd" clip-rule="evenodd" d="M27.6398 25.366C28.2565 25.4021 28.7454 25.9139 28.7449 26.5397C28.7443 27.1815 28.2292 27.7028 27.5898 27.7133C28.0243 29.7081 29.6629 31.0919 31.8298 31.0919C34.353 31.0919 36.1506 29.1909 36.1506 26.6333C36.1506 24.1103 34.353 22.2612 31.8298 22.2612C29.7387 22.2612 28.1395 23.5148 27.6398 25.366ZM31.8295 28.6726C30.7245 28.6726 30.0154 27.774 30.0154 26.6507C30.0154 25.562 30.7245 24.6807 31.8295 24.6807C32.9014 24.6807 33.6271 25.562 33.6271 26.6507C33.6271 27.774 32.9014 28.6726 31.8295 28.6726Z" fill="#141414"/>
<path d="M39.1222 31.1212C40.1427 31.1212 41 30.279 41 29.1707C41 28.0847 40.1427 27.2424 39.1222 27.2424C38.122 27.2424 37.2852 28.0847 37.2852 29.1707C37.2852 30.279 38.122 31.1212 39.1222 31.1212Z" fill="#FE3945"/>
</svg>
