<svg xmlns="http://www.w3.org/2000/svg" width="132" height="37" fill="none" viewBox="0 0 132 37">
    <path fill="#141414" d="M28.657 0h-7.58l-6.769 12L7.58 0H0l10.903 19.257v8.715h6.891v-8.715L28.657 0zM39.214 7.501V8.96c-1.46-.932-3.202-1.5-5.39-1.5-5.31 0-9.77 4.379-9.77 10.257 0 5.838 4.46 10.257 9.77 10.257 2.188 0 3.93-.567 5.39-1.5v1.499h6.566V7.502h-6.566zm-4.053 15.08c-2.675 0-4.662-2.148-4.662-4.865 0-2.716 1.987-4.905 4.662-4.905 1.418 0 2.797.446 4.053 1.824v6.122c-1.256 1.419-2.635 1.824-4.053 1.824zM64.128 7.501V8.96c-1.46-.932-3.202-1.5-5.39-1.5-5.31 0-9.77 4.379-9.77 10.257 0 5.838 4.46 10.257 9.77 10.257 2.188 0 3.93-.567 5.39-1.5v1.499h6.566V7.502h-6.566zm-4.053 15.08c-2.675 0-4.662-2.148-4.662-4.865 0-2.716 1.987-4.905 4.662-4.905 1.418 0 2.797.446 4.053 1.824v6.122c-1.256 1.419-2.635 1.824-4.053 1.824z"/>
    <path fill="#141414" fill-rule="evenodd" d="M89.045 8.757V7.5h6.566v7.216h-6.567c-1.216-1.418-2.634-1.824-4.053-1.824-2.675 0-4.661 1.906-4.661 4.744 0 2.148 1.986 4.338 4.661 4.338 1.419 0 2.837-.446 4.053-1.824h6.567v7.093C95.619 33.432 91.282 37 85.12 37c-5.999 0-10.336-3.405-10.66-8.514l-.026-.377h6.49l.063.383c.285 1.821 1.663 2.954 4.093 2.954 2.27 0 3.972-1.379 3.964-4.08v-1.54c-1.46.851-3.203 1.378-5.35 1.378-5.351 0-9.77-4.256-9.77-9.567 0-6 4.419-10.136 9.77-10.136 2.148 0 3.89.364 5.35 1.256zM99.259 14.718c1.482.022 2.676 1.231 2.675 2.718-.002 1.5-1.218 2.715-2.717 2.715h-.08c1.052 4.612 5.022 7.812 10.272 7.812 6.113 0 10.468-4.396 10.468-10.31 0-5.834-4.355-10.11-10.468-10.11-5.065 0-8.938 2.896-10.15 7.175zm10.15 7.65c-2.677 0-4.395-2.077-4.395-4.675 0-2.518 1.718-4.556 4.395-4.556 2.597 0 4.355 2.038 4.355 4.556 0 2.598-1.758 4.676-4.355 4.676z" clip-rule="evenodd"/>
    <path fill="#FE3945" d="M127.508 27.975c2.442 0 4.493-1.93 4.493-4.47 0-2.49-2.051-4.42-4.493-4.42-2.393 0-4.395 1.93-4.395 4.42 0 2.54 2.002 4.47 4.395 4.47z"/>
</svg>
