<svg xmlns="http://www.w3.org/2000/svg" width="12" height="12" fill="none" viewBox="0 0 12 12">
    <g fill="#03224C" clip-path="url(#clip0)">
        <path d="M2.713 2.029h1.848v-.335c0-.553.452-1.003 1.008-1.003h1.345c.555 0 1.008.45 1.008 1.003v.335H9.77c.463 0 .84.375.84.836v1.17c0 .186-.15.335-.336.335h-.184l-.29 6.07c-.026.536-.468.956-1.007.956H3.69c-.54 0-.981-.42-1.007-.956l-.29-6.07h-.184c-.186 0-.336-.15-.336-.334V2.865c0-.461.377-.836.84-.836zm4.537-.335c0-.184-.151-.334-.336-.334H5.569c-.185 0-.336.15-.336.334v.335H7.25v-.335zm2.688 1.171c0-.092-.075-.167-.168-.167H2.713c-.093 0-.168.075-.168.167v.836h7.393v-.836zm-6.584 7.543c.009.178.156.318.336.318h5.103c.18 0 .327-.14.336-.318l.289-6.038H3.065l.29 6.038z"/>
        <path d="M6.242 10.057c-.186 0-.336-.15-.336-.334V5.374c0-.185.15-.335.336-.335.185 0 .336.15.336.335v4.349c0 .185-.15.334-.336.334zM4.561 10.057c-.185 0-.336-.15-.336-.334V5.374c0-.185.15-.335.336-.335.186 0 .336.15.336.335v4.349c0 .185-.15.334-.336.334zM7.922 10.057c-.186 0-.336-.15-.336-.334V5.374c0-.185.15-.335.336-.335.185 0 .336.15.336.335v4.349c0 .185-.15.334-.336.334z"/>
    </g>
    <defs>
        <clipPath id="clip0">
            <path fill="#fff" d="M0 0H10.754V10.705H0z" transform="matrix(-1 0 0 1 11.618 .69)"/>
        </clipPath>
    </defs>
</svg>
