<svg width="16" height="16" viewBox="0 0 16 16" fill="none" xmlns="http://www.w3.org/2000/svg">
<path d="M2.375 16C3.40909 16 4.25 15.1591 4.25 14.0847C4.25047 13.8572 4.25137 13.5738 4.09756 13.2223C3.86134 12.6849 3.3125 11.2864 3.3125 9.90625C3.3125 9.13081 3.94331 8.4375 4.71875 8.4375H5.1875V7.5H3.78125C3.52262 7.5 3.3125 7.28988 3.3125 7.03125V6.5625H5.1875V5.625H3.3125V4.6875H5.1875V3.75H3.3125V2.8125H5.1875V1.875H3.3125V1.40625C3.3125 1.14762 3.52262 0.9375 3.78125 0.9375H5.1875V0H1.90625C1.13081 0 0.5 0.630813 0.5 1.40625V14.125C0.5 15.1591 1.34091 16 2.375 16Z" fill="#03224C"/>
<path d="M7.71119 10.2967C6.77678 10.0411 5.65075 10.7302 5.28963 12.0692C4.92485 13.4148 5.55485 14.5691 6.4876 14.8212C7.40085 15.0694 8.5441 14.3981 8.90963 13.0483C8.91285 13.0366 9.72575 10.4375 9.72575 10.4375H10.0244C10.0244 10.4375 10.837 13.0375 10.84 13.0488C11.133 14.1319 11.9908 14.8739 12.8652 14.8739C12.8681 14.8739 12.8709 14.8728 12.8738 14.8728C13.3004 15.5501 14.1351 16 15.0308 16H15.4996V15.0625H15.0308C14.553 15.0625 14.0823 14.854 13.7956 14.5424C14.545 13.9676 14.6959 12.9413 14.4596 12.0692C14.0974 10.7265 12.9701 10.0413 12.038 10.2967C11.6778 10.3941 11.3803 10.6202 11.1595 10.9243L10.859 9.98122L11.3559 8.37187L8.68394 0L8.24335 0.140656C7.00585 0.534375 6.32147 1.83747 6.70585 3.07497L8.89025 9.98122L8.59272 10.9277C8.37169 10.6217 8.07294 10.3945 7.71119 10.2967ZM8.00463 12.8034C7.8055 13.54 7.2255 14.0472 6.73203 13.9167C6.15366 13.7599 6.03594 12.8989 6.19416 12.3145L6.19463 12.3141C6.356 11.7154 6.88778 11.0504 7.46675 11.2013C7.95703 11.334 8.20331 12.0678 8.00463 12.8034ZM12.2824 11.2013C12.8648 11.0495 13.3963 11.727 13.5546 12.3141L13.555 12.3145C13.713 12.8978 13.5953 13.7599 13.0172 13.9167C12.5246 14.0495 11.9437 13.5391 11.745 12.8039C11.5459 12.0678 11.7922 11.334 12.2824 11.2013Z" fill="#03224C"/>
<path d="M13.0435 3.07497C13.4279 1.83747 12.7435 0.534375 11.506 0.140656L11.0654 0L10.3623 2.16563L11.8435 6.82497L13.0435 3.07497Z" fill="#03224C"/>
</svg>
