<svg xmlns="http://www.w3.org/2000/svg" width="142" height="12" fill="none" viewBox="0 0 142 12">
    <path fill="#FE3945" d="M129.252 7.79c-1.133.912-2.337 1.754-3.47 2.666-.213.21-.284.421-.355.632 0 .42.355.842.85.912.213 0 .567-.07.779-.35l3.683-2.457c3.541-1.965 2.975-1.825 6.445-3.298.071 0 4.037-1.544 4.179-1.965.425-.772.637-1.334.637-1.755v-.14c0-.772-.708-.912-1.629-1.193-.85-.07-1.77-.14-2.62-.21-.709-.07-1.417-.07-2.125-.07h-13.102L88.174.07C83.572.07 80.455 0 75.923 0c-3.895.07-7.72.07-11.544.07h-5.383c-1.628.07-3.186.14-4.745.14-7.79.211-15.58.632-23.371 1.123-5.241.421-10.482.772-15.723 1.474-3.4.491-6.799.842-10.128 1.333-1.274.14-2.55.281-3.824.562C.424 5.193.071 5.825 0 6.456v.14c0 .913.708 1.825 1.77 1.965.496 0 1.063-.14 1.63-.49 1.133-.422 2.266-.562 3.47-.913 3.187-.632 6.445-1.193 9.773-1.684 5.029-.702 10.199-1.334 15.298-1.965C39.59 2.667 47.31 2.316 54.96 1.825c1.558-.07 3.116-.14 4.674-.281 1.77-.07 3.47-.21 5.24-.28C72.736.911 80.598.841 88.459.841h2.195c10.836 0 21.531.491 32.366 1.123 2.621.14 5.312.35 7.933.631l3.257.351c.709 0 1.346.14 2.054.21-1.274.843-2.266 1.404-3.682 2.387-1.063.772-2.267 1.544-3.329 2.245z"/>
</svg>
