<svg xmlns="http://www.w3.org/2000/svg" width="34" height="34" fill="none" viewBox="0 0 34 34">
    <path fill="#6183E5" fill-opacity=".08" stroke="#6183E5" d="M29.255 1H4.745C2.677 1 1 2.677 1 4.745v24.51C1 31.323 2.677 33 4.745 33h24.51C31.323 33 33 31.323 33 29.255V4.745C33 2.677 31.323 1 29.255 1z"/>
    <path stroke="#6183E5" stroke-linecap="round" stroke-linejoin="round" stroke-width="1.33" d="M22.719 19.637v1.845c0 .171-.035.341-.104.498-.068.157-.17.298-.296.413-.126.116-.275.204-.438.26-.162.054-.335.075-.506.06-1.896-.207-3.717-.853-5.317-1.889-1.49-.944-2.752-2.204-3.697-3.69-1.042-1.604-1.69-3.43-1.892-5.332-.016-.17.005-.341.06-.503.054-.162.142-.31.257-.436.115-.127.256-.227.412-.296.157-.07.326-.105.497-.105h1.849c.299-.003.588.103.815.297.227.195.375.465.417.76.078.591.223 1.17.431 1.729.083.22.101.459.052.689-.05.23-.163.441-.329.608l-.783.781c.878 1.54 2.155 2.815 3.698 3.69l.782-.78c.168-.166.38-.28.61-.33.23-.048.47-.03.69.052.56.209 1.14.353 1.732.43.3.043.573.193.768.424.195.23.3.524.292.825z"/>
</svg>
