<svg xmlns="http://www.w3.org/2000/svg" width="42" height="39" fill="none" viewBox="0 0 42 39">
    <path fill="#6183E5" stroke="#6183E5" stroke-width=".5" d="M37.39 11.58V7.785c0-.37-.299-.67-.668-.67h-1.28v-1.88h.484c.37 0 .669-.3.669-.67V2.34h1.419c.37 0 .669-.302.669-.67 0-.369-.3-.67-.669-.67l-2.075.002L35.928 1l-9.21.013-6.666 1.268c-.363.069-.6.419-.532.782.062.322.341.547.657.547.042 0 .084-.006.126-.014l6.542-1.254h2.09v2.224c0 .37.299.67.668.67h.483v1.88h-1.279c-.37 0-.668.3-.668.67v3.794c-2.02.218-3.603 1.918-3.603 3.998 0 .37.3.67.668.67.37 0 .67-.301.67-.67 0-1.49 1.21-2.7 2.696-2.7h8.396c1.486 0 2.696 1.211 2.696 2.7v18.605c0 1.491-1.21 2.7-2.696 2.7h-8.394c-1.487 0-2.697-1.21-2.697-2.7 0-.37-.3-.67-.669-.67-.37 0-.668.302-.668.67 0 2.228 1.808 4.042 4.034 4.042h8.394c2.225 0 4.034-1.814 4.034-4.042V15.578c-.007-2.08-1.59-3.778-3.61-3.998zm-2.133-9.24v1.554H30.27V2.34h4.988zM31.42 5.236h2.685v1.88h-2.685v-1.88zm-1.948 6.3v-3.08h6.581v3.08H29.47z"/>
    <path fill="#6183E5" stroke="#6183E5" stroke-width=".5" d="M19.825 13.752c1.453 0 2.633-1.184 2.633-2.64 0-1.205-1.712-4.213-2.055-4.803-.24-.412-.916-.412-1.155 0-.343.591-2.055 3.598-2.055 4.804 0 1.455 1.18 2.64 2.632 2.64zm0-5.728c.695 1.307 1.295 2.65 1.295 3.089 0 .716-.581 1.298-1.295 1.298s-1.296-.583-1.296-1.298c0-.438.602-1.78 1.296-3.089zM28.92 30.527l4.699-2.566c.537-.281.921-.799 1.053-1.417.132-.618-.003-1.246-.376-1.723-.518-.689-1.386-.985-2.197-.78-.057-.247-.162-.481-.31-.69-.56-.783-1.63-1.037-2.478-.59l-.037.02c-.318-1.342-1.398-2.392-2.754-2.665-.021-.174-.082-.424-.204-.776-.108-.316-.254-.62-.43-.902-.364-.581-.854-1.072-1.415-1.419-.687-.424-1.515-.658-2.33-.658-1.024 0-2.005.351-2.791.996-.798-.92-1.938-1.442-3.168-1.442-2.232 0-4.07 1.759-4.198 3.965-2.259.236-3.994 2.145-3.994 4.447 0 .08.002.16.007.243-1.432.634-2.52 1.418-2.99 1.78h-3.27c-.408 0-.737.332-.737.74v6.46c0 .41.331.74.737.74h3.49c1.568.138 4.557.404 4.657.416l6.383.571c.258.022.512.035.767.035 3.234 0 6.39-1.755 9.175-3.302.255-.136 1.8-.985 2.71-1.483zm1.673-6.31c.073.1.099.232.069.366-.019.085-.06.16-.124.224-.251-.224-.522-.422-.81-.59l.275-.145c.2-.11.454-.049.59.144zM15.879 25.73c.096.044.2.062.353.064l6.467-1.25c.324 0 .588.265.588.593 0 .299-.22.55-.55.593l-8.22 2.295c-.368.045-.646.362-.646.735 0 .374.281.687.65.732l3.506.424c3.454.42 6.882-.256 9.916-1.95l4.375-2.437c.276-.145.614-.067.804.186.109.14.15.329.107.52-.04.189-.153.343-.31.423l-4.591 2.504c-.875.48-2.568 1.409-2.834 1.558-2.834 1.574-6.034 3.358-9.098 3.088l-5.598-.5-5.458-.49-2.865-.005v-4.98h2.793c.174 0 .343-.063.478-.175.024-.02 2.307-1.928 5.068-2.444 2.671-.502 4.975.476 5.065.516zm12.016-2.127c0 .22-.035.436-.1.642-.063.187-.046.388.044.566.09.177.245.308.435.368.314.1.607.24.88.42l-1.93 1.076c-2.2 1.226-5.945 2.223-8.977 2.023l4.8-1.534c.803-.44 1.716-.938 1.716-2.027 0-1.14-.92-2.067-2.105-2.067h-.008l-6.341 1.24c-.742-.295-3.043-1.055-5.763-.55-.363.068-.715.156-1.058.243.164-1.499 1.433-2.666 2.97-2.666.07 0 .148.002.23.01.229.013.438-.062.598-.231.16-.17.233-.392.197-.608-.018-.127-.026-.253-.026-.377 0-1.507 1.223-2.733 2.73-2.733 1.015 0 1.94.559 2.41 1.455.11.223.332.372.59.394.255.011.504-.082.653-.283.667-.905 1.936-1.327 3.168-1.03.57.132 1.085.519 1.533 1.145.334.47.521 1.025.543 1.608l.002.102c0 .409.331.74.739.74 1.14-.001 2.07.93 2.07 2.074zM7.706 19.963c1.518 0 2.751-1.237 2.751-2.756 0-1.52-1.233-2.759-2.751-2.759-1.518 0-2.752 1.238-2.752 2.757 0 1.52 1.235 2.759 2.752 2.759zm0-4.034c.702 0 1.275.572 1.275 1.278 0 .703-.571 1.276-1.275 1.276S6.43 17.91 6.43 17.207c.002-.706.574-1.278 1.276-1.278zM12.796 14.06c1.227 0 2.227-1.002 2.227-2.232 0-1.229-.998-2.232-2.227-2.232-1.228 0-2.226 1.003-2.226 2.232 0 1.23 1 2.231 2.226 2.231zm-.954-2.232c0-.527.428-.956.954-.956.527 0 .955.429.955.956 0 .526-.428.955-.955.955-.526 0-.954-.429-.954-.955z"/>
</svg>
