<svg width="26" height="26" viewBox="0 0 26 26" fill="none" xmlns="http://www.w3.org/2000/svg">
<g clip-path="url(#clip0)">
<path d="M13.9526 13.0086L18.0022 8.95889C18.2657 8.69547 18.2657 8.26957 18.0022 8.00615C17.7388 7.74274 17.3128 7.74274 17.0494 8.00615L12.9998 12.0558L8.95019 8.00615C8.68666 7.74274 8.26087 7.74274 7.99746 8.00615C7.73392 8.26957 7.73392 8.69547 7.99746 8.95889L12.047 13.0086L7.99746 17.0582C7.73392 17.3217 7.73392 17.7476 7.99746 18.011C8.12873 18.1424 8.30134 18.2084 8.47383 18.2084C8.64631 18.2084 8.8188 18.1424 8.95019 18.011L12.9998 13.9613L17.0494 18.011C17.1808 18.1424 17.3533 18.2084 17.5258 18.2084C17.6983 18.2084 17.8708 18.1424 18.0022 18.011C18.2657 17.7476 18.2657 17.3217 18.0022 17.0582L13.9526 13.0086Z" fill="#03224C"/>
</g>
<circle cx="13" cy="13" r="12.5" stroke="#03224C"/>
<defs>
<clipPath id="clip0">
<rect width="10.4" height="10.4" fill="white" transform="translate(7.7998 7.80005)"/>
</clipPath>
</defs>
</svg>
