<svg xmlns="http://www.w3.org/2000/svg" width="24" height="24" fill="none" viewBox="0 0 24 24">
    <g clip-path="url(#clip0)">
        <path fill="#03224C" d="M12.88 12.008l3.738-3.738c.243-.243.243-.637 0-.88s-.636-.243-.88 0L12 11.128 8.262 7.39c-.243-.243-.636-.243-.88 0-.243.243-.243.637 0 .88l3.739 3.738-3.738 3.738c-.244.243-.244.636 0 .88.12.12.28.182.44.182.159 0 .318-.061.44-.183L12 12.887l3.738 3.738c.122.122.28.183.44.183.16 0 .319-.061.44-.183.243-.243.243-.636 0-.879l-3.738-3.738z"/>
    </g>
    <circle cx="12" cy="12" r="11.5" stroke="#03224C"/>
    <defs>
        <clipPath id="clip0">
            <path fill="#fff" d="M0 0H9.6V9.6H0z" transform="translate(7.2 7.2)"/>
        </clipPath>
    </defs>
</svg>
