<svg xmlns="http://www.w3.org/2000/svg" width="32" height="32" fill="none" viewBox="0 0 32 32">
    <circle cx="16" cy="16" r="16" fill="#6183E5" fill-opacity=".08"/>
    <path fill="#6183E5" d="M13.673 16.32c-.132 0-.26.04-.37.112-.11.074-.195.178-.246.3-.05.121-.063.255-.038.385.026.13.09.248.183.341.093.093.212.157.341.183.13.025.264.012.385-.038.122-.05.226-.136.3-.246.073-.11.112-.238.112-.37 0-.177-.07-.347-.195-.472s-.295-.195-.472-.195zm0-2.987c-.132 0-.26.04-.37.113-.11.073-.195.177-.246.299-.05.122-.063.256-.038.385.026.13.09.248.183.341.093.094.212.157.341.183.13.026.264.012.385-.038.122-.05.226-.136.3-.246.073-.11.112-.238.112-.37 0-.177-.07-.346-.195-.471s-.295-.196-.472-.196zM16 14.667c-.177 0-.347.07-.472.195s-.195.294-.195.471V16c0 .177.07.346.195.471s.295.196.472.196.346-.07.471-.196c.125-.125.196-.294.196-.471v-.667c0-.177-.07-.346-.196-.471-.125-.125-.294-.195-.471-.195zm5.667-.954c-.23-.132-.484-.217-.748-.25-.263-.034-.53-.014-.786.057-.266.071-.514.199-.726.373L11.673 9.42c-.101-.059-.216-.09-.333-.09-.117 0-.232.031-.333.09-.103.058-.19.142-.249.244-.06.102-.091.218-.091.336v8.78c-.394.133-.735.387-.975.726-.24.34-.365.745-.359 1.16 0 .522.203 1.023.567 1.396.364.374.859.59 1.38.605h.387c2.184-.006 4.328-.589 6.215-1.69 1.886-1.102 3.447-2.683 4.525-4.584.248-.454.311-.988.174-1.488-.136-.5-.462-.927-.908-1.192h-.006zM12 11.153l6.593 3.807c-.731 1.091-1.71 1.996-2.854 2.64-1.146.643-2.427 1.009-3.74 1.067v-7.514zm9.247 4.587c-.99 1.744-2.436 3.185-4.182 4.17-1.746.986-3.728 1.478-5.732 1.423-.177 0-.346-.07-.471-.195s-.195-.295-.195-.471c-.001-.09.017-.178.05-.26.035-.083.086-.158.15-.22.125-.121.292-.188.466-.187h.34c1.712 0 3.393-.456 4.871-1.32 1.478-.863 2.7-2.103 3.543-3.593.04-.073.095-.137.162-.188.067-.05.143-.086.224-.106.168-.046.348-.024.5.06.153.083.268.221.32.387.053.165.038.345-.04.5h-.006z"/>
</svg>
