<svg xmlns="http://www.w3.org/2000/svg" width="104" height="96" fill="none" viewBox="0 0 104 96">
    <path fill="#DD4958" d="M40.538.011c-.076.009-.151.022-.225.038h-.038C18.012.33 0 18.51 0 40.828c0 22.43 18.194 40.678 40.613 40.78h.262c4.023-.013 7.913-.627 11.588-1.725C56.477 89.35 65.886 96 76.8 96c14.552 0 26.4-11.842 26.4-26.387 0-12.947-9.385-23.757-21.712-25.974.068-.932.112-1.864.112-2.811 0-10.005-3.638-19.173-9.637-26.274v-.038c-.193-.398-.491-.735-.863-.974l-.075-.038C63.657 5.371 53.077.188 41.288.05h-.038c-.234-.048-.474-.06-.712-.038zm-8.4 5.885c-1.783 2.084-3.47 4.595-5.025 7.533-1.045 1.975-1.99 4.161-2.85 6.485-3.13-1.213-6.041-2.78-8.776-4.686 4.533-4.476 10.254-7.757 16.65-9.332zm17.325 0c6.396 1.575 12.117 4.856 16.65 9.332-2.735 1.907-5.646 3.473-8.775 4.686-.861-2.324-1.806-4.51-2.85-6.485-1.555-2.938-3.243-5.449-5.025-7.533zm-11.063.75v16.116c-3.395-.152-6.598-.607-9.6-1.387.77-2.065 1.633-4.002 2.55-5.734 2.225-4.205 4.843-7.21 7.05-8.996zm4.8 0c2.207 1.785 4.825 4.79 7.05 8.995.917 1.732 1.78 3.67 2.55 5.734-3.002.78-6.205 1.235-9.6 1.387V6.645zm-30.9 12.18c3.24 2.311 6.737 4.19 10.5 5.623-1.103 3.919-1.928 8.206-2.25 12.78H4.988c.684-6.893 3.3-13.216 7.312-18.402zm57 0c4.011 5.187 6.628 11.51 7.313 18.404H61.05c-.322-4.575-1.146-8.862-2.25-12.781 3.763-1.432 7.26-3.312 10.5-5.622zm-41.962 7.122c3.481.932 7.166 1.485 11.062 1.65v9.632H25.388c.307-4.037.992-7.82 1.95-11.282zm26.925 0c.957 3.463 1.642 7.245 1.95 11.282H43.2v-9.633c3.897-.164 7.58-.717 11.063-1.649zM4.838 42.028h15.6c.151 4.52.755 8.771 1.687 12.706-4.123 1.47-7.948 3.476-11.363 5.922-3.55-5.37-5.698-11.755-5.924-18.629zm20.437 0H38.4v9.67c-4.015.161-7.938.7-11.662 1.649-.81-3.5-1.316-7.3-1.463-11.32zm17.925 0h13.125c-.147 4.02-.652 7.816-1.462 11.319-3.733-.953-7.64-1.492-11.663-1.65v-9.67zm17.963 0h15.6c-.013.399-.013.803-.038 1.199-6.076.017-11.665 2.105-16.125 5.584.303-2.187.484-4.446.563-6.784zM76.8 48.023c11.958 0 21.6 9.638 21.6 21.59 0 11.951-9.642 21.588-21.6 21.588-11.958 0-21.6-9.637-21.6-21.589 0-11.951 9.642-21.589 21.6-21.589zm-.262 7.16c-.597.065-1.147.351-1.543.802-.395.451-.608 1.034-.595 1.634v13.193c-.004.318.054.633.173.928.119.295.295.564.518.79.223.226.49.406.783.529.293.123.608.186.926.186.318 0 .633-.063.927-.186.293-.123.559-.303.782-.529.224-.226.4-.495.518-.79.119-.295.178-.61.173-.928V57.619c.007-.341-.058-.68-.193-.994-.134-.314-.334-.596-.586-.827-.252-.23-.55-.404-.875-.51-.325-.107-.669-.142-1.008-.105zM38.4 56.494v18.516c-2.21-1.785-4.82-4.82-7.05-9.033-1.25-2.363-2.382-5.024-3.338-7.984 3.31-.835 6.798-1.342 10.388-1.499zm4.8 0c3.442.146 6.79.615 9.975 1.387-1.226 2.457-2.105 5.13-2.512 7.946-.325.208-.595.49-.788.824-2.14 3.877-4.586 6.675-6.675 8.359V56.495zM23.4 59.42h.038c1.043 3.234 2.284 6.179 3.675 8.808 1.546 2.922 3.216 5.462 4.987 7.533-7.279-1.8-13.68-5.814-18.45-11.281 2.91-2.065 6.191-3.761 9.75-5.06zm27.375 14.73c.068.387.14.78.225 1.161-.474.14-.944.291-1.425.413.419-.491.792-1.032 1.2-1.574zm25.763 2.623c-.597.066-1.147.352-1.543.803-.395.451-.608 1.034-.595 1.633v1.2c-.004.318.054.633.173.928.119.295.295.564.518.79.223.227.49.406.783.529.293.123.608.186.926.186.318 0 .633-.063.927-.186.293-.123.559-.302.782-.529.224-.226.4-.495.518-.79.119-.295.178-.61.173-.928v-1.2c.007-.34-.058-.68-.193-.994-.134-.314-.334-.596-.586-.827-.252-.23-.55-.404-.875-.51-.325-.107-.669-.142-1.008-.105z"/>
    <circle cx="76.799" cy="69.6" r="22.8" fill="#DD4958" opacity=".2"/>
</svg>
