<svg xmlns="http://www.w3.org/2000/svg" width="24" height="24" fill="none" viewBox="0 0 24 24">
    <path fill="#6183E5" d="M20 8.94c-.01-.092-.03-.182-.06-.27v-.09c-.048-.103-.112-.197-.19-.28l-6-6c-.083-.078-.177-.142-.28-.19h-.1c-.097-.052-.202-.09-.31-.11H7c-.796 0-1.559.316-2.121.879C4.316 3.44 4 4.204 4 5v14c0 .796.316 1.559.879 2.121C5.44 21.684 6.204 22 7 22h10c.796 0 1.559-.316 2.121-.879.563-.562.879-1.325.879-2.121V9v-.06zm-6-3.53L16.59 8H15c-.265 0-.52-.105-.707-.293C14.105 7.52 14 7.265 14 7V5.41zM18 19c0 .265-.105.52-.293.707-.187.188-.442.293-.707.293H7c-.265 0-.52-.105-.707-.293C6.105 19.52 6 19.265 6 19V5c0-.265.105-.52.293-.707C6.48 4.105 6.735 4 7 4h5v3c0 .796.316 1.559.879 2.121.562.563 1.325.879 2.121.879h3v9zm-4.71-4.71l-.29.3V12c0-.265-.105-.52-.293-.707C12.52 11.105 12.265 11 12 11c-.265 0-.52.105-.707.293-.188.187-.293.442-.293.707v2.59l-.29-.3c-.188-.188-.444-.294-.71-.294-.266 0-.522.106-.71.294-.188.188-.294.444-.294.71 0 .266.106.522.294.71l2 2c.095.091.207.162.33.21.12.053.25.08.38.08s.26-.027.38-.08c.123-.048.235-.119.33-.21l2-2c.188-.188.294-.444.294-.71 0-.266-.106-.522-.294-.71-.188-.188-.444-.294-.71-.294-.266 0-.522.106-.71.294z"/>
</svg>
