<svg width="16" height="16" viewBox="0 0 16 16" fill="none" xmlns="http://www.w3.org/2000/svg">
<path d="M15.6813 2.4542H5.45869C5.30378 1.39207 4.38725 0.57373 3.28288 0.57373C2.1785 0.57373 1.26197 1.39207 1.10706 2.4542H0.318719C0.142719 2.4542 0 2.59689 0 2.77292C0 2.94895 0.142719 3.09164 0.318719 3.09164H1.10706C1.26197 4.15376 2.1785 4.9721 3.28288 4.9721C4.38725 4.9721 5.30378 4.15376 5.45869 3.09164H15.6813C15.8573 3.09164 16 2.94895 16 2.77292C16 2.59689 15.8573 2.4542 15.6813 2.4542ZM3.28288 4.33467C2.42172 4.33467 1.72113 3.63407 1.72113 2.77292C1.72113 1.91176 2.42172 1.21117 3.28288 1.21117C4.14403 1.21117 4.84462 1.91176 4.84462 2.77292C4.84462 3.63407 4.14403 4.33467 3.28288 4.33467Z" fill="#03224C"/>
<path d="M15.6813 7.68131H12.6938C12.5388 6.61919 11.6223 5.80084 10.5179 5.80084C9.41356 5.80084 8.49703 6.61922 8.34212 7.68131H0.318719C0.142719 7.68131 0 7.824 0 8.00003C0 8.17606 0.142719 8.31875 0.318719 8.31875H8.34212C8.49703 9.38087 9.41356 10.1992 10.5179 10.1992C11.6223 10.1992 12.5388 9.38084 12.6938 8.31875H15.6813C15.8573 8.31875 16 8.17606 16 8.00003C16 7.824 15.8573 7.68131 15.6813 7.68131ZM10.5179 9.56178C9.65678 9.56178 8.95619 8.86118 8.95619 8.00003C8.95619 7.13887 9.65678 6.43828 10.5179 6.43828C11.3791 6.43828 12.0797 7.13887 12.0797 8.00003C12.0797 8.86118 11.3791 9.56178 10.5179 9.56178Z" fill="#03224C"/>
<path d="M15.6812 12.9084H15.5218C15.3458 12.9084 15.2031 13.0511 15.2031 13.2272C15.2031 13.4032 15.3458 13.5459 15.5218 13.5459H15.6812C15.8572 13.5459 15.9999 13.4032 15.9999 13.2272C15.9999 13.0511 15.8572 12.9084 15.6812 12.9084Z" fill="#03224C"/>
<path d="M14.3108 12.9084H7.97659C7.82169 11.8462 6.90516 11.0279 5.80078 11.0279C4.69641 11.0279 3.77988 11.8462 3.62497 12.9084H0.318719C0.142719 12.9084 0 13.051 0 13.2271C0 13.4031 0.142719 13.5458 0.318719 13.5458H3.625C3.77991 14.6079 4.69644 15.4263 5.80081 15.4263C6.90519 15.4263 7.82172 14.6079 7.97662 13.5458H14.3108C14.4868 13.5458 14.6295 13.4031 14.6295 13.2271C14.6295 13.051 14.4867 12.9084 14.3108 12.9084ZM5.80078 14.7888C4.93962 14.7888 4.23903 14.0882 4.23903 13.2271C4.23903 12.3659 4.93962 11.6653 5.80078 11.6653C6.66194 11.6653 7.36253 12.3659 7.36253 13.2271C7.36256 14.0882 6.66197 14.7888 5.80078 14.7888Z" fill="#03224C"/>
</svg>
