<svg xmlns="http://www.w3.org/2000/svg" width="32" height="32" fill="none" viewBox="0 0 32 32">
    <circle cx="16" cy="16" r="16" fill="#6183E5" fill-opacity=".08"/>
    <path fill="#6183E5" d="M13.645 13.596l-.001.002h-.002l.003-.002zm6.636-.124c-.046-.045-.098-.084-.153-.117-.079-.046-.166-.075-.256-.087-.09-.01-.183-.003-.27.022-.087.026-.169.07-.239.128-.07.058-.127.13-.168.212-.23.452-.546.855-.932 1.184.059-.332.089-.669.089-1.006.001-1.027-.27-2.035-.785-2.923-.515-.888-1.257-1.624-2.149-2.132-.098-.055-.209-.085-.322-.086-.113-.002-.224.026-.323.08-.1.053-.184.131-.245.226-.06.096-.097.205-.104.317-.037.632-.202 1.25-.486 1.817-.283.566-.678 1.07-1.161 1.478l-.154.125c-.505.34-.953.76-1.325 1.242-.578.729-.979 1.582-1.17 2.493-.191.91-.168 1.853.069 2.753.236.9.68 1.732 1.293 2.43.614.7 1.383 1.246 2.245 1.596.101.041.211.057.32.046.109-.011.213-.049.304-.11.09-.06.165-.143.216-.24.052-.096.078-.204.078-.313 0-.071-.011-.141-.033-.209-.149-.56-.192-1.144-.127-1.72.631 1.19 1.644 2.133 2.876 2.677.15.068.32.077.476.026.974-.314 1.85-.872 2.547-1.62.697-.748 1.19-1.662 1.435-2.655.244-.993.23-2.032-.04-3.018-.271-.986-.79-1.887-1.506-2.616zm-2.603 8.554c-.581-.294-1.094-.708-1.505-1.214-.41-.505-.71-1.092-.88-1.72-.051-.213-.091-.427-.12-.643-.018-.138-.08-.267-.175-.368-.096-.1-.22-.169-.357-.196-.042-.008-.085-.012-.128-.012-.117 0-.232.03-.333.09-.102.058-.186.142-.244.244-.554.954-.832 2.043-.804 3.145-.487-.378-.893-.85-1.196-1.386-.303-.536-.497-1.128-.57-1.74-.073-.611-.024-1.232.145-1.825.169-.592.453-1.146.837-1.628.292-.378.644-.707 1.042-.972.017-.01.033-.023.05-.036 0 0 .197-.164.204-.168.95-.803 1.625-1.882 1.932-3.088.727.672 1.21 1.564 1.378 2.54.167.974.008 1.977-.454 2.852-.06.117-.086.249-.072.38.015.13.067.255.151.356.085.101.197.175.324.212.126.037.26.036.386-.003 1.022-.32 1.92-.945 2.575-1.791.394.581.651 1.244.753 1.939.102.695.046 1.404-.164 2.074-.21.67-.569 1.284-1.05 1.796-.48.512-1.07.91-1.725 1.162z"/>
</svg>
