<svg xmlns="http://www.w3.org/2000/svg" width="34" height="34" fill="none" viewBox="0 0 34 34">
    <path fill="#6183E5" fill-opacity=".08" stroke="#6183E5" d="M29.255 1H4.745C2.677 1 1 2.677 1 4.745v24.51C1 31.323 2.677 33 4.745 33h24.51C31.323 33 33 31.323 33 29.255V4.745C33 2.677 31.323 1 29.255 1z"/>
    <g stroke="#6183E5" stroke-linecap="round" stroke-linejoin="round" stroke-width="1.333" clip-path="url(#clip0)">
        <path d="M23.468 15.979c0 4.766-6.128 8.85-6.128 8.85s-6.127-4.084-6.127-8.85c0-1.625.645-3.184 1.795-4.333 1.149-1.15 2.707-1.795 4.332-1.795 1.626 0 3.184.646 4.333 1.795 1.15 1.149 1.795 2.708 1.795 4.333z"/>
        <path d="M17.34 18.021c1.128 0 2.043-.914 2.043-2.042 0-1.128-.915-2.043-2.043-2.043-1.128 0-2.042.915-2.042 2.043 0 1.128.914 2.042 2.042 2.042z"/>
    </g>
    <defs>
        <clipPath id="clip0">
            <path fill="#fff" d="M0 0H16.34V16.34H0z" transform="translate(9.17 9.17)"/>
        </clipPath>
    </defs>
</svg>
