<svg xmlns="http://www.w3.org/2000/svg" width="32" height="32" fill="none" viewBox="0 0 32 32">
    <circle cx="16" cy="16" r="16" fill="#6183E5" fill-opacity=".08"/>
    <path fill="#6183E5" d="M17.334 20c.176 0 .346-.07.471-.195s.195-.295.195-.472V18c0-.177-.07-.346-.195-.471s-.295-.196-.471-.196c-.177 0-.347.07-.472.196-.125.125-.195.294-.195.471v1.333c0 .177.07.347.195.472s.295.195.472.195zm-2.667 0c.177 0 .346-.07.471-.195s.196-.295.196-.472V18c0-.177-.07-.346-.196-.471-.125-.125-.294-.196-.471-.196s-.346.07-.472.196c-.125.125-.195.294-.195.471v1.333c0 .177.07.347.195.472.126.125.295.195.472.195zm6-8h-.92l-1.153-2.3c-.036-.085-.088-.161-.154-.225-.066-.063-.145-.112-.23-.144-.087-.032-.178-.045-.27-.04-.091.005-.18.029-.263.07-.081.042-.154.1-.212.17-.059.07-.102.153-.127.24-.026.089-.033.181-.02.272.011.091.042.179.089.257l.847 1.7h-4.507l.847-1.7c.064-.155.068-.33.01-.487-.059-.158-.175-.288-.325-.364-.15-.076-.324-.092-.485-.046-.162.047-.3.153-.387.297L12.254 12h-.92c-.472.007-.925.18-1.281.49-.356.308-.591.733-.665 1.199-.073.465.02.942.264 1.345.244.403.622.708 1.068.86l.494 4.973c.05.495.282.953.652 1.286.37.333.85.516 1.348.514H18.8c.498.002.978-.18 1.348-.514.37-.332.602-.791.652-1.286l.494-4.974c.447-.152.826-.457 1.07-.862.243-.405.335-.883.26-1.349-.075-.466-.313-.89-.671-1.199-.358-.308-.814-.479-1.286-.483zm-1.207 8.733c-.016.165-.094.318-.217.43-.123.11-.284.171-.45.17h-5.586c-.166.001-.326-.06-.45-.17-.123-.112-.2-.265-.217-.43L12.067 16h7.867l-.474 4.733zm1.207-6.066h-9.333c-.177 0-.347-.07-.472-.195-.125-.126-.195-.295-.195-.472s.07-.346.195-.471.295-.196.472-.196h9.333c.177 0 .346.07.471.196.125.125.196.294.196.471s-.07.346-.196.472c-.125.125-.294.195-.471.195z"/>
</svg>
