<svg width="16" height="16" viewBox="0 0 16 16" fill="none" xmlns="http://www.w3.org/2000/svg">
<g clip-path="url(#clip0)">
<path d="M9.69919 0.470604H6.30081C5.41769 0.470604 4.69922 1.18907 4.69922 2.0722V2.35732H5.63672V2.0722C5.63672 1.70601 5.93463 1.4081 6.30081 1.4081H9.69919C10.0654 1.4081 10.3633 1.70601 10.3633 2.0722V2.35732H11.3008V2.0722C11.3008 1.1891 10.5823 0.470604 9.69919 0.470604Z" fill="#03224C"/>
<path d="M8.47266 8.47078V7.05672H7.52734V8.47078C7.52734 8.72965 7.31747 8.93953 7.05859 8.93953H5.64453V9.88484H7.05859C7.31747 9.88484 7.52734 10.0947 7.52734 10.3536V11.7677H8.47266V10.3536C8.47266 10.0947 8.68253 9.88484 8.94141 9.88484H10.3555V8.93953H8.94141C8.68253 8.93953 8.47266 8.72969 8.47266 8.47078Z" fill="#03224C"/>
<path d="M0 5.67766V13.1465C0 14.2999 0.823906 15.2643 1.91403 15.4827V3.34142C0.823906 3.55979 0 4.5242 0 5.67766Z" fill="#03224C"/>
<path d="M14.0859 3.34142V15.4827C15.1761 15.2643 16 14.2999 16 13.1464V5.67766C16 4.5242 15.1761 3.55979 14.0859 3.34142Z" fill="#03224C"/>
<path d="M13.1485 3.2948H2.85156V15.5292H13.1485V3.2948ZM11.293 10.3534C11.293 10.6122 11.0831 10.8221 10.8243 10.8221H9.41019V12.2362C9.41019 12.495 9.20031 12.7049 8.94144 12.7049H7.05863C6.79975 12.7049 6.58988 12.495 6.58988 12.2362V10.8221H5.17581C4.91694 10.8221 4.70706 10.6122 4.70706 10.3534V8.47055C4.70706 8.21167 4.91694 8.0018 5.17581 8.0018H6.58988V6.58774C6.58988 6.32886 6.79975 6.11899 7.05863 6.11899H8.94144C9.20031 6.11899 9.41019 6.32886 9.41019 6.58774V8.0018H10.8243C11.0831 8.0018 11.293 8.21167 11.293 8.47055V10.3534Z" fill="#03224C"/>
</g>
<defs>
<clipPath id="clip0">
<rect width="16" height="16" fill="white"/>
</clipPath>
</defs>
</svg>
