<svg xmlns="http://www.w3.org/2000/svg" width="184" height="12" fill="none" viewBox="0 0 184 12">
    <path fill="#FE3945" d="M183.104 6.58c-3.828.775-7.29 1.452-11.159 1.936-7.412.968-14.906 1.742-22.399 2.13-2.322.096-4.684.096-7.046.096-6.027 0-12.177-.29-17.756-1.258-3.869-.678-4.602-.774-8.349-1.549-4.399-.87-9.815-2.225-14.376-2.612-2.892-.194-4.521-.388-7.209-.388h-1.344C87.48 5.032 80.596 6 74.406 6.871c-6.516.87-12.991 1.742-19.507 1.742-2.566 0-5.132-.097-7.698-.484-2.362-.484-4.154-.677-6.679-1.548-2.81-.968-6.15-2.904-9-4.549-1.385-.677-2.403-1.258-3.87-1.645C26.636.097 25.577 0 24.518 0c-1.833 0-3.706.387-5.539 1.065-1.955.774-4.398 1.838-6.19 2.71-1.588.773-2.2 1.16-3.706 1.838-.407.193-1.018.484-1.588.677-1.06.387-2.159.775-3.258.775-.448 0-.896 0-1.344-.194-.49-.387-.734-1.161-.978-2.13C1.588 3.582 1.181 3 .814 3 .368 3 0 3.871 0 5.42c0 .29 0 .58.04.87C.327 7.258.61 8.226 1.06 9c.122.29.285.484.448.677.203.194.407.388.61.484.57.29 1.141.387 1.711.387.611-.096 1.181-.096 1.792-.29.733-.29 2.036-.87 2.647-1.258 2.403-1.258 4.888-2.806 7.127-3.871 1.833-.87 2.485-1.161 4.317-1.839 1.344-.484 2.892-.677 4.399-.677.977 0 1.995.097 2.891.29 1.385.387 2.444.871 3.747 1.452.611.29 1.303.677 1.914 1.064.652.29 1.385.775 2.037 1.065 1.588.774 3.869 1.645 5.253 2.032 2.485.678 4.48.871 6.842 1.258 1.873.097 3.706.194 5.539.194 2.403 0 4.765-.097 7.208-.387 4.928-.484 10.06-1.355 15.028-2.033 5.906-.774 12.3-1.451 18.001-1.451h1.181c3.38.097 4.765.387 7.86.677 1.1.194 2.403.387 3.584.58 1.141.194 2.322.485 3.462.678 5.131.968 10.385 1.936 15.517 2.71 5.783.968 11.688 1.258 17.512 1.258 2.728 0 5.457-.097 8.145-.194 7.616-.387 15.028-.87 22.521-1.548 3.91-.387 7.412-.968 11.281-1.645.286-.387.367-.871.367-1.258 0-.484-.244-.871-.57-.871-.082 0-.204 0-.326.097z"/>
</svg>
