<svg xmlns="http://www.w3.org/2000/svg" width="40" height="40" fill="none" viewBox="0 0 40 40">
    <path fill="#49B1D6" d="M12.653 26.904c-.819 0-1.489-.67-1.489-1.49V13.053c0-.82.67-1.49 1.49-1.49.819 0 1.489.67 1.489 1.49v12.436c0 .745-.67 1.415-1.49 1.415z"/>
    <path fill="#49B1D6" d="M12.653 14.468c-2.607 0-4.766-2.606-4.766-5.734C7.887 5.532 10.047 3 12.653 3s4.766 2.606 4.766 5.734c0 3.202-2.085 5.734-4.766 5.734zm0-8.564c-.968 0-1.862 1.34-1.862 2.83s.894 2.83 1.862 2.83c.968 0 1.861-1.34 1.861-2.83s-.819-2.83-1.861-2.83zM26.858 26.935c-.819 0-1.489-.67-1.489-1.49V11.67c0-.82.67-1.49 1.49-1.49.819 0 1.489.67 1.489 1.49V25.52c0 .745-.67 1.415-1.49 1.415z"/>
    <path fill="#49B1D6" d="M26.952 12.83c-2.681 0-4.84-2.16-4.84-4.766V4.713c0-.82.67-1.49 1.489-1.49.819 0 1.489.67 1.489 1.49v3.351c0 1.043.894 1.862 1.936 1.862 1.043 0 1.936-.82 1.936-1.862V4.713c0-.82.67-1.49 1.49-1.49.819 0 1.49.67 1.49 1.49v3.351c-.075 2.606-2.31 4.766-4.99 4.766zM28.067 38H11.684c-.372 0-.744-.15-1.042-.447l-5.51-5.734c-.373-.447-.522-1.043-.299-1.564.224-.521.745-.894 1.34-.894h27.33c.596 0 1.118.373 1.341.894.224.521.149 1.191-.298 1.564l-5.51 5.734c-.224.298-.596.447-.969.447zm-15.712-2.905h15.042l2.681-2.83H9.6l2.756 2.83z"/>
</svg>
