<svg xmlns="http://www.w3.org/2000/svg" width="16" height="16" fill="none" viewBox="0 0 16 16">
    <path fill="#03224C" d="M15.044 5.316c-.545-1.433-1.504-2.652-2.767-3.523C11.014.925 9.537.464 8.005.464h-.019c-.692 0-1.379.097-2.046.285l-.007.003c-1.865.527-3.435 1.74-4.419 3.41-.022.035-.037.076-.05.113-.113.157-.21.33-.285.508l-.016.034C.63 5.965.395 7.234.477 8.494c.084 1.26.486 2.488 1.166 3.554.68 1.066 1.623 1.95 2.73 2.557 1.106.608 2.36.931 3.623.931h.006c1.695 0 3.357-.583 4.682-1.639.17-.022.31-.132.373-.291l.007-.013c.003-.01.006-.015.006-.025 1.112-1.012 1.89-2.32 2.247-3.783.37-1.492.273-3.037-.273-4.47zm-8.377 8.403l.012-.026c.063-.134.11-.272.138-.416l.003-.016c.01-.069.035-.135.07-.194.046-.038.096-.07.153-.091l.006-.003c.116-.05.229-.116.332-.192l.007-.006c.219-.175.4-.389.532-.633.063-.106.11-.216.166-.342l.004-.009c.056-.144.131-.279.225-.398.116-.11.42-.025.646.085.348.156.664.366.943.626l.022.022c.323.339.668.662 1.028.963l.007.003c.2.153.413.291.636.41-.618.405-1.291.7-2.01.881-.833.21-1.689.25-2.541.129-.075-.044-.147-.088-.22-.142l-.009-.006c-.131-.081-.222-.213-.257-.363.019-.1.053-.198.107-.282zm4.895-1.38c-.329-.272-.645-.567-.94-.88l-.031-.032-.003-.003c-.358-.338-.765-.61-1.207-.811-.715-.345-1.357-.298-1.758.125l-.01.01c-.169.2-.3.422-.398.667l-.006.012c-.04.088-.075.17-.116.239l-.003.003c-.072.131-.166.247-.282.345-.05.034-.1.062-.154.084-.178.072-.338.179-.473.317l-.016.019c-.147.184-.247.404-.285.639-.013.066-.031.128-.056.188-.132.222-.207.476-.22.736v.02c0 .037.003.075.006.115-1.607-.63-2.92-1.88-3.623-3.463-.77-1.736-.755-3.723.044-5.447l.02-.041.005-.016c.057-.147.138-.279.242-.395.025-.022.05-.04.081-.053.075-.034.157-.053.245-.053.034 0 .069.006.1.019.022.012.038.034.047.06.016.168-.019.338-.094.491-.182.36-.226.774-.12 1.163l.007.022c.2.527.727.737 1.11.85l.05.012.025.006c.207.035.395.126.551.267.063.112.1.231.116.363v.006c.035.226.104.445.207.652l.003.007c.314.56.919.749 1.464.877.523.129 1.06.26 1.586.392.154.047.32.044.473-.01l.006-.003c.201-.078.348-.26.38-.473.06-.398-.295-.796-.464-.962l.006-.006-.22-.176c-.278-.22-.498-.392-.498-.627 0-.047.022-.087.063-.113.022.007.075.029.16.066l.144.066c.276.141.611.097.84-.113l.016-.015c.15-.166.213-.395.175-.618-.034-.279-.01-.304.028-.329.154-.081.317-.138.49-.17l.009-.002c.147-.032.298-.072.445-.123l.01-.003c.378-.15.733-.35 1.059-.598.037-.025.081-.054.128-.082l.003-.003c.31-.14.555-.392.69-.705l.006-.022c.15-.46-.063-.906-.636-1.32-.339-.244-.853-.61-1.48-.52h-.006c-.185.035-.363.094-.53.173-.009.003-.018.009-.028.012.11-.116.198-.25.26-.398l.01-.028c.131-.451-.063-.931-.47-1.166-.154-.085-.317-.144-.486-.176.924.032 1.833.264 2.68.684 1.275.633 2.29 1.639 2.936 2.908.665 1.304.875 2.755.605 4.19-.263 1.414-.962 2.67-2.024 3.643-.323-.116-.621-.286-.894-.493zM7.726 2.37l.025-.003c.17-.037.348-.018.505.06.015.01.028.025.034.044-.031.047-.072.09-.119.128-.279.192-.445.508-.448.847v.025c.022.232.147.445.345.576.254.17.57.226.868.157h.003c.144-.037.285-.088.423-.153.091-.044.185-.079.285-.1.223-.029.492.15.774.35.176.129.251.223.276.264-.04.05-.175.128-.25.175-.07.04-.141.082-.226.144l-.006.003c-.251.192-.527.348-.818.464-.107.035-.217.066-.326.088-.282.05-.549.147-.8.291l-.006.004c-.304.197-.464.476-.486.849-.279-.1-.589-.075-.855.075-.342.195-.546.558-.527.95.003.47.242.808.505 1.06l-.586-.145c-.358-.088-.718-.188-.847-.407-.053-.116-.087-.235-.106-.36-.035-.274-.135-.543-.282-.775l-.022-.028c-.282-.314-.665-.53-1.081-.602l-.032-.01c-.326-.097-.439-.19-.473-.253-.025-.163.006-.33.085-.477l.003-.006c.16-.332.213-.699.15-1.066l-.003-.012c-.072-.313-.276-.57-.567-.715-.054-.025-.11-.047-.166-.062.768-.91 1.799-1.611 2.924-1.987.357.373.855.598 1.376.626.15.007.3 0 .451-.018z"/>
</svg>
