<svg xmlns="http://www.w3.org/2000/svg" width="30" height="30" fill="none" viewBox="0 0 30 30">
    <circle cx="15" cy="15" r="14" fill="#C4C4C4" stroke="#fff" stroke-width="2"/>
    <path fill="#FFD949" d="M16.39 28c-6.282 0-11.374-5.82-11.374-13S10.108 2 16.39 2c6.282 0 11.375 5.82 11.375 13S22.673 28 16.39 28z"/>
    <path fill="#F4BF1A" d="M5.016 15c0-6.64 4.357-12.114 9.982-12.9-.457-.063-.92-.1-1.393-.1C7.323 2 2.23 7.82 2.23 15s5.093 13 11.375 13c.472 0 .936-.037 1.393-.1-5.624-.786-9.982-6.26-9.982-12.9z"/>
    <path fill="#AF8610" d="M16.432 25.457h-.04c-.325 0-.652-.019-.973-.057-.255-.03-.436-.261-.406-.516.03-.255.263-.433.516-.406.284.034.575.05.863.05.256 0 .484.209.484.465 0 .257-.187.465-.444.465zm2.7-.5c-.188 0-.365-.114-.435-.3-.09-.24.03-.508.27-.598.268-.101.535-.22.793-.352.228-.118.508-.027.625.201.117.228.027.508-.201.625-.29.149-.588.28-.89.394-.052.02-.108.03-.163.03zm-6.285-.354c-.07 0-.142-.017-.21-.05-.285-.146-.568-.31-.84-.487-.214-.14-.274-.428-.133-.643.14-.214.428-.274.643-.134.242.16.495.306.75.435.23.116.32.396.205.624-.082.162-.246.255-.415.255zm9.337-1.652c-.118 0-.236-.045-.327-.135-.182-.18-.183-.474-.002-.656.201-.204.398-.423.583-.651.162-.199.455-.23.653-.068.2.162.23.454.068.654-.205.251-.422.493-.645.718-.091.092-.21.138-.33.138zm-12.172-.654c-.135 0-.268-.058-.36-.17-.201-.245-.395-.505-.575-.772-.143-.213-.087-.502.126-.645.212-.144.5-.088.644.125.164.243.34.48.524.703.162.199.133.491-.065.654-.086.07-.19.105-.294.105zm14.213-2.385c-.062 0-.125-.012-.185-.038-.235-.103-.343-.377-.24-.612.116-.266.222-.543.316-.821.081-.243.345-.374.588-.292.243.082.374.345.292.588-.102.303-.218.605-.345.896-.077.175-.247.28-.426.28zm-15.983-.82c-.193 0-.374-.122-.44-.315-.103-.301-.194-.61-.27-.92-.063-.25.088-.501.337-.563.248-.063.501.09.563.338.071.285.155.57.249.845.083.243-.047.506-.29.59-.049.016-.1.025-.15.025zm16.86-2.738c-.012 0-.024 0-.036-.002-.256-.02-.447-.243-.427-.499.022-.281.033-.569.033-.853 0-.256.208-.48.464-.48s.464.194.464.45V15c0 .309-.012.62-.035.925-.019.244-.223.429-.463.429zm-17.454-.885c-.256 0-.464-.203-.464-.459V15c0-.317.012-.635.037-.946.02-.255.243-.445.5-.426.255.02.446.244.426.5-.023.287-.035.58-.035.872 0 .256-.208.47-.464.47zm17.149-2.768c-.208 0-.397-.14-.45-.35-.072-.286-.156-.57-.25-.846-.084-.243.046-.507.288-.59.243-.084.507.046.59.289.103.3.195.61.273.919.062.249-.089.5-.337.563-.038.01-.076.015-.114.015zm-16.561-.844c-.05 0-.1-.008-.15-.025-.243-.082-.373-.346-.29-.589.102-.301.219-.603.346-.895.103-.235.376-.341.612-.24.235.103.342.377.24.612-.118.268-.225.545-.319.821-.066.194-.246.316-.44.316zM23.31 9.353c-.149 0-.295-.071-.385-.204-.164-.242-.34-.479-.524-.702-.164-.198-.135-.49.063-.654.197-.163.49-.134.653.063.202.246.396.506.577.773.144.212.088.5-.124.644-.08.054-.17.08-.26.08zM9.998 8.647c-.103 0-.207-.034-.293-.105-.199-.162-.228-.454-.066-.653.205-.25.422-.492.646-.717.181-.181.475-.183.656-.002.182.18.183.474.003.656-.203.204-.4.423-.586.65-.091.113-.225.171-.36.171zm10.717-1.871c-.087 0-.175-.024-.253-.075-.243-.158-.496-.304-.753-.434-.228-.115-.32-.394-.205-.623.116-.228.394-.322.624-.206.287.145.57.308.84.485.216.14.276.428.136.642-.089.137-.237.211-.39.211zm-7.884-.441c-.17 0-.332-.092-.414-.254-.117-.228-.026-.507.203-.624.289-.147.588-.28.889-.392.24-.09.508.032.598.272.09.24-.032.508-.273.598-.268.1-.535.218-.793.35-.067.034-.14.05-.21.05zm4.46-.812c-.018 0-.037-.001-.055-.003-.28-.033-.563-.05-.844-.05-.256 0-.474-.207-.474-.463 0-.257.198-.465.454-.465h.02c.316 0 .637.019.952.056.254.029.437.26.407.514-.027.237-.228.41-.46.41zM5.015 15.464H2.23c.01.313.027.622.056.929h2.787c-.029-.307-.048-.616-.058-.929zM5.123 13.143H2.34c-.038.306-.066.616-.085.928h2.785c.02-.312.046-.622.084-.928zM5.27 17.786H2.485c.06.314.13.623.21.928h2.785c-.079-.305-.148-.614-.208-.928zM5.92 20.107H3.133c.118.317.25.626.388.929h2.787c-.14-.303-.27-.613-.388-.929zM5.606 10.821H2.824c-.09.305-.175.614-.246.929h2.79c.07-.314.148-.624.238-.929zM6.532 8.5H3.746c-.153.302-.298.611-.43.929h2.788c.132-.317.274-.627.428-.929zM8.425 5.714h-2.79c-.263.296-.514.605-.752.929H7.67c.238-.324.49-.633.754-.929zM11.264 3.393H8.473c-.475.274-.93.584-1.364.928H9.9c.434-.344.89-.654 1.365-.928zM7.346 22.893H4.559c.215.322.443.631.683.928h2.789c-.24-.297-.47-.606-.685-.928zM6.563 25.214c.372.336.763.647 1.171.929h2.793c-.41-.282-.805-.592-1.18-.929H6.563z"/>
</svg>
