<svg width="16" height="16" viewBox="0 0 16 16" fill="none" xmlns="http://www.w3.org/2000/svg">
<path d="M8 0C3.57803 0 0 3.57834 0 8C0 12.422 3.57834 16 8 16C12.422 16 16 12.4217 16 8C16 3.57803 12.4216 0 8 0ZM8 14.75C4.26897 14.75 1.25 11.7308 1.25 8C1.25 4.26897 4.26922 1.25 8 1.25C11.731 1.25 14.75 4.26922 14.75 8C14.75 11.731 11.7308 14.75 8 14.75Z" fill="#03224C"/>
<path d="M8 6.69785C7.65481 6.69785 7.375 6.97766 7.375 7.32285V11.3476C7.375 11.6928 7.65481 11.9726 8 11.9726C8.34519 11.9726 8.625 11.6928 8.625 11.3476V7.32285C8.625 6.97766 8.34519 6.69785 8 6.69785Z" fill="#03224C"/>
<path d="M8 5.93256C8.46599 5.93256 8.84375 5.5548 8.84375 5.08881C8.84375 4.62282 8.46599 4.24506 8 4.24506C7.53401 4.24506 7.15625 4.62282 7.15625 5.08881C7.15625 5.5548 7.53401 5.93256 8 5.93256Z" fill="#03224C"/>
</svg>
