<svg xmlns="http://www.w3.org/2000/svg" width="17" height="16" fill="none" viewBox="0 0 17 16">
    <path fill="#5B5B5B" d="M16.005 12.476l-3.604-3.277c-.17-.155-.394-.238-.624-.23-.23.006-.449.103-.61.268l-2.121 2.182c-.51-.098-1.538-.418-2.594-1.472C5.395 8.889 5.075 7.86 4.98 7.353L7.16 5.23c.165-.16.262-.379.269-.61.007-.23-.076-.453-.23-.624L3.921.393C3.767.223 3.552.12 3.32.104c-.23-.014-.457.062-.632.212L.764 1.966c-.153.154-.244.359-.257.575-.013.222-.267 5.473 3.805 9.546 3.552 3.551 8.001 3.811 9.227 3.811.179 0 .289-.005.318-.007.217-.012.421-.104.575-.258l1.649-1.925c.15-.175.227-.401.213-.631-.014-.23-.118-.446-.289-.601z"/>
</svg>
