<svg xmlns="http://www.w3.org/2000/svg" width="40" height="40" fill="none" viewBox="0 0 40 40">
    <path fill="#49B1D6" d="M20 28.272c-3.005 0-5.862-1.302-7.914-3.6-2.052-2.374-3.077-5.438-2.858-8.578l.953-12.715c.073-.766.66-1.379 1.465-1.379h16.706c.733 0 1.392.613 1.465 1.379l.953 12.715c.22 3.14-.806 6.204-2.858 8.578-2.051 2.375-4.909 3.6-7.913 3.6zM12.964 4.987l-.879 11.336c-.146 2.298.586 4.52 2.052 6.281 1.538 1.685 3.59 2.681 5.788 2.681 2.198 0 4.323-.919 5.788-2.68 1.466-1.762 2.272-3.907 2.052-6.282l-.733-11.336H12.965z"/>
    <path fill="#49B1D6" d="M19.999 38c-.806 0-1.466-.69-1.466-1.532V26.74c0-.843.66-1.532 1.466-1.532.806 0 1.465.69 1.465 1.532v9.728c0 .842-.66 1.531-1.465 1.531z"/>
    <path fill="#49B1D6" d="M25.274 38h-10.55c-.807 0-1.466-.689-1.466-1.532 0-.842.66-1.532 1.465-1.532h10.551c.806 0 1.466.69 1.466 1.532 0 .843-.66 1.532-1.466 1.532z"/>
</svg>
