<svg xmlns="http://www.w3.org/2000/svg" width="33" height="32" fill="none" viewBox="0 0 33 32">
    <g clip-path="url(#clip0)">
        <path fill="#FFD949" d="M18.213 32c-7.732 0-14-7.163-14-16s6.268-16 14-16 14 7.163 14 16-6.268 16-14 16z"/>
        <path fill="#F4BF1A" d="M4.214 16c0-8.173 5.363-14.91 12.285-15.877C15.937.045 15.366 0 14.785 0c-7.732 0-14 7.163-14 16s6.268 16 14 16c.58 0 1.152-.045 1.714-.123C9.577 30.91 4.214 24.173 4.214 16z"/>
        <path fill="#AF8610" d="M18.263 28.87h-.049c-.4 0-.803-.023-1.197-.07-.314-.038-.537-.322-.5-.636.038-.313.324-.532.635-.5.35.043.707.064 1.062.064.316 0 .596.256.596.571 0 .316-.23.572-.547.572zm3.323-.615c-.23 0-.449-.141-.535-.37-.111-.296.038-.625.333-.736.33-.124.658-.27.975-.433.281-.145.625-.033.77.248.144.28.033.625-.248.769-.356.183-.724.345-1.094.485-.066.025-.134.037-.201.037zm-7.734-.436c-.087 0-.176-.02-.259-.063-.351-.178-.699-.38-1.033-.599-.264-.172-.338-.526-.165-.79.173-.264.526-.338.791-.166.299.197.61.377.925.537.28.142.393.486.25.768-.1.198-.301.313-.51.313zm11.491-2.034c-.145 0-.29-.055-.402-.165-.224-.223-.226-.584-.004-.808.249-.25.49-.52.719-.801.2-.245.56-.282.804-.083.244.199.282.559.083.804-.252.31-.52.607-.794.884-.112.113-.26.17-.406.17zm-14.982-.804c-.165 0-.329-.072-.442-.209-.248-.302-.486-.622-.707-.951-.177-.262-.108-.617.154-.794.261-.176.617-.108.793.154.202.3.418.591.644.866.2.244.165.604-.08.805-.105.087-.234.129-.362.129zm17.494-2.936c-.076 0-.154-.015-.228-.047-.29-.126-.422-.463-.296-.753.144-.328.274-.668.39-1.01.1-.299.424-.46.723-.36.3.101.46.425.36.724-.126.373-.269.745-.425 1.103-.094.215-.304.343-.524.343zm-19.672-1.01c-.238 0-.46-.15-.541-.387-.126-.37-.238-.751-.333-1.133-.077-.306.11-.616.416-.692.305-.078.616.11.692.416.088.35.19.7.307 1.04.101.299-.058.624-.356.725-.06.021-.124.032-.185.032zm20.752-3.369c-.015 0-.03 0-.045-.002-.315-.024-.55-.3-.526-.614.027-.346.04-.7.04-1.05 0-.316.257-.59.572-.59.316 0 .572.237.572.553V16c0 .38-.015.763-.044 1.139-.023.299-.274.527-.57.527zM7.452 16.578c-.315 0-.571-.25-.571-.566V16c0-.39.015-.782.046-1.164.025-.315.298-.548.614-.525.315.025.55.3.525.615-.028.353-.042.714-.042 1.074 0 .315-.256.578-.572.578zM28.56 13.17c-.256 0-.488-.172-.554-.431-.088-.352-.192-.702-.308-1.041-.102-.298.057-.623.355-.726.3-.103.624.057.726.356.127.369.24.75.335 1.13.078.307-.108.617-.414.694-.046.013-.093.018-.14.018zM8.176 12.132c-.061 0-.123-.01-.184-.031-.3-.101-.46-.426-.358-.725.126-.371.27-.742.427-1.101.127-.29.463-.42.752-.295.29.126.422.463.295.752-.144.33-.276.67-.391 1.011-.082.239-.303.389-.541.389zM26.73 9.05c-.183 0-.363-.088-.474-.251-.202-.299-.42-.59-.645-.864-.201-.244-.166-.604.077-.805.244-.2.604-.166.805.078.248.302.487.621.71.95.177.261.108.617-.153.794-.098.066-.21.098-.32.098zm-16.385-.87c-.127 0-.255-.041-.361-.128-.245-.2-.28-.56-.08-.804.251-.309.519-.606.794-.883.223-.223.585-.225.808-.002.224.222.225.584.003.808-.25.25-.492.52-.721.8-.112.138-.277.21-.443.21zm13.19-2.302c-.107 0-.215-.03-.311-.093-.3-.194-.611-.374-.927-.533-.281-.143-.394-.486-.252-.768.142-.28.485-.395.767-.252.353.177.701.378 1.035.596.265.172.34.527.167.79-.11.17-.292.26-.48.26zm-9.704-.543c-.208 0-.408-.114-.51-.312-.143-.28-.031-.625.25-.768.356-.182.724-.344 1.095-.483.295-.11.625.04.735.335.11.296-.039.625-.335.736-.33.123-.659.268-.977.43-.082.042-.171.062-.258.062zm5.49-1c-.023 0-.045 0-.068-.003-.344-.04-.693-.06-1.039-.06-.315 0-.583-.256-.583-.572 0-.315.244-.571.559-.571h.024c.39 0 .784.023 1.171.068.314.036.539.32.502.633-.033.291-.281.506-.567.506zM4.213 16.571H.785c.012.385.033.766.068 1.143h3.43c-.035-.377-.058-.758-.07-1.143zM4.344 13.714H.918c-.048.376-.082.758-.106 1.143H4.24c.024-.385.056-.767.104-1.143zM4.527 19.429h-3.43c.075.386.16.767.258 1.143h3.428c-.097-.376-.182-.757-.256-1.143zM5.327 22.286h-3.43c.145.39.306.77.478 1.143h3.429c-.172-.373-.33-.754-.477-1.143zM4.94 10.857H1.515c-.111.376-.215.756-.302 1.143h3.432c.087-.386.184-.768.295-1.143zM6.078 8H2.65c-.189.372-.367.753-.529 1.143h3.43c.163-.39.339-.771.527-1.143zM8.412 4.571H4.98c-.326.364-.635.745-.927 1.143h3.431c.293-.398.603-.78.928-1.143zM11.905 1.714H8.469c-.584.337-1.144.719-1.678 1.143h3.434c.534-.424 1.095-.806 1.68-1.143zM7.083 25.714h-3.43c.264.396.544.777.84 1.143h3.433c-.296-.366-.578-.747-.843-1.143zM6.117 28.571c.459.413.94.797 1.442 1.143h3.437c-.505-.347-.99-.728-1.451-1.143H6.117z"/>
    </g>
    <defs>
        <clipPath id="clip0">
            <path fill="#fff" d="M0 0H32V32H0z" transform="translate(.5)"/>
        </clipPath>
    </defs>
</svg>
