<svg xmlns="http://www.w3.org/2000/svg" width="40" height="41" fill="none" viewBox="0 0 40 41">
    <g fill="#49B1D6" clip-path="url(#clip0)">
        <path d="M21.874 40.02h-10.98C7.064 40.02 4 36.958 4 33.128V16.955c0-.936.766-1.702 1.702-1.702h21.449c.936 0 1.702.766 1.702 1.702v16.172c-.085 3.83-3.234 6.894-6.98 6.894zM7.319 18.573v14.555c0 1.957 1.618 3.574 3.575 3.574h10.98c1.957 0 3.575-1.617 3.575-3.574V18.572H7.319z"/>
        <path d="M28.087 33.467c-.936 0-1.702-.766-1.702-1.702 0-.937.766-1.703 1.702-1.703 2.298 0 4.426-1.872 4.426-4 0-2.043-2.128-4-4.426-4-.936 0-1.702-.766-1.702-1.703 0-.936.766-1.702 1.702-1.702 4.17 0 7.745 3.405 7.745 7.32 0 4.085-3.66 7.49-7.745 7.49zM12.937 12.189c-.17 0-.426 0-.596-.085-.851-.34-1.277-1.277-.936-2.128.255-.596.17-1.447-.255-1.958-.086-.085-.086-.17-.17-.255-.171-.17-.256-.34-.341-.51-.681-1.022-.851-2.299-.681-3.575.17-1.022.596-1.958 1.277-2.894.51-.766 1.617-.937 2.298-.34.766.51.936 1.616.34 2.297-.425.511-.596 1.022-.68 1.532-.086.426 0 .851.17 1.192.085.085.17.17.17.255.085.085.17.256.255.34 1.021 1.448 1.277 3.405.596 5.108-.085.595-.766 1.02-1.447 1.02zM20.937 12.189c-.17 0-.426 0-.596-.085-.851-.34-1.277-1.277-.936-2.128.255-.596.17-1.447-.256-1.958-.085-.17-.085-.255-.17-.34-.17-.17-.255-.34-.34-.51-.681-1.022-.851-2.299-.681-3.575.17-1.022.596-1.958 1.277-2.894.51-.766 1.617-.937 2.298-.34.766.51.936 1.616.34 2.297-.425.511-.596 1.022-.68 1.532-.086.426 0 .851.17 1.192l.255.255c.085.085.17.256.255.34 1.021 1.448 1.277 3.405.596 5.107-.256.681-.851 1.107-1.532 1.107z"/>
    </g>
    <defs>
        <clipPath id="clip0">
            <path fill="#fff" d="M0 0H40V40.021H0z"/>
        </clipPath>
    </defs>
</svg>
