<svg xmlns="http://www.w3.org/2000/svg" width="40" height="40" fill="none" viewBox="0 0 40 40">
    <path fill="#49B1D6" d="M20 36.5c-8.99 0-16.25-7.26-16.25-16.25S11.01 4 20 4s16.25 7.26 16.25 16.25S28.99 36.5 20 36.5zm0-29.803c-7.468 0-13.553 6.085-13.553 13.553 0 7.468 6.085 13.553 13.553 13.553 7.468 0 13.553-6.085 13.553-13.553 0-7.468-6.085-13.553-13.553-13.553z"/>
    <path fill="#49B1D6" d="M12.393 29.24c-.346 0-.691-.14-.968-.416-.415-.415-.484-1.037-.277-1.59l5.048-10.165c.139-.277.346-.484.623-.622l10.165-5.048c.553-.277 1.175-.138 1.59.276.415.415.484 1.038.277 1.59l-5.048 10.166c-.139.276-.346.484-.623.622l-10.165 5.048c-.207.07-.414.138-.622.138zm6.085-10.511l-3.042 6.154 6.154-3.043 3.043-6.154-6.155 3.043zM20 9.048c-.76 0-1.383-.623-1.383-1.383V5.729c0-.761.622-1.383 1.383-1.383.76 0 1.383.622 1.383 1.383v2.005c0 .76-.622 1.314-1.383 1.314zM20 36.085c-.76 0-1.383-.623-1.383-1.383v-2.005c0-.761.622-1.384 1.383-1.384.76 0 1.383.623 1.383 1.384v2.074c0 .76-.622 1.314-1.383 1.314zM34.521 21.633h-2.005c-.76 0-1.383-.622-1.383-1.383 0-.76.622-1.383 1.383-1.383h2.005c.76 0 1.383.622 1.383 1.383 0 .76-.622 1.383-1.383 1.383zM7.484 21.633H5.479c-.761 0-1.383-.622-1.383-1.383 0-.76.622-1.383 1.383-1.383h2.005c.76 0 1.383.622 1.383 1.383 0 .76-.622 1.383-1.383 1.383z"/>
</svg>
