<svg xmlns="http://www.w3.org/2000/svg" width="55" height="26" fill="none" viewBox="0 0 55 26">
    <rect width="54.313" height="25.313" x=".344" y=".344" fill="#FFD949" rx="3.094"/>
    <path fill="#fff" d="M20.51 9.006h-3.752v2.786h3.276v1.442h-3.276V17H14.98V7.564h5.53v1.442zm3.066.896v1.26c.327-.877.924-1.316 1.792-1.316.196 0 .355.014.476.042v1.624c-.214-.093-.452-.14-.714-.14-.457 0-.83.187-1.12.56-.289.373-.434.84-.434 1.4V17h-1.694l.014-7.098h1.68zm7.526 2.968v-.21c-.019-.457-.145-.821-.378-1.092-.224-.28-.555-.42-.994-.42-.402 0-.752.15-1.05.448-.29.29-.476.714-.56 1.274h2.982zm1.148 2.282v1.456c-.495.308-1.209.462-2.142.462-1.13 0-2.02-.336-2.674-1.008-.654-.672-.98-1.54-.98-2.604 0-1.13.308-2.016.924-2.66.616-.644 1.386-.966 2.31-.966.924 0 1.657.28 2.198.84.541.56.812 1.377.812 2.45 0 .261-.033.597-.098 1.008h-4.452c.121.513.373.905.756 1.176.392.27.877.406 1.456.406.747 0 1.377-.187 1.89-.56zm6.262-2.282v-.21c-.019-.457-.145-.821-.378-1.092-.224-.28-.555-.42-.994-.42-.401 0-.751.15-1.05.448-.29.29-.476.714-.56 1.274h2.982zm1.148 2.282v1.456c-.495.308-1.209.462-2.142.462-1.13 0-2.02-.336-2.674-1.008-.653-.672-.98-1.54-.98-2.604 0-1.13.308-2.016.924-2.66.616-.644 1.386-.966 2.31-.966.924 0 1.657.28 2.198.84.541.56.812 1.377.812 2.45 0 .261-.033.597-.098 1.008h-4.452c.121.513.373.905.756 1.176.392.27.877.406 1.456.406.747 0 1.377-.187 1.89-.56z"/>
    <rect width="54.313" height="25.313" x=".344" y=".344" stroke="#FFD949" stroke-width=".688" rx="3.094"/>
</svg>
