<svg xmlns="http://www.w3.org/2000/svg" width="55" height="55" fill="none" viewBox="0 0 55 55">
    <mask id="7g67g6wdha" width="55" height="55" x="0" y="0" maskUnits="userSpaceOnUse">
        <circle cx="27.5" cy="27.5" r="27.5" fill="#FFF3EE"/>
    </mask>
    <g mask="url(#7g67g6wdha)">
        <circle cx="27.5" cy="27.5" r="27.5" fill="#FFF3EE"/>
        <path fill="#fff" d="M29.773 29.997c.462.28 1.044.417 1.277.45l.176 1.478c-.259-.059-1.247-.14-3.131 0-1.884.14-2.521-1.678-2.605-2.604.721.34 1.687.593 2.079.676l-.104-.791c1.127-.3 1.732.44 2.308.791z"/>
        <path fill="#03224C" fill-rule="evenodd" d="M29.464 29.671c.125.093.24.179.356.248.446.272 1.015.406 1.242.438l.07.01.199 1.677-.127-.03c-.244-.055-1.221-.137-3.104.003-.978.072-1.637-.366-2.058-.94-.418-.569-.602-1.272-.645-1.748l-.014-.159.145.068c.643.304 1.487.538 1.931.641l-.097-.74.078-.022c.59-.157 1.046-.04 1.427.16.188.098.358.218.514.333l.083.061zm-1.9-.396l.111.84-.127-.028c-.369-.078-1.24-.305-1.95-.615.065.44.243 1.021.592 1.497.39.532.991.932 1.896.865 1.665-.124 2.64-.076 3.033-.02l-.153-1.287c-.273-.048-.808-.187-1.242-.45-.122-.075-.246-.167-.372-.26l-.08-.06c-.155-.113-.315-.226-.49-.318-.332-.174-.718-.277-1.217-.164z" clip-rule="evenodd"/>
        <path fill="#fff" d="M25.868 29.012c-.515.364-1.126.366-1.368.32v1.341c.06-.007.186.196.668.686 1.37 1.392 2.654 1.213 3.089.992.435-.22 1.112-.705.478-.992-.507-.23-1.384-.036-1.625.192-1.085-.212-.89-1.298-.792-1.916.323.06.753.21 1.203.402.563.242.83-.028.455-.403-.376-.375-1.465-1.078-2.108-.622z"/>
        <path fill="#03224C" fill-rule="evenodd" d="M26.984 29.096c-.393-.163-.785-.209-1.066-.01-.476.337-1.027.379-1.33.352v1.176c.013.008.023.018.034.027.031.03.07.073.12.128l.029.032c.099.111.243.273.46.493 1.345 1.367 2.585 1.177 2.981.975.215-.11.478-.278.61-.446.066-.084.085-.15.074-.2-.01-.048-.054-.114-.202-.18-.23-.105-.556-.116-.86-.07-.151.024-.293.06-.41.105-.12.045-.206.095-.253.14l-.035.032-.046-.009c-.287-.056-.497-.171-.645-.33-.148-.156-.228-.348-.268-.548-.075-.378-.008-.8.04-1.103l.007-.04.015-.093.092.017c.334.062.771.215 1.223.409.134.057.244.082.328.084.086.002.132-.018.152-.037.016-.015.028-.04.016-.088-.013-.052-.055-.125-.142-.213-.18-.18-.536-.442-.924-.603zm.07-.17c.412.171.788.448.984.643.1.1.165.202.19.298.025.1.006.197-.068.267-.07.065-.172.09-.283.087-.113-.004-.247-.036-.395-.1-.405-.173-.79-.31-1.091-.377-.047.299-.097.662-.033.983.034.176.103.334.22.46.112.117.272.213.504.265.072-.056.169-.105.277-.146.13-.049.285-.089.446-.114.321-.05.688-.043.965.083.17.077.279.179.306.31.027.129-.031.251-.11.351-.157.202-.45.385-.67.497-.474.24-1.8.409-3.197-1.01-.22-.224-.366-.388-.465-.5l-.03-.032c-.05-.057-.083-.093-.107-.115l-.01-.009-.082.01v-1.555l.11.02c.223.042.808.041 1.296-.305.363-.257.836-.179 1.243-.01z" clip-rule="evenodd"/>
        <path fill="#fff" d="M14.618 18.76c1.336.055 1.527-3.003 1.021-4.889-.788-2.938-3.54-3.167-4.6-.719-.62 1.43-.271 1.65.223 5.123.495 3.471-.351 2.029-2.09 4.838-.971 1.57-1.143 9.293-.777 11.759 2.909 1.4 6.936.822 8.235.343.045-.574.205-3.703.203-4.879-.002-1.176-.063-1.081.914-.314 1.915 1.504 5.015 1.435 6.704 1.506l.116-2.77c-2.69-.358-5.525-.213-6.55-2.608-1.282-2.994-2.64-5.99-4.03-5.417-.783.322-.746-1.673-.699-2.74.133.253.712.74 1.33.767z"/>
        <path fill="#03224C" fill-rule="evenodd" d="M13.429 11.575c-.873-.113-1.795.412-2.315 1.61-.154.355-.246.63-.29.897-.046.266-.045.528-.01.857.034.313.098.684.184 1.175l.014.082c.093.532.208 1.198.332 2.067.123.869.165 1.438.127 1.845-.039.414-.159.663-.355.89-.11.127-.24.244-.388.378-.373.336-.867.781-1.486 1.782-.115.186-.222.468-.318.832-.096.362-.18.799-.253 1.289-.146.98-.247 2.166-.307 3.382-.117 2.405-.07 4.914.106 6.154 1.43.677 3.131.878 4.643.849 1.486-.029 2.78-.28 3.435-.51.05-.691.201-3.677.2-4.817l-.002-.193c0-.197-.001-.352.006-.466.005-.074.013-.138.03-.188.018-.05.052-.104.118-.12.058-.016.117.005.164.03.051.025.11.065.176.115.075.056.167.13.276.217l.281.224c.941.739 2.178 1.095 3.398 1.274.97.142 1.922.171 2.698.195l.476.016.109-2.61c-.404-.052-.808-.094-1.211-.135-.243-.024-.485-.05-.725-.076-.661-.075-1.305-.166-1.898-.32-1.187-.313-2.18-.887-2.707-2.117-.641-1.498-1.298-2.989-1.968-4.033-.334-.523-.668-.927-.998-1.165-.327-.236-.642-.303-.955-.175-.112.047-.219.055-.316.02-.096-.033-.172-.104-.231-.193-.117-.175-.186-.443-.228-.741-.084-.6-.062-1.373-.039-1.906l.014-.308.144.273c.058.108.223.284.455.437.231.151.515.272.805.284.294.013.532-.144.72-.436.189-.295.32-.718.394-1.209.15-.981.072-2.206-.178-3.138-.388-1.447-1.252-2.205-2.127-2.318zm.021-.167c.963.125 1.868.95 2.269 2.442.255.953.335 2.201.181 3.206-.076.502-.212.952-.419 1.274-.208.325-.495.53-.869.514-.329-.014-.642-.15-.889-.312-.143-.094-.268-.2-.362-.3-.018.506-.024 1.139.046 1.64.041.294.107.53.201.672.047.07.096.11.147.128.05.018.114.017.197-.017.383-.157.759-.065 1.118.194.355.256.702.681 1.041 1.21.678 1.058 1.34 2.563 1.981 4.058.499 1.165 1.436 1.715 2.595 2.02.58.152 1.214.241 1.873.316l.72.076c.43.044.865.088 1.296.146l.076.01-.122 2.93-.084-.003c-.17-.007-.356-.013-.553-.019-.777-.024-1.742-.053-2.723-.197-1.231-.18-2.502-.543-3.477-1.308l-.286-.228c-.106-.085-.194-.155-.267-.21-.065-.05-.114-.082-.152-.1-.022-.012-.035-.015-.041-.017l-.006.013c-.01.027-.017.072-.021.143-.007.107-.006.254-.006.449l.001.198c.002 1.18-.158 4.31-.204 4.886l-.004.053-.05.019c-.66.243-2.002.508-3.541.538-1.54.03-3.288-.177-4.759-.884l-.04-.02-.007-.044c-.184-1.241-.232-3.795-.113-6.231.059-1.22.16-2.412.308-3.4.073-.493.159-.936.257-1.306.097-.369.209-.67.337-.877.633-1.024 1.16-1.5 1.534-1.837.142-.128.261-.235.356-.345.172-.198.279-.415.314-.795.036-.386-.002-.939-.126-1.806-.123-.867-.237-1.53-.33-2.062l-.015-.085c-.085-.488-.15-.864-.185-1.183-.036-.339-.038-.617.01-.903.049-.285.146-.574.303-.935.541-1.25 1.525-1.835 2.49-1.71z" clip-rule="evenodd"/>
        <path fill="#03224C" d="M12.532 14.097c.197-1.046 1.516-1.243 1.918-.974.664.443 1.08.188 1.08.188.17-2.521-2.052-3.071-2.707-2.51-.656.561-2.027-.041-2.967 1.075-.94 1.116.3 2.235-.125 3.002-.425.767-.226 1.756.524 2.07.6.252.98 1.4 1.096 1.943.343-.386.955-1.355.657-2.153-.298-.796.174-.857.447-.787.65-.409-.119-.808.077-1.854zM8.496 40.93c-.705-2.716-.553-5.026-.145-6.075 4.042 1.507 7.115.854 8.146.34 1.259 2.862 3.784 9.087 3.809 11.095.024 2.008-.797 8.066-1.377 10.572-.277 1.2-2.363 1.114-3.005.196.227-2.747.62-8.366.386-9.256-.234-.89-2.109-5.289-2.723-7.364-.817-1.19.768 4.385 1.368 7.308-.583 3.152-1.844 9.58-2.226 10.07-1.493 1.165-2.844.393-3.333-.14.352-1.97 1.073-6.27 1.133-7.711.076-1.802-1.423-6.69-2.033-9.036z"/>
        <path fill="#03224C" fill-rule="evenodd" d="M16.536 35.08l.035.081c.63 1.432 1.577 3.706 2.37 5.873.396 1.084.754 2.142 1.015 3.055.26.91.426 1.686.432 2.2.012 1.01-.188 3.033-.463 5.111-.274 2.08-.625 4.224-.916 5.481-.151.656-.793.944-1.446.958-.653.014-1.368-.243-1.71-.732l-.018-.025.003-.03c.114-1.373.268-3.464.366-5.322.048-.93.083-1.8.09-2.493.004-.347 0-.648-.01-.89-.012-.244-.03-.421-.058-.523-.057-.218-.216-.654-.435-1.226-.158-.413-.346-.893-.547-1.405l-.233-.598c-.572-1.463-1.193-3.078-1.503-4.12-.026-.038-.048-.066-.065-.085l-.002.033c-.003.058.002.136.012.235.043.395.182 1.067.366 1.873.14.611.307 1.298.475 1.995.274 1.135.555 2.297.741 3.203l.004.016-.003.016c-.292 1.577-.753 3.973-1.19 6.036-.217 1.031-.43 1.98-.61 2.703-.091.36-.174.666-.247.897-.036.116-.07.214-.102.291-.03.076-.062.139-.093.18l-.007.008-.008.006c-.765.597-1.501.702-2.111.583-.606-.118-1.082-.454-1.336-.731l-.029-.03.008-.042c.353-1.973 1.073-6.267 1.133-7.7.018-.441-.06-1.076-.2-1.824-.138-.745-.337-1.597-.558-2.466-.26-1.024-.548-2.067-.803-2.991-.18-.65-.344-1.243-.47-1.73-.708-2.726-.56-5.055-.142-6.126l.03-.077.077.029c4.024 1.498 7.072.845 8.079.343l.079-.04zm-8.138-.117c-.377 1.062-.508 3.306.178 5.945.124.48.287 1.07.467 1.721.257.93.547 1.98.806 3.001.22.871.42 1.727.56 2.477.14.75.222 1.4.202 1.861-.06 1.438-.772 5.696-1.128 7.682.242.249.674.544 1.217.65.56.109 1.243.018 1.967-.543.015-.023.037-.066.064-.132.03-.072.062-.165.098-.278.071-.227.153-.528.243-.888.181-.72.393-1.666.61-2.697.434-2.054.894-4.44 1.185-6.015-.185-.902-.463-2.05-.735-3.176-.169-.698-.335-1.387-.476-2.003-.185-.804-.326-1.485-.37-1.892-.01-.102-.016-.19-.013-.259 0-.035.004-.067.01-.095.006-.027.016-.057.035-.082.022-.029.055-.05.099-.05.037 0 .069.017.091.034.046.032.095.09.146.166l.008.011.004.013c.306 1.034.926 2.649 1.5 4.12l.235.597c.2.513.39.994.547 1.407.218.568.38 1.015.44 1.243.033.12.052.314.064.558.01.246.014.551.01.9-.007.696-.042 1.57-.09 2.5-.097 1.846-.25 3.92-.364 5.295.307.413.944.65 1.552.637.62-.014 1.16-.283 1.285-.828.289-1.249.639-3.387.914-5.465.275-2.08.473-4.09.46-5.087-.005-.49-.165-1.245-.424-2.156-.26-.908-.616-1.962-1.012-3.043-.776-2.123-1.702-4.35-2.33-5.784-1.117.515-4.13 1.095-8.055-.345z" clip-rule="evenodd"/>
        <path fill="#fff" d="M8.814 24.801c.516-2.128 2.057-2.267 2.762-2.07 2.391.067 1.8 6.295 2.67 8.12.695 1.461 2.87 3.366 3.87 4.135l-1.573 2.015c-1.1-.794-3.534-2.612-4.478-3.535-1.18-1.154-3.897-6.004-3.251-8.665z"/>
        <path fill="#03224C" fill-rule="evenodd" d="M13.882 28.812c.104.843.23 1.562.44 2.004.341.716 1.05 1.549 1.805 2.303.753.752 1.544 1.418 2.042 1.801l.067.051-1.675 2.145-.066-.047c-1.098-.793-3.539-2.615-4.488-3.543-.601-.588-1.58-2.1-2.328-3.793-.375-.848-.693-1.746-.877-2.6-.183-.853-.235-1.669-.069-2.351.263-1.084.79-1.673 1.354-1.962.554-.285 1.133-.274 1.503-.173.638.022 1.068.457 1.367 1.088.3.634.479 1.487.608 2.385.08.55.142 1.124.202 1.678.038.35.075.69.115 1.014zm-1.077-5.005c-.288-.609-.678-.977-1.23-.993h-.01l-.01-.003c-.336-.093-.875-.107-1.392.158-.512.263-1.013.808-1.267 1.852-.157.648-.11 1.436.07 2.277.181.84.495 1.726.867 2.567.744 1.685 1.713 3.175 2.291 3.74.92.9 3.275 2.663 4.404 3.48L18 35.001c-.505-.393-1.266-1.038-1.992-1.763-.757-.756-1.483-1.606-1.838-2.35-.224-.47-.351-1.216-.455-2.055-.04-.33-.078-.673-.116-1.022-.06-.552-.12-1.119-.2-1.667-.13-.896-.306-1.727-.594-2.337z" clip-rule="evenodd"/>
        <path fill="#03224C" d="M18.763 35.027l-.318.66-.977 1.91c-.093.184-.032.409.142.519l.902.572c.2.127.466.053.571-.159l1.319-2.64c.095-.191.023-.424-.164-.528l-.922-.51c-.2-.11-.453-.03-.553.176z"/>
        <path fill="#03224C" fill-rule="evenodd" d="M19.278 34.931c-.155-.085-.35-.023-.426.136l-.32.661-.976 1.911c-.072.142-.025.315.11.4l.901.572c.154.097.359.04.44-.122l1.319-2.641c.073-.148.017-.327-.127-.406l-.921-.51zm-.591.056c.122-.254.433-.352.68-.216l.921.51c.23.127.32.413.202.649l-1.318 2.64c-.13.26-.457.351-.703.196l-.902-.573c-.214-.135-.29-.411-.175-.637l.976-1.91.319-.66z" clip-rule="evenodd"/>
        <path fill="#fff" d="M18.765 35.255l-.265.549-.854 1.672c-.093.183-.032.408.142.518l.732.465c.2.127.466.053.572-.159l1.137-2.279c.096-.191.024-.423-.163-.527l-.748-.414c-.2-.11-.453-.03-.553.175z"/>
        <path fill="#fff" d="M19.654 35.81c-.575-.109-1.442-.319-1.804-.41l-1.026 1.255c.03.242.116.376.156.413.354.338.703.164.833.036.736.01 1.291.634 1.476.944l-.243.583c.318-.07.987-.353 1.114-.933.159-.725.213-1.75-.506-1.887z"/>
        <path fill="#03224C" fill-rule="evenodd" d="M17.815 35.298l.057.014c.362.091 1.227.3 1.8.41.202.038.353.14.46.285.106.143.165.323.195.513.059.381.003.831-.077 1.198-.07.32-.29.554-.524.714-.234.16-.492.252-.661.29l-.172.037.293-.702c-.093-.145-.261-.348-.485-.52-.235-.183-.526-.326-.854-.34-.08.068-.205.138-.356.155-.176.021-.378-.03-.574-.217-.06-.056-.154-.213-.184-.469l-.005-.038 1.087-1.33zm.07.206l-.965 1.179c.032.202.104.302.122.318l.001.001c.159.151.308.182.427.168.123-.014.225-.078.278-.13l.027-.028h.039c.394.005.736.175 1 .38.264.203.456.445.554.61l.024.04-.188.448c.129-.045.279-.114.419-.21.212-.144.39-.343.447-.601.078-.358.13-.783.075-1.13-.026-.174-.078-.322-.16-.432-.08-.109-.192-.186-.348-.216-.55-.104-1.363-.3-1.753-.397z" clip-rule="evenodd"/>
        <path fill="#000" fill-rule="evenodd" d="M12.629 21.914c-.575-.057-1.258-.437-1.708-.764l.099-.136c.443.322 1.097.68 1.625.732.262.026.479-.025.63-.176.151-.152.253-.425.244-.883l.168-.003c.01.48-.095.806-.293 1.005-.2.2-.476.253-.765.225z" clip-rule="evenodd"/>
        <path fill="#fff" d="M39.505 20.662c-1.267 0-1.327-2.902-.774-4.667.862-2.75 3.475-2.858 4.383-.5.53 1.38.19 1.574-.414 4.84-.606 3.266.252 1.935 1.787 4.662.857 1.523.714 8.84.27 11.158-2.807 1.21-6.596.505-7.806 0-.02-.544 1.477-4.666 1.526-5.779.048-1.113-.919.813-1.333 1.396-1.31 1.846-2.563 3.195-4.262 4.383l-1.198-1.85c1.398-1.368 3.247-4.558 4.312-6.783 1.332-2.783 2.735-5.565 4.029-4.968.727.335.771-1.553.769-2.565-.137.234-.703.673-1.289.673z"/>
        <path fill="#03224C" fill-rule="evenodd" d="M40.912 13.914c.828-.072 1.679.459 2.123 1.612.13.342.207.605.239.86.032.252.021.5-.025.81-.044.294-.12.643-.22 1.104l-.018.077c-.108.5-.243 1.125-.395 1.943-.15.817-.213 1.355-.193 1.742.02.394.125.636.301.858.1.126.218.242.354.375.34.332.788.772 1.335 1.743.1.18.19.451.267.799.076.346.139.763.189 1.23.1.932.148 2.059.156 3.212.016 2.278-.127 4.65-.342 5.817-1.379.583-2.995.705-4.423.618-1.4-.085-2.61-.371-3.223-.614.006-.063.024-.158.053-.285.039-.164.095-.373.165-.612.107-.373.243-.818.387-1.29l.126-.41c.189-.618.38-1.256.528-1.81.146-.55.251-1.024.264-1.313.006-.14-.002-.249-.033-.32-.016-.038-.042-.075-.085-.095-.044-.02-.088-.014-.124-.001-.067.024-.133.086-.196.155-.065.072-.135.166-.208.271-.145.21-.305.473-.452.718l-.018.029c-.142.235-.271.45-.369.587-1.288 1.814-2.518 3.143-4.17 4.312l-1.114-1.72c.695-.695 1.492-1.818 2.245-3.037.772-1.249 1.502-2.605 2.036-3.72.666-1.394 1.347-2.778 2.021-3.74.338-.481.669-.85.99-1.062.318-.21.617-.26.906-.127.105.049.207.06.302.032.093-.028.168-.093.229-.175.118-.162.194-.415.245-.695.103-.565.113-1.298.112-1.803v-.309l-.157.267c-.058.1-.22.26-.446.394-.224.134-.497.237-.77.237-.277 0-.495-.156-.66-.44-.167-.284-.274-.69-.325-1.157-.103-.934.019-2.089.292-2.96.424-1.354 1.271-2.035 2.101-2.107zm-.015-.168c-.918.08-1.809.828-2.246 2.224-.28.893-.405 2.072-.3 3.03.053.478.164.91.348 1.224.184.316.45.522.805.522.313 0 .616-.117.857-.26.135-.082.255-.175.348-.264-.004.478-.024 1.071-.11 1.54-.05.276-.12.496-.215.625-.046.064-.094.1-.142.114-.047.014-.106.012-.183-.023-.357-.165-.719-.092-1.069.14-.347.228-.693.617-1.035 1.105-.683.975-1.37 2.373-2.035 3.762-.531 1.111-1.258 2.462-2.027 3.706-.77 1.246-1.577 2.378-2.269 3.054l-.049.048 1.284 1.981.071-.05c1.708-1.195 2.968-2.552 4.283-4.403.1-.142.233-.362.373-.594l.02-.032c.148-.246.305-.504.447-.71.07-.102.136-.189.195-.254.057-.064.099-.097.123-.108l.001.003c.015.034.026.108.02.246-.012.268-.112.726-.259 1.279-.146.55-.337 1.185-.526 1.804l-.125.409c-.144.47-.282.918-.39 1.292-.068.24-.126.452-.165.621-.039.166-.063.3-.06.381l.002.054.05.021c.615.257 1.875.56 3.33.65 1.457.088 3.12-.038 4.541-.65l.041-.018.008-.044c.224-1.167.37-3.583.354-5.893-.008-1.157-.056-2.29-.157-3.23-.05-.47-.114-.893-.192-1.247-.078-.353-.171-.644-.285-.845-.559-.994-1.04-1.466-1.38-1.8-.13-.126-.238-.232-.323-.34-.154-.194-.247-.402-.265-.762-.019-.366.04-.887.19-1.703.152-.816.286-1.44.395-1.938l.017-.08c.1-.459.177-.812.222-1.113.048-.32.06-.583.025-.856-.034-.272-.115-.55-.249-.898-.464-1.205-1.373-1.8-2.294-1.72z" clip-rule="evenodd"/>
        <path fill="#fff" d="M30.426 35.639c.291-.212 1.069-.803 1.422-1.072l.723 1.113c-.082-.044-.275.046-.303.627-.029.582-.373.869-.553.978-.038.127-.088.25-.145.363-.093.243-.199.554-.232.802-.056.421-.084.412-.162.463-.066.394-.246.36-.328.293-.012.11-.068.345-.2.41-.13.066-.32-.16-.398-.281-.176.48-.492.246-.527.2-.035-.048-.27-1.254-.258-1.653.012-.398.598-1.98.961-2.243z"/>
        <path fill="#03224C" fill-rule="evenodd" d="M31.872 34.433l.777 1.197-.121.131.004.002c-.006 0-.026.004-.057.048-.047.07-.101.217-.115.5-.028.592-.365.902-.566 1.033-.038.12-.086.235-.139.341-.092.242-.193.542-.225.777-.027.208-.05.324-.079.394-.016.039-.036.068-.063.091-.008.008-.018.015-.028.022-.036.18-.102.295-.2.345-.049.025-.098.029-.141.022-.01.04-.023.083-.04.125-.033.086-.091.189-.188.237-.063.031-.127.024-.18.005-.052-.02-.1-.053-.14-.088-.037-.031-.071-.067-.102-.103-.033.056-.07.1-.111.134-.074.06-.153.08-.227.078-.072-.003-.134-.028-.18-.054-.043-.024-.081-.055-.1-.081-.01-.012-.014-.024-.016-.029l-.007-.02-.015-.051c-.01-.04-.022-.094-.035-.158-.027-.127-.06-.296-.09-.476-.062-.355-.12-.765-.113-.975.003-.113.045-.297.107-.505.063-.212.15-.458.248-.7.097-.24.206-.48.315-.675.054-.098.11-.187.163-.26.053-.072.109-.135.165-.176.29-.21 1.067-.8 1.42-1.07l.079-.06zm-.386 3.178c-.07.14-.15.264-.229.36-.08.1-.152.164-.203.191-.008.005-.015.007-.02.009-.003-.013-.006-.036-.004-.073.003-.047.013-.111.033-.193.101-.403.192-.694.257-.885.032-.095.059-.165.076-.21l.02-.052.006-.012.001-.002c.02-.047 0-.101-.046-.122-.047-.02-.101 0-.121.047l.083.037-.083-.037-.001.001-.002.004-.006.014-.022.054c-.019.049-.046.12-.079.219-.067.195-.159.492-.26.9-.023.088-.036.164-.04.227-.003.062.002.12.023.167.023.052.066.091.127.1.052.008.103-.01.144-.03.05-.027.102-.068.154-.12-.02.08-.036.16-.046.233-.028.213-.048.304-.066.347-.008.018-.013.023-.015.025l-.018.012-.022.014-.034.022-.006.04c-.032.19-.087.24-.11.252-.018.01-.044.006-.07-.015l-.131-.106-.018.167c-.006.048-.02.126-.05.198-.03.075-.066.123-.1.14-.003.002-.011.005-.033-.003-.023-.009-.052-.027-.084-.055-.065-.056-.127-.135-.163-.19l-.1-.156-.063.173c-.04.11-.085.17-.124.201-.036.03-.07.038-.102.036-.034-.001-.068-.014-.097-.03-.02-.01-.033-.021-.04-.027l-.01-.04c-.01-.036-.022-.087-.035-.15-.026-.125-.058-.29-.089-.468-.062-.36-.116-.752-.11-.94.003-.086.038-.25.1-.458.061-.205.146-.446.242-.683.096-.236.202-.468.306-.655.052-.094.102-.175.15-.24.049-.067.091-.111.125-.136.272-.198.966-.724 1.345-1.013l.593.914c-.035.022-.067.054-.095.093-.076.11-.133.298-.147.596-.026.54-.345.804-.509.904l-.026.016-.011.029-.03.074c-.03.07-.072.174-.114.285z" clip-rule="evenodd"/>
        <path fill="#03224C" d="M41.833 17.769c-1.128-.822-1.867-2.246-2.096-2.855-.26.912-.9 1.67-1.226 1.932-.484 3.109.61 4.11 1.378 3.81-.71 1.05-2.437.87-2.665.692 1.6-1.142.533-5.063 1.638-6.891.884-1.462 2.349-1.218 2.97-.914 3.444.183 3.263 4.62 2.743 6.815-1.158 1.828-3.073 1.7-3.885 1.409.945-1.158 1.155-3.148 1.143-3.998z"/>
        <path fill="#000" fill-rule="evenodd" d="M38.067 26.865c.203-.536.49-.993.694-1.252l.132.104c-.194.247-.472.69-.669 1.207-.197.52-.308 1.105-.182 1.643.115.49.241.759.346.98.044.092.083.176.117.265.115.305.125.617-.075 1.361l-.162-.043c.196-.733.176-1.003.08-1.26-.028-.073-.064-.148-.105-.235-.106-.224-.246-.52-.365-1.03-.136-.584-.014-1.206.189-1.74z" clip-rule="evenodd"/>
        <path fill="#71BFD6" d="M44.43 41.884c.774-2.542.722-4.734.377-5.743-3.886 1.266-6.767.528-7.722 0-1.305 2.66-2.598 8.814-2.7 10.712-.103 1.9-.27 7.449-.27 11.115 0 1.012 2.355.69 2.355.365-.107-2.609.95-8.866 1.207-9.7.257-.832 1.291-5.475 1.954-7.415.82-1.093 0 2.398 0 6.822.427 3.007.732 10.866 1.073 11.344.709.991 1.867.514 2.177-.105.14-2.696.285-8.576.285-9.942 0-1.708.594-5.257 1.264-7.453z"/>
        <path fill="#03224C" fill-rule="evenodd" d="M37.045 36.026l-.039.079c-.657 1.338-1.308 3.55-1.807 5.659-.5 2.109-.85 4.128-.902 5.085-.102 1.9-.27 7.452-.27 11.12 0 .294.175.488.416.605.236.115.545.16.845.163.302.002.604-.038.833-.1.114-.03.214-.069.287-.112.037-.022.07-.047.096-.076.026-.03.047-.069.047-.116v-.003c-.053-1.296.183-3.505.466-5.5.283-1.996.61-3.762.737-4.17.09-.292.273-1.043.502-1.979.1-.412.21-.86.324-1.32.372-1.5.794-3.135 1.123-4.103.046-.06.084-.102.115-.128.02-.017.033-.025.04-.028l.002.003c.01.018.022.052.031.11.018.112.021.284.013.512-.008.227-.027.505-.052.827l-.057.683c-.107 1.257-.251 2.949-.251 4.804v.012c.194 1.362.363 3.724.521 5.946l.048.668c.086 1.2.17 2.322.253 3.174.042.426.083.786.126 1.055.02.134.042.248.064.335.021.084.045.158.077.202.374.523.873.663 1.32.586.441-.077.832-.366 1-.702l.008-.016v-.017c.14-2.698.286-8.579.286-9.947 0-1.697.592-5.238 1.26-7.428.777-2.552.729-4.763.376-5.794l-.027-.079-.078.026c-3.867 1.26-6.724.52-7.656.006l-.077-.042zm7.705.222c.314 1.02.348 3.145-.404 5.612-.67 2.201-1.267 5.76-1.267 7.477 0 1.362-.145 7.217-.284 9.92-.146.278-.484.529-.87.596-.387.067-.82-.05-1.155-.518-.011-.015-.03-.059-.05-.144-.02-.082-.042-.189-.062-.321-.042-.264-.083-.62-.125-1.045-.083-.85-.166-1.97-.252-3.17l-.048-.67c-.158-2.216-.327-4.58-.521-5.95 0-1.845.143-3.526.25-4.782l.057-.686c.026-.322.045-.603.053-.834.008-.23.005-.415-.015-.545-.01-.064-.026-.123-.052-.168-.028-.047-.074-.089-.142-.088-.059 0-.111.033-.155.07-.045.04-.094.095-.147.166l-.008.01-.005.013c-.333.974-.758 2.624-1.131 4.13l-.327 1.33c-.227.93-.408 1.672-.497 1.959-.13.424-.46 2.203-.742 4.196-.283 1.991-.521 4.211-.468 5.525l-.006.008c-.01.01-.027.025-.054.041-.055.033-.14.066-.246.095-.213.058-.5.096-.787.094-.289-.003-.57-.047-.774-.146-.201-.098-.32-.243-.32-.455 0-3.664.166-9.212.27-11.11.05-.941.397-2.948.896-5.056.49-2.066 1.122-4.217 1.757-5.545 1.041.53 3.865 1.195 7.63-.01z" clip-rule="evenodd"/>
        <path fill="#fff" d="M44.207 26.87c.63-1.797.164-2.059-.498-2.266-2.113-.339-5.198 3.5-6.829 4.504-1.305.803-4.649.692-5.84.79l.213 2.41c1.283-.065 4.788.249 6.014 0 1.533-.31 6.083-2.99 6.94-5.438z"/>
        <path fill="#03224C" fill-rule="evenodd" d="M38.282 27.87c-.552.497-1.045.92-1.446 1.166-.313.193-.756.335-1.268.438-.51.103-1.084.167-1.657.21-.572.042-1.14.062-1.642.078l-.181.005c-.424.013-.792.025-1.055.046l-.085.007.229 2.576.08-.004c.488-.025 1.3.006 2.189.039l.833.03c.596.02 1.19.033 1.713.026.522-.006.978-.033 1.293-.096.394-.08.974-.31 1.631-.644.66-.335 1.402-.778 2.124-1.288.72-.51 1.423-1.087 1.998-1.693.575-.604 1.03-1.24 1.25-1.869.314-.898.365-1.44.233-1.786-.136-.357-.457-.484-.787-.587l-.006-.002h-.006c-.555-.09-1.163.096-1.781.427-.62.333-1.26.816-1.88 1.339-.46.387-.913.797-1.34 1.185l-.439.397zm5.408-3.184c.329.103.57.212.674.485.109.285.079.773-.235 1.67-.21.597-.645 1.213-1.213 1.81-.566.595-1.258 1.166-1.973 1.67-.715.506-1.45.944-2.103 1.276-.653.332-1.217.554-1.589.629-.298.06-.74.087-1.26.094-.52.006-1.111-.008-1.706-.027l-.825-.03c-.845-.031-1.629-.06-2.13-.042l-.2-2.247c.252-.017.582-.027.963-.039l.181-.005c.502-.016 1.074-.037 1.65-.079.575-.043 1.157-.107 1.677-.212s.985-.251 1.323-.46c.416-.255.92-.689 1.47-1.184l.442-.4c.427-.386.875-.794 1.333-1.178.618-.52 1.247-.996 1.85-1.32.604-.323 1.17-.49 1.67-.41z" clip-rule="evenodd"/>
        <path fill="#000" fill-rule="evenodd" d="M41.266 23.73c.547-.032 1.21-.366 1.648-.657l-.093-.14c-.432.287-1.064.6-1.565.628-.248.014-.45-.042-.585-.19-.137-.149-.222-.41-.195-.842l-.168-.01c-.029.453.058.768.24.966.181.198.442.26.718.244z" clip-rule="evenodd"/>
    </g>
</svg>
