<svg xmlns="http://www.w3.org/2000/svg" width="21" height="20" fill="none" viewBox="0 0 21 20">
    <path fill="#FED500" d="M9.225.847c.342-1.053 1.833-1.053 2.175 0l1.68 5.173c.153.471.592.79 1.088.79h5.438c1.108 0 1.568 1.418.672 2.069l-4.4 3.197c-.4.291-.568.807-.415 1.278l1.68 5.174c.343 1.053-.863 1.929-1.76 1.278l-4.398-3.197c-.401-.291-.944-.291-1.345 0l-4.399 3.197c-.896.651-2.102-.225-1.76-1.279l1.68-5.173c.154-.47-.014-.987-.414-1.278l-4.4-3.197C-.55 8.228-.09 6.81 1.019 6.81h5.438c.495 0 .935-.319 1.088-.79L9.225.847z"/>
</svg>
