<svg xmlns="http://www.w3.org/2000/svg" width="16" height="16" fill="none" viewBox="0 0 16 16">
    <g clip-path="url(#clip0)">
        <path fill="#03224C" d="M15.54 11.994l-2.313-2.313c-.31-.31-.727-.48-1.171-.48-.462 0-.9.183-1.23.513l-.9.9c-.699-.389-1.629-.923-2.594-1.889-.964-.964-1.499-1.891-1.89-2.594l.901-.9c.67-.672.684-1.749.031-2.401L4.062.517c-.31-.31-.726-.481-1.171-.481-.452 0-.88.174-1.208.49C1.484.687.488 1.567.116 3.382c-.52 2.539.675 4.982 4.124 8.432 3.853 3.852 7.142 4.151 8.059 4.151.19 0 .305-.011.336-.015 1.797-.21 2.44-1.009 2.91-1.591.609-.756.607-1.75-.006-2.364zm-.768 1.74c-.441.548-.858 1.065-2.252 1.229-.001 0-.077.008-.221.008-.82 0-3.774-.278-7.357-3.86C1.762 7.93.645 5.747 1.09 3.58c.324-1.583 1.184-2.255 1.217-2.28l.03-.023.026-.026c.144-.143.331-.222.529-.222.18 0 .346.067.469.19l2.312 2.313c.266.266.252.713-.031.997L4.622 5.547l-.017.017c-.265.293-.234.688-.088.945.422.762 1 1.805 2.113 2.918 1.109 1.109 2.15 1.687 2.91 2.108.076.043.233.114.43.114.232 0 .445-.098.602-.277l.957-.956c.143-.143.33-.222.527-.222.18 0 .347.068.47.19l2.31 2.312c.294.294.173.745-.064 1.039zM9.693 2.468c.853.099 1.857.615 2.558 1.317.708.708 1.226 1.722 1.32 2.584.027.255.242.443.493.443.018 0 .036 0 .054-.003.272-.03.47-.274.44-.547-.119-1.09-.733-2.308-1.605-3.18-.863-.863-2.069-1.476-3.147-1.6-.272-.031-.518.164-.55.437-.031.272.164.518.437.55zM9.229 4.548c.461.053 1.1.395 1.518.814.422.421.765 1.066.815 1.532.028.255.243.443.493.443.018 0 .036 0 .054-.003.273-.03.47-.274.44-.547-.086-.796-.615-1.642-1.1-2.128-.481-.48-1.32-1.007-2.107-1.097-.272-.032-.518.164-.55.436-.031.272.164.519.437.55z"/>
    </g>
    <defs>
        <clipPath id="clip0">
            <path fill="#fff" d="M0 0H16V16H0z"/>
        </clipPath>
    </defs>
</svg>
