<svg width="53" height="32" viewBox="0 0 53 32" fill="none" xmlns="http://www.w3.org/2000/svg">
<rect x="0.5" y="0.5" width="52" height="31" rx="4.5" fill="#FFD949"/>
<path d="M18.44 11.364H14.152V14.548H17.896V16.196H14.152V20.5H12.12V9.716H18.44V11.364ZM21.9444 12.388V13.828C22.3177 12.8253 23.0004 12.324 23.9924 12.324C24.2164 12.324 24.3977 12.34 24.5364 12.372V14.228C24.291 14.1213 24.019 14.068 23.7204 14.068C23.1977 14.068 22.771 14.2813 22.4404 14.708C22.1097 15.1347 21.9444 15.668 21.9444 16.308V20.5H20.0084L20.0244 12.388H21.9444ZM30.545 15.78V15.54C30.5237 15.0173 30.3797 14.6013 30.113 14.292C29.857 13.972 29.4783 13.812 28.977 13.812C28.5183 13.812 28.1183 13.9827 27.777 14.324C27.4463 14.6547 27.233 15.14 27.137 15.78H30.545ZM31.857 18.388V20.052C31.2917 20.404 30.4757 20.58 29.409 20.58C28.1183 20.58 27.0997 20.196 26.353 19.428C25.6063 18.66 25.233 17.668 25.233 16.452C25.233 15.1613 25.585 14.148 26.289 13.412C26.993 12.676 27.873 12.308 28.929 12.308C29.985 12.308 30.8223 12.628 31.441 13.268C32.0597 13.908 32.369 14.8413 32.369 16.068C32.369 16.3667 32.3317 16.7507 32.257 17.22H27.169C27.3077 17.8067 27.5957 18.2547 28.033 18.564C28.481 18.8733 29.0357 19.028 29.697 19.028C30.5503 19.028 31.2703 18.8147 31.857 18.388ZM39.0138 15.78V15.54C38.9924 15.0173 38.8484 14.6013 38.5818 14.292C38.3258 13.972 37.9471 13.812 37.4458 13.812C36.9871 13.812 36.5871 13.9827 36.2458 14.324C35.9151 14.6547 35.7018 15.14 35.6058 15.78H39.0138ZM40.3258 18.388V20.052C39.7604 20.404 38.9444 20.58 37.8778 20.58C36.5871 20.58 35.5684 20.196 34.8218 19.428C34.0751 18.66 33.7018 17.668 33.7018 16.452C33.7018 15.1613 34.0538 14.148 34.7578 13.412C35.4618 12.676 36.3418 12.308 37.3978 12.308C38.4538 12.308 39.2911 12.628 39.9098 13.268C40.5284 13.908 40.8378 14.8413 40.8378 16.068C40.8378 16.3667 40.8004 16.7507 40.7258 17.22H35.6378C35.7764 17.8067 36.0644 18.2547 36.5018 18.564C36.9498 18.8733 37.5044 19.028 38.1658 19.028C39.0191 19.028 39.7391 18.8147 40.3258 18.388Z" fill="white"/>
<rect x="0.5" y="0.5" width="52" height="31" rx="4.5" stroke="#FFD949"/>
</svg>
