<svg width="26" height="25" viewBox="0 0 26 25" fill="none" xmlns="http://www.w3.org/2000/svg">
<path fill-rule="evenodd" clip-rule="evenodd" d="M0.661443 0.660334C1.05045 0.271809 1.57777 0.0535781 2.12757 0.0535781C2.67737 0.0535781 3.20469 0.271809 3.5937 0.660334L12.5011 9.56775L21.4085 0.660334C21.5985 0.456495 21.8275 0.293003 22.082 0.179607C22.3365 0.0662123 22.6112 0.00523796 22.8898 0.000322883C23.1684 -0.0045922 23.4451 0.0466521 23.7034 0.150999C23.9618 0.255346 24.1964 0.410657 24.3934 0.607668C24.5905 0.804679 24.7458 1.03935 24.8501 1.29769C24.9545 1.55603 25.0057 1.83274 25.0008 2.11131C24.9959 2.38988 24.9349 2.66461 24.8215 2.9191C24.7081 3.1736 24.5446 3.40265 24.3408 3.59259L15.4334 12.5L24.3408 21.4074C24.5446 21.5974 24.7081 21.8264 24.8215 22.0809C24.9349 22.3354 24.9959 22.6101 25.0008 22.8887C25.0057 23.1673 24.9545 23.444 24.8501 23.7023C24.7458 23.9606 24.5905 24.1953 24.3934 24.3923C24.1964 24.5893 23.9618 24.7447 23.7034 24.849C23.4451 24.9533 23.1684 25.0046 22.8898 24.9997C22.6112 24.9948 22.3365 24.9338 22.082 24.8204C21.8275 24.707 21.5985 24.5435 21.4085 24.3397L12.5011 15.4323L3.5937 24.3397C3.2004 24.7061 2.68021 24.9057 2.14272 24.8962C1.60523 24.8867 1.0924 24.6689 0.712282 24.2888C0.33216 23.9087 0.114421 23.3959 0.104937 22.8584C0.0954538 22.3209 0.294967 21.8007 0.661443 21.4074L9.56886 12.5L0.661443 3.59259C0.272918 3.20358 0.0546875 2.67626 0.0546875 2.12646C0.0546875 1.57666 0.272918 1.04934 0.661443 0.660334Z" fill="#1E1E1E"/>
</svg>
