<svg xmlns="http://www.w3.org/2000/svg" width="40" height="40" fill="none" viewBox="0 0 40 40">
    <path fill="#49B1D6" fill-rule="evenodd" d="M10.628 37h18.636c1.071 0 2.142-.504 2.856-1.297.786-.936 1.143-2.233 1-3.457l-1-6.988c-.071-.36-.071-.72-.071-1.008.143-4.322 1.571-8.068 2.428-9.94l.143-.289c1.07-2.521.857-5.042-.5-7.131C32.478 4.369 29.264 3 25.05 3H14.908c-4.21 0-7.42 1.374-9.06 3.906-1.355 2.098-1.498 4.702-.5 7.162l.072.145c.856 1.88 2.283 5.642 2.354 9.983 0 .29 0 .65-.071 1.012l-.999 6.945c-.143 1.302.214 2.532.999 3.473.785.868 1.855 1.374 2.925 1.374zM19.73 5.881c-.06.008-.123.013-.185.013h-4.637c-3.21 0-5.564.94-6.706 2.676-.856 1.23-.927 2.894-.285 4.485v.073c.927 2.025 2.497 6.22 2.64 11.068 0 .434 0 .94-.072 1.447l-.999 7.017c0 .361.072.795.357 1.085.143.144.357.361.785.361H25.18c.063 0 .125.005.186.013h3.898c.429 0 .643-.216.786-.36.285-.289.428-.72.357-1.225l-1-6.987c-.071-.505-.071-1.009-.071-1.441.142-4.826 1.713-9.004 2.642-11.021l.071-.072c.643-1.585.571-3.17-.286-4.466-1.142-1.73-3.498-2.666-6.712-2.666H19.73z" clip-rule="evenodd"/>
    <path fill="#49B1D6" d="M15.838 14.021c-.785 0-1.428-.648-1.428-1.369v-.072c0-.792.643-1.44 1.428-1.44.786 0 1.428.648 1.428 1.44 0 .793-.642 1.441-1.428 1.441zM23.123 18.127c-.785 0-1.428-.649-1.428-1.37v-.071c0-.793.643-1.44 1.428-1.44.786 0 1.429.647 1.429 1.44 0 .792-.643 1.44-1.429 1.44zM23.623 10.923c-.785 0-1.428-.648-1.428-1.368v-.072c0-.793.643-1.441 1.428-1.441.786 0 1.429.648 1.429 1.44 0 .793-.715 1.441-1.429 1.441z"/>
</svg>
