<svg xmlns="http://www.w3.org/2000/svg" width="64.169" height="49" viewBox="0 0 64.169 49">
    <defs>
        <style>
            .cls-1,.cls-4,.cls-5,.cls-9{fill:none}.cls-1,.cls-2,.cls-3,.cls-4,.cls-6,.cls-7{stroke:#01085c}.cls-1,.cls-2,.cls-3,.cls-4,.cls-5{stroke-linecap:round}.cls-1{stroke-miterlimit:10}.cls-1,.cls-2,.cls-3,.cls-6,.cls-7{stroke-width:2px}.cls-2,.cls-3{fill:#49b1d6;stroke-linejoin:round}.cls-3{fill:#fe6b0c}.cls-5{stroke:#fff}.cls-6{fill:#01085c}.cls-7{fill:#fbb926}.cls-8{stroke:none}
        </style>
    </defs>
    <g id="icon-recommendation-monument" transform="translate(-9321.331 -1468)">
        <path id="trace" d="M0 0h62.169" class="cls-1" transform="translate(9322.331 1515.95)"/>
        <g id="trace-2" class="cls-2" data-name="trace">
            <path d="M0 0h47v42H0z" class="cls-8" transform="translate(9330 1475)"/>
            <path d="M1 1h45v40H1z" class="cls-9" transform="translate(9330 1475)"/>
        </g>
        <g id="trace-3" class="cls-3" data-name="trace">
            <path d="M0 0h53v9H0z" class="cls-8" transform="translate(9327 1468)"/>
            <path d="M1 1h51v7H1z" class="cls-9" transform="translate(9327 1468)"/>
        </g>
        <path id="trace-4" d="M0 0h10" class="cls-4" data-name="trace" transform="translate(9328.5 1472.5)"/>
        <path id="trace-5" d="M0 0v9" class="cls-5" data-name="trace" transform="translate(9372.5 1494.5)"/>
        <path id="trace-6" d="M0 0v2" class="cls-5" data-name="trace" transform="translate(9372.5 1506.5)"/>
        <g id="trace-7" class="cls-6" data-name="trace">
            <path d="M11.5 0A11.5 11.5 0 0 1 23 11.5V34H0V11.5A11.5 11.5 0 0 1 11.5 0z" class="cls-8" transform="translate(9342 1483)"/>
            <path d="M11.5 1A10.5 10.5 0 0 1 22 11.5v20.947a.553.553 0 0 1-.553.553H1.553A.553.553 0 0 1 1 32.447V11.5A10.5 10.5 0 0 1 11.5 1z" class="cls-9" transform="translate(9342 1483)"/>
        </g>
        <g id="trace-8" class="cls-7" data-name="trace">
            <path d="M8.5 0A8.5 8.5 0 0 1 17 8.5V28H0V8.5A8.5 8.5 0 0 1 8.5 0z" class="cls-8" transform="translate(9345 1489)"/>
            <path d="M8.5 1A7.5 7.5 0 0 1 16 8.5v18.105a.395.395 0 0 1-.395.395H1.395A.395.395 0 0 1 1 26.605V8.5A7.5 7.5 0 0 1 8.5 1z" class="cls-9" transform="translate(9345 1489)"/>
        </g>
    </g>
</svg>
