<svg xmlns="http://www.w3.org/2000/svg" width="32" height="42" fill="none" viewBox="0 0 32 42">
    <path fill="#6183E5" stroke="#6183E5" stroke-width=".5" d="M31 3.5c0-.663-.264-1.299-.732-1.768C29.798 1.263 29.163 1 28.5 1h-25c-.663 0-1.299.263-1.768.732C1.263 2.202 1 2.837 1 3.5V41h30V3.5zM3.5 2h25c.398 0 .78.158 1.06.44.282.28.44.662.44 1.06V9H2V3.5c0-.398.158-.78.44-1.06.28-.282.662-.44 1.06-.44v0zM30 10v28H2V10h28zM2 40v-1h28v1H2z"/>
    <path fill="#6183E5" stroke="#6183E5" stroke-width=".5" d="M16 36c2.274 0 4.498-.675 6.389-1.938 1.891-1.264 3.365-3.06 4.236-5.161.87-2.102 1.098-4.414.654-6.645-.444-2.23-1.539-4.28-3.147-5.888-1.609-1.608-3.658-2.703-5.889-3.147-2.23-.444-4.542-.216-6.644.654-2.101.87-3.897 2.345-5.16 4.236C5.173 20.002 4.5 22.225 4.5 24.5c0 3.05 1.212 5.975 3.368 8.132C10.025 34.788 12.95 36 16 36v0zm0-22c2.077 0 4.107.616 5.834 1.77 1.726 1.153 3.072 2.793 3.867 4.712.794 1.918 1.002 4.03.597 6.066-.405 2.037-1.405 3.908-2.873 5.377-1.469 1.468-3.34 2.468-5.377 2.873-2.036.405-4.148.197-6.066-.597-1.919-.795-3.559-2.14-4.712-3.867C6.116 28.607 5.5 26.576 5.5 24.5c0-2.785 1.106-5.456 3.075-7.425C10.545 15.106 13.215 14 16 14v0zM5.75 7h1.5c.464 0 .91-.184 1.238-.513C8.816 6.16 9 5.714 9 5.25c0-.464-.184-.91-.512-1.237-.329-.329-.774-.513-1.238-.513h-1.5c-.464 0-.91.184-1.237.513C4.184 4.34 4 4.786 4 5.25c0 .464.184.91.513 1.237.328.329.773.513 1.237.513zm0-2.5h1.5c.199 0 .39.079.53.22.141.14.22.331.22.53s-.079.39-.22.53c-.14.141-.331.22-.53.22h-1.5c-.199 0-.39-.079-.53-.22C5.08 5.64 5 5.45 5 5.25s.08-.39.22-.53c.14-.141.331-.22.53-.22v0zM12.25 7h1.5c.464 0 .91-.184 1.237-.513.329-.328.513-.773.513-1.237 0-.464-.184-.91-.513-1.237-.328-.329-.773-.513-1.237-.513h-1.5c-.464 0-.91.184-1.237.513-.329.328-.513.773-.513 1.237 0 .464.184.91.513 1.237.328.329.773.513 1.237.513v0zm0-2.5h1.5c.199 0 .39.079.53.22.141.14.22.331.22.53s-.079.39-.22.53c-.14.141-.331.22-.53.22h-1.5c-.199 0-.39-.079-.53-.22-.141-.14-.22-.331-.22-.53s.079-.39.22-.53c.14-.141.331-.22.53-.22v0zM26 8c.494 0 .978-.147 1.389-.421.411-.275.732-.665.92-1.122.19-.457.24-.96.143-1.445-.097-.485-.335-.93-.684-1.28-.35-.35-.795-.588-1.28-.684-.485-.096-.988-.047-1.445.142-.456.19-.847.51-1.122.921-.274.411-.421.895-.421 1.389 0 .663.263 1.299.732 1.768.47.469 1.105.732 1.768.732zm0-4c.275 0 .545.074.78.217.236.142.428.347.555.59.127.245.184.52.166.794-.019.274-.112.538-.27.763-.16.225-.377.402-.63.512-.252.11-.53.148-.802.11-.272-.038-.53-.15-.743-.323-.213-.174-.374-.404-.466-.663H26V5h-1.41c.103-.292.294-.545.547-.724.252-.179.553-.275.863-.276v0z"/>
    <path fill="#6183E5" stroke="#6183E5" stroke-width=".5" d="M7 24.5c-.004 2.387.94 4.678 2.625 6.368 1.685 1.69 3.973 2.643 6.36 2.647 2.387.004 4.678-.94 6.368-2.626 1.691-1.685 2.643-3.972 2.647-6.36.004-2.386-.94-4.677-2.625-6.367-1.686-1.691-3.973-2.643-6.36-2.647-2.387-.004-4.678.94-6.368 2.625C7.956 19.825 7.004 22.113 7 24.5v0zm9 8c-1.914-.003-3.763-.691-5.212-1.94-1.45-1.25-2.403-2.978-2.688-4.87 1.02.784 2.255 1.24 3.54 1.31h.16c1.595 0 3.13-.72 4.555-2.145 1.265-1.27 2.58-1.895 3.965-1.855 1.39.107 2.695.709 3.68 1.695-.05 2.088-.916 4.073-2.411 5.531-1.495 1.459-3.5 2.275-5.589 2.274v0zm0-16c1.914.003 3.763.691 5.212 1.94 1.45 1.25 2.403 2.977 2.688 4.87-1.02-.784-2.255-1.24-3.54-1.31-1.655-.045-3.24.675-4.715 2.145-1.265 1.27-2.58 1.9-3.965 1.855-1.39-.109-2.694-.71-3.68-1.695.05-2.088.916-4.073 2.411-5.531 1.495-1.459 3.5-2.275 5.589-2.274v0z"/>
</svg>
