<svg xmlns="http://www.w3.org/2000/svg" width="16" height="16" fill="none" viewBox="0 0 16 16">
    <path fill="#03224C" d="M14.125 1.5H1.875C.841 1.5 0 2.341 0 3.375v1.547l6.881 5.118c.335.249.727.373 1.119.373s.784-.124 1.119-.373L16 4.922V3.375c0-1.034-.841-1.875-1.875-1.875zm.625 2.794L8.373 9.037c-.223.166-.523.166-.746 0L1.25 4.294v-.919c0-.345.28-.625.625-.625h12.25c.345 0 .625.28.625.625v.919zm0 3.115L16 6.48v6.146c0 1.034-.841 1.875-1.875 1.875H1.875C.841 14.5 0 13.659 0 12.625V6.48l1.25.93v5.215c0 .345.28.625.625.625h12.25c.345 0 .625-.28.625-.625V7.409z"/>
</svg>
