<svg xmlns="http://www.w3.org/2000/svg" width="32" height="32" fill="none" viewBox="0 0 32 32">
    <circle cx="16" cy="16" r="16" fill="#6183E5" fill-opacity=".08"/>
    <path fill="#6183E5" d="M22 9.333H10c-.177 0-.346.07-.471.196-.125.125-.196.294-.196.471v12c0 .177.07.346.196.471.125.125.294.196.471.196h12c.177 0 .346-.07.471-.196.125-.125.196-.294.196-.471V10c0-.177-.07-.346-.196-.471-.125-.125-.294-.196-.471-.196zm-.667 12H10.667V10.667h10.666v10.666zm-8.666-3.473H14v1.333c0 .177.07.347.195.472s.295.195.472.195h2.666c.177 0 .347-.07.472-.195s.195-.295.195-.472V17.86h1.333c.177 0 .347-.07.472-.195s.195-.295.195-.472v-2.666c0-.177-.07-.347-.195-.472s-.295-.195-.472-.195H18v-1.333c0-.177-.07-.347-.195-.472s-.295-.195-.472-.195h-2.666c-.177 0-.347.07-.472.195s-.195.295-.195.472v1.333h-1.333c-.177 0-.347.07-.472.195s-.195.295-.195.472v2.666c0 .177.07.347.195.472s.295.195.472.195zm.666-2.667h1.334c.177 0 .346-.07.471-.195s.195-.294.195-.471v-1.334h1.334v1.334c0 .177.07.346.195.471s.295.195.471.195h1.334v1.334h-1.334c-.176 0-.346.07-.471.195s-.195.295-.195.471v1.334h-1.334v-1.334c0-.176-.07-.346-.195-.471s-.294-.195-.471-.195h-1.334v-1.334z"/>
</svg>
