<svg xmlns="http://www.w3.org/2000/svg" width="19" height="19" fill="none" viewBox="0 0 19 19">
    <path stroke="#fff" stroke-linecap="round" stroke-linejoin="round" stroke-width="2.482" d="M16.861 10.235c-.13 1.408-.658 2.75-1.523 3.869-.865 1.119-2.031 1.968-3.362 2.449-1.33.48-2.77.572-4.15.264-1.38-.308-2.645-1.002-3.645-2.002-1-1-1.695-2.265-2.003-3.645-.307-1.38-.216-2.82.265-4.15.48-1.33 1.33-2.497 2.449-3.362 1.119-.865 2.46-1.394 3.87-1.524-.825 1.116-1.222 2.49-1.119 3.874.103 1.383.7 2.683 1.68 3.664.981.981 2.282 1.577 3.665 1.68 1.383.104 2.758-.293 3.873-1.117z"/>
</svg>
