<svg xmlns="http://www.w3.org/2000/svg" width="16" height="16" fill="none" viewBox="0 0 16 16">
    <path fill="#8A8C90" d="M15.505 12.475l-3.604-3.277c-.17-.155-.394-.237-.624-.23-.23.007-.449.103-.61.268l-2.121 2.182c-.51-.097-1.538-.417-2.594-1.471C4.895 8.889 4.575 7.859 4.48 7.352L6.66 5.23c.165-.16.262-.378.269-.608.007-.23-.076-.455-.23-.625L3.421.393c-.155-.171-.37-.275-.601-.29-.23-.013-.457.062-.632.213L.264 1.966c-.153.154-.244.358-.257.575-.013.222-.267 5.473 3.805 9.546 3.552 3.551 8.001 3.81 9.227 3.81.179 0 .289-.005.318-.006.217-.012.421-.104.575-.258l1.649-1.925c.15-.175.227-.402.213-.632-.014-.23-.118-.446-.289-.6z"/>
</svg>
