<svg xmlns="http://www.w3.org/2000/svg" width="32" height="32" fill="none" viewBox="0 0 32 32">
    <circle cx="16" cy="16" r="16" fill="#6183E5" fill-opacity=".08"/>
    <path fill="#6183E5" d="M21.087 10.433c-.078-.062-.168-.107-.265-.13-.097-.023-.198-.024-.295-.003-.713.15-1.448.151-2.161.006-.713-.146-1.39-.436-1.986-.853-.112-.077-.244-.119-.38-.119s-.268.042-.38.12c-.597.416-1.273.706-1.986.852-.713.145-1.448.143-2.16-.006-.098-.021-.199-.02-.296.003-.097.023-.187.068-.265.13-.077.063-.14.142-.182.232-.043.09-.065.189-.064.288v4.967c-.001.956.227 1.898.664 2.748.437.85 1.071 1.583 1.849 2.139l2.433 1.733c.113.08.248.124.387.124s.274-.044.387-.124l2.433-1.733c.778-.556 1.412-1.289 1.849-2.139.437-.85.665-1.792.664-2.748v-4.967c0-.1-.021-.198-.064-.288-.043-.09-.105-.169-.182-.232zM20 15.92c0 .743-.177 1.476-.516 2.137-.34.66-.833 1.23-1.437 1.663L16 21.18l-2.047-1.46c-.604-.432-1.097-1.002-1.437-1.663-.34-.661-.517-1.394-.516-2.137v-4.2c1.398.12 2.797-.205 4-.927 1.203.722 2.602 1.047 4 .927v4.2z"/>
</svg>
