<svg xmlns="http://www.w3.org/2000/svg" width="129" height="11" fill="none" viewBox="0 0 129 11">
    <path fill="#FE3945" d="M128.372 6.032c-2.684.71-5.111 1.33-7.824 1.774-5.196.888-10.45 1.597-15.703 1.952-1.628.089-3.284.089-4.94.089-4.226 0-8.537-.266-12.449-1.153-2.712-.621-3.226-.71-5.853-1.42-3.084-.798-6.881-2.04-10.08-2.395-2.026-.177-3.168-.355-5.053-.355h-.942c-4.197.089-9.023.976-13.363 1.774-4.568.799-9.108 1.597-13.676 1.597-1.8 0-3.598-.089-5.397-.443-1.656-.444-2.912-.621-4.682-1.42-1.97-.887-4.312-2.661-6.31-4.17-.971-.62-1.685-1.152-2.713-1.507C18.673.089 17.931 0 17.19 0c-1.285 0-2.599.355-3.884.976-1.37.71-3.083 1.685-4.34 2.484-1.113.71-1.541 1.064-2.598 1.685-.285.178-.714.444-1.113.621-.743.355-1.514.71-2.285.71-.314 0-.628 0-.942-.178-.342-.354-.514-1.064-.685-1.951C1.114 3.282.828 2.75.571 2.75.257 2.75 0 3.548 0 4.968c0 .266 0 .532.029.798.2.887.4 1.774.713 2.484.086.266.2.444.314.621.143.177.286.355.429.444.4.266.8.354 1.199.354.428-.088.828-.088 1.256-.266.514-.266 1.428-.798 1.856-1.153 1.685-1.153 3.426-2.573 4.997-3.548 1.285-.799 1.742-1.065 3.026-1.686.943-.443 2.028-.62 3.084-.62.685 0 1.4.088 2.027.265.971.355 1.713.799 2.627 1.33.428.267.914.622 1.342.977.457.266.97.71 1.428.976 1.113.71 2.712 1.508 3.683 1.862 1.742.621 3.14.799 4.797 1.154 1.313.088 2.598.177 3.883.177 1.684 0 3.34-.089 5.054-.355C45.199 8.34 48.796 7.54 52.28 6.92c4.14-.71 8.622-1.33 12.62-1.33h.828c2.37.088 3.34.355 5.51.62.771.178 1.685.356 2.513.533.8.177 1.627.443 2.427.62 3.598.888 7.28 1.775 10.878 2.485C91.111 10.734 95.251 11 99.334 11c1.913 0 3.826-.089 5.71-.177 5.34-.355 10.536-.799 15.79-1.42 2.741-.355 5.197-.887 7.909-1.508.2-.355.257-.798.257-1.153 0-.444-.171-.798-.4-.798-.057 0-.143 0-.228.088z"/>
</svg>
