<svg xmlns="http://www.w3.org/2000/svg" width="201" height="17" fill="none" viewBox="0 0 201 17">
    <path fill="#FE3945" d="M200.021 9.323c-4.182 1.096-7.963 2.056-12.19 2.742-8.097 1.37-16.283 2.467-24.468 3.016-2.536.137-5.117.137-7.697.137-6.584 0-13.302-.412-19.397-1.783-4.227-.96-5.027-1.096-9.12-2.193-4.805-1.234-10.722-3.153-15.705-3.702-3.158-.274-4.938-.548-7.874-.548h-1.468c-6.54.137-14.059 1.508-20.821 2.742-7.118 1.234-14.192 2.468-21.31 2.468-2.803 0-5.606-.137-8.409-.686-2.58-.685-4.537-.96-7.296-2.193-3.07-1.371-6.718-4.113-9.832-6.444-1.512-.96-2.625-1.782-4.226-2.33C29.096.136 27.938 0 26.782 0c-2.002 0-4.048.548-6.05 1.508-2.136 1.097-4.805 2.605-6.762 3.839-1.736 1.097-2.403 1.645-4.049 2.605-.445.274-1.112.685-1.735.96-1.157.548-2.358 1.096-3.56 1.096-.489 0-.978 0-1.467-.274-.534-.549-.801-1.645-1.068-3.016C1.735 5.073 1.291 4.25.89 4.25.4 4.25 0 5.484 0 7.677 0 8.09 0 8.5.044 8.911c.312 1.371.623 2.742 1.113 3.839.133.411.311.685.49.96.222.274.444.548.666.685.623.412 1.246.549 1.869.549.667-.138 1.29-.138 1.957-.412.801-.411 2.225-1.234 2.892-1.782 2.625-1.782 5.339-3.976 7.786-5.484 2.002-1.234 2.713-1.645 4.715-2.605 1.469-.685 3.16-.96 4.805-.96 1.068 0 2.18.138 3.159.412 1.513.548 2.67 1.234 4.093 2.056.667.412 1.424.96 2.09 1.508.713.412 1.514 1.097 2.225 1.508 1.735 1.097 4.227 2.331 5.74 2.88 2.713.96 4.893 1.233 7.474 1.782 2.046.137 4.048.274 6.05.274 2.625 0 5.205-.137 7.875-.548 5.383-.686 10.988-1.92 16.416-2.88 6.45-1.096 13.435-2.056 19.664-2.056h1.29c3.693.137 5.205.548 8.586.96 1.202.274 2.625.548 3.915.822 1.246.274 2.536.686 3.782.96 5.605 1.371 11.344 2.742 16.95 3.839 6.317 1.37 12.768 1.782 19.13 1.782 2.981 0 5.962-.137 8.898-.274 8.319-.549 16.416-1.234 24.602-2.194 4.271-.548 8.097-1.37 12.324-2.33.311-.549.4-1.234.4-1.783 0-.685-.267-1.234-.623-1.234-.089 0-.222 0-.356.138z"/>
</svg>
