<svg xmlns="http://www.w3.org/2000/svg" width="16" height="16" fill="none" viewBox="0 0 16 16">
    <path fill="#03224C" d="M15.737 14.475l-3.021-3.012c.975-1.242 1.504-2.775 1.502-4.354 0-1.406-.417-2.78-1.198-3.95-.781-1.169-1.892-2.08-3.19-2.618C8.53.003 7.1-.138 5.721.137c-1.379.274-2.646.95-3.64 1.945-.994.994-1.671 2.261-1.945 3.64C-.138 7.101.003 8.53.54 9.829c.538 1.3 1.45 2.41 2.618 3.19 1.17.782 2.544 1.199 3.95 1.199 1.579.002 3.112-.527 4.354-1.502l3.012 3.021c.083.083.181.15.29.195.108.045.224.068.341.068.118 0 .234-.023.342-.068.108-.046.207-.112.29-.195.082-.082.149-.18.194-.289.045-.108.068-.224.068-.342 0-.117-.023-.233-.068-.341-.046-.109-.112-.207-.195-.29zM1.777 7.11c0-1.055.313-2.085.899-2.962.586-.877 1.418-1.56 2.393-1.964.974-.403 2.046-.51 3.08-.303 1.034.205 1.984.713 2.73 1.459.745.745 1.253 1.695 1.459 2.73.206 1.034.1 2.106-.303 3.08-.404.974-1.087 1.807-1.964 2.393-.877.586-1.908.898-2.962.898-1.414 0-2.77-.561-3.77-1.561-1-1-1.562-2.356-1.562-3.77z"/>
</svg>
