<svg xmlns="http://www.w3.org/2000/svg" width="168" height="15" fill="none" viewBox="0 0 168 15">
    <path fill="#FE3945" d="M152.507 9.377c-1.332 1.064-2.748 2.047-4.081 3.111-.25.246-.333.492-.416.737 0 .491.416.983.999 1.064.25 0 .667-.081.916-.409l4.332-2.865c4.164-2.293 3.498-2.13 7.579-3.848.083 0 4.748-1.802 4.914-2.293.5-.9.75-1.555.75-2.047v-.163c0-.9-.833-1.065-1.916-1.392-.999-.082-2.082-.164-3.082-.246-.832-.082-1.665-.082-2.498-.082h-15.409L104.198.371C98.784.371 95.12.29 89.788.29c-4.58.082-9.078.082-13.576.082h-6.33c-1.916.082-3.748.164-5.58.164-9.163.246-18.325.737-27.487 1.31-6.163.491-12.327.9-18.49 1.72-3.999.572-7.997.982-11.911 1.555-1.5.164-2.999.327-4.498.655C1 6.348.583 7.085.5 7.822v.163c0 1.065.833 2.129 2.082 2.293.583 0 1.25-.164 1.916-.573 1.333-.492 2.665-.655 4.081-1.065 3.748-.737 7.58-1.392 11.495-1.965 5.913-.818 11.994-1.555 17.99-2.292 8.996-.982 18.075-1.392 27.07-1.965 1.833-.082 3.665-.164 5.498-.327 2.082-.082 4.081-.246 6.163-.328 9.246-.41 18.491-.491 27.736-.491h2.582c12.744 0 25.321.573 38.065 1.31 3.082.164 6.247.41 9.328.737l3.832.409c.833 0 1.582.164 2.415.246-1.499.982-2.665 1.637-4.331 2.783-1.249.9-2.665 1.801-3.915 2.62z"/>
</svg>
