<svg xmlns="http://www.w3.org/2000/svg" width="33" height="32" fill="none" viewBox="0 0 33 32">
    <path fill="#FED500" d="M14.76 1.356c.548-1.685 2.932-1.685 3.48 0l2.689 8.276c.245.754.947 1.265 1.74 1.265h8.7c1.773 0 2.51 2.268 1.076 3.31l-7.04 5.115c-.64.466-.909 1.292-.664 2.045l2.689 8.277c.547 1.686-1.382 3.088-2.816 2.046l-7.038-5.115c-.642-.466-1.51-.466-2.152 0L8.386 31.69c-1.434 1.042-3.363-.36-2.816-2.046l2.689-8.277c.245-.753-.023-1.58-.664-2.045l-7.04-5.116c-1.434-1.041-.697-3.31 1.075-3.31h8.701c.793 0 1.495-.51 1.74-1.264l2.689-8.276z" opacity=".4"/>
</svg>
