<svg xmlns="http://www.w3.org/2000/svg" width="17" height="16" fill="none" viewBox="0 0 17 16">
    <path fill="#fff" fill-rule="evenodd" d="M7.928 13.782c.318-.192.717-.192 1.035 0l3.293 1.992c.757.458 1.691-.22 1.492-1.082l-.874-3.765c-.083-.36.039-.738.318-.98L16.11 7.41c.667-.579.31-1.675-.57-1.75l-3.84-.331c-.37-.032-.69-.266-.835-.607L9.367 1.18c-.345-.815-1.499-.815-1.843 0L6.027 4.723c-.144.341-.466.575-.835.607l-3.84.33c-.88.076-1.237 1.172-.57 1.751l2.916 2.535c.28.243.402.62.319.981l-.874 3.765c-.2.862.735 1.54 1.492 1.082l3.293-1.992z" clip-rule="evenodd"/>
</svg>
