<svg xmlns="http://www.w3.org/2000/svg" width="23" height="22" fill="none" viewBox="0 0 23 22">
    <path fill="#FED500" d="M10.519.876c.267-.821 1.428-.821 1.695 0l1.953 6.012c.12.367.462.615.848.615h6.32c.864 0 1.223 1.105.524 1.612l-5.114 3.716c-.312.227-.443.629-.323.996l1.953 6.012c.267.821-.673 1.504-1.371.996L11.89 17.12c-.312-.227-.735-.227-1.048 0l-5.114 3.715c-.698.508-1.638-.175-1.37-.996l1.953-6.012c.119-.367-.012-.77-.324-.996L.873 9.115c-.698-.507-.34-1.612.524-1.612h6.32c.387 0 .73-.248.848-.615L10.52.876z"/>
</svg>
