<svg width="55" height="55" viewBox="0 0 55 55" fill="none" xmlns="http://www.w3.org/2000/svg">
<mask id="mask0" mask-type="alpha" maskUnits="userSpaceOnUse" x="0" y="0" width="55" height="55">
<circle cx="27.5" cy="27.5" r="27.5" fill="#FFF3EE"/>
</mask>
<g mask="url(#mask0)">
<circle cx="27.5" cy="27.5" r="27.5" fill="#FFF3EE"/>
<path d="M-0.226107 39.7889L24.2679 26.4053C24.9029 26.0583 25.632 25.9215 26.35 26.0146L54.2793 29.6336C55.8088 29.8317 57.0197 31.0256 57.2851 32.5404C57.4242 33.3349 57.6007 34.2936 57.8178 35.3886C58.4812 38.7338 59.7562 41.5437 59.7562 41.5437C53.4483 43.7075 55.3687 43.5738 51.695 46.7481C48.0214 49.9224 45.6947 49.312 45.2049 50.7771C44.7151 52.2421 42.3884 53.9514 40.1842 53.9514C38.4208 53.9514 35.5309 56.8815 34.3063 58.3466C32.7144 57.2478 32.5919 58.3466 29.653 58.3466C26.714 58.3466 22.9179 57.3699 20.4688 56.2711C18.0197 55.1723 14.9583 55.7827 12.2642 55.4164C9.57021 55.0502 9.69267 53.9514 7.48846 53.9514C5.28425 53.9514 5.1618 54.806 2.1004 53.9514C-0.960998 53.0967 0.875841 51.9979 -1.08345 52.3642C-2.65089 52.6572 -4.18547 51.4282 -4.75684 50.7771C-3.97312 49.4097 -1.4098 42.8819 -0.226107 39.7889Z" fill="#FFF3EE"/>
<path fill-rule="evenodd" clip-rule="evenodd" d="M26.319 26.2553C25.6521 26.1689 24.975 26.2959 24.3853 26.6182L0.148991 39.8609C0.260291 39.982 0.405474 40.121 0.577182 40.2544C0.865317 40.4784 1.21446 40.6762 1.59026 40.7564C2.43437 40.9368 11.1107 42.6397 15.3469 43.4693C15.4788 43.4952 15.5648 43.6228 15.5388 43.7543C15.5129 43.8859 15.3849 43.9716 15.253 43.9457C11.0211 43.1169 2.33774 41.4126 1.48823 41.2312C1.01721 41.1305 0.601589 40.889 0.277786 40.6373C0.115803 40.5114 -0.0266242 40.3803 -0.144988 40.2579C-0.738383 41.802 -1.59802 44.0028 -2.41539 46.021C-3.24043 48.0581 -4.03071 49.9303 -4.45925 50.7409C-4.17398 51.0367 -3.72077 51.4174 -3.17728 51.7113C-2.55336 52.0487 -1.83632 52.258 -1.12801 52.1256C-0.8775 52.0788 -0.677265 52.0533 -0.515057 52.0495C-0.353628 52.0458 -0.213615 52.0629 -0.093345 52.1145C0.130883 52.2108 0.225379 52.4083 0.29029 52.5441C0.29834 52.5609 0.305935 52.5768 0.313266 52.5914C0.387492 52.7394 0.485149 52.9103 0.733935 53.0976C0.990136 53.2904 1.41801 53.5087 2.16636 53.7176C3.67192 54.1379 4.43202 54.1323 5.07877 54.032C5.2581 54.0042 5.43673 53.9669 5.62527 53.9276C6.11656 53.8251 6.67514 53.7086 7.48877 53.7086C8.06128 53.7086 8.49239 53.7801 8.86029 53.8976C9.22594 54.0143 9.52005 54.1739 9.81074 54.3341L9.84918 54.3553C10.4095 54.6643 11.0231 55.0027 12.2974 55.1759C13.2601 55.3068 14.2639 55.3107 15.2879 55.3147C15.6774 55.3163 16.0698 55.3178 16.464 55.3264C17.8777 55.357 19.2972 55.4791 20.569 56.0497C22.9931 57.1373 26.7552 58.1038 29.6533 58.1038C30.8386 58.1038 31.5438 57.9228 32.0978 57.7805C32.2143 57.7506 32.3241 57.7224 32.4303 57.698C32.7407 57.6266 33.0354 57.5839 33.3652 57.6443C33.6429 57.6951 33.9283 57.8157 34.2604 58.0248C34.8894 57.2908 35.8578 56.2735 36.8871 55.4135C37.4419 54.95 38.0198 54.5276 38.5762 54.2198C39.1279 53.9147 39.6826 53.7086 40.1845 53.7086C41.227 53.7086 42.3134 53.3027 43.2027 52.7116C44.0969 52.1173 44.7529 51.3621 44.9742 50.7003C45.1207 50.2622 45.4079 49.9843 45.7875 49.7657C46.0944 49.5889 46.4803 49.4411 46.9145 49.2749C46.9973 49.2431 47.0819 49.2107 47.1681 49.1773C48.2558 48.7556 49.7279 48.1269 51.5359 46.5647C52.446 45.7783 53.0084 45.1979 53.4392 44.735C53.5137 44.6549 53.5848 44.5777 53.6536 44.503C53.9793 44.1495 54.2528 43.8526 54.5828 43.58C55.3686 42.9312 56.4699 42.4215 59.4285 41.3998C59.3983 41.329 59.3624 41.2435 59.3217 41.1445C59.1906 40.8259 59.0091 40.3666 58.8068 39.8023C58.4026 38.6744 57.914 37.1236 57.5793 35.4357C57.3618 34.3388 57.185 33.3783 57.0455 32.5822C56.7979 31.1683 55.6684 30.0583 54.2483 29.8743L26.319 26.2553ZM24.1512 26.1924C24.8314 25.8208 25.6125 25.6742 26.3817 25.7738L54.311 29.3928C55.9499 29.6052 57.2422 30.883 57.5252 32.4987C57.6641 33.2915 57.8402 34.2484 58.057 35.3415C58.3856 36.9988 58.8663 38.5255 59.2654 39.6389C59.4648 40.1953 59.6435 40.6475 59.7722 40.9603C59.8365 41.1166 59.8883 41.2381 59.9239 41.3201C59.937 41.3502 59.9479 41.3751 59.9564 41.3943C59.9595 41.4013 59.9622 41.4076 59.9647 41.4131L59.9751 41.4364L59.9776 41.4421L59.9782 41.4434L59.9783 41.4437L59.9784 41.4437C60.0066 41.5059 60.0072 41.5772 59.9801 41.6399C59.9529 41.7026 59.9005 41.751 59.8357 41.7733C56.6743 42.8577 55.6212 43.353 54.8934 43.9539C54.5912 44.2035 54.344 44.4716 54.0196 44.8236C53.9492 44.8999 53.8752 44.9802 53.7962 45.0652C53.3567 45.5375 52.7815 46.1308 51.8548 46.9316C49.9891 48.5436 48.461 49.1969 47.3446 49.6298C47.2525 49.6655 47.164 49.6994 47.0792 49.732C46.6439 49.8989 46.3017 50.0301 46.0311 50.186C45.7219 50.3642 45.5346 50.5594 45.4362 50.8538C45.1676 51.6571 44.4154 52.4891 43.4728 53.1156C42.5252 53.7454 41.3462 54.1941 40.1845 54.1941C39.8048 54.1941 39.3369 54.3543 38.8125 54.6444C38.2928 54.9318 37.7411 55.3334 37.1999 55.7856C36.1175 56.6899 35.099 57.7777 34.4937 58.502C34.413 58.5985 34.2717 58.6177 34.168 58.5461C33.7855 58.2821 33.5119 58.1647 33.2772 58.1218C33.0445 58.0791 32.8265 58.1051 32.5398 58.171C32.4416 58.1936 32.3373 58.2205 32.2244 58.2495C31.6676 58.3928 30.9042 58.5893 29.6533 58.5893C26.6735 58.5893 22.8433 57.6024 20.3692 56.4924C19.1919 55.9642 17.8561 55.8421 16.4534 55.8117C16.0793 55.8036 15.6991 55.8021 15.3166 55.8006C14.2813 55.7966 13.2285 55.7925 12.2317 55.657C10.8675 55.4715 10.1933 55.0998 9.60893 54.7776L9.57521 54.759C9.28424 54.5987 9.02729 54.4607 8.71179 54.36C8.39853 54.2599 8.01837 54.1941 7.48877 54.1941C6.72849 54.1941 6.24285 54.2956 5.76632 54.3953C5.56697 54.4369 5.36922 54.4783 5.15361 54.5117C4.42273 54.6251 3.5909 54.6195 2.03506 54.1851C1.25272 53.9667 0.762169 53.7272 0.440532 53.4851C0.111479 53.2374 -0.0281222 52.9963 -0.122273 52.8085L-0.124385 52.8043C-0.224367 52.6049 -0.23592 52.5819 -0.285847 52.5605C-0.316733 52.5472 -0.378581 52.532 -0.50368 52.5349C-0.628 52.5378 -0.798959 52.5581 -1.03827 52.6028C-1.8974 52.7634 -2.73137 52.5047 -3.40944 52.1381C-4.08854 51.7709 -4.63721 51.2817 -4.93977 50.9369C-5.00812 50.859 -5.01942 50.7465 -4.96792 50.6566C-4.58631 49.9908 -3.75667 48.0361 -2.86691 45.8392C-1.9809 43.6515 -1.04473 41.2479 -0.453272 39.7024C-0.432663 39.6485 -0.393507 39.6038 -0.342809 39.5761L24.1512 26.1924ZM55.5029 32.3467C55.5744 32.4603 55.5399 32.6101 55.426 32.6814L32.7168 46.876C32.7904 47.8317 32.9271 49.2553 33.1115 50.5945C33.2085 51.2991 33.3184 51.9775 33.4387 52.5507C33.5602 53.1299 33.6884 53.5817 33.8164 53.8458C33.8748 53.9666 33.8241 54.1117 33.703 54.17C33.5819 54.2283 33.4363 54.1776 33.3779 54.0569C33.222 53.735 33.0842 53.2324 32.962 52.6501C32.8386 52.0616 32.7269 51.3711 32.6291 50.6605C32.4455 49.3277 32.3091 47.9142 32.2343 46.9517L21.6053 44.9259C21.4732 44.9007 21.3866 44.7736 21.4119 44.6419C21.4371 44.5102 21.5647 44.4239 21.6967 44.4491L32.4147 46.4918L55.1673 32.27C55.2813 32.1988 55.4315 32.2332 55.5029 32.3467ZM49.1269 37.8467C49.2608 37.8338 49.3798 37.9314 49.3928 38.0649C49.4712 38.8701 49.6567 40.2064 49.9574 41.5888C50.2592 42.9761 50.6725 44.3874 51.199 45.3564C51.2631 45.4743 51.2192 45.6216 51.1009 45.6854C50.9827 45.7493 50.8349 45.7055 50.7709 45.5876C50.2103 44.5559 49.7856 43.0892 49.4816 41.6917C49.1765 40.2893 48.9882 38.9342 48.9081 38.1118C48.8951 37.9784 48.9931 37.8597 49.1269 37.8467ZM2.4417 42.9347C2.57008 42.9746 2.64172 43.1106 2.60171 43.2386C1.15409 47.8699 0.0353633 50.6403 -0.348053 51.4555C-0.40514 51.5769 -0.550113 51.6292 -0.671861 51.5723C-0.793608 51.5153 -0.846026 51.3708 -0.788939 51.2494C-0.418955 50.4627 0.692177 47.716 2.13682 43.0942C2.17682 42.9662 2.31333 42.8948 2.4417 42.9347ZM9.34318 43.7913C9.47545 43.8154 9.56306 43.9419 9.53887 44.0738C9.35092 45.0981 8.93575 47.3286 8.78401 48.0245C8.75545 48.1555 8.62577 48.2386 8.49437 48.2101C8.36298 48.1816 8.27961 48.0523 8.30818 47.9213C8.45776 47.2353 8.87118 45.0148 9.05987 43.9864C9.08406 43.8545 9.21091 43.7672 9.34318 43.7913ZM22.0722 46.0817C22.2046 46.1051 22.2929 46.2311 22.2694 46.3631C21.969 48.0515 21.4255 52.0348 21.632 54.5243C21.6431 54.6579 21.5435 54.7751 21.4094 54.7862C21.2754 54.7972 21.1578 54.6979 21.1467 54.5643C20.9346 52.0069 21.489 47.9695 21.7899 46.2783C21.8134 46.1463 21.9398 46.0582 22.0722 46.0817ZM37.5651 47.7327C37.6982 47.7134 37.8217 47.8054 37.841 47.9381C37.9745 48.8572 38.4571 51.0579 39.3059 52.5316C39.3729 52.6478 39.3327 52.7962 39.216 52.8629C39.0994 52.9297 38.9506 52.8896 38.8837 52.7733C37.989 51.22 37.4956 48.9471 37.3591 48.0077C37.3398 47.875 37.4321 47.7519 37.5651 47.7327Z" fill="#03224C"/>
<path d="M51.7888 31.0961L22.6771 27.321C21.2533 27.1364 20.8789 27.321 20.0902 27.7583C19.4592 28.1081 19.3036 28.8708 19.3047 29.2084C29.5411 30.6439 50.2623 33.5503 51.2564 33.6919C52.2504 33.8335 52.6173 34.2621 52.6764 34.4588C53.3866 36.4409 54.8263 41.6165 55.4574 43.9566C56.0728 43.579 57.3706 42.934 57.9426 42.6587C57.5165 42.0452 55.9111 35.9532 55.1616 32.984C54.9722 31.7569 52.8341 31.2141 51.7888 31.0961Z" fill="#F4D8CD"/>
<path fill-rule="evenodd" clip-rule="evenodd" d="M21.195 27.544C20.8655 27.6132 20.6045 27.7505 20.2078 27.9705C19.9528 28.1118 19.7871 28.3402 19.6839 28.5827C19.6213 28.73 19.5844 28.8765 19.5651 28.9999C29.8773 30.4461 50.303 33.311 51.2901 33.4516C52.3211 33.5984 52.8038 34.0556 52.9069 34.3822C53.5917 36.2956 54.9428 41.1306 55.6086 43.5857C56.1981 43.2514 57.0687 42.8142 57.6123 42.5487C57.5766 42.4667 57.5399 42.3734 57.5026 42.2732C57.4144 42.0366 57.3124 41.7323 57.2008 41.3786C56.9774 40.6709 56.7125 39.756 56.4381 38.7696C55.8891 36.7963 55.2998 34.529 54.9248 33.0432L54.922 33.0322L54.9203 33.0209C54.8462 32.541 54.3757 32.1455 53.697 31.8462C53.0367 31.5549 52.2664 31.3944 51.7607 31.3373L51.7567 31.3369L51.7567 31.3368L22.6451 27.5617C21.9431 27.4707 21.5254 27.4746 21.195 27.544ZM21.0946 27.0689C21.5045 26.9828 21.986 26.9867 22.7079 27.0803L51.8155 30.8549C51.8162 30.855 51.8169 30.8551 51.8175 30.8552C52.3573 30.9163 53.1775 31.0861 53.894 31.4022C54.5894 31.7089 55.2789 32.1947 55.3997 32.9353C55.7742 34.4189 56.361 36.6762 56.9073 38.6399C57.1812 39.6243 57.4444 40.533 57.6653 41.2329C57.7758 41.5831 57.875 41.8786 57.959 42.1041C58.0468 42.3395 58.109 42.4729 58.1421 42.5206L58.3041 42.7539L58.0477 42.8773C57.4741 43.1534 56.1875 43.7933 55.5844 44.1633L55.3064 44.3338L55.2216 44.0196C54.5897 41.6763 53.1526 36.5114 52.4465 34.5404L52.4423 34.5286L52.4426 34.5285C52.4226 34.4623 52.1711 34.0675 51.2213 33.9322C50.2276 33.7906 29.5068 30.8844 19.2701 29.4488L19.0612 29.4195L19.0606 29.2092C19.0599 29.0098 19.1043 28.702 19.2356 28.3932C19.3677 28.0826 19.5952 27.7546 19.9712 27.5462C20.3632 27.3288 20.6838 27.1552 21.0946 27.0689Z" fill="#03224C"/>
<path fill-rule="evenodd" clip-rule="evenodd" d="M25.1515 22.5992C25.3619 22.2689 25.7133 22.0183 26.1575 22.0183C26.167 22.0183 26.1765 22.0188 26.186 22.0199L56.3306 25.5571C56.3949 25.5646 56.4536 25.5974 56.4936 25.6482C56.7166 25.9312 56.7518 26.2149 56.6568 26.457C56.6226 26.5439 56.5741 26.6193 56.5196 26.6831C56.7153 26.9114 56.888 27.2936 56.888 27.8464C56.888 28.617 56.4013 29.1371 56.0795 29.3598C56.0195 29.6301 55.8943 29.8198 55.7305 29.9372C55.5534 30.0641 55.3566 30.0876 55.2147 30.0639L25.6681 26.1484C25.6615 26.1475 25.655 26.1464 25.6485 26.145C25.1517 26.0373 24.893 25.6963 24.7793 25.3409C24.6819 25.0366 24.6854 24.7129 24.7211 24.478C24.6365 24.2771 24.6763 24.0737 24.7397 23.9227C24.7889 23.8055 24.859 23.7012 24.9269 23.6198C24.8782 23.2609 24.9653 22.8915 25.1515 22.5992ZM25.5625 22.8595C25.4202 23.083 25.3636 23.3754 25.4252 23.641C25.4445 23.7246 25.4182 23.8122 25.3558 23.8714C25.303 23.9216 25.2297 24.0129 25.1889 24.1101C25.1483 24.2069 25.1545 24.2686 25.1815 24.3118C25.2145 24.3645 25.226 24.4278 25.2135 24.4887C25.1766 24.6697 25.1653 24.95 25.2432 25.1933C25.3164 25.4221 25.4606 25.6042 25.7428 25.6685L55.2945 29.5847C55.3211 29.5895 55.3846 29.5872 55.4463 29.543C55.5019 29.5031 55.5849 29.4084 55.618 29.1775C55.6287 29.1029 55.6736 29.0375 55.7394 29.0004C55.9554 28.879 56.4011 28.4676 56.4011 27.8464C56.4011 27.1786 56.1007 26.9317 56.0357 26.9006C55.9529 26.861 55.8996 26.7784 55.8976 26.6869C55.8957 26.5954 55.9455 26.5106 56.0264 26.4675C56.0931 26.4321 56.1712 26.3617 56.2033 26.28C56.2231 26.2296 56.2369 26.1486 56.1649 26.0265L26.1444 22.5039C25.9061 22.5087 25.7008 22.6425 25.5625 22.8595Z" fill="#03224C"/>
<path d="M27.5 26.8331C27.5149 25.6712 27.9518 22.6061 29.5805 19.6409C30.7459 19.3614 33.9886 19.0937 37.6354 20.2586C37.6354 23.436 36.5732 26.642 36.0421 27.8478C34.1831 27.9656 29.872 27.9276 27.5 26.8331Z" fill="white"/>
<path fill-rule="evenodd" clip-rule="evenodd" d="M29.7422 19.8531C28.2473 22.6208 27.7975 25.4579 27.7481 26.6775C28.8844 27.1646 30.4505 27.4275 31.9837 27.5531C33.4518 27.6733 34.8663 27.6659 35.7984 27.6185C35.8159 24.7574 36.747 21.787 37.3077 20.4108C33.9149 19.3836 30.9209 19.5991 29.7422 19.8531ZM36.3544 26.3113C36.5136 24.6489 36.9222 23.0357 37.3105 21.8355C37.141 23.5298 36.7355 25.1331 36.3544 26.3113ZM29.5239 19.4048C30.7307 19.1155 34.0188 18.8483 37.7101 20.0274L37.8793 20.0815V20.2586C37.8793 23.4798 36.8052 26.7198 36.2654 27.9454L36.2058 28.0806L36.0579 28.09C35.1178 28.1496 33.5634 28.1696 31.9439 28.037C30.3304 27.9048 28.6243 27.6192 27.3981 27.0534L27.2549 26.9873L27.2569 26.83C27.2722 25.6342 27.7168 22.5291 29.3673 19.5243L29.419 19.43L29.5239 19.4048Z" fill="#03224C"/>
<path d="M28.6816 27.5708C28.6888 27.0147 28.8979 25.5476 29.6774 24.1283C30.2353 23.9945 31.7874 23.8664 33.5329 24.4239C33.5329 25.9448 33.0245 27.4793 32.7703 28.0565C31.8805 28.1129 29.817 28.0947 28.6816 27.5708Z" fill="#FE3945"/>
<path fill-rule="evenodd" clip-rule="evenodd" d="M29.755 24.2298C29.0395 25.5546 28.8242 26.9125 28.8005 27.4963C29.3444 27.7294 30.094 27.8553 30.8279 27.9154C31.5306 27.973 32.2076 27.9694 32.6538 27.9467C32.6622 26.5773 33.1078 25.1555 33.3762 24.4968C31.7522 24.0051 30.3192 24.1083 29.755 24.2298ZM32.9199 27.321C32.9961 26.5253 33.1917 25.7532 33.3775 25.1787C33.2964 25.9897 33.1023 26.7571 32.9199 27.321ZM29.6505 24.0153C30.2282 23.8768 31.802 23.7489 33.5688 24.3133L33.6498 24.3391V24.4239C33.6498 25.9658 33.1357 27.5166 32.8773 28.1032L32.8488 28.1679L32.778 28.1724C32.328 28.2009 31.584 28.2105 30.8088 28.147C30.0365 28.0838 29.2199 27.947 28.633 27.6762L28.5645 27.6446L28.5654 27.5693C28.5727 26.997 28.7856 25.5107 29.5755 24.0724L29.6003 24.0273L29.6505 24.0153Z" fill="#03224C"/>
<path d="M39.5703 28.1132C39.5852 26.9513 40.0221 23.8862 41.6508 20.9209C42.8162 20.6415 46.0589 20.3738 49.7058 21.5387C49.7058 24.7161 48.6436 27.9221 48.1125 29.1278C46.2534 29.2457 41.9423 29.2077 39.5703 28.1132Z" fill="white"/>
<path fill-rule="evenodd" clip-rule="evenodd" d="M41.8126 21.1332C40.3176 23.9009 39.8678 26.738 39.8185 27.9576C40.9547 28.4447 42.5208 28.7076 44.054 28.8332C45.5221 28.9534 46.9366 28.946 47.8687 28.8986C47.8862 26.0375 48.8173 23.0671 49.378 21.6909C45.9852 20.6636 42.9912 20.8792 41.8126 21.1332ZM48.4247 27.5914C48.5839 25.929 48.9926 24.3157 49.3808 23.1156C49.2113 24.8099 48.8058 26.4132 48.4247 27.5914ZM41.5942 20.6849C42.801 20.3955 46.0891 20.1284 49.7804 21.3075L49.9496 21.3616V21.5387C49.9496 24.7599 48.8755 27.9999 48.3357 29.2255L48.2761 29.3607L48.1282 29.3701C47.1881 29.4297 45.6337 29.4497 44.0142 29.3171C42.4007 29.1849 40.6947 28.8993 39.4684 28.3335L39.3252 28.2674L39.3272 28.1101C39.3425 26.9143 39.7872 23.8092 41.4376 20.8044L41.4894 20.7101L41.5942 20.6849Z" fill="#03224C"/>
<path d="M40.3799 29.0666C40.387 28.5105 40.5961 27.0434 41.3757 25.6241C41.9335 25.4903 43.4856 25.3622 45.2312 25.9197C45.2312 27.4406 44.7228 28.9751 44.4685 29.5523C43.5787 29.6087 41.5152 29.5905 40.3799 29.0666Z" fill="#FE3945"/>
<path fill-rule="evenodd" clip-rule="evenodd" d="M41.4533 25.7257C40.7377 27.0504 40.5224 28.4084 40.4988 28.9921C41.0427 29.2253 41.7923 29.3511 42.5261 29.4112C43.2288 29.4688 43.9059 29.4652 44.352 29.4425C44.3604 28.0731 44.8061 26.6513 45.0744 25.9926C43.4505 25.5009 42.0174 25.6041 41.4533 25.7257ZM44.6181 28.8169C44.6944 28.0212 44.8899 27.249 45.0758 26.6745C44.9946 27.4855 44.8005 28.2529 44.6181 28.8169ZM41.3487 25.5111C41.9264 25.3726 43.5002 25.2447 45.267 25.8091L45.348 25.835V25.9197C45.348 27.4616 44.8339 29.0124 44.5756 29.599L44.547 29.6637L44.4762 29.6682C44.0262 29.6967 43.2822 29.7063 42.5071 29.6428C41.7348 29.5796 40.9182 29.4429 40.3312 29.172L40.2627 29.1404L40.2637 29.0651C40.271 28.4928 40.4838 27.0065 41.2738 25.5683L41.2986 25.5231L41.3487 25.5111Z" fill="#03224C"/>
<path d="M10.01 38.383C10.0899 39.0209 10.4097 39.4792 10.5255 39.5204C12.3923 40.019 16.1025 40.7947 16.2824 40.7748C16.5073 40.7499 17.282 40.2267 17.2571 39.3039C17.2371 38.5658 16.6989 38.1329 16.4324 38.0088C14.7081 37.602 11.3486 36.9381 10.9383 36.9382C10.5805 36.9383 9.91015 37.5856 10.01 38.383Z" fill="white"/>
<path fill-rule="evenodd" clip-rule="evenodd" d="M10.4966 37.5088C10.3263 37.7316 10.2116 38.0307 10.252 38.353C10.288 38.6404 10.3782 38.8868 10.4705 39.0632C10.5168 39.1516 10.5616 39.2187 10.5972 39.2627C10.6093 39.2777 10.6192 39.2886 10.6267 39.2961C11.5538 39.5423 12.9218 39.8547 14.0881 40.1048C14.6787 40.2315 15.216 40.3418 15.6162 40.4191C15.8165 40.4578 15.9811 40.4879 16.1003 40.5077C16.1601 40.5176 16.2065 40.5246 16.2394 40.5287C16.2499 40.53 16.2577 40.5308 16.2632 40.5314C16.2805 40.5257 16.3282 40.5076 16.4012 40.4605C16.4865 40.4055 16.5864 40.3236 16.6805 40.2163C16.8681 40.0025 17.0245 39.6983 17.014 39.3106C16.9979 38.7141 16.5727 38.3522 16.3508 38.2391C16.4127 38.3253 16.4125 38.4452 16.3429 38.532C16.3219 38.5582 16.2829 38.6281 16.2408 38.7441C16.2007 38.8544 16.164 38.9892 16.1394 39.1309C16.0938 39.3938 16.0979 39.6326 16.1541 39.7869C16.1642 39.7729 16.1754 39.7559 16.1874 39.7354C16.2973 39.5479 16.3664 39.2544 16.3243 39.0411C16.2983 38.9095 16.3842 38.7819 16.5162 38.756C16.6481 38.7302 16.7761 38.8158 16.802 38.9474C16.8719 39.3013 16.7637 39.7146 16.6078 39.9804C16.534 40.1063 16.4181 40.254 16.2549 40.3085C16.1614 40.3398 16.0546 40.3388 15.954 40.2868C15.8604 40.2384 15.7964 40.1585 15.7521 40.077C15.5899 39.7784 15.6036 39.3705 15.6596 39.0481C15.689 38.8791 15.7329 38.7167 15.7829 38.5788C15.8309 38.4466 15.8916 38.3174 15.9626 38.2288C15.9838 38.2024 16.0094 38.1816 16.0375 38.1665C15.2049 37.9768 14.1131 37.7486 13.146 37.5592C12.5937 37.451 12.0834 37.3557 11.6864 37.2875C11.4878 37.2534 11.3188 37.2264 11.1877 37.2079C11.0509 37.1887 10.9702 37.181 10.9387 37.181C10.9157 37.181 10.8538 37.1948 10.7624 37.2547C10.6758 37.3115 10.5814 37.3978 10.4966 37.5088ZM10.6399 39.3082C10.6399 39.3082 10.6393 39.3078 10.6381 39.3068C10.6393 39.3076 10.6399 39.3081 10.6399 39.3082ZM10.4948 36.8491C10.6266 36.7627 10.7827 36.6956 10.9386 36.6955C11.0097 36.6955 11.1237 36.7086 11.2558 36.7272C11.3938 36.7466 11.5681 36.7746 11.769 36.8091C12.1712 36.8781 12.6855 36.9742 13.2399 37.0828C14.3483 37.2999 15.6226 37.5683 16.4888 37.7727C16.505 37.7765 16.5207 37.7819 16.5358 37.7889C16.8541 37.9372 17.4775 38.437 17.5008 39.2974C17.5153 39.8324 17.2968 40.2512 17.0471 40.5359C16.9225 40.6779 16.7881 40.7892 16.6657 40.8681C16.5518 40.9415 16.4227 41.0036 16.3097 41.0161C16.2643 41.0211 16.2088 41.0142 16.1792 41.0105L16.1786 41.0104C16.1364 41.0051 16.0829 40.9969 16.0204 40.9866C15.895 40.9658 15.7256 40.9347 15.5236 40.8957C15.1191 40.8176 14.5784 40.7065 13.9857 40.5794C12.8012 40.3254 11.4022 40.0058 10.4628 39.7549C10.4564 39.7532 10.4501 39.7513 10.4439 39.7491C10.3861 39.7285 10.3408 39.693 10.3119 39.6673C10.2792 39.6383 10.2477 39.604 10.2182 39.5674C10.1588 39.494 10.097 39.3989 10.0388 39.2878C9.92234 39.0653 9.81268 38.7636 9.76878 38.4131C9.70927 37.938 9.87983 37.5148 10.1092 37.2146C10.2242 37.0641 10.3582 36.9387 10.4948 36.8491Z" fill="#03224C"/>
<path d="M23.8811 41.1079C23.961 41.7458 24.2808 42.2041 24.3965 42.2453C26.2634 42.7439 29.9736 43.5197 30.1535 43.4997C30.3784 43.4748 31.1531 42.9516 31.1282 42.0289C31.1082 41.2907 30.57 40.8579 30.3035 40.7338C28.5792 40.3269 25.2197 39.6631 24.8094 39.6631C24.4516 39.6632 23.7812 40.3106 23.8811 41.1079Z" fill="white"/>
<path fill-rule="evenodd" clip-rule="evenodd" d="M24.3676 40.2337C24.1974 40.4566 24.0827 40.7557 24.1231 41.0779C24.1591 41.3654 24.2493 41.6117 24.3416 41.7882C24.3879 41.8765 24.4327 41.9436 24.4683 41.9876C24.4804 42.0026 24.4903 42.0135 24.4978 42.021C25.4249 42.2672 26.7929 42.5796 27.9592 42.8297C28.5498 42.9564 29.0871 43.0667 29.4873 43.144C29.6876 43.1827 29.8521 43.2129 29.9714 43.2326C30.0312 43.2425 30.0776 43.2495 30.1105 43.2536C30.121 43.255 30.1288 43.2558 30.1342 43.2563C30.1515 43.2506 30.1993 43.2325 30.2723 43.1854C30.3576 43.1304 30.4575 43.0485 30.5516 42.9412C30.7392 42.7274 30.8956 42.4232 30.8851 42.0355C30.869 41.4391 30.4438 41.0772 30.2219 40.9641C30.2838 41.0502 30.2836 41.1701 30.214 41.257C30.193 41.2831 30.154 41.3531 30.1119 41.469C30.0718 41.5793 30.0351 41.7141 30.0105 41.8559C29.9649 42.1188 29.969 42.3575 30.0252 42.5119C30.0353 42.4979 30.0465 42.4809 30.0585 42.4604C30.1684 42.2729 30.2375 41.9794 30.1954 41.766C30.1694 41.6345 30.2553 41.5069 30.3873 41.481C30.5192 41.4551 30.6472 41.5408 30.6731 41.6723C30.743 42.0262 30.6348 42.4395 30.4789 42.7054C30.4051 42.8312 30.2892 42.9789 30.126 43.0335C30.0325 43.0647 29.9257 43.0637 29.8251 43.0117C29.7315 42.9634 29.6675 42.8834 29.6232 42.8019C29.461 42.5034 29.4747 42.0955 29.5307 41.7731C29.56 41.6041 29.604 41.4417 29.654 41.3038C29.702 41.1716 29.7627 41.0423 29.8337 40.9538C29.8549 40.9274 29.8805 40.9065 29.9086 40.8915C29.0759 40.7018 27.9842 40.4736 27.0171 40.2841C26.4648 40.1759 25.9545 40.0806 25.5575 40.0125C25.3589 39.9784 25.1899 39.9513 25.0588 39.9329C24.922 39.9136 24.8413 39.906 24.8098 39.906C24.7868 39.906 24.7249 39.9198 24.6335 39.9797C24.5469 40.0364 24.4525 40.1227 24.3676 40.2337ZM24.511 42.0331C24.511 42.0331 24.5104 42.0327 24.5092 42.0317C24.5104 42.0326 24.511 42.0331 24.511 42.0331ZM24.3659 39.574C24.4977 39.4876 24.6538 39.4205 24.8097 39.4205C24.8808 39.4205 24.9948 39.4335 25.1269 39.4522C25.2649 39.4716 25.4392 39.4995 25.6401 39.534C26.0423 39.6031 26.5566 39.6991 27.111 39.8077C28.2194 40.0249 29.4936 40.2932 30.3599 40.4976C30.3761 40.5014 30.3918 40.5069 30.4069 40.5139C30.7252 40.6621 31.3486 41.162 31.3719 42.0224C31.3864 42.5574 31.1679 42.9761 30.9182 43.2609C30.7936 43.4028 30.6592 43.5141 30.5368 43.5931C30.4229 43.6665 30.2938 43.7285 30.1808 43.7411C30.1354 43.7461 30.0799 43.7391 30.0503 43.7354L30.0497 43.7353C30.0075 43.73 29.954 43.7219 29.8915 43.7115C29.7661 43.6907 29.5967 43.6597 29.3947 43.6206C28.9902 43.5425 28.4495 43.4315 27.8568 43.3044C26.6723 43.0504 25.2733 42.7308 24.3339 42.4799C24.3275 42.4782 24.3212 42.4762 24.315 42.474C24.2572 42.4534 24.2119 42.4179 24.1829 42.3922C24.1503 42.3633 24.1188 42.329 24.0893 42.2924C24.0299 42.2189 23.9681 42.1239 23.9099 42.0128C23.7934 41.7902 23.6838 41.4885 23.6399 41.1381C23.5804 40.663 23.7509 40.2397 23.9803 39.9395C24.0953 39.789 24.2293 39.6636 24.3659 39.574Z" fill="#03224C"/>
<path d="M3.93628 55.6984C4.89186 55.9135 4.95105 57.0515 4.8612 57.5936C6.04315 56.7746 6.18485 55.6984 5.72202 55.3777C4.9256 54.8259 3.93628 54.9807 3.31991 55.3777C2.82681 55.6953 2.6948 56.1593 2.69043 56.3515C2.70756 56.0442 2.98071 55.4832 3.93628 55.6984Z" fill="white"/>
<path fill-rule="evenodd" clip-rule="evenodd" d="M3.75983 55.4214C3.83345 55.4303 3.91021 55.4436 3.99016 55.4616C4.57612 55.5935 4.88188 56.0147 5.02268 56.4486C5.08855 56.6517 5.12079 56.8628 5.13113 57.0604C5.42746 56.7725 5.59928 56.4791 5.67568 56.2282C5.78651 55.8642 5.68961 55.6507 5.58333 55.577C5.00506 55.1764 4.30008 55.1978 3.75983 55.4214ZM3.18803 55.1738C3.86584 54.7372 4.96458 54.5571 5.8612 55.1783C6.21775 55.4254 6.28142 55.9102 6.14162 56.3693C5.99741 56.8428 5.62711 57.3586 5.0004 57.7929L4.52729 58.1208L4.62123 57.554C4.66171 57.3098 4.66729 56.9307 4.55937 56.5981C4.45414 56.2737 4.25251 56.0183 3.8829 55.9351C3.45558 55.8389 3.23057 55.9252 3.11398 56.0184C2.98904 56.1183 2.93936 56.2648 2.93378 56.365L2.44727 56.346C2.45326 56.0824 2.61988 55.5397 3.18803 55.1738Z" fill="#03224C"/>
<path d="M8.8092 23.2614C9.29967 22.3101 11.3068 21.0539 12.2491 20.5447C12.6016 21.6209 13.8106 23.2635 15.826 21.2244C16.405 21.5074 17.6789 22.2431 18.1421 22.9223C18.6054 23.6015 18.9483 26.488 19.0618 27.8463C19.5954 28.5708 20.6971 30.1139 21.46 31.0104C21.2216 31.0104 20.5138 31.3947 20.2199 31.8874L17.7334 30.0537L15.6656 26.7286C15.0505 27.7317 14.5415 29.3633 13.4876 30.9312C14.2753 32.0149 14.3871 32.3936 14.8733 33.272C14.7098 33.8969 13.4446 34.4159 13.1011 34.2306C12.5731 33.5554 12.1121 33.0381 11.4184 32.0725C9.18396 32.3856 6.70827 31.0045 5.87988 30.3814C5.87988 30.3814 6.26333 28.9855 7.07297 27.2867C7.88262 25.5879 8.61368 24.1502 8.61368 24.1502C8.59306 23.9805 8.61595 23.6362 8.8092 23.2614Z" fill="white"/>
<path fill-rule="evenodd" clip-rule="evenodd" d="M12.3396 20.3192C12.4067 20.3459 12.4584 20.4009 12.4809 20.4694C12.6489 20.9823 13.0099 21.5866 13.5208 21.8345C13.7668 21.9539 14.0558 21.9955 14.3991 21.8966C14.7485 21.7959 15.1673 21.5453 15.6529 21.054C15.7264 20.9796 15.8394 20.9604 15.9335 21.0064C16.232 21.1523 16.7054 21.4126 17.1647 21.724C17.6175 22.031 18.0848 22.406 18.3438 22.7858C18.4861 22.9944 18.6025 23.3401 18.7015 23.7272C18.8031 24.1244 18.8943 24.5993 18.9738 25.091C19.1276 26.0428 19.24 27.0728 19.2989 27.7579C19.3871 27.8778 19.4881 28.0164 19.5988 28.1681C20.1805 28.9656 21.0267 30.1256 21.646 30.8533C21.7074 30.9254 21.7211 31.0265 21.6813 31.1124C21.6414 31.1982 21.5552 31.2531 21.4603 31.2531C21.4613 31.2531 21.4577 31.2531 21.4489 31.2545C21.4403 31.2559 21.4287 31.2583 21.4139 31.2623C21.3841 31.2703 21.3463 31.2832 21.3016 31.3019C21.2121 31.3394 21.1049 31.3957 20.9937 31.4677C20.7673 31.6143 20.5502 31.8091 20.4294 32.0115C20.3943 32.0705 20.3357 32.1119 20.2682 32.1254C20.2008 32.1389 20.1307 32.1234 20.0754 32.0826L17.5889 30.2488C17.5641 30.2305 17.5431 30.2077 17.5268 30.1816L15.6758 27.2051C15.5056 27.5275 15.337 27.8984 15.1508 28.3076C15.0902 28.4409 15.0277 28.5783 14.9627 28.7194C14.6453 29.4087 14.2747 30.1706 13.7835 30.9253C14.2967 31.6448 14.5104 32.0575 14.7602 32.5399C14.8571 32.727 14.9594 32.9247 15.0868 33.1547C15.1169 33.2092 15.125 33.2731 15.1092 33.3333C15.0518 33.5526 14.9053 33.7407 14.7401 33.8908C14.5723 34.0434 14.3675 34.1732 14.1618 34.2733C13.9562 34.3733 13.7402 34.4482 13.5461 34.4853C13.449 34.5038 13.352 34.5139 13.2612 34.5108C13.173 34.5078 13.0741 34.4918 12.9856 34.4441C12.956 34.4282 12.9301 34.4063 12.9094 34.3799C12.7459 34.1708 12.5869 33.9747 12.424 33.7737C12.0915 33.3634 11.7425 32.933 11.3055 32.3312C10.1765 32.4538 9.01344 32.1798 8.03481 31.8046C7.01186 31.4125 6.16589 30.9004 5.73356 30.5751C5.65398 30.5153 5.61905 30.4131 5.64538 30.3172L5.8802 30.3814L5.6454 30.3172L5.64542 30.3171L5.64551 30.3168L5.64578 30.3158L5.64674 30.3123L5.65036 30.2994L5.66442 30.2505C5.67684 30.2078 5.69536 30.1453 5.72007 30.0653C5.76948 29.9053 5.84367 29.6747 5.94333 29.3909C6.14255 28.8234 6.44402 28.0414 6.85339 27.1825C7.25893 26.3316 7.64471 25.5463 7.92907 24.9737C8.07127 24.6874 8.18815 24.4542 8.2695 24.2925L8.36363 24.1059L8.36585 24.1016C8.35501 23.8755 8.40086 23.523 8.59299 23.1504C8.73377 22.8773 8.97363 22.5985 9.25305 22.3318C9.53518 22.0625 9.87057 21.7935 10.2163 21.5413C10.9076 21.0371 11.6545 20.5901 12.1334 20.3313C12.1969 20.297 12.2724 20.2926 12.3396 20.3192ZM8.48589 24.9471C8.4482 25.0227 8.40797 25.1035 8.36546 25.1891C8.08188 25.7601 7.69731 26.543 7.2932 27.3909C6.89293 28.2307 6.59785 28.9961 6.40294 29.5513C6.30553 29.8287 6.23325 30.0534 6.18547 30.2081C6.1768 30.2362 6.16894 30.262 6.16188 30.2853C6.59065 30.5852 7.32989 31.0142 8.20957 31.3515C9.0669 31.6801 10.039 31.9143 10.977 31.8699C10.6982 31.4713 10.4023 31.0316 10.1497 30.6379C9.9857 30.3824 9.83877 30.1444 9.72624 29.9485C9.61912 29.7621 9.52851 29.5894 9.49545 29.4764C9.35321 28.9902 8.77422 26.6583 8.48589 24.9471ZM13.4774 30.5007C13.899 29.8286 14.2285 29.1502 14.5202 28.5168C14.5819 28.3829 14.6421 28.2504 14.7014 28.12C14.9599 27.5513 15.2 27.0231 15.4582 26.602C16.1368 25.4952 16.3759 24.6067 16.4007 24.1652C16.4082 24.0314 16.5231 23.9289 16.6574 23.9364C16.7917 23.9439 16.8944 24.0585 16.8869 24.1924C16.8574 24.717 16.6002 25.6316 15.9512 26.7266L17.9161 29.8862L20.1667 31.5461C20.3306 31.3509 20.5359 31.1853 20.7285 31.0606C20.8347 30.9918 20.9413 30.9327 21.0411 30.8862C20.4417 30.1493 19.7111 29.1476 19.1992 28.4458C19.0731 28.2728 18.9602 28.1181 18.8659 27.99C18.8393 27.9539 18.8232 27.9112 18.8195 27.8665C18.7631 27.1917 18.6496 26.1369 18.493 25.1683C18.4147 24.6837 18.3262 24.2246 18.2297 23.8472C18.1306 23.4596 18.0305 23.1898 17.9411 23.0588C17.7369 22.7594 17.3357 22.427 16.8909 22.1255C16.5256 21.8779 16.15 21.6636 15.8726 21.5197C15.3982 21.9722 14.9524 22.2425 14.5344 22.363C14.0731 22.4959 13.6601 22.442 13.3077 22.2711C12.7286 21.99 12.3391 21.4074 12.1209 20.8938C11.6679 21.151 11.0657 21.5233 10.5038 21.9332C10.1686 22.1776 9.85139 22.4328 9.58979 22.6825C9.32548 22.9348 9.13052 23.1697 9.02606 23.3723C8.85542 23.7033 8.84085 23.9987 8.8557 24.121C9.05547 25.7647 9.8015 28.7887 9.96292 29.3405C9.97702 29.3887 10.0363 29.5115 10.1488 29.7072C10.2558 29.8935 10.3981 30.1242 10.5599 30.3763C10.8832 30.8802 11.2796 31.4621 11.6166 31.9311C12.0857 32.584 12.4433 33.025 12.7928 33.4561C12.9433 33.6417 13.0923 33.8254 13.248 34.0234C13.2561 34.0244 13.266 34.0252 13.2779 34.0256C13.3226 34.0272 13.3821 34.0223 13.4545 34.0084C13.5993 33.9808 13.7742 33.9216 13.9483 33.8369C14.1222 33.7523 14.2858 33.6468 14.412 33.5321C14.5053 33.4473 14.5693 33.3655 14.6067 33.2915C14.4954 33.0875 14.4044 32.9118 14.3192 32.7472C14.0592 32.2452 13.8535 31.8478 13.2908 31.0737C12.9225 30.5669 12.61 30.1163 12.3886 29.7726C12.2783 29.6012 12.1884 29.4531 12.1254 29.3364C12.094 29.2783 12.0671 29.2239 12.0473 29.176C12.0317 29.138 12.006 29.0711 12.006 29.0009C12.006 28.8044 11.9468 28.3087 11.868 27.7467C11.7904 27.1935 11.6971 26.5995 11.635 26.2216C11.6132 26.0893 11.7032 25.9645 11.8359 25.9428C11.9686 25.9211 12.0938 26.0108 12.1155 26.1431C12.1781 26.5236 12.272 27.1216 12.3502 27.6794C12.425 28.2119 12.4889 28.7307 12.4927 28.9787C12.4939 28.982 12.4956 28.9863 12.4978 28.9916C12.5085 29.0176 12.5267 29.0554 12.5541 29.1062C12.6086 29.2071 12.6909 29.3433 12.7984 29.5103C12.9709 29.7782 13.2031 30.1168 13.4774 30.5007Z" fill="#03224C"/>
<path d="M21.93 31.4942C21.7665 31.4604 21.5261 31.1185 21.3604 30.9905C21.0576 31.0932 20.4258 31.6466 20.2754 31.7973C20.471 31.9441 20.9263 32.2242 20.965 32.4389C21.0133 32.7073 21.1683 32.9094 21.2499 33.1263C21.3316 33.3431 21.5473 33.9551 21.6716 33.6317C21.7958 33.3082 21.6301 32.9641 21.6716 32.8746C21.713 32.7852 21.8234 32.7714 21.93 32.8746C22.0365 32.9779 22.7264 33.6387 22.8507 33.7763C22.9749 33.914 23.1337 33.9897 23.1889 33.8727C23.2441 33.7557 22.5301 32.8127 22.6406 32.8746C22.751 32.9366 23.4486 34.1188 23.7 33.9349C23.8309 33.8391 23.069 32.7933 23.0828 32.7268C23.1381 32.7589 23.8822 33.7301 23.9578 33.6728C24.0709 33.5871 23.356 32.6285 23.31 32.5838C23.3686 32.6265 24.0752 33.4073 24.1265 33.3049C24.1907 33.177 23.3975 32.1979 23.1889 32.0379C22.9804 31.878 22.5093 31.614 21.93 31.4942Z" fill="#FAFAFA"/>
<path fill-rule="evenodd" clip-rule="evenodd" d="M21.2987 30.8072C21.3604 30.7863 21.4286 30.7976 21.4801 30.8374C21.5558 30.8958 21.6451 30.9918 21.7222 31.0746C21.7452 31.0994 21.7672 31.1229 21.7873 31.144C21.8366 31.1955 21.8802 31.238 21.9183 31.2688C21.9549 31.2983 21.9717 31.3045 21.9715 31.3049C21.9715 31.3049 21.9711 31.3048 21.9702 31.3047C22.5803 31.4308 23.078 31.708 23.3081 31.8845C23.3772 31.9374 23.4774 32.0424 23.579 32.1574C23.6847 32.2772 23.8042 32.4219 23.9148 32.5655C24.0249 32.7083 24.1293 32.8539 24.2031 32.9748C24.2395 33.0344 24.2723 33.0941 24.2941 33.1477C24.3048 33.1742 24.3158 33.2062 24.3213 33.2401C24.3261 33.2691 24.3322 33.3294 24.301 33.3915C24.283 33.4275 24.2535 33.4606 24.2126 33.4826C24.1864 33.4966 24.1606 33.5033 24.1381 33.5061C24.1441 33.5228 24.1492 33.5393 24.1534 33.5554C24.1602 33.5823 24.1675 33.6206 24.1641 33.6627C24.1605 33.7058 24.143 33.7763 24.0762 33.8269C24.0148 33.8734 23.951 33.8729 23.9087 33.8646C23.9106 33.8848 23.9109 33.907 23.908 33.9301C23.9024 33.9756 23.8812 34.0431 23.8157 34.091C23.7165 34.1636 23.6058 34.1556 23.5246 34.1278C23.4527 34.1032 23.3867 34.0585 23.3305 34.0126C23.2952 34.0584 23.2466 34.0943 23.1858 34.1121C23.109 34.1346 23.0363 34.1214 22.9828 34.1029C22.8777 34.0665 22.7807 33.9873 22.7072 33.9058C22.6083 33.7963 22.1174 33.3236 21.8926 33.1071C21.8919 33.1064 21.8912 33.1058 21.8905 33.1051C21.8922 33.1154 21.8939 33.1259 21.8955 33.1367C21.9177 33.2845 21.934 33.4918 21.8537 33.7009C21.8335 33.7536 21.8005 33.819 21.7405 33.865C21.6656 33.9226 21.5741 33.931 21.4945 33.8998C21.4304 33.8747 21.3852 33.8287 21.3573 33.7957C21.3267 33.7594 21.2998 33.7177 21.2768 33.6773C21.1966 33.5366 21.1233 33.34 21.0818 33.2285C21.0771 33.2159 21.0728 33.2045 21.069 33.1943C21.0433 33.1261 21.011 33.0631 20.9725 32.9881C20.9566 32.9571 20.9396 32.9239 20.9216 32.8875C20.864 32.771 20.8037 32.6341 20.7747 32.4731C20.7747 32.4732 20.7747 32.4733 20.7747 32.4733C20.7747 32.4733 20.7731 32.4666 20.765 32.4526C20.7563 32.4377 20.7427 32.4186 20.7227 32.3957C20.6822 32.3492 20.6255 32.2977 20.5579 32.2433C20.4688 32.1716 20.382 32.1106 20.3012 32.0537C20.2514 32.0188 20.2039 31.9854 20.1594 31.952C20.1146 31.9183 20.0865 31.867 20.0825 31.8111C20.0785 31.7553 20.099 31.7005 20.1386 31.6608C20.2204 31.5787 20.422 31.3977 20.6408 31.2244C20.7507 31.1373 20.8675 31.0501 20.978 30.9772C21.0853 30.9065 21.1985 30.8412 21.2987 30.8072ZM22.5222 33.0263C22.5222 33.0262 22.5228 33.0267 22.524 33.0279C22.5228 33.0269 22.5222 33.0263 22.5222 33.0263ZM22.6751 33.3249C22.6704 33.3176 22.6656 33.3103 22.6608 33.3031C22.6084 33.2231 22.559 33.1477 22.5231 33.0898C22.4986 33.0502 22.4728 33.0071 22.4577 32.9728C22.4536 32.9635 22.4479 32.9495 22.4434 32.933C22.4434 32.9328 22.4433 32.9326 22.4432 32.9324C22.4405 32.9225 22.4289 32.8801 22.4412 32.8291C22.4488 32.7975 22.468 32.7534 22.5124 32.7192C22.5567 32.6851 22.6042 32.6776 22.6364 32.6781C22.6887 32.6789 22.7269 32.7004 22.7361 32.7056L22.7366 32.7059C22.772 32.7257 22.7988 32.7539 22.8108 32.7667C22.8271 32.7842 22.844 32.8045 22.8605 32.8252C22.8936 32.8668 22.9331 32.9205 22.9754 32.9786C22.9901 32.9989 23.0053 33.0199 23.0209 33.0414C23.0496 33.081 23.0797 33.1225 23.1108 33.165C23.0815 33.1185 23.0536 33.0741 23.0275 33.0319C22.9936 32.9772 22.9631 32.9267 22.9412 32.8867C22.9305 32.8671 22.9194 32.8458 22.9108 32.8254C22.9066 32.8155 22.9011 32.8013 22.8967 32.7849L22.8967 32.7846C22.894 32.7743 22.8837 32.7351 22.8935 32.6876C22.9062 32.6266 22.9475 32.5754 23.0046 32.55C23.042 32.5334 23.0832 32.5292 23.1223 32.5371C23.1293 32.5091 23.1426 32.4823 23.1624 32.4589C23.1914 32.4247 23.2298 32.403 23.2707 32.3944C23.1754 32.2875 23.1046 32.2169 23.0713 32.1914C22.8844 32.048 22.44 31.7972 21.8914 31.6838C21.8034 31.6656 21.7278 31.6132 21.674 31.5698C21.6159 31.5229 21.5583 31.4656 21.5064 31.4114C21.4736 31.3771 21.4435 31.3448 21.4156 31.3149C21.3825 31.2794 21.3526 31.2473 21.3251 31.2194C21.2866 31.2404 21.242 31.2674 21.1922 31.3002C21.0944 31.3647 20.9871 31.4446 20.8824 31.5275C20.7719 31.615 20.6673 31.7037 20.5828 31.7781C20.6549 31.8296 20.7336 31.8871 20.8019 31.942C20.8774 32.0028 20.9539 32.0707 21.0159 32.1417C21.0743 32.2088 21.1379 32.299 21.1569 32.4047C21.1763 32.5121 21.2176 32.6104 21.27 32.7163C21.282 32.7406 21.2953 32.7666 21.3092 32.7937C21.3512 32.8755 21.3985 32.9678 21.4326 33.0582C21.4368 33.0694 21.4412 33.0812 21.4458 33.0935C21.4676 33.1517 21.4939 33.222 21.5227 33.2917C21.5203 33.2594 21.5163 33.2268 21.5114 33.1941C21.5067 33.1628 21.5013 33.1327 21.4959 33.1028C21.4952 33.0992 21.4946 33.0955 21.4939 33.0919C21.4892 33.0663 21.4843 33.0394 21.4805 33.0149C21.4762 32.9873 21.472 32.9549 21.4714 32.9229C21.4709 32.8944 21.4726 32.8443 21.4961 32.7935C21.5454 32.6869 21.6461 32.6135 21.7699 32.6089C21.8851 32.6046 21.9881 32.6602 22.0661 32.7358C22.0817 32.7509 22.1116 32.7796 22.1515 32.818C22.2736 32.9356 22.4896 33.1435 22.6751 33.3249Z" fill="#03224C"/>
<path d="M12.1658 25.8959L12.0514 25.1809C12.0395 25.1072 12.0967 25.0404 12.1716 25.0404H13.9516C14.0294 25.0404 14.0872 25.1122 14.0705 25.1879L13.9128 25.9028C13.9005 25.9585 13.851 25.9981 13.7939 25.9981H12.2861C12.2262 25.9981 12.1753 25.9548 12.1658 25.8959Z" fill="#03224C"/>
<path fill-rule="evenodd" clip-rule="evenodd" d="M12.3146 25.2832L12.3903 25.7554H13.6964L13.8006 25.2832H12.3146ZM11.8113 25.2192C11.7759 24.998 11.9473 24.7977 12.1719 24.7977H13.952C14.1853 24.7977 14.3588 25.0128 14.3087 25.24L14.1509 25.955C14.1141 26.122 13.9657 26.2409 13.7942 26.2409H12.2864C12.107 26.2409 11.9541 26.1109 11.9258 25.9342L11.8113 25.2192Z" fill="#03224C"/>
<path fill-rule="evenodd" clip-rule="evenodd" d="M12.2154 21.679C12.1738 21.4313 12.1902 21.1746 12.2978 20.9617L12.7327 21.1803C12.6857 21.2732 12.6652 21.4173 12.6956 21.5989C12.7256 21.7774 12.8024 21.9742 12.9252 22.1572C13.1697 22.5216 13.5814 22.8118 14.1341 22.8118C14.764 22.8118 15.0932 22.5604 15.2539 22.282C15.4247 21.986 15.425 21.6264 15.3322 21.3942L15.7845 21.2144C15.9301 21.5786 15.9241 22.0941 15.676 22.5241C15.4177 22.9717 14.9156 23.2973 14.1341 23.2973C13.3911 23.2973 12.8387 22.9015 12.5204 22.4271C12.3618 22.1906 12.2575 21.9297 12.2154 21.679Z" fill="#03224C"/>
<path d="M4.82946 36.734C4.6764 33.7941 5.66254 31.6185 6.09326 30.5531C7.36775 31.3669 9.03353 32.4258 11.2915 32.2917L11.7892 32.9589L4.82946 36.734Z" fill="#FE3945"/>
<path d="M16.5 18.5C16.5 19.8807 15.1046 22 14 22C12.8954 22 12 20.8807 12 19.5C12 18.1193 12.8954 17 14 17C15.1046 17 16.5 17.1193 16.5 18.5Z" fill="white"/>
<path fill-rule="evenodd" clip-rule="evenodd" d="M5.97753 30.1908L6.22486 30.3487C7.50191 31.1641 9.10667 32.1783 11.2774 32.0495L11.4087 32.0417L12.1523 33.0384L4.60663 37.1314L4.5866 36.7467C4.44049 33.9402 5.3131 31.8145 5.77783 30.6825C5.8099 30.6043 5.84002 30.531 5.86773 30.4624L5.97753 30.1908ZM6.20877 30.9146C5.76597 31.9949 5.01366 33.8706 5.0592 36.3333L11.4267 32.8793L11.1741 32.5407C9.04257 32.6258 7.42967 31.6882 6.20877 30.9146Z" fill="#03224C"/>
<path fill-rule="evenodd" clip-rule="evenodd" d="M12.0321 16.8333H16.9899L16.9838 17.1715C16.9725 17.795 16.8473 18.7017 16.6249 19.5624C16.4063 20.4085 16.0771 21.2791 15.6209 21.7758C15.1248 22.316 14.4374 22.5316 13.7859 22.3894C13.1328 22.2468 12.5596 21.7554 12.2588 20.9714C11.7629 19.6788 11.8983 18.2554 11.9862 17.3311C11.9927 17.2631 11.9989 17.1978 12.0046 17.1354L12.0321 16.8333ZM12.6401 17.4977C12.554 18.4261 12.4623 19.6422 12.8812 20.7341C13.1123 21.3364 13.5219 21.6516 13.9285 21.7404C14.3366 21.8295 14.7858 21.7013 15.1294 21.3272C15.4662 20.9604 15.764 20.2312 15.9796 19.3967C16.1524 18.7277 16.2614 18.0356 16.3012 17.4977H12.6401Z" fill="#03224C"/>
<path d="M15.0291 17.6363C13.5368 17.2147 13.1492 17.7621 12.6059 18.6082C12.1636 19.297 12.2442 19.9578 12.3452 20.2928C12.3729 20.362 12.3954 20.4209 12.4117 20.4678C12.3925 20.4288 12.3683 20.3693 12.3452 20.2928C12.1536 19.8131 11.7166 18.8446 11.4093 18.0651C10.9698 16.9503 11.8117 14.2248 14.9218 15.2114C15.5267 15.4822 15.8089 15.6585 16.1939 15.8395C16.7905 16.12 17.866 16.2985 18.4865 16.2985C18.3635 17.2895 16.7378 18.4025 15.0291 17.6363Z" fill="#03224C"/>
<path d="M14.7135 33.6432C14.8739 33.8242 15.2194 34.1945 15.3176 34.2274C15.4404 34.2685 16.4126 34.5147 16.8629 34.8004C17.3132 35.0861 16.6071 35.1256 16.2182 34.993C16.4024 35.0984 16.8179 35.3501 17.0062 35.5134C17.2416 35.7174 17.6407 36.2276 17.5691 36.3296C17.4974 36.4317 16.7401 35.9642 16.5457 35.852C16.7128 35.9914 17.5977 36.7153 17.4667 36.8704C17.3385 37.0222 16.3897 36.3295 16.2277 36.1978C16.3529 36.3028 17.1094 36.9885 16.8629 37.1153C16.6091 37.2459 15.8934 36.5326 15.7842 36.3966C15.7876 36.4918 16.1793 37.1357 15.9828 37.0541C15.7372 36.952 14.9389 36.35 14.7854 36.146C14.6626 35.9827 13.9906 34.7989 13.6699 34.2274C13.8915 34.1473 14.4104 33.9183 14.7135 33.6432Z" fill="#FAFAFA"/>
<path fill-rule="evenodd" clip-rule="evenodd" d="M14.723 33.4746C14.7682 33.4771 14.8106 33.4975 14.8406 33.5314C14.9194 33.6203 15.0436 33.7556 15.1594 33.872C15.2175 33.9303 15.2715 33.982 15.3157 34.0202C15.3378 34.0394 15.3555 34.0535 15.3687 34.0629C15.3734 34.0662 15.3767 34.0684 15.3787 34.0696C15.3975 34.0756 15.4317 34.0853 15.4804 34.0992C15.5124 34.1083 15.5506 34.1192 15.595 34.132C15.7113 34.1656 15.8604 34.2097 16.0203 34.2617C16.3349 34.3641 16.7091 34.5025 16.9541 34.658C17.0173 34.6981 17.0726 34.7413 17.112 34.7895C17.1503 34.8364 17.1925 34.9125 17.1727 35.0049C17.1532 35.0959 17.0856 35.1462 17.0393 35.1708C16.9943 35.1947 16.9434 35.2089 16.8955 35.2179C16.9809 35.2771 17.0588 35.335 17.1176 35.386C17.2476 35.4987 17.4147 35.6877 17.5403 35.8609C17.603 35.9474 17.6604 36.0367 17.6978 36.1155C17.7162 36.1543 17.7335 36.1983 17.7418 36.2426C17.749 36.2809 17.7567 36.3571 17.7081 36.4264C17.6725 36.477 17.6226 36.4985 17.5857 36.5069C17.5517 36.5146 17.5199 36.5135 17.4962 36.5109C17.5113 36.5296 17.5255 36.548 17.5387 36.566C17.5759 36.6169 17.6119 36.6745 17.6321 36.7332C17.6505 36.7868 17.6712 36.8907 17.5965 36.9791C17.5227 37.0665 17.4158 37.0644 17.3632 37.058C17.3019 37.0506 17.2369 37.0286 17.1769 37.0036C17.1434 36.9896 17.1082 36.9733 17.072 36.9552C17.0796 36.9875 17.0836 37.0223 17.0805 37.0581C17.073 37.1456 17.0246 37.2221 16.9409 37.2652C16.8659 37.3038 16.7865 37.3048 16.7209 37.294C16.6549 37.2831 16.5895 37.2583 16.529 37.229C16.4229 37.1776 16.3115 37.1021 16.2075 37.0219C16.2076 37.029 16.2074 37.0362 16.2069 37.0437C16.205 37.0702 16.1974 37.1166 16.1628 37.1592C16.1229 37.2085 16.0674 37.2283 16.0188 37.2298C15.9767 37.2312 15.9411 37.2194 15.918 37.2098C15.8401 37.1775 15.7323 37.1125 15.6204 37.0384C15.505 36.9621 15.3745 36.8687 15.2476 36.7727C15.1207 36.6767 14.9958 36.5768 14.8921 36.4871C14.7922 36.4006 14.7008 36.3142 14.6503 36.2472C14.613 36.1976 14.5428 36.0839 14.4593 35.944C14.3733 35.8 14.2673 35.618 14.1554 35.4238C13.9316 35.0353 13.6831 34.5959 13.5225 34.3098C13.4983 34.2666 13.4943 34.2149 13.5116 34.1685C13.5289 34.1221 13.5658 34.0856 13.6125 34.0687C13.8288 33.9905 14.322 33.7706 14.5998 33.5184C14.6333 33.4879 14.6777 33.4722 14.723 33.4746ZM16.1191 36.3271C16.1191 36.327 16.1191 36.327 16.119 36.327C16.119 36.327 16.119 36.327 16.119 36.327L16.1095 36.3191C16.0385 36.2595 16.0289 36.154 16.0879 36.0826C16.147 36.0113 16.2527 36.0006 16.3249 36.0587L16.3275 36.0609L16.3349 36.067C16.4103 36.1283 16.6823 36.3303 16.95 36.4974C17.0105 36.5351 17.0693 36.5701 17.1245 36.6009C17.0866 36.5611 17.0449 36.5193 17.0006 36.4766C16.7988 36.2819 16.5656 36.0881 16.4625 36.0023C16.4529 35.9944 16.4445 35.9874 16.4374 35.9814C16.37 35.9252 16.357 35.827 16.4073 35.7552C16.4577 35.6835 16.5548 35.6621 16.6308 35.7059C16.6561 35.7206 16.6893 35.7402 16.7281 35.7631C16.8466 35.8332 17.0182 35.9346 17.1833 36.0222C17.2142 36.0386 17.2443 36.0542 17.2732 36.0687C17.2708 36.0654 17.2684 36.062 17.2659 36.0586C17.151 35.9002 17.0009 35.7321 16.8955 35.6407C16.7215 35.4899 16.3203 35.2458 16.1342 35.1393C16.0586 35.096 16.0283 35.0025 16.0643 34.9233C16.1003 34.8441 16.1908 34.8052 16.2733 34.8333C16.3977 34.8757 16.5617 34.8976 16.695 34.8971C16.4884 34.783 16.1932 34.673 15.9153 34.5826C15.7605 34.5322 15.6154 34.4893 15.5008 34.4562C15.4659 34.4461 15.4329 34.4367 15.4029 34.4282C15.3384 34.4098 15.288 34.3954 15.264 34.3873C15.227 34.3749 15.1941 34.3533 15.1721 34.3376C15.1469 34.3197 15.1202 34.2981 15.0937 34.2751C15.0404 34.229 14.9797 34.1706 14.919 34.1097C14.8432 34.0334 14.7646 33.9502 14.6964 33.876C14.4491 34.0624 14.1362 34.2172 13.9123 34.3128C14.0665 34.5865 14.2661 34.9383 14.449 35.2557C14.5605 35.4493 14.6656 35.6296 14.7502 35.7714C14.8372 35.9171 14.8971 36.0127 14.9212 36.0447C14.9475 36.0797 15.0134 36.1451 15.114 36.2321C15.2108 36.3159 15.3297 36.4111 15.4522 36.5038C15.5467 36.5753 15.6425 36.6447 15.731 36.7055C15.7176 36.6777 15.7043 36.65 15.6914 36.6227C15.6741 36.5859 15.6575 36.5496 15.6449 36.5182C15.6386 36.5025 15.6324 36.4858 15.6274 36.4694C15.6233 36.4556 15.6164 36.4308 15.6154 36.4026C15.6128 36.3299 15.6572 36.2637 15.7257 36.2384C15.7941 36.213 15.8711 36.2343 15.9167 36.2912C15.9617 36.3473 16.1584 36.551 16.3754 36.7242C16.4837 36.8105 16.589 36.8828 16.677 36.9254C16.6819 36.9278 16.6867 36.9301 16.6913 36.9322C16.6586 36.8821 16.6128 36.8231 16.557 36.7588C16.3908 36.5674 16.1776 36.3761 16.1191 36.3271ZM17.4106 36.7234C17.4107 36.7234 17.4097 36.7235 17.4074 36.7233C17.4094 36.7232 17.4106 36.7233 17.4106 36.7234Z" fill="#03224C"/>
</g>
</svg>
