<svg xmlns="http://www.w3.org/2000/svg" width="32" height="32" fill="none" viewBox="0 0 32 32">
    <circle cx="16" cy="16" r="16" fill="#6183E5" fill-opacity=".08"/>
    <path fill="#6183E5" d="M16.293 16.74l-.113-.073c-.122-.05-.256-.063-.386-.037-.129.026-.248.09-.34.183-.065.06-.115.133-.147.214-.035.082-.054.17-.054.26.001.087.02.173.054.253.071.16.2.288.36.36.08.034.166.052.253.053.09-.001.177-.02.26-.053.08-.034.152-.084.213-.147.124-.125.194-.294.194-.47s-.07-.345-.194-.47l-.1-.073zM15.92 12c-.318-.004-.632.076-.91.23-.278.154-.511.378-.677.65-.048.076-.08.16-.095.25-.015.088-.011.179.01.266.022.088.06.17.115.242.053.072.121.132.2.177.077.045.163.074.252.085.09.01.18.003.267-.022.086-.025.166-.067.236-.124.07-.057.127-.128.169-.207.049-.069.114-.124.19-.161.075-.037.159-.055.243-.053.132 0 .26.053.353.147.094.094.147.22.147.353 0 .133-.053.26-.147.354-.093.094-.22.146-.353.146-.177 0-.347.07-.472.196-.125.125-.195.294-.195.471s.07.346.195.472c.125.125.295.195.472.195.486 0 .952-.193 1.296-.537.344-.344.537-.81.537-1.297 0-.486-.193-.952-.537-1.296-.344-.344-.81-.537-1.296-.537zm5.72 2.453c-.088-.976-.429-1.914-.988-2.72-.56-.806-1.318-1.453-2.203-1.877-.884-.425-1.863-.613-2.842-.545-.978.067-1.923.387-2.74.93-.7.468-1.289 1.085-1.723 1.808-.433.723-.7 1.533-.784 2.371-.082.833.023 1.674.307 2.462.283.787.739 1.502 1.333 2.091l3.533 3.54c.062.063.136.112.217.146.081.034.169.052.257.052s.175-.018.256-.052c.081-.034.155-.083.217-.146l3.52-3.54c.594-.59 1.05-1.304 1.333-2.091.284-.788.389-1.629.307-2.462v.033zm-2.573 3.58L16 21.1l-3.067-3.067c-.452-.452-.798-.998-1.013-1.6-.216-.601-.296-1.243-.233-1.88.062-.646.267-1.27.6-1.826.334-.557.787-1.033 1.326-1.394.708-.47 1.538-.72 2.387-.72.85 0 1.68.25 2.387.72.538.36.99.833 1.322 1.388.334.554.54 1.175.604 1.82.064.637-.014 1.282-.23 1.886-.215.604-.563 1.153-1.016 1.606z"/>
</svg>
