<svg width="55" height="55" viewBox="0 0 55 55" fill="none" xmlns="http://www.w3.org/2000/svg">
<mask id="mask0" mask-type="alpha" maskUnits="userSpaceOnUse" x="0" y="0" width="55" height="55">
<circle cx="27.5" cy="27.5" r="27.5" fill="#FFF3EE"/>
</mask>
<g mask="url(#mask0)">
<circle cx="27.5" cy="27.5" r="27.5" fill="#FFF3EE"/>
<path d="M35.5971 25.4064C36.8819 24.7723 37.169 23.0925 37.169 22.0901L40.1139 22.3269C40.1337 22.6318 39.9403 23.5361 40.1139 24.2476C40.5085 25.8652 43.8182 27.0753 44.7691 27.9901C45.72 28.9048 47.919 36.711 48.5133 37.9307C48.9888 38.9065 52.1584 41.5085 53.6838 42.6876L52.3763 44.2732C50.5142 43.3381 46.5877 41.2361 45.7795 40.3092C44.9712 39.3822 43.8182 36.1418 43.3428 34.6375C43.1843 36.2638 42.8673 39.9067 42.8673 41.4679V46.1028C38.6834 49.1277 33.4772 47.3632 31.3971 46.1028C31.6349 45.0254 32.1103 42.4681 32.1103 40.858C32.1103 39.248 31.8726 36.0402 31.7537 34.6375C31.516 35.9182 29.0199 40.2482 27.1775 40.3092C25.7036 40.3579 22.9975 39.8009 21.8287 39.5163L21.1729 37.3209C22.5011 37.3818 25.3715 37.3453 26.2273 36.711C27.2971 35.9182 29.0183 30.7954 30.5635 28.6609C32.1087 26.5264 33.9911 26.199 35.5971 25.4064Z" fill="white"/>
<path d="M34.2795 26.0878L36.325 25.0473L37.3477 26.6081L40.4159 25.0473L40.9273 25.5675L45.0182 28.1689L46.5523 31.8108C46.5523 31.8108 47.575 35.9729 48.5977 38.054C50.1318 40.1351 53.7114 42.7365 53.7114 42.7365L52.6886 44.2973C52.6886 44.2973 46.6739 41.3112 46.0409 40.6554C45.4079 39.9996 43.3396 34.7083 43.3396 34.7083L42.9727 39.6148V45.8581C42.9727 45.8581 40.9273 47.4189 39.3932 47.4189C37.8729 47.9183 35.3023 47.4189 35.3023 47.4189L31.2114 46.3784L32.2341 40.6554L31.8916 34.7083L30.0955 37.7686C30.0955 37.7686 28.9093 39.5232 27.6317 40.1351C26.3541 40.747 22.0067 39.768 22.0067 39.768C22.0067 39.768 21.3767 38.4215 21.4953 37.5338C24.0523 37.0135 25.4402 37.8497 27.1204 35.9729C28.5085 33.1673 29.8696 29.362 31.7227 27.6486C33.5758 25.9353 34.2795 26.0878 34.2795 26.0878Z" fill="#71BFD6"/>
<path fill-rule="evenodd" clip-rule="evenodd" d="M36.9939 21.8958L40.2786 22.1598L40.2887 22.3149C40.2948 22.4083 40.2846 22.5371 40.2723 22.6723C40.2692 22.7067 40.2658 22.7421 40.2624 22.7786C40.2517 22.8923 40.24 23.0158 40.231 23.1474C40.2071 23.4963 40.204 23.8768 40.2839 24.204C40.3702 24.5582 40.6218 24.9078 40.9919 25.2532C41.36 25.5967 41.829 25.9211 42.3237 26.2287C42.6437 26.4276 42.9682 26.6158 43.2806 26.7971C43.4529 26.8971 43.6216 26.9949 43.7839 27.0913C44.232 27.3574 44.6344 27.614 44.889 27.8589C45.032 27.9964 45.1819 28.2436 45.3344 28.5475C45.4901 28.8576 45.6586 29.2478 45.834 29.6899C46.1851 30.5743 46.569 31.6779 46.9407 32.7876C47.1581 33.4368 47.3723 34.0913 47.5735 34.7059C47.7158 35.1404 47.8515 35.555 47.9771 35.9336C48.2836 36.8568 48.5281 37.559 48.67 37.8503C48.7747 38.0652 49.0426 38.3923 49.4314 38.793C49.8148 39.1879 50.2995 39.6381 50.8191 40.0966C51.858 41.0133 53.0287 41.9561 53.7893 42.544L53.9374 42.6585L52.422 44.4962L52.2994 44.4347C51.3662 43.9661 49.9159 43.2052 48.5969 42.4449C47.9376 42.0648 47.3091 41.6837 46.7937 41.3387C46.2833 40.997 45.8682 40.6805 45.649 40.429C45.4313 40.1793 45.1994 39.7859 44.9689 39.3256C44.7367 38.8619 44.4999 38.3181 44.2745 37.7585C43.9611 36.9805 43.6682 36.1681 43.4384 35.4912C43.2723 37.3079 43.0426 40.1455 43.0426 41.4679V46.196L42.9683 46.2497C40.8327 47.7937 38.4395 48.1123 36.3254 47.8886C34.2134 47.6651 32.3678 46.8997 31.3081 46.2576L31.1981 46.1909L31.2263 46.0631C31.4639 44.9864 31.9352 42.4462 31.9352 40.858C31.9352 39.5286 31.7718 37.0966 31.6482 35.506C31.5642 35.7039 31.4648 35.9168 31.3531 36.1381C31.053 36.7328 30.6565 37.4037 30.2092 38.0363C29.7625 38.6681 29.2611 39.2672 28.75 39.7141C28.244 40.1568 27.7043 40.4716 27.1832 40.4888C26.428 40.5138 25.3687 40.3841 24.3605 40.2152C23.3491 40.0457 22.3763 39.8344 21.7883 39.6912L21.6907 39.6675L20.9326 37.1299L21.1807 37.1413C21.8394 37.1715 22.8816 37.1775 23.8634 37.0974C24.3544 37.0574 24.8264 36.9961 25.2261 36.9068C25.6309 36.8163 25.9413 36.7013 26.1248 36.5653C26.2352 36.4835 26.3658 36.3357 26.5147 36.1209C26.6617 35.9085 26.8191 35.6416 26.9855 35.3321C27.3183 34.7127 27.6798 33.9365 28.0587 33.1124C28.102 33.0184 28.1454 32.9237 28.1891 32.8286C28.9065 31.2663 29.6823 29.5768 30.4229 28.5537C31.6463 26.8638 33.0961 26.2689 34.4134 25.7283C34.7968 25.5709 35.1691 25.4182 35.5212 25.2444C36.1104 24.9536 36.4789 24.4197 36.7012 23.8222C36.9239 23.2239 36.9939 22.5765 36.9939 22.0901V21.8958ZM37.3408 22.2843C37.324 22.7728 37.2415 23.3782 37.0286 23.9505C36.7862 24.6019 36.3687 25.225 35.6731 25.5684C35.2883 25.7583 34.895 25.9201 34.4989 26.0831C33.1961 26.619 31.8628 27.1676 30.7042 28.7681C29.9854 29.761 29.2233 31.4203 28.4984 32.9985C28.4574 33.0879 28.4164 33.177 28.3756 33.2658C27.9974 34.0883 27.6314 34.8748 27.2923 35.5057C27.1227 35.8212 26.9581 36.1013 26.8002 36.3292C26.6441 36.5546 26.487 36.7403 26.3299 36.8567C26.0856 37.0378 25.7162 37.1652 25.3006 37.2581C24.8799 37.3521 24.3908 37.4151 23.8912 37.4558C23.0075 37.5279 22.0787 37.5314 21.4126 37.51L21.9668 39.365C22.5545 39.5054 23.4689 39.7015 24.417 39.8604C25.4226 40.0289 26.4532 40.1533 27.1719 40.1295C27.572 40.1162 28.0352 39.8669 28.5228 39.4405C29.0053 39.0184 29.4883 38.4436 29.9256 37.8251C30.3623 37.2075 30.7496 36.552 31.042 35.9727C31.3367 35.3887 31.5272 34.8971 31.5817 34.6039L31.9283 34.6219C32.047 36.0235 32.2855 39.239 32.2855 40.858C32.2855 42.4279 31.8417 44.8702 31.5961 46.0133C32.6327 46.6179 34.3761 47.3209 36.3613 47.5309C38.3915 47.7458 40.6626 47.4442 42.6922 46.009V41.4679C42.6922 39.8959 43.0103 36.2434 43.1685 34.6196L43.5095 34.582C43.7461 35.3308 44.1517 36.5124 44.5983 37.6212C44.8216 38.1756 45.0543 38.7096 45.2805 39.1613C45.5083 39.6163 45.7236 39.9755 45.9101 40.1893C46.095 40.4013 46.4738 40.6952 46.9851 41.0376C47.4914 41.3765 48.1125 41.7532 48.7685 42.1314C50.024 42.8551 51.4006 43.5802 52.3309 44.0501L53.4306 42.7164C52.6673 42.1218 51.5715 41.2347 50.5907 40.3692C50.0677 39.9078 49.5755 39.4509 49.1832 39.0467C48.7964 38.6481 48.4897 38.2841 48.3567 38.0111C48.2014 37.6925 47.9483 36.9616 47.6455 36.0495C47.5186 35.6672 47.3826 35.2518 47.2403 34.8171C47.0398 34.2046 46.8268 33.5539 46.6093 32.9045C46.2381 31.7958 45.8568 30.7001 45.5096 29.8255C45.3359 29.388 45.1719 29.0088 45.023 28.7121C44.8709 28.4092 44.7441 28.2124 44.6494 28.1212C44.4285 27.9087 44.0606 27.671 43.6084 27.4024C43.4524 27.3098 43.2867 27.2137 43.1157 27.1145C42.7999 26.9312 42.466 26.7375 42.1422 26.5361C41.6412 26.2247 41.1494 25.8861 40.7562 25.5192C40.365 25.1542 40.0549 24.7459 39.944 24.2913C39.8502 23.9069 39.857 23.4796 39.8815 23.1222C39.8909 22.9854 39.9031 22.8552 39.9139 22.7407C39.9173 22.7052 39.9205 22.6711 39.9234 22.6389C39.9285 22.5837 39.9325 22.5351 39.9354 22.4928L37.3408 22.2843Z" fill="#03224C"/>
<path fill-rule="evenodd" clip-rule="evenodd" d="M37.0007 21.9359L40.2855 22.2L40.2955 22.3551C40.3016 22.4484 40.2914 22.5773 40.2791 22.7125C40.276 22.7468 40.2727 22.7822 40.2692 22.8187C40.2585 22.9323 40.2468 23.0559 40.2378 23.1875C40.214 23.5364 40.2109 23.917 40.2907 24.2442C40.3771 24.5983 40.6286 24.9479 40.9987 25.2933C41.3668 25.6368 41.8359 25.9612 42.3306 26.2688C42.6506 26.4678 42.975 26.656 43.2875 26.8373C43.4598 26.9372 43.6285 27.0351 43.7907 27.1314C44.2388 27.3975 44.6413 27.6542 44.8958 27.8991C45.0388 28.0366 45.1887 28.2838 45.3413 28.5876C45.4969 28.8978 45.6654 29.288 45.8409 29.73C46.192 30.6144 46.5759 31.718 46.9475 32.8278C47.1649 33.4769 47.3791 34.1314 47.5803 34.746C47.7226 35.1806 47.8583 35.5951 47.984 35.9738C48.2904 36.8969 48.5349 37.5992 48.6769 37.8905C48.7816 38.1054 49.0494 38.4325 49.4383 38.8331C49.8216 39.2281 50.3063 39.6783 50.8259 40.1368C51.8648 41.0535 53.0355 41.9963 53.7961 42.5842L53.9442 42.6986L52.4288 44.5364L52.3062 44.4748C51.373 44.0062 49.9228 43.2454 48.6038 42.485C47.9444 42.1049 47.3159 41.7239 46.8005 41.3788C46.2901 41.0371 45.875 40.7206 45.6558 40.4692C45.4381 40.2195 45.2062 39.8261 44.9757 39.3658C44.7435 38.9021 44.5067 38.3582 44.2813 37.7986C43.968 37.0207 43.675 36.2082 43.4453 35.5313C43.2792 37.348 43.0494 40.1856 43.0494 41.508V46.2362L42.9751 46.2899C40.8395 47.8339 38.4463 48.1524 36.3322 47.9287C34.2202 47.7053 32.3746 46.9398 31.3149 46.2977L31.2049 46.2311L31.2331 46.1033C31.4707 45.0266 31.942 42.4864 31.942 40.8982C31.942 39.5688 31.7786 37.1368 31.6551 35.5462C31.571 35.7441 31.4716 35.9569 31.3599 36.1782C31.0598 36.7729 30.6633 37.4438 30.216 38.0765C29.7693 38.7082 29.2679 39.3073 28.7569 39.7543C28.2508 40.1969 27.7111 40.5117 27.19 40.529C26.4349 40.554 25.3755 40.4243 24.3674 40.2553C23.3559 40.0859 22.3831 39.8746 21.7951 39.7314L21.6975 39.7076L20.9395 37.17L21.1876 37.1814C21.8463 37.2117 22.8885 37.2177 23.8702 37.1376C24.3612 37.0976 24.8332 37.0363 25.2329 36.947C25.6377 36.8565 25.9481 36.7415 26.1316 36.6054C26.242 36.5236 26.3727 36.3759 26.5215 36.161C26.6686 35.9487 26.826 35.6818 26.9923 35.3722C27.3252 34.7529 27.6866 33.9767 28.0656 33.1525C28.1088 33.0585 28.1523 32.9639 28.1959 32.8688C28.9133 31.3065 29.6892 29.6169 30.4298 28.5939C31.6531 26.9039 33.1029 26.309 34.4202 25.7684C34.8037 25.6111 35.1759 25.4583 35.528 25.2845C36.1172 24.9937 36.4857 24.4599 36.7081 23.8624C36.9307 23.2641 37.0007 22.6167 37.0007 22.1303V21.9359ZM37.3477 22.3244C37.3309 22.813 37.2483 23.4184 37.0354 23.9906C36.793 24.6421 36.3755 25.2652 35.6799 25.6085C35.2952 25.7984 34.9018 25.9602 34.5057 26.1232C33.2029 26.6592 31.8697 27.2077 30.711 28.8082C29.9922 29.8011 29.2301 31.4605 28.5052 33.0387C28.4642 33.1281 28.4232 33.2172 28.3824 33.306C28.0042 34.1284 27.6382 34.915 27.2991 35.5458C27.1295 35.8614 26.9649 36.1414 26.8071 36.3693C26.651 36.5947 26.4938 36.7805 26.3368 36.8969C26.0924 37.078 25.723 37.2054 25.3074 37.2983C24.8867 37.3923 24.3976 37.4552 23.898 37.496C23.0143 37.5681 22.0855 37.5716 21.4195 37.5502L21.9736 39.4051C22.5613 39.5456 23.4757 39.7416 24.4238 39.9005C25.4294 40.069 26.46 40.1934 27.1787 40.1696C27.5789 40.1564 28.0421 39.9071 28.5296 39.4807C29.0122 39.0586 29.4951 38.4837 29.9324 37.8653C30.3692 37.2477 30.7565 36.5922 31.0488 36.0129C31.3436 35.4288 31.5341 34.9373 31.5885 34.644L31.9351 34.6621C32.0539 36.0636 32.2924 39.2791 32.2924 40.8982C32.2924 42.4681 31.8485 44.9103 31.603 46.0535C32.6395 46.658 34.3829 47.3611 36.3681 47.5711C38.3983 47.7859 40.6694 47.4843 42.699 46.0491V41.508C42.699 39.936 43.0171 36.2836 43.1754 34.6598L43.5163 34.6222C43.7529 35.3709 44.1585 36.5526 44.6051 37.6613C44.8284 38.2158 45.0611 38.7498 45.2873 39.2014C45.5152 39.6564 45.7305 40.0156 45.9169 40.2294C46.1018 40.4415 46.4806 40.7354 46.992 41.0777C47.4983 41.4167 48.1193 41.7934 48.7754 42.1716C50.0308 42.8953 51.4075 43.6204 52.3377 44.0902L53.4374 42.7566C52.6741 42.162 51.5783 41.2748 50.5975 40.4094C50.0746 39.948 49.5824 39.491 49.19 39.0868C48.8032 38.6883 48.4965 38.3243 48.3635 38.0513C48.2083 37.7327 47.9551 37.0018 47.6523 36.0897C47.5254 35.7074 47.3894 35.2919 47.2472 34.8573C47.0466 34.2447 46.8336 33.5941 46.6162 32.9446C46.2449 31.836 45.8636 30.7403 45.5164 29.8657C45.3427 29.4282 45.1787 29.0489 45.0298 28.7523C44.8778 28.4494 44.751 28.2525 44.6562 28.1614C44.4353 27.9489 44.0675 27.7112 43.6152 27.4426C43.4593 27.35 43.2936 27.2538 43.1226 27.1546C42.8067 26.9714 42.4728 26.7776 42.149 26.5763C41.648 26.2648 41.1562 25.9263 40.763 25.5593C40.3719 25.1943 40.0617 24.7861 39.9508 24.3315C39.8571 23.9471 39.8639 23.5198 39.8883 23.1624C39.8977 23.0255 39.91 22.8953 39.9208 22.7809C39.9241 22.7453 39.9273 22.7113 39.9303 22.679C39.9353 22.6238 39.9394 22.5752 39.9422 22.533L37.3477 22.3244Z" fill="#03224C"/>
<path d="M40.9813 22.2026C43.0713 20.5662 42.6167 15.9232 42.5078 14.2707H35.0943C34.9601 14.9042 34.7777 16.8817 35.0997 19.3934C35.5023 22.5331 38.6317 24.0423 40.9813 22.2026Z" fill="white"/>
<path fill-rule="evenodd" clip-rule="evenodd" d="M34.9535 14.0909H42.6719L42.6829 14.2585C42.6888 14.3483 42.6958 14.4472 42.7033 14.5543C42.7649 15.4269 42.8647 16.8431 42.744 18.2584C42.6096 19.8356 42.1971 21.4771 41.088 22.3455C39.8608 23.3064 38.4215 23.396 37.2367 22.8282C36.0534 22.2611 35.1351 21.0446 34.9264 19.4169C34.6022 16.8887 34.7843 14.8899 34.9235 14.2325L34.9535 14.0909ZM35.2392 14.4504C35.1144 15.185 34.9754 17.0432 35.2738 19.37C35.4677 20.882 36.3154 21.9899 37.3849 22.5024C38.4528 23.0142 39.753 22.9386 40.8755 22.0597C41.8563 21.2917 42.2615 19.7936 42.395 18.227C42.513 16.8426 42.4155 15.4558 42.3539 14.5813C42.3508 14.5363 42.3477 14.4927 42.3448 14.4504H35.2392Z" fill="#03224C"/>
<path d="M56.7629 45.3944C56.7629 45.0183 56.0824 43.6486 55.4808 43.4873C55.0247 43.3649 54.1858 43.0405 53.7645 42.87L52.7061 44.0783C52.8107 45.2171 54.1281 45.5734 54.7737 45.6092C54.7563 46.0389 54.7632 46.8984 54.9308 46.8984C55.1401 46.8984 56.7629 45.7704 56.7629 45.3944Z" fill="white"/>
<path fill-rule="evenodd" clip-rule="evenodd" d="M53.7094 42.8183L53.6351 42.7498L52.5254 44.0168L52.5326 44.0952C52.5923 44.7445 53.0003 45.1622 53.4544 45.4153C53.8358 45.628 54.2646 45.7343 54.5946 45.7736C54.5908 45.9739 54.593 46.2165 54.6092 46.429C54.6197 46.5665 54.6367 46.7015 54.6654 46.8061C54.6794 46.8571 54.6996 46.914 54.7315 46.9619C54.7627 47.0089 54.8275 47.0781 54.9317 47.0781C54.9754 47.0781 55.017 47.0652 55.0444 47.0554C55.0761 47.0441 55.1106 47.0288 55.1461 47.0114C55.2173 46.9764 55.303 46.9278 55.3963 46.8705C55.5835 46.7554 55.8107 46.5993 56.0307 46.4317C56.2501 46.2646 56.4668 46.0826 56.6305 45.9154C56.7121 45.8322 56.7847 45.7484 56.838 45.6688C56.8869 45.5958 56.939 45.4987 56.939 45.3944C56.939 45.2623 56.8841 45.0778 56.8103 44.8924C56.7333 44.6991 56.625 44.4788 56.4976 44.2662C56.3705 44.054 56.2215 43.8444 56.0616 43.6753C55.9049 43.5095 55.7223 43.366 55.5261 43.3134C55.0817 43.1942 54.2524 42.8738 53.8297 42.7027L53.7644 42.6761L53.7094 42.8183ZM53.8146 43.0828L52.8907 44.1376C52.9586 44.5854 53.2501 44.8923 53.6216 45.0994C54.0165 45.3196 54.4804 45.4129 54.7841 45.4297L54.9569 45.4393L54.9497 45.6167C54.9411 45.8276 54.9387 46.1421 54.9585 46.4009C54.9675 46.5185 54.9805 46.6166 54.9969 46.686C55.0543 46.6578 55.129 46.6157 55.2163 46.562C55.3923 46.4538 55.61 46.3045 55.8219 46.143C56.0344 45.9811 56.2364 45.8107 56.3835 45.6605C56.4573 45.5852 56.5132 45.5191 56.5493 45.4651C56.5834 45.4142 56.588 45.3917 56.5886 45.3918C56.5887 45.3918 56.5886 45.3927 56.5886 45.3944C56.5886 45.3384 56.5585 45.2107 56.4859 45.0284C56.4165 44.8542 56.3171 44.6514 56.1991 44.4544C56.0809 44.257 55.947 44.0704 55.8101 43.9256C55.6701 43.7775 55.542 43.6892 55.4375 43.6612C55.0085 43.5462 54.2599 43.2605 53.8146 43.0828Z" fill="#03224C"/>
<path d="M32.7231 15.2779C32.1097 13.3277 33.6338 12.4248 34.9108 12.2942C36.6764 12.2942 38.803 12.1796 39.9283 12.0602C42.4083 11.7971 44.0961 14.2229 43.577 16.4772C43.2732 17.7969 42.9184 18.8504 42.8929 20.3968C42.8673 21.4189 41.787 23.262 40.0708 23.7022C37.9255 24.2526 36.023 24.3165 34.9108 23.1288C34.0286 22.1868 34.4778 20.7702 34.9108 20.0626L35.7662 20.6416C36.9603 19.2982 39.6043 21.2649 40.0708 20.6416C40.6347 19.8882 41.1133 17.4681 40.8835 16.7605C40.6536 16.0529 39.9641 15.4234 38.4317 15.8171C36.8994 16.2107 33.4898 17.7157 32.7231 15.2779Z" fill="#03224C"/>
<path fill-rule="evenodd" clip-rule="evenodd" d="M40.1813 25.3677C39.3883 25.9103 37.9398 26.5465 37.3204 26.7953L37.1949 26.8457L37.1152 26.7341C36.7569 26.2323 36.3397 25.5788 36.1758 25.3147L36.4713 25.1216C36.6214 25.3634 36.986 25.9349 37.3184 26.4093C37.9872 26.1338 39.2761 25.5549 39.9869 25.0686L40.1813 25.3677Z" fill="#03224C"/>
<path d="M16.0605 37.9213C16.1354 37.5268 16.748 36.9195 17.0449 36.6652L17.1701 37.3054C17.5864 37.5107 18.5294 38.0593 18.9713 38.6115C19.5236 39.3018 20.076 40.8048 19.7878 40.7802C19.4996 40.7555 16.4952 39.8191 16.4232 39.6466C16.3511 39.4741 15.9669 38.4144 16.0605 37.9213Z" fill="white"/>
<path d="M20.1201 37.2131L21.1901 37.3525L21.7714 39.5154L20.5878 39.2985L20.1201 37.2131Z" fill="white"/>
<path fill-rule="evenodd" clip-rule="evenodd" d="M19.8926 37.0023L21.3274 37.1893L22.0136 39.7425L20.4425 39.4546L19.8926 37.0023ZM20.3466 37.4239L20.732 39.1425L21.5281 39.2884L21.0517 37.5158L20.3466 37.4239Z" fill="#03224C"/>
<path d="M29.5667 61.2933C29.2939 58.2971 30.9151 49.9907 31.7507 46.3237C35.9794 48.8271 40.8587 47.7423 42.9838 46.0778C44.0401 52.7259 42.5437 68.5106 41.6634 75.5719C40.255 76.549 38.8466 75.9791 38.3184 75.5719C38.0367 68.4556 37.4968 57.1593 37.2621 52.4008C36.4992 55.1407 34.9734 60.9639 34.9734 62.3369V75.5719C33.2833 76.3322 32.1084 75.8887 31.7323 75.5719C31.1241 72.0608 29.8395 64.2895 29.5667 61.2933Z" fill="white"/>
<path fill-rule="evenodd" clip-rule="evenodd" d="M43.0479 45.9107C43.1051 45.9341 43.1461 45.9865 43.156 46.0488C43.6878 49.3957 43.576 55.0231 43.224 60.6814C42.8716 66.3457 42.277 72.061 41.8365 75.5948C41.8301 75.646 41.8026 75.6919 41.7608 75.7209C40.2702 76.755 38.7782 76.1517 38.2125 75.7157C38.1705 75.6833 38.1448 75.6332 38.1427 75.5792C37.8808 68.9634 37.3957 58.7338 37.1402 53.5051C36.791 54.7933 36.3677 56.4099 36.001 57.9248C35.7629 58.9086 35.549 59.8481 35.3947 60.6263C35.2393 61.4105 35.1479 62.0146 35.1479 62.3369V75.572C35.1479 75.6433 35.1068 75.7079 35.0431 75.7366C33.3028 76.5194 32.0557 76.0774 31.6204 75.7109C31.5882 75.6837 31.5664 75.6456 31.5591 75.6034C30.9514 72.095 29.6652 64.3153 29.3916 61.3101C29.2527 59.7845 29.5947 56.9353 30.0696 54.0303C30.5459 51.1165 31.1609 48.1194 31.5794 46.2828C31.592 46.2274 31.6295 46.1814 31.6803 46.1587C31.7312 46.1361 31.7895 46.1396 31.8375 46.168C33.9165 47.3988 36.157 47.7485 38.1414 47.5846C40.1291 47.4204 41.8462 46.7422 42.8768 45.9349C42.9258 45.8966 42.9907 45.8874 43.0479 45.9107ZM31.8678 46.5979C31.4529 48.4425 30.8704 51.3049 30.4151 54.0898C29.9387 57.0038 29.6065 59.8059 29.7404 61.2766C30.0106 64.2443 31.2787 71.9258 31.8921 75.4713C32.2553 75.7329 33.2907 76.094 34.7976 75.4532V62.3369C34.7976 61.9728 34.8969 61.3341 35.0514 60.5547C35.2071 59.7693 35.4223 58.8243 35.661 57.8381C36.1384 55.8657 36.7111 53.7228 37.093 52.3514C37.1165 52.2669 37.1962 52.2122 37.2813 52.2222C37.3665 52.2322 37.432 52.3039 37.4364 52.3917C37.6702 57.1308 38.2066 68.3546 38.4893 75.4767C39.016 75.8426 40.2509 76.2887 41.4992 75.4673C41.9378 71.9337 42.5252 66.2704 42.8743 60.6585C43.2165 55.1588 43.3284 49.7276 42.8537 46.3953C41.748 47.1713 40.0694 47.786 38.1695 47.9429C36.1907 48.1064 33.9589 47.7744 31.8678 46.5979Z" fill="#03224C"/>
<path fill-rule="evenodd" clip-rule="evenodd" d="M18.2305 39.9227C18.6439 39.9308 19.0159 39.8314 19.1995 39.5466C19.5106 39.0645 19.9957 38.8267 20.2787 38.7428L19.8612 37.6589C19.8475 37.6552 19.8344 37.6505 19.8219 37.6457C19.7829 37.63 19.7316 37.6041 19.6679 37.5714C19.6559 37.5653 19.6433 37.5585 19.63 37.5517C19.501 37.4851 19.3131 37.3882 19.0386 37.2634C17.3348 36.4899 16.279 37.1129 15.9912 37.4418C15.8352 37.6203 15.657 37.8707 15.5973 38.073C15.5676 38.1745 15.5738 38.2426 15.601 38.2847C15.6268 38.325 15.6909 38.3697 15.8482 38.378C16.0939 38.3911 16.3927 38.2838 16.6522 38.1304C16.7806 38.0546 16.8957 37.9692 16.9864 37.8861C17.0786 37.8017 17.1396 37.7245 17.1663 37.6662L17.1858 37.6236L17.2313 37.6153C17.5111 37.5633 17.742 37.5941 17.932 37.6858C18.1213 37.7773 18.2624 37.9254 18.3694 38.095C18.5716 38.4161 18.6606 38.8301 18.7244 39.1266C18.7272 39.1399 18.7299 39.1527 18.7325 39.1654L18.7524 39.2564L18.6622 39.2739C18.3381 39.3374 17.8879 39.3543 17.4094 39.3391C17.2684 39.3345 17.1595 39.352 17.0827 39.38C17.0043 39.4086 16.9696 39.4444 16.9579 39.4695C16.9488 39.4885 16.9465 39.5154 16.975 39.5557C17.0055 39.599 17.0693 39.6514 17.1794 39.7005C17.4058 39.8011 17.8219 39.9145 18.2305 39.9227ZM18.2268 40.1043C17.7935 40.0957 17.3545 39.9766 17.1078 39.867C16.9815 39.8109 16.8863 39.7415 16.8298 39.6618C16.7714 39.579 16.754 39.4818 16.7968 39.3908C16.8368 39.3059 16.9207 39.2461 17.0223 39.2089C17.1257 39.1713 17.2584 39.1526 17.415 39.1575C17.8441 39.171 18.2407 39.1581 18.538 39.1116C18.4745 38.8192 18.3908 38.4659 18.2188 38.1931C18.1248 38.0437 18.0069 37.9231 17.8554 37.8501C17.713 37.7814 17.5343 37.7511 17.3052 37.7869C17.2604 37.8643 17.1895 37.9444 17.1062 38.021C17.0052 38.1135 16.8796 38.206 16.742 38.2874C16.4689 38.4489 16.1345 38.5753 15.8389 38.5594C15.6576 38.5499 15.5232 38.4954 15.4518 38.3846C15.3814 38.2757 15.3909 38.1418 15.4264 38.0209C15.4975 37.7786 15.6984 37.5034 15.8578 37.3209C16.2016 36.9279 17.3426 36.2946 19.1117 37.0976C19.3901 37.2241 19.5812 37.3227 19.7107 37.3897C19.724 37.3966 19.7368 37.403 19.7489 37.4093C19.8146 37.4432 19.8574 37.4646 19.8872 37.4764C19.8918 37.4785 19.8959 37.4798 19.8992 37.4808L19.9696 37.4422L20.5215 38.875L20.4157 38.8955C20.1976 38.9384 19.6688 39.1506 19.349 39.6463C19.1121 40.0135 18.6552 40.1128 18.2268 40.1043Z" fill="#03224C"/>
<path d="M19.3555 27.2086C18.2161 26.6184 17.9532 25.1201 17.9532 24.2121L15.324 24.4391C15.324 24.7115 15.4993 25.5288 15.324 26.1644C14.9734 27.6173 12.0375 28.7069 11.2049 29.5242C10.3723 30.3414 8.4004 37.3334 7.87456 38.423C7.43636 39.2857 4.63186 41.6466 3.27344 42.6908L4.45658 44.0983C6.12175 43.2811 9.58355 41.3742 10.3285 40.5569C11.0296 39.7397 12.0813 36.8339 12.4757 35.4719C12.6071 36.9247 14.097 39.6489 14.097 41.0564C14.097 42.4638 10.7667 48.2753 11.2049 61.3966C14.9296 64.1207 23.9128 62.5316 25.7532 61.3966C25.2712 47.6851 21.5903 42.5092 21.5903 41.0564C21.5903 39.6035 22.642 36.7431 22.7734 35.4719C23.1678 36.6523 24.4824 38.7408 25.4903 40.0575C26.0161 40.7385 26.9802 41.9644 28.2072 43.2357L29.6094 41.7828C28.2948 39.7851 27.7251 38.5592 27.1116 37.3334C26.5858 36.2437 25.1836 32.0213 23.7813 30.1144C22.4667 28.2075 20.8015 27.8897 19.3555 27.2086Z" fill="#FAFAFA"/>
<path d="M17.603 63.0765C15.1052 63.0765 12.6513 62.6678 11.1176 61.5328C11.0738 61.4874 11.03 61.442 11.03 61.3512C10.6794 51.3173 12.5637 45.5058 13.4839 42.7362C13.7468 41.919 13.9221 41.3288 13.9221 41.0109C13.9221 40.3299 13.4839 39.1949 13.0895 38.1506C12.8266 37.515 12.6075 36.8793 12.4322 36.2891C11.994 37.515 11.1614 39.8759 10.4603 40.6931C9.5839 41.7828 4.76368 44.2345 4.54458 44.3253C4.45693 44.3707 4.32547 44.3253 4.28165 44.2799L3.09851 42.8724C3.05469 42.827 3.05469 42.7816 3.05469 42.6908C3.05469 42.6454 3.09851 42.5546 3.14233 42.5546C4.76368 41.2834 7.30525 39.1494 7.65581 38.3776C7.83109 38.0144 8.18165 36.8793 8.61986 35.5627C9.62772 32.3845 10.4603 29.9328 11.03 29.388C11.3367 29.0701 11.8626 28.7977 12.476 28.4345C13.5715 27.7989 14.8861 27.027 15.1052 26.1644C15.1929 25.7558 15.1491 25.2563 15.1052 24.8931C15.1052 24.7115 15.0614 24.5753 15.0614 24.4845C15.0614 24.3937 15.1491 24.3029 15.2805 24.2575L17.9097 24.0305C17.9536 24.0305 18.0412 24.0305 18.085 24.0759C18.1288 24.1213 18.1727 24.1667 18.1727 24.2575C18.1727 24.7569 18.2603 26.4368 19.4435 27.027C19.7502 27.2086 20.1008 27.3449 20.4513 27.4811C21.5906 27.9805 22.9053 28.4799 24.0008 30.0236C24.9648 31.3857 25.9288 33.8374 26.63 35.6081C26.9367 36.3345 27.1558 36.9701 27.3311 37.288L27.594 37.8328C28.1199 38.9224 28.6895 40.0575 29.8288 41.7374C29.8727 41.8282 29.8727 41.9644 29.785 42.0098L28.3828 43.4627C28.2951 43.5535 28.1637 43.5535 28.076 43.4627C26.9367 42.2822 26.0165 41.1472 25.4906 40.4661L25.3592 40.1937C24.5266 39.1495 23.4749 37.515 22.9053 36.2437C22.8176 36.6977 22.6423 37.2426 22.5109 37.8328C22.2041 38.9678 21.8536 40.2391 21.8536 41.0563C21.8536 41.3742 22.1165 42.0098 22.4232 42.8724C23.4749 45.5512 25.6659 51.0903 26.0165 61.3966C26.0165 61.4874 25.9727 61.5782 25.9288 61.5782C24.7457 62.3046 21.1086 63.0765 17.603 63.0765ZM11.4244 61.2604C15.0176 63.7575 23.4311 62.3954 25.5345 61.2604C25.1839 51.1357 22.9929 45.6874 21.985 43.054C21.5906 42.0552 21.3715 41.465 21.3715 41.0563C21.3715 40.1937 21.7221 38.9678 22.0288 37.742C22.2918 36.8339 22.5109 35.9713 22.5547 35.4719C22.5547 35.3811 22.6423 35.2903 22.73 35.2449C22.8176 35.2449 22.9491 35.2903 22.9491 35.3811C23.3435 36.4707 24.5704 38.5592 25.6221 39.9213L25.7974 40.1029C26.3232 40.7385 27.1558 41.8282 28.2075 42.9178L29.3468 41.7828C28.2513 40.1483 27.7255 39.0132 27.1996 38.0144L26.9367 37.4696C26.7614 37.1517 26.5423 36.5161 26.2356 35.7897C25.5345 34.019 24.5704 31.6127 23.6502 30.296C22.6423 28.8885 21.4592 28.3891 20.276 27.8897C19.9255 27.7535 19.5749 27.6173 19.2682 27.4357C18.0412 26.8 17.7783 25.2563 17.7345 24.4845L15.5435 24.6661C15.5435 24.7115 15.5435 24.7569 15.5435 24.8023C15.5873 25.2109 15.6311 25.7558 15.4996 26.2098C15.2367 27.254 13.8783 28.0713 12.6513 28.7977C12.0817 29.1155 11.5558 29.4334 11.2929 29.7058C10.767 30.2052 9.71536 33.5196 9.01424 35.6989C8.57604 37.0609 8.22547 38.1506 8.00637 38.5592C7.52435 39.5581 4.36929 42.1006 3.53671 42.7816L4.45693 43.8713C6.42884 42.8724 9.49626 41.1472 10.1097 40.4661C10.767 39.7397 11.7311 37.0609 12.2131 35.4719C12.2569 35.3811 12.3446 35.2903 12.4322 35.3357C12.5199 35.3357 12.6075 35.4265 12.6075 35.5173C12.6513 36.1529 13.0457 37.1517 13.3963 38.0598C13.8345 39.1494 14.2727 40.3299 14.2727 41.1017C14.2727 41.465 14.0974 42.0552 13.7906 42.9632C12.9581 45.642 11.1176 51.3627 11.4244 61.2604Z" fill="#03224C"/>
<path d="M15.5001 24.3937C12.9147 22.3506 13.1338 18.673 13.2215 17.1747H19.7945C19.926 17.765 20.0574 19.5357 19.7945 21.7604C19.4439 24.5753 17.6035 26.0282 15.5001 24.3937Z" fill="white"/>
<path d="M17.2094 25.3017C16.5959 25.3017 15.9824 25.0293 15.3251 24.5753C12.6521 22.4414 12.8712 18.6276 12.9588 17.1747V16.9477H19.9262L19.97 17.1293C20.0577 17.6288 20.2768 19.3994 19.97 21.8058C19.7509 23.4403 19.006 24.7115 17.9981 25.1201C17.8228 25.2563 17.5161 25.3017 17.2094 25.3017ZM15.6318 24.2121C16.4206 24.8477 17.2094 25.0293 17.9105 24.7115C18.7869 24.3483 19.4004 23.2132 19.6195 21.715C19.8824 19.6265 19.7509 18.0374 19.6633 17.3563H13.4408C13.3532 18.9 13.2655 22.3052 15.6318 24.2121Z" fill="#03224C"/>
<path d="M13.9228 21.1701C16.5082 20.6253 17.1217 18.4914 17.4284 17.5833C17.6475 18.9454 19.0498 19.581 19.7509 19.7172L19.6194 25.7557C20.1453 25.2109 21.4161 21.2155 21.3284 19.2178C21.2408 17.2201 20.6711 14.6776 17.4722 14.2689C14.2734 13.8603 11.688 15.4948 11.7756 19.0362C11.8194 21.8511 12.7835 24.8477 13.2217 25.9827L13.9228 21.1701Z" fill="#03224C"/>
<path d="M11.2937 14.95C11.9949 16.0851 12.8275 15.9943 13.178 15.8126L16.8589 14.4052C17.078 13.8603 17.2533 12.6799 16.2454 12.0897C15.2376 11.4994 14.0544 12.1351 13.5724 12.4983C12.0825 11.9535 10.4173 13.5425 11.2937 14.95Z" fill="#03224C"/>
<path d="M4.54527 72.7472C4.41381 72.7472 4.32617 72.6564 4.32617 72.5201V46.2322C4.32617 46.096 4.41381 46.0052 4.54527 46.0052C4.67673 46.0052 4.76437 46.096 4.76437 46.2322V72.5201C4.76437 72.6564 4.67673 72.7472 4.54527 72.7472Z" fill="#03224C"/>
<path d="M0.513047 71.0218C0.381586 71.0218 0.293945 70.931 0.293945 70.7948V44.5523C0.293945 44.4161 0.381586 44.3253 0.513047 44.3253C0.644507 44.3253 0.732148 44.4161 0.732148 44.5523V70.8402C0.732148 70.931 0.600687 71.0218 0.513047 71.0218Z" fill="#03224C"/>
<path d="M6.64831 46.8678C6.77978 46.9132 6.8236 47.0494 6.77978 47.1856C6.73596 47.3218 6.60449 47.3673 6.47303 47.3218L6.64831 46.8678ZM-1.41461 43.7805C-1.54607 43.7351 -1.58989 43.5989 -1.54607 43.4627C-1.50225 43.3264 -1.37079 43.281 -1.23933 43.3264L-1.41461 43.7805ZM6.47303 47.3218L-1.41461 43.7805L-1.23933 43.3718L6.64831 46.8678L6.47303 47.3218Z" fill="#03224C"/>
<path d="M-0.582031 45.5512C-0.582031 45.0971 0.119092 44.1437 0.864036 43.9167C1.4337 43.7805 2.83595 43.2356 3.36179 43.0086L4.23819 44.1437C4.10673 45.5512 2.44156 46.1414 1.6528 46.1868C1.6528 46.7316 1.6528 47.7759 1.47752 47.7759C1.2146 47.8213 -0.582031 46.0052 -0.582031 45.5512Z" fill="white"/>
<path d="M1.43405 48.0483C1.03967 48.0483 -0.800781 46.1414 -0.800781 45.5512C-0.800781 44.9609 0.031803 43.9167 0.820567 43.7351C1.39023 43.5989 2.79248 43.054 3.2745 42.827L3.44978 42.7816L4.50147 44.1437V44.2345C4.37001 45.6874 2.79248 46.323 1.91607 46.4592C1.91607 47.004 1.91607 47.7759 1.69697 47.9575C1.60933 48.0029 1.52169 48.0483 1.43405 48.0483ZM-0.362579 45.5512C-0.318759 45.869 0.908208 47.1856 1.39023 47.5035C1.43405 47.2764 1.47787 46.777 1.43405 46.1868V45.9598H1.65315C2.3981 45.9144 3.84416 45.3695 4.01944 44.2345L3.2745 43.281C2.66102 43.5081 1.43405 44.0075 0.908207 44.1437C0.250904 44.3253 -0.362579 45.2333 -0.362579 45.5512Z" fill="#03224C"/>
<path d="M17.253 28.5707C15.8946 28.5707 15.1496 27.481 14.8867 26.8454L15.2811 26.7092C15.3249 26.8 15.9384 28.5707 17.8227 28.0713C18.6114 27.6626 18.6114 27.2994 18.6114 26.9362L18.8305 26.8908L19.0496 26.9362C19.0496 27.3448 19.0496 27.9805 17.998 28.5253C17.735 28.5253 17.4721 28.5707 17.253 28.5707Z" fill="#03224C"/>
<path d="M13.2212 28.6161C13.7908 28.2983 14.6672 27.5718 15.0616 27.254C15.5436 28.3437 16.8582 29.0247 17.9537 28.6161C19.0492 28.1621 19.1807 27.3448 19.1807 27.3448C19.5751 27.5264 19.6627 27.481 21.2841 28.3437C22.9054 29.2063 23.1683 29.6604 23.8695 30.6138C24.5268 31.5218 25.5785 34.2006 25.929 35.0632C26.0605 35.4264 26.9807 37.742 27.7695 39.1948C28.12 39.8305 28.9526 41.2833 29.3032 41.7374L28.2515 42.7816C26.9807 41.465 26.5425 40.9201 25.8852 40.0121C25.0964 38.9678 24.4829 38.1506 23.8256 37.0609C23.1683 35.9713 23.256 35.7443 23.0369 35.3356C22.8178 34.9724 22.511 35.154 22.4672 35.2902C22.4234 35.381 22.3358 35.9259 22.2481 36.4707C22.1605 37.0155 21.3279 39.8759 21.2402 40.7385C21.1526 41.5558 21.2841 41.7374 21.9414 43.281C22.5987 44.8247 23.6065 47.1402 24.5268 52.1799C25.2717 56.2207 25.4908 59.8983 25.447 61.2604C19.2683 63.4397 13.4403 62.6224 11.5122 61.3058C11.1616 51.2264 12.9144 46.3684 13.2212 45.415C13.5279 44.4615 14.229 42.2368 14.3605 41.7828C14.4919 41.3287 14.4481 41.1925 14.4481 40.7839C14.4481 40.3753 14.0099 39.2856 13.8785 38.8316C13.7032 38.3776 12.9582 36.3345 12.8706 35.8805C12.7829 35.381 12.7391 35.3356 12.6077 35.2902C12.52 35.2448 12.3009 35.2902 12.2133 35.4718C12.1256 35.6535 11.3807 37.7874 11.2054 38.2414C11.0301 38.6954 10.811 39.2856 10.1976 40.3299C9.62789 41.3287 8.18183 41.8282 7.56834 42.1914C7.08632 42.4638 5.33351 43.3719 4.54475 43.8259L3.7998 42.8724C4.72003 42.1006 6.56048 40.5115 6.77958 40.3299C7.08632 40.0575 7.96273 39.1494 8.13801 38.7862C8.35711 38.3776 8.53239 37.742 8.66385 37.3333C8.83913 36.8793 10.3728 32.2029 10.6358 31.4764C10.8987 30.75 11.2492 30.1144 11.4245 29.8874C11.5998 29.6604 12.52 29.0247 13.2212 28.6161Z" fill="#FE3945"/>
<path d="M17.7786 62.804C14.8426 62.804 12.5201 62.1684 11.4246 61.442L11.337 61.3966V61.2603C11.1179 54.904 11.6875 49.592 12.9583 45.4603L13.0022 45.2787C13.1336 44.8701 13.3089 44.2799 13.528 43.6443C13.7909 42.7816 14.0538 41.919 14.1415 41.6466C14.2291 41.2833 14.2291 41.1925 14.2291 40.9201V40.6931C14.2291 40.4207 13.9662 39.6489 13.7909 39.1948C13.7471 39.0586 13.7033 38.9224 13.6595 38.8316C13.6156 38.6954 13.4842 38.3776 13.3527 38.0144C13.046 37.1971 12.6954 36.1983 12.6078 35.8351C12.6078 35.7443 12.5201 35.4718 12.4763 35.381C12.4763 35.381 12.3887 35.381 12.3448 35.4718C12.301 35.608 11.9505 36.5615 11.7314 37.2425C11.5999 37.6512 11.4684 38.0598 11.3808 38.196C11.2055 38.6954 10.9426 39.2856 10.3729 40.2845C9.89092 41.1471 8.83923 41.6466 8.13811 42.0098C7.96283 42.1006 7.78755 42.1914 7.69991 42.2368C7.21788 42.5092 5.55271 43.3718 4.67631 43.8713L4.50103 43.9621L3.49316 42.6908L3.66844 42.5546C4.76395 41.6466 6.47294 40.1937 6.64822 40.0121C7.43698 39.2402 7.87519 38.7408 8.00665 38.5138C8.13811 38.2414 8.26957 37.8328 8.40103 37.4695C8.44485 37.3333 8.48867 37.1971 8.53249 37.0609C8.57631 36.8793 8.88305 36.1075 9.18979 35.1086C9.71564 33.5649 10.3291 31.658 10.5044 31.204C10.7673 30.4322 11.1179 29.7966 11.337 29.5241C11.5123 29.2971 11.9943 29.0247 12.7392 28.6161L13.1336 28.3891C13.7033 28.0713 14.5797 27.3902 14.9302 27.0724L15.1493 26.8908L15.2808 27.1632C15.719 28.2075 16.946 28.7523 17.91 28.3891C18.8302 28.0259 19.0055 27.3448 19.0055 27.2994L19.0493 27.027L19.3123 27.1632C19.3999 27.2086 19.4875 27.254 19.619 27.2994C19.8819 27.3902 20.2763 27.5718 21.4156 28.1621C22.9932 28.9793 23.3437 29.4787 23.9134 30.296L24.0448 30.4776C24.6583 31.2948 25.4471 33.2925 25.9291 34.473C26.0168 34.6546 26.0606 34.8362 26.1482 34.9724L26.2359 35.154C26.4988 35.7897 27.2875 37.7874 27.9887 39.0586C28.3831 39.7397 29.1718 41.1471 29.4786 41.5558L29.61 41.692L28.3392 43.0086L28.164 42.8724C27.0246 41.7374 26.5864 41.1471 26.0168 40.4207L25.6662 40.0575C24.8774 39.0586 24.3078 38.2414 23.6505 37.1517C23.2123 36.4253 23.1246 36.0621 23.037 35.7897C22.9932 35.6535 22.9493 35.5626 22.9055 35.4264C22.8617 35.381 22.8179 35.3356 22.8179 35.3356C22.7741 35.3356 22.7741 35.3356 22.7302 35.381C22.7302 35.4264 22.5988 35.9259 22.5111 36.4707C22.4673 36.6977 22.3359 37.2425 22.1606 37.969C21.8977 38.9678 21.5909 40.2391 21.5033 40.7385C21.4156 41.4195 21.5033 41.6012 21.9415 42.6454L22.2044 43.2356C22.8617 44.7793 23.8257 47.0948 24.7898 52.0891C25.5347 56.0391 25.7538 59.8075 25.71 61.2149V61.3512L25.5786 61.3966C22.7741 62.4408 20.0572 62.804 17.7786 62.804ZM11.7314 61.1241C13.7471 62.3954 19.4437 63.0764 25.228 61.0787C25.228 59.5805 25.0089 55.9937 24.3078 52.1799C23.3875 47.231 22.4235 44.9155 21.7662 43.4172L21.5033 42.827C21.0213 41.7374 20.9336 41.5103 21.0213 40.6931C21.0651 40.1483 21.3718 38.9678 21.6786 37.8782C21.8538 37.2425 21.9853 36.6523 22.0291 36.4253C22.1168 35.8805 22.2482 35.3356 22.2482 35.1994C22.292 35.0178 22.4673 34.927 22.6864 34.8816C22.9055 34.8816 23.0808 34.9724 23.2123 35.1994C23.2999 35.3356 23.3437 35.4718 23.3875 35.6535C23.4752 35.8805 23.5628 36.2437 23.9572 36.9247C24.5707 37.969 25.1842 38.7862 25.9291 39.7851L26.2359 40.1937C26.7617 40.8747 27.1999 41.4649 28.2078 42.4638L28.9089 41.7374C28.5145 41.1471 27.8134 39.9667 27.5066 39.331C26.7617 38.0598 26.0168 36.1075 25.71 35.381L25.6224 35.1994C25.5786 35.0632 25.4909 34.8816 25.4033 34.7C24.9651 33.6103 24.1325 31.5672 23.6066 30.7954L23.4752 30.6138C22.9055 29.842 22.5988 29.3879 21.1089 28.6161C19.9696 28.0259 19.5752 27.8443 19.3561 27.7535C19.3123 27.7535 19.3123 27.708 19.2684 27.708C19.137 28.0259 18.7864 28.5253 17.9977 28.8431C16.9022 29.2971 15.5437 28.7069 14.9302 27.6172C14.492 27.9805 13.7909 28.5253 13.2651 28.7977L12.8707 29.0247C12.301 29.3425 11.6875 29.6603 11.5561 29.842C11.3808 30.0236 11.0741 30.6138 10.8111 31.3856C10.6359 31.8397 10.0224 33.7466 9.49653 35.2902C9.18979 36.2437 8.88305 37.0609 8.83923 37.2425C8.79541 37.3787 8.75159 37.5149 8.70777 37.6512C8.57631 38.0144 8.44485 38.4684 8.31339 38.7408C8.13811 39.104 7.39316 39.8305 6.91114 40.3753C6.64822 40.6023 4.67631 42.3276 4.06283 42.827L4.58867 43.4626C5.46507 43.0086 6.99878 42.1914 7.43698 41.919C7.56844 41.8282 7.74373 41.7828 7.91901 41.692C8.62013 41.3741 9.54035 40.8747 9.97856 40.1483C10.5482 39.1948 10.7673 38.6046 10.9426 38.1052C10.9864 37.9236 11.1179 37.5603 11.2932 37.1517C11.6875 35.9713 11.9066 35.4264 11.9505 35.3356C12.0819 35.0632 12.3887 34.9724 12.6078 35.0632C12.8707 35.154 12.9145 35.3356 13.0022 35.8351C13.0898 36.1529 13.4404 37.1971 13.7033 37.969C13.8347 38.3322 13.9224 38.65 14.01 38.7862C14.0538 38.877 14.0977 39.0132 14.1415 39.1494C14.4044 39.8759 14.5797 40.4661 14.5797 40.8293V41.0109C14.5797 41.2833 14.5797 41.4649 14.492 41.8736C14.4044 42.146 14.1415 43.054 13.8786 43.9167C13.7033 44.5523 13.4842 45.1425 13.3527 45.5512L13.3089 45.7328C12.0819 49.6828 11.5561 54.904 11.7314 61.1241Z" fill="#FE3945"/>
<path d="M30.8814 43.4626C30.6185 43.3264 29.9174 42.3276 29.5668 41.8736L28.3398 43.1902C28.6904 43.5535 29.4353 44.3707 29.5668 44.9155C29.7421 45.5966 30.8814 48.3207 31.3196 48.0937C31.6702 47.9121 31.2758 47.0494 31.0567 46.5954C31.4511 47.231 32.3275 48.5931 32.8095 48.5931C33.2915 48.5931 32.3275 47.2764 31.8016 46.5954C32.5466 47.3672 33.905 48.6839 33.6859 48.0937C33.4668 47.4581 32.678 46.6862 32.3275 46.323C33.2039 46.8678 35.2634 47.4126 34.3432 46.6862C33.2039 45.7782 31.8893 45.0517 32.1522 45.0517C32.4151 45.0517 33.905 45.642 33.3792 45.0517C32.8533 44.4615 31.1882 43.6443 30.8814 43.4626Z" fill="white"/>
<path d="M32.8531 48.8201C32.8093 48.8201 32.8093 48.8201 32.8531 48.8201C32.5025 48.8201 32.0643 48.3661 31.7137 47.9121C31.7137 47.9575 31.7137 47.9575 31.7137 48.0029C31.6699 48.1391 31.5823 48.2299 31.4946 48.2753C31.407 48.3207 31.3194 48.3207 31.1879 48.2753C30.5744 47.9575 29.6104 45.5512 29.4789 44.9609C29.3913 44.5069 28.734 43.7351 28.3396 43.3264C28.2958 43.281 28.252 43.2356 28.252 43.1448C28.252 43.0994 28.252 43.0086 28.2958 42.9632L29.5227 41.6466C29.5666 41.6012 29.6104 41.5558 29.698 41.5558C29.7418 41.5558 29.8295 41.6012 29.8733 41.6466C30.3553 42.3276 30.925 43.054 31.1003 43.1902C31.1879 43.2356 31.3194 43.3264 31.4946 43.4173C32.152 43.7805 33.2036 44.3253 33.6418 44.8247C33.7295 44.9155 33.9048 45.0971 33.7733 45.3241C33.6857 45.5058 33.5104 45.5058 33.2036 45.4604C33.598 45.7328 34.1239 46.0506 34.5621 46.4592C34.6935 46.55 35.0003 46.8224 34.825 47.0494C34.6497 47.3219 33.9486 47.1402 33.2913 46.9132C33.5542 47.231 33.8171 47.5943 33.9048 47.9121C33.9924 48.1845 33.9048 48.2753 33.8171 48.3207C33.7295 48.3661 33.598 48.4569 33.0722 48.0029C33.1598 48.2299 33.1598 48.4115 33.116 48.5023C33.116 48.6839 33.0284 48.8201 32.8531 48.8201ZM31.0564 46.3684C31.1441 46.3684 31.1879 46.4138 31.2317 46.4592C31.7576 47.3218 32.3272 48.0937 32.6778 48.2753C32.5463 48.0029 32.152 47.4127 31.6261 46.7316C31.5385 46.6408 31.5385 46.5046 31.6261 46.4138C31.7137 46.323 31.8452 46.323 31.9328 46.4138C32.4149 46.9132 32.8531 47.3673 33.2036 47.6397C32.8969 47.1856 32.5025 46.777 32.1958 46.5046C32.1081 46.4138 32.1081 46.2776 32.152 46.1868C32.2396 46.096 32.3272 46.0506 32.4587 46.1414C32.9407 46.4138 33.6857 46.6862 34.1239 46.777C33.6418 46.4138 33.116 46.0506 32.7216 45.7782C32.0205 45.3241 31.889 45.2333 31.9767 45.0063C32.0205 44.9155 32.1081 44.8247 32.2396 44.8247C32.3272 44.8247 32.5025 44.8701 32.7654 44.9155C32.8531 44.9155 32.9407 44.9609 33.0722 45.0063C32.5902 44.6431 31.7576 44.1437 31.2317 43.9167C31.0126 43.8259 30.8812 43.7351 30.7935 43.6897C30.5306 43.5081 29.9171 42.6908 29.5666 42.2822L28.6902 43.2356C28.9969 43.5535 29.6542 44.3253 29.7857 44.9155C29.9609 45.642 30.8812 47.6397 31.2317 47.9121C31.2755 47.7759 31.1441 47.3219 30.8373 46.777C30.7935 46.6862 30.7935 46.55 30.925 46.4592C30.9688 46.3684 31.0126 46.3684 31.0564 46.3684Z" fill="#03224C"/>
</g>
</svg>
