<svg xmlns="http://www.w3.org/2000/svg" width="147" height="11" fill="none" viewBox="0 0 147 11">
    <path fill="#FE3945" d="M146.284 6.032c-3.058.71-5.824 1.33-8.915 1.774-5.921.888-11.908 1.597-17.895 1.952-1.854.089-3.742.089-5.629.089-4.815 0-9.728-.266-14.186-1.153-3.09-.621-3.676-.71-6.67-1.42-3.514-.798-7.84-2.04-11.485-2.395-2.31-.177-3.612-.355-5.759-.355h-1.074c-4.783.089-10.281.976-15.227 1.774-5.206.799-10.379 1.597-15.585 1.597-2.05 0-4.1-.089-6.15-.443-1.886-.444-3.318-.621-5.335-1.42-2.245-.887-4.913-2.661-7.19-4.17-1.107-.62-1.92-1.152-3.092-1.507C21.28.089 20.432 0 19.587 0c-1.464 0-2.96.355-4.425.976-1.562.71-3.514 1.685-4.946 2.484-1.268.71-1.757 1.064-2.96 1.685-.326.178-.814.444-1.27.621-.845.355-1.724.71-2.602.71-.358 0-.716 0-1.074-.178-.39-.354-.586-1.064-.78-1.951C1.268 3.282.943 2.75.65 2.75c-.357 0-.65.798-.65 2.218 0 .266 0 .532.033.798.227.887.455 1.774.813 2.484.098.266.228.444.358.621.163.177.325.355.488.444.455.266.91.354 1.366.354.488-.088.944-.088 1.432-.266.586-.266 1.627-.798 2.115-1.153 1.92-1.153 3.904-2.573 5.694-3.548 1.464-.799 1.985-1.065 3.449-1.686 1.073-.443 2.31-.62 3.514-.62.78 0 1.594.088 2.31.265 1.106.355 1.952.799 2.993 1.33.488.267 1.041.622 1.53.977.52.266 1.106.71 1.626.976 1.269.71 3.091 1.508 4.197 1.862 1.985.621 3.58.799 5.467 1.154 1.496.088 2.96.177 4.424.177 1.92 0 3.807-.089 5.76-.355 3.936-.443 8.036-1.242 12.005-1.863 4.718-.71 9.826-1.33 14.382-1.33h.943c2.7.088 3.807.355 6.28.62.878.178 1.92.356 2.863.533.91.177 1.854.443 2.765.62 4.1.888 8.297 1.775 12.397 2.485 4.62.887 9.338 1.153 13.991 1.153 2.18 0 4.359-.089 6.507-.177 6.084-.355 12.006-.799 17.993-1.42 3.123-.355 5.921-.887 9.012-1.508.228-.355.293-.798.293-1.153 0-.444-.195-.798-.456-.798-.065 0-.162 0-.26.088z"/>
</svg>
