<svg xmlns="http://www.w3.org/2000/svg" width="31" height="42" fill="none" viewBox="0 0 31 42">
    <path fill="#6183E5" stroke="#6183E5" stroke-width=".5" d="M29.508 6.59L25.814 3.16c-.478-.443-1.1-.688-1.748-.688H12.363c-.929 0-1.685.762-1.685 1.698v.888c0 .858.507 1.626 1.291 1.957l1.401.59c-.01.778-.163 3.129-1.589 4.58-.247.252-.326.63-.202.964.124.33.415.554.762.582.096.008.202.013.317.013 1.24 0 3.507-.583 4.402-4.581l1.104.465v.617c-.569.295-.96.896-.96 1.59v2.973c0 .395.325.717.723.717h.316c-.144 3.123-1.348 4.852-2.367 5.764-.428.383-.976.7-1.626.94-.744.276-3.157 1.392-2.975 4.196.03.471.035.948.035 1.352v11.265c0 1.08.878 1.957 1.957 1.957h12.086c1.08 0 1.957-.878 1.957-1.957V23.427c0-1.498-.409-2.96-1.18-4.226l-.08-.132c-.553-.941-.845-2.045-.845-3.192v-.35h.12c.398 0 .722-.322.722-.718v-2.973c0-.713-.412-1.327-1.006-1.612V8.737c0-.203.16-.368.355-.368h3.42c.421 0 .794-.255.948-.65.156-.396.055-.84-.256-1.13zm-16.279 5.83c1.009-1.404 1.3-3.121 1.378-4.173l1.25.51c-.549 2.61-1.684 3.449-2.628 3.663zm11.555-.585v2.428h-6.316v-2.428c0-.286.217-.52.484-.52h5.347c.267 0 .485.234.485.52zm.178 7.874l.089.149c.651 1.069.996 2.303.996 3.57v15.615c0 .383-.312.694-.694.694H13.267c-.383 0-.694-.312-.694-.694V27.778c0-.424-.005-.926-.037-1.433-.051-.778.161-2.193 2.152-2.93.8-.296 1.483-.694 2.03-1.183 1.21-1.083 2.638-3.11 2.79-6.706h4.433v.35c0 1.372.353 2.698 1.02 3.833zm.434-12.604c-.893 0-1.619.732-1.619 1.632v1.316h-4.35V8.79L12.46 5.852c-.315-.133-.518-.444-.518-.792V4.17c0-.24.188-.434.421-.434h11.703c.33 0 .645.124.888.35l3.252 3.018h-2.81zM7.788 5.674c.43 0 .78-.349.78-.78 0-.43-.35-.778-.78-.778-.43 0-.779.349-.779.779 0 .43.349.779.78.779zM4.895 7.232c.43 0 .78-.349.78-.78 0-.43-.35-.778-.78-.778-.43 0-.779.348-.779.779 0 .43.349.779.78.779zM1.78 8.79c.43 0 .778-.35.778-.78 0-.43-.349-.779-.779-.779-.43 0-.779.35-.779.78 0 .43.349.779.78.779zM4.895 4.116c.43 0 .78-.349.78-.78 0-.43-.35-.778-.78-.778-.43 0-.779.348-.779.779 0 .43.349.779.78.779zM1.78 5.674c.43 0 .778-.349.778-.78 0-.43-.349-.778-.779-.778-.43 0-.779.349-.779.779 0 .43.349.779.78.779zM1.78 2.558c.43 0 .778-.349.778-.779C2.558 1.35 2.21 1 1.78 1 1.35 1 1 1.349 1 1.78c0 .43.349.778.78.778z"/>
    <path fill="#6183E5" stroke="#6183E5" stroke-width=".5" d="M23.941 32.947c-.349 0-.632.283-.632.632v2.158c0 .349.283.632.632.632.35 0 .632-.283.632-.632V33.58c0-.349-.283-.632-.632-.632zM23.31 25.21v6c0 .35.283.633.632.633.349 0 .631-.283.631-.632v-6c0-.349-.282-.632-.631-.632-.35 0-.632.283-.632.632z"/>
</svg>
