<svg xmlns="http://www.w3.org/2000/svg" width="191" height="18" fill="none" viewBox="0 0 191 18">
    <path fill="#FE3945" d="M173.853 11.684c-1.524 1.369-3.144 2.632-4.668 4-.286.316-.381.632-.476.948 0 .631.476 1.263 1.143 1.368.286 0 .762-.105 1.048-.526l4.953-3.684c4.763-2.948 4.001-2.737 8.669-4.948.095 0 5.43-2.316 5.621-2.947.571-1.158.857-2 .857-2.632v-.21c0-1.158-.953-1.369-2.191-1.79-1.143-.105-2.382-.21-3.525-.316-.952-.105-1.905-.105-2.858-.105h-17.623L118.601.105c-6.192 0-10.384-.105-16.48-.105-5.24.105-10.384.105-15.528.105h-7.24c-2.19.106-4.287.21-6.382.21C62.49.633 52.013 1.264 41.534 2c-7.05.632-14.099 1.158-21.148 2.21-4.572.737-9.145 1.264-13.622 2-1.715.211-3.43.422-5.145.843C.572 7.789.095 8.737 0 9.684v.21c0 1.37.953 2.738 2.382 2.948.666 0 1.428-.21 2.19-.737 1.525-.631 3.049-.842 4.668-1.368 4.287-.948 8.67-1.79 13.147-2.526 6.763-1.053 13.717-2 20.576-2.948C53.251 4 63.635 3.473 73.923 2.737c2.096-.105 4.192-.21 6.287-.421 2.382-.105 4.668-.316 7.05-.421 10.574-.527 21.148-.632 31.722-.632h2.953c14.575 0 28.96.737 43.535 1.684 3.525.21 7.144.527 10.669.948l4.382.526c.953 0 1.81.21 2.763.316-1.715 1.263-3.049 2.105-4.954 3.579-1.429 1.158-3.048 2.316-4.477 3.368z"/>
</svg>
