<svg width="28" height="32" viewBox="0 0 28 32" fill="none" xmlns="http://www.w3.org/2000/svg">
  <path d="M23.6476 23.9062C23.3587 24.3229 23.0698 24.6875 22.781 25L13.8357 32L4.95238 25C4.66349 24.6875 4.3746 24.3229 4.08571 23.9062C2.80635 22.6146 1.80556 21.1146 1.08333 19.4062C0.361111 17.6979 0 15.8958 0 14C0 12.1042 0.36627 10.2917 1.09881 8.5625C1.83135 6.83333 2.81667 5.34375 4.05476 4.09375C5.29286 2.84375 6.76825 1.84896 8.48095 1.10938C10.1937 0.369792 11.9889 0 13.8667 0C15.7444 0 17.5397 0.369792 19.2524 1.10938C20.9651 1.84896 22.4405 2.84375 23.6786 4.09375C24.9167 5.34375 25.902 6.83333 26.6345 8.5625C27.3671 10.2917 27.7333 12.1042 27.7333 14C27.7333 15.8958 27.3722 17.6979 26.65 19.4062C25.9278 21.1146 24.927 22.6146 23.6476 23.9062ZM13.8667 4C12.0714 4 10.4155 4.44792 8.89881 5.34375C7.38214 6.23958 6.18016 7.45312 5.29286 8.98438C4.40556 10.5156 3.9619 12.1875 3.9619 14C3.9619 15.8125 4.40556 17.4844 5.29286 19.0156C6.18016 20.5469 7.38214 21.7552 8.89881 22.6406C10.4155 23.526 12.0714 23.9688 13.8667 23.9688C15.6619 23.9688 17.3179 23.526 18.8345 22.6406C20.3512 21.7552 21.5532 20.5469 22.4405 19.0156C23.3278 17.4844 23.7714 15.8125 23.7714 14C23.7714 12.1875 23.3278 10.5156 22.4405 8.98438C21.5532 7.45312 20.3512 6.23958 18.8345 5.34375C17.3179 4.44792 15.6619 4 13.8667 4Z" fill="#FF879D"/>
  <g clip-path="url(#clip0_0_1)">
    <path d="M11.0429 19.9576C10.3292 19.9251 9.94157 19.8063 9.68372 19.7058C9.34205 19.5727 9.09846 19.4144 8.84204 19.1583C8.58561 18.9023 8.4269 18.6587 8.29459 18.317C8.19401 18.0591 8.07525 17.6715 8.0428 16.9578C8.00713 16.1864 8 15.9549 8 14.0005C8 12.0461 8.00785 11.815 8.04244 11.0429C8.0749 10.3292 8.19437 9.94228 8.29423 9.68372C8.42726 9.34205 8.58597 9.09846 8.84168 8.84168C9.09775 8.58561 9.34134 8.42655 9.68336 8.29423C9.94121 8.19366 10.3289 8.0749 11.0425 8.04244C11.8143 8.00713 12.0461 8 13.9998 8C15.9542 8 16.1853 8.00785 16.9575 8.04244C17.6711 8.0749 18.0581 8.19437 18.3166 8.29423C18.6583 8.42655 18.9019 8.58561 19.1583 8.84168C19.4147 9.09775 19.5727 9.34169 19.7058 9.68336C19.8063 9.94121 19.9251 10.3289 19.9576 11.0425C19.9929 11.8147 20 12.0458 20 14.0002C20 15.9539 19.9929 16.1857 19.9576 16.9578C19.9251 17.6715 19.8056 18.0591 19.7058 18.317C19.5727 18.6587 19.4144 18.9023 19.1583 19.1583C18.9023 19.4144 18.6583 19.5727 18.3166 19.7058C18.0588 19.8063 17.6711 19.9251 16.9575 19.9576C16.186 19.9929 15.9542 20 13.9998 20C12.0461 20 11.8143 19.9932 11.0429 19.9576" fill="url(#paint0_radial_0_1)"/>
    <path d="M11.0429 19.9576C10.3292 19.9251 9.94157 19.8063 9.68372 19.7058C9.34205 19.5727 9.09846 19.4144 8.84204 19.1583C8.58561 18.9023 8.4269 18.6587 8.29459 18.317C8.19401 18.0591 8.07525 17.6715 8.0428 16.9578C8.00713 16.1864 8 15.9549 8 14.0005C8 12.0461 8.00785 11.815 8.04244 11.0429C8.0749 10.3292 8.19437 9.94228 8.29423 9.68372C8.42726 9.34205 8.58597 9.09846 8.84168 8.84168C9.09775 8.58561 9.34134 8.42655 9.68336 8.29423C9.94121 8.19366 10.3289 8.0749 11.0425 8.04244C11.8143 8.00713 12.0461 8 13.9998 8C15.9542 8 16.1853 8.00785 16.9575 8.04244C17.6711 8.0749 18.0581 8.19437 18.3166 8.29423C18.6583 8.42655 18.9019 8.58561 19.1583 8.84168C19.4147 9.09775 19.5727 9.34169 19.7058 9.68336C19.8063 9.94121 19.9251 10.3289 19.9576 11.0425C19.9929 11.8147 20 12.0458 20 14.0002C20 15.9539 19.9929 16.1857 19.9576 16.9578C19.9251 17.6715 19.8056 18.0591 19.7058 18.317C19.5727 18.6587 19.4144 18.9023 19.1583 19.1583C18.9023 19.4144 18.6583 19.5727 18.3166 19.7058C18.0588 19.8063 17.6711 19.9251 16.9575 19.9576C16.186 19.9929 15.9542 20 13.9998 20C12.0461 20 11.8143 19.9932 11.0429 19.9576" fill="url(#paint1_radial_0_1)"/>
    <path d="M12.527 14.0256C12.527 13.2049 13.1921 12.5394 14.0127 12.5394C14.8334 12.5394 15.4989 13.2049 15.4989 14.0256C15.4989 14.8463 14.8334 15.5117 14.0127 15.5117C13.1921 15.5117 12.527 14.8463 12.527 14.0256V14.0256ZM11.7236 14.0256C11.7236 15.2899 12.7484 16.3147 14.0127 16.3147C15.277 16.3147 16.3019 15.2899 16.3019 14.0256C16.3019 12.7613 15.277 11.7364 14.0127 11.7364C12.7484 11.7364 11.7236 12.7612 11.7236 14.0256H11.7236ZM15.8576 11.6457C15.8575 11.7515 15.8889 11.8549 15.9476 11.9429C16.0064 12.0309 16.0899 12.0995 16.1876 12.14C16.2854 12.1806 16.3929 12.1912 16.4967 12.1706C16.6005 12.15 16.6958 12.0991 16.7707 12.0243C16.8455 11.9495 16.8965 11.8542 16.9172 11.7505C16.9379 11.6467 16.9273 11.5391 16.8869 11.4414C16.8464 11.3436 16.7779 11.26 16.6899 11.2012C16.602 11.1424 16.4986 11.111 16.3928 11.1109H16.3926C16.2507 11.111 16.1147 11.1673 16.0144 11.2676C15.9141 11.3679 15.8577 11.5038 15.8576 11.6457V11.6457ZM12.2117 17.6544C11.777 17.6346 11.5408 17.5622 11.3838 17.501C11.1757 17.42 11.0272 17.3235 10.871 17.1675C10.7149 17.0116 10.6182 16.8633 10.5376 16.6551C10.4764 16.4982 10.404 16.2619 10.3842 15.8272C10.3626 15.3573 10.3583 15.2162 10.3583 14.0257C10.3583 12.8351 10.363 12.6944 10.3842 12.2241C10.404 11.7894 10.4769 11.5536 10.5376 11.3962C10.6186 11.1881 10.7151 11.0395 10.871 10.8834C11.027 10.7273 11.1753 10.6306 11.3838 10.5499C11.5407 10.4887 11.777 10.4163 12.2117 10.3966C12.6816 10.375 12.8228 10.3707 14.0127 10.3707C15.2027 10.3707 15.344 10.3753 15.8143 10.3967C16.249 10.4165 16.4848 10.4894 16.6422 10.55C16.8503 10.6307 16.9989 10.7276 17.155 10.8835C17.3111 11.0394 17.4074 11.1881 17.4885 11.3963C17.5497 11.5532 17.6221 11.7895 17.6418 12.2241C17.6634 12.6944 17.6677 12.8352 17.6677 14.0257C17.6677 15.2162 17.6634 15.357 17.6418 15.8273C17.622 16.262 17.5493 16.4982 17.4885 16.6552C17.4074 16.8633 17.3109 17.0118 17.155 17.1676C16.9991 17.3234 16.8503 17.4201 16.6422 17.5011C16.4853 17.5623 16.249 17.6347 15.8143 17.6544C15.3444 17.6761 15.2033 17.6804 14.0127 17.6804C12.8222 17.6804 12.6815 17.6761 12.2117 17.6544V17.6544ZM12.1748 9.59453C11.7002 9.61615 11.3759 9.6914 11.0927 9.8016C10.7996 9.91541 10.5511 10.0681 10.303 10.3158C10.0548 10.5635 9.90256 10.812 9.78875 11.1055C9.67855 11.3889 9.6033 11.713 9.58169 12.1876C9.55972 12.663 9.55469 12.8149 9.55469 14.0256C9.55469 15.2362 9.55972 15.3882 9.58169 15.8636C9.6033 16.3382 9.67855 16.6623 9.78875 16.9456C9.90256 17.2388 10.0549 17.4877 10.303 17.7354C10.551 17.983 10.7992 18.1354 11.0927 18.2496C11.3764 18.3598 11.7002 18.435 12.1748 18.4566C12.6504 18.4783 12.8021 18.4836 14.0127 18.4836C15.2234 18.4836 15.3754 18.4786 15.8507 18.4566C16.3253 18.435 16.6494 18.3598 16.9328 18.2496C17.2259 18.1354 17.4744 17.9831 17.7225 17.7354C17.9706 17.4876 18.1226 17.2388 18.2367 16.9456C18.3469 16.6623 18.4225 16.3381 18.4438 15.8636C18.4654 15.3879 18.4704 15.2362 18.4704 14.0256C18.4704 12.8149 18.4654 12.663 18.4438 12.1876C18.4222 11.713 18.3469 11.3887 18.2367 11.1055C18.1226 10.8124 17.9702 10.5639 17.7225 10.3158C17.4748 10.0677 17.2259 9.91541 16.9332 9.8016C16.6494 9.6914 16.3253 9.61579 15.8511 9.59453C15.3757 9.57281 15.2238 9.56754 14.0133 9.56754C12.8028 9.56754 12.6505 9.57256 12.175 9.59453" fill="white"/>
  </g>
  <defs>
    <radialGradient id="paint0_radial_0_1" cx="0" cy="0" r="1" gradientUnits="userSpaceOnUse" gradientTransform="translate(8.77663 19.7371) scale(15.2355)">
      <stop offset="0.09" stop-color="#FA8F21"/>
      <stop offset="0.78" stop-color="#D82D7E"/>
    </radialGradient>
    <radialGradient id="paint1_radial_0_1" cx="0" cy="0" r="1" gradientUnits="userSpaceOnUse" gradientTransform="translate(16.312 19.3518) scale(13.4074)">
      <stop offset="0.64" stop-color="#8C3AAA" stop-opacity="0"/>
      <stop offset="1" stop-color="#8C3AAA"/>
    </radialGradient>
    <clipPath id="clip0_0_1">
      <rect width="12" height="12" fill="white" transform="translate(8 8)"/>
    </clipPath>
  </defs>
</svg>
