<svg xmlns="http://www.w3.org/2000/svg" width="16" height="16" fill="none" viewBox="0 0 16 16">
    <path fill="#fff" d="M14.087 3.826h-1.67l-.921-1.391c-.348-.522-.957-.835-1.583-.835H6.087c-.626 0-1.235.313-1.583.835l-.921 1.391h-1.67C.853 3.826 0 4.678 0 5.74v6.748c0 1.06.852 1.913 1.913 1.913h12.174c1.06 0 1.913-.852 1.913-1.913V5.74c0-1.06-.852-1.913-1.913-1.913zM8 12.835c-2.383 0-4.313-1.93-4.313-4.313S5.617 4.226 8 4.226s4.313 1.93 4.313 4.313c0 2.365-1.93 4.296-4.313 4.296zm5.844-6.313h-.766c-.313-.018-.556-.278-.539-.591.018-.296.244-.522.54-.54h.695c.313-.017.574.226.591.54.018.313-.209.573-.521.59z"/>
    <path fill="#fff" d="M8 6.14c-1.322 0-2.4 1.077-2.4 2.4 0 1.32 1.078 2.382 2.4 2.382 1.322 0 2.4-1.078 2.4-2.4C10.4 7.2 9.322 6.139 8 6.139z"/>
</svg>
