<svg xmlns="http://www.w3.org/2000/svg" width="16" height="16" fill="none" viewBox="0 0 16 16">
    <path fill="#03224C" d="M15.947 4.506c-.036-.814-.168-1.374-.356-1.86-.195-.514-.494-.975-.887-1.358-.383-.39-.847-.692-1.356-.884-.488-.188-1.045-.32-1.86-.356C10.668.009 10.409 0 8.328 0c-2.082 0-2.342.009-3.16.045C4.354.08 3.794.213 3.309.4c-.515.195-.976.494-1.36.887-.389.383-.69.847-.883 1.356-.188.488-.32 1.045-.356 1.86-.039.82-.048 1.08-.048 3.161s.01 2.342.045 3.16c.036.814.168 1.374.356 1.859.195.515.497.976.887 1.36.383.388.847.69 1.356.883.488.188 1.045.32 1.86.356.817.036 1.078.045 3.159.045 2.08 0 2.341-.01 3.159-.045.814-.036 1.374-.168 1.859-.356 1.03-.399 1.844-1.213 2.243-2.243.188-.488.32-1.045.356-1.86.036-.817.045-1.078.045-3.159 0-2.08-.003-2.341-.04-3.159zm-1.38 6.258c-.033.749-.16 1.153-.264 1.423-.257.668-.787 1.197-1.455 1.455-.27.105-.677.23-1.422.263-.809.036-1.051.045-3.096.045-2.046 0-2.291-.009-3.097-.045-.748-.032-1.152-.158-1.422-.263-.332-.123-.635-.317-.88-.572-.255-.248-.45-.548-.572-.88-.105-.27-.23-.677-.264-1.422-.036-.809-.044-1.052-.044-3.097s.008-2.29.044-3.096c.033-.748.16-1.153.264-1.422.123-.332.317-.635.575-.88.248-.255.548-.45.88-.572.27-.105.677-.23 1.422-.264.809-.036 1.051-.045 3.096-.045 2.049 0 2.291.01 3.097.045.748.033 1.152.159 1.422.264.332.122.635.317.88.572.255.248.45.548.572.88.105.27.23.677.264 1.422.036.809.045 1.051.045 3.096s-.01 2.285-.045 3.093z"/>
    <path fill="#03224C" d="M8.326 3.728c-2.174 0-3.937 1.764-3.937 3.937 0 2.174 1.763 3.938 3.937 3.938s3.938-1.764 3.938-3.938c0-2.173-1.764-3.937-3.938-3.937zm0 6.492c-1.41 0-2.554-1.144-2.554-2.555 0-1.41 1.144-2.554 2.554-2.554s2.554 1.144 2.554 2.554-1.143 2.555-2.554 2.555zM13.339 3.572c0 .508-.412.92-.92.92-.507 0-.919-.412-.919-.92 0-.507.412-.919.92-.919.507 0 .919.412.919.92z"/>
</svg>
