<svg width="16" height="16" viewBox="0 0 16 16" fill="none" xmlns="http://www.w3.org/2000/svg">
<path d="M14.8011 15.3277C15.2682 15.3277 15.6469 14.949 15.6469 14.4818V0.845943C15.6469 0.378635 15.2681 0 14.8011 0H1.16528C0.697971 0 0.319336 0.378693 0.319336 0.845943V14.4818C0.319336 14.949 0.697971 15.3277 1.16528 15.3277H14.8011Z" fill="#03224C"/>
<path d="M10.8942 15.3275V9.39178H12.8866L13.1848 7.07853H10.8941V5.60161C10.8941 4.93186 11.0801 4.47547 12.0405 4.47547L13.2655 4.4749V2.40593C13.0536 2.37778 12.3264 2.31479 11.4805 2.31479C9.71437 2.31479 8.50531 3.3928 8.50531 5.37258V7.07853H6.50781V9.39178H8.50531V15.3275H10.8942V15.3275Z" fill="#FAFAFA"/>
</svg>
