<svg width="83" height="143" viewBox="0 0 83 143" fill="none" xmlns="http://www.w3.org/2000/svg">
  <path d="M44.0372 42.7886L1.10352 53.7714V92.3858L44.0372 79.898V42.7886Z" fill="#DFDFDF"/>
  <path fill-rule="evenodd" clip-rule="evenodd" d="M44.037 33.7C44.2554 33.7 44.4329 33.8776 44.4329 34.0969V100.85C44.4329 101.07 44.2554 101.248 44.037 101.248C43.8186 101.248 43.6417 101.07 43.6417 100.85V80.4263L1.49854 92.6846V111.789C1.49854 112.008 1.32166 112.186 1.10327 112.186C0.884887 112.186 0.708008 112.008 0.708008 111.789V42.7885C0.708008 42.5692 0.884887 42.3909 1.10327 42.3909C1.32166 42.3909 1.49854 42.5692 1.49854 42.7885V53.2608L43.6417 42.4794V34.0969C43.6417 33.8776 43.8186 33.7 44.037 33.7ZM43.6417 43.2995L1.49854 54.0803V91.8573L43.6417 79.5997V43.2995Z" fill="#03224C"/>
  <path fill-rule="evenodd" clip-rule="evenodd" d="M20.9101 52.4265C22.8603 51.843 24.7989 51.5987 26.1456 51.8148C27.4642 52.0264 29.8071 52.5028 32.0835 53.0973C33.222 53.3948 34.3459 53.7219 35.3184 54.0617C36.2877 54.401 37.1172 54.7549 37.6593 55.1089C38.2475 55.4924 38.5169 56.2555 38.607 57.1334C38.6976 58.0189 38.6101 59.0667 38.4377 60.0825C38.266 61.1002 38.008 62.0935 37.7526 62.8739C37.6255 63.2638 37.4978 63.603 37.3816 63.8659C37.3228 63.9967 37.2666 64.1115 37.2136 64.2045C37.1619 64.2949 37.1089 64.3744 37.0546 64.4289C37.0425 64.4411 37.0125 64.4873 36.9748 64.5956C36.9391 64.6976 36.9027 64.8335 36.8656 65.0016C36.7916 65.3382 36.7188 65.789 36.6479 66.3206C36.5055 67.3838 36.3714 68.7555 36.2462 70.147C36.1862 70.8152 36.1287 71.4891 36.0732 72.1349C36.0138 72.8306 35.957 73.4931 35.9033 74.0792C35.8516 74.646 35.8024 75.1449 35.7565 75.5393C35.7111 75.9292 35.6671 76.228 35.6243 76.3864C35.5962 76.489 35.5355 76.5884 35.4589 76.6827C35.3816 76.7782 35.2807 76.8757 35.1626 76.9751C34.9263 77.1732 34.6096 77.3855 34.2373 77.6016C33.4928 78.0338 32.5126 78.4891 31.4826 78.8803C30.452 79.2721 29.3658 79.6017 28.4086 79.7799C27.9297 79.8691 27.4802 79.9217 27.0836 79.9237C26.689 79.9261 26.3365 79.8793 26.0594 79.762C25.5875 79.5626 24.857 79.4574 23.9886 79.4183C23.1246 79.3792 22.1432 79.4048 21.1802 79.4574C20.2186 79.51 19.2786 79.5895 18.4996 79.6549L18.4415 79.66C17.6937 79.7235 17.0903 79.7742 16.7748 79.7742C16.5807 79.7742 16.3298 79.6921 16.0552 79.5677C15.7749 79.4394 15.4505 79.258 15.1025 79.038C14.4071 78.5975 13.6095 77.9992 12.8752 77.3618C12.1421 76.725 11.4659 76.044 11.0177 75.4374C10.7935 75.134 10.6211 74.8429 10.5292 74.5787C10.4379 74.3177 10.4161 74.0548 10.5419 73.8381C10.7054 73.5559 10.7961 73.0936 10.8299 72.519C10.8638 71.9502 10.8414 71.2955 10.7961 70.6452C10.7507 70.0066 10.6843 69.3768 10.6275 68.8427L10.6243 68.8157C10.5675 68.2816 10.5202 67.8353 10.5202 67.5871C10.5202 67.3037 10.5113 66.899 10.5004 66.4521C10.494 66.1526 10.4864 65.8333 10.4813 65.519C10.4679 64.7483 10.4672 63.9916 10.5228 63.6575C10.5509 63.4863 10.6537 63.1317 10.7852 62.6975C10.8491 62.4859 10.9212 62.2531 10.9966 62.0082L11.0055 61.978C11.0847 61.7222 11.1677 61.4541 11.2495 61.1842C11.4136 60.6436 11.5738 60.0985 11.6926 59.6375C11.8133 59.1687 11.8855 58.8057 11.8855 58.6179C11.8855 58.4915 11.9391 58.3594 12.0112 58.2337C12.086 58.1049 12.1907 57.9657 12.3152 57.8201C12.5642 57.5296 12.9065 57.2026 13.2813 56.873C14.031 56.2164 14.9275 55.5392 15.5271 55.1153C16.9722 53.9405 18.9587 53.0107 20.9101 52.4265ZM21.0001 52.7311C19.073 53.3076 17.1261 54.2227 15.7225 55.3654L15.718 55.3686L15.7136 55.3718C15.1197 55.7918 14.2296 56.4632 13.4895 57.1128C13.1191 57.4373 12.7896 57.7534 12.5547 58.0279C12.4372 58.1651 12.3458 58.2876 12.2852 58.3928C12.2226 58.5018 12.2015 58.5755 12.2022 58.6179C12.2022 58.8526 12.1172 59.2553 11.9985 59.717C11.8778 60.1851 11.7162 60.7353 11.5521 61.2765C11.4698 61.5471 11.3867 61.8164 11.3082 62.0723L11.2986 62.1018C11.2233 62.3474 11.1511 62.5795 11.0879 62.7899C10.9532 63.233 10.8587 63.5639 10.8344 63.7094C10.7852 64.0083 10.7839 64.729 10.7974 65.5139C10.8025 65.8224 10.8101 66.1385 10.8165 66.438C10.8274 66.8888 10.8369 67.3011 10.8369 67.5871C10.8369 67.8141 10.881 68.238 10.9391 68.7824L10.9423 68.8113C10.9985 69.3435 11.0662 69.9783 11.1115 70.6228C11.1575 71.2782 11.1811 71.9489 11.146 72.5376C11.1115 73.1199 11.0183 73.647 10.8152 73.9977C10.7578 74.0978 10.7495 74.2504 10.8274 74.4735C10.9046 74.6948 11.0566 74.9571 11.2712 75.2475C11.7003 75.8279 12.3573 76.4922 13.0821 77.1213C13.8062 77.7497 14.591 78.3384 15.2717 78.7693C15.6114 78.9841 15.923 79.1586 16.1861 79.2778C16.4543 79.4003 16.6529 79.4567 16.7748 79.4567C17.0769 79.4567 17.6714 79.4067 18.4389 79.3413L18.4728 79.3388C19.2518 79.2727 20.1962 79.1932 21.163 79.1406C22.1304 79.0874 23.124 79.0611 24.0026 79.1008C24.8768 79.1406 25.6552 79.2464 26.182 79.4689C26.4036 79.5632 26.7082 79.6081 27.0817 79.6062C27.4534 79.6042 27.8837 79.5549 28.3505 79.4676C29.2847 79.2932 30.3524 78.97 31.3709 78.5834C32.3887 78.1967 33.3529 77.7484 34.079 77.3265C34.443 77.1155 34.7431 76.9135 34.9595 76.7314C35.0681 76.6403 35.153 76.5563 35.2143 76.4813C35.2763 76.405 35.3076 76.3454 35.319 76.303C35.3548 76.1716 35.3963 75.8965 35.4423 75.5021C35.4876 75.1122 35.5368 74.6159 35.5885 74.0503C35.6422 73.4623 35.6983 72.8024 35.7577 72.1092C35.8133 71.4648 35.8708 70.7908 35.9314 70.1188C36.0559 68.7273 36.1907 67.3492 36.3343 66.2783C36.4059 65.7435 36.4799 65.2824 36.5566 64.9329C36.5949 64.7592 36.6351 64.6091 36.6766 64.4905C36.7156 64.3789 36.7641 64.2712 36.8305 64.2038C36.8548 64.1795 36.8918 64.1294 36.9391 64.0467C36.985 63.9659 37.0368 63.8614 37.0923 63.7364C37.2034 63.4863 37.3267 63.1579 37.4525 62.7745C37.7028 62.0082 37.9569 61.0303 38.1261 60.0293C38.296 59.027 38.379 58.0112 38.2921 57.1654C38.2047 56.3119 37.9492 55.6771 37.4869 55.375C36.978 55.0435 36.1792 54.6991 35.2143 54.3618C34.2527 54.0258 33.1378 53.7007 32.0037 53.4044C29.7362 52.8126 27.4036 52.3387 26.0958 52.1284C24.8155 51.9231 22.9299 52.154 21.0001 52.7311Z" fill="#03224C"/>
  <path fill-rule="evenodd" clip-rule="evenodd" d="M41.6795 45.7006C40.7 46.6823 39.262 47.9091 37.2467 49.2743C33.2538 51.9785 27.4622 56.4583 25.0312 58.3865L22.461 64.3688L22.4246 64.3945C21.7158 64.8946 20.6418 65.8225 19.735 66.9717C18.8257 68.1234 18.101 69.4777 18.0563 70.8346C18.0403 71.3072 17.8628 71.8337 17.5767 72.3864C17.29 72.9411 16.8877 73.533 16.4095 74.1403C15.4535 75.3548 14.1847 76.6437 12.8981 77.8332C11.6101 79.0234 10.3011 80.1174 9.26278 80.944C8.22896 81.7661 7.45312 82.331 7.23601 82.4554C7.09936 82.5343 7.01443 82.7023 6.98698 82.9851C6.95952 83.2647 6.99336 83.6142 7.05147 83.9931C7.08468 84.2073 7.12235 84.417 7.16002 84.6248C7.19068 84.7928 7.22133 84.9595 7.24878 85.1275C7.30689 85.4847 7.34712 85.8284 7.31455 86.0888C7.29731 86.2298 7.20217 86.3825 7.08531 86.53C6.96271 86.6845 6.79413 86.8589 6.59427 87.0455C6.19262 87.4207 5.65049 87.8586 5.05536 88.3088C3.86509 89.2098 2.45325 90.1678 1.5165 90.7751L1.34473 90.5077C2.27765 89.9036 3.68247 88.9501 4.86507 88.0555C5.45637 87.6073 5.98892 87.177 6.37844 86.8134C6.57383 86.6313 6.729 86.469 6.83756 86.3318C6.95186 86.1882 6.99528 86.0952 7.00102 86.049C7.02721 85.84 6.99528 85.5392 6.93653 85.1788C6.91163 85.0281 6.88162 84.8627 6.85097 84.6928C6.81201 84.476 6.77115 84.2516 6.73922 84.0419C6.68047 83.6584 6.64088 83.2756 6.67217 82.9543C6.70282 82.6362 6.80754 82.3355 7.07957 82.1797C7.27177 82.0694 8.02782 81.5211 9.0661 80.6945C10.0999 79.8724 11.4032 78.7829 12.6835 77.5992C13.9651 76.4148 15.2205 75.1393 16.1617 73.9434C16.6317 73.3457 17.0212 72.7705 17.2964 72.2402C17.5716 71.7073 17.7262 71.2296 17.7396 70.8237C17.7881 69.3674 18.5614 67.947 19.4873 66.7742C20.3998 65.618 21.4757 64.6817 22.2062 64.1604L24.7726 58.1871L24.8039 58.1621C27.2163 56.2467 33.0495 51.7341 37.0698 49.0107C39.0704 47.6558 40.4925 46.4412 41.4567 45.4755C42.4235 44.5066 42.9222 43.7948 43.0856 43.4485L43.3717 43.5844C43.1846 43.9801 42.6559 44.722 41.6795 45.7006Z" fill="#03224C"/>
  <path fill-rule="evenodd" clip-rule="evenodd" d="M20.3675 54.5677C20.2341 52.6388 20.0636 50.3937 19.9474 48.9156L20.2628 48.8906C20.379 50.3694 20.5495 52.615 20.683 54.5459C20.75 55.5109 20.8075 56.3984 20.8445 57.0718C20.8631 57.4084 20.8771 57.6925 20.8835 57.906C20.8905 58.1125 20.8918 58.2709 20.8816 58.3421C20.865 58.4582 20.8599 58.6108 20.8535 58.7993C20.8528 58.8153 20.8522 58.832 20.8516 58.8487C20.8445 59.0552 20.8343 59.2944 20.8043 59.5451C20.7449 60.0446 20.6038 60.6044 20.2271 61.0661C19.888 61.483 19.5457 62.0357 19.2795 62.6084C19.0125 63.1836 18.8267 63.7671 18.7903 64.2468C18.7775 64.4135 18.6856 64.6123 18.5585 64.8188C18.4283 65.031 18.2469 65.2728 18.0304 65.5299C17.9889 65.5787 17.9468 65.6274 17.9034 65.6774C18.0483 65.7864 18.1939 65.8961 18.3395 66.0051C19.0751 66.554 19.8165 67.0882 20.4735 67.4941C20.8024 67.6967 21.107 67.866 21.3777 67.9891C21.651 68.1129 21.8796 68.1847 22.0572 68.202C22.2915 68.2245 22.5482 68.3245 22.8164 68.4707C23.0859 68.6189 23.377 68.8196 23.6829 69.0549C24.2934 69.5256 24.9741 70.1457 25.6656 70.7824C25.7218 70.8338 25.778 70.8851 25.8342 70.937C26.4734 71.5257 27.1196 72.1208 27.7339 72.6261C28.4044 73.1782 29.0225 73.6117 29.5404 73.8162C29.8386 73.9336 30.1623 74.0676 30.5007 74.2145C31.0895 74.0304 31.6482 73.8432 32.1335 73.6598C32.5358 73.5071 32.8844 73.359 33.1577 73.2186C33.4362 73.0756 33.6169 72.9499 33.7018 72.8492C33.9489 72.5562 34.3889 72.3715 34.8831 72.249C35.3844 72.1259 35.9744 72.0592 36.5549 72.0246C37.4399 71.9726 38.3256 71.9944 38.8613 72.0073C39.0267 72.0117 39.1589 72.0149 39.2476 72.0149C39.4258 72.0149 39.7476 71.9733 40.1505 71.9027C40.549 71.8328 41.0164 71.736 41.4794 71.6296C41.9423 71.5231 42.3995 71.407 42.7788 71.2987C43.1632 71.189 43.4544 71.0903 43.5943 71.0197C44.1134 70.7594 44.9295 70.5901 45.2685 70.5381L45.3164 70.8517C44.9837 70.9036 44.2085 71.0665 43.736 71.3038C43.5655 71.3897 43.2469 71.4949 42.8657 71.6039C42.48 71.7142 42.017 71.8322 41.5496 71.9393C41.0828 72.047 40.6103 72.1445 40.2048 72.2157C39.8032 72.2862 39.4564 72.3324 39.2476 72.3324C39.1506 72.3324 39.0114 72.3292 38.839 72.3247C38.3007 72.3118 37.4424 72.2907 36.5734 72.342C36.0012 72.376 35.4329 72.4407 34.9585 72.5581C34.4764 72.6767 34.122 72.8422 33.9432 73.0544C33.8148 73.207 33.5843 73.3565 33.3014 73.5014C33.0134 73.6495 32.6527 73.8028 32.2446 73.9567C31.8494 74.1067 31.4068 74.2581 30.9407 74.4081C31.721 74.7582 32.5594 75.1654 33.3551 75.5944C34.6532 76.2953 35.8563 77.0642 36.4955 77.7465C36.7228 77.9895 37.1098 78.2364 37.6034 78.4762C38.0938 78.7141 38.6761 78.9392 39.2821 79.1425C40.4941 79.5491 41.7897 79.8665 42.6115 80.0345L42.5483 80.3455C41.7169 80.1762 40.4085 79.8556 39.1819 79.4439C38.5688 79.238 37.9724 79.0085 37.4661 78.7622C36.9622 78.5179 36.5331 78.2505 36.2649 77.9639C35.6641 77.3233 34.5025 76.5743 33.205 75.874C32.304 75.3879 31.3462 74.9295 30.4822 74.5524C30.1278 74.6621 29.7638 74.7704 29.4005 74.8756C27.6592 75.377 25.9102 75.8073 25.1573 75.9927C25.0334 76.0234 24.9364 76.0472 24.8706 76.0638C24.6171 76.1273 24.2748 76.1414 23.8981 76.1427C23.7308 76.1433 23.559 76.1408 23.3815 76.1389C23.1465 76.1363 22.9013 76.1337 22.6446 76.1363C21.7532 76.1459 20.8407 76.2254 20.1817 76.5929C19.4998 76.9738 18.7552 77.5669 18.1716 78.1434C17.8804 78.4314 17.632 78.7122 17.4532 78.9565C17.3638 79.0784 17.2936 79.1893 17.2437 79.2855C17.1927 79.3836 17.1684 79.458 17.162 79.5093C17.1537 79.5753 17.125 79.6478 17.0918 79.7164C17.0567 79.7895 17.0088 79.8729 16.9513 79.9639C16.837 80.1467 16.6786 80.3699 16.4896 80.6174C16.1122 81.1131 15.6078 81.7146 15.0771 82.3007C14.5465 82.8868 13.9878 83.4607 13.5006 83.8981C13.2573 84.1167 13.0293 84.304 12.8307 84.4425C12.6379 84.5765 12.4521 84.6797 12.2975 84.7054C12.2796 84.708 12.226 84.7368 12.15 84.8663C12.0804 84.9856 12.0134 85.1549 11.9501 85.3582C11.8244 85.7635 11.7241 86.2681 11.6456 86.6926C11.6309 86.7734 11.6168 86.8517 11.6028 86.9254C11.5817 87.044 11.5619 87.1511 11.5447 87.2409C11.5306 87.314 11.5172 87.3775 11.5051 87.4282C11.4987 87.4532 11.4923 87.4769 11.4859 87.4974C11.4802 87.516 11.4712 87.5417 11.4572 87.5648C11.4508 87.5757 11.4361 87.5994 11.4093 87.6193C11.378 87.643 11.3193 87.6674 11.2522 87.6417C11.1992 87.6212 11.1737 87.5801 11.166 87.566C11.1551 87.5474 11.1494 87.5301 11.1462 87.5186C11.1341 87.4775 11.1283 87.4179 11.1245 87.3538C11.1156 87.2172 11.1117 86.9889 11.1117 86.6497H11.332C11.3327 86.6446 11.3339 86.6394 11.3346 86.6349C11.4131 86.2104 11.5166 85.6884 11.6488 85.2639C11.7145 85.0517 11.7899 84.8561 11.8774 84.7054C11.9591 84.5656 12.0772 84.42 12.2458 84.3918C12.325 84.3784 12.4604 84.3136 12.6506 84.1815C12.8345 84.0532 13.0517 83.8756 13.2898 83.6614C13.7656 83.2337 14.3166 82.6688 14.8428 82.0871C15.369 81.5062 15.8677 80.9111 16.2387 80.4244C16.4245 80.1807 16.5765 79.9659 16.6837 79.7947C16.7374 79.7087 16.7789 79.6363 16.807 79.5779C16.837 79.5157 16.8466 79.4817 16.8478 79.4702C16.8613 79.3657 16.904 79.2528 16.9628 79.1393C17.0222 79.0239 17.1026 78.8988 17.1984 78.768C17.39 78.5064 17.6505 78.2127 17.95 77.9171C18.5483 77.3258 19.3152 76.7134 20.0278 76.3152C20.7641 75.9048 21.7507 75.8285 22.6414 75.8189C22.8956 75.8163 23.1529 75.8189 23.3949 75.8214C23.5724 75.8234 23.7423 75.8253 23.8968 75.8246C24.2761 75.8234 24.5826 75.8086 24.794 75.7554C24.8604 75.7387 24.9581 75.715 25.0833 75.6842C25.8374 75.4982 27.5787 75.0699 29.313 74.5697C29.5531 74.5005 29.7932 74.4299 30.0301 74.3587C29.8194 74.2702 29.617 74.1875 29.4248 74.1119C28.8577 73.8881 28.2071 73.4263 27.5334 72.8717C26.9121 72.3606 26.2595 71.7597 25.6216 71.1723C25.5647 71.1204 25.5085 71.0685 25.4523 71.0165C24.7589 70.3785 24.0878 69.768 23.4901 69.3069C23.1912 69.0767 22.9141 68.8869 22.6644 68.7497C22.4135 68.6124 22.2002 68.5349 22.0271 68.5182C21.7985 68.4964 21.5329 68.4079 21.2475 68.2783C20.9601 68.1482 20.6428 67.9712 20.3082 67.7647C19.6377 67.3511 18.8874 66.8099 18.1505 66.2597C17.996 66.1443 17.8427 66.0288 17.6907 65.914C17.3114 66.3264 16.86 66.765 16.3823 67.185C15.7534 67.7384 15.0752 68.2623 14.4545 68.6484C14.1442 68.842 13.8447 69.0023 13.5714 69.1152C13.3 69.2274 13.0433 69.296 12.8199 69.296C12.6455 69.296 12.3786 69.3396 12.0325 69.4223C11.6903 69.5044 11.2809 69.6218 10.8269 69.7635C9.91955 70.0469 8.84103 70.4259 7.77529 70.8055C7.58372 70.8735 7.39216 70.9421 7.20251 71.0095C6.33727 71.3185 5.50332 71.6161 4.80283 71.8501C4.37564 71.9925 3.99634 72.1124 3.68856 72.1964C3.38652 72.2791 3.13621 72.3324 2.97721 72.3324H0.49707V72.0149H2.97721C3.08832 72.0149 3.29968 71.9733 3.60491 71.8899C3.90439 71.8078 4.27794 71.6905 4.70322 71.5487C5.39988 71.316 6.23063 71.0191 7.09523 70.7106C7.28552 70.6427 7.47709 70.5747 7.66929 70.5061C8.73503 70.1264 9.81866 69.7462 10.7331 69.4602C11.1903 69.3172 11.6072 69.1979 11.9597 69.1133C12.309 69.0299 12.6066 68.9786 12.8199 68.9786C12.984 68.9786 13.1972 68.926 13.4514 68.8215C13.7036 68.7176 13.9865 68.5663 14.2879 68.3784C14.89 68.0039 15.5535 67.4915 16.1742 66.9458C16.6352 66.5399 17.0707 66.1173 17.4366 65.7223C17.3638 65.6672 17.291 65.612 17.2188 65.5575C16.8121 65.2491 16.4226 64.9534 16.0637 64.6905C15.4354 64.2295 14.9277 63.887 14.6199 63.7594C14.3875 63.6632 14.2062 63.5837 14.0606 63.5196C13.9986 63.492 13.9431 63.4677 13.8933 63.4458C13.7221 63.3721 13.6142 63.3323 13.5063 63.3112C13.3997 63.2907 13.2834 63.2875 13.097 63.3003C12.952 63.3105 12.7713 63.3298 12.5255 63.3561C12.4527 63.3638 12.3735 63.3721 12.2879 63.3811C12.1079 63.4003 11.8556 63.3529 11.5645 63.2701C11.2682 63.1849 10.9106 63.056 10.5096 62.8937C9.70819 62.5693 8.72226 62.1088 7.6827 61.5926C5.60421 60.5608 3.30351 59.3021 1.81951 58.4582L1.97532 58.1818C3.45612 59.0238 5.75172 60.2793 7.82318 61.3079C8.85955 61.8228 9.83718 62.2794 10.6277 62.5994C11.0236 62.7591 11.3697 62.8841 11.6513 62.9643C11.9393 63.047 12.1404 63.0771 12.2554 63.0649C12.3384 63.0566 12.4157 63.0483 12.4878 63.0406C12.7349 63.0143 12.9239 62.9938 13.0753 62.9835C13.2732 62.9694 13.4201 62.9713 13.5657 62.9995C13.71 63.0271 13.8447 63.0797 14.0178 63.1541C14.0714 63.1772 14.1289 63.2022 14.1921 63.2304C14.3364 63.2939 14.5114 63.3715 14.74 63.4657C15.0905 63.6107 15.6295 63.9787 16.2508 64.434C16.6097 64.6976 17.0043 64.9964 17.4136 65.3068C17.4921 65.3664 17.5707 65.426 17.6499 65.4857C17.6978 65.4312 17.7444 65.3773 17.7884 65.3247C17.9998 65.0746 18.1703 64.8463 18.2891 64.652C18.4123 64.452 18.4679 64.3083 18.4749 64.2224C18.5157 63.6895 18.7175 63.0669 18.9927 62.4743C19.2692 61.8799 19.6243 61.3041 19.9825 60.8648C20.3037 60.4704 20.434 59.9805 20.4901 59.5073C20.5189 59.2713 20.5278 59.0436 20.5355 58.8371C20.5361 58.8192 20.5368 58.8006 20.5374 58.7826C20.5438 58.6012 20.5495 58.4312 20.5681 58.2972C20.5738 58.26 20.5744 58.1343 20.5674 57.9163C20.561 57.706 20.5476 57.4251 20.5291 57.0891C20.4921 56.4183 20.4346 55.5328 20.3675 54.5677Z" fill="#03224C"/>
  <path d="M81.8252 130.977C81.8252 137.526 71.1697 142.835 58.0251 142.835C44.8811 142.835 34.2256 137.526 34.2256 130.977C34.2256 124.428 44.8811 119.119 58.0251 119.119C71.1697 119.119 81.8252 124.428 81.8252 130.977Z" fill="white"/>
  <path d="M58.3701 133.397C58.7577 131.84 57.8854 130.015 57.4008 129.297L57.1115 130.759C55.5522 131.644 53.9475 130.665 53.3396 130.064L52.9156 127.779C50.2139 126.41 43.7964 125.684 46.7299 129.297C50.3965 133.813 57.8854 135.342 58.3701 133.397Z" fill="#03224C"/>
  <path d="M71.5691 131.28C71.9567 129.725 71.0845 127.9 70.5998 127.182L70.3105 128.644C68.7512 129.529 67.6886 129.244 67.0814 128.644L66.7717 126.426C64.0693 125.056 58.3498 123.569 61.2833 127.182C64.9499 131.697 71.0838 133.226 71.5691 131.28Z" fill="#03224C"/>
  <path d="M49.6233 63.2357C50.7931 58.3314 52.7197 56.9187 54.7547 56.7302C56.4194 56.0806 55.9692 54.9584 55.5989 54.7147C55.1896 54.4454 54.0038 56.2928 52.4291 55.1834C48.8832 51.9034 48.3788 46.1007 48.6495 42.3859C53.2688 36.8609 62.6389 46.0815 61.0815 51.0223C59.8357 54.975 61.7552 56.6308 64.0201 59.4844C69.9657 66.9761 71.2824 78.5476 71.4241 82.2989C71.5653 86.0496 73.4043 88.5486 70.8494 104.511C70.2077 108.519 70.5193 120.007 70.8494 125.267C69.2639 127.087 67.0743 126.689 66.1778 126.262C64.9984 121.997 62.6389 112.785 62.6389 110.056V98.2405C61.9308 99.7148 60.1754 103.601 58.8165 107.355C57.4577 111.107 57.4954 122.092 57.6838 127.115C55.0791 129.163 53.2011 127.969 52.5875 127.115C52.2522 125.552 51.387 120.86 50.6054 114.605C49.8245 108.349 52.6749 95.8006 54.1979 90.3082C54.3837 88.8378 57.3658 81.6718 56.9207 79.3453C56.4756 77.0182 51.5083 73.5933 52.3582 69.6239C52.3582 69.6239 48.4267 73.0565 45.1311 73.0565C39.6747 73.5067 34.7693 69.134 32.2036 63.2357C31.0006 63.6544 29.3244 62.5425 29.1015 61.7089C29.0785 61.6217 29.0632 61.5633 29.0543 61.5293C29.1085 61.7493 29.3844 62.9099 29.3844 63.6608C29.3844 64.9312 27.5652 63.6769 27.2299 60.0057C26.9611 57.0694 28.8544 56.8424 30.0153 56.5596C29.219 55.2424 27.4694 52.6094 28.1443 51.9316C28.9878 51.0845 34.7508 59.1323 34.8913 61.2497C35.0324 63.3678 41.6274 68.2433 43.7359 68.2433C45.845 68.2433 48.7542 66.8812 49.6233 63.2357Z" fill="white"/>
  <path fill-rule="evenodd" clip-rule="evenodd" d="M60.5878 46.7399C61.3285 48.2314 61.6401 49.7788 61.2334 51.0703C60.621 53.012 60.7896 54.3715 61.3777 55.5963C61.84 56.5588 62.5597 57.4386 63.3923 58.4556C63.635 58.7519 63.8866 59.0597 64.1446 59.3848C67.1374 63.1554 68.9599 67.9456 70.0524 72.2548C71.1456 76.5653 71.5115 80.4071 71.583 82.2924C71.6143 83.1331 71.7325 83.9103 71.8685 84.8048C71.8819 84.8965 71.8959 84.9889 71.9106 85.0831C72.0632 86.0963 72.2273 87.2653 72.3065 88.8172C72.4655 91.9208 72.2848 96.5481 71.0064 104.536C70.6884 106.525 70.6054 110.385 70.6444 114.418C70.6827 118.446 70.843 122.63 71.0084 125.256L71.0122 125.323L70.9694 125.372C69.3181 127.267 67.0404 126.848 66.1106 126.406L66.0449 126.375L66.0257 126.304C65.4351 124.17 64.55 120.799 63.8119 117.619C63.4428 116.029 63.1107 114.485 62.8706 113.168C62.6305 111.854 62.4805 110.754 62.4805 110.055V98.9483C61.6555 100.722 60.1581 104.118 58.9659 107.408C58.6332 108.329 58.3822 109.703 58.1977 111.337C58.0138 112.967 57.8969 114.844 57.8286 116.764C57.692 120.602 57.7488 124.6 57.8427 127.109L57.8459 127.19L57.782 127.241C56.4519 128.286 55.2872 128.518 54.3626 128.36C53.445 128.202 52.7873 127.664 52.4597 127.208L52.4399 127.181L52.4329 127.148C52.097 125.579 51.2305 120.883 50.4489 114.624C50.0549 111.471 50.5766 106.749 51.3824 102.142C52.1877 97.5369 53.2802 93.0276 54.0427 90.276C54.0944 89.8868 54.3204 89.1512 54.6142 88.2522C54.7131 87.9489 54.8204 87.6257 54.9328 87.2878C55.1595 86.6022 55.4066 85.8577 55.6454 85.0998C56.0011 83.968 56.3363 82.8137 56.5547 81.7992C56.7744 80.7771 56.8702 79.9216 56.7654 79.3747C56.6614 78.8315 56.2884 78.2069 55.7731 77.4964C55.5266 77.1566 55.2521 76.8019 54.9654 76.4326L54.9328 76.3909C54.6352 76.0068 54.3255 75.6073 54.026 75.1937C52.9169 73.6636 51.9124 71.9117 52.1327 70.0162C52.037 70.0938 51.9214 70.1848 51.7886 70.2861C51.3658 70.6106 50.7669 71.0428 50.0638 71.4757C48.666 72.3356 46.8302 73.2128 45.138 73.2154C39.6267 73.6662 34.7073 69.2877 32.1154 63.4286C31.4877 63.5882 30.7827 63.3978 30.2093 63.081C29.9073 62.9149 29.634 62.7091 29.4181 62.4898C29.4858 62.8784 29.5433 63.3106 29.5433 63.6601C29.5433 63.8345 29.5127 63.9877 29.4399 64.1038C29.3626 64.2269 29.2419 64.2975 29.0989 64.3007C28.9654 64.3032 28.83 64.2481 28.703 64.1622C28.574 64.0756 28.4412 63.9486 28.3103 63.7864C27.7879 63.1413 27.242 61.8767 27.0721 60.0203C26.9348 58.5133 27.3512 57.663 27.9891 57.1616C28.5274 56.739 29.2087 56.5825 29.747 56.4588C29.7534 56.4575 29.7598 56.4556 29.7662 56.4543C29.7151 56.3709 29.6614 56.2837 29.6052 56.1933C29.2259 55.5777 28.7483 54.8011 28.3869 54.0765C28.1583 53.6193 27.9712 53.1717 27.8856 52.7901C27.8026 52.4208 27.8007 52.0514 28.0325 51.8186C28.1302 51.7205 28.2573 51.6974 28.3805 51.7154C28.4986 51.7327 28.6251 51.7885 28.7521 51.8648C29.0082 52.0181 29.3141 52.2829 29.6474 52.6196C30.3166 53.2967 31.1263 54.2964 31.9104 55.3853C32.6952 56.4748 33.4589 57.6579 34.0355 58.7038C34.3241 59.2264 34.5674 59.717 34.743 60.146C34.9174 60.5711 35.031 60.9475 35.0502 61.2387C35.0655 61.4676 35.1702 61.7504 35.3624 62.0768C35.5534 62.4013 35.8235 62.7572 36.1549 63.1297C36.8177 63.8749 37.7129 64.6764 38.6727 65.4139C39.6318 66.152 40.6509 66.8221 41.5589 67.3075C42.013 67.5505 42.437 67.7455 42.8105 67.8795C43.186 68.0148 43.4995 68.0841 43.7364 68.0841C45.7842 68.0841 48.6201 66.7612 49.47 63.1984C50.0574 60.7327 50.8403 59.1251 51.7471 58.1081C52.6512 57.093 53.6723 56.6749 54.7182 56.5735C55.5017 56.2625 55.7438 55.8617 55.7833 55.5501C55.8248 55.2173 55.6461 54.9358 55.5126 54.8473C55.512 54.8473 55.5094 54.8466 55.5056 54.8466C55.4979 54.846 55.4819 54.8473 55.4558 54.855C55.4015 54.8716 55.33 54.9082 55.2355 54.9659C55.178 55.0005 55.1129 55.0435 55.0413 55.0903C54.8906 55.1884 54.7125 55.3051 54.526 55.4045C54.2425 55.5552 53.9098 55.6848 53.5376 55.6989C53.1621 55.7136 52.7592 55.6097 52.3383 55.3135L52.33 55.3071L52.3218 55.3C50.5178 53.6308 49.4936 51.3268 48.954 48.983C48.4138 46.6386 48.3557 44.2428 48.4917 42.3736L48.4955 42.3223L48.5281 42.2832C49.7196 40.8583 51.2247 40.3812 52.777 40.5511C54.3211 40.7198 55.9047 41.5278 57.2827 42.6557C58.6613 43.785 59.8452 45.2458 60.5878 46.7399ZM29.2081 61.4894C29.2087 61.4894 29.2081 61.4894 29.2081 61.4894C29.217 61.5227 29.2323 61.5811 29.2553 61.6677C29.3013 61.8395 29.4284 62.0422 29.6257 62.2467C29.8211 62.4494 30.0759 62.6443 30.3619 62.8021C30.9398 63.1214 31.6109 63.2734 32.1524 63.0855L32.291 63.0368L32.3497 63.1721C34.9027 69.0421 39.7608 73.3392 45.1189 72.8973L45.1253 72.8967H45.1316C46.7331 72.8967 48.5077 72.0592 49.8978 71.2038C50.5894 70.778 51.1794 70.3522 51.5964 70.0328C51.8052 69.8732 51.9699 69.7404 52.0823 69.6475C52.1391 69.6013 52.1819 69.5647 52.2113 69.5404L52.2438 69.5122L52.2521 69.5051L52.2541 69.5038L52.2547 69.5032L52.6136 69.1896L52.5133 69.6571C52.1046 71.5674 53.0918 73.3642 54.2827 75.0064C54.5784 75.4149 54.8849 75.8112 55.1831 76.1953L55.2163 76.2383C55.5024 76.6064 55.7795 76.9642 56.0292 77.3085C56.5439 78.0184 56.9583 78.6943 57.0771 79.315C57.1952 79.9313 57.0847 80.8444 56.8644 81.8666C56.6435 82.8958 56.3044 84.061 55.9474 85.1953C55.7086 85.9559 55.4596 86.7055 55.2323 87.3916C55.1205 87.7289 55.0139 88.0509 54.9155 88.3516C54.6148 89.2731 54.3996 89.9791 54.3562 90.3279L54.3543 90.3395L54.3511 90.3504C53.5912 93.0924 52.4986 97.5979 51.6947 102.198C50.8895 106.803 50.3761 111.483 50.7637 114.585C51.5389 120.792 52.3971 125.457 52.7362 127.048C53.0286 127.44 53.6091 127.907 54.4162 128.045C55.2221 128.183 56.2763 127.997 57.5228 127.039C57.4302 124.52 57.3765 120.559 57.5119 116.753C57.5802 114.828 57.6971 112.942 57.8829 111.301C58.0674 109.662 58.3216 108.256 58.6677 107.299C60.0291 103.54 61.787 99.6486 62.4964 98.1711L62.7978 98.2404V110.055C62.7978 110.722 62.9428 111.797 63.1823 113.11C63.4211 114.421 63.7525 115.959 64.1209 117.547C64.8495 120.686 65.7224 124.014 66.3112 126.148C67.2026 126.542 69.2089 126.858 70.6878 125.21C70.5237 122.573 70.3653 118.42 70.327 114.421C70.2881 110.393 70.3704 106.505 70.6935 104.486C71.97 96.5109 72.1475 91.9074 71.9898 88.8338C71.9113 87.2967 71.7491 86.1399 71.5971 85.1306C71.5824 85.0363 71.5684 84.9433 71.5543 84.851C71.4189 83.9596 71.2983 83.1645 71.2657 82.3046C71.1954 80.4385 70.8321 76.6192 69.7453 72.333C68.6585 68.0456 66.8501 63.3042 63.8968 59.5836C63.6478 59.27 63.4019 58.9699 63.1631 58.6775C62.3247 57.6541 61.5725 56.7351 61.0923 55.7341C60.4652 54.4292 60.2973 52.9851 60.9307 50.9741C61.3023 49.7948 61.0271 48.3373 60.3043 46.8822C59.5834 45.4311 58.4282 44.0056 57.0822 42.9026C55.7342 41.7984 54.2068 41.0276 52.7432 40.8673C51.302 40.7095 49.917 41.1417 48.804 42.4486C48.6743 44.2871 48.7369 46.627 49.2631 48.9112C49.7931 51.2146 50.7924 53.4481 52.5293 55.0589C52.8926 55.3122 53.2253 55.3923 53.5254 55.3808C53.8319 55.3693 54.1161 55.2615 54.3772 55.123C54.5528 55.0294 54.7055 54.93 54.8485 54.8357C54.9245 54.7864 54.9979 54.7383 55.0707 54.694C55.1691 54.6337 55.2693 54.5792 55.3645 54.5504C55.4602 54.5209 55.579 54.5106 55.6863 54.5812C55.9225 54.737 56.1543 55.1378 56.0975 55.5899C56.0388 56.0599 55.6773 56.5408 54.8127 56.8781L54.7917 56.8865L54.77 56.8884C53.7885 56.9795 52.8364 57.3629 51.9833 58.3203C51.1251 59.2828 50.3595 60.8334 49.7784 63.2727C48.8895 67.001 45.9068 68.4021 43.7364 68.4021C43.4465 68.4021 43.0927 68.3194 42.7032 68.1796C42.3118 68.0385 41.8731 67.8366 41.4102 67.589C40.4843 67.094 39.4504 66.413 38.4798 65.6672C37.5099 64.9214 36.598 64.1064 35.9186 63.342C35.5789 62.9598 35.2941 62.5872 35.0898 62.239C34.8861 61.8934 34.7539 61.5606 34.7341 61.2598C34.7181 61.0219 34.6211 60.684 34.4499 60.2672C34.2801 59.8536 34.0432 59.3745 33.7584 58.8583C33.1888 57.8259 32.4328 56.6531 31.6537 55.5719C30.874 54.4895 30.0752 53.5045 29.4226 52.844C29.0944 52.5125 28.8109 52.2707 28.5893 52.138C28.4782 52.0713 28.3939 52.0392 28.3352 52.0302C28.2809 52.0226 28.2643 52.036 28.2566 52.0437C28.1513 52.1495 28.1149 52.3637 28.1947 52.7196C28.2719 53.0639 28.4456 53.484 28.6704 53.9341C29.0242 54.6446 29.4916 55.4032 29.8709 56.0182C29.9718 56.1824 30.0663 56.3363 30.1512 56.4767L30.2636 56.6627L30.0529 56.714C29.9737 56.7332 29.8926 56.7518 29.8102 56.771C29.2674 56.8974 28.6627 57.0372 28.1845 57.4129C27.6532 57.8298 27.2573 58.5614 27.3882 59.9914C27.5542 61.8055 28.0855 63.0034 28.5567 63.5857C28.6736 63.7306 28.7841 63.8332 28.8798 63.898C28.9782 63.9646 29.0491 63.9832 29.0918 63.9826C29.1244 63.9813 29.1487 63.9704 29.1717 63.9339C29.1998 63.889 29.2266 63.8037 29.2266 63.6601C29.2266 62.9329 28.9565 61.7921 28.9009 61.5676L28.8939 61.5394L28.892 61.5317L28.8913 61.5285L28.8901 61.5221L28.8888 61.5163C28.8888 61.5157 28.8881 61.5144 28.8881 61.5125C28.8881 61.5119 28.8881 61.5106 28.8875 61.5093C28.8875 61.5067 28.8869 61.499 28.8869 61.4894C28.8869 61.4836 28.8888 61.4676 28.8907 61.458C28.8958 61.4394 28.9265 61.3868 28.9577 61.3592C29.0146 61.3361 29.1116 61.3477 29.1436 61.3669C29.1563 61.3785 29.1736 61.3983 29.1787 61.4054C29.1857 61.4169 29.1902 61.4266 29.1908 61.4291C29.1927 61.4323 29.194 61.4355 29.194 61.4368C29.1959 61.4419 29.1972 61.4458 29.1972 61.4464L29.1978 61.449L29.1985 61.4516L29.1998 61.4548L29.2017 61.4625L29.2081 61.4894Z" fill="#03224C"/>
  <path fill-rule="evenodd" clip-rule="evenodd" d="M44.6104 68.1708C46.5809 67.8438 48.8695 66.3997 49.6236 63.237C50.6798 58.8066 52.3541 57.2259 54.1682 56.8225C57.4765 57.3343 60.0371 56.475 61.2817 55.7632C61.7542 56.7078 62.4694 57.5811 63.2772 58.5687C63.5179 58.8624 63.7669 59.167 64.0204 59.4857C69.966 66.9775 71.282 78.5489 71.4238 82.3003C71.4302 82.4689 71.4366 82.6574 71.4436 82.8639C67.5874 87.4226 60.17 85.5437 56.2384 83.6828C56.7428 81.9168 57.0953 80.2592 56.921 79.3466C56.7556 78.4848 55.9708 77.4723 55.0903 76.3372C53.5941 74.4077 51.8234 72.1242 52.3579 69.6252C52.3579 69.6252 49.7897 71.8677 47.0643 72.7276L44.6104 68.1708Z" fill="#03224C"/>
  <path fill-rule="evenodd" clip-rule="evenodd" d="M61.3482 55.5417L61.4235 55.6918C61.8865 56.6171 62.5889 57.4764 63.3998 58.4672C63.6399 58.7609 63.8903 59.0661 64.1444 59.3861C67.1367 63.1567 68.9591 67.9468 70.0523 72.2561C71.1455 76.5666 71.5114 80.409 71.5823 82.2936C71.5886 82.4629 71.595 82.6515 71.6021 82.8586L71.604 82.9202L71.5644 82.967C69.5925 85.2979 66.7165 85.9732 63.8622 85.8398C61.0078 85.7058 58.1497 84.7631 56.1708 83.8263L56.0488 83.7685L56.0859 83.6384C56.3375 82.7579 56.5501 81.9083 56.6778 81.167C56.8068 80.4218 56.8464 79.803 56.7653 79.3766C56.6887 78.9764 56.4645 78.5288 56.1408 78.0312C55.8183 77.5349 55.4064 77.0039 54.9652 76.4345L54.9607 76.4287C54.2155 75.4681 53.3905 74.4043 52.8209 73.2661C52.3114 72.249 51.9991 71.1595 52.1326 70.0181C52.0949 70.0476 52.0547 70.0797 52.0119 70.1136C51.7265 70.3394 51.3172 70.6491 50.8216 70.9851C49.8338 71.6571 48.4954 72.4427 47.1116 72.8794L46.9871 72.9185L44.3652 68.0501L44.5849 68.0135C46.5006 67.6955 48.7323 66.2918 49.4692 63.2003C50.5317 58.7455 52.2322 57.0897 54.1338 56.6665L54.1625 56.6601L54.1919 56.6646C57.4626 57.1705 59.9874 56.3202 61.2032 55.6251L61.3482 55.5417ZM52.2539 69.5044L52.6128 69.1909L52.5132 69.6583C52.2558 70.8594 52.5502 72.0169 53.1038 73.1231C53.6587 74.2311 54.4652 75.2719 55.2155 76.2389L55.2181 76.2428C55.6561 76.8077 56.0756 77.3489 56.4064 77.8568C56.7366 78.3647 56.9881 78.8546 57.0763 79.3163C57.1695 79.8024 57.1203 80.4686 56.9901 81.2215C56.8662 81.9416 56.6644 82.756 56.4275 83.5954C58.3751 84.5008 61.133 85.3928 63.8768 85.5217C66.6584 85.6519 69.4003 84.9972 71.2828 82.8073C71.277 82.6252 71.2713 82.4572 71.2655 82.3058C71.1947 80.4398 70.832 76.6205 69.7451 72.335C68.6577 68.0475 66.8493 63.3061 63.896 59.5849C63.6438 59.2668 63.3954 58.9635 63.1546 58.6692L63.147 58.6602C62.3858 57.7304 61.6949 56.8858 61.216 55.9817C59.9006 56.689 57.384 57.4732 54.1734 56.9839C52.4576 57.3783 50.8223 58.8923 49.7776 63.274C49.0343 66.3918 46.8256 67.8834 44.8537 68.2873L47.141 72.535C48.4386 72.1047 49.6971 71.3654 50.6441 70.7216C51.132 70.39 51.5349 70.0854 51.8159 69.8635C51.9563 69.7526 52.0662 69.6622 52.1409 69.6C52.1779 69.5692 52.2067 69.5448 52.2258 69.5288L52.2469 69.5102L52.252 69.5057L52.2539 69.5044Z" fill="#03224C"/>
  <path d="M49.9599 49.8429C46.7774 48.4636 47.4032 44.2826 48.1139 42.3652C50.5289 39.7258 53.0148 38.6549 56.069 39.0833C59.1238 39.511 61.2547 41.0808 61.4679 46.8585C61.6812 52.6369 60.0472 55.99 59.5497 56.7031C58.0153 55.6758 56.1641 53.5641 55.4298 52.6369C56.1641 52.304 57.3193 51.2793 56.069 49.8429C54.5064 48.0474 55.2165 50.7823 53.0148 50.8535C51.253 50.9106 50.7652 48.2141 50.7415 46.8585C49.0934 47.7146 49.534 49.2049 49.9599 49.8429Z" fill="#03224C"/>
  <path d="M64.1334 40.4345C64.1334 43.1028 61.9796 45.2657 59.3226 45.2657C56.6656 45.2657 54.5117 43.1028 54.5117 40.4345C54.5117 37.7662 56.6656 35.6033 59.3226 35.6033C61.9796 35.6033 64.1334 37.7662 64.1334 40.4345Z" fill="#03224C"/>
  <path d="M57.1826 130.72V127.555C55.2069 128.823 53.5166 128.084 52.9189 127.555L53.32 130.063C54.9361 131.529 56.5683 131.112 57.1826 130.72Z" fill="white"/>
  <path d="M67.1339 128.863L66.8721 126.458C68.8778 126.88 70.1268 126.032 70.501 125.557V128.412C69.3637 129.675 67.7826 129.239 67.1339 128.863Z" fill="white"/>
  <path fill-rule="evenodd" clip-rule="evenodd" d="M70.66 125.098V128.474L70.6191 128.519C70.0157 129.189 69.2909 129.409 68.6351 129.411C67.9844 129.413 67.3995 129.201 67.0547 129.001L66.9851 128.96L66.6907 126.258L66.9046 126.302C68.8522 126.712 70.0406 125.886 70.3771 125.458L70.66 125.098ZM67.0534 126.655L67.2827 128.764C67.5943 128.928 68.0898 129.094 68.6338 129.093C69.2002 129.091 69.8171 128.908 70.3426 128.35V125.941C69.7769 126.414 68.6556 126.93 67.0534 126.655ZM52.6924 127.143L53.0238 127.436C53.5781 127.925 55.191 128.644 57.0971 127.421L57.341 127.264V130.808L57.2676 130.855C56.6029 131.279 54.8909 131.702 53.2141 130.181L53.1726 130.144L52.6924 127.143ZM53.1368 127.911L53.4676 129.982C54.9458 131.292 56.4139 130.972 57.0237 130.63V127.837C55.3583 128.785 53.9044 128.387 53.1368 127.911Z" fill="#03224C"/>
  <ellipse cx="11.5952" cy="62.9803" rx="5.09516" ry="5.08361" fill="white"/>
  <path d="M16.4133 67.8293C16.2691 68.0353 16.1249 68.2155 15.9808 68.3699L11.5172 71.8296L7.08448 68.3699C6.94033 68.2155 6.79617 68.0353 6.65202 67.8293C6.01363 67.1909 5.51424 66.4496 5.15386 65.6053C4.79347 64.7609 4.61328 63.8703 4.61328 62.9333C4.61328 61.9963 4.79605 61.1005 5.16158 60.2458C5.52711 59.3912 6.01878 58.655 6.63657 58.0372C7.25437 57.4194 7.99059 56.9277 8.84521 56.5622C9.69983 56.1967 10.5956 56.0139 11.5326 56.0139C12.4696 56.0139 13.3654 56.1967 14.2201 56.5622C15.0747 56.9277 15.8109 57.4194 16.4287 58.0372C17.0465 58.655 17.5382 59.3912 17.9037 60.2458C18.2692 61.1005 18.452 61.9963 18.452 62.9333C18.452 63.8703 18.2718 64.7609 17.9114 65.6053C17.551 66.4496 17.0516 67.1909 16.4133 67.8293ZM11.5326 57.9909C10.6368 57.9909 9.81052 58.2123 9.05372 58.655C8.29691 59.0978 7.69713 59.6975 7.25437 60.4543C6.81162 61.2112 6.59024 62.0375 6.59024 62.9333C6.59024 63.8291 6.81162 64.6554 7.25437 65.4122C7.69713 66.169 8.29691 66.7662 9.05372 67.2038C9.81052 67.6414 10.6368 67.8602 11.5326 67.8602C12.4284 67.8602 13.2548 67.6414 14.0116 67.2038C14.7684 66.7662 15.3681 66.169 15.8109 65.4122C16.2537 64.6554 16.475 63.8291 16.475 62.9333C16.475 62.0375 16.2537 61.2112 15.8109 60.4543C15.3681 59.6975 14.7684 59.0978 14.0116 58.655C13.2548 58.2123 12.4284 57.9909 11.5326 57.9909Z" fill="#00B0F0"/>
  <g clip-path="url(#clip0)">
    <path d="M11.5606 61.9885L11.3593 60.5931C11.3513 60.5364 11.3045 60.4949 11.2497 60.4949C11.2486 60.4949 11.2473 60.4949 11.2459 60.4949C11.1896 60.4967 11.1437 60.5422 11.1393 60.6005L11.0421 61.8121C11.0361 61.8868 10.9086 61.8868 10.9026 61.8121L10.8057 60.6005C10.8008 60.5408 10.7529 60.4949 10.6953 60.4949C10.6376 60.4949 10.5895 60.5408 10.5848 60.6005L10.4877 61.8121C10.4817 61.8868 10.3542 61.8868 10.3482 61.8121L10.2513 60.6005C10.2466 60.5424 10.2007 60.4969 10.1444 60.4949C10.143 60.4949 10.1419 60.4949 10.1408 60.4949C10.0861 60.4949 10.0393 60.5364 10.0313 60.5931L9.83013 61.9885C9.77091 62.3975 9.98427 62.7886 10.344 62.9517L10.1728 65.4473C10.1626 65.5974 10.2131 65.7467 10.3118 65.8569C10.4103 65.9672 10.5498 66.0304 10.6948 66.0304H10.6957C10.8405 66.0304 10.9803 65.9672 11.0789 65.8569C11.1776 65.7467 11.2282 65.5974 11.218 65.4473L11.0468 62.9517C11.4065 62.7886 11.6198 62.3975 11.5606 61.9885Z" fill="#00B0F0"/>
    <path d="M13.1986 60.5159C13.1693 60.4942 13.1316 60.4892 13.0977 60.5014C13.0881 60.5048 12.1367 60.8683 12.1367 61.9939C12.1367 62.8041 12.3902 63.2133 12.5328 63.3794L12.3909 63.527C12.3727 63.5459 12.3614 63.5706 12.3589 63.5971L12.1835 65.4217C12.1684 65.5769 12.2174 65.7324 12.3181 65.8482C12.4188 65.964 12.5632 66.0302 12.7131 66.0302C13.0065 66.0302 13.2454 65.7818 13.2454 65.4766V60.61C13.2456 60.5724 13.2281 60.5376 13.1986 60.5159Z" fill="#00B0F0"/>
  </g>
  <ellipse cx="28.9906" cy="37.6251" rx="6.72885" ry="6.77814" fill="white"/>
  <path d="M35.353 44.0903C35.1626 44.3649 34.9722 44.6051 34.7819 44.8111L28.8871 49.424L23.0331 44.8111C22.8427 44.6051 22.6523 44.3649 22.462 44.0903C21.6189 43.2391 20.9594 42.2506 20.4834 41.1249C20.0075 39.9991 19.7695 38.8116 19.7695 37.5622C19.7695 36.3129 20.0109 35.1185 20.4936 33.979C20.9764 32.8395 21.6257 31.8579 22.4416 31.0342C23.2575 30.2104 24.2297 29.5549 25.3584 29.0675C26.487 28.5801 27.67 28.3364 28.9075 28.3364C30.1449 28.3364 31.3279 28.5801 32.4566 29.0675C33.5852 29.5549 34.5575 30.2104 35.3734 31.0342C36.1893 31.8579 36.8386 32.8395 37.3213 33.979C37.804 35.1185 38.0454 36.3129 38.0454 37.5622C38.0454 38.8116 37.8074 39.9991 37.3315 41.1249C36.8556 42.2506 36.1961 43.2391 35.353 44.0903ZM28.9075 30.9724C27.7244 30.9724 26.6332 31.2675 25.6337 31.8579C24.6343 32.4482 23.8422 33.2479 23.2575 34.257C22.6727 35.2661 22.3804 36.3678 22.3804 37.5622C22.3804 38.7566 22.6727 39.8584 23.2575 40.8675C23.8422 41.8765 24.6343 42.6728 25.6337 43.2563C26.6332 43.8398 27.7244 44.1315 28.9075 44.1315C30.0905 44.1315 31.1818 43.8398 32.1812 43.2563C33.1807 42.6728 33.9728 41.8765 34.5575 40.8675C35.1422 39.8584 35.4346 38.7566 35.4346 37.5622C35.4346 36.3678 35.1422 35.2661 34.5575 34.257C33.9728 33.2479 33.1807 32.4482 32.1812 31.8579C31.1818 31.2675 30.0905 30.9724 28.9075 30.9724Z" fill="#FFD966"/>
  <g clip-path="url(#clip1)">
    <path d="M31.5428 35.8776C31.5407 35.849 31.5168 35.8268 31.4881 35.8268H30.4996V35.5523C30.4996 34.6741 29.7852 33.9597 28.9071 33.9597C28.029 33.9597 27.3145 34.6741 27.3145 35.5523V35.8268H26.326C26.2974 35.8268 26.2734 35.849 26.2713 35.8776L25.8869 40.9298C25.8857 40.945 25.8909 40.9601 25.9014 40.9713C25.9118 40.9825 25.9264 40.9889 25.9416 40.9889H31.8725C31.8878 40.9889 31.9024 40.9825 31.9128 40.9713C31.9231 40.9601 31.9284 40.9451 31.9273 40.9299L31.5428 35.8776ZM27.7538 35.5523C27.7538 34.9164 28.2711 34.399 28.9071 34.399C29.543 34.399 30.0603 34.9164 30.0603 35.5523V35.8268H27.7538V35.5523ZM27.5342 37.3645C27.2313 37.3645 26.985 37.1181 26.985 36.8153C26.985 36.5962 27.0949 36.3987 27.3145 36.312V36.8153C27.3145 36.9365 27.4131 37.035 27.5342 37.035C27.6553 37.035 27.7538 36.9365 27.7538 36.8153V36.3124C27.9735 36.399 28.0833 36.598 28.0833 36.8153C28.0833 37.1181 27.837 37.3645 27.5342 37.3645ZM30.28 37.3645C29.9771 37.3645 29.7308 37.1181 29.7308 36.8153C29.7308 36.5962 29.8406 36.3987 30.0603 36.312V36.8153C30.0603 36.9365 30.1589 37.035 30.28 37.035C30.401 37.035 30.4996 36.9365 30.4996 36.8153V36.3124C30.7193 36.399 30.8291 36.598 30.8291 36.8153C30.8291 37.1181 30.5828 37.3645 30.28 37.3645Z" fill="#FFD966"/>
  </g>
  <defs>
    <clipPath id="clip0">
      <rect width="5.32258" height="5.53548" fill="white" transform="translate(8.87109 60.4949)"/>
    </clipPath>
    <clipPath id="clip1">
      <rect width="7.02919" height="7.02919" fill="white" transform="translate(25.3926 33.9597)"/>
    </clipPath>
  </defs>
</svg>
