<svg xmlns="http://www.w3.org/2000/svg" width="52" height="60" fill="none" viewBox="0 0 52 60">
    <ellipse cx="26.237" cy="26.428" fill="#fff" rx="19.145" ry="19.286"/>
    <path fill="#03224C" d="M44.34 44.824c-.542.782-1.084 1.465-1.626 2.051L25.942 60 9.286 46.875c-.542-.586-1.084-1.27-1.625-2.05-2.4-2.423-4.276-5.235-5.63-8.438C.677 33.184 0 29.805 0 26.25c0-3.555.687-6.953 2.06-10.195 1.374-3.242 3.221-6.035 5.543-8.38 2.321-2.343 5.088-4.208 8.299-5.595C19.113.693 22.479 0 26 0c3.52 0 6.887.693 10.098 2.08 3.212 1.387 5.978 3.252 8.3 5.596 2.32 2.344 4.168 5.136 5.542 8.379C51.313 19.297 52 22.695 52 26.25c0 3.555-.677 6.934-2.031 10.137-1.354 3.203-3.23 6.015-5.63 8.437zM26 7.5c-3.366 0-6.471.84-9.315 2.52-2.843 1.68-5.097 3.955-6.76 6.826-1.665 2.87-2.496 6.006-2.496 9.404 0 3.398.831 6.533 2.495 9.404 1.664 2.871 3.918 5.137 6.761 6.797 2.844 1.66 5.949 2.49 9.315 2.49 3.366 0 6.471-.83 9.315-2.49 2.843-1.66 5.097-3.926 6.76-6.797 1.665-2.87 2.496-6.006 2.496-9.404 0-3.398-.831-6.533-2.495-9.404-1.664-2.871-3.918-5.147-6.761-6.826C32.47 8.34 29.366 7.5 26 7.5z"/>
    <path fill="#141414" fill-rule="evenodd" d="M20.508 20.553V20h2.827v3.18h-2.827c-.523-.625-1.134-.804-1.745-.804-1.151 0-2.006.84-2.006 2.09 0 .947.855 1.912 2.006 1.912.611 0 1.222-.196 1.745-.804h2.827V28.7c.003 2.728-1.864 4.3-4.516 4.3-2.582 0-4.449-1.5-4.589-3.752l-.01-.166h2.793l.027.168c.123.803.716 1.302 1.762 1.302.977 0 1.71-.607 1.706-1.798v-.678c-.628.375-1.378.607-2.303.607-2.303 0-4.205-1.876-4.205-4.216C14 21.822 15.902 20 18.205 20c.925 0 1.675.16 2.303.553zM24.905 23.181c.64.024 1.152.552 1.152 1.198 0 .66-.537 1.196-1.197 1.196h-.007c.453 2.033 2.162 3.443 4.422 3.443 2.631 0 4.506-1.937 4.506-4.544 0-2.571-1.875-4.455-4.506-4.455-2.18 0-3.848 1.277-4.37 3.163zm4.37 3.371c-1.153 0-1.892-.915-1.892-2.06 0-1.11.74-2.008 1.892-2.008 1.117 0 1.874.898 1.874 2.008 0 1.145-.757 2.06-1.875 2.06z" clip-rule="evenodd"/>
    <path fill="#FE3945" d="M37.066 29.022c1.051 0 1.934-.85 1.934-1.97 0-1.097-.883-1.947-1.934-1.947-1.03 0-1.892.85-1.892 1.947 0 1.12.862 1.97 1.892 1.97z"/>
</svg>
