<svg xmlns="http://www.w3.org/2000/svg" width="16" height="20" fill="none" viewBox="0 0 16 20">
    <path fill="#141414" d="M10.69 8.906c.037.012.075.018.113.018.146 0 .283-.092.333-.239.11-.323.463-.497.786-.387.69.234 1.444-.137 1.678-.828.063-.184-.036-.384-.22-.447-.185-.062-.384.036-.447.22-.11.324-.462.498-.785.388-.69-.233-1.444.137-1.679.828-.062.184.037.384.22.447zM11.522 6.452c.037.013.076.02.113.02.147 0 .284-.093.333-.24.054-.157.165-.283.313-.357.149-.073.316-.083.473-.03.69.234 1.444-.137 1.679-.829.062-.183-.037-.384-.22-.446-.184-.064-.384.036-.447.22-.11.324-.461.498-.785.388-.336-.114-.694-.09-1.011.066-.317.156-.554.427-.668.762-.063.184.036.384.22.446zM12.355 4c.037.012.075.018.113.018.147 0 .284-.092.333-.239.081-.239.342-.367.58-.286.294.1.61.079.888-.058s.486-.375.586-.669c.063-.183-.036-.384-.22-.446-.185-.063-.384.036-.447.22-.039.116-.121.21-.23.263-.11.054-.234.062-.35.023-.606-.205-1.268.12-1.473.726-.063.185.036.385.22.447z"/>
    <path fill="#141414" d="M14.703 8.808c.7-2.275 1.084-4.503 1.14-6.625.015-.608-.25-1.3-.66-1.72-.489-.502-1.154-.604-1.81-.266-1.052.542-1.804 2.138-2.408 3.421l-.102.218c-.134-.614-.54-1.139-1.116-1.413-.136-.653-.654-1.165-1.305-1.298-.008-.036-.016-.072-.027-.109C8.28.558 7.875.213 7.408.157c-.27-.033-.526.024-.748.154-.19-.106-.404-.162-.623-.162-.612 0-1.126.427-1.26.998-.67.183-1.16.797-1.166 1.511-.763.197-1.32.887-1.32 1.708 0 .217.041.433.12.636-.198.245-.308.55-.308.872 0 .193.04.38.115.55-.352-.383-.847-.696-1.403-.676-.194.006-.347.169-.34.363.005.19.161.341.35.341H.86c.33 0 .636.218.86.471-.559.16-1.232.423-1.546 1.015-.189.356-.21.793-.086 1.293-.063.102-.094.222-.087.35l.6 8.516c.054 1.068.934 1.904 2.003 1.904h9.882c1.069 0 1.949-.836 2.003-1.898l.615-8.817c.006-.126-.04-.251-.127-.343-.071-.077-.17-.121-.274-.135zM11.15 4.843c.14-.26.292-.583.452-.925.53-1.123 1.255-2.662 2.094-3.095.38-.196.705-.154.983.132.314.321.469.852.46 1.21-.054 2.081-.435 4.272-1.13 6.51-.024.074-.075.223-.147.427l-.6.266c-.013.006-.025.012-.038.02-.17.102-.365.152-.562.154-.196-.002-.391-.052-.561-.154l-.251-.15c-.283-.17-.606-.26-.936-.26-.089 0-.177.008-.264.021-.244.031-.482.111-.695.239l-.25.15c-.138.082-.293.123-.45.14.007-.027.016-.053.024-.079.098-.332.203-.66.313-.985.04-.119.082-.237.124-.355.092-.258.188-.514.287-.767.043-.108.084-.218.128-.325.307-.75.646-1.477 1.02-2.174zM7.083 9.008c-.04.007-.077.014-.115.023-.117.025-.23.06-.34.109l-.068-.31c.102.009.203.017.297.017.614 0 1.109-.182 1.677-.587.179-.127.337-.223.488-.303-.033.092-.065.183-.096.275l-.069.198c-.103.313-.202.63-.294.948l-.234-.14c-.282-.17-.606-.26-.936-.26-.085 0-.169.009-.253.02l-.057.01zm-.56-4.758c-.079.016-.157-.037-.173-.112-.017-.077.034-.156.111-.173l1.975-.428c.069 0 .128.048.143.114.011.05-.008.09-.02.11-.013.019-.04.052-.091.064l-1.945.425zm.139 1.428l.12-.156c.028-.037.052-.075.073-.114.086-.163.107-.345.066-.525l1.47-.32c.01.044.02.089.037.13.066.162.184.296.347.39l.167.09c.048.024.096.05.143.076l.07.038c.041.023.082.05.123.075l.103.067c.039.027.076.057.113.088.033.026.065.056.096.086.033.032.066.066.097.102.054.065.106.132.149.213-.15.33-.29.666-.426 1.005-.021.052-.044.103-.064.156-.386.098-.76.28-1.22.608-.58.413-1.012.522-1.724.419l-.213-.978c-.145-.662.17-1.063.473-1.45zM4.577 14.43c.195 0 .353.158.353.352 0 .195-.158.352-.353.352H2.113c-.194 0-.352-.157-.352-.352 0-.194.158-.352.352-.352h2.464zM2.113 15.84h3.169c.194 0 .352.158.352.352 0 .195-.158.352-.352.352H2.113c-.194 0-.352-.157-.352-.352 0-.194.158-.352.352-.352zM3.06 5.344l.23-.19-.149-.258c-.094-.162-.143-.345-.143-.53 0-.57.447-1.036 1.017-1.06l.427-.017-.1-.416c-.016-.07-.025-.139-.025-.204 0-.453.354-.835.806-.87l.326-.024v-.35c.01-.317.27-.572.59-.572.184 0 .316.084.393.155l.247.223.237-.234c.108-.107.253-.16.41-.14.19.023.36.17.415.359.018.063.023.124.016.187l-.041.393h.396c.506 0 .93.395.964.9l.016.231.219.077c.55.193.912.714.9 1.296-.006.25-.086.489-.231.7-.236-.2-.49-.336-.703-.448-.055-.03-.109-.057-.163-.087-.015-.009-.033-.024-.04-.06-.008-.051.011-.112.05-.157.153-.178.214-.42.165-.65l-.043-.194c-.086-.395-.498-.661-.893-.573l-.094.02-.003.001-2.041.446c-.404.088-.661.489-.573.894l.021.095v.003l.022.095c.05.235.214.432.435.527.055.024.1.068.117.114.009.026.003.04-.017.073l-.11.143-.121.156-.038.051c-.03.04-.06.083-.09.127l-.045.068c-.027.042-.054.085-.08.13l-.042.075c-.027.05-.05.102-.075.155l-.03.066c-.03.077-.058.157-.08.242l-.007.04c-.018.072-.031.146-.04.225-.004.031-.004.063-.007.095-.002.042-.008.082-.008.125l-.03-.038c-.023-.03-.046-.057-.07-.086-.052-.065-.104-.126-.157-.183l-.077-.083C5.057 6.351 5 6.3 4.945 6.251c-.02-.018-.041-.038-.062-.055-.074-.06-.15-.114-.225-.161-.023-.014-.046-.025-.069-.038-.054-.03-.11-.059-.165-.082-.03-.013-.06-.024-.091-.035-.05-.018-.1-.032-.152-.044-.03-.008-.06-.016-.091-.021-.065-.011-.129-.017-.194-.018-.015 0-.03-.005-.044-.005-.366 0-.699.143-.994.335-.033-.08-.05-.165-.05-.253 0-.206.092-.399.251-.53zM.797 8.267c.15-.28.51-.494 1.138-.674.294-.084.566-.24.788-.452.098-.094.19-.175.28-.248.08-.065.157-.122.232-.17l.008-.006c.147-.096.284-.16.412-.192l.015-.004c.063-.015.124-.023.183-.023.442 0 .917.442 1.411 1.313.26.457.345 1.13.233 1.719l-.078-.01c-.127-.025-.249-.065-.359-.131l-.25-.15c-.284-.17-.607-.26-.937-.26-.089 0-.177.008-.264.02-.244.032-.482.112-.695.24l-.122.073c-.209.125-.45.188-.69.19-.242-.002-.482-.065-.69-.19l-.475-.285C.875 8.99.808 8.965.738 8.952c-.056-.28-.036-.505.06-.685zm5.189 9.685H2.113c-.194 0-.352-.158-.352-.353 0-.194.158-.352.352-.352h3.873c.194 0 .352.158.352.352 0 .195-.158.353-.352.353zm2.112 0h-.704c-.194 0-.352-.158-.352-.353 0-.194.158-.352.352-.352h.704c.194 0 .352.158.352.352 0 .195-.158.353-.352.353z"/>
</svg>
