<svg width="16" height="17" viewBox="0 0 16 17" fill="none" xmlns="http://www.w3.org/2000/svg">
<g clip-path="url(#clip0_1307:10647)">
<path d="M8.08307 4.53321L7.47776 0.2982C7.45376 0.126 7.31307 0 7.14842 0C7.14507 0 7.14107 0 7.13707 0C6.96773 0.00561094 6.82973 0.143489 6.81642 0.320611L6.52442 3.99771C6.50642 4.22451 6.12307 4.22451 6.10507 3.99771L5.81376 0.320611C5.79907 0.139289 5.65507 0 5.48176 0C5.30841 0 5.16376 0.139289 5.14976 0.320611L4.85776 3.99771C4.83976 4.22451 4.45641 4.22451 4.43841 3.99771L4.14707 0.320611C4.13307 0.144211 3.99507 0.0063 3.82573 0C3.82173 0 3.81838 0 3.81507 0C3.65041 0 3.50973 0.126 3.48573 0.2982L2.88107 4.53321C2.70307 5.77431 3.34441 6.9615 4.42573 7.45641L3.91107 15.0304C3.88041 15.4861 4.03241 15.939 4.32907 16.2736C4.62507 16.6082 5.04441 16.8 5.48042 16.8H5.48307C5.91841 16.8 6.33841 16.6082 6.63507 16.2736C6.93173 15.939 7.08373 15.4861 7.05307 15.0304L6.53842 7.45641C7.61976 6.9615 8.26107 5.77431 8.08307 4.53321Z" fill="#00B0F0"/>
<path d="M13.0074 0.0642555C12.9194 -0.00153354 12.8061 -0.0169554 12.7041 0.0201555C12.6754 0.0306555 9.81543 1.13384 9.81543 4.54985C9.81543 7.00895 10.5774 8.25074 11.0061 8.75474L10.5794 9.20273C10.5248 9.26012 10.4908 9.33503 10.4834 9.41552L9.95609 14.9532C9.91074 15.4243 10.0581 15.8961 10.3607 16.2475C10.6634 16.5989 11.0974 16.7998 11.5481 16.7998C12.4301 16.7998 13.1481 16.0459 13.1481 15.1198V0.349855C13.1488 0.235734 13.0961 0.130045 13.0074 0.0642555Z" fill="#00B0F0"/>
</g>
<defs>
<clipPath id="clip0_1307:10647">
<rect width="16" height="16.8" fill="white"/>
</clipPath>
</defs>
</svg>
