<svg xmlns="http://www.w3.org/2000/svg" width="20" height="21" fill="none" viewBox="0 0 20 21">
    <g fill="#A8A8A8" clip-path="url(#clip0)">
        <path d="M13.644 14.02H6.356l-.646 1.65-.112.286h1.405c-.002-.013-.004-.026-.004-.04V15.201c0-.139.107-.251.239-.251s.239.112.239.25v.716c0 .014-.002.027-.004.04h2.292c-.002-.013-.004-.026-.004-.04V15.201c0-.139.107-.251.24-.251.131 0 .238.112.238.25v.716c0 .014-.002.027-.004.04h2.293c-.002-.013-.004-.026-.004-.04V15.201c0-.139.107-.251.239-.251s.238.112.238.25v.716c0 .014-.002.027-.003.04h1.405l-.112-.287-.647-1.649z"/>
        <path d="M19.861 7.584c-.047-.145-.216-.258-.357-.258h-1.827c-.14 0-.31.113-.357.258-.065.2-.107.37-.126.53C16.39 6.49 15.5 4.68 15.5 4.68c-.088-.256-.299-.444-.555-.493-1.646-.313-3.31-.471-4.944-.471-1.635 0-3.3.158-4.946.471-.256.048-.468.237-.555.493 0 0-.89 1.81-1.694 3.434-.02-.16-.06-.33-.126-.53-.048-.145-.216-.258-.357-.258H.496c-.141 0-.31.113-.357.258-.185.566-.185.89 0 1.456.047.145.216.258.357.258H2.32c0 .024.001.048.004.072-.385.122-.665.497-.665.941v6.5c0 .261.202.473.45.473h2.267c.249 0 .45-.212.45-.473V15.67h.367l.782-1.995c.037-.094.124-.155.221-.155h7.608c.097 0 .184.061.22.155l.783 1.995h.367v1.142c0 .261.201.473.45.473h2.267c.248 0 .45-.212.45-.473v-6.5c0-.444-.28-.819-.665-.941.003-.024.004-.048.005-.072h1.823c.141 0 .31-.113.357-.258.185-.566.185-.89 0-1.456zM5.505 5.238s1.088-.29 4.495-.29 4.495.29 4.495.29l1.598 4.06H3.907l1.598-4.06zm-1.986 7.026V10.93h2.752l.818 1.334h-3.57zm12.962 0h-3.57l.818-1.334h2.752v1.334z"/>
    </g>
    <defs>
        <clipPath id="clip0">
            <path fill="#fff" d="M0 0H20V21H0z"/>
        </clipPath>
    </defs>
</svg>
