<svg xmlns="http://www.w3.org/2000/svg" width="20" height="20" fill="none" viewBox="0 0 20 20">
    <path fill="#141414" d="M6.12 13.792c-.618 1.652-1.935 5.162-2.245 5.983-.05.135-.178.224-.321.224H.619c-.124 0-.239-.07-.3-.178-.06-.11-.055-.243.01-.35 0-.003 2.887-4.627 3.928-6.286.548.38 1.196.592 1.862.607zM19.379 20h-2.935c-.143-.001-.27-.09-.32-.225-.31-.82-1.628-4.33-2.245-5.983.667-.015 1.314-.226 1.862-.607 1.041 1.66 3.928 6.283 3.928 6.287.066.106.07.239.01.348-.06.11-.175.178-.3.18zM3.445 7.27v3.075c0 1.524 1.235 2.759 2.759 2.759h1.034c0-1.517 0-4.283-3.793-5.834zm2.07 3.765h-.69c-.19 0-.345-.154-.345-.345 0-.19.154-.345.345-.345h.69c.19 0 .344.155.344.345 0 .19-.154.345-.345.345zM5.516 5.172v.417c.504.275.98.597 1.424.962h2.714V2.068H8.619c-1.713.003-3.1 1.39-3.103 3.104z"/>
    <path fill="#141414" d="M11.376 0H8.618C5.76.001 3.446 2.316 3.445 5.172v1.356c4.483 1.7 4.483 4.982 4.483 6.575h4.138c0-1.493 0-4.865 4.483-6.575V5.172C16.548 2.316 14.233.001 11.376 0zm-.69 11.724H9.308c-.19 0-.344-.154-.344-.345 0-.19.154-.345.344-.345h1.38c.19 0 .345.155.345.345 0 .19-.155.345-.345.345zm0-1.38H9.308c-.19 0-.344-.154-.344-.344 0-.19.154-.345.344-.345h1.38c.19 0 .345.155.345.345 0 .19-.155.345-.345.345zm0-1.378H9.308c-.19 0-.344-.155-.344-.345 0-.19.154-.345.344-.345h1.38c.19 0 .345.154.345.345 0 .19-.155.345-.345.345zM15.17 5.59c-.002.25-.139.481-.358.603-1.291.715-1.291 1.048-1.752 1.048H6.935c-.46 0-.459-.332-1.752-1.048-.22-.122-.356-.352-.358-.603v-.418c0-2.094 1.698-3.791 3.793-3.793h2.758c2.095.002 3.792 1.7 3.793 3.793v.418z"/>
    <path fill="#141414" d="M11.378 2.068h-1.034v4.483h2.717c.44-.365.915-.687 1.417-.962l.004-.417c-.003-1.713-1.39-3.101-3.104-3.104zM12.758 13.104h1.034c1.524 0 2.759-1.235 2.759-2.759V7.27c-3.793 1.565-3.793 4.406-3.793 5.834zm2.414-2.759c.19 0 .344.155.344.345 0 .19-.154.345-.344.345h-.69c-.19 0-.345-.154-.345-.345 0-.19.154-.345.345-.345h.69zM13.92 15.862H6.077l.517-1.38h6.807l.518 1.38zM15.21 19.311H4.79l.516-1.38h9.387l.517 1.38z"/>
</svg>
