<svg width="16" height="16" viewBox="0 0 16 16" fill="none" xmlns="http://www.w3.org/2000/svg">
<g clip-path="url(#clip0_1307:10547)">
<path d="M15.7933 4.74063V4.42622H16V3.48386L15.5139 3.48473V1.47915H15.7145V0.946663H15.3178V0.634003H0.683124V0.946663H0.284635V1.47827H0.485194V3.48473L0 3.48386V4.42534H0.1918V4.74063H0.496579V14.4165H0.109475V15.3658H5.81794V14.4165H5.4177V8.34543H5.5228C5.71985 7.1412 6.75505 6.22249 8.01182 6.22249C9.27122 6.22249 10.3117 7.1412 10.5105 8.34543H10.5832V14.4165H10.1891V15.3667H15.8958V14.4165H15.5052V4.74063H15.7933ZM1.21386 4.29485H0.0937107V3.65376H1.21298L1.21386 4.29485ZM2.54595 4.29485H1.42668V3.65376H2.54595V4.29485ZM3.87629 4.29485H2.75702V3.65376H3.87629V4.29485ZM5.20576 4.29485H4.08736V3.65376H5.20488L5.20576 4.29485ZM6.53873 4.29485H5.42033V3.65376H6.53873V4.29485ZM7.86994 4.29485H6.75067V3.65376H7.86907L7.86994 4.29485ZM9.20291 4.29485H8.08189V3.65376H9.20291V4.29485ZM10.5333 4.29485H9.41486V3.65376H10.5333V4.29485ZM11.8636 4.29485H10.7443V3.65376H11.8636V4.29485ZM13.1948 4.29485H12.0773V3.65376H13.1948V4.29485V4.29485ZM14.5269 4.29485H13.4076V3.65376H14.5269V4.29485ZM14.7388 4.29485V3.65376H15.8581V4.29485H14.7388Z" fill="#8497B0"/>
</g>
<defs>
<clipPath id="clip0_1307:10547">
<rect width="16" height="16" fill="white"/>
</clipPath>
</defs>
</svg>
