<svg width="16" height="16" viewBox="0 0 16 16" fill="none" xmlns="http://www.w3.org/2000/svg">
<path d="M13.9996 4.3655C13.9947 4.30037 13.9402 4.25 13.875 4.25H11.625V3.625C11.625 1.62612 9.99873 0 7.99998 0C6.00123 0 4.37498 1.62612 4.37498 3.625V4.25H2.12498C2.05973 4.25 2.00523 4.30037 2.00036 4.3655L1.12536 15.8655C1.12273 15.9001 1.13461 15.9344 1.15836 15.9599C1.18198 15.9855 1.21523 16 1.24998 16H14.75C14.7847 16 14.818 15.9855 14.8416 15.96C14.8652 15.9345 14.8772 15.9002 14.8746 15.8656L13.9996 4.3655ZM5.37498 3.625C5.37498 2.17762 6.55248 1 7.99998 1C9.44748 1 10.625 2.17762 10.625 3.625V4.25H5.37498V3.625ZM4.87498 7.75C4.18561 7.75 3.62498 7.18925 3.62498 6.5C3.62498 6.00112 3.87498 5.55162 4.37498 5.35437V6.5C4.37498 6.77575 4.59936 7 4.87498 7C5.15061 7 5.37498 6.77575 5.37498 6.5V5.35512C5.87498 5.55237 6.12498 6.00525 6.12498 6.5C6.12498 7.18925 5.56436 7.75 4.87498 7.75ZM11.125 7.75C10.4356 7.75 9.87498 7.18925 9.87498 6.5C9.87498 6.00112 10.125 5.55162 10.625 5.35437V6.5C10.625 6.77575 10.8494 7 11.125 7C11.4006 7 11.625 6.77575 11.625 6.5V5.35512C12.125 5.55237 12.375 6.00525 12.375 6.5C12.375 7.18925 11.8144 7.75 11.125 7.75Z" fill="#FFD966"/>
</svg>
