<svg xmlns="http://www.w3.org/2000/svg" width="20" height="20" fill="none" viewBox="0 0 20 20">
    <path fill="#A8A8A8" d="M12.123.588H7.875c-1.104 0-2.002.898-2.002 2.002v.357h1.172V2.59c0-.457.372-.83.83-.83h4.248c.458 0 .83.373.83.83v.357h1.172V2.59c0-1.103-.898-2.002-2.002-2.002zM10.592 10.588V8.821H9.41v1.767c0 .324-.262.586-.586.586H7.057v1.182h1.767c.324 0 .586.262.586.586v1.768h1.182v-1.768c0-.324.262-.586.586-.586h1.767v-1.182h-1.767c-.324 0-.586-.262-.586-.586zM0 7.097v9.336c0 1.442 1.03 2.647 2.393 2.92V4.177C1.03 4.45 0 5.655 0 7.097zM17.607 4.177v15.176C18.97 19.08 20 17.875 20 16.433V7.097c0-1.442-1.03-2.647-2.393-2.92z"/>
    <path fill="#A8A8A8" d="M16.436 4.119H3.564v15.293h12.872V4.119zm-2.32 8.823c0 .323-.262.586-.586.586h-1.767v1.767c0 .324-.263.586-.586.586H8.823c-.323 0-.586-.262-.586-.586v-1.767H6.47c-.324 0-.586-.263-.586-.586v-2.354c0-.323.262-.586.586-.586h1.767V8.235c0-.324.263-.586.586-.586h2.354c.323 0 .586.262.586.586v1.767h1.767c.324 0 .586.263.586.586v2.354z"/>
</svg>
