<svg xmlns="http://www.w3.org/2000/svg" width="20" height="21" fill="none" viewBox="0 0 20 21">
    <g clip-path="url(#clip0)">
        <path fill="#A8A8A8" d="M17.5 5.54c-.007-.082-.075-.144-.156-.144H14.53v-.782c0-2.498-2.033-4.531-4.531-4.531-2.498 0-4.531 2.033-4.531 4.531v.782H2.656c-.081 0-.15.062-.156.144L1.407 19.915c-.004.043.011.086.041.118.03.032.071.05.114.05h16.875c.044 0 .085-.018.115-.05s.044-.075.041-.118L17.5 5.54zM6.719 4.614c0-1.809 1.472-3.281 3.281-3.281 1.81 0 3.281 1.472 3.281 3.281v.782H6.72v-.782zm-.625 5.157c-.862 0-1.563-.701-1.563-1.563 0-.624.313-1.185.938-1.432v1.432c0 .345.28.625.625.625.344 0 .625-.28.625-.625V6.777c.625.246.937.813.937 1.431 0 .862-.7 1.563-1.562 1.563zm7.812 0c-.862 0-1.562-.701-1.562-1.563 0-.624.312-1.185.937-1.432v1.432c0 .345.28.625.625.625s.625-.28.625-.625V6.777c.625.246.938.813.938 1.431 0 .862-.701 1.563-1.563 1.563z"/>
    </g>
    <defs>
        <clipPath id="clip0">
            <path fill="#fff" d="M0 0H20V20H0z" transform="translate(0 .083)"/>
        </clipPath>
    </defs>
</svg>
