<svg xmlns="http://www.w3.org/2000/svg" width="20" height="20" fill="none" viewBox="0 0 20 20">
    <g clip-path="url(#clip0)">
        <path fill="#141414" d="M19.742 5.926v-.393H20V4.355l-.608.001V1.85h.251v-.665h-.496V.793H.854v.39H.356v.665h.25v2.508H0v1.176h.24v.394h.38v12.095H.138v1.187h7.135V18.02h-.5v-7.589h.131c.247-1.505 1.54-2.653 3.112-2.653 1.574 0 2.875 1.148 3.123 2.653h.091v7.59h-.493v1.187h7.134V18.02h-.489V5.926h.36zM1.517 5.37h-1.4v-.801h1.4v.801zm1.665 0H1.783v-.801h1.4v.801zm1.663 0H3.446v-.801h1.4v.801zm1.662 0H5.11v-.801h1.397l.001.801zm1.666 0H6.775v-.801h1.398v.801zm1.664 0H8.438v-.801h1.398l.001.801zm1.667 0h-1.402v-.801h1.402v.801zm1.663 0h-1.398v-.801h1.398v.801zm1.662 0H13.43v-.801h1.4v.801zm1.665 0h-1.397v-.801h1.397v.801zm1.665 0h-1.4v-.801h1.4v.801zm.265 0v-.801h1.399v.801h-1.4z"/>
    </g>
    <defs>
        <clipPath id="clip0">
            <path fill="#fff" d="M0 0H20V20H0z"/>
        </clipPath>
    </defs>
</svg>
