<svg width="16" height="16" viewBox="0 0 16 16" fill="none" xmlns="http://www.w3.org/2000/svg">
<g clip-path="url(#clip0_1307:10548)">
<path d="M7.35059 1.08472V1.43286C7.83374 1.40015 8.09241 1.43933 8.11926 1.44373C8.27478 1.46912 8.40759 1.56958 8.47449 1.71216L9.15344 3.15918C9.2356 3.17835 9.31384 3.21887 9.37854 3.28198C9.46045 3.36182 9.55847 3.42432 9.66956 3.45142C9.89136 3.50549 10.1114 3.44385 10.267 3.2926C10.4275 3.1366 10.6724 3.09692 10.8616 3.21655C11.1321 3.38745 11.1611 3.74951 10.949 3.96167C10.6497 4.26111 10.2516 4.42603 9.82812 4.42603C9.8009 4.42603 9.7738 4.42529 9.7467 4.42395L10.6594 6.36939C10.698 6.45142 10.7345 6.53406 10.7692 6.61707C11.7969 6.29297 12.9658 6.53369 13.7826 7.34119C13.9652 7.52161 13.9855 7.81629 13.8148 8.00818C13.7195 8.11536 13.5884 8.16895 13.4573 8.16895C13.3351 8.16895 13.2128 8.12232 13.1196 8.02905C12.566 7.47559 11.7712 7.30725 11.0706 7.52319C11.3363 8.58276 11.3186 9.67627 11.0443 10.7017C11.1735 10.7444 11.3049 10.7825 11.4385 10.8157C11.5935 10.8541 11.7555 10.8545 11.9106 10.8162C14.2992 10.2253 16.0001 8.07727 16.0001 5.58862V1.08472C16.0001 0.861694 15.8624 0.661743 15.6537 0.583252C14.9958 0.33606 13.7245 0 11.6755 0C9.62646 0 8.35498 0.336182 7.69702 0.583374C7.48828 0.661743 7.35059 0.861694 7.35059 1.08472V1.08472ZM12.631 3.28626C12.8175 3.09973 13.1199 3.09973 13.3065 3.28626C13.4254 3.40515 13.5835 3.4707 13.7517 3.4707C13.9199 3.4707 14.0781 3.40515 14.197 3.28626C14.3835 3.09961 14.686 3.09961 14.8726 3.28626C15.0591 3.47278 15.0591 3.77515 14.8726 3.96167C14.5731 4.26111 14.1752 4.42603 13.7517 4.42603C13.3284 4.42603 12.9303 4.26111 12.6309 3.96167C12.4445 3.77515 12.4445 3.47278 12.631 3.28626V3.28626Z" fill="#ED7D31"/>
<path d="M9.79453 6.77519L7.87131 2.67607C7.78281 2.48735 7.58676 2.3737 7.37888 2.38945C6.68442 2.44194 5.38181 2.67229 3.50559 3.55254C1.65048 4.4229 0.642183 5.26726 0.151583 5.77043C-0.00405701 5.9301 -0.043852 6.1696 0.0508746 6.37151L1.96384 10.449C3.02085 12.702 5.47336 13.9242 7.88681 13.4445C8.04282 13.4135 8.18882 13.345 8.31235 13.2448C10.224 11.6955 10.8515 9.02825 9.79453 6.77519V6.77519ZM5.92954 6.46965C6.22653 5.64763 7.13694 5.22038 7.95896 5.5175C8.207 5.6071 8.33542 5.88091 8.24582 6.12908C8.15622 6.37712 7.88242 6.50566 7.63425 6.41594C7.30771 6.29802 6.94602 6.4677 6.82798 6.79424C6.75766 6.98882 6.57431 7.10979 6.37876 7.10979C6.3248 7.10979 6.26999 7.10063 6.2164 7.08122C5.96836 6.9915 5.83982 6.7177 5.92954 6.46965V6.46965ZM4.08225 8.08245C3.92404 8.02532 3.75302 8.03313 3.60068 8.10466C3.44846 8.17607 3.3331 8.30254 3.27597 8.46074C3.20566 8.65532 3.02219 8.77629 2.82663 8.77629C2.7728 8.77629 2.71799 8.76702 2.6644 8.74773C2.41623 8.65813 2.28781 8.38433 2.37741 8.13616C2.52133 7.73796 2.81162 7.4196 3.19492 7.23979C3.57834 7.05998 4.00864 7.04009 4.40683 7.18401C4.655 7.27361 4.78342 7.54741 4.69382 7.79558C4.6041 8.04363 4.33029 8.17205 4.08225 8.08245ZM5.68613 11.2048C5.3486 11.2048 5.00571 11.1474 4.67038 11.0262C4.42221 10.9366 4.2938 10.6628 4.38339 10.4146C4.47312 10.1666 4.7468 10.038 4.99497 10.1277C6.05417 10.5104 7.22727 9.96001 7.60996 8.90093C7.69956 8.65276 7.97336 8.52434 8.22153 8.61394C8.46958 8.70366 8.59799 8.97747 8.5084 9.22563C8.06784 10.4448 6.91355 11.2048 5.68613 11.2048V11.2048Z" fill="#ED7D31"/>
</g>
<defs>
<clipPath id="clip0_1307:10548">
<rect width="16" height="16" fill="white"/>
</clipPath>
</defs>
</svg>
