<svg xmlns="http://www.w3.org/2000/svg" width="20" height="19" fill="none" viewBox="0 0 20 19">
    <path fill="#141414" d="M4.727 1.758h-2.97c-.323 0-.585.262-.585.586 0 .324.262.586.586.586h2.969c.323 0 .586-.262.586-.586 0-.324-.263-.586-.586-.586zM4.727 6.445h-2.97c-.323 0-.585.262-.585.586 0 .324.262.586.586.586h2.969c.323 0 .586-.262.586-.586 0-.324-.263-.586-.586-.586zM3.555 4.101H.585c-.323 0-.585.263-.585.586 0 .324.262.586.586.586h2.969c.324 0 .586-.262.586-.586 0-.323-.262-.586-.586-.586zM18.828 7.031h-3.555V4.688c0-1.03-1.259-1.571-2-.829L8.584 8.547c-.458.457-.458 1.199 0 1.657l2.687 2.687L8 16.164c-.458.457-.458 1.199 0 1.657.458.458 1.2.458 1.657 0l4.102-4.102c.458-.457.458-1.2 0-1.657L11.07 9.375l1.858-1.858v.686c0 .647.525 1.172 1.172 1.172h4.727c.647 0 1.172-.525 1.172-1.172 0-.647-.525-1.172-1.172-1.172zM10.943 1.076c-.466-.31-1.084-.249-1.479.146L6.242 4.445c-.458.458-.458 1.2 0 1.657.458.458 1.2.458 1.657 0l2.543-2.544.857.618 1.145-1.145c.191-.192.417-.34.664-.456l-2.165-1.5z"/>
    <path fill="#141414" d="M7.756 11.032c-.297-.297-.495-.662-.6-1.057L.969 16.164c-.458.457-.458 1.199 0 1.657.457.457 1.199.458 1.657 0l5.96-5.96-.829-.829zM15.86 3.516c.97 0 1.758-.787 1.758-1.758S16.83 0 15.86 0c-.97 0-1.758.787-1.758 1.758 0 .97.787 1.758 1.758 1.758z"/>
</svg>
