<svg xmlns="http://www.w3.org/2000/svg" width="20" height="21" fill="none" viewBox="0 0 20 21">
    <g clip-path="url(#clip0)">
        <path fill="#141414" d="M10.102 5.667L9.345.373C9.315.158 9.14 0 8.934 0h-.015c-.211.007-.384.18-.4.4l-.365 4.597c-.023.284-.502.284-.525 0L7.265.401C7.247.174 7.067 0 6.85 0c-.216 0-.397.174-.415.4L6.07 4.998c-.022.284-.501.284-.524 0L5.182.401C5.164.18 4.992.008 4.78 0h-.013c-.206 0-.382.158-.412.373L3.6 5.667c-.222 1.55.58 3.035 1.931 3.654l-.643 9.467c-.038.57.152 1.136.522 1.554.37.418.895.658 1.44.658h.003c.544 0 1.07-.24 1.44-.658.37-.418.56-.984.522-1.554l-.643-9.467c1.352-.62 2.153-2.103 1.93-3.654zM16.258.08c-.11-.082-.252-.101-.38-.055-.035.014-3.61 1.393-3.61 5.663 0 3.073.952 4.626 1.488 5.256l-.533.56c-.069.071-.111.165-.12.266l-.66 6.922c-.056.589.128 1.178.506 1.618.379.439.921.69 1.484.69 1.103 0 2-.942 2-2.1V.438c.001-.143-.065-.275-.175-.357z"/>
    </g>
    <defs>
        <clipPath id="clip0">
            <path fill="#fff" d="M0 0H20V21H0z"/>
        </clipPath>
    </defs>
</svg>
