<svg xmlns="http://www.w3.org/2000/svg" width="20" height="20" fill="none" viewBox="0 0 20 20">
    <g clip-path="url(#clip0)">
        <path fill="#A8A8A8" d="M19.742 5.926v-.393H20V4.355h-.608V1.85h.251v-.666h-.496v-.39H.854v.39H.356v.665h.25v2.508L0 4.355v1.177h.24v.394h.38V18.02H.138v1.186h7.135v-1.186h-.5v-7.59h.131c.247-1.505 1.54-2.653 3.112-2.653 1.574 0 2.875 1.148 3.123 2.654h.091v7.589h-.493v1.187h7.134v-1.187h-.489V5.926h.36zM1.517 5.369h-1.4v-.802h1.4v.802zm1.665 0H1.783v-.802h1.4v.802zm1.663 0H3.446v-.802h1.4v.802zm1.662 0H5.11v-.802h1.397l.001.802zm1.666 0H6.775v-.802h1.398v.802zm1.664 0H8.438v-.802h1.398l.001.802zm1.667 0h-1.402v-.802h1.402v.802zm1.663 0h-1.398v-.802h1.398v.802zm1.662 0H13.43v-.802h1.4v.802zm1.665 0h-1.397v-.802h1.397v.802zm1.665 0h-1.4v-.802h1.4v.802zm.265 0v-.802h1.399v.802h-1.4z"/>
    </g>
    <defs>
        <clipPath id="clip0">
            <path fill="#fff" d="M0 0H20V20H0z"/>
        </clipPath>
    </defs>
</svg>
