<svg width="16" height="16" viewBox="0 0 16 16" fill="none" xmlns="http://www.w3.org/2000/svg">
<path d="M9.69919 0.470581H6.30081C5.41769 0.470581 4.69922 1.18905 4.69922 2.07217V2.3573H5.63672V2.07217C5.63672 1.70599 5.93463 1.40808 6.30081 1.40808H9.69919C10.0654 1.40808 10.3633 1.70599 10.3633 2.07217V2.3573H11.3008V2.07217C11.3008 1.18908 10.5823 0.470581 9.69919 0.470581V0.470581Z" fill="#C00000"/>
<path d="M8.47266 8.47076V7.0567H7.52734V8.47076C7.52734 8.72964 7.31747 8.93951 7.05859 8.93951H5.64453V9.88483H7.05859C7.31747 9.88483 7.52734 10.0947 7.52734 10.3536V11.7676H8.47266V10.3536C8.47266 10.0947 8.68253 9.88483 8.94141 9.88483H10.3555V8.93951H8.94141C8.68253 8.93951 8.47266 8.72967 8.47266 8.47076Z" fill="#C00000"/>
<path d="M0 5.67762V13.1464C0 14.2999 0.823906 15.2643 1.91403 15.4826V3.34137C0.823906 3.55974 0 4.52415 0 5.67762Z" fill="#C00000"/>
<path d="M14.0859 3.34137V15.4826C15.1761 15.2643 16 14.2999 16 13.1464V5.67762C16 4.52415 15.1761 3.55974 14.0859 3.34137V3.34137Z" fill="#C00000"/>
<path d="M13.1485 3.2948H2.85156V15.5292H13.1485V3.2948ZM11.293 10.3534C11.293 10.6122 11.0831 10.8221 10.8243 10.8221H9.41019V12.2362C9.41019 12.495 9.20031 12.7049 8.94144 12.7049H7.05863C6.79975 12.7049 6.58988 12.495 6.58988 12.2362V10.8221H5.17581C4.91694 10.8221 4.70706 10.6122 4.70706 10.3534V8.47055C4.70706 8.21167 4.91694 8.0018 5.17581 8.0018H6.58988V6.58774C6.58988 6.32886 6.79975 6.11899 7.05863 6.11899H8.94144C9.20031 6.11899 9.41019 6.32886 9.41019 6.58774V8.0018H10.8243C11.0831 8.0018 11.293 8.21167 11.293 8.47055V10.3534Z" fill="#C00000"/>
</svg>
