<svg xmlns="http://www.w3.org/2000/svg" width="20" height="20" fill="none" viewBox="0 0 20 20">
    <g fill="#A8A8A8" clip-path="url(#clip0)">
        <path d="M2.969 20.001c1.292 0 2.344-1.051 2.344-2.394 0-.284.001-.639-.191-1.078-.295-.672-.981-2.42-.981-4.145 0-.97.788-1.836 1.757-1.836h.586V9.376H4.727c-.324 0-.586-.263-.586-.586v-.586h2.343V7.032H4.141V5.86h2.343V4.688H4.141V3.517h2.343V2.345H4.141v-.586c0-.323.262-.586.586-.586h1.757V0H2.383C1.413.001.625.789.625 1.759v15.898c0 1.293 1.051 2.344 2.344 2.344zM9.639 12.872c-1.168-.32-2.576.542-3.027 2.216-.456 1.682.331 3.124 1.497 3.44 1.142.31 2.57-.53 3.028-2.217l1.02-3.263h.373l1.02 3.264c.366 1.354 1.438 2.281 2.531 2.281l.011-.001c.533.847 1.577 1.409 2.696 1.409h.586v-1.172h-.586c-.597 0-1.185-.26-1.544-.65.937-.718 1.126-2.001.83-3.091-.453-1.679-1.862-2.535-3.027-2.216-.45.122-.822.404-1.098.784l-.376-1.179.622-2.011L10.855 0l-.551.176c-1.547.492-2.402 2.12-1.922 3.668l2.73 8.632-.371 1.184c-.277-.383-.65-.667-1.102-.79zm.367 3.133c-.25.92-.974 1.555-1.591 1.392-.723-.196-.87-1.272-.673-2.003h.001c.202-.749.866-1.58 1.59-1.392.613.166.92 1.084.672 2.003zm5.347-2.002c.728-.19 1.392.657 1.59 1.39v.001c.198.73.05 1.807-.672 2.003-.616.166-1.342-.472-1.59-1.391-.249-.92.059-1.838.672-2.004z"/>
        <path d="M16.305 3.845c.48-1.547-.375-3.176-1.922-3.668L13.832 0l-.879 2.707 1.852 5.824 1.5-4.687z"/>
    </g>
    <defs>
        <clipPath id="clip0">
            <path fill="#fff" d="M0 0H20V20H0z" transform="translate(0 .001)"/>
        </clipPath>
    </defs>
</svg>
