<svg xmlns="http://www.w3.org/2000/svg" width="20" height="20" fill="none" viewBox="0 0 20 20">
    <path fill="#141414" d="M17.5 5.457c-.007-.082-.075-.144-.156-.144H14.53V4.53C14.531 2.033 12.498 0 10 0 7.502 0 5.469 2.033 5.469 4.531v.782H2.656c-.081 0-.15.062-.156.144L1.407 19.832c-.004.043.011.086.041.118.03.032.071.05.114.05h16.875c.044 0 .085-.018.115-.05s.044-.075.041-.118L17.5 5.457zM6.719 4.53C6.719 2.722 8.19 1.25 10 1.25c1.81 0 3.281 1.472 3.281 3.281v.782H6.72V4.53zm-.625 5.157c-.862 0-1.563-.701-1.563-1.563 0-.624.313-1.185.938-1.432v1.432c0 .345.28.625.625.625.344 0 .625-.28.625-.625V6.694c.625.246.937.813.937 1.431 0 .862-.7 1.563-1.562 1.563zm7.812 0c-.862 0-1.562-.701-1.562-1.563 0-.624.312-1.185.937-1.432v1.432c0 .345.28.625.625.625s.625-.28.625-.625V6.694c.625.246.938.813.938 1.431 0 .862-.701 1.563-1.563 1.563z"/>
</svg>
