<svg xmlns="http://www.w3.org/2000/svg" width="20" height="20" fill="none" viewBox="0 0 20 20">
    <path fill="#A8A8A8" d="M6.121 13.793c-.617 1.652-1.934 5.162-2.244 5.983-.05.134-.178.224-.321.224H.62c-.124-.001-.24-.07-.3-.179-.06-.11-.055-.243.01-.349 0-.003 2.887-4.627 3.928-6.286.548.38 1.196.591 1.862.607zM19.38 20h-2.934c-.143 0-.27-.09-.32-.224-.31-.821-1.628-4.331-2.245-5.983.667-.016 1.314-.227 1.862-.607 1.041 1.659 3.928 6.283 3.928 6.286.066.106.07.24.01.349-.06.11-.175.178-.3.179zM3.45 7.269v3.076c0 1.523 1.234 2.758 2.758 2.758h1.034c0-1.517 0-4.282-3.793-5.834zm2.068 3.766h-.69c-.19 0-.344-.155-.344-.345 0-.19.154-.345.345-.345h.69c.19 0 .344.154.344.345 0 .19-.154.345-.345.345zM5.518 5.172v.418c.504.275.98.597 1.424.962h2.714V2.069H8.62c-1.713.003-3.1 1.39-3.103 3.103z"/>
    <path fill="#A8A8A8" d="M11.38 0H8.622C5.765.001 3.45 2.316 3.449 5.172v1.356c4.483 1.7 4.483 4.982 4.483 6.575h4.138c0-1.493 0-4.865 4.483-6.575V5.172C16.552 2.316 14.236.001 11.38 0zm-.69 11.724H9.312c-.19 0-.345-.154-.345-.345 0-.19.155-.345.345-.345h1.38c.19 0 .344.155.344.345 0 .19-.154.345-.344.345zm0-1.38H9.312c-.19 0-.345-.154-.345-.344 0-.19.155-.345.345-.345h1.38c.19 0 .344.155.344.345 0 .19-.154.345-.344.345zm0-1.378H9.312c-.19 0-.345-.155-.345-.345 0-.19.155-.345.345-.345h1.38c.19 0 .344.154.344.345 0 .19-.154.345-.344.345zm4.483-3.376c-.002.25-.139.481-.358.603-1.291.715-1.291 1.048-1.752 1.048H6.939c-.46 0-.459-.332-1.752-1.048-.22-.122-.357-.352-.358-.603v-.418c0-2.094 1.698-3.791 3.793-3.793h2.758c2.095.002 3.792 1.7 3.793 3.793v.418z"/>
    <path fill="#A8A8A8" d="M11.38 2.069h-1.034v4.483h2.717c.44-.365.915-.687 1.417-.962l.004-.418c-.003-1.713-1.39-3.1-3.104-3.103zM12.76 13.104h1.034c1.524 0 2.759-1.236 2.759-2.76V7.27c-3.793 1.566-3.793 4.407-3.793 5.835zm2.414-2.76c.19 0 .344.155.344.346 0 .19-.154.345-.344.345h-.69c-.19 0-.345-.155-.345-.345 0-.19.155-.345.345-.345h.69zM13.921 15.862h-7.84l.516-1.38h6.807l.518 1.38zM15.212 19.31H4.79l.517-1.379h9.387l.517 1.38z"/>
</svg>
