<svg xmlns="http://www.w3.org/2000/svg" width="20" height="20" fill="none" viewBox="0 0 20 20">
    <path fill="#141414" d="M2.969 20c1.292 0 2.344-1.051 2.344-2.394 0-.285.001-.639-.191-1.078-.295-.672-.981-2.42-.981-4.145 0-.97.788-1.836 1.757-1.836h.586V9.375H4.727c-.324 0-.586-.263-.586-.586v-.586h2.343V7.031H4.141V5.86h2.343V4.688H4.141V3.516h2.343V2.344H4.141v-.586c0-.323.262-.586.586-.586h1.757V0H2.383C1.413 0 .625.789.625 1.758v15.898C.625 18.95 1.676 20 2.969 20zM9.64 12.87c-1.169-.319-2.576.543-3.028 2.216-.456 1.682.332 3.125 1.498 3.44 1.141.31 2.57-.528 3.027-2.216l1.02-3.263h.374l1.02 3.264c.365 1.354 1.438 2.281 2.53 2.281l.011-.001C16.626 19.438 17.67 20 18.79 20h.586v-1.172h-.586c-.598 0-1.186-.26-1.544-.65.936-.719 1.125-2.001.83-3.092-.453-1.678-1.862-2.534-3.027-2.215-.45.122-.822.404-1.098.784l-.376-1.178.621-2.012L10.855 0l-.55.176c-1.547.492-2.403 2.12-1.922 3.668l2.73 8.633-.372 1.183c-.276-.383-.65-.667-1.102-.79zm.366 3.134c-.249.921-.974 1.555-1.59 1.392-.724-.196-.87-1.272-.673-2.003.202-.748.867-1.58 1.59-1.391.614.165.921 1.083.673 2.002zm5.347-2.002c.728-.19 1.393.657 1.59 1.39.198.73.051 1.808-.671 2.004-.616.166-1.342-.472-1.59-1.391-.25-.92.058-1.837.671-2.003z"/>
    <path fill="#141414" d="M16.305 3.844c.48-1.547-.375-3.176-1.922-3.668L13.833 0l-.88 2.707 1.852 5.824 1.5-4.687z"/>
</svg>
