<svg width="16" height="16" viewBox="0 0 16 16" fill="none" xmlns="http://www.w3.org/2000/svg">
<g clip-path="url(#clip0_1307:10553)">
<path d="M10.2137 7.12425C10.2436 7.13439 10.2743 7.13918 10.3041 7.13918C10.4216 7.13918 10.5311 7.06539 10.5708 6.94795C10.659 6.6894 10.9409 6.55056 11.1994 6.63815C11.752 6.82515 12.355 6.52859 12.5423 5.97574C12.5924 5.82873 12.5136 5.66848 12.3663 5.61834C12.2184 5.56849 12.059 5.64735 12.0089 5.79465C11.921 6.05347 11.6391 6.19232 11.3803 6.10445C10.8285 5.91829 10.225 6.21429 10.0374 6.76685C9.98756 6.91415 10.0664 7.07412 10.2137 7.12425Z" fill="#609695"/>
<path d="M10.8796 5.16184C10.9094 5.17198 10.9401 5.17677 10.97 5.17677C11.0874 5.17677 11.197 5.10298 11.2367 4.98554C11.2792 4.86021 11.3679 4.75882 11.4868 4.70024C11.6056 4.64166 11.74 4.63322 11.8653 4.67574C12.4179 4.86275 13.0206 4.56619 13.2082 4.01305C13.2583 3.86604 13.1791 3.70579 13.0321 3.65566C12.8848 3.60496 12.7249 3.68467 12.675 3.83196C12.5871 4.09107 12.3058 4.22991 12.0464 4.14204C11.7783 4.05108 11.4913 4.06966 11.2378 4.19499C10.9844 4.32004 10.7945 4.53661 10.7036 4.80445C10.6534 4.95175 10.7323 5.11171 10.8796 5.16184Z" fill="#609695"/>
<path d="M11.5456 3.19931C11.5757 3.20945 11.6062 3.21423 11.6363 3.21423C11.7537 3.21423 11.8633 3.14044 11.903 3.023C11.9678 2.83205 12.1765 2.72926 12.3671 2.79403C12.6023 2.87374 12.8544 2.8574 13.0771 2.74784C13.2996 2.63801 13.4661 2.44818 13.5461 2.21302C13.5962 2.066 13.5173 1.90575 13.37 1.85562C13.2222 1.80521 13.0628 1.88463 13.0126 2.03193C12.9811 2.12459 12.9155 2.1995 12.8279 2.24259C12.7403 2.28568 12.6412 2.29216 12.5482 2.26033C12.0633 2.0967 11.5341 2.35693 11.3696 2.84163C11.3195 2.98921 11.3983 3.14918 11.5456 3.19931Z" fill="#609695"/>
<path d="M13.4248 7.04586C13.985 5.2265 14.2919 3.44374 14.3359 1.74633C14.3485 1.25966 14.1365 0.70681 13.8087 0.370255C13.4175 -0.0310753 12.8854 -0.113031 12.3605 0.157339C11.5192 0.591339 10.9177 1.86799 10.4344 2.89427C10.4065 2.95342 10.3792 3.01115 10.3521 3.06832C10.2454 2.57743 9.92095 2.15751 9.45963 1.9384C9.35092 1.41569 8.93635 1.00619 8.41533 0.900012C8.4097 0.870722 8.40266 0.841995 8.39392 0.812987C8.28662 0.446297 7.96274 0.170294 7.58873 0.125796C7.37243 0.099322 7.1674 0.144947 6.98997 0.248589C6.83789 0.164098 6.66722 0.119036 6.49204 0.119036C6.00227 0.119036 5.5908 0.46066 5.4835 0.917755C4.94811 1.06364 4.55551 1.5551 4.55129 2.12625C3.94042 2.28397 3.49544 2.83598 3.49544 3.49247C3.49544 3.66652 3.5281 3.83888 3.59091 4.00138C3.43235 4.19712 3.34448 4.44214 3.34448 4.69928C3.34448 4.85361 3.3763 5.00232 3.43629 5.13975C3.15494 4.83277 2.75896 4.58183 2.31426 4.59817C2.15879 4.60324 2.03656 4.73307 2.04135 4.88853C2.04614 5.0409 2.17118 5.16144 2.3227 5.16144C2.33228 5.16172 2.34101 5.16088 2.35002 5.16088C2.61392 5.16088 2.85922 5.33549 3.03778 5.53827C2.5911 5.66698 2.05262 5.87651 1.8014 6.35022C1.65044 6.63496 1.6327 6.98447 1.73211 7.38439C1.68198 7.46635 1.65748 7.56238 1.66283 7.66518L2.14218 14.4774C2.18583 15.3316 2.88992 16.0005 3.74496 16.0005H11.6508C12.5058 16.0005 13.2099 15.3316 13.2533 14.4825L13.745 7.42861C13.7504 7.32778 13.7135 7.22752 13.6439 7.15429C13.5867 7.09261 13.5073 7.05713 13.4248 7.04586ZM10.5822 3.87408C10.6938 3.66595 10.8154 3.40798 10.9441 3.13451C11.3674 2.23553 11.9476 1.0045 12.6187 0.658087C12.9229 0.501498 13.1829 0.535294 13.4053 0.763419C13.6566 1.02083 13.7802 1.44554 13.7729 1.73168C13.7298 3.39671 13.4256 5.14905 12.8686 6.94025C12.8502 6.99911 12.8097 7.11796 12.752 7.28103L12.272 7.49423C12.2616 7.49902 12.2515 7.50408 12.2416 7.51028C12.1059 7.59167 11.949 7.63195 11.7921 7.63364C11.6353 7.63195 11.4787 7.59167 11.3429 7.51028L11.1421 7.38974C10.916 7.25427 10.6571 7.18246 10.3935 7.18246C10.3223 7.18246 10.2516 7.18865 10.1817 7.19907C9.98657 7.22414 9.79619 7.28779 9.62608 7.39002L9.42556 7.51056C9.316 7.57618 9.1918 7.60829 9.06591 7.62209C9.0721 7.60097 9.07914 7.58013 9.08534 7.559C9.16335 7.29314 9.24756 7.03094 9.33543 6.77099C9.36754 6.67579 9.40105 6.58145 9.43485 6.4871C9.50836 6.28038 9.58524 6.07591 9.66466 5.87341C9.69874 5.78695 9.73141 5.69936 9.76662 5.61375C10.0122 5.01302 10.2834 4.43144 10.5822 3.87408ZM7.32821 7.20611C7.29723 7.21147 7.26654 7.2171 7.23612 7.22442C7.14318 7.24498 7.05193 7.27286 6.96434 7.31145L6.91027 7.06417C6.99138 7.07093 7.07221 7.07769 7.14797 7.07769C7.63914 7.07769 8.03456 6.93152 8.48912 6.6082C8.63219 6.50625 8.75892 6.42908 8.87946 6.36515C8.85355 6.43866 8.82792 6.51188 8.80286 6.58567C8.78483 6.63862 8.7654 6.69072 8.74794 6.74395C8.66514 6.99461 8.58628 7.24723 8.51277 7.50211L8.32549 7.39002C8.09933 7.25456 7.84051 7.18274 7.5769 7.18274C7.50874 7.18274 7.44143 7.18922 7.3744 7.19879C7.35919 7.20048 7.3437 7.20386 7.32821 7.20611ZM6.8807 3.39953C6.81761 3.41248 6.75509 3.37024 6.74213 3.31053C6.72861 3.24885 6.76945 3.18548 6.83113 3.17197L8.4111 2.82922C8.46574 2.82922 8.51362 2.8678 8.52517 2.92075C8.53418 2.9613 8.51897 2.99313 8.50883 3.00862C8.49897 3.02383 8.47673 3.05058 8.43617 3.05959L6.8807 3.39953ZM6.99166 4.54184C7.02461 4.4996 7.05672 4.45848 7.0877 4.41736C7.10995 4.38779 7.12938 4.35709 7.14571 4.32639C7.215 4.19599 7.23133 4.04982 7.19923 3.90647L8.37477 3.64962C8.38266 3.68567 8.39111 3.72144 8.40463 3.75467C8.45729 3.88366 8.55136 3.99096 8.68232 4.06588C8.72513 4.08954 8.76991 4.11319 8.8161 4.13769C8.85412 4.15769 8.89214 4.17853 8.93044 4.19937C8.94875 4.20923 8.96733 4.21909 8.98564 4.22923C9.01916 4.2481 9.05154 4.26894 9.08421 4.2895C9.1121 4.30668 9.1397 4.32442 9.16673 4.34329C9.19799 4.36497 9.22785 4.38891 9.2577 4.41313C9.28389 4.43454 9.30896 4.45791 9.33374 4.48185C9.3605 4.50805 9.38697 4.5348 9.41147 4.56409C9.45485 4.61591 9.49653 4.6697 9.53061 4.7342C9.41119 4.99781 9.29882 5.26677 9.19011 5.53799C9.17321 5.57995 9.15519 5.62079 9.13857 5.66275C8.8299 5.74105 8.53164 5.8875 8.16326 6.1497C7.69913 6.47949 7.35356 6.56708 6.78409 6.48456L6.61314 5.7019C6.49711 5.17242 6.74861 4.85192 6.99166 4.54184ZM5.3241 11.5447C5.47956 11.5447 5.60573 11.6706 5.60573 11.8263C5.60573 11.9821 5.47956 12.108 5.3241 12.108H3.35265C3.19718 12.108 3.07101 11.9821 3.07101 11.8263C3.07101 11.6706 3.19718 11.5447 3.35265 11.5447H5.3241ZM3.35265 12.6713H5.88737C6.04283 12.6713 6.169 12.7971 6.169 12.9529C6.169 13.1086 6.04283 13.2345 5.88737 13.2345H3.35265C3.19718 13.2345 3.07101 13.1086 3.07101 12.9529C3.07101 12.7971 3.19718 12.6713 3.35265 12.6713ZM4.1094 4.27513L4.29387 4.12305L4.17418 3.91661C4.09926 3.78706 4.05955 3.64061 4.05955 3.49247C4.05955 3.03622 4.41695 2.66418 4.8732 2.64503L5.2151 2.63066L5.1354 2.29805C5.12188 2.24229 5.11512 2.18737 5.11512 2.13527C5.11512 1.77252 5.39845 1.46694 5.76007 1.43934L6.0203 1.41963V1.1394C6.02847 0.886212 6.23716 0.682589 6.4926 0.682589C6.63962 0.682589 6.74495 0.749619 6.80719 0.805946L7.00462 0.984221L7.19387 0.797215C7.28034 0.711598 7.39665 0.669916 7.52254 0.685687C7.6735 0.70343 7.80981 0.821154 7.85375 0.972392C7.86867 1.02309 7.8729 1.07209 7.86698 1.12194L7.83403 1.43625H8.15115C8.55586 1.43625 8.89439 1.75252 8.92227 2.15639L8.93495 2.34142L9.10984 2.40282C9.55004 2.55744 9.83956 2.97398 9.8297 3.44008C9.82548 3.6392 9.76127 3.83099 9.64495 3.99913C9.45654 3.83916 9.25348 3.73129 9.0828 3.64145C9.03859 3.61808 8.99578 3.59555 8.95269 3.57161C8.94058 3.56485 8.92593 3.55302 8.92086 3.52345C8.91411 3.48289 8.92931 3.43417 8.96001 3.3984C9.08281 3.25589 9.13209 3.06157 9.09238 2.87822L9.0583 2.72304C8.9893 2.40733 8.65951 2.19413 8.34379 2.26482L8.2686 2.28115C8.26775 2.28143 8.26691 2.28115 8.26634 2.28143L7.43974 2.46224L6.63314 2.63827C6.30982 2.70896 6.10423 3.02946 6.1752 3.35306L6.1921 3.42966C6.1921 3.42994 6.1921 3.43023 6.1921 3.43051C6.1921 3.43079 6.19238 3.43107 6.19238 3.43163L6.20899 3.50796C6.24983 3.69553 6.38023 3.85352 6.55738 3.92957C6.60131 3.94844 6.63793 3.9842 6.6506 4.02053C6.65792 4.04138 6.6537 4.05208 6.63736 4.07911C6.6092 4.11657 6.57935 4.15487 6.54865 4.19374C6.51739 4.23345 6.485 4.27541 6.45233 4.3185C6.44219 4.33174 6.43261 4.34554 6.42247 4.35906C6.39825 4.39173 6.37431 4.42553 6.35009 4.46045C6.33798 4.47819 6.32616 4.4965 6.31404 4.5148C6.29236 4.54832 6.27124 4.58268 6.25068 4.61845C6.23913 4.63844 6.22786 4.65816 6.2166 4.67872C6.19519 4.71843 6.17576 4.76039 6.15689 4.80292C6.14901 4.82066 6.14056 4.83756 6.13323 4.85587C6.10845 4.91754 6.08648 4.98176 6.06874 5.04935C6.06621 5.05949 6.06508 5.07047 6.06254 5.08089C6.04874 5.13891 6.03804 5.19862 6.03072 5.26142C6.0279 5.2862 6.02734 5.31211 6.02565 5.33774C6.0234 5.37098 6.01917 5.4028 6.01917 5.43744C6.011 5.42674 6.00312 5.41773 5.99495 5.40731C5.97636 5.38309 5.95778 5.36112 5.93919 5.33803C5.89751 5.28649 5.85554 5.23748 5.81358 5.19157C5.79302 5.16904 5.77218 5.14679 5.75162 5.12567C5.7074 5.08061 5.66262 5.03921 5.61812 5.00034C5.60151 4.98598 5.58517 4.96993 5.56856 4.95641C5.50913 4.90797 5.44914 4.86516 5.38859 4.8277C5.37028 4.81644 5.3517 4.80799 5.33339 4.79757C5.28974 4.77306 5.2458 4.75053 5.20158 4.73166C5.17736 4.72124 5.15286 4.71223 5.12836 4.70378C5.08808 4.68942 5.04781 4.67787 5.00726 4.6683C4.98275 4.66238 4.95825 4.6559 4.93375 4.65168C4.88249 4.64295 4.83095 4.63844 4.77913 4.63703C4.7673 4.63675 4.75547 4.63365 4.74364 4.63365C4.45102 4.63365 4.1846 4.74772 3.94831 4.90177C3.92239 4.83812 3.90888 4.76968 3.90888 4.69899C3.90859 4.53452 3.98182 4.3799 4.1094 4.27513ZM2.29989 6.61355C2.41902 6.38909 2.70826 6.21786 3.21042 6.07422C3.4453 6.00719 3.66329 5.88186 3.84016 5.71288C3.91873 5.63769 3.99309 5.57263 4.0649 5.51433C4.12883 5.46223 4.19051 5.4166 4.24994 5.37745C4.25219 5.37605 4.25444 5.37464 4.2567 5.37323C4.37442 5.29662 4.48369 5.24565 4.58593 5.21946C4.59015 5.21833 4.5941 5.21749 4.59832 5.21664C4.64845 5.20481 4.69717 5.19805 4.74421 5.19805C5.09851 5.19805 5.47843 5.55151 5.87357 6.24855C6.08057 6.61383 6.14957 7.15317 6.05973 7.6235C6.03861 7.62153 6.01805 7.61871 5.9972 7.61533C5.8961 7.5959 5.79809 7.56351 5.71022 7.51084L5.50941 7.3903C5.28326 7.25484 5.02444 7.18302 4.76082 7.18302C4.68957 7.18302 4.61888 7.18922 4.54903 7.19964C4.35386 7.2247 4.16347 7.28835 3.99337 7.39059L3.89564 7.44917C3.72863 7.54915 3.53627 7.59956 3.34335 7.60125C3.15043 7.59956 2.95779 7.54943 2.79106 7.44917L2.4117 7.22132C2.36241 7.19203 2.30862 7.17147 2.25286 7.16105C2.20808 6.93743 2.22385 6.75719 2.29989 6.61355ZM6.45064 14.3611H3.35265C3.19718 14.3611 3.07101 14.2352 3.07101 14.0794C3.07101 13.9237 3.19718 13.7978 3.35265 13.7978H6.45064C6.6061 13.7978 6.73227 13.9237 6.73227 14.0794C6.73227 14.2352 6.6061 14.3611 6.45064 14.3611ZM8.14045 14.3611H7.57718C7.42172 14.3611 7.29555 14.2352 7.29555 14.0794C7.29555 13.9237 7.42172 13.7978 7.57718 13.7978H8.14045C8.29592 13.7978 8.42209 13.9237 8.42209 14.0794C8.42209 14.2352 8.29592 14.3611 8.14045 14.3611Z" fill="#609695"/>
</g>
<defs>
<clipPath id="clip0_1307:10553">
<rect width="16" height="16" fill="white"/>
</clipPath>
</defs>
</svg>
