<svg width="16" height="17" viewBox="0 0 16 17" fill="none" xmlns="http://www.w3.org/2000/svg">
<path d="M4.80761 11.3506C4.29966 12.7099 3.21567 15.5986 2.96028 16.274C2.91949 16.3846 2.81424 16.4582 2.69637 16.4585H0.281505C0.178754 16.4576 0.0844744 16.4013 0.0350233 16.3113C-0.0144279 16.2212 -0.0113235 16.1114 0.0431392 16.0243C0.0431392 16.0215 2.41828 12.2161 3.27526 10.8512C3.7261 11.1642 4.25893 11.3378 4.80761 11.3506V11.3506Z" fill="#7F7F7F"/>
<path d="M15.7185 16.4585H13.3036C13.1858 16.4582 13.0805 16.3846 13.0397 16.274C12.7843 15.5986 11.7003 12.7099 11.1924 11.3506C11.7411 11.3378 12.2739 11.1642 12.7247 10.8512C13.5817 12.2161 15.9569 16.0215 15.9569 16.0243C16.0113 16.1114 16.0144 16.2212 15.965 16.3113C15.9155 16.4013 15.8212 16.4576 15.7185 16.4585Z" fill="#7F7F7F"/>
<path d="M2.6084 5.98187V8.51309C2.6084 9.76685 3.62478 10.7832 4.87855 10.7832H5.72985C5.72985 9.53465 5.72985 7.25883 2.6084 5.98187ZM4.31101 9.08062H3.74347C3.58675 9.08062 3.4597 8.95358 3.4597 8.79686C3.4597 8.64013 3.58675 8.51309 3.74347 8.51309H4.31101C4.46773 8.51309 4.59478 8.64013 4.59478 8.79686C4.59478 8.95358 4.46773 9.08062 4.31101 9.08062Z" fill="#7F7F7F"/>
<path d="M4.31055 4.25649V4.59985C4.72529 4.82621 5.1177 5.09129 5.48251 5.39156H7.71577V1.70258H6.86446C5.45488 1.70476 4.31273 2.84691 4.31055 4.25649Z" fill="#7F7F7F"/>
<path d="M9.13507 0H6.86493C4.51444 0.000783104 2.60918 1.90604 2.6084 4.25653V5.37174C6.29739 6.77071 6.29739 9.47219 6.29739 10.7832H9.70261C9.70261 9.55448 9.70261 6.77923 13.3916 5.37174V4.25653C13.3908 1.90604 11.4856 0.000783104 9.13507 0ZM8.56754 9.64813H7.43246C7.27574 9.64813 7.14869 9.52108 7.14869 9.36436C7.14869 9.20764 7.27574 9.08059 7.43246 9.08059H8.56754C8.72426 9.08059 8.8513 9.20764 8.8513 9.36436C8.8513 9.52108 8.72426 9.64813 8.56754 9.64813ZM8.56754 8.51305H7.43246C7.27574 8.51305 7.14869 8.38601 7.14869 8.22928C7.14869 8.07256 7.27574 7.94552 7.43246 7.94552H8.56754C8.72426 7.94552 8.8513 8.07256 8.8513 8.22928C8.8513 8.38601 8.72426 8.51305 8.56754 8.51305ZM8.56754 7.37798H7.43246C7.27574 7.37798 7.14869 7.25093 7.14869 7.09421C7.14869 6.93749 7.27574 6.81044 7.43246 6.81044H8.56754C8.72426 6.81044 8.8513 6.93749 8.8513 7.09421C8.8513 7.25093 8.72426 7.37798 8.56754 7.37798ZM12.2565 4.59989C12.2549 4.80653 12.1421 4.99628 11.9614 5.09648C10.899 5.68502 10.899 5.95914 10.5199 5.95914H5.48014C5.10216 5.95914 5.10272 5.68587 4.03859 5.09648C3.85786 4.99628 3.74509 4.80653 3.74347 4.59989V4.25653C3.74457 2.53305 5.14145 1.13617 6.86493 1.13507H9.13507C10.8586 1.13617 12.2554 2.53305 12.2565 4.25653V4.59989Z" fill="#7F7F7F"/>
<path d="M9.13549 1.70258H8.28418V5.39156H10.5203C10.8831 5.09133 11.2736 4.82623 11.6866 4.59985L11.6894 4.25649C11.6872 2.84691 10.5451 1.70476 9.13549 1.70258Z" fill="#7F7F7F"/>
<path d="M10.2705 10.7832H11.1218C12.3756 10.7832 13.392 9.76685 13.392 8.51309V5.98187C10.2705 7.27018 10.2705 9.60843 10.2705 10.7832ZM12.2569 8.51309C12.4136 8.51309 12.5407 8.64013 12.5407 8.79686C12.5407 8.95358 12.4136 9.08062 12.2569 9.08062H11.6894C11.5326 9.08062 11.4056 8.95358 11.4056 8.79686C11.4056 8.64013 11.5326 8.51309 11.6894 8.51309H12.2569Z" fill="#7F7F7F"/>
<path d="M11.2263 13.0533H4.77344L5.19909 11.9183H10.8007L11.2263 13.0533Z" fill="#7F7F7F"/>
<path d="M12.2884 15.8911H3.71289L4.13854 14.756H11.8627L12.2884 15.8911Z" fill="#7F7F7F"/>
</svg>
