<svg xmlns="http://www.w3.org/2000/svg" width="18" height="18" fill="none" viewBox="0 0 18 18">
    <path fill="#5B5B5B" d="M9.304 17.482c1.3-.184 2.44-1.541 3.156-3.545-1.036-.232-2.094-.357-3.156-.372v3.917zM11.38 17.164c.078-.022.154-.045.23-.07.064-.02.128-.042.19-.064l.224-.08.189-.076.216-.091c.062-.027.124-.056.186-.085l.21-.102.182-.095.203-.112c.06-.034.12-.07.178-.105l.197-.121.174-.114c.064-.043.127-.088.19-.133.057-.04.113-.08.168-.121l.184-.144.162-.13c.06-.051.118-.104.177-.156.052-.046.104-.09.154-.138.058-.054.115-.11.171-.166.05-.048.099-.096.147-.145l.026-.029c-.662-.342-1.36-.61-2.082-.801-.374 1.196-1.042 2.28-1.941 3.153l.074-.018c.065-.018.128-.038.192-.057zM17.5 9.304h-3.643c-.014 1.422-.22 2.836-.613 4.203.802.214 1.576.522 2.306.918 1.198-1.445 1.884-3.245 1.95-5.121zM9.304 8.695h3.945c-.015-1.372-.216-2.735-.598-4.053-1.098.25-2.22.384-3.347.399v3.654zM9.304.517v3.916c1.062-.014 2.12-.139 3.156-.371-.717-2.004-1.856-3.36-3.156-3.545zM9.304 12.958c1.126.015 2.249.15 3.347.4.382-1.318.583-2.682.598-4.054H9.304v3.654zM15.55 3.575c-.73.396-1.504.704-2.306.918.393 1.367.6 2.78.613 4.203H17.5c-.066-1.875-.752-3.676-1.95-5.12zM15.14 3.114l-.027-.028c-.048-.05-.098-.098-.147-.146-.056-.055-.112-.112-.17-.166-.05-.047-.103-.09-.154-.138-.06-.052-.118-.105-.179-.155-.052-.044-.106-.087-.16-.13-.06-.049-.123-.098-.185-.145-.055-.041-.11-.081-.167-.121-.063-.046-.127-.091-.192-.135l-.172-.112c-.066-.042-.131-.084-.198-.124-.059-.035-.118-.07-.177-.103-.068-.04-.136-.077-.205-.114l-.182-.094c-.07-.035-.14-.069-.213-.102-.06-.03-.123-.057-.185-.085-.072-.032-.145-.06-.217-.09-.063-.026-.125-.052-.188-.076-.074-.028-.149-.054-.224-.08l-.19-.065c-.076-.025-.152-.047-.23-.07l-.19-.054-.075-.018c.9.873 1.567 1.957 1.942 3.153.722-.19 1.42-.46 2.084-.802zM.5 8.696h3.643c.014-1.422.22-2.836.613-4.203-.802-.214-1.576-.522-2.305-.918C1.252 5.02.566 6.82.5 8.696zM8.696 17.482v-3.917c-1.062.015-2.12.14-3.156.372.717 2.004 1.856 3.36 3.156 3.545zM8.696 9.304H4.75c.016 1.372.217 2.736.599 4.054 1.098-.251 2.22-.385 3.347-.4V9.304zM8.696.517C7.396.7 6.256 2.058 5.54 4.062c1.036.232 2.094.357 3.156.371V.517zM8.696 5.04c-1.127-.014-2.249-.148-3.347-.398-.382 1.318-.583 2.681-.599 4.053h3.946V5.041zM6.884.763c-.024.006-.049.011-.073.018-.065.017-.128.036-.192.055-.077.022-.152.044-.229.069-.064.02-.128.043-.191.065-.075.026-.15.052-.223.08l-.189.075-.216.091-.186.086c-.07.033-.14.066-.21.101l-.182.096c-.068.036-.135.073-.202.112-.061.034-.121.069-.18.104-.066.04-.131.08-.196.122l-.174.114c-.064.043-.127.088-.19.133-.057.04-.113.08-.168.121-.062.047-.122.096-.184.144-.054.043-.109.086-.161.13-.061.051-.119.103-.178.155-.051.046-.104.091-.155.139l-.17.165c-.049.049-.099.096-.147.146l-.026.029c.662.342 1.36.61 2.082.8.375-1.194 1.042-2.278 1.94-3.15zM3.034 15.059c.056.056.112.112.17.166.05.047.103.091.155.138.059.052.117.105.178.155.052.044.106.087.16.13.06.049.121.098.186.145.054.041.11.08.166.122.063.045.127.09.192.134.057.039.114.076.172.113.066.042.131.083.198.123.059.036.118.07.177.104.068.04.136.077.205.113l.182.094c.07.036.14.07.213.103.06.029.123.057.185.084.072.032.145.061.217.092l.188.074c.074.029.149.055.224.08.063.023.126.045.19.066l.23.07.19.054.075.018c-.9-.873-1.567-1.957-1.942-3.153-.721.19-1.42.459-2.082.802l.027.028c.045.049.094.097.144.145zM2.45 14.425c.73-.396 1.504-.704 2.306-.918-.393-1.367-.6-2.78-.613-4.203H.5c.066 1.875.752 3.676 1.95 5.12z"/>
</svg>
