<svg xmlns="http://www.w3.org/2000/svg" width="20" height="20" fill="none" viewBox="0 0 20 20">
    <path fill="#141414" d="M12.123.588H7.877c-1.104 0-2.002.898-2.002 2.002v.356h1.171V2.59c0-.458.373-.83.83-.83h4.248c.458 0 .83.372.83.83v.356h1.173V2.59c0-1.104-.899-2.002-2.002-2.002zM10.59 10.588V8.82H9.41v1.768c0 .324-.263.586-.587.586H7.056v1.182h1.767c.324 0 .586.262.586.585v1.768h1.182v-1.768c0-.323.262-.585.586-.585h1.767v-1.182h-1.767c-.324 0-.586-.262-.586-.586zM0 7.097v9.336c0 1.442 1.03 2.647 2.393 2.92V4.176C1.03 4.45 0 5.655 0 7.096zM17.607 4.176v15.177C18.97 19.08 20 17.874 20 16.433V7.097c0-1.442-1.03-2.648-2.393-2.92z"/>
    <path fill="#141414" d="M16.436 4.118H3.565v15.293h12.871V4.118zm-2.32 8.823c0 .324-.262.586-.585.586h-1.768v1.768c0 .323-.262.586-.586.586H8.824c-.324 0-.586-.263-.586-.586v-1.768H6.47c-.323 0-.586-.262-.586-.586v-2.353c0-.324.263-.586.586-.586h1.768V8.234c0-.323.262-.586.586-.586h2.353c.324 0 .586.263.586.586v1.768h1.768c.323 0 .586.262.586.586v2.353z"/>
</svg>
