<svg width="20" height="17" viewBox="0 0 20 17" fill="none" xmlns="http://www.w3.org/2000/svg">
<path d="M17.1483 7.8421L15.9803 3.7298C15.9303 3.5428 15.7343 3.4136 15.5063 3.4136L4.28829 3.4034C4.06029 3.4034 3.86429 3.5326 3.81429 3.7196L2.77629 7.4664C2.74429 7.6007 2.78429 7.7452 2.89629 7.8489C3.01029 7.9458 3.16829 7.9951 3.33229 7.973C3.34029 7.973 3.49029 7.9526 3.73229 7.9237V13.8686C3.73229 15.0076 4.81829 15.9375 6.16629 15.9375H13.2723C14.6123 15.9375 15.7063 15.0076 15.7063 13.8686V7.5531C15.9963 7.6925 16.1423 7.8965 16.2183 8.0733L16.2823 8.3045C16.3443 8.5085 16.5843 8.6479 16.8383 8.6105C17.0923 8.5782 17.2683 8.3793 17.2383 8.1651C17.2363 8.1379 17.2183 8.0155 17.1483 7.8421ZM6.27229 13.5779L5.15229 13.8941L4.27429 13.2328L4.50829 12.2502L5.62829 11.934L6.50629 12.6004L6.27229 13.5779ZM6.03829 11.611L6.27229 10.6284L7.39229 10.3122L8.27829 10.9786L8.03829 11.9578L6.91829 12.274L6.03829 11.611ZM8.59429 13.889L7.55629 14.1797L6.73429 13.5677L6.95429 12.6548L7.99229 12.3641L8.81429 12.9829L8.59429 13.889ZM8.50429 11.9442L8.72429 11.0313L9.76229 10.7406L10.5783 11.3594L10.3583 12.2689L9.32029 12.5579L8.50429 11.9442ZM11.1343 14.416L10.0143 14.7322L9.13629 14.0726L9.37029 13.09L10.4903 12.7738L11.3763 13.4334L11.1343 14.416ZM10.8763 12.3199L11.1163 11.3407L12.2283 11.0177L13.1143 11.6841L12.8743 12.6667L11.7543 12.9829L10.8763 12.3199ZM13.4543 14.7288L12.4243 15.0195L11.6023 14.4058L11.8223 13.4929L12.8603 13.1971L13.6763 13.8159L13.4543 14.7288ZM15.2003 12.9761L14.1623 13.2719L13.3403 12.6599L13.5603 11.747L14.5983 11.4512L15.4143 12.07L15.2003 12.9761ZM15.6303 6.6436C15.4723 6.6113 15.3143 6.5943 15.1483 6.5943C14.3703 6.5943 13.6003 6.9377 12.8583 7.2811C12.4463 7.4647 12.0683 7.6415 11.7383 7.7265C11.5863 7.7639 11.4103 7.786 11.2143 7.786C10.4303 7.786 9.63429 7.463 9.62629 7.463C9.56429 7.4307 9.48829 7.4205 9.41029 7.4205C9.34029 7.4205 9.26429 7.4307 9.20229 7.463C9.19629 7.463 8.60229 7.7061 7.97629 7.7061C7.65429 7.7061 7.38029 7.6415 7.17229 7.5072C6.68629 7.1944 5.90629 7.0397 4.84429 7.0397C4.49029 7.0397 4.15429 7.0601 3.87629 7.0822L4.66829 4.2296L15.1143 4.2398L15.8203 6.6929C15.7643 6.6708 15.6943 6.6555 15.6303 6.6436ZM5.25629 3.1994H14.7503C15.4443 3.1994 16.0083 2.72 16.0083 2.1301C16.0083 1.5402 15.4423 1.0625 14.7503 1.0625H5.25629C4.56229 1.0625 3.99829 1.5419 3.99829 2.1318C3.99829 2.7217 4.56229 3.1994 5.25629 3.1994V3.1994Z" fill="#A43FA6"/>
</svg>
