<svg width="16" height="16" viewBox="0 0 16 16" fill="none" xmlns="http://www.w3.org/2000/svg">
<path d="M3.78125 2.14075H1.40625C1.14716 2.14075 0.9375 2.3504 0.9375 2.6095C0.9375 2.86859 1.14716 3.07825 1.40625 3.07825H3.78125C4.04034 3.07825 4.25 2.86859 4.25 2.6095C4.25 2.3504 4.04034 2.14075 3.78125 2.14075Z" fill="#7030A0"/>
<path d="M3.78125 5.89069H1.40625C1.14716 5.89069 0.9375 6.10034 0.9375 6.35944C0.9375 6.61853 1.14716 6.82818 1.40625 6.82818H3.78125C4.04034 6.82818 4.25 6.61853 4.25 6.35944C4.25 6.10034 4.04034 5.89069 3.78125 5.89069Z" fill="#7030A0"/>
<path d="M2.84375 4.01553H0.46875C0.209656 4.01553 0 4.22519 0 4.48428C0 4.74338 0.209656 4.95303 0.46875 4.95303H2.84375C3.10284 4.95303 3.3125 4.74338 3.3125 4.48428C3.3125 4.22519 3.10284 4.01553 2.84375 4.01553Z" fill="#7030A0"/>
<path d="M15.0625 6.35937H12.2188V4.48437C12.2188 3.66105 11.2116 3.22755 10.6181 3.8218L6.86841 7.57152C6.5022 7.93774 6.5022 8.53099 6.86841 8.89721L9.01807 11.0469L6.39966 13.6653C6.03345 14.0315 6.03345 14.6247 6.39966 14.991C6.76585 15.3571 7.35913 15.3572 7.72535 14.991L11.0066 11.7097C11.3728 11.3435 11.3728 10.7502 11.0066 10.384L8.85695 8.23437L10.3438 6.74755V7.29687C10.3438 7.81459 10.7635 8.23437 11.2813 8.23437H15.0625C15.5802 8.23437 16 7.81459 16 7.29687C16 6.77915 15.5802 6.35937 15.0625 6.35937Z" fill="#7030A0"/>
<path d="M8.75441 1.59486C8.38179 1.34721 7.88741 1.39621 7.57154 1.71205L4.99341 4.29017C4.6272 4.65639 4.6272 5.24964 4.99341 5.61586C5.35963 5.98208 5.95291 5.98205 6.31913 5.61583L8.35388 3.58108L9.03932 4.07483L9.95513 3.15902C10.1083 3.00583 10.289 2.88693 10.4866 2.79408L8.75441 1.59486Z" fill="#7030A0"/>
<path d="M6.20459 9.56017C5.96706 9.32264 5.8085 9.0303 5.72491 8.71417L0.773687 13.6654C0.407469 14.0316 0.407469 14.6249 0.773687 14.9911C1.13987 15.3573 1.73316 15.3573 2.09937 14.9911L6.86744 10.223L6.20459 9.56017Z" fill="#7030A0"/>
<path d="M12.6885 3.54688C13.4651 3.54688 14.0947 2.91728 14.0947 2.14063C14.0947 1.36397 13.4651 0.734375 12.6885 0.734375C11.9118 0.734375 11.2822 1.36397 11.2822 2.14063C11.2822 2.91728 11.9118 3.54688 12.6885 3.54688Z" fill="#7030A0"/>
</svg>
