<svg xmlns="http://www.w3.org/2000/svg" width="20" height="19" fill="none" viewBox="0 0 20 19">
    <path fill="#A8A8A8" d="M4.727 1.759h-2.97c-.323 0-.585.262-.585.586 0 .324.262.586.586.586h2.969c.323 0 .585-.262.585-.586 0-.324-.262-.586-.585-.586zM4.727 6.446h-2.97c-.323 0-.585.262-.585.586 0 .324.262.586.586.586h2.969c.323 0 .585-.262.585-.586 0-.324-.262-.586-.585-.586zM3.555 4.103H.585c-.323 0-.585.262-.585.585 0 .324.262.586.586.586h2.969c.324 0 .586-.262.586-.586 0-.323-.262-.585-.586-.585zM18.828 7.032h-3.555V4.688c0-1.029-1.258-1.57-2-.828L8.586 8.547c-.458.458-.458 1.2 0 1.657l2.687 2.688L8 16.165c-.458.457-.458 1.199 0 1.657.457.457 1.199.457 1.657 0l4.101-4.102c.458-.458.458-1.2 0-1.657l-2.687-2.687 1.859-1.859v.687c0 .647.524 1.172 1.172 1.172h4.726c.647 0 1.172-.525 1.172-1.172 0-.647-.525-1.172-1.172-1.172zM10.943 1.077c-.466-.31-1.084-.249-1.479.146L6.242 4.446c-.458.457-.458 1.199 0 1.657.458.458 1.2.457 1.657 0l2.543-2.544.857.617 1.145-1.144c.191-.192.417-.34.664-.456l-2.165-1.5z"/>
    <path fill="#A8A8A8" d="M7.757 11.033c-.297-.297-.495-.662-.6-1.057L.968 16.165c-.457.457-.457 1.199 0 1.657.458.457 1.2.457 1.657 0l5.96-5.96-.828-.829zM15.86 3.517c.97 0 1.757-.787 1.757-1.758S16.83 0 15.86 0c-.97 0-1.757.787-1.757 1.758 0 .97.787 1.758 1.757 1.758z"/>
</svg>
