<svg xmlns="http://www.w3.org/2000/svg" width="20" height="20" fill="none" viewBox="0 0 20 20">
    <g fill="#A8A8A8" clip-path="url(#clip0)">
        <path d="M9.188 1.356v.435c.603-.04.927.008.96.014.195.031.36.157.444.335l.85 1.809c.102.024.2.075.28.153.103.1.225.178.364.212.277.068.553-.01.747-.198.2-.195.507-.245.743-.095.338.213.375.666.11.931-.375.374-.872.58-1.402.58-.034 0-.068 0-.101-.002l1.14 2.432c.049.102.094.206.138.31 1.284-.406 2.745-.105 3.766.904.229.226.254.594.04.834-.118.134-.282.201-.446.201-.153 0-.306-.058-.422-.175-.692-.692-1.686-.902-2.562-.632.333 1.325.31 2.691-.032 3.973.161.053.325.101.492.143.194.048.397.048.59 0C17.874 12.782 20 10.097 20 6.986v-5.63c0-.279-.172-.529-.433-.627C18.744.42 17.155 0 14.594 0c-2.562 0-4.151.42-4.973.73-.261.097-.434.347-.434.626zm6.6 2.752c.233-.233.611-.233.844 0 .149.148.347.23.557.23.21 0 .408-.082.556-.23.234-.233.612-.233.845 0 .233.233.233.61 0 .844-.374.374-.872.58-1.401.58-.53 0-1.027-.206-1.401-.58-.233-.233-.233-.611 0-.844z"/>
        <path d="M12.243 8.469L9.84 3.345c-.11-.236-.356-.378-.615-.358-.868.065-2.497.353-4.842 1.454C2.063 5.528.802 6.584.189 7.213c-.194.2-.244.499-.125.751l2.39 5.097c1.322 2.816 4.388 4.344 7.405 3.744.194-.038.377-.124.531-.25 2.39-1.936 3.174-5.27 1.853-8.086zm-4.831-.382c.371-1.028 1.51-1.562 2.537-1.19.31.112.47.454.358.764-.112.31-.454.47-.764.359-.408-.148-.86.064-1.008.473-.088.243-.317.394-.562.394-.067 0-.136-.011-.202-.036-.31-.112-.471-.454-.36-.764zm-2.31 2.016c-.197-.072-.41-.062-.601.028-.19.089-.335.247-.406.445-.088.243-.317.394-.562.394-.067 0-.136-.011-.203-.036-.31-.111-.47-.454-.358-.764.18-.498.543-.896 1.022-1.12.479-.225 1.017-.25 1.515-.07.31.112.47.454.358.764-.112.31-.454.47-.764.359zm2.006 3.903c-.422 0-.85-.072-1.27-.223-.31-.112-.47-.455-.359-.765.112-.31.455-.47.765-.359 1.324.479 2.79-.21 3.268-1.533.112-.31.455-.47.765-.359.31.112.47.455.359.765-.551 1.524-1.994 2.474-3.528 2.474z"/>
    </g>
    <defs>
        <clipPath id="clip0">
            <path fill="#fff" d="M0 0H20V20H0z"/>
        </clipPath>
    </defs>
</svg>
