<svg xmlns="http://www.w3.org/2000/svg" width="21" height="21" fill="none" viewBox="0 0 21 21">
    <path fill="#A8A8A8" d="M10.139 5.667L9.382.373C9.352.158 9.177 0 8.971 0h-.014c-.212.007-.385.18-.401.4L8.19 4.998c-.023.284-.502.284-.525 0L7.303.401C7.284.174 7.104 0 6.887 0c-.216 0-.397.174-.415.4l-.365 4.597c-.022.284-.501.284-.524 0L5.22.401C5.201.18 5.029.008 4.817 0h-.013c-.206 0-.382.158-.412.373l-.756 5.294c-.222 1.55.58 3.035 1.931 3.654l-.643 9.467c-.038.57.152 1.136.522 1.554.37.418.895.658 1.44.658h.003c.544 0 1.07-.24 1.44-.658.37-.418.56-.984.522-1.554l-.643-9.467c1.352-.62 2.153-2.103 1.931-3.654zM16.295.08c-.11-.082-.252-.101-.38-.055-.035.013-3.61 1.392-3.61 5.662 0 3.074.952 4.626 1.488 5.256l-.533.56c-.069.072-.111.166-.12.266l-.66 6.923c-.056.588.128 1.178.506 1.617.379.44.921.69 1.484.69 1.103 0 2-.942 2-2.1V.438c.001-.142-.064-.274-.175-.357z"/>
</svg>
