<svg xmlns="http://www.w3.org/2000/svg" width="20" height="20" fill="none" viewBox="0 0 20 20">
    <g fill="#141414" clip-path="url(#clip0)">
        <path d="M9.188 1.356v.435c.604-.04.928.008.961.014.195.031.36.157.444.335l.849 1.809c.102.024.2.075.281.153.103.1.225.178.364.212.277.068.552-.01.747-.198.2-.195.507-.245.743-.095.338.213.374.666.11.931-.375.374-.872.58-1.402.58-.034 0-.068 0-.102-.002l1.141 2.432c.049.102.094.206.137.31 1.285-.406 2.746-.105 3.767.904.228.226.254.594.04.834-.119.134-.283.201-.446.201-.153 0-.306-.058-.422-.175-.692-.692-1.686-.902-2.562-.632.332 1.325.31 2.691-.033 3.973.162.053.326.101.493.143.194.048.396.048.59 0C17.874 12.782 20 10.097 20 6.986v-5.63c0-.279-.172-.529-.433-.627C18.745.42 17.156 0 14.594 0c-2.56 0-4.15.42-4.973.73-.26.097-.433.347-.433.626zm6.6 2.752c.234-.233.612-.233.845 0 .149.148.346.23.557.23.21 0 .408-.082.556-.23.234-.233.612-.233.845 0 .233.233.233.61 0 .844-.375.374-.872.58-1.401.58-.53 0-1.027-.206-1.401-.58-.233-.233-.233-.611 0-.844z"/>
        <path d="M12.243 8.469L9.84 3.345c-.11-.236-.356-.378-.615-.358-.868.065-2.497.353-4.842 1.454C2.063 5.529.802 6.584.189 7.213c-.194.2-.244.5-.125.751l2.39 5.097c1.322 2.816 4.388 4.344 7.405 3.745.194-.04.377-.125.531-.25 2.39-1.937 3.174-5.27 1.853-8.087zm-4.831-.382c.371-1.027 1.51-1.561 2.537-1.19.31.112.47.454.358.764-.112.31-.454.471-.764.359-.408-.147-.86.065-1.008.473-.088.243-.317.394-.562.394-.067 0-.136-.011-.202-.035-.31-.113-.471-.455-.36-.765zm-2.31 2.016c-.197-.071-.41-.062-.601.028-.19.09-.335.247-.406.445-.088.243-.317.394-.562.394-.067 0-.136-.011-.203-.035-.31-.112-.47-.455-.358-.765.18-.498.543-.895 1.022-1.12.479-.225 1.017-.25 1.515-.07.31.112.47.454.358.765-.112.31-.454.47-.764.358zm2.006 3.903c-.422 0-.85-.072-1.27-.223-.31-.112-.47-.454-.359-.765.112-.31.455-.47.765-.358 1.324.478 2.79-.21 3.268-1.534.112-.31.455-.47.765-.358.31.112.47.454.359.764-.551 1.524-1.994 2.474-3.528 2.474z"/>
    </g>
    <defs>
        <clipPath id="clip0">
            <path fill="#fff" d="M0 0H20V20H0z"/>
        </clipPath>
    </defs>
</svg>
