<svg width="28" height="32" viewBox="0 0 28 32" fill="none" xmlns="http://www.w3.org/2000/svg">
<ellipse cx="13.9931" cy="14.0953" rx="10.2109" ry="10.2857" fill="white"/>
<path d="M23.6476 23.9062C23.3587 24.3229 23.0698 24.6875 22.781 25L13.8357 32L4.95238 25C4.66349 24.6875 4.3746 24.3229 4.08571 23.9062C2.80635 22.6146 1.80556 21.1146 1.08333 19.4062C0.361111 17.6979 0 15.8958 0 14C0 12.1042 0.36627 10.2917 1.09881 8.5625C1.83135 6.83333 2.81667 5.34375 4.05476 4.09375C5.29286 2.84375 6.76825 1.84896 8.48095 1.10938C10.1937 0.369792 11.9889 0 13.8667 0C15.7444 0 17.5397 0.369792 19.2524 1.10938C20.9651 1.84896 22.4405 2.84375 23.6786 4.09375C24.9167 5.34375 25.902 6.83333 26.6345 8.5625C27.3671 10.2917 27.7333 12.1042 27.7333 14C27.7333 15.8958 27.3722 17.6979 26.65 19.4062C25.9278 21.1146 24.927 22.6146 23.6476 23.9062ZM13.8667 4C12.0714 4 10.4155 4.44792 8.89881 5.34375C7.38214 6.23958 6.18016 7.45312 5.29286 8.98438C4.40556 10.5156 3.9619 12.1875 3.9619 14C3.9619 15.8125 4.40556 17.4844 5.29286 19.0156C6.18016 20.5469 7.38214 21.7552 8.89881 22.6406C10.4155 23.526 12.0714 23.9688 13.8667 23.9688C15.6619 23.9688 17.3179 23.526 18.8345 22.6406C20.3512 21.7552 21.5532 20.5469 22.4405 19.0156C23.3278 17.4844 23.7714 15.8125 23.7714 14C23.7714 12.1875 23.3278 10.5156 22.4405 8.98438C21.5532 7.45312 20.3512 6.23958 18.8345 5.34375C17.3179 4.44792 15.6619 4 13.8667 4Z" fill="#A43FA6"/>
<path d="M19.0034 13.5356L18.1858 10.6328C18.1508 10.5008 18.0136 10.4096 17.854 10.4096L10.0014 10.4024C9.84181 10.4024 9.70461 10.4936 9.66961 10.6256L8.94301 13.2704C8.92061 13.3652 8.94861 13.4672 9.02701 13.5404C9.10681 13.6088 9.21741 13.6436 9.33221 13.628C9.33781 13.628 9.44281 13.6136 9.61221 13.5932V17.7896C9.61221 18.5936 10.3724 19.25 11.316 19.25H16.2902C17.2282 19.25 17.994 18.5936 17.994 17.7896V13.3316C18.197 13.43 18.2992 13.574 18.3524 13.6988L18.3972 13.862C18.4406 14.006 18.6086 14.1044 18.7864 14.078C18.9642 14.0552 19.0874 13.9148 19.0664 13.7636C19.065 13.7444 19.0524 13.658 19.0034 13.5356ZM11.3902 17.5844L10.6062 17.8076L9.99161 17.3408L10.1554 16.6472L10.9394 16.424L11.554 16.8944L11.3902 17.5844ZM11.2264 16.196L11.3902 15.5024L12.1742 15.2792L12.7944 15.7496L12.6264 16.4408L11.8424 16.664L11.2264 16.196ZM13.0156 17.804L12.289 18.0092L11.7136 17.5772L11.8676 16.9328L12.5942 16.7276L13.1696 17.1644L13.0156 17.804ZM12.9526 16.4312L13.1066 15.7868L13.8332 15.5816L14.4044 16.0184L14.2504 16.6604L13.5238 16.8644L12.9526 16.4312ZM14.7936 18.176L14.0096 18.3992L13.395 17.9336L13.5588 17.24L14.3428 17.0168L14.963 17.4824L14.7936 18.176ZM14.613 16.6964L14.781 16.0052L15.5594 15.7772L16.1796 16.2476L16.0116 16.9412L15.2276 17.1644L14.613 16.6964ZM16.4176 18.3968L15.6966 18.602L15.1212 18.1688L15.2752 17.5244L16.0018 17.3156L16.573 17.7524L16.4176 18.3968ZM17.6398 17.1596L16.9132 17.3684L16.3378 16.9364L16.4918 16.292L17.2184 16.0832L17.7896 16.52L17.6398 17.1596ZM17.9408 12.6896C17.8302 12.6668 17.7196 12.6548 17.6034 12.6548C17.0588 12.6548 16.5198 12.8972 16.0004 13.1396C15.712 13.2692 15.4474 13.394 15.2164 13.454C15.11 13.4804 14.9868 13.496 14.8496 13.496C14.3008 13.496 13.7436 13.268 13.738 13.268C13.6946 13.2452 13.6414 13.238 13.5868 13.238C13.5378 13.238 13.4846 13.2452 13.4412 13.268C13.437 13.268 13.0212 13.4396 12.583 13.4396C12.3576 13.4396 12.1658 13.394 12.0202 13.2992C11.68 13.0784 11.134 12.9692 10.3906 12.9692C10.1428 12.9692 9.90761 12.9836 9.71301 12.9992L10.2674 10.9856L17.5796 10.9928L18.0738 12.7244C18.0346 12.7088 17.9856 12.698 17.9408 12.6896ZM10.679 10.2584H17.3248C17.8106 10.2584 18.2054 9.92 18.2054 9.5036C18.2054 9.0872 17.8092 8.75 17.3248 8.75H10.679C10.1932 8.75 9.79841 9.0884 9.79841 9.5048C9.79841 9.9212 10.1932 10.2584 10.679 10.2584Z" fill="#A43FA6"/>
</svg>
