<svg xmlns="http://www.w3.org/2000/svg" width="52" height="60" fill="none" viewBox="0 0 52 60">
    <ellipse cx="26.237" cy="26.428" fill="#fff" rx="19.145" ry="19.286"/>
    <path fill="#C00000" d="M44.34 44.824c-.542.782-1.084 1.465-1.626 2.051L25.942 60 9.286 46.875c-.542-.586-1.084-1.27-1.625-2.05-2.4-2.423-4.276-5.235-5.63-8.438C.677 33.184 0 29.805 0 26.25c0-3.555.687-6.953 2.06-10.195 1.374-3.242 3.221-6.035 5.543-8.38 2.321-2.343 5.088-4.208 8.299-5.595C19.113.693 22.479 0 26 0c3.52 0 6.887.693 10.098 2.08 3.212 1.387 5.978 3.252 8.3 5.596 2.32 2.344 4.168 5.136 5.542 8.379C51.313 19.297 52 22.695 52 26.25c0 3.555-.677 6.934-2.031 10.137-1.354 3.203-3.23 6.015-5.63 8.437zM26 7.5c-3.366 0-6.471.84-9.315 2.52-2.843 1.68-5.097 3.955-6.76 6.826-1.665 2.87-2.496 6.006-2.496 9.404 0 3.398.831 6.533 2.495 9.404 1.664 2.871 3.918 5.137 6.761 6.797 2.844 1.66 5.949 2.49 9.315 2.49 3.366 0 6.471-.83 9.315-2.49 2.843-1.66 5.097-3.926 6.76-6.797 1.665-2.87 2.496-6.006 2.496-9.404 0-3.398-.831-6.533-2.495-9.404-1.664-2.871-3.918-5.147-6.761-6.826C32.47 8.34 29.366 7.5 26 7.5z"/>
    <g fill="#C00000" clip-path="url(#clip0)">
        <path d="M28.623 15.588h-4.248c-1.104 0-2.002.898-2.002 2.002v.356h1.172v-.356c0-.458.372-.83.83-.83h4.248c.458 0 .83.372.83.83v.356h1.172v-.356c0-1.104-.898-2.002-2.002-2.002zM27.092 25.588V23.82H25.91v1.768c0 .323-.262.586-.586.586h-1.767v1.181h1.767c.324 0 .586.263.586.586v1.768h1.182v-1.768c0-.323.262-.585.586-.585h1.767v-1.182h-1.767c-.324 0-.586-.262-.586-.586zM16.5 22.097v9.336c0 1.442 1.03 2.647 2.392 2.92V19.177c-1.362.273-2.392 1.478-2.392 2.92zM34.107 19.177v15.176c1.363-.273 2.393-1.478 2.393-2.92v-9.336c0-1.442-1.03-2.647-2.393-2.92z"/>
        <path d="M32.936 19.118H20.064v15.293h12.872V19.118zm-2.32 8.823c0 .324-.262.586-.586.586h-1.767v1.768c0 .323-.263.586-.586.586h-2.354c-.323 0-.586-.262-.586-.586v-1.768H22.97c-.324 0-.586-.262-.586-.586v-2.353c0-.324.262-.586.586-.586h1.767v-1.768c0-.323.263-.586.586-.586h2.354c.323 0 .586.263.586.586v1.768h1.767c.324 0 .586.262.586.586v2.353z"/>
    </g>
    <defs>
        <clipPath id="clip0">
            <path fill="#fff" d="M0 0H20V20H0z" transform="translate(16.5 15)"/>
        </clipPath>
    </defs>
</svg>
