<svg xmlns="http://www.w3.org/2000/svg" width="52" height="60" fill="none" viewBox="0 0 52 60">
    <ellipse cx="26.237" cy="26.429" fill="#fff" rx="19.145" ry="19.286"/>
    <path fill="#609695" d="M44.34 44.824c-.542.782-1.084 1.465-1.626 2.051L25.942 60 9.286 46.875c-.542-.586-1.084-1.27-1.625-2.05-2.4-2.423-4.276-5.235-5.63-8.438C.677 33.184 0 29.805 0 26.25c0-3.555.687-6.953 2.06-10.195 1.374-3.242 3.221-6.035 5.543-8.38 2.321-2.343 5.088-4.208 8.299-5.595C19.113.693 22.479 0 26 0c3.52 0 6.887.693 10.098 2.08 3.212 1.387 5.978 3.252 8.3 5.596 2.32 2.344 4.168 5.136 5.542 8.379C51.313 19.297 52 22.695 52 26.25c0 3.555-.677 6.934-2.031 10.137-1.354 3.203-3.23 6.015-5.63 8.437zM26 7.5c-3.366 0-6.471.84-9.315 2.52-2.843 1.68-5.097 3.955-6.76 6.826-1.665 2.87-2.496 6.006-2.496 9.404 0 3.398.831 6.533 2.495 9.404 1.664 2.871 3.918 5.137 6.761 6.797 2.844 1.66 5.949 2.49 9.315 2.49 3.366 0 6.471-.83 9.315-2.49 2.843-1.66 5.097-3.926 6.76-6.797 1.665-2.87 2.496-6.006 2.496-9.404 0-3.398-.831-6.533-2.495-9.404-1.664-2.871-3.918-5.147-6.761-6.826C32.47 8.34 29.366 7.5 26 7.5z"/>
    <g fill="#609695" clip-path="url(#clip0)">
        <path d="M28.768 24.905c.038.013.076.02.113.02.147 0 .284-.093.334-.24.11-.323.462-.497.785-.387.691.234 1.445-.137 1.68-.828.062-.184-.037-.384-.221-.447-.185-.062-.384.036-.447.22-.11.324-.462.498-.785.388-.69-.233-1.445.137-1.679.828-.062.184.036.384.22.447zM29.6 22.453c.037.012.076.018.113.018.147 0 .284-.092.334-.239.053-.156.164-.283.312-.356.149-.074.317-.084.473-.031.691.234 1.444-.137 1.679-.828.063-.184-.036-.384-.22-.447-.184-.064-.384.036-.446.22-.11.324-.462.498-.786.388-.335-.114-.694-.09-1.011.066-.317.156-.554.427-.668.762-.063.184.036.384.22.447zM30.432 20c.038.012.076.018.114.018.146 0 .283-.092.333-.239.081-.239.342-.367.58-.286.294.1.61.079.888-.058s.486-.375.586-.668c.063-.184-.036-.385-.22-.447-.185-.063-.384.036-.447.22-.04.116-.121.21-.23.264-.11.053-.234.061-.35.022-.607-.205-1.268.12-1.474.726-.062.185.036.385.22.447z"/>
        <path d="M32.782 24.808c.7-2.275 1.083-4.503 1.138-6.625.016-.608-.249-1.3-.659-1.72-.489-.502-1.154-.604-1.81-.266-1.052.542-1.803 2.138-2.407 3.421l-.103.218c-.134-.614-.54-1.139-1.116-1.413-.136-.653-.654-1.165-1.305-1.298-.007-.036-.016-.072-.027-.108-.134-.459-.54-.804-1.007-.86-.27-.033-.526.024-.748.154-.19-.106-.404-.162-.622-.162-.613 0-1.127.427-1.261.998-.67.183-1.16.797-1.165 1.511-.764.197-1.32.887-1.32 1.708 0 .217.04.433.12.636-.2.245-.309.55-.309.872 0 .193.04.38.115.55-.352-.383-.847-.697-1.403-.676-.194.006-.347.169-.34.363.005.19.162.341.35.341h.035c.33 0 .637.218.86.471-.559.161-1.232.423-1.546 1.015-.188.356-.21.793-.086 1.293-.063.102-.094.222-.087.35l.6 8.516c.054 1.068.934 1.904 2.003 1.904h9.882c1.069 0 1.949-.836 2.003-1.898l.615-8.817c.006-.126-.04-.251-.127-.343-.071-.077-.17-.121-.273-.135zm-3.554-3.965c.14-.26.292-.583.453-.925.529-1.123 1.254-2.662 2.093-3.095.38-.196.705-.154.983.131.314.322.469.853.46 1.21-.054 2.082-.434 4.272-1.13 6.511-.024.074-.074.223-.147.427l-.6.266c-.012.006-.025.012-.038.02-.17.102-.365.152-.561.154-.196-.002-.392-.052-.562-.154l-.25-.15c-.284-.17-.607-.26-.937-.26-.089 0-.177.008-.264.021-.244.031-.482.111-.695.239l-.25.15c-.138.082-.293.123-.45.14l.024-.079c.098-.332.203-.66.313-.985.04-.119.082-.237.124-.355.092-.258.188-.514.287-.767.043-.108.084-.218.128-.325.307-.75.646-1.477 1.02-2.174zm-4.067 4.165c-.039.007-.077.014-.115.023-.116.026-.23.06-.34.109l-.068-.31c.102.009.203.017.297.017.614 0 1.109-.182 1.677-.587.179-.127.337-.223.488-.303-.033.092-.065.183-.096.275l-.069.198c-.103.314-.202.63-.293.948l-.235-.14c-.282-.17-.606-.26-.935-.26-.086 0-.17.009-.254.02l-.057.01zm-.56-4.758c-.078.016-.157-.037-.173-.112-.017-.077.034-.156.111-.173l1.975-.428c.069 0 .128.048.143.114.011.05-.008.09-.02.11-.013.019-.04.053-.091.064l-1.945.425zm.14 1.427l.12-.155c.027-.037.051-.075.072-.114.086-.163.107-.346.067-.525l1.469-.32c.01.044.02.089.037.13.066.162.184.296.347.39l.168.09c.047.024.095.05.142.076l.07.038c.041.023.082.05.123.075.035.022.07.044.103.067.039.027.076.057.114.088.032.026.064.056.095.085.033.033.066.067.097.103.054.065.106.132.149.213-.15.33-.29.666-.426 1.005l-.064.156c-.386.098-.759.28-1.22.608-.58.413-1.012.522-1.723.419l-.214-.978c-.145-.662.17-1.063.473-1.45zm-2.085 8.754c.194 0 .352.157.352.352 0 .195-.158.352-.352.352H20.19c-.194 0-.352-.157-.352-.352 0-.195.158-.352.352-.352h2.465zM20.19 31.84h3.169c.194 0 .352.158.352.352 0 .195-.158.352-.352.352H20.19c-.194 0-.352-.157-.352-.352 0-.194.158-.352.352-.352zm.946-10.495l.23-.19-.149-.258c-.093-.162-.143-.345-.143-.53 0-.57.447-1.035 1.017-1.06l.427-.017-.1-.416c-.016-.07-.025-.139-.025-.204 0-.453.355-.835.807-.87l.325-.024v-.35c.01-.317.27-.572.59-.572.184 0 .316.084.393.155l.247.223.237-.234c.108-.107.253-.16.41-.14.19.023.36.17.415.359.018.063.024.124.016.187l-.041.393h.396c.506 0 .93.395.964.9l.016.231.219.077c.55.193.912.714.9 1.296-.006.25-.086.489-.231.7-.236-.2-.49-.336-.703-.448-.055-.03-.109-.057-.163-.087-.015-.009-.033-.023-.04-.06-.008-.051.011-.112.05-.157.153-.178.215-.42.165-.65l-.043-.194c-.086-.395-.498-.661-.893-.573l-.094.02-.003.001-1.033.226-1.008.22c-.404.088-.661.49-.573.894l.022.095v.003l.02.095c.052.235.215.432.436.527.055.024.1.069.117.114.009.026.004.04-.017.073l-.11.143-.121.156-.037.051c-.03.04-.06.083-.09.127l-.046.068-.08.13-.042.075c-.027.05-.05.102-.074.155l-.03.066c-.03.077-.058.157-.08.242-.004.013-.005.026-.008.04-.018.072-.031.146-.04.225-.004.031-.004.063-.006.095-.003.042-.009.082-.009.125l-.03-.038c-.023-.03-.046-.057-.07-.086-.052-.065-.104-.126-.157-.183l-.077-.083c-.055-.056-.111-.108-.167-.156-.02-.018-.041-.038-.062-.055-.074-.06-.15-.114-.225-.161-.023-.014-.046-.025-.069-.038-.054-.03-.11-.059-.165-.082-.03-.013-.06-.024-.091-.035-.05-.018-.1-.032-.151-.044-.031-.008-.062-.016-.092-.021-.064-.011-.129-.017-.194-.018-.014 0-.03-.005-.044-.005-.366 0-.699.143-.994.335-.032-.08-.05-.165-.05-.253 0-.206.092-.399.251-.53zm-2.262 2.923c.15-.28.51-.494 1.139-.674.293-.084.566-.24.787-.452.098-.094.19-.175.28-.248.08-.065.158-.122.232-.171l.008-.005c.147-.096.284-.16.412-.192l.015-.004c.063-.015.124-.023.183-.023.443 0 .918.442 1.411 1.313.26.456.346 1.13.233 1.719l-.078-.01c-.126-.025-.249-.065-.359-.131l-.25-.15c-.283-.17-.607-.26-.937-.26-.088 0-.177.008-.264.02-.244.032-.482.112-.695.24l-.122.073c-.209.125-.45.188-.69.19-.241-.002-.482-.065-.69-.19l-.475-.285c-.062-.037-.129-.062-.198-.076-.056-.279-.037-.504.058-.684zm5.189 9.685H20.19c-.194 0-.352-.158-.352-.352 0-.195.158-.352.352-.352h3.873c.194 0 .352.157.352.352 0 .194-.158.352-.352.352zm2.112 0h-.704c-.194 0-.352-.158-.352-.352 0-.195.158-.352.352-.352h.704c.194 0 .352.157.352.352 0 .194-.158.352-.352.352z"/>
    </g>
    <defs>
        <clipPath id="clip0">
            <path fill="#fff" d="M0 0H20V20H0z" transform="translate(16 16)"/>
        </clipPath>
    </defs>
</svg>
