<svg xmlns="http://www.w3.org/2000/svg" width="52" height="60" fill="none" viewBox="0 0 52 60">
    <ellipse cx="26.237" cy="26.428" fill="#fff" rx="19.145" ry="19.286"/>
    <path fill="#ED7D31" d="M44.34 44.824c-.542.782-1.084 1.465-1.626 2.051L25.942 60 9.286 46.875c-.542-.586-1.084-1.27-1.625-2.05-2.4-2.423-4.276-5.235-5.63-8.438C.677 33.184 0 29.805 0 26.25c0-3.555.687-6.953 2.06-10.195 1.374-3.242 3.221-6.035 5.543-8.38 2.321-2.343 5.088-4.208 8.299-5.595C19.113.693 22.479 0 26 0c3.52 0 6.887.693 10.098 2.08 3.212 1.387 5.978 3.252 8.3 5.596 2.32 2.344 4.168 5.136 5.542 8.379C51.313 19.297 52 22.695 52 26.25c0 3.555-.677 6.934-2.031 10.137-1.354 3.203-3.23 6.015-5.63 8.437zM26 7.5c-3.366 0-6.471.84-9.315 2.52-2.843 1.68-5.097 3.955-6.76 6.826-1.665 2.87-2.496 6.006-2.496 9.404 0 3.398.831 6.533 2.495 9.404 1.664 2.871 3.918 5.137 6.761 6.797 2.844 1.66 5.949 2.49 9.315 2.49 3.366 0 6.471-.83 9.315-2.49 2.843-1.66 5.097-3.926 6.76-6.797 1.665-2.87 2.496-6.006 2.496-9.404 0-3.398-.831-6.533-2.495-9.404-1.664-2.871-3.918-5.147-6.761-6.826C32.47 8.34 29.366 7.5 26 7.5z"/>
    <g fill="#ED7D31" clip-path="url(#clip0)">
        <path d="M24.188 19.356v.435c.603-.04.927.008.96.014.195.031.36.157.444.335l.85 1.809c.102.024.2.075.28.153.103.1.225.178.364.212.277.068.553-.01.747-.198.2-.195.507-.245.743-.095.338.213.375.666.11.931-.375.374-.872.58-1.402.58-.034 0-.067 0-.101-.002l1.14 2.432c.049.102.094.206.138.31 1.284-.406 2.745-.105 3.767.905.228.225.253.593.04.833-.12.134-.283.201-.447.201-.153 0-.306-.058-.422-.175-.692-.692-1.686-.902-2.562-.632.333 1.325.31 2.691-.032 3.973.161.053.325.101.492.143.194.048.397.048.59 0C32.874 30.782 35 28.097 35 24.986v-5.63c0-.279-.172-.529-.433-.627-.822-.309-2.411-.729-4.972-.729-2.562 0-4.151.42-4.974.73-.26.097-.433.347-.433.626zm6.6 2.752c.233-.233.611-.233.844 0 .149.148.347.23.557.23.21 0 .408-.082.556-.23.234-.233.612-.233.845 0 .233.233.233.61 0 .844-.374.374-.872.58-1.401.58-.53 0-1.027-.206-1.401-.58-.233-.233-.233-.611 0-.844z"/>
        <path d="M27.243 26.47l-2.404-5.125c-.11-.235-.355-.377-.615-.358-.869.066-2.497.354-4.842 1.454-2.319 1.088-3.58 2.143-4.193 2.772-.194.2-.244.5-.125.752l2.39 5.097c1.322 2.816 4.388 4.344 7.404 3.744.195-.039.378-.124.532-.25 2.39-1.936 3.174-5.27 1.853-8.087zm-4.831-.383c.371-1.027 1.51-1.561 2.537-1.19.31.112.47.455.358.765-.112.31-.454.47-.764.358-.408-.147-.86.065-1.008.473-.088.243-.317.395-.562.395-.067 0-.136-.012-.203-.036-.31-.112-.47-.454-.358-.765zm-2.31 2.016c-.197-.071-.41-.061-.601.028-.19.09-.335.247-.406.445-.088.244-.317.395-.562.395-.067 0-.136-.012-.203-.036-.31-.112-.47-.454-.358-.764.18-.498.543-.896 1.022-1.12.479-.226 1.017-.25 1.515-.07.31.111.47.454.358.764-.112.31-.454.47-.764.358zm2.006 3.903c-.422 0-.85-.071-1.27-.223-.31-.112-.47-.454-.359-.764.112-.31.454-.471.765-.359 1.324.478 2.79-.21 3.268-1.534.112-.31.455-.47.765-.358.31.112.47.454.358.764-.55 1.524-1.993 2.474-3.527 2.474z"/>
    </g>
    <defs>
        <clipPath id="clip0">
            <path fill="#fff" d="M0 0H20V20H0z" transform="translate(15 18)"/>
        </clipPath>
    </defs>
</svg>
