<svg width="28" height="32" viewBox="0 0 28 32" fill="none" xmlns="http://www.w3.org/2000/svg">
<ellipse cx="13.9931" cy="14.0954" rx="10.2109" ry="10.2857" fill="white"/>
<path d="M23.6476 23.9062C23.3587 24.3229 23.0698 24.6875 22.781 25L13.8357 32L4.95238 25C4.66349 24.6875 4.3746 24.3229 4.08571 23.9062C2.80635 22.6146 1.80556 21.1146 1.08333 19.4062C0.361111 17.6979 0 15.8958 0 14C0 12.1042 0.36627 10.2917 1.09881 8.5625C1.83135 6.83333 2.81667 5.34375 4.05476 4.09375C5.29286 2.84375 6.76825 1.84896 8.48095 1.10938C10.1937 0.369792 11.9889 0 13.8667 0C15.7444 0 17.5397 0.369792 19.2524 1.10938C20.9651 1.84896 22.4405 2.84375 23.6786 4.09375C24.9167 5.34375 25.902 6.83333 26.6345 8.5625C27.3671 10.2917 27.7333 12.1042 27.7333 14C27.7333 15.8958 27.3722 17.6979 26.65 19.4062C25.9278 21.1146 24.927 22.6146 23.6476 23.9062ZM13.8667 4C12.0714 4 10.4155 4.44792 8.89881 5.34375C7.38214 6.23958 6.18016 7.45312 5.29286 8.98438C4.40556 10.5156 3.9619 12.1875 3.9619 14C3.9619 15.8125 4.40556 17.4844 5.29286 19.0156C6.18016 20.5469 7.38214 21.7552 8.89881 22.6406C10.4155 23.526 12.0714 23.9688 13.8667 23.9688C15.6619 23.9688 17.3179 23.526 18.8345 22.6406C20.3512 21.7552 21.5532 20.5469 22.4405 19.0156C23.3278 17.4844 23.7714 15.8125 23.7714 14C23.7714 12.1875 23.3278 10.5156 22.4405 8.98438C21.5532 7.45312 20.3512 6.23958 18.8345 5.34375C17.3179 4.44792 15.6619 4 13.8667 4Z" fill="#FF879D"/>
<path d="M17.9647 9.08474C17.9442 9.08391 17.9238 9.08377 17.9033 9.08435H17.1322V8.42169C17.1322 8.15663 16.8792 8 16.6142 8H15.9033C15.6383 8 15.4455 8.15663 15.4455 8.42169V9.08433H12.5539V8.42169C12.5539 8.15663 12.3612 8 12.0961 8H11.3852C11.1202 8 10.8672 8.15663 10.8672 8.42169V9.08433H10.0961C9.6039 9.07061 9.19376 9.45851 9.18004 9.9507C9.17946 9.97114 9.1796 9.99162 9.18043 10.012V16.9759C9.18043 17.506 9.56596 18 10.0961 18H17.9033C18.4335 18 18.819 17.506 18.819 16.9759V10.012C18.8392 9.52006 18.4566 9.1049 17.9647 9.08474ZM15.9033 8.48193H16.6503V9.80722H15.9033V8.48193ZM11.3853 8.48193H12.072V9.80722H11.3853V8.48193ZM18.3371 16.9759C18.3371 17.2409 18.1684 17.518 17.9033 17.518H10.0961C9.83105 17.518 9.66238 17.2409 9.66238 16.9759V11.8554H18.3371V16.9759ZM18.3371 10.012V11.3735H9.66236V10.012C9.64195 9.78674 9.80806 9.58754 10.0334 9.56713C10.0542 9.56524 10.0752 9.56496 10.0961 9.56628H10.8672V9.83134C10.8672 10.0964 11.1202 10.2892 11.3852 10.2892H12.0961C12.3422 10.2959 12.5472 10.1019 12.5539 9.85576C12.5542 9.84762 12.5542 9.83948 12.5539 9.83134V9.56626H15.4455V9.83132C15.4387 10.0774 15.6328 10.2824 15.8789 10.2891C15.887 10.2894 15.8952 10.2894 15.9033 10.2891H16.6142C16.8792 10.2891 17.1322 10.0964 17.1322 9.83132V9.56626H17.9033C18.1291 9.55203 18.3237 9.72353 18.3379 9.94932C18.3392 9.97021 18.339 9.9912 18.3371 10.012Z" fill="#FF879D"/>
<path d="M9.625 11.75H18.375V17C18.375 17.5523 17.9273 18 17.375 18H10.625C10.0727 18 9.625 17.5523 9.625 17V11.75Z" fill="#FF879D"/>
<path d="M12.6629 15.1446L12.446 16.3494C12.4375 16.4011 12.446 16.4541 12.4702 16.5006C12.5319 16.6185 12.6775 16.6641 12.7954 16.6024L13.8798 16.0361L14.9641 16.6024L15.0725 16.6265C15.1248 16.6274 15.1758 16.6104 15.2171 16.5783C15.2891 16.5257 15.3262 16.4376 15.3135 16.3494L15.0966 15.1445L15.9761 14.3012C16.0391 14.2332 16.0619 14.1372 16.0364 14.0482C16.0039 13.9658 15.9308 13.9065 15.8436 13.8915L14.6388 13.7108L14.0966 12.6144C14.073 12.5656 14.0336 12.5262 13.9848 12.5026C13.865 12.4446 13.7209 12.4947 13.6629 12.6144L13.1207 13.7108L11.9159 13.8915C11.8287 13.9064 11.7556 13.9658 11.7232 14.0482C11.6976 14.1372 11.7205 14.2332 11.7834 14.3012L12.6629 15.1446ZM13.3256 14.1687C13.4012 14.1573 13.4653 14.107 13.4942 14.0361L13.8798 13.265L14.2653 14.0361C14.2942 14.107 14.3583 14.1573 14.434 14.1687L15.2894 14.2891L14.6749 14.8795C14.6177 14.9362 14.5909 15.0167 14.6026 15.0964L14.7472 15.9518L13.9882 15.5422L13.8797 15.5181L13.7713 15.5422L13.0123 15.9518L13.1569 15.0964C13.1687 15.0167 13.1418 14.9362 13.0846 14.8795L12.4701 14.2891L13.3256 14.1687Z" fill="white"/>
</svg>
