<svg xmlns="http://www.w3.org/2000/svg" width="52" height="60" fill="none" viewBox="0 0 52 60">
    <ellipse cx="26.237" cy="26.428" fill="#fff" rx="19.145" ry="19.286"/>
    <path fill="#8497B0" d="M44.34 44.824c-.542.782-1.084 1.465-1.626 2.051L25.942 60 9.286 46.875c-.542-.586-1.084-1.27-1.625-2.05-2.4-2.423-4.276-5.235-5.63-8.438C.677 33.184 0 29.805 0 26.25c0-3.555.687-6.953 2.06-10.195 1.374-3.242 3.221-6.035 5.543-8.38 2.321-2.343 5.088-4.208 8.299-5.595C19.113.693 22.479 0 26 0c3.52 0 6.887.693 10.098 2.08 3.212 1.387 5.978 3.252 8.3 5.596 2.32 2.344 4.168 5.136 5.542 8.379C51.313 19.297 52 22.695 52 26.25c0 3.555-.677 6.934-2.031 10.137-1.354 3.203-3.23 6.015-5.63 8.437zM26 7.5c-3.366 0-6.471.84-9.315 2.52-2.843 1.68-5.097 3.955-6.76 6.826-1.665 2.87-2.496 6.006-2.496 9.404 0 3.398.831 6.533 2.495 9.404 1.664 2.871 3.918 5.137 6.761 6.797 2.844 1.66 5.949 2.49 9.315 2.49 3.366 0 6.471-.83 9.315-2.49 2.843-1.66 5.097-3.926 6.76-6.797 1.665-2.87 2.496-6.006 2.496-9.404 0-3.398-.831-6.533-2.495-9.404-1.664-2.871-3.918-5.147-6.761-6.826C32.47 8.34 29.366 7.5 26 7.5z"/>
    <g clip-path="url(#clip0)">
        <path fill="#8497B0" d="M35.742 21.926v-.393H36v-1.178l-.608.001V17.85h.251v-.665h-.496v-.391H16.854v.39h-.498v.665h.25v2.508H16v1.176h.24v.394h.38v12.095h-.483v1.187h7.135V34.02h-.5v-7.589h.132c.246-1.505 1.54-2.653 3.11-2.653 1.575 0 2.876 1.148 3.124 2.653h.091v7.59h-.493v1.187h7.134V34.02h-.488V21.926h.36zm-18.225-.557h-1.4v-.801h1.4v.801zm1.665 0h-1.399v-.801h1.4v.801zm1.663 0h-1.399v-.801h1.4v.801zm1.662 0H21.11v-.801h1.397l.001.801zm1.666 0h-1.398v-.801h1.398v.801zm1.664 0h-1.399v-.801h1.398l.001.801zm1.667 0h-1.402v-.801h1.402v.801zm1.663 0h-1.398v-.801h1.398v.801zm1.662 0H29.43v-.801h1.4v.801zm1.664 0h-1.396v-.801h1.396v.801zm1.666 0h-1.4v-.801h1.4v.801zm.265 0v-.801h1.399v.801h-1.4z"/>
    </g>
    <defs>
        <clipPath id="clip0">
            <path fill="#fff" d="M0 0H20V20H0z" transform="translate(16 16)"/>
        </clipPath>
    </defs>
</svg>
