<svg xmlns="http://www.w3.org/2000/svg" width="52" height="60" fill="none" viewBox="0 0 52 60">
    <ellipse cx="26.237" cy="26.429" fill="#fff" rx="19.145" ry="19.286"/>
    <path fill="#00B0F0" d="M44.34 44.824c-.542.782-1.084 1.465-1.626 2.051L25.942 60 9.286 46.875c-.542-.586-1.084-1.27-1.625-2.05-2.4-2.423-4.276-5.235-5.63-8.438C.677 33.184 0 29.805 0 26.25c0-3.555.687-6.953 2.06-10.195 1.374-3.242 3.221-6.035 5.543-8.38 2.321-2.343 5.088-4.208 8.299-5.595C19.113.693 22.479 0 26 0c3.52 0 6.887.693 10.098 2.08 3.212 1.387 5.978 3.252 8.3 5.596 2.32 2.344 4.168 5.136 5.542 8.379C51.313 19.297 52 22.695 52 26.25c0 3.555-.677 6.934-2.031 10.137-1.354 3.203-3.23 6.015-5.63 8.437zM26 7.5c-3.366 0-6.471.84-9.315 2.52-2.843 1.68-5.097 3.955-6.76 6.826-1.665 2.87-2.496 6.006-2.496 9.404 0 3.398.831 6.533 2.495 9.404 1.664 2.871 3.918 5.137 6.761 6.797 2.844 1.66 5.949 2.49 9.315 2.49 3.366 0 6.471-.83 9.315-2.49 2.843-1.66 5.097-3.926 6.76-6.797 1.665-2.87 2.496-6.006 2.496-9.404 0-3.398-.831-6.533-2.495-9.404-1.664-2.871-3.918-5.147-6.761-6.826C32.47 8.34 29.366 7.5 26 7.5z"/>
    <path fill="#00B0F0" d="M26.104 22.666l-.757-5.293c-.03-.216-.206-.373-.412-.373h-.014c-.211.007-.384.18-.4.4l-.366 4.597c-.022.284-.501.284-.524 0l-.364-4.596c-.018-.227-.198-.401-.415-.401-.216 0-.397.174-.415.4l-.365 4.597c-.022.284-.502.284-.524 0l-.364-4.596c-.018-.22-.19-.393-.402-.401h-.013c-.206 0-.382.157-.412.373l-.756 5.293c-.222 1.552.58 3.036 1.931 3.654l-.643 9.468c-.038.57.152 1.136.522 1.554.37.418.894.658 1.44.658h.003c.544 0 1.069-.24 1.44-.658.37-.418.56-.984.522-1.554l-.643-9.467c1.352-.62 2.153-2.103 1.93-3.655zM32.26 17.08c-.11-.082-.252-.101-.38-.055-.035.013-3.61 1.392-3.61 5.662 0 3.074.952 4.626 1.488 5.256l-.534.56c-.068.072-.11.166-.12.266l-.659 6.922c-.056.59.128 1.18.506 1.618.378.44.921.69 1.484.69 1.103 0 2-.942 2-2.1V17.438c.001-.142-.065-.274-.175-.357z"/>
</svg>
