<svg xmlns="http://www.w3.org/2000/svg" width="52" height="60" fill="none" viewBox="0 0 52 60">
    <ellipse cx="26.237" cy="26.429" fill="#fff" rx="19.145" ry="19.286"/>
    <path fill="#70AD47" d="M44.34 44.824c-.542.782-1.084 1.465-1.626 2.051L25.942 60 9.286 46.875c-.542-.586-1.084-1.27-1.625-2.05-2.4-2.423-4.276-5.235-5.63-8.438C.677 33.184 0 29.805 0 26.25c0-3.555.687-6.953 2.06-10.195 1.374-3.242 3.221-6.035 5.543-8.38 2.321-2.343 5.088-4.208 8.299-5.595C19.113.693 22.479 0 26 0c3.52 0 6.887.693 10.098 2.08 3.212 1.387 5.978 3.252 8.3 5.596 2.32 2.344 4.168 5.136 5.542 8.379C51.313 19.297 52 22.695 52 26.25c0 3.555-.677 6.934-2.031 10.137-1.354 3.203-3.23 6.015-5.63 8.437zM26 7.5c-3.366 0-6.471.84-9.315 2.52-2.843 1.68-5.097 3.955-6.76 6.826-1.665 2.87-2.496 6.006-2.496 9.404 0 3.398.831 6.533 2.495 9.404 1.664 2.871 3.918 5.137 6.761 6.797 2.844 1.66 5.949 2.49 9.315 2.49 3.366 0 6.471-.83 9.315-2.49 2.843-1.66 5.097-3.926 6.76-6.797 1.665-2.87 2.496-6.006 2.496-9.404 0-3.398-.831-6.533-2.495-9.404-1.664-2.871-3.918-5.147-6.761-6.826C32.47 8.34 29.366 7.5 26 7.5z"/>
    <g fill="#70AD47" clip-path="url(#clip0)">
        <path d="M36.001 21.762c0-.705-.274-1.367-.772-1.865-.434-.433-1.01-.697-1.622-.752.033-.168.05-.338.05-.508 0-1.454-1.183-2.637-2.636-2.637-1.454 0-2.637 1.183-2.637 2.637 0 .042 0 .085.003.128.121.094.237.195.346.304.72.719 1.116 1.675 1.116 2.693 0 .888-.303 1.73-.858 2.409.05.235.076.475.076.716 0 .8-.276 1.537-.739 2.12.232.081.48.126.74.126.513 0 .988-.174 1.367-.466v-6.175c0-.323.262-.586.585-.586.324 0 .586.263.586.586v1.172l.625-.469c.26-.194.627-.141.82.117.195.26.142.627-.116.82l-1.329.997v3.538c.38.292.853.466 1.368.466 1.238 0 2.246-1.008 2.246-2.246 0-.363-.088-.715-.255-1.035.097-.072.185-.147.264-.226.498-.498.772-1.16.772-1.864z"/>
        <path d="M19.751 23.852c-.167.32-.255.672-.255 1.035 0 1.238 1.008 2.246 2.246 2.246.514 0 .988-.174 1.367-.466v-2.269l-1.328-.996c-.259-.194-.311-.561-.117-.82.194-.259.561-.311.82-.117l.625.469v-2.735c0-.323.263-.586.586-.586.324 0 .586.263.586.586v1.172l.625-.469c.26-.194.626-.141.82.117.195.26.142.627-.117.82l-1.328.997v3.831c.38.292.853.466 1.367.466 1.239 0 2.247-1.008 2.247-2.246 0-.363-.088-.715-.255-1.035.097-.072.185-.147.264-.226.497-.498.772-1.16.772-1.864 0-.705-.274-1.367-.772-1.865-.434-.433-1.01-.697-1.623-.752.034-.168.051-.338.051-.508 0-1.454-1.183-2.637-2.637-2.637s-2.636 1.183-2.636 2.637c0 .17.017.34.05.508-.612.055-1.188.319-1.622.752-.498.498-.772 1.16-.772 1.865 0 .704.274 1.366.772 1.864.08.08.167.154.264.226zM30.434 26.668v8.746c0 .324.262.586.585.586.324 0 .587-.262.587-.586v-8.747h-1.172z"/>
        <path d="M23.11 26.668h1.171v1.129H23.11v-1.13zM23.11 35.414c0 .324.262.586.585.586.324 0 .586-.262.586-.586v-.586H23.11v.586zM27.406 29.555c0-.324-.262-.586-.586-.586h-9.453c-.323 0-.586.262-.586.586v1.758h10.625v-1.758z"/>
        <path d="M27.602 32.484H16.586c-.324 0-.586.263-.586.586 0 .324.262.586.586.586h.977v1.758c0 .324.262.586.585.586.324 0 .586-.262.586-.586v-1.758h6.72v1.758c0 .324.261.586.585.586.324 0 .586-.262.586-.586v-1.758h.977c.323 0 .585-.262.585-.586 0-.323-.262-.586-.585-.586z"/>
    </g>
    <defs>
        <clipPath id="clip0">
            <path fill="#fff" d="M0 0H20V20H0z" transform="translate(16 16)"/>
        </clipPath>
    </defs>
</svg>
