<svg xmlns="http://www.w3.org/2000/svg" width="52" height="60" fill="none" viewBox="0 0 52 60">
    <ellipse cx="26.237" cy="26.428" fill="#fff" rx="19.145" ry="19.286"/>
    <path fill="#FFD966" d="M44.34 44.824c-.542.782-1.084 1.465-1.626 2.051L25.942 60 9.286 46.875c-.542-.586-1.084-1.27-1.625-2.05-2.4-2.423-4.276-5.235-5.63-8.438C.677 33.184 0 29.805 0 26.25c0-3.555.687-6.953 2.06-10.195 1.374-3.242 3.221-6.035 5.543-8.38 2.321-2.343 5.088-4.208 8.299-5.595C19.113.693 22.479 0 26 0c3.52 0 6.887.693 10.098 2.08 3.212 1.387 5.978 3.252 8.3 5.596 2.32 2.344 4.168 5.136 5.542 8.379C51.313 19.297 52 22.695 52 26.25c0 3.555-.677 6.934-2.031 10.137-1.354 3.203-3.23 6.015-5.63 8.437zM26 7.5c-3.366 0-6.471.84-9.315 2.52-2.843 1.68-5.097 3.955-6.76 6.826-1.665 2.87-2.496 6.006-2.496 9.404 0 3.398.831 6.533 2.495 9.404 1.664 2.871 3.918 5.137 6.761 6.797 2.844 1.66 5.949 2.49 9.315 2.49 3.366 0 6.471-.83 9.315-2.49 2.843-1.66 5.097-3.926 6.76-6.797 1.665-2.87 2.496-6.006 2.496-9.404 0-3.398-.831-6.533-2.495-9.404-1.664-2.871-3.918-5.147-6.761-6.826C32.47 8.34 29.366 7.5 26 7.5z"/>
    <path fill="#FFD966" d="M33.5 21.457c-.007-.082-.075-.145-.156-.145H30.53v-.78c0-2.5-2.033-4.532-4.531-4.532-2.498 0-4.531 2.033-4.531 4.531v.782h-2.813c-.081 0-.15.063-.156.144l-1.093 14.375c-.004.043.011.086.04.118.03.032.072.05.116.05h16.875c.043 0 .084-.018.114-.05s.044-.075.041-.118L33.5 21.457zm-10.781-.926c0-1.809 1.472-3.281 3.281-3.281 1.81 0 3.281 1.472 3.281 3.281v.782H22.72v-.782zm-.625 5.157c-.862 0-1.563-.701-1.563-1.563 0-.624.313-1.186.938-1.432v1.432c0 .345.28.625.625.625.344 0 .625-.28.625-.625v-1.431c.625.247.937.813.937 1.431 0 .862-.7 1.563-1.562 1.563zm7.812 0c-.861 0-1.562-.701-1.562-1.563 0-.624.312-1.186.937-1.432v1.432c0 .345.28.625.625.625s.625-.28.625-.625v-1.431c.625.247.938.813.938 1.431 0 .862-.701 1.563-1.563 1.563z"/>
</svg>
