<svg xmlns="http://www.w3.org/2000/svg" width="52" height="60" fill="none" viewBox="0 0 52 60">
    <ellipse cx="26.237" cy="26.428" fill="#fff" rx="19.145" ry="19.286"/>
    <path fill="#7030A0" d="M44.34 44.824c-.542.782-1.084 1.465-1.626 2.051L25.942 60 9.286 46.875c-.542-.586-1.084-1.27-1.625-2.05-2.4-2.423-4.276-5.235-5.63-8.438C.677 33.184 0 29.805 0 26.25c0-3.555.687-6.953 2.06-10.195 1.374-3.242 3.221-6.035 5.543-8.38 2.321-2.343 5.088-4.208 8.299-5.595C19.113.693 22.479 0 26 0c3.52 0 6.887.693 10.098 2.08 3.212 1.387 5.978 3.252 8.3 5.596 2.32 2.344 4.168 5.136 5.542 8.379C51.313 19.297 52 22.695 52 26.25c0 3.555-.677 6.934-2.031 10.137-1.354 3.203-3.23 6.015-5.63 8.437zM26 7.5c-3.366 0-6.471.84-9.315 2.52-2.843 1.68-5.097 3.955-6.76 6.826-1.665 2.87-2.496 6.006-2.496 9.404 0 3.398.831 6.533 2.495 9.404 1.664 2.871 3.918 5.137 6.761 6.797 2.844 1.66 5.949 2.49 9.315 2.49 3.366 0 6.471-.83 9.315-2.49 2.843-1.66 5.097-3.926 6.76-6.797 1.665-2.87 2.496-6.006 2.496-9.404 0-3.398-.831-6.533-2.495-9.404-1.664-2.871-3.918-5.147-6.761-6.826C32.47 8.34 29.366 7.5 26 7.5z"/>
    <path fill="#7030A0" d="M20.727 18.676h-2.97c-.323 0-.585.262-.585.586 0 .324.262.586.586.586h2.969c.323 0 .585-.262.585-.586 0-.324-.262-.586-.585-.586zM20.727 23.363h-2.97c-.323 0-.585.262-.585.586 0 .324.262.586.586.586h2.969c.323 0 .585-.262.585-.586 0-.324-.262-.586-.585-.586zM19.555 21.02h-2.97c-.323 0-.585.262-.585.585 0 .324.262.586.586.586h2.969c.324 0 .586-.262.586-.585 0-.324-.262-.587-.586-.587zM34.828 23.95h-3.555v-2.345c0-1.029-1.258-1.57-2-.828l-4.688 4.687c-.457.458-.457 1.2 0 1.658l2.688 2.686L24 33.081c-.458.458-.458 1.2 0 1.658.457.457 1.199.457 1.657 0l4.101-4.102c.458-.458.458-1.2 0-1.657l-2.687-2.687 1.859-1.859v.687c0 .647.524 1.172 1.172 1.172h4.726c.647 0 1.172-.525 1.172-1.172 0-.647-.525-1.172-1.172-1.172zM26.943 17.994c-.466-.31-1.084-.249-1.479.146l-3.222 3.223c-.458.457-.458 1.199 0 1.657.457.457 1.2.457 1.657 0l2.543-2.544.857.617 1.145-1.144c.191-.192.417-.34.664-.457l-2.165-1.498z"/>
    <path fill="#7030A0" d="M23.757 27.95c-.297-.297-.495-.662-.6-1.057l-6.189 6.189c-.457.457-.457 1.199 0 1.657.458.457 1.2.458 1.657 0l5.96-5.96-.828-.829zM31.86 20.434c.97 0 1.757-.787 1.757-1.758s-.787-1.758-1.758-1.758c-.97 0-1.757.787-1.757 1.758 0 .97.787 1.758 1.757 1.758z"/>
</svg>
