<svg xmlns="http://www.w3.org/2000/svg" width="52" height="60" fill="none" viewBox="0 0 52 60">
    <ellipse cx="26.237" cy="26.429" fill="#fff" rx="19.145" ry="19.286"/>
    <path fill="#00B0F0" d="M44.34 44.824c-.542.782-1.084 1.465-1.626 2.051L25.942 60 9.286 46.875c-.542-.586-1.084-1.27-1.625-2.05-2.4-2.423-4.276-5.235-5.63-8.438C.677 33.184 0 29.805 0 26.25c0-3.555.687-6.953 2.06-10.195 1.374-3.242 3.221-6.035 5.543-8.38 2.321-2.343 5.088-4.208 8.299-5.595C19.113.693 22.479 0 26 0c3.52 0 6.887.693 10.098 2.08 3.212 1.387 5.978 3.252 8.3 5.596 2.32 2.344 4.168 5.136 5.542 8.379C51.313 19.297 52 22.695 52 26.25c0 3.555-.677 6.934-2.031 10.137-1.354 3.203-3.23 6.015-5.63 8.437zM26 7.5c-3.366 0-6.471.84-9.315 2.52-2.843 1.68-5.097 3.955-6.76 6.826-1.665 2.87-2.496 6.006-2.496 9.404 0 3.398.831 6.533 2.495 9.404 1.664 2.871 3.918 5.137 6.761 6.797 2.844 1.66 5.949 2.49 9.315 2.49 3.366 0 6.471-.83 9.315-2.49 2.843-1.66 5.097-3.926 6.76-6.797 1.665-2.87 2.496-6.006 2.496-9.404 0-3.398-.831-6.533-2.495-9.404-1.664-2.871-3.918-5.147-6.761-6.826C32.47 8.34 29.366 7.5 26 7.5z"/>
    <path fill="#00B0F0" d="M19.969 36c1.292 0 2.343-1.051 2.343-2.394.001-.285.002-.639-.19-1.078-.295-.672-.981-2.42-.981-4.145 0-.97.788-1.836 1.757-1.836h.586v-1.172h-1.757c-.324 0-.586-.263-.586-.586v-.586h2.343v-1.172h-2.343V21.86h2.343v-1.172h-2.343v-1.171h2.343v-1.172h-2.343v-.586c0-.323.262-.586.586-.586h1.757V16h-4.101c-.97 0-1.758.788-1.758 1.758v15.898c0 1.293 1.051 2.344 2.344 2.344zM26.639 28.87c-1.168-.319-2.576.543-3.027 2.216-.456 1.683.331 3.125 1.497 3.44 1.142.31 2.57-.528 3.028-2.216l1.02-3.263h.373l1.02 3.264c.366 1.354 1.438 2.281 2.531 2.281l.011-.001c.533.847 1.577 1.409 2.696 1.409h.586v-1.172h-.586c-.597 0-1.185-.26-1.544-.65.937-.718 1.126-2.001.83-3.091-.453-1.679-1.862-2.535-3.027-2.216-.45.122-.822.404-1.098.784l-.376-1.178.622-2.012L27.855 16l-.551.176c-1.547.492-2.402 2.12-1.922 3.668l2.73 8.633-.371 1.183c-.277-.383-.65-.667-1.102-.79zm.367 3.134c-.25.921-.974 1.555-1.591 1.392-.723-.196-.87-1.272-.672-2.003.202-.749.867-1.58 1.59-1.391.613.166.92 1.083.673 2.002zm5.347-2.002c.728-.19 1.392.657 1.59 1.39v.001c.198.73.05 1.807-.672 2.003-.615.166-1.342-.472-1.59-1.391-.249-.92.059-1.838.672-2.003z"/>
    <path fill="#00B0F0" d="M33.305 19.844c.48-1.547-.375-3.176-1.922-3.668L30.832 16l-.879 2.707 1.852 5.824 1.5-4.687z"/>
</svg>
