<svg xmlns="http://www.w3.org/2000/svg" width="52" height="60" fill="none" viewBox="0 0 52 60">
    <ellipse cx="26.237" cy="26.429" fill="#fff" rx="19.145" ry="19.286"/>
    <path fill="#7F7F7F" d="M44.34 44.824c-.542.782-1.084 1.465-1.626 2.051L25.942 60 9.286 46.875c-.542-.586-1.084-1.27-1.625-2.05-2.4-2.423-4.276-5.235-5.63-8.438C.677 33.184 0 29.805 0 26.25c0-3.555.687-6.953 2.06-10.195 1.374-3.242 3.221-6.035 5.543-8.38 2.321-2.343 5.088-4.208 8.299-5.595C19.113.693 22.479 0 26 0c3.52 0 6.887.693 10.098 2.08 3.212 1.387 5.978 3.252 8.3 5.596 2.32 2.344 4.168 5.136 5.542 8.379C51.313 19.297 52 22.695 52 26.25c0 3.555-.677 6.934-2.031 10.137-1.354 3.203-3.23 6.015-5.63 8.437zM26 7.5c-3.366 0-6.471.84-9.315 2.52-2.843 1.68-5.097 3.955-6.76 6.826-1.665 2.87-2.496 6.006-2.496 9.404 0 3.398.831 6.533 2.495 9.404 1.664 2.871 3.918 5.137 6.761 6.797 2.844 1.66 5.949 2.49 9.315 2.49 3.366 0 6.471-.83 9.315-2.49 2.843-1.66 5.097-3.926 6.76-6.797 1.665-2.87 2.496-6.006 2.496-9.404 0-3.398-.831-6.533-2.495-9.404-1.664-2.871-3.918-5.147-6.761-6.826C32.47 8.34 29.366 7.5 26 7.5z"/>
    <path fill="#7F7F7F" d="M22.121 29.793c-.617 1.652-1.934 5.162-2.244 5.983-.05.134-.178.223-.321.224H16.62c-.124-.001-.24-.07-.3-.179-.06-.11-.056-.243.01-.349 0-.003 2.887-4.627 3.928-6.286.548.38 1.196.591 1.862.607zM35.38 36h-2.934c-.143 0-.27-.09-.32-.224-.31-.821-1.628-4.331-2.245-5.983.667-.016 1.314-.227 1.862-.607 1.041 1.659 3.927 6.283 3.927 6.286.067.106.07.24.01.349-.06.11-.174.178-.3.179zM19.45 23.269v3.076c0 1.523 1.234 2.759 2.758 2.759h1.034c0-1.518 0-4.283-3.793-5.835zm2.068 3.766h-.69c-.19 0-.344-.155-.344-.345 0-.19.154-.345.344-.345h.69c.19 0 .345.154.345.345 0 .19-.154.345-.345.345zM21.518 21.172v.418c.504.275.98.597 1.424.962h2.713v-4.483h-1.034c-1.713.003-3.1 1.39-3.103 3.103z"/>
    <path fill="#7F7F7F" d="M27.38 16h-2.758c-2.857.001-5.172 2.316-5.173 5.172v1.356c4.483 1.7 4.483 4.982 4.483 6.575h4.138c0-1.493 0-4.865 4.483-6.575v-1.356c-.001-2.856-2.316-5.171-5.173-5.172zm-.69 11.724h-1.379c-.19 0-.345-.154-.345-.345 0-.19.155-.345.345-.345h1.38c.19 0 .344.155.344.345 0 .19-.154.345-.344.345zm0-1.38h-1.379c-.19 0-.345-.154-.345-.344 0-.19.155-.345.345-.345h1.38c.19 0 .344.155.344.345 0 .19-.154.345-.344.345zm0-1.379h-1.379c-.19 0-.345-.154-.345-.344 0-.19.155-.345.345-.345h1.38c.19 0 .344.154.344.345 0 .19-.154.345-.344.345zm4.483-3.375c-.002.25-.139.481-.358.603-1.291.715-1.291 1.048-1.752 1.048h-6.124c-.46 0-.459-.332-1.752-1.048-.22-.122-.357-.352-.359-.603v-.418c.002-2.094 1.7-3.791 3.794-3.793h2.758c2.095.002 3.792 1.7 3.793 3.793v.418z"/>
    <path fill="#7F7F7F" d="M27.38 18.069h-1.034v4.483h2.717c.44-.365.915-.687 1.417-.962l.004-.418c-.003-1.713-1.39-3.1-3.104-3.103zM28.76 29.104h1.034c1.524 0 2.759-1.236 2.759-2.76V23.27c-3.793 1.566-3.793 4.407-3.793 5.835zm2.414-2.76c.19 0 .344.155.344.346 0 .19-.154.345-.344.345h-.69c-.19 0-.345-.155-.345-.345 0-.19.155-.345.345-.345h.69zM29.922 31.862H22.08l.517-1.38h6.807l.518 1.38zM31.212 35.31H20.79l.517-1.379h9.387l.517 1.38z"/>
</svg>
