<svg xmlns="http://www.w3.org/2000/svg" width="52" height="60" fill="none" viewBox="0 0 52 60">
    <ellipse cx="26.237" cy="26.428" fill="#fff" rx="19.145" ry="19.286"/>
    <path fill="#2F5597" d="M44.34 44.824c-.542.782-1.084 1.465-1.626 2.051L25.942 60 9.286 46.875c-.542-.586-1.084-1.27-1.625-2.05-2.4-2.423-4.276-5.235-5.63-8.438C.677 33.184 0 29.805 0 26.25c0-3.555.687-6.953 2.06-10.195 1.374-3.242 3.221-6.035 5.543-8.38 2.321-2.343 5.088-4.208 8.299-5.595C19.113.693 22.479 0 26 0c3.52 0 6.887.693 10.098 2.08 3.212 1.387 5.978 3.252 8.3 5.596 2.32 2.344 4.168 5.136 5.542 8.379C51.313 19.297 52 22.695 52 26.25c0 3.555-.677 6.934-2.031 10.137-1.354 3.203-3.23 6.015-5.63 8.437zM26 7.5c-3.366 0-6.471.84-9.315 2.52-2.843 1.68-5.097 3.955-6.76 6.826-1.665 2.87-2.496 6.006-2.496 9.404 0 3.398.831 6.533 2.495 9.404 1.664 2.871 3.918 5.137 6.761 6.797 2.844 1.66 5.949 2.49 9.315 2.49 3.366 0 6.471-.83 9.315-2.49 2.843-1.66 5.097-3.926 6.76-6.797 1.665-2.87 2.496-6.006 2.496-9.404 0-3.398-.831-6.533-2.495-9.404-1.664-2.871-3.918-5.147-6.761-6.826C32.47 8.34 29.366 7.5 26 7.5z"/>
    <g fill="#2F5597" clip-path="url(#clip0)">
        <path d="M29.644 29.02h-7.288l-.646 1.65-.112.285h1.405c-.002-.012-.004-.025-.004-.039V30.201c0-.139.107-.251.239-.251s.239.112.239.25v.716c0 .014-.002.026-.004.04h2.292c-.002-.014-.003-.026-.003-.04V30.201c0-.139.106-.251.238-.251s.239.112.239.25v.716c0 .014-.002.026-.004.04h2.293c-.002-.014-.004-.026-.004-.04V30.201c0-.139.107-.251.239-.251.131 0 .238.112.238.25v.716c0 .014-.002.026-.003.04h1.405l-.112-.287-.647-1.649z"/>
        <path d="M35.861 22.584c-.047-.145-.216-.258-.357-.258h-1.827c-.14 0-.31.113-.357.258-.065.2-.107.37-.126.53C32.39 21.49 31.5 19.68 31.5 19.68c-.088-.256-.299-.445-.555-.493-1.646-.313-3.31-.471-4.945-.471-1.634 0-3.298.158-4.945.471-.256.048-.468.237-.555.493 0 0-.89 1.81-1.694 3.434-.02-.16-.06-.33-.126-.53-.048-.145-.216-.258-.357-.258h-1.828c-.14 0-.309.113-.356.258-.185.566-.185.89 0 1.456.047.145.216.258.357.258h1.824c0 .024.001.048.004.072-.385.122-.665.497-.665.941v6.5c0 .261.202.473.45.473h2.267c.249 0 .45-.212.45-.473V30.67h.367l.782-1.995c.037-.094.124-.155.221-.155h7.608c.097 0 .184.061.22.155l.783 1.995h.367v1.142c0 .261.201.473.45.473h2.267c.248 0 .45-.212.45-.473v-6.5c0-.444-.28-.819-.665-.941.003-.024.004-.048.005-.072h1.824c.14 0 .309-.113.356-.258.185-.566.185-.89 0-1.456zm-14.356-2.346s1.088-.29 4.495-.29 4.495.29 4.495.29l1.598 4.06H19.907l1.598-4.06zm-1.986 7.026V25.93h2.752l.818 1.334h-3.57zm12.962 0h-3.57l.818-1.334h2.752v1.334z"/>
    </g>
    <defs>
        <clipPath id="clip0">
            <path fill="#fff" d="M0 0H20V21H0z" transform="translate(16 15)"/>
        </clipPath>
    </defs>
</svg>
