<svg width="28" height="32" viewBox="0 0 28 32" fill="none" xmlns="http://www.w3.org/2000/svg">
<ellipse cx="13.9931" cy="14.0953" rx="10.2109" ry="10.2857" fill="white"/>
<path d="M23.6476 23.9062C23.3587 24.3229 23.0698 24.6875 22.781 25L13.8357 32L4.95238 25C4.66349 24.6875 4.3746 24.3229 4.08571 23.9062C2.80635 22.6146 1.80556 21.1146 1.08333 19.4062C0.361111 17.6979 0 15.8958 0 14C0 12.1042 0.36627 10.2917 1.09881 8.5625C1.83135 6.83333 2.81667 5.34375 4.05476 4.09375C5.29286 2.84375 6.76825 1.84896 8.48095 1.10938C10.1937 0.369792 11.9889 0 13.8667 0C15.7444 0 17.5397 0.369792 19.2524 1.10938C20.9651 1.84896 22.4405 2.84375 23.6786 4.09375C24.9167 5.34375 25.902 6.83333 26.6345 8.5625C27.3671 10.2917 27.7333 12.1042 27.7333 14C27.7333 15.8958 27.3722 17.6979 26.65 19.4062C25.9278 21.1146 24.927 22.6146 23.6476 23.9062ZM13.8667 4C12.0714 4 10.4155 4.44792 8.89881 5.34375C7.38214 6.23958 6.18016 7.45312 5.29286 8.98438C4.40556 10.5156 3.9619 12.1875 3.9619 14C3.9619 15.8125 4.40556 17.4844 5.29286 19.0156C6.18016 20.5469 7.38214 21.7552 8.89881 22.6406C10.4155 23.526 12.0714 23.9688 13.8667 23.9688C15.6619 23.9688 17.3179 23.526 18.8345 22.6406C20.3512 21.7552 21.5532 20.5469 22.4405 19.0156C23.3278 17.4844 23.7714 15.8125 23.7714 14C23.7714 12.1875 23.3278 10.5156 22.4405 8.98438C21.5532 7.45312 20.3512 6.23958 18.8345 5.34375C17.3179 4.44792 15.6619 4 13.8667 4Z" fill="#A43FA6"/>
<path fill-rule="evenodd" clip-rule="evenodd" d="M10.4542 11.13V10.8247H12.0804V12.58H10.4542V12.58C10.1531 12.2348 9.80174 12.1362 9.4504 12.1362C8.78788 12.1362 8.296 12.5997 8.296 13.29C8.296 13.8127 8.78788 14.3452 9.4504 14.3452C9.80166 14.3452 10.1529 14.2367 10.454 13.9016H12.0804V15.6268C12.0825 17.1322 11.0084 18 9.48257 18C7.99691 18 6.92282 17.1717 6.84251 15.9291L6.83599 15.8374H8.4433L8.45889 15.9305C8.52964 16.3735 8.87086 16.649 9.47253 16.649C10.0347 16.649 10.4563 16.3137 10.4542 15.6564V15.282C10.0928 15.4891 9.6612 15.6173 9.12918 15.6173C7.80413 15.6173 6.70996 14.5818 6.70996 13.29C6.70996 11.8305 7.80413 10.8247 9.12918 10.8247C9.6612 10.8247 10.0928 10.9131 10.4542 11.13Z" fill="#141414"/>
<path fill-rule="evenodd" clip-rule="evenodd" d="M12.9844 12.5798H12.9863C13.3514 12.5798 13.6474 12.876 13.6471 13.2412C13.6467 13.6059 13.351 13.9014 12.9863 13.9014H12.9541C13.2148 15.0234 14.198 15.8017 15.498 15.8017C17.012 15.8017 18.0905 14.7324 18.0905 13.2938C18.0905 11.8746 17.012 10.8345 15.498 10.8345C14.2438 10.8345 13.2845 11.5391 12.9844 12.5798ZM15.4979 14.4409C14.8349 14.4409 14.4094 13.9354 14.4094 13.3036C14.4094 12.6912 14.8349 12.1954 15.4979 12.1954C16.141 12.1954 16.5764 12.6912 16.5764 13.3036C16.5764 13.9354 16.141 14.4409 15.4979 14.4409Z" fill="#141414"/>
<path d="M19.8737 15.8181C20.486 15.8181 21.0004 15.3444 21.0004 14.721C21.0004 14.1101 20.486 13.6363 19.8737 13.6363C19.2736 13.6363 18.7715 14.1101 18.7715 14.721C18.7715 15.3444 19.2736 15.8181 19.8737 15.8181Z" fill="#FE3945"/>
</svg>
