<svg width="28" height="32" viewBox="0 0 28 32" fill="none" xmlns="http://www.w3.org/2000/svg">
<ellipse cx="13.9922" cy="14.0953" rx="10.2109" ry="10.2857" fill="white"/>
<path d="M23.6476 23.9062C23.3587 24.3229 23.0698 24.6875 22.781 25L13.8357 32L4.95238 25C4.66349 24.6875 4.3746 24.3229 4.08571 23.9062C2.80635 22.6146 1.80556 21.1146 1.08333 19.4062C0.361111 17.6979 0 15.8958 0 14C0 12.1042 0.36627 10.2917 1.09881 8.5625C1.83135 6.83333 2.81667 5.34375 4.05476 4.09375C5.29286 2.84375 6.76825 1.84896 8.48095 1.10938C10.1937 0.369792 11.9889 0 13.8667 0C15.7444 0 17.5397 0.369792 19.2524 1.10938C20.9651 1.84896 22.4405 2.84375 23.6786 4.09375C24.9167 5.34375 25.902 6.83333 26.6345 8.5625C27.3671 10.2917 27.7333 12.1042 27.7333 14C27.7333 15.8958 27.3722 17.6979 26.65 19.4062C25.9278 21.1146 24.927 22.6146 23.6476 23.9062ZM13.8667 4C12.0714 4 10.4155 4.44792 8.89881 5.34375C7.38214 6.23958 6.18016 7.45312 5.29286 8.98438C4.40556 10.5156 3.9619 12.1875 3.9619 14C3.9619 15.8125 4.40556 17.4844 5.29286 19.0156C6.18016 20.5469 7.38214 21.7552 8.89881 22.6406C10.4155 23.526 12.0714 23.9688 13.8667 23.9688C15.6619 23.9688 17.3179 23.526 18.8345 22.6406C20.3512 21.7552 21.5532 20.5469 22.4405 19.0156C23.3278 17.4844 23.7714 15.8125 23.7714 14C23.7714 12.1875 23.3278 10.5156 22.4405 8.98438C21.5532 7.45312 20.3512 6.23958 18.8345 5.34375C17.3179 4.44792 15.6619 4 13.8667 4Z" fill="#C00000"/>
<path fill-rule="evenodd" clip-rule="evenodd" d="M10.4552 11.1301V10.8247H12.0814V12.58H10.4552V12.58C10.1541 12.2349 9.80272 12.1363 9.45138 12.1363C8.78885 12.1363 8.29698 12.5997 8.29698 13.29C8.29698 13.8127 8.78885 14.3452 9.45138 14.3452C9.80264 14.3452 10.1539 14.2368 10.455 13.9016H12.0814V15.6268C12.0835 17.1322 11.0094 18 9.48355 18C7.99789 18 6.9238 17.1717 6.84349 15.9292L6.83696 15.8374H8.44427L8.45986 15.9305C8.53062 16.3735 8.87183 16.649 9.47351 16.649C10.0357 16.649 10.4573 16.3138 10.4552 15.6564V15.282C10.0938 15.4891 9.66218 15.6173 9.13015 15.6173C7.8051 15.6173 6.71094 14.5819 6.71094 13.29C6.71094 11.8306 7.8051 10.8247 9.13015 10.8247C9.66218 10.8247 10.0938 10.9131 10.4552 11.1301Z" fill="#141414"/>
<path fill-rule="evenodd" clip-rule="evenodd" d="M12.9834 12.5798H12.9853C13.3505 12.5798 13.6464 12.876 13.6461 13.2412C13.6458 13.6059 13.35 13.9014 12.9853 13.9014H12.9531C13.2138 15.0234 14.197 15.8017 15.4971 15.8017C17.011 15.8017 18.0896 14.7324 18.0896 13.2938C18.0896 11.8746 17.011 10.8345 15.4971 10.8345C14.2429 10.8345 13.2836 11.5391 12.9834 12.5798ZM15.4969 14.4409C14.8339 14.4409 14.4084 13.9354 14.4084 13.3036C14.4084 12.6912 14.8339 12.1954 15.4969 12.1954C16.1401 12.1954 16.5754 12.6912 16.5754 13.3036C16.5754 13.9354 16.1401 14.4409 15.4969 14.4409Z" fill="#141414"/>
<path d="M19.8717 15.8181C20.4841 15.8181 20.9984 15.3443 20.9984 14.7209C20.9984 14.11 20.4841 13.6362 19.8717 13.6362C19.2716 13.6362 18.7695 14.11 18.7695 14.7209C18.7695 15.3443 19.2716 15.8181 19.8717 15.8181Z" fill="#FE3945"/>
</svg>
