<svg width="25" height="16" viewBox="0 0 25 16" fill="none" xmlns="http://www.w3.org/2000/svg">
  <path d="M15.3933 15.3761C15.8308 14.9327 16.2646 14.4856 16.7133 14.0497C16.7972 14.0001 16.8951 13.9803 16.9914 13.9933C17.7651 14.0468 18.5419 13.9551 19.2828 13.7228C21.0811 13.069 22.2157 11.8027 22.5308 9.89758C22.7991 8.47485 22.7637 7.01038 22.427 5.60267C22.167 4.65986 21.6335 3.81795 20.8957 3.18612C20.1579 2.5543 19.2497 2.16171 18.2891 2.05927C17.9183 2.02921 17.5475 2.01043 17.1545 2.00667C15.7604 2.00667 14.3662 2.00667 12.9721 2.00667C12.4797 1.98293 11.9883 2.07003 11.5331 2.26169C11.078 2.45335 10.6703 2.74482 10.3395 3.11515C9.78709 3.7577 9.15676 4.32885 8.5598 4.93006C8.48194 5.00897 8.40407 5.08412 8.32992 5.16679C8.08738 5.41434 7.91764 5.72543 7.83971 6.06523C7.76178 6.40502 7.77874 6.76009 7.88869 7.09067C7.98493 7.406 8.15886 7.69128 8.39408 7.91959C8.62929 8.1479 8.91803 8.3117 9.23304 8.39556C9.54805 8.47941 9.87895 8.48054 10.1945 8.39884C10.5101 8.31714 10.7999 8.1553 11.0366 7.92861C11.4981 7.42578 11.9937 6.95619 12.5197 6.52327C12.984 6.17325 13.5294 5.95012 14.1033 5.87534C14.6773 5.80056 15.2606 5.87664 15.7972 6.09626C16.3337 6.31589 16.8056 6.67167 17.1673 7.12944C17.529 7.5872 17.7685 8.13155 17.8627 8.71018C17.9642 9.24253 17.9344 9.79205 17.776 10.3099C17.6175 10.8278 17.3352 11.298 16.9543 11.6787C16.0965 12.563 15.2314 13.4397 14.3588 14.309C13.7397 14.8835 12.9516 15.236 12.1156 15.3122C10.3692 15.5452 8.61171 15.3987 6.86163 15.4137C6.27729 15.4223 5.69458 15.349 5.13008 15.1958C3.95846 14.9164 2.89186 14.2989 2.05941 13.4179C1.22696 12.537 0.664356 11.4303 0.439706 10.232C0.227815 9.02532 0.187858 7.79407 0.321056 6.57588C0.396014 5.27272 0.883615 4.02879 1.71148 3.02873C2.68437 1.74415 4.12066 0.903514 5.70479 0.691517C6.67624 0.563759 7.66251 0.575033 8.64137 0.526184L8.66362 0.612608C8.22239 1.06352 7.78487 1.52194 7.33252 1.96158C7.26948 2.01794 7.12859 2.00667 7.02106 2.00291C6.00769 1.94632 5.00004 2.19052 4.12156 2.70558C3.45462 3.07789 2.88954 3.6125 2.47724 4.26123C2.06493 4.90997 1.81834 5.65246 1.75968 6.42182C1.64472 7.53227 1.64472 8.65186 1.75968 9.76231C1.87886 10.7306 2.28833 11.6386 2.93281 12.3636C3.57729 13.0887 4.42576 13.5958 5.36367 13.8167C5.7821 13.9235 6.21142 13.9802 6.64287 13.9858C7.93689 13.9858 9.23833 13.9858 10.5249 13.9858C10.9932 13.9752 11.4602 13.9326 11.9228 13.8581C12.5627 13.7507 13.1509 13.4355 13.5987 12.96C14.3588 12.2085 15.1189 11.457 15.8642 10.6641C16.1169 10.4256 16.2975 10.1191 16.3848 9.7804C16.4722 9.44174 16.4626 9.08489 16.3573 8.75152C16.2649 8.40411 16.0761 8.09089 15.8131 7.84909C15.5502 7.60729 15.2243 7.44708 14.8742 7.38752C14.5864 7.32083 14.2867 7.32745 14.002 7.40679C13.7173 7.48613 13.4565 7.63572 13.2428 7.84218C12.8238 8.21794 12.4345 8.65758 12.0118 9.04461C11.5797 9.47222 11.0384 9.76913 10.4488 9.9019C9.85929 10.0347 9.24487 9.99804 8.67474 9.79612C8.0968 9.63196 7.57689 9.30453 7.17573 8.85208C6.77457 8.39962 6.50873 7.84083 6.40927 7.24097C6.27389 6.68569 6.28446 6.10414 6.43995 5.55429C6.59543 5.00444 6.89039 4.50549 7.29544 4.10715C8.09262 3.28049 8.91204 2.47637 9.71293 1.65346C10.2616 1.10541 10.9784 0.763427 11.7448 0.684002C13.2835 0.473577 14.8334 0.601336 16.3759 0.575033C17.2329 0.532349 18.0919 0.584005 18.938 0.729094C20.1648 0.993246 21.2889 1.61471 22.1722 2.51718C23.0555 3.41965 23.6595 4.56386 23.9101 5.80933C24.0898 6.98396 24.1271 8.17644 24.0214 9.36024C23.9294 10.816 23.352 12.1968 22.3839 13.2762C21.4158 14.3557 20.1144 15.0696 18.6932 15.301C17.6143 15.4588 16.5093 15.4212 15.4118 15.4738L15.3933 15.3761Z" fill="#2296CE"/>
</svg>
