<svg xmlns="http://www.w3.org/2000/svg" width="63" height="106" fill="none" viewBox="0 0 63 106">
    <path fill="#F1F1F1" d="M62.915 97.163c0 4.881-11.925 8.837-26.635 8.837s-26.635-3.956-26.635-8.837c0-4.88 11.925-8.837 26.635-8.837s26.635 3.957 26.635 8.837z"/>
    <path fill="#fff" d="M27.617 18.4c1.8-.873 2.201-3.186 2.201-4.565l4.123.325c.028.42-.243 1.665 0 2.645.552 2.226 5.186 3.892 6.517 5.151 1.331 1.26 4.41 12.006 5.242 13.685.666 1.343 5.103 4.925 7.239 6.549l-1.83 2.182c-2.608-1.287-8.105-4.18-9.236-5.457-1.132-1.276-2.746-5.737-3.412-7.807-.221 2.238-.665 7.253-.665 9.402v6.38c-5.858 4.165-13.146 1.736-16.058 0 .332-1.482.998-5.003.998-7.22 0-2.216-.333-6.632-.5-8.563-.332 1.764-3.827 7.724-6.406 7.808-2.063.067-5.852-.7-7.488-1.091L7.423 34.8c1.86.084 5.879.034 7.077-.84 1.497-1.09 3.907-8.143 6.07-11.081 2.164-2.938 4.799-3.39 7.047-4.48z"/>
    <path fill="#03224C" fill-rule="evenodd" d="M29.573 13.567l4.598.363.015.214c.008.129-.006.306-.023.492l-.014.146c-.015.157-.032.327-.044.508-.034.48-.038 1.004.074 1.454.12.488.473.97.991 1.445.515.473 1.172.92 1.865 1.343.448.274.902.533 1.34.782.24.138.477.273.704.405.627.367 1.19.72 1.547 1.057.2.19.41.53.624.948.218.427.453.964.699 1.573.492 1.217 1.029 2.736 1.55 4.264.304.894.604 1.795.885 2.64.2.599.39 1.17.565 1.69.43 1.272.772 2.238.97 2.64.147.295.522.746 1.066 1.297.537.544 1.216 1.163 1.943 1.795 1.455 1.262 3.094 2.56 4.158 3.369l.208.157-2.122 2.53-.171-.084c-1.307-.646-3.337-1.693-5.184-2.74-.923-.523-1.803-1.047-2.525-1.522-.714-.47-1.295-.907-1.602-1.253-.305-.343-.63-.885-.952-1.519-.325-.638-.657-1.387-.972-2.157-.44-1.071-.85-2.19-1.17-3.121-.233 2.5-.555 6.407-.555 8.227v6.51l-.104.073c-2.99 2.126-6.34 2.564-9.3 2.256-2.957-.307-5.54-1.361-7.024-2.245l-.154-.092.04-.176c.332-1.482.992-4.979.992-7.165 0-1.83-.23-5.178-.402-7.368-.118.273-.257.566-.413.87-.42.819-.975 1.742-1.602 2.613-.625.87-1.327 1.695-2.043 2.31-.708.61-1.464 1.043-2.193 1.067-1.057.034-2.54-.144-3.952-.377-1.416-.233-2.778-.524-3.601-.721l-.137-.033-1.061-3.493.347.015c.923.042 2.382.05 3.756-.06.688-.055 1.348-.14 1.908-.263.567-.124 1.001-.282 1.258-.47.155-.112.338-.316.546-.611.206-.293.426-.66.66-1.086.465-.853.971-1.922 1.502-3.056l.182-.39c1.005-2.151 2.09-4.477 3.128-5.886 1.712-2.326 3.742-3.145 5.586-3.89.537-.216 1.058-.426 1.551-.665.825-.4 1.34-1.136 1.652-1.958.312-.824.41-1.715.41-2.384v-.268zm.486.535c-.024.672-.14 1.506-.438 2.293-.339.897-.923 1.755-1.897 2.228-.539.261-1.09.484-1.644.708-1.824.738-3.69 1.493-5.313 3.697-1.006 1.366-2.073 3.65-3.088 5.823l-.172.368c-.53 1.133-1.042 2.215-1.516 3.084-.238.434-.468.82-.69 1.133-.218.31-.438.566-.658.727-.342.249-.859.424-1.44.552-.59.13-1.274.216-1.974.272-1.237.1-2.537.104-3.47.075l.776 2.553c.823.194 2.103.464 3.43.682 1.408.232 2.85.404 3.857.37.56-.017 1.209-.36 1.891-.948.676-.58 1.352-1.372 1.964-2.223.612-.85 1.154-1.753 1.563-2.55.413-.804.68-1.481.756-1.885l.485.025c.166 1.93.5 6.356.5 8.585 0 2.161-.621 5.523-.965 7.097 1.451.832 3.892 1.8 6.671 2.089 2.842.296 6.022-.12 8.863-2.095V40.51c0-2.164.446-7.192.667-9.427l.478-.052c.33 1.03.899 2.658 1.524 4.184.313.763.638 1.498.955 2.12.319.626.62 1.12.882 1.415.258.292.789.697 1.505 1.168.708.467 1.578.985 2.496 1.506 1.758.996 3.685 1.994 4.988 2.641l1.54-1.836c-1.07-.818-2.604-2.04-3.977-3.231-.732-.635-1.42-1.264-1.97-1.82-.542-.55-.971-1.05-1.157-1.426-.218-.439-.572-1.445-.996-2.7-.178-.527-.368-1.099-.567-1.697-.28-.843-.58-1.74-.884-2.633-.52-1.526-1.053-3.035-1.54-4.239-.242-.602-.472-1.124-.68-1.532-.213-.417-.39-.689-.523-.814-.31-.293-.825-.62-1.458-.99-.218-.127-.45-.26-.69-.396-.442-.252-.91-.519-1.363-.796-.701-.429-1.39-.895-1.94-1.4-.548-.503-.982-1.064-1.137-1.69-.131-.53-.122-1.118-.088-1.61.014-.188.03-.367.046-.525.005-.049.01-.096.013-.14l.017-.201-3.632-.287z" clip-rule="evenodd"/>
    <path fill="#FE3945" d="M27.843 17.236l2.135 2.821 4.88-2.308 2.897 29.029c-6.831 4.636-13.588 1.932-16.113 0 .763-6.667 2.298-20.494 2.338-22.464.041-1.97 2.593-5.539 3.863-7.078z"/>
    <path fill="#03224C" fill-rule="evenodd" d="M29.582 13.622l4.598.364.014.213c.009.129-.005.306-.023.492l-.013.146c-.015.157-.032.327-.044.508-.034.48-.038 1.004.074 1.455.12.487.473.969.991 1.444.515.473 1.172.92 1.864 1.343.449.274.903.533 1.34.782.241.138.478.273.705.405.627.367 1.19.72 1.547 1.057.2.19.41.53.623.948.218.427.454.964.7 1.573.492 1.217 1.029 2.736 1.55 4.264.304.894.603 1.795.885 2.64l.565 1.691c.43 1.27.772 2.238.97 2.639.147.295.522.746 1.066 1.297.537.544 1.216 1.164 1.943 1.795 1.455 1.262 3.093 2.56 4.158 3.37l.208.157-2.122 2.53-.172-.085c-1.306-.645-3.336-1.693-5.183-2.74-.923-.523-1.803-1.047-2.525-1.522-.714-.47-1.295-.906-1.602-1.252-.305-.344-.63-.886-.952-1.52-.325-.638-.657-1.386-.972-2.157-.44-1.07-.85-2.19-1.17-3.121-.233 2.5-.555 6.407-.555 8.228v6.508l-.104.075c-2.99 2.125-6.34 2.563-9.3 2.255-2.957-.307-5.54-1.36-7.024-2.245l-.154-.091.04-.176c.332-1.483.992-4.98.992-7.166 0-1.83-.23-5.178-.402-7.368-.118.273-.257.566-.413.87-.42.82-.976 1.743-1.602 2.614-.625.87-1.327 1.694-2.043 2.31-.708.609-1.464 1.042-2.193 1.066-1.057.034-2.54-.144-3.952-.377-1.416-.233-2.778-.524-3.601-.721l-.137-.033-1.061-3.493.347.015c.923.042 2.382.05 3.756-.06.687-.055 1.348-.14 1.908-.262.567-.125 1.001-.283 1.258-.47.155-.113.338-.316.546-.612.206-.292.426-.66.659-1.086.466-.853.972-1.921 1.503-3.056.06-.13.12-.26.182-.39 1.004-2.151 2.09-4.477 3.127-5.885 1.713-2.327 3.743-3.146 5.587-3.89.537-.216 1.058-.427 1.551-.666.825-.4 1.34-1.135 1.652-1.958.312-.823.41-1.715.41-2.384v-.268zm.485.535c-.023.673-.139 1.506-.437 2.294-.34.897-.924 1.754-1.897 2.227-.54.261-1.09.484-1.644.709-1.824.737-3.69 1.492-5.313 3.696-1.006 1.367-2.073 3.65-3.088 5.824l-.172.367c-.53 1.133-1.042 2.215-1.516 3.084-.238.434-.468.82-.69 1.134-.218.31-.438.566-.658.726-.342.25-.86.424-1.44.552-.59.13-1.275.216-1.974.273-1.237.099-2.538.104-3.47.074l.776 2.554c.823.193 2.103.463 3.43.682 1.408.232 2.85.403 3.857.37.56-.018 1.209-.361 1.891-.948.676-.581 1.352-1.373 1.964-2.224.611-.85 1.154-1.753 1.563-2.55.413-.804.68-1.48.756-1.884l.485.024c.166 1.93.5 6.356.5 8.585 0 2.161-.621 5.523-.965 7.097 1.451.832 3.892 1.8 6.671 2.09 2.842.295 6.022-.12 8.863-2.096v-6.251c0-2.164.446-7.193.667-9.428l.477-.052c.332 1.031.9 2.658 1.525 4.184.313.763.638 1.499.955 2.12.319.627.62 1.121.881 1.416.26.291.79.696 1.505 1.167.71.467 1.579.986 2.497 1.506 1.758.996 3.685 1.995 4.987 2.641l1.54-1.836c-1.069-.818-2.603-2.04-3.976-3.23-.732-.636-1.421-1.265-1.97-1.821-.542-.55-.971-1.05-1.157-1.426-.218-.439-.572-1.445-.996-2.7-.178-.527-.368-1.099-.567-1.697-.281-.843-.58-1.739-.884-2.633-.52-1.526-1.053-3.035-1.54-4.239-.242-.602-.472-1.124-.68-1.532-.213-.417-.39-.688-.524-.814-.309-.292-.824-.62-1.457-.99-.218-.127-.45-.259-.69-.396-.442-.252-.91-.519-1.363-.796-.701-.429-1.39-.895-1.94-1.4-.548-.502-.982-1.064-1.137-1.69-.131-.53-.122-1.117-.088-1.61.014-.188.03-.367.046-.525l.013-.14.017-.2-3.633-.288z" clip-rule="evenodd"/>
    <path fill="#fff" d="M35.155 13.99c2.926-2.253 2.29-8.645 2.137-10.92H26.913c-.188.872-.443 3.594.008 7.052.563 4.322 4.945 6.4 8.234 3.867z"/>
    <path fill="#03224C" fill-rule="evenodd" d="M26.715 2.823h10.806l.016.23.028.407c.086 1.202.226 3.151.057 5.1-.188 2.17-.766 4.43-2.318 5.626-1.718 1.323-3.733 1.446-5.392.665-1.657-.781-2.942-2.456-3.235-4.697-.453-3.48-.198-6.232-.003-7.137l.041-.194zm.4.494c-.174 1.012-.369 3.57.049 6.773.271 2.081 1.458 3.606 2.955 4.312 1.495.705 3.316.6 4.887-.61 1.373-1.057 1.94-3.119 2.128-5.276.165-1.905.028-3.814-.058-5.018l-.013-.18h-9.948z" clip-rule="evenodd"/>
    <path fill="#F4D8CD" d="M50.258 71.233l-5.881-1.804c-.33-.102-.353-.565-.034-.698l11.642-4.87c.26-.109.55-.124.82-.042l5.687 1.712c.33.1.356.56.04.697l-11.433 4.958c-.266.115-.564.132-.841.047z"/>
    <path fill="#03224C" fill-rule="evenodd" d="M55.892 63.633c.312-.131.66-.15.984-.052l-.07.237.07-.236 5.686 1.712c.55.165.593.933.067 1.161l-11.433 4.958c-.32.138-.677.158-1.01.056l-5.88-1.804c-.551-.169-.589-.94-.057-1.163l11.643-4.87.093.23-.093-.23zm.844.423c-.216-.065-.448-.053-.657.034l-11.642 4.87c-.107.044-.1.198.011.232l5.881 1.804c.222.068.46.055.673-.038l11.433-4.957c.105-.046.097-.2-.013-.233l-5.686-1.712z" clip-rule="evenodd"/>
    <path fill="#03224C" fill-rule="evenodd" d="M50.454 47.495c.135 0 .245.111.245.248v21.006c0 .137-.11.248-.245.248-.136 0-.245-.111-.245-.248V47.743c0-.137.11-.248.245-.248zM56.683 44.948c.136 0 .245.11.245.248v21.006c0 .137-.11.247-.245.247s-.245-.11-.245-.247V45.196c0-.137.11-.248.245-.248z" clip-rule="evenodd"/>
    <path fill="#03224C" fill-rule="evenodd" d="M59.734 43.62c.054.126-.003.272-.128.326l-12.164 5.3c-.125.054-.269-.003-.323-.129-.053-.125.004-.27.128-.325l12.165-5.3c.124-.055.269.003.322.129z" clip-rule="evenodd"/>
    <path fill="#03224C" d="M52.005 92.382c0 1.301-1.057 2.355-2.36 2.355-1.304 0-2.361-1.054-2.361-2.355 0-1.3 1.057-2.354 2.36-2.354 1.304 0 2.36 1.054 2.36 2.354zM61.405 87.674c0 1.3-1.057 2.354-2.361 2.354-1.304 0-2.36-1.054-2.36-2.354s1.056-2.355 2.36-2.355c1.304 0 2.36 1.054 2.36 2.355z"/>
    <path fill="#F4D8CD" d="M44.853 89.93V69.086l5.985 2.101 11.034-4.797v19.99l-11.99 6.003c-.832-.49-3.7-1.84-5.03-2.453z"/>
    <path fill="#03224C" fill-rule="evenodd" d="M62.007 66.183c.069.046.11.123.11.207v19.99c0 .094-.052.18-.136.222l-11.99 6.002c-.073.037-.16.034-.232-.007-.82-.483-3.673-1.826-5.008-2.442-.087-.04-.143-.128-.143-.225V69.086c0-.08.038-.155.103-.202.064-.046.147-.058.222-.032l5.895 2.07 10.947-4.76c.076-.033.163-.025.232.021zm-.38.583l-10.692 4.648c-.057.025-.12.027-.178.007l-5.659-1.987v20.337c1.319.61 3.86 1.808 4.793 2.332l11.736-5.877v-19.46z" clip-rule="evenodd"/>
    <path fill="#03224C" fill-rule="evenodd" d="M58.321 70.979c.136 0 .245.11.245.247v12.917c0 .136-.11.247-.245.247s-.245-.11-.245-.247V71.226c0-.136.11-.247.245-.247zm-4.626 1.973c.136 0 .246.11.246.247v13.366c0 .136-.11.247-.246.247-.135 0-.245-.11-.245-.247V73.199c0-.136.11-.247.245-.247z" clip-rule="evenodd"/>
    <path fill="#fff" d="M57.25 45.916c0-.518-.953-2.404-1.795-2.626-.639-.168-1.813-.615-2.403-.85l-1.482 1.664c.147 1.568 1.991 2.058 2.895 2.107-.025.592-.015 1.775.22 1.775.293 0 2.565-1.553 2.565-2.07z"/>
    <path fill="#03224C" fill-rule="evenodd" d="M52.974 42.37l-.104-.095-1.554 1.744.01.108c.084.894.655 1.47 1.29 1.817.534.293 1.135.44 1.597.494-.006.275-.003.61.02.902.015.19.039.375.079.52.02.07.048.148.092.214.044.064.135.16.28.16.062 0 .12-.018.158-.032.045-.015.093-.036.143-.06.1-.048.22-.115.35-.194.262-.159.58-.374.888-.604.307-.23.61-.48.84-.711.114-.115.216-.23.29-.34.069-.1.142-.234.142-.377 0-.182-.077-.436-.18-.691-.108-.267-.26-.57-.438-.862-.178-.292-.387-.581-.61-.814-.22-.228-.476-.426-.75-.498-.622-.164-1.783-.605-2.375-.84l-.092-.037-.076.195zm.147.364l-1.294 1.451c.095.617.503 1.04 1.023 1.325.553.303 1.203.431 1.628.454l.242.014-.01.244c-.012.29-.016.723.012 1.08.013.161.03.296.054.392.08-.039.185-.097.307-.17.247-.15.551-.355.848-.578.297-.223.58-.457.786-.664.104-.104.182-.195.232-.269.048-.07.054-.101.055-.1v.003c0-.077-.042-.253-.143-.504-.098-.24-.237-.52-.402-.79-.166-.272-.353-.529-.545-.728-.196-.204-.375-.326-.521-.364-.6-.159-1.649-.552-2.272-.797z" clip-rule="evenodd"/>
    <path fill="#03224C" d="M23.593 4.457C22.735 1.772 24.868.529 26.656.349c2.472 0 5.45-.158 7.025-.322 3.472-.362 5.835 2.977 5.108 6.08-.425 1.817-.922 3.268-.958 5.396-.036 1.408-1.548 3.945-3.95 4.55-3.004.758-5.668.846-7.225-.789-1.235-1.296-.606-3.246 0-4.22l1.198.796c1.672-1.849 5.373.858 6.026 0 .79-1.037 1.46-4.368 1.138-5.342-.322-.974-1.287-1.841-3.432-1.3-2.146.543-6.92 2.615-7.993-.741zM25.855 25.41c.422-3.806 1.75-6.394 2.36-7.212l.455-1.295c-3.718.946-6.533 3.411-7.476 4.526-.592 1.019-1.915 3.384-2.464 4.688-.687 1.631-3.394 7.217-4.203 7.665-.646.36-3.963.705-5.541.833l1.42 4.753c2.115-.245 6.243.228 6.857 0 .615-.228 2.525-3.604 3.276-4.754v9.897l4.561 2.3c.076-5.548.334-17.597.755-21.402z"/>
    <path fill="#03224C" fill-rule="evenodd" d="M29.053 16.55l-.619 1.767-.022.03c-.582.779-1.896 3.323-2.313 7.09-.42 3.79-.677 15.823-.753 21.378l-.006.395-5.047-2.547V35.47l-.263.43-.025.04c-.294.482-.623 1.021-.949 1.532-.325.51-.649.995-.932 1.37-.142.187-.276.35-.399.477-.114.118-.244.233-.377.282-.115.043-.28.061-.456.07-.184.01-.41.011-.666.007-.44-.007-.978-.03-1.557-.056l-.282-.012c-1.38-.06-2.919-.115-3.953.005l-.204.023-1.567-5.245.303-.024c.786-.064 2.006-.182 3.108-.328.551-.074 1.07-.154 1.49-.237.431-.086.722-.17.845-.238.052-.028.156-.126.31-.326.145-.189.314-.442.501-.745.374-.605.806-1.39 1.237-2.216.862-1.652 1.707-3.45 2.047-4.257.557-1.322 1.887-3.7 2.479-4.718l.01-.018.015-.017c.967-1.143 3.823-3.643 7.602-4.605l.444-.113zm-7.658 5.023c-.599 1.03-1.9 3.361-2.44 4.641-.346.824-1.198 2.634-2.064 4.294-.433.83-.872 1.628-1.254 2.248-.192.31-.371.578-.531.787-.152.198-.31.373-.46.456-.2.111-.567.206-.988.29-.434.086-.964.167-1.52.241-.98.13-2.048.238-2.83.306l1.275 4.265c1.07-.097 2.542-.042 3.825.014l.283.012c.58.025 1.11.048 1.543.055.251.005.465.003.632-.006.177-.01.275-.026.313-.04.02-.008.085-.05.195-.164.103-.106.224-.252.36-.432.27-.358.586-.83.91-1.337.322-.506.65-1.04.944-1.523l.028-.046c.282-.461.534-.874.718-1.156l.45-.689v10.569l4.077 2.056c.082-5.701.337-17.3.75-21.032.421-3.798 1.737-6.413 2.386-7.302l.286-.814c-3.417 1-5.994 3.259-6.888 4.307z" clip-rule="evenodd"/>
    <path fill="#03224C" d="M34.569 24.715c0-3.963-.63-6.28-.63-8.21 2.84 1.16 6.809 3.797 7.551 5.259l4.38 14.249 5.06 4.115-2.04 4.876c-1.636-1.067-5.255-3.383-6.645-4.114-1.39-.732-2.542-3.556-2.945-4.877l.378 8.534c-3.625 1.463-6.55 2.656-6.953 2.732 0-4.597 1.844-18.602 1.844-22.564z"/>
    <path fill="#03224C" fill-rule="evenodd" d="M33.694 16.139l.337.137c1.44.587 3.157 1.546 4.608 2.54.726.498 1.39 1.008 1.92 1.488.527.476.942.94 1.15 1.347l.009.02 4.364 14.197 5.145 4.184-2.224 5.32-.245-.16c-1.64-1.07-5.25-3.378-6.626-4.103-.39-.205-.747-.547-1.068-.95-.322-.403-.617-.88-.877-1.37-.214-.4-.405-.813-.572-1.206l.315 7.129-.161.065-1.195.483c-1.335.538-2.534 1.023-3.491 1.403-.618.246-1.136.449-1.526.595-.379.142-.66.24-.787.264l-.29.055v-.298c0-2.315.463-6.981.923-11.545l.05-.491c.444-4.407.87-8.634.87-10.528 0-1.968-.156-3.526-.313-4.837-.027-.231-.055-.455-.082-.672-.125-1.012-.234-1.89-.234-2.7v-.367zm.498.742c.026.672.116 1.401.221 2.252.028.22.056.448.084.685.158 1.32.317 2.901.317 4.897 0 1.92-.428 6.164-.87 10.543l-.053.526c-.44 4.365-.878 8.78-.918 11.16.11-.038.247-.088.413-.15.385-.145.9-.346 1.517-.591.956-.38 2.154-.864 3.488-1.403l1.034-.417-.37-8.359.48-.084c.197.648.58 1.67 1.084 2.615.251.473.53.922.828 1.295.298.374.606.66.912.82 1.335.703 4.693 2.845 6.42 3.967l1.853-4.434-4.974-4.045-4.396-14.3c-.168-.32-.523-.727-1.03-1.185-.51-.462-1.155-.958-1.869-1.447-1.313-.9-2.844-1.767-4.171-2.345z" clip-rule="evenodd"/>
    <path fill="#03224C" fill-rule="evenodd" d="M34.035 18.346c-1.11.747-3.138 1.623-4.005 1.966l-.176.07-.112-.155c-.501-.69-1.085-1.59-1.315-1.954l.414-.265c.21.333.72 1.12 1.186 1.772.936-.379 2.74-1.176 3.736-1.845l.272.412z" clip-rule="evenodd"/>
    <path fill="#E2EFF2" d="M3.345 39.18L1.157 31.19c-.03-.114.077-.216.187-.178l3.5 1.21c.093.032.164.11.188.208l1.913 7.955c.028.113-.081.212-.19.172l-3.229-1.178c-.088-.032-.156-.106-.181-.197z"/>
    <path fill="#03224C" fill-rule="evenodd" d="M1.444 31.307l2.137 7.808c.004.014.015.025.028.03l-.083.233.083-.233 3.054 1.114-1.87-7.772c-.003-.015-.014-.027-.029-.032l-3.32-1.148zm-.523-.052c-.084-.306.206-.58.503-.478l3.5 1.21c.172.06.303.204.346.384l1.914 7.954c.073.305-.22.57-.512.464l-3.23-1.178c-.163-.06-.287-.196-.333-.364L.92 31.254z" clip-rule="evenodd"/>
    <path fill="#fff" d="M.266 35.628c.105-.543.962-1.379 1.378-1.73l.175.882c.583.283 1.903 1.038 2.522 1.798.773.95 1.546 3.02 1.143 2.986-.404-.034-4.61-1.323-4.71-1.56-.101-.238-.64-1.697-.508-2.376z"/>
    <path fill="#03224C" fill-rule="evenodd" d="M1.803 33.442l.233 1.17c.301.152.732.393 1.165.681.487.324.996.719 1.33 1.128.409.503.807 1.285 1.052 1.93.122.323.213.629.244.86.015.11.022.235-.01.342-.016.057-.048.129-.115.184-.073.06-.16.08-.238.073-.075-.006-.205-.036-.354-.073-.157-.04-.357-.095-.585-.16-.455-.13-1.024-.303-1.584-.481-.559-.179-1.11-.365-1.53-.521-.21-.079-.391-.151-.525-.213-.066-.03-.127-.062-.175-.092-.025-.014-.051-.032-.075-.053-.02-.017-.062-.056-.088-.116-.055-.13-.218-.564-.352-1.054-.067-.246-.128-.51-.163-.76-.035-.245-.049-.496-.008-.706.035-.18.127-.366.235-.536.11-.175.25-.351.394-.517.29-.332.617-.637.833-.819l.316-.267zm-1.13 1.87c-.094.149-.149.272-.167.363-.025.13-.02.316.012.542.032.222.087.465.151.698.113.414.248.785.31.94.024.015.061.034.111.057.117.054.285.122.49.198.41.153.954.336 1.51.514.554.177 1.119.348 1.569.477.225.064.42.117.57.156l.113.027v-.005c-.025-.177-.1-.441-.217-.75-.235-.618-.61-1.347-.974-1.794-.285-.35-.745-.713-1.22-1.028-.47-.313-.936-.567-1.218-.704l-.11-.053-.115-.579c-.15.143-.314.31-.466.483-.134.155-.256.311-.349.457z" clip-rule="evenodd"/>
    <path fill="#fff" d="M5.95 34.653l1.497.192.814 2.978-1.657-.299-.655-2.87z"/>
    <path fill="#03224C" fill-rule="evenodd" d="M5.631 34.363l2.009.257.96 3.515-2.199-.396-.77-3.376zm.636.58l.54 2.366 1.114.201-.667-2.44-.987-.127z" clip-rule="evenodd"/>
    <path fill="#fff" d="M19.174 67.802c-.382-4.124 1.888-15.559 3.058-20.607 5.92 3.446 12.75 1.953 15.726-.339 1.479 9.152-.616 30.882-1.849 40.603-1.971 1.345-3.943.56-4.683 0-.394-9.797-1.15-25.347-1.478-31.898-1.069 3.772-3.205 11.788-3.205 13.678v18.22c-2.366 1.046-4.01.436-4.537 0-.852-4.834-2.65-15.532-3.032-19.657z"/>
    <path fill="#03224C" fill-rule="evenodd" d="M38.048 46.627c.08.032.138.104.152.19.744 4.607.588 12.354.095 20.143-.493 7.798-1.326 15.666-1.942 20.53-.01.07-.048.134-.106.174-2.087 1.423-4.176.593-4.968-.007-.059-.045-.095-.114-.098-.188-.366-9.108-1.046-23.19-1.403-30.388-.49 1.773-1.082 3.999-1.595 6.084-.334 1.355-.633 2.648-.849 3.72-.218 1.079-.345 1.91-.345 2.354v18.22c0 .098-.058.187-.147.227-2.437 1.077-4.183.469-4.792-.036-.045-.037-.076-.09-.086-.148-.85-4.83-2.651-15.54-3.034-19.676-.195-2.1.284-6.023.949-10.022.667-4.011 1.528-8.137 2.114-10.665.017-.077.07-.14.141-.171.071-.031.153-.027.22.013 2.91 1.694 6.047 2.175 8.825 1.95 2.783-.226 5.187-1.16 6.63-2.271.069-.053.16-.066.24-.033zm-15.652.945c-.58 2.54-1.396 6.48-2.033 10.314-.667 4.011-1.132 7.869-.945 9.893.378 4.086 2.154 14.66 3.012 19.541.509.36 1.959.858 4.068-.025V69.24c0-.501.14-1.38.355-2.453.218-1.082.52-2.382.854-3.74.668-2.715 1.47-5.665 2.005-7.553.033-.117.144-.192.263-.178.12.014.211.113.217.233.328 6.524 1.079 21.975 1.474 31.78.738.504 2.467 1.118 4.214-.013.614-4.865 1.437-12.66 1.926-20.386.479-7.571.635-15.048-.03-19.635-1.547 1.068-3.897 1.914-6.557 2.13-2.77.225-5.895-.232-8.823-1.852z" clip-rule="evenodd"/>
    <path fill="#03224C" d="M15.573 92.359c2.071-2.614 6.156-4.226 6.675-4.705 2.077.627 4.402.26 5.305 0 2.067 1.698.782 3.398-2.067 4.705-2.85 1.306-12.502 3.267-9.913 0zM29.133 91.021c.523-.982 1.84-2.536 2.433-3.19 1.946.458 3.616.19 4.208 0 .81.763 1.665 1.475 1.665 2.89 0 1.459-2.087 4.884-6.282 4.392-2.437-.286-2.677-2.864-2.024-4.092z"/>
</svg>
