<svg xmlns="http://www.w3.org/2000/svg" width="72" height="100" fill="none" viewBox="0 0 72 100">
    <g clip-path="url(#clip0)">
        <path fill="#FE3945" d="M16.138 21.79c1.9-2.18 4.917-7.895 24.045-12.743 1.9-.488 3.745-.827 5.536-1.07 2.896.65 4.324 2.546 5.186 3.616.862 1.07 14.818 2.397 18.374 2.627 2.842.176 2.64-.92 2.182-1.49C43.106-13.164 12.366 8.004 5.86 16.617-.067 24.458-.43 30.864.916 30.701c1.334-.175 13.322-6.73 15.222-8.91z"/>
        <path fill="#03224C" d="M.849 30.972c-.175 0-.418-.067-.606-.392-.822-1.422.282-7.354 5.401-14.125C9.16 11.794 21.634 1.665 37.664.19 50.003-.948 61.439 3.196 71.65 12.527l-.175.203.215-.176c.337.406.418.867.243 1.233-.283.568-1.159.799-2.64.704-1.765-.108-17.54-1.436-18.576-2.722l-.108-.122c-.835-1.043-2.223-2.776-4.89-3.386-1.818.244-3.65.596-5.456 1.056-17.282 4.388-21.364 9.508-23.33 11.972-.203.258-.391.501-.58.704C14.454 24.16 2.371 30.81.957 31c-.04-.028-.068-.028-.108-.028zM41.624.542c-1.293 0-2.6.054-3.92.19C21.863 2.193 9.551 12.174 6.075 16.792.835 23.727.121 29.28.714 30.323c.08.135.135.121.162.121 1.09-.135 13.133-6.609 15.06-8.816.175-.203.35-.433.552-.677 2.007-2.506 6.17-7.72 23.627-12.148 1.846-.474 3.718-.826 5.564-1.07 10.426-1.381 18.764 1.016 23.438 3.332C60.685 4.063 51.457.542 41.624.542zm5.402 7.543c2.074.826 3.246 2.275 3.987 3.21l.094.122c.674.84 13.107 2.207 18.186 2.519 1.683.108 2.047-.258 2.128-.407.094-.176-.014-.433-.148-.61-3.503-2.437-12.393-6.066-24.247-4.834zm-1.307-.149v.027-.027z"/>
        <path fill="#fff" d="M33.542 10.685C26.16 5.837 21.728 6.677 18.886 6.61c0 0 1.818-.989 3.3-1.639 1.468-.65 3.125-1.3 3.125-1.3 7.934.69 12.03 3.846 13.632 5.43l-5.401 1.585zM46.89 7.57c-4.404-4.306-10.156-6.094-11.934-6.487.566-.162 4.27-.65 6.25-.65 4.904.65 9.308 4.618 11.33 6.84-2.13 0-4.945.203-5.645.297z"/>
        <path fill="#03224C" d="M40.897 63.272L1.886 30.688l.35-.42 37.704 31.5-24.691-39.26.458-.284 24.395 38.813L24.665 14.79l.512-.176 16.137 48.361-.256.081-.161.217zm11.342-2.844l-.243-.108h-.269V12.067h.539V57.34l8.89-48.984.526.095-8.999 49.444L70.95 14.017l.499.203-19.21 46.208z"/>
        <path fill="#03224C" d="M45.032 71.547l-4.31-9.575 11.436-2.546.795 9.25-.54.054-.74-8.64-10.197 2.261 4.054 8.979-.498.217zM53.303 97.468c.108-.623.39-1.179.525-1.382.674.285 1.294.122 1.51 0 .807 1.233 4.027 3.914 2.235 3.914-.283 0-4.405-1.747-4.27-2.532z"/>
        <path fill="#03224C" d="M44.736 70.409l.283 1.03c2.6 0 3.57-1.152 3.435-1.91-.54-.054-1.2-.813-1.469-1.165-.242.095-1.306.27-1.953.528-.66.271-.471.948-.296 1.517zM49.976 67.565c.134.677-.081 1.327-.27 1.571.216.163.54.42 1.172.65.633.23 1.751-.338 2.25-.731 0 0-.189-.583-.35-1.043-.243-.704-.795-.948-1.091-.962l-1.711.515zM46.972 78.508l-1.186-3.914c1.078.677 1.913 2.614 2.142 3.182.23.583.081 1.26.095 1.571-.418.109-.957-.569-1.051-.84zM52.966 73.74c0-.473.714-1.53 1.065-1.814.39 1.11.889 2.614 1.171 3.656.283 1.03.149 1.558-.255 1.734l-.472.149c-.27-.501-.903-1.503-1.037-1.68-.162-.23-.472-1.462-.472-2.044z"/>
        <path fill="#03224C" d="M53.316 95.233l-.013-.284c-.054-2.221-.471-6.257-.593-6.975-.094-.555-1.239-1.842-2.155-2.885-.593-.663-1.145-1.3-1.482-1.774-.916-1.3-1.306-3.697-1.333-4.902-.027-1.043-1.32-3.86-3.26-4.429-2.357-.677-3.88-1.855-4.19-3.223-.282-1.219.283-3.44.782-4.632l.108-.27 1.737 1.124-.027.162c-.202 1.124-.256 2.533-.215 2.885.04.298 1.603 1.151 3.044 1.178 1.374.04 1.724-.338 2.102-.677.242-.23.444-.664.363-1.11-.889-.272-1.535-1.165-1.94-1.829-.713-1.165-.606-1.964-.39-2.438.27-.596.889-1.029 1.657-1.15 1.023-.163 1.75.676 1.993 1.137.324.582 1.172 2.87.418 3.832.054.082.229.19.795.502.781.42 2.788-.935 3.394-1.761.27-.366-.673-1.463-1.724-2.262l-.148-.108.943-2.275.242.162c.782.515 2.452 1.801 3.233 2.98 1.01 1.517-1.09 4.347-2.748 6.351-1.131 1.368-.364 2.682.714 4.51l.108.176c.377.637 1.172 1.517 2.02 2.451 1.307 1.45 2.668 2.953 3.058 4.117.553 1.612.876 7.273.66 9.765l-.013.23h-2.64l-.027-.217c-.068-.555-.148-1.219-.23-1.923-.242-2.099-.552-4.7-.74-5.376-.202-.732-2.21-2.912-3.408-4.077.08.122.161.23.242.352.997 1.45 2.371 3.44 2.546 4.727.216 1.476-.121 5.255-.337 7.38l-.013.19-2.532.366zM41.422 66.617c-.485 1.3-.862 3.128-.647 4.063.27 1.192 1.67 2.22 3.853 2.857 2.29.664 3.583 3.765 3.624 4.89.026 1.232.444 3.493 1.239 4.631.323.46.862 1.07 1.441 1.733 1.105 1.26 2.155 2.438 2.263 3.129.135.799.512 4.564.593 6.771l1.576-.23c.175-1.788.525-5.634.323-7.07-.161-1.178-1.549-3.182-2.465-4.51-.74-1.082-.93-1.38-.93-1.584v-.216l.23-.054c.579-.095 4.445 4.117 4.741 5.16.202.704.499 3.223.755 5.457.067.61.134 1.192.202 1.706h1.751c.175-2.681-.189-7.95-.66-9.33-.364-1.07-1.738-2.6-2.964-3.955-.862-.962-1.67-1.855-2.074-2.532l-.108-.177c-1.091-1.841-2.034-3.44-.673-5.078.902-1.084 3.637-4.374 2.72-5.756-.673-1.002-2.033-2.112-2.855-2.681l-.566 1.368c.633.5 2.304 1.963 1.67 2.83-.633.867-2.869 2.532-4.014 1.91-.485-.258-.781-.42-.93-.61-.255.15-.552.23-.848.217.04.555-.215 1.07-.539 1.368-.404.379-.916.826-2.438.812-1.387-.027-3.448-.867-3.53-1.611-.053-.42.014-1.775.19-2.871l-.93-.637zm6.345-2.113c-.054 0-.122 0-.175.014-.459.068-1.038.338-1.28.867-.243.514-.108 1.191.364 1.963.606.975 1.185 1.517 1.778 1.639l-.054.244.067-.23c.364.108.741.027 1.024-.244l.175.176-.175-.176c.566-.556.054-2.506-.418-3.345-.175-.339-.646-.908-1.306-.908z"/>
        <path fill="#03224C" fill-rule="evenodd" d="M48.05 70.68l1.818.338.781-1.273c1.01.46 3.072-1.083 3.65-1.869.472-.636-.982-2.004-1.777-2.6l.754-1.828c.728.488 2.398 1.747 3.166 2.912.97 1.462-1.455 4.496-2.735 6.053-1.252 1.504-.404 2.953.687 4.794.04.055.068.122.108.177.39.65 1.185 1.543 2.047 2.505 1.253 1.381 2.627 2.912 3.004 4.036.512 1.517.863 7.083.647 9.656h-2.196c-.067-.556-.148-1.22-.229-1.923-.256-2.194-.552-4.74-.754-5.417-.31-1.152-4.486-5.404-4.486-4.97 0 .148.378.704.89 1.448.942 1.382 2.33 3.386 2.505 4.619.215 1.516-.162 5.552-.337 7.313l-2.034.298c-.054-2.18-.458-6.23-.593-7.016-.107-.623-1.199-1.855-2.209-3.006-.579-.664-1.131-1.287-1.468-1.747-.89-1.26-1.266-3.657-1.293-4.767-.027-1.124-1.36-4.05-3.435-4.659-2.088-.596-3.705-1.666-4.014-3.034-.256-1.096.229-3.06.754-4.36l1.468.677c-.202 1.11-.377 2.614-.337 3.02.054.514 1.86 1.368 3.287 1.395 1.428.027 1.873-.366 2.277-.745.027 0 .04-.014.054-.027z" clip-rule="evenodd"/>
        <path fill="#fff" d="M42.257 64.735c-.161.108-.525 1.056-.673 1.53l1.09.596.27-.352c.297-.082.903-.312.916-.556.027-.311-.27-1.137-.39-1.218-.122-.082-.997-.122-1.213 0zM52.373 63.082c.216.027.66.38.795.57l-.498 1.177c-.148-.054-.418-.108-.445-.08-.094.08-.337.23-.43.243l.498.298c.026.013.053.027.067.04l-.067-.04c-.243-.109-.89-.23-1.091-.46-.176-.204-.593-1.179-.176-1.477.418-.298 1.078-.298 1.347-.27z"/>
        <path fill="#03224C" d="M42.742 67.186l-1.455-.8.068-.189c.229-.677.539-1.517.781-1.652.283-.176 1.266-.149 1.482.013.229.163.525 1.097.498 1.436-.027.393-.673.65-1.01.745l-.364.447zm-.862-1.043l.714.406.189-.257.08-.027c.378-.108.7-.271.741-.366.014-.19-.188-.799-.296-.975-.189-.054-.781-.054-.93 0-.08.136-.296.65-.498 1.219zM52.252 65.534l-.08-.041c-.04-.013-.149-.054-.27-.081-.323-.095-.7-.217-.875-.42-.175-.19-.472-.826-.418-1.327.027-.285.162-.434.283-.515.566-.406 1.414-.325 1.509-.311.336.04.835.487.97.65l.08.108-.646 1.53-.23-.094c-.08-.028-.201-.055-.269-.068l-.013.013.121.068c.04.014.08.04.121.081l-.283.407zm-.12-2.221c-.284 0-.688.054-.957.23-.014.013-.054.04-.068.162-.04.339.203.84.297.935.027.027.08.054.134.095l.27-.014c.027-.014.202-.108.283-.176.108-.095.31-.081.471-.04l.35-.827c-.161-.162-.444-.352-.538-.365h-.243z"/>
        <path fill="#FE3945" d="M48.279 65.615c-1.307.474-1.752 1.598-1.913 2.126-.35-.081-1.118-.799-1.132-1.639 0-1.083.445-1.841 1.36-2.315 1.146-.583 2.493-.163 3.045.799.444.758.323 1.191.162 1.381-.122-.298-.216-.826-1.523-.352z"/>
        <path fill="#03224C" d="M46.527 68.039l-.215-.054c-.458-.095-1.32-.907-1.32-1.883 0-1.178.498-2.031 1.495-2.532 1.212-.623 2.734-.23 3.368.894.579.988.282 1.503.134 1.665l-.256.285-.188-.42c-.095-.244-.202-.501-1.2-.149-1.077.393-1.548 1.287-1.764 1.964l-.054.23zm1.186-4.266c-.337 0-.687.081-1.01.244-.822.42-1.226 1.11-1.226 2.099 0 .582.43 1.083.74 1.3.364-.989 1.051-1.693 1.98-2.018.809-.284 1.24-.23 1.51-.027-.028-.176-.108-.393-.257-.65-.363-.61-1.037-.948-1.737-.948zM54.583 96.574c-.31 0-.58-.081-.728-.163l-.12-.067-.068-1.517 1.94-.352-.203 1.869-.12.054c-.243.135-.472.176-.701.176zm-.377-.555c.175.054.444.094.727 0l.108-.949-.876.163.04.785zM57.789 96.411c.107-.623.39-1.178.525-1.381.673.284 1.293.122 1.509 0 .794 1.232 4.027 3.914 2.236 3.914-.283 0-4.405-1.747-4.27-2.533z"/>
        <path fill="#03224C" d="M59.068 95.517c-.31 0-.565-.08-.727-.162l-.135-.068v-1.815h1.873l-.202 1.815-.122.054c-.215.136-.458.176-.687.176zm-.363-.541c.175.054.444.094.714 0l.107-1.002h-.835v1.002h.014z"/>
    </g>
    <defs>
        <clipPath id="clip0">
            <path fill="#fff" d="M0 0H72V100H0z"/>
        </clipPath>
    </defs>
</svg>
