<svg xmlns="http://www.w3.org/2000/svg" width="32" height="32" fill="none" viewBox="0 0 32 32">
    <path fill="#03224C" fill-rule="evenodd" d="M2 16c0 7.732 6.268 14 14 14s14-6.268 14-14S23.732 2 16 2 2 8.268 2 16zM16 0C7.163 0 0 7.163 0 16s7.163 16 16 16 16-7.163 16-16S24.837 0 16 0z" clip-rule="evenodd"/>
    <path fill="#03224C" fill-rule="evenodd" d="M16 11c.552 0 1 .448 1 1v8c0 .552-.448 1-1 1s-1-.448-1-1v-8c0-.552.448-1 1-1z" clip-rule="evenodd"/>
    <path fill="#03224C" fill-rule="evenodd" d="M11 16c0-.552.448-1 1-1h8c.552 0 1 .448 1 1s-.448 1-1 1h-8c-.552 0-1-.448-1-1z" clip-rule="evenodd"/>
</svg>
