<svg xmlns="http://www.w3.org/2000/svg" width="61" height="68" fill="none" viewBox="0 0 61 68">
    <path fill="#fff" d="M34.104 23.734c.552.34 1.248.504 1.527.544l.21 1.787c-.31-.071-1.491-.17-3.744 0s-3.015-2.029-3.115-3.149c.862.412 2.017.717 2.486.818l-.125-.957c1.348-.364 2.072.533 2.761.957z"/>
    <path fill="#03224C" fill-rule="evenodd" d="M33.737 23.34c.15.111.287.215.424.299.535.329 1.215.49 1.486.53l.084.012.238 2.027-.152-.035c-.292-.067-1.46-.167-3.712.003-1.17.087-1.958-.442-2.461-1.136-.5-.689-.72-1.54-.771-2.114l-.017-.193.173.083c.77.367 1.779.65 2.31.775l-.117-.896.093-.026c.706-.19 1.252-.05 1.707.193.225.12.428.264.614.403l.1.074zm-2.272-.48l.132 1.015-.152-.033c-.441-.095-1.484-.368-2.331-.743.076.532.29 1.234.707 1.81.466.642 1.185 1.126 2.268 1.045 1.99-.15 3.156-.091 3.626-.024l-.183-1.555c-.326-.059-.965-.227-1.485-.546-.146-.09-.294-.201-.444-.313l-.096-.072c-.185-.138-.377-.274-.587-.386-.396-.21-.858-.334-1.455-.197z" clip-rule="evenodd"/>
    <path fill="#fff" d="M29.436 22.541c-.615.441-1.346.443-1.636.389v1.62c.073-.008.223.238.799.83 1.64 1.683 3.174 1.466 3.694 1.2.52-.268 1.33-.853.572-1.2-.606-.279-1.656-.044-1.943.232-1.297-.257-1.065-1.57-.948-2.317.387.072.9.253 1.44.487.673.291.991-.034.543-.488-.449-.453-1.752-1.303-2.521-.753z"/>
    <path fill="#03224C" fill-rule="evenodd" d="M30.774 22.644c-.47-.197-.939-.253-1.274-.012-.569.407-1.229.458-1.59.425v1.422c.014.01.027.022.04.033.037.035.085.088.143.154l.035.04c.118.134.29.33.55.596 1.608 1.652 3.091 1.422 3.565 1.178.258-.132.572-.336.73-.539.078-.102.101-.182.089-.242-.012-.058-.066-.138-.242-.218-.276-.127-.665-.14-1.03-.083-.18.028-.35.073-.49.126-.142.054-.246.114-.302.168l-.041.04-.056-.011c-.343-.068-.594-.207-.771-.398-.176-.19-.272-.422-.32-.664-.09-.457-.01-.968.048-1.334l.008-.048.017-.112.111.02c.4.076.922.26 1.463.495.16.069.291.098.392.101.102.003.158-.022.182-.045.019-.017.033-.047.018-.106-.016-.063-.065-.151-.17-.257-.215-.217-.64-.535-1.105-.73zm.085-.205c.492.206.942.54 1.176.777.12.121.198.243.227.36.03.12.008.239-.081.323-.084.078-.206.108-.339.104-.135-.004-.295-.043-.472-.12-.485-.21-.944-.374-1.305-.456-.056.361-.116.8-.04 1.189.042.213.124.403.265.555.133.143.324.258.602.321.085-.068.202-.127.33-.176.157-.06.342-.107.535-.138.384-.06.822-.052 1.153.1.204.094.334.216.366.375.033.156-.037.304-.13.425-.189.243-.54.465-.803.6-.567.291-2.152.494-3.822-1.221-.263-.27-.438-.469-.557-.604l-.035-.04c-.06-.068-.1-.111-.129-.138-.004-.005-.008-.008-.012-.01l-.097.011v-1.88l.13.025c.268.05.967.049 1.551-.37.433-.31 1-.216 1.487-.012z" clip-rule="evenodd"/>
    <path fill="#141414" d="M31.833 62.326c-.172 3.421-7.366 5.831-16.067 5.383C7.066 67.259.152 64.122.325 60.7c.173-3.421 7.366-5.831 16.067-5.382 8.7.448 15.614 3.586 15.441 7.008z" opacity=".1"/>
    <path fill="#03224C" d="M8.998 61.129c.012-1.429.788-2.147 1.174-2.328l-.027.696c.87.958 1.928.404 2.347.006l.15-.402c2.5 1.838 5.492 4.09 4.884 4.737-.76.807-8.542-.923-8.528-2.71zM17.1 60.919c-.174-1.418.463-2.224.803-2.45l.065.694c.944.844 1.715.237 2.058-.207l.215-.487c2.592 1.52 5.724 3.39 5.235 4.104-.61.893-8.157.117-8.375-1.654z"/>
    <path fill="#fff" d="M10.07 59.408l.156-1.82c1.171.862 2.405.44 2.875.12l-.719 1.91c-.762.745-1.936.503-2.312-.21zM17.925 58.846l.163-2.205c1.032 1.028 2.136.5 2.559.108l-.666 2.322c-.688.91-1.73.633-2.056-.224z"/>
    <path fill="#03224C" fill-rule="evenodd" d="M13.308 57.447l-.84 2.23-.016.015c-.805.786-2.06.542-2.47-.236l-.014-.027.174-2.03.143.107c1.126.829 2.312.422 2.76.118l.263-.178zm-2.996.323l-.139 1.616c.354.623 1.414.849 2.123.175l.613-1.627c-.571.276-1.595.487-2.597-.164z" clip-rule="evenodd"/>
    <path fill="#fff" d="M15.98 10.146c1.598.067 1.826-3.631 1.221-5.911C16.26.682 12.97.405 11.7 3.365c-.741 1.73-.323 1.996.268 6.194.592 4.198-.42 2.454-2.5 5.85-1.161 1.899-1.366 11.237-.928 14.218 3.478 1.693 8.294.994 9.847.415.054-.693.246-4.477.243-5.899-.002-1.422-.075-1.307 1.093-.38 2.29 1.818 5.998 1.736 8.018 1.821l.138-3.35c-3.216-.433-6.607-.257-7.833-3.153-1.533-3.62-3.158-7.242-4.82-6.55-.936.39-.892-2.022-.835-3.312.16.305.851.895 1.59.927z"/>
    <path fill="#03224C" fill-rule="evenodd" d="M14.56 1.458c-1.044-.136-2.147.498-2.768 1.947-.184.43-.294.762-.348 1.084-.053.322-.053.639-.01 1.037.04.378.117.826.22 1.42.005.033.01.066.017.1.11.642.248 1.448.395 2.499.148 1.05.198 1.738.152 2.23-.046.5-.19.803-.423 1.076-.132.155-.287.295-.465.458-.446.406-1.036.944-1.777 2.154-.138.225-.265.567-.38 1.006-.114.438-.215.966-.303 1.558-.175 1.185-.296 2.62-.366 4.09-.14 2.908-.085 5.942.126 7.442 1.71.818 3.744 1.06 5.552 1.026 1.778-.035 3.324-.338 4.108-.616.06-.837.241-4.447.239-5.826l-.001-.233c-.002-.238-.002-.426.006-.563.006-.09.016-.167.037-.227.021-.061.062-.126.14-.146.07-.018.14.007.197.036.06.031.13.08.21.14.09.068.2.157.33.263l.336.27c1.126.893 2.604 1.324 4.063 1.54 1.161.172 2.3.207 3.228.237l.569.018.13-3.155c-.483-.064-.967-.114-1.448-.163-.29-.03-.58-.06-.868-.093-.79-.09-1.56-.2-2.268-.387-1.42-.377-2.608-1.072-3.238-2.559-.767-1.811-1.553-3.614-2.353-4.877-.4-.632-.8-1.12-1.194-1.408-.392-.286-.768-.367-1.142-.211-.135.056-.262.066-.379.024-.115-.04-.205-.126-.276-.233-.14-.212-.223-.537-.273-.897-.1-.726-.074-1.66-.046-2.304l.017-.374.172.33c.07.132.267.345.545.53.275.183.616.329.961.343.353.015.637-.175.862-.528.225-.355.382-.867.471-1.461.18-1.187.086-2.667-.213-3.794-.464-1.75-1.498-2.667-2.544-2.803zm.026-.201c1.151.15 2.234 1.149 2.712 2.951.306 1.154.402 2.662.218 3.878-.091.607-.254 1.15-.501 1.54-.25.392-.593.64-1.04.621-.393-.016-.768-.181-1.063-.377-.171-.114-.32-.242-.433-.363-.022.612-.028 1.377.056 1.984.049.355.127.64.24.812.055.083.114.133.176.154.06.022.135.021.235-.02.458-.19.908-.079 1.336.234.426.31.84.824 1.246 1.463.81 1.28 1.603 3.1 2.369 4.907.597 1.409 1.718 2.075 3.104 2.442.694.184 1.451.293 2.24.382.283.033.57.062.86.092.514.053 1.035.107 1.55.177l.091.012-.146 3.544-.1-.004c-.204-.009-.425-.016-.662-.023-.928-.03-2.082-.065-3.256-.239-1.473-.218-2.992-.656-4.158-1.581-.13-.103-.243-.195-.342-.276-.127-.103-.232-.188-.32-.255-.078-.058-.137-.098-.18-.12-.027-.014-.043-.019-.05-.02-.003.003-.005.008-.007.015-.011.033-.02.087-.026.173-.008.13-.007.307-.006.543v.24c.003 1.426-.189 5.212-.243 5.907l-.005.065-.06.022c-.79.294-2.394.615-4.235.65-1.841.036-3.933-.213-5.691-1.068l-.048-.024-.008-.053c-.22-1.5-.278-4.588-.136-7.535.07-1.474.192-2.916.368-4.11.088-.596.19-1.132.308-1.58.117-.446.25-.81.403-1.06.757-1.238 1.388-1.813 1.835-2.221.17-.154.312-.285.426-.418.205-.24.333-.5.375-.96.043-.468-.003-1.136-.15-2.185-.148-1.048-.285-1.85-.396-2.492l-.017-.104c-.102-.59-.18-1.044-.222-1.43-.043-.41-.045-.746.013-1.092.058-.345.174-.694.361-1.13.648-1.511 1.825-2.219 2.979-2.068z" clip-rule="evenodd"/>
    <path fill="#03224C" d="M13.485 4.508c.235-1.265 1.813-1.504 2.294-1.178.794.535 1.292.227 1.292.227C17.275.51 14.617-.156 13.833.522c-.785.679-2.423-.05-3.548 1.3s.358 2.703-.15 3.63c-.507.928-.27 2.124.627 2.504.717.304 1.173 1.692 1.311 2.348.41-.466 1.142-1.638.785-2.602-.356-.964.208-1.037.535-.953.777-.494-.142-.977.092-2.241zM8.657 36.952c-.843-3.283-.661-6.076-.173-7.344 4.835 1.82 8.509 1.032 9.742.41 1.506 3.46 4.525 10.988 4.555 13.416.03 2.427-.953 9.752-1.646 12.783-.332 1.452-2.827 1.346-3.595.237.272-3.322.742-10.116.462-11.192-.28-1.076-2.522-6.395-3.256-8.904-.977-1.438.918 5.301 1.636 8.836-.697 3.812-2.205 11.584-2.662 12.176-1.785 1.409-3.402.475-3.987-.168.422-2.382 1.285-7.583 1.356-9.325.09-2.178-1.702-8.089-2.432-10.925z"/>
    <path fill="#03224C" fill-rule="evenodd" d="M18.275 29.88l.042.098c.754 1.731 1.886 4.48 2.834 7.1.474 1.31.902 2.59 1.214 3.694.311 1.102.51 2.039.517 2.66.014 1.223-.225 3.668-.554 6.18-.328 2.515-.748 5.108-1.095 6.628-.181.793-.949 1.14-1.73 1.158-.78.016-1.635-.294-2.045-.886l-.02-.03.002-.036c.136-1.66.321-4.188.438-6.435.058-1.124.099-2.176.108-3.014.004-.42 0-.784-.013-1.077-.013-.295-.036-.509-.068-.632-.069-.263-.259-.791-.52-1.482-.19-.499-.415-1.08-.655-1.7l-.28-.722c-.683-1.769-1.426-3.721-1.796-4.982-.031-.046-.057-.079-.078-.102-.002.012-.002.025-.003.04-.002.07.003.164.016.284.05.478.217 1.29.437 2.264.168.74.367 1.57.568 2.413.328 1.372.664 2.777.886 3.873l.004.02-.003.018c-.349 1.907-.9 4.804-1.422 7.299-.26 1.247-.514 2.395-.73 3.268-.11.436-.209.806-.296 1.085-.043.14-.084.258-.122.352-.037.091-.074.167-.111.216l-.008.01-.01.008c-.915.722-1.795.848-2.524.705-.725-.142-1.294-.55-1.599-.884l-.034-.037.01-.05c.422-2.385 1.283-7.578 1.354-9.311.022-.533-.071-1.3-.238-2.205-.166-.901-.404-1.93-.668-2.982-.31-1.238-.655-2.498-.96-3.617-.215-.786-.411-1.502-.563-2.092-.846-3.295-.668-6.11-.17-7.406l.036-.093.093.035c4.812 1.812 8.457 1.022 9.661.414l.095-.047zm-9.732-.142c-.451 1.284-.608 3.997.212 7.188.15.58.344 1.294.56 2.081.306 1.123.653 2.394.963 3.629.264 1.053.503 2.087.67 2.995.168.906.265 1.693.242 2.25-.072 1.739-.924 6.887-1.35 9.289.29.3.806.658 1.456.785.669.132 1.486.022 2.352-.656.018-.028.045-.08.077-.16.035-.086.074-.2.116-.336.086-.274.184-.639.292-1.074.216-.87.469-2.014.73-3.26.519-2.484 1.068-5.368 1.417-7.274-.222-1.09-.554-2.479-.88-3.84-.201-.843-.4-1.677-.57-2.421-.22-.973-.389-1.797-.441-2.288-.013-.124-.02-.23-.017-.313.002-.042.005-.081.013-.115.007-.033.018-.07.041-.1.027-.034.067-.06.119-.06.044 0 .082.02.11.04.054.04.112.11.174.202l.01.013.003.016c.366 1.25 1.108 3.203 1.796 4.981l.28.722c.24.62.465 1.202.654 1.701.26.688.456 1.228.527 1.503.038.146.062.38.075.675.014.298.017.667.013 1.088-.01.842-.05 1.898-.109 3.023-.115 2.232-.299 4.741-.435 6.403.367.5 1.129.785 1.856.77.742-.017 1.387-.342 1.538-1 .345-1.511.764-4.096 1.092-6.61.329-2.513.566-4.944.551-6.15-.006-.592-.197-1.506-.508-2.607-.31-1.098-.736-2.372-1.21-3.68-.928-2.567-2.035-5.26-2.787-6.993-1.335.622-4.937 1.324-9.632-.417z" clip-rule="evenodd"/>
    <path fill="#fff" d="M9.041 17.451c.618-2.574 2.46-2.742 3.304-2.504 2.86.082 2.152 7.612 3.192 9.82.832 1.766 3.433 4.068 4.63 5l-1.882 2.435c-1.314-.96-4.227-3.158-5.356-4.274-1.411-1.395-4.66-7.26-3.888-10.477z"/>
    <path fill="#03224C" fill-rule="evenodd" d="M15.101 22.3c.125 1.02.275 1.889.527 2.423.408.866 1.256 1.873 2.158 2.785.9.91 1.847 1.714 2.442 2.178l.08.062-2.003 2.593-.079-.057c-1.313-.958-4.231-3.161-5.367-4.284-.719-.71-1.89-2.539-2.784-4.586-.448-1.026-.829-2.11-1.048-3.144-.22-1.03-.281-2.018-.083-2.843.314-1.31.945-2.023 1.619-2.372.663-.345 1.354-.33 1.797-.21.764.028 1.278.554 1.635 1.317.359.767.573 1.797.728 2.883.095.666.17 1.36.241 2.03.045.422.09.834.137 1.225zm-1.288-6.051c-.345-.737-.81-1.182-1.47-1.2h-.013l-.012-.004c-.401-.113-1.046-.13-1.664.19-.613.319-1.212.977-1.515 2.24-.188.783-.132 1.736.084 2.753.216 1.015.591 2.086 1.036 3.103.89 2.038 2.048 3.84 2.74 4.524 1.101 1.088 3.917 3.219 5.267 4.207l1.76-2.278c-.604-.476-1.514-1.256-2.382-2.132-.905-.915-1.774-1.942-2.198-2.842-.268-.569-.42-1.47-.544-2.485-.049-.398-.093-.813-.138-1.236-.072-.666-.145-1.351-.24-2.015-.155-1.083-.366-2.088-.71-2.825z" clip-rule="evenodd"/>
    <path fill="#03224C" d="M20.941 29.815l-.381.797-1.168 2.311c-.112.222-.038.493.17.627l1.079.692c.239.153.556.064.683-.192l1.576-3.193c.115-.231.029-.513-.195-.638l-1.103-.617c-.24-.134-.542-.037-.66.213z"/>
    <path fill="#03224C" fill-rule="evenodd" d="M21.549 29.7c-.185-.104-.417-.03-.51.163l-.382.8-1.167 2.31c-.086.171-.03.38.13.483l1.08.692c.183.118.428.05.525-.148l1.577-3.193c.088-.178.022-.394-.15-.49l-1.103-.617zm-.707.066c.147-.306.518-.425.813-.26l1.103.616c.275.154.381.5.24.784L21.423 34.1c-.156.315-.546.425-.84.237l-1.079-.692c-.256-.164-.346-.498-.209-.771l1.168-2.31.38-.797z" clip-rule="evenodd"/>
    <path fill="#fff" d="M20.941 30.09l-.317.664-1.02 2.022c-.113.221-.04.493.168.626l.877.562c.238.153.556.064.682-.192l1.361-2.755c.114-.232.028-.513-.196-.638l-.894-.5c-.24-.135-.542-.038-.661.212z"/>
    <path fill="#fff" d="M22.004 30.763c-.687-.132-1.725-.386-2.157-.496l-1.227 1.517c.035.293.139.455.186.5.424.408.84.198.996.042.881.012 1.545.767 1.766 1.143l-.291.704c.38-.084 1.18-.427 1.332-1.128.19-.877.255-2.117-.605-2.282z"/>
    <path fill="#03224C" fill-rule="evenodd" d="M19.806 30.142l.068.018c.432.11 1.467.362 2.151.494.243.047.424.171.552.346.126.173.197.39.232.62.07.46.003 1.005-.092 1.448-.085.388-.346.67-.626.864-.28.193-.588.305-.791.35l-.206.045.351-.848c-.112-.176-.312-.422-.58-.63-.281-.22-.63-.394-1.021-.41-.096.082-.246.166-.427.188-.21.025-.452-.038-.686-.263-.073-.069-.183-.258-.22-.567l-.005-.047 1.3-1.608zm.082.25l-1.153 1.425c.038.245.125.365.146.385h.001c.19.184.368.22.51.204.148-.017.27-.095.333-.158l.033-.033h.046c.472.006.88.212 1.196.458.315.246.545.54.663.739l.028.048-.225.543c.155-.055.334-.139.501-.255.254-.174.467-.414.535-.727.094-.433.154-.946.09-1.367-.032-.21-.094-.388-.192-.522-.096-.131-.229-.224-.416-.26-.657-.126-1.63-.362-2.096-.48zM20.863 56.588l-.821 2.737-.025.02c-.47.372-.93.438-1.311.364-.378-.075-.673-.285-.825-.462l-.026-.03.103-2.505.137.065c1.14.543 2.174.193 2.539-.042l.229-.147zm-2.716.435l-.088 2.12c.132.14.377.306.685.366.318.062.71.013 1.124-.305l.654-2.18c-.49.224-1.39.414-2.375-.001z" clip-rule="evenodd"/>
    <path fill="#000" fill-rule="evenodd" d="M13.604 13.96c-.687-.069-1.504-.53-2.042-.924l.118-.165c.53.39 1.312.823 1.943.886.314.03.573-.03.753-.213.182-.185.304-.514.292-1.068l.201-.004c.012.58-.114.975-.35 1.215-.24.243-.569.306-.915.272z" clip-rule="evenodd"/>
    <path fill="#141414" d="M60.687 62.029c-.172 3.421-7.366 5.831-16.067 5.383-8.7-.45-15.614-3.587-15.44-7.009.172-3.422 7.365-5.831 16.066-5.382 8.7.448 15.614 3.586 15.441 7.008z" opacity=".1"/>
    <path fill="#03224C" d="M50.622 60.818c-.077-1.35-.843-1.994-1.218-2.147l.058.657c-.78.948-1.805.473-2.22.116l-.16-.373c-2.282 1.856-5.008 4.128-4.403 4.71.757.729 8.038-1.274 7.943-2.963zM42.53 59.668c.221-1.334-.349-2.123-.662-2.35l-.089.653c-.927.76-1.633.154-1.94-.28v-.515c-2.514 1.332-5.736 3.02-5.302 3.715.542.87 7.715.445 7.992-1.223z"/>
    <path fill="#fff" d="M45.748 12.446c-1.515 0-1.587-3.51-.925-5.643 1.031-3.325 4.155-3.456 5.24-.603.635 1.667.23 1.902-.494 5.851-.724 3.95.302 2.339 2.137 5.637 1.025 1.842.854 10.688.324 13.492-3.358 1.463-7.889.61-9.336 0-.024-.659 1.767-5.643 1.824-6.988.058-1.346-1.098.983-1.593 1.688-1.567 2.232-3.066 3.863-5.097 5.3l-1.434-2.238c1.673-1.654 3.885-5.51 5.158-8.202 1.593-3.364 3.27-6.728 4.818-6.006.87.405.922-1.878.92-3.101-.163.282-.842.813-1.542.813z"/>
    <path fill="#03224C" fill-rule="evenodd" d="M47.431 4.286c.99-.087 2.008.555 2.539 1.95.157.413.247.732.286 1.039.038.306.025.605-.03.98-.053.356-.144.777-.264 1.335l-.02.093c-.13.604-.291 1.36-.473 2.35-.18.987-.254 1.637-.23 2.106.024.476.148.769.36 1.038.119.152.26.292.423.452.405.402.943.934 1.596 2.109.12.217.228.545.32.965.09.419.166.922.225 1.486.12 1.128.178 2.49.188 3.884.018 2.756-.152 5.623-.41 7.034-1.649.705-3.582.853-5.29.748-1.674-.103-3.12-.449-3.854-.743.008-.076.029-.19.064-.343.046-.2.114-.452.197-.742.127-.45.29-.989.463-1.558l.15-.496c.226-.748.455-1.52.632-2.188.175-.666.3-1.24.316-1.59.007-.169-.003-.3-.04-.386-.02-.046-.05-.09-.102-.114-.052-.025-.105-.018-.148-.002-.08.03-.16.104-.234.188-.077.087-.162.2-.249.328-.173.254-.364.572-.54.868l-.021.034c-.17.285-.325.544-.442.71-1.54 2.194-3.012 3.801-4.988 5.215l-1.332-2.08c.832-.841 1.785-2.198 2.685-3.672.924-1.51 1.797-3.151 2.435-4.5.797-1.684 1.61-3.358 2.417-4.52.404-.583.8-1.029 1.183-1.285.381-.253.739-.314 1.084-.153.127.058.248.073.361.038.112-.034.202-.112.274-.212.141-.196.232-.5.294-.84.123-.683.135-1.569.134-2.18l-.002-.373-.186.323c-.07.12-.264.313-.534.476-.267.162-.594.286-.92.286-.332 0-.592-.189-.79-.531-.2-.345-.328-.834-.389-1.4-.123-1.129.023-2.525.35-3.58.507-1.636 1.52-2.46 2.512-2.547zm-.017-.202c-1.098.096-2.163 1-2.687 2.69-.335 1.079-.484 2.504-.358 3.662.063.579.196 1.1.415 1.48.221.382.538.631.964.631.374 0 .736-.14 1.024-.315.162-.098.306-.21.416-.318-.004.578-.028 1.295-.13 1.862-.06.334-.145.6-.258.756-.056.077-.112.12-.17.138-.056.017-.127.014-.218-.029-.428-.2-.86-.11-1.28.169-.415.277-.828.747-1.236 1.337-.818 1.179-1.64 2.87-2.434 4.55-.636 1.342-1.506 2.976-2.425 4.48-.92 1.506-1.886 2.875-2.713 3.692l-.059.058 1.535 2.396.086-.06c2.042-1.445 3.55-3.086 5.121-5.324.121-.173.28-.438.447-.718l.023-.04c.178-.296.365-.609.535-.857.085-.124.163-.23.233-.308.07-.078.119-.117.148-.13l.001.003c.018.04.031.131.024.298-.014.324-.134.877-.31 1.545-.175.665-.403 1.433-.629 2.182l-.15.495c-.172.57-.336 1.11-.465 1.562-.083.29-.151.547-.199.751-.046.2-.075.363-.072.461l.003.065.06.025c.736.31 2.242.678 3.983.785 1.742.108 3.731-.045 5.43-.785l.05-.021.01-.053c.267-1.412.442-4.333.422-7.127-.01-1.398-.067-2.767-.188-3.904-.06-.568-.136-1.08-.23-1.509-.092-.426-.204-.778-.34-1.021-.668-1.202-1.244-1.772-1.651-2.177-.154-.152-.284-.28-.386-.41-.184-.235-.295-.486-.316-.922-.023-.443.047-1.073.227-2.06.181-.985.342-1.74.472-2.342l.02-.098c.12-.554.212-.981.266-1.345.057-.386.072-.705.03-1.035-.04-.33-.138-.665-.298-1.086-.554-1.457-1.642-2.176-2.743-2.08z" clip-rule="evenodd"/>
    <path fill="#fff" d="M34.886 30.554c.348-.255 1.278-.97 1.7-1.296l.864 1.347c-.098-.054-.329.055-.362.758-.034.703-.446 1.05-.661 1.182-.045.154-.106.302-.174.44-.11.293-.237.669-.277.969-.067.51-.1.498-.194.56-.078.476-.294.434-.392.354-.014.132-.081.416-.239.496-.157.079-.383-.194-.476-.34-.21.58-.588.297-.63.24-.042-.056-.323-1.515-.309-1.997.014-.481.715-2.394 1.15-2.713z"/>
    <path fill="#03224C" fill-rule="evenodd" d="M36.613 29.097l.93 1.447-.146.158.005.002c-.007 0-.03.006-.067.06-.057.083-.121.261-.138.604-.034.715-.437 1.09-.677 1.249-.046.144-.103.283-.166.412-.11.292-.231.654-.269.94-.033.251-.06.39-.095.476-.02.047-.043.081-.075.11-.01.01-.022.018-.033.026-.044.218-.123.357-.239.417-.06.03-.117.035-.17.027-.011.048-.027.1-.047.151-.04.104-.11.228-.225.287-.075.038-.152.03-.215.006-.062-.023-.12-.064-.168-.107-.044-.038-.085-.08-.121-.124-.04.068-.085.122-.134.162-.088.073-.183.098-.271.094-.086-.004-.16-.034-.215-.065-.052-.03-.097-.067-.12-.098-.01-.014-.017-.03-.019-.035l-.008-.025c-.006-.016-.011-.037-.018-.062-.012-.048-.026-.113-.043-.19-.032-.154-.07-.358-.108-.575-.073-.43-.142-.926-.135-1.18.005-.136.055-.36.13-.61.075-.257.178-.554.295-.846.117-.291.247-.58.378-.817.064-.118.13-.225.194-.314.064-.087.13-.163.198-.213.346-.254 1.276-.968 1.698-1.294l.094-.073zm-.46 3.843c-.085.169-.182.319-.275.435-.096.121-.182.198-.243.23-.01.006-.018.01-.024.011-.004-.015-.007-.043-.005-.087.003-.058.015-.135.04-.235.12-.487.229-.839.307-1.07.039-.114.07-.199.092-.254l.024-.062.006-.014.001-.003c.025-.057 0-.123-.055-.147-.056-.025-.12 0-.145.056l.1.045-.1-.045v.002l-.003.004-.007.017-.026.066c-.023.058-.055.146-.095.264-.08.236-.19.595-.312 1.087-.026.108-.042.2-.046.276-.004.075.002.145.027.202.028.063.079.11.151.122.063.009.124-.012.173-.038.059-.032.121-.082.184-.144-.024.097-.043.192-.054.28-.035.259-.059.368-.08.421-.01.021-.015.027-.018.03-.006.005-.01.008-.021.014l-.027.018-.04.026-.008.048c-.038.23-.103.291-.13.305-.022.012-.054.007-.085-.018l-.157-.128-.022.202c-.006.058-.024.152-.058.239-.036.091-.08.149-.12.17-.003.001-.014.005-.04-.004-.027-.01-.062-.033-.101-.067-.077-.067-.15-.163-.194-.23l-.12-.188-.075.21c-.049.133-.102.205-.148.242-.044.036-.085.046-.123.044-.04-.002-.081-.017-.116-.036-.023-.014-.039-.026-.047-.033l-.013-.048c-.011-.045-.025-.106-.04-.182-.032-.15-.07-.352-.107-.566-.074-.435-.139-.909-.132-1.136.003-.105.045-.302.12-.554.073-.248.174-.54.289-.826.114-.286.241-.566.365-.792.063-.113.123-.212.18-.29.059-.08.11-.135.15-.165.325-.239 1.155-.876 1.608-1.225l.71 1.105c-.043.027-.081.066-.114.113-.091.133-.16.36-.176.72-.032.654-.412.973-.608 1.093l-.032.02-.014.035-.036.09c-.034.085-.085.21-.136.345z" clip-rule="evenodd"/>
    <path fill="#03224C" d="M48.525 8.948c-1.348-.995-2.232-2.716-2.505-3.453-.312 1.104-1.077 2.019-1.467 2.337-.579 3.759.729 4.968 1.648 4.607-.85 1.268-2.914 1.05-3.188.836 1.914-1.381.639-6.122 1.96-8.332 1.056-1.768 2.808-1.473 3.552-1.105 4.118.221 3.902 5.586 3.28 8.24-1.385 2.21-3.675 2.056-4.646 1.703 1.13-1.399 1.381-3.805 1.366-4.833z"/>
    <path fill="#000" fill-rule="evenodd" d="M44.022 19.946c.244-.648.587-1.2.83-1.514l.159.126c-.233.298-.565.833-.8 1.46-.236.627-.37 1.335-.219 1.986.138.594.29.918.414 1.184.052.112.1.214.14.32.138.37.15.747-.09 1.647l-.194-.053c.236-.885.211-1.212.096-1.522-.033-.088-.076-.18-.125-.285-.127-.27-.294-.629-.436-1.244-.164-.706-.017-1.459.225-2.105z" clip-rule="evenodd"/>
    <path fill="#71BFD6" d="M51.633 38.106c.926-3.073.863-5.723.45-6.943-4.646 1.53-8.092.637-9.234 0-1.56 3.214-3.107 10.656-3.23 12.952-.123 2.296-.323 9.006-.323 13.438 0 1.225 2.817.836 2.817.442-.128-3.154 1.137-10.72 1.444-11.727.307-1.008 1.544-6.621 2.337-8.967.98-1.322 0 2.9 0 8.249.51 3.636.875 13.138 1.283 13.716.848 1.198 2.233.622 2.603-.127.167-3.26.34-10.37.34-12.021 0-2.065.712-6.357 1.513-9.012z"/>
    <path fill="#03224C" fill-rule="evenodd" d="M42.804 31.022l-.046.096c-.785 1.618-1.564 4.292-2.161 6.842s-1.017 4.992-1.078 6.15c-.123 2.297-.323 9.01-.323 13.443 0 .357.21.592.496.733.284.139.653.193 1.012.197.36.003.722-.045.995-.12.137-.038.256-.084.344-.136.044-.026.084-.057.115-.092.03-.036.056-.083.056-.14v-.004c-.064-1.567.219-4.238.557-6.65.339-2.414.73-4.549.882-5.044.107-.352.326-1.26.6-2.391.12-.498.251-1.04.387-1.595.446-1.816.95-3.792 1.344-4.962.055-.073.1-.123.137-.155.024-.021.04-.03.048-.034l.002.004c.013.021.026.063.037.132.021.136.026.344.016.62-.01.275-.032.61-.063 1l-.068.826c-.128 1.52-.3 3.565-.3 5.808v.007l.001.008c.232 1.646.433 4.502.623 7.189l.057.808c.103 1.45.202 2.807.302 3.838.05.515.1.95.15 1.275.026.163.051.3.078.406.025.101.053.19.092.244.447.632 1.044.802 1.579.708.527-.093.994-.442 1.195-.848l.01-.02v-.02c.168-3.263.341-10.373.341-12.027 0-2.053.71-6.334 1.508-8.983.93-3.085.871-5.758.45-7.005l-.033-.095-.094.03c-4.623 1.524-8.04.63-9.155.009l-.093-.052zm9.215.269c.376 1.233.416 3.803-.483 6.785-.802 2.662-1.516 6.964-1.516 9.042 0 1.646-.173 8.726-.339 11.994-.175.336-.579.64-1.04.72-.463.082-.982-.059-1.382-.625-.013-.019-.035-.072-.06-.175-.024-.098-.05-.228-.074-.388-.05-.32-.099-.75-.149-1.264-.1-1.027-.199-2.382-.302-3.833l-.057-.81c-.19-2.68-.39-5.539-.623-7.194 0-2.23.171-4.264.3-5.782l.068-.83c.03-.39.053-.729.063-1.008.01-.278.006-.502-.018-.659-.012-.078-.031-.149-.062-.203-.033-.057-.09-.107-.17-.106-.07 0-.133.04-.185.084-.055.048-.113.115-.177.2l-.01.013-.004.016c-.398 1.178-.907 3.172-1.353 4.994-.138.562-.27 1.107-.391 1.608-.272 1.125-.489 2.021-.595 2.368-.156.513-.55 2.664-.888 5.074-.338 2.408-.623 5.092-.56 6.68 0 .002-.002.005-.006.01-.011.013-.032.03-.065.05-.066.04-.166.08-.294.114-.255.07-.598.117-.941.114-.346-.004-.68-.057-.926-.177-.24-.118-.383-.294-.383-.55 0-4.43.2-11.139.322-13.433.061-1.138.477-3.565 1.073-6.113.585-2.5 1.341-5.1 2.102-6.705 1.244.642 4.622 1.444 9.125-.011z" clip-rule="evenodd"/>
    <path fill="#fff" d="M51.37 19.952c.752-2.172.195-2.49-.597-2.74-2.526-.41-6.215 4.232-8.166 5.446-1.562.971-5.56.837-6.986.954l.256 2.916c1.534-.08 5.727.3 7.193 0 1.833-.375 7.274-3.617 8.3-6.576z"/>
    <path fill="#03224C" fill-rule="evenodd" d="M44.283 21.161c-.66.6-1.25 1.112-1.73 1.41-.374.234-.903.405-1.516.53-.61.124-1.297.202-1.981.253-.684.051-1.365.076-1.964.095l-.217.006c-.507.016-.946.03-1.262.056l-.1.008.273 3.115.096-.005c.583-.03 1.554.007 2.617.047.327.012.661.025.997.036.712.024 1.423.04 2.049.032.623-.007 1.169-.04 1.545-.117.472-.096 1.165-.374 1.951-.778.789-.405 1.677-.94 2.54-1.557.862-.616 1.701-1.315 2.39-2.047.687-.73 1.23-1.5 1.493-2.26.377-1.087.439-1.74.28-2.16-.163-.432-.546-.585-.941-.71l-.007-.002h-.007c-.664-.108-1.392.116-2.13.517-.742.402-1.507.986-2.25 1.619-.55.467-1.09.963-1.601 1.432l-.525.48zm6.467-3.85c.394.125.682.256.806.587.13.344.094.935-.281 2.02-.25.72-.771 1.466-1.45 2.187-.677.72-1.505 1.41-2.36 2.02-.855.612-1.735 1.142-2.515 1.543-.781.401-1.455.67-1.9.76-.356.073-.885.106-1.508.114-.62.007-1.328-.01-2.04-.033-.33-.011-.662-.023-.986-.036-1.01-.038-1.947-.073-2.547-.05l-.239-2.717c.301-.021.696-.033 1.152-.048l.216-.006c.6-.02 1.284-.044 1.973-.095.688-.052 1.383-.13 2.006-.257.62-.127 1.177-.303 1.582-.556.497-.309 1.1-.833 1.759-1.431l.528-.483c.51-.468 1.046-.96 1.593-1.426.74-.63 1.492-1.203 2.214-1.595.721-.39 1.4-.592 1.997-.497z" clip-rule="evenodd"/>
    <path fill="#000" fill-rule="evenodd" d="M47.849 16.154c.654-.037 1.446-.44 1.971-.793l-.11-.17c-.518.348-1.273.726-1.872.76-.297.017-.538-.051-.7-.23-.164-.18-.266-.495-.233-1.018l-.201-.012c-.035.548.07.929.285 1.168.218.24.53.314.86.295z" clip-rule="evenodd"/>
</svg>
