<svg xmlns="http://www.w3.org/2000/svg" width="16" height="16" fill="none" viewBox="0 0 16 16">
    <path fill="#03224C" d="M5.702 4.859L7.25 3.31V11.5c0 .199.079.39.22.53.14.141.331.22.53.22s.39-.079.53-.22c.141-.14.22-.331.22-.53V3.31l1.548 1.549c.07.07.152.125.243.163.091.038.19.058.288.058.098 0 .196-.02.287-.057.092-.038.175-.093.244-.163.07-.07.125-.152.163-.244.038-.09.057-.188.057-.287 0-.099-.02-.196-.058-.288-.038-.09-.093-.173-.163-.243L8.53.97C8.46.9 8.378.845 8.287.807 8.196.77 8.1.75 8 .75c-.098 0-.196.02-.287.057C7.622.845 7.539.9 7.47.97L4.64 3.798c-.07.07-.125.152-.163.243-.038.092-.058.19-.058.288 0 .099.02.196.057.287.038.092.093.174.163.244s.152.125.244.163c.09.038.189.057.287.057.099 0 .197-.02.288-.058.09-.038.173-.093.243-.163z"/>
    <path fill="#03224C" d="M14.5 7.25c-.199 0-.39.079-.53.22-.141.14-.22.331-.22.53v5.75H2.25V8c0-.199-.079-.39-.22-.53-.14-.141-.331-.22-.53-.22s-.39.079-.53.22C.829 7.61.75 7.8.75 8v6c0 .332.132.65.366.884.235.234.552.366.884.366h12c.332 0 .65-.132.884-.366.234-.235.366-.553.366-.884V8c0-.199-.079-.39-.22-.53-.14-.141-.331-.22-.53-.22z"/>
</svg>
