<svg xmlns="http://www.w3.org/2000/svg" width="147" height="62" fill="none" viewBox="0 0 147 62">
    <g clip-path="url(#clip0)">
        <path fill="#fff" d="M38.796 14.055c13.303-1.548 64.125.645 87.874 1.936 6.849-.646 10.068-.483 13.79.92 5.136 1.935-3.201 3.6-12.845 5.793-52.453 15.48-100.941 19.59-115.18 18.572-13.752-.984-14.872-8.515-8.247-12.901 6.624-4.386 17.98-12.384 34.608-14.32z"/>
        <path fill="#03224C" fill-rule="evenodd" d="M78.795 14.591c-17.357-.517-33.329-.674-39.917.092C23.188 16.51 12.243 23.79 5.51 28.27l-.94.625c-3.187 2.11-4.276 4.8-3.288 6.956 1.016 2.216 4.39 4.308 11.202 4.795 14.129 1.01 62.528-3.079 114.932-18.545l.021-.006.021-.005 1.882-.426c4.101-.926 7.748-1.75 10.006-2.545.645-.227 1.149-.443 1.506-.645.307-.174.438-.301.487-.364l-.037-.04c-.146-.139-.472-.337-1.09-.57-3.57-1.345-6.658-1.521-13.477-.879l-.052.005-.053-.003c-11.87-.645-30.506-1.515-47.836-2.03zm47.861.765c-11.881-.645-30.5-1.514-47.82-2.03-17.316-.515-33.407-.68-40.121.101-16.03 1.866-27.212 9.308-33.953 13.793l-.957.637.352.477-.352-.477c-3.437 2.276-5.1 5.545-3.748 8.496 1.326 2.892 5.386 5.057 12.327 5.554 14.348 1.026 62.913-3.102 115.409-18.592l1.854-.42c4.082-.922 7.824-1.767 10.166-2.591.679-.24 1.268-.486 1.726-.745.432-.245.858-.561 1.051-.985.106-.233.138-.493.065-.757-.07-.254-.222-.465-.401-.636-.344-.33-.881-.607-1.547-.858-3.864-1.456-7.207-1.61-14.051-.967z" clip-rule="evenodd"/>
        <path fill="#03224C" fill-rule="evenodd" d="M129.08 21.515c.032.137-.06.271-.204.301l-18.344 3.766c-.144.03-.287-.057-.318-.194-.031-.137.06-.271.205-.3l18.343-3.767c.145-.03.287.058.318.194zm-23.204 5.24l-19.09 2.748-.08-.5 19.09-2.748.08.5zM.45 33.106l.329-.398 2.88 1.883-.28.43C2.079 34.36.889 33.472.45 33.107zm6.89 2.356l40.58-.916.035.505c-7.584.78-24.23 2.352-30.049 2.392-5.827.041-9.526-.97-10.677-1.5l.11-.481zm1.426.474c1.738.483 4.837 1.032 9.136 1.001 4.418-.03 15.15-.953 23.36-1.735l-32.496.734z" clip-rule="evenodd"/>
        <path fill="#03224C" d="M28.825 26.468c-15.647 2.377-19.832.355-19.97-.953 5.815-3.867 19.442-8.911 19.97-8.911 2.538 3.408 1.058 7.996 0 9.864zM31.234 26.47c1.691-4.171.9-7.418.293-8.52l4.264-.696c.129-.021.261.004.368.075 2.735 1.811 4.236 5.597 4.71 7.505.033.13-.051.258-.188.286-1.993.41-7.066 1.063-9.447 1.35z"/>
        <path fill="#fff" d="M32.668 4.511c-3.306 1.335-1.377 7.584 0 10.541 6.358-1.516 21.536-1.567 30.436-1.516C60.323 11.867 36.8 2.843 32.668 4.51z"/>
        <path fill="#03224C" fill-rule="evenodd" d="M58.014 10.603c2.647 1.05 4.695 1.947 5.448 2.398l1.968 1.18-2.33-.013c-4.448-.025-10.456-.025-16.143.17-5.708.196-11.025.588-14.126 1.328l-.547.13-.227-.489c-.705-1.513-1.558-3.88-1.81-6.065-.125-1.091-.106-2.185.193-3.12.305-.953.916-1.768 1.966-2.193.68-.274 1.645-.299 2.703-.207 1.088.094 2.391.323 3.822.646 2.862.644 6.302 1.676 9.684 2.808 3.385 1.132 6.727 2.369 9.4 3.427zM34.987 4.982c-1.03-.09-1.704-.031-2.057.111-.602.244-.99.71-1.21 1.396-.227.705-.26 1.608-.144 2.616.207 1.8.868 3.778 1.487 5.209 3.3-.695 8.464-1.055 13.845-1.24 4.563-.157 9.325-.188 13.326-.182-.78-.333-1.703-.712-2.736-1.121-2.65-1.05-5.968-2.279-9.328-3.402-3.362-1.125-6.752-2.14-9.549-2.77-1.4-.316-2.634-.53-3.634-.617z" clip-rule="evenodd"/>
        <path fill="#03224C" fill-rule="evenodd" d="M33.004 10.068c.623 1.54 1.31 3.133 1.753 4.13l-.492.196c-.445-1-1.135-2.598-1.76-4.145-.622-1.54-1.188-3.05-1.375-3.861l.522-.108c.177.767.727 2.24 1.352 3.788z" clip-rule="evenodd"/>
        <path fill="#03224C" fill-rule="evenodd" d="M49.9 8.726c-8.104-1.037-14.599.944-16.807 2.047l-.249-.448c2.303-1.15 8.91-3.152 17.128-2.101l-.072.502z" clip-rule="evenodd"/>
        <path fill="#fff" d="M145.363 30.113c-4.083-.093-12.313-5.063-15.917-7.536-2.21-1.437 5.721-2.454 9.963-2.783 3.686 3.478 10.036 10.412 5.954 10.32z"/>
        <path fill="#03224C" fill-rule="evenodd" d="M139.662 19.14l.219.206c1.853 1.749 4.398 4.386 5.972 6.593.395.554.737 1.092.993 1.59.252.491.44.982.492 1.432.052.456-.031.965-.449 1.338-.397.355-.958.46-1.542.447-1.137-.026-2.504-.386-3.929-.912-1.438-.531-2.989-1.252-4.513-2.041-3.045-1.577-6.024-3.45-7.845-4.7-.325-.213-.703-.569-.66-1.084.039-.483.432-.79.714-.96.609-.37 1.633-.66 2.748-.896 2.281-.485 5.36-.824 7.493-.99l.307-.023zm-9.964 2.815s.003.002.006.008l-.006-.008zm.001.26l-.002.002.002-.002zm.177-.125c.403-.228 1.195-.473 2.278-.703 2.088-.443 4.915-.767 7.002-.938 1.806 1.723 4.146 4.174 5.589 6.198.374.524.68 1.008.899 1.436.223.434.338.773.365 1.014.026.23-.033.279-.037.282-.023.02-.157.112-.593.102-.904-.02-2.097-.317-3.476-.826-1.366-.505-2.863-1.198-4.357-1.972-2.968-1.537-5.882-3.368-7.67-4.593z" clip-rule="evenodd"/>
        <path fill="#fff" d="M138.33.247c-2.643-.076-8.645 11.436-11.315 17.201-.711 1.498 6.847-.076 10.715-1.05 1.302-5.352 3.244-16.074.6-16.15z"/>
        <path fill="#03224C" fill-rule="evenodd" d="M136.778.233c.458-.345.999-.635 1.573-.618.621.018 1.061.365 1.339.803.264.416.416.959.506 1.541.181 1.175.139 2.75-.021 4.442-.322 3.398-1.14 7.447-1.794 10.138l-.091.371-.389.098c-1.944.49-4.827 1.134-7.146 1.467-1.147.165-2.21.262-2.96.209-.351-.025-.764-.09-1.07-.295-.174-.117-.339-.298-.401-.552-.06-.244-.003-.47.079-.645m1.359.218c.039.004.084.009.133.012.588.042 1.523-.034 2.66-.198 2.102-.302 4.711-.872 6.613-1.341.63-2.651 1.376-6.428 1.676-9.595.158-1.668.187-3.122.03-4.146-.08-.517-.199-.867-.33-1.072-.117-.185-.194-.19-.234-.19l.02-.633-.02.633c-.087-.003-.312.05-.699.343-.367.277-.793.702-1.266 1.263-.944 1.121-2.006 2.7-3.082 4.485-2.078 3.444-4.163 7.574-5.501 10.439z" clip-rule="evenodd"/>
        <path fill="#fff" d="M121.22 9.328c3.973 1.04 6.4 2.939 7.634 4.088l-1.421 2.32h-3.701c-2.379-1.765-6.05-7.335-2.512-6.408z"/>
        <path fill="#03224C" fill-rule="evenodd" d="M123.97 15.104h3.078l.963-1.574c-1.269-1.106-3.507-2.685-6.969-3.593-.357-.093-.541-.086-.614-.072-.013.067-.015.213.052.461.069.257.196.568.377.919.698 1.35 2.04 2.997 3.113 3.859zm-3.949-6.445c.411-.118.887-.07 1.377.059 4.113 1.077 6.636 3.047 7.924 4.247l.369.344-1.873 3.06h-4.317l-.182-.135c-1.281-.95-2.852-2.865-3.662-4.434-.206-.398-.373-.793-.472-1.16-.095-.356-.146-.75-.046-1.11.113-.41.412-.736.882-.87z" clip-rule="evenodd"/>
        <path fill="#fff" d="M55.91 20.919c0 1.954-1.66 3.537-3.708 3.537s-3.708-1.583-3.708-3.537 1.66-3.538 3.708-3.538c2.047 0 3.707 1.584 3.707 3.538z"/>
        <path fill="#03224C" fill-rule="evenodd" d="M52.202 17.634c-1.898 0-3.44 1.469-3.44 3.285s1.542 3.284 3.44 3.284 3.44-1.468 3.44-3.284c0-1.816-1.542-3.285-3.44-3.285zm-3.975 3.285c0-2.092 1.778-3.791 3.975-3.791s3.974 1.699 3.974 3.79c0 2.092-1.777 3.791-3.974 3.791s-3.975-1.699-3.975-3.79z" clip-rule="evenodd"/>
        <path fill="#fff" d="M54.8 20.92c0 1.368-1.163 2.478-2.598 2.478-1.435 0-2.598-1.11-2.598-2.479s1.163-2.479 2.598-2.479c1.435 0 2.598 1.11 2.598 2.48z"/>
        <path fill="#03224C" fill-rule="evenodd" d="M52.202 18.693c-1.285 0-2.33.995-2.33 2.226 0 1.231 1.045 2.226 2.33 2.226 1.285 0 2.33-.995 2.33-2.226 0-1.23-1.045-2.226-2.33-2.226zm-2.865 2.226c0-1.507 1.28-2.732 2.865-2.732 1.584 0 2.865 1.225 2.865 2.732 0 1.507-1.28 2.732-2.865 2.732-1.584 0-2.865-1.225-2.865-2.732z" clip-rule="evenodd"/>
        <path fill="#fff" d="M70.123 20.36c0 1.83-1.554 3.313-3.472 3.313s-3.473-1.483-3.473-3.313 1.555-3.314 3.473-3.314 3.472 1.484 3.472 3.314z"/>
        <path fill="#03224C" fill-rule="evenodd" d="M66.65 17.3c-1.768 0-3.205 1.367-3.205 3.06 0 1.692 1.437 3.06 3.205 3.06 1.769 0 3.206-1.368 3.206-3.06 0-1.693-1.437-3.06-3.206-3.06zm-3.74 3.06c0-1.968 1.673-3.567 3.74-3.567 2.068 0 3.74 1.599 3.74 3.567 0 1.967-1.672 3.566-3.74 3.566-2.067 0-3.74-1.599-3.74-3.566z" clip-rule="evenodd"/>
        <path fill="#fff" d="M69.037 20.359c0 1.257-1.069 2.277-2.386 2.277-1.318 0-2.387-1.02-2.387-2.277 0-1.258 1.069-2.277 2.387-2.277 1.317 0 2.386 1.02 2.386 2.277z"/>
        <path fill="#03224C" fill-rule="evenodd" d="M66.65 18.335c-1.168 0-2.118.904-2.118 2.024s.95 2.024 2.118 2.024c1.169 0 2.12-.905 2.12-2.024 0-1.12-.951-2.024-2.12-2.024zm-2.653 2.024c0-1.396 1.186-2.53 2.653-2.53 1.468 0 2.654 1.134 2.654 2.53 0 1.395-1.186 2.53-2.654 2.53-1.467 0-2.653-1.135-2.653-2.53z" clip-rule="evenodd"/>
        <path fill="#fff" d="M84.455 20.415c0 1.768-1.502 3.201-3.355 3.201s-3.355-1.433-3.355-3.201 1.502-3.202 3.355-3.202 3.355 1.433 3.355 3.202z"/>
        <path fill="#03224C" fill-rule="evenodd" d="M81.1 17.466c-1.703 0-3.088 1.318-3.088 2.948s1.385 2.949 3.088 2.949 3.088-1.318 3.088-2.949c0-1.63-1.385-2.948-3.088-2.948zm-3.622 2.948c0-1.905 1.62-3.454 3.622-3.454s3.622 1.548 3.622 3.454c0 1.906-1.62 3.455-3.622 3.455-2.003 0-3.622-1.549-3.622-3.455z" clip-rule="evenodd"/>
        <path fill="#fff" d="M83.32 20.415c0 1.17-.994 2.12-2.22 2.12-1.227 0-2.221-.95-2.221-2.12 0-1.17.994-2.12 2.221-2.12 1.226 0 2.22.95 2.22 2.12z"/>
        <path fill="#03224C" fill-rule="evenodd" d="M81.1 18.548c-1.077 0-1.954.834-1.954 1.867 0 1.032.877 1.866 1.954 1.866s1.953-.834 1.953-1.866c0-1.033-.876-1.867-1.953-1.867zm-2.488 1.867c0-1.309 1.112-2.373 2.488-2.373s2.488 1.064 2.488 2.373c0 1.308-1.112 2.372-2.488 2.372s-2.488-1.064-2.488-2.372z" clip-rule="evenodd"/>
        <path fill="#fff" d="M97.964 20.415c0 1.613-1.371 2.921-3.062 2.921-1.69 0-3.061-1.308-3.061-2.921 0-1.613 1.37-2.921 3.061-2.921 1.691 0 3.062 1.308 3.062 2.92z"/>
        <path fill="#03224C" fill-rule="evenodd" d="M94.902 17.747c-1.541 0-2.794 1.192-2.794 2.668 0 1.475 1.253 2.668 2.794 2.668 1.541 0 2.794-1.193 2.794-2.668 0-1.476-1.253-2.668-2.794-2.668zm-3.329 2.668c0-1.751 1.489-3.174 3.33-3.174 1.84 0 3.328 1.423 3.328 3.174s-1.488 3.174-3.329 3.174c-1.84 0-3.329-1.423-3.329-3.174z" clip-rule="evenodd"/>
        <path fill="#fff" d="M96.928 20.415c0 1.068-.907 1.933-2.026 1.933-1.119 0-2.026-.865-2.026-1.933s.907-1.933 2.026-1.933c1.12 0 2.026.865 2.026 1.933z"/>
        <path fill="#03224C" fill-rule="evenodd" d="M94.902 18.735c-.97 0-1.759.75-1.759 1.68 0 .93.79 1.68 1.76 1.68.969 0 1.758-.75 1.758-1.68 0-.93-.79-1.68-1.759-1.68zm-2.293 1.68c0-1.206 1.025-2.186 2.293-2.186 1.269 0 2.293.98 2.293 2.186s-1.024 2.187-2.293 2.187c-1.268 0-2.293-.981-2.293-2.187z" clip-rule="evenodd"/>
        <path fill="#fff" d="M110.65 20.471c0 1.396-1.187 2.529-2.65 2.529-1.463 0-2.65-1.133-2.65-2.529s1.187-2.529 2.65-2.529c1.463 0 2.65 1.133 2.65 2.529z"/>
        <path fill="#03224C" fill-rule="evenodd" d="M108 18.196c-1.314 0-2.383 1.016-2.383 2.275s1.069 2.276 2.383 2.276 2.382-1.017 2.382-2.276-1.068-2.275-2.382-2.275zm-2.917 2.275c0-1.534 1.304-2.782 2.917-2.782 1.613 0 2.917 1.248 2.917 2.782 0 1.535-1.304 2.782-2.917 2.782-1.613 0-2.917-1.247-2.917-2.782z" clip-rule="evenodd"/>
        <path fill="#fff" d="M109.634 20.471c0 .862-.732 1.56-1.634 1.56-.902 0-1.634-.698-1.634-1.56 0-.86.732-1.559 1.634-1.559.902 0 1.634.698 1.634 1.56z"/>
        <path fill="#03224C" fill-rule="evenodd" d="M108 19.165c-.753 0-1.367.583-1.367 1.307 0 .723.614 1.306 1.367 1.306s1.367-.583 1.367-1.306c0-.724-.614-1.307-1.367-1.307zm-1.901 1.307c0-1 .849-1.813 1.901-1.813s1.901.814 1.901 1.813-.849 1.812-1.901 1.812-1.901-.813-1.901-1.812z" clip-rule="evenodd"/>
        <path fill="#fff" d="M80.87 27.853c2.879.266 4.45 1.07 4.875 1.44 9.865 4.983 31.799 31.895 19.73 32.449-12.07.554-65.34-19.824-57.448-26.247 7.892-6.424 29.246-7.974 32.844-7.642z"/>
        <path fill="#03224C" fill-rule="evenodd" d="M56.202 32.142c-3.134 1.032-5.859 2.301-7.74 3.833l-.432-.476.432.476c-.381.31-.532.618-.557.927-.027.33.084.748.406 1.268.652 1.053 2.038 2.31 4.058 3.702 4.016 2.766 10.261 5.877 17.168 8.785 6.897 2.904 14.416 5.592 20.958 7.517 3.27.962 6.29 1.732 8.86 2.243 2.582.514 4.666.758 6.087.693l.033.632-.033-.632c1.374-.063 2.109-.488 2.491-1.056.404-.602.525-1.528.281-2.802-.488-2.545-2.34-6.026-4.935-9.723-2.581-3.677-5.846-7.497-9.076-10.705-3.242-3.22-6.403-5.776-8.773-6.973l-.074-.038-.063-.054c-.122-.106-.53-.364-1.296-.631-.749-.26-1.805-.517-3.191-.645-1.708-.158-7.874.135-14.63 1.28-3.365.571-6.85 1.35-9.974 2.379zm9.74-3.624c6.794-1.153 13.103-1.47 14.994-1.294 1.491.137 2.66.416 3.522.716.786.274 1.35.577 1.669.83 2.553 1.306 5.805 3.965 9.043 7.181 3.28 3.257 6.595 7.134 9.222 10.877 2.613 3.724 4.598 7.386 5.136 10.198.27 1.404.201 2.712-.467 3.706-.691 1.03-1.911 1.566-3.554 1.642-1.597.073-3.817-.199-6.427-.718-2.623-.522-5.684-1.304-8.982-2.274-6.594-1.94-14.162-4.646-21.105-7.57-6.933-2.919-13.28-6.072-17.41-8.917-2.052-1.413-3.627-2.797-4.425-4.085-.403-.651-.64-1.329-.586-2.004.056-.695.414-1.298 1.019-1.79l.436.479-.436-.48c2.065-1.68 4.97-3.014 8.171-4.068 3.212-1.058 6.77-1.85 10.18-2.43z" clip-rule="evenodd"/>
        <path fill="#03224C" fill-rule="evenodd" d="M48.685 35.352l.372-.36L61.31 44.2l-.29.423c-5.959-2.957-10.7-7.406-12.336-9.27zm9.18 6.905c-2.367-1.49-4.421-3.111-5.998-4.507l5.997 4.507zm8.257 4.671c.073-.121.236-.164.364-.095 3.38 1.819 13.384 6.528 26.298 10.77.14.047.214.19.165.323-.048.132-.2.202-.34.156-12.943-4.253-22.978-8.974-26.387-10.809-.128-.069-.173-.223-.1-.345z" clip-rule="evenodd"/>
        <path fill="#03224C" fill-rule="evenodd" d="M88.701 33.262c1.234-.07 2.262-.06 2.853.1l-.043.494-15.756 1.74-.084-.5c2.18-.412 5.583-.994 8.715-1.4 1.566-.202 3.067-.362 4.315-.434zM64.935 37.59c-1.637.367-3.26.802-4.268 1.24-1.388.601-2.457 1.48-3.121 2.166l9.283-3.802c-.605.118-1.249.252-1.894.396zm-.123-.492c1.644-.369 3.278-.664 4.283-.824l.15.482-13.269 5.435.474-.699c.454-.67 1.87-2.202 3.994-3.123 1.06-.46 2.73-.904 4.368-1.271zm27.162 9.1c-4.686.756-9.448 1.931-11.4 2.57-1.556.51-2.654 1.075-3.394 1.569-.747.499-1.11.913-1.219 1.114-.067.124-.228.173-.36.109-.13-.064-.183-.217-.115-.341.166-.305.608-.776 1.386-1.296.785-.524 1.93-1.11 3.527-1.633 1.986-.65 6.778-1.832 11.485-2.59 2.354-.38 4.695-.656 6.66-.705.982-.025 1.877.006 2.635.112.753.104 1.396.285 1.855.575.123.078.157.235.075.35-.082.117-.248.149-.371.071-.363-.229-.915-.395-1.637-.495-.717-.1-1.578-.132-2.543-.108-1.928.05-4.242.32-6.585.698z" clip-rule="evenodd"/>
    </g>
    <defs>
        <clipPath id="clip0">
            <path fill="#fff" d="M0 0H147V62H0z"/>
        </clipPath>
    </defs>
</svg>
