<svg xmlns="http://www.w3.org/2000/svg" width="48" height="47" fill="none" viewBox="0 0 48 47">
    <path fill="#fff" d="M41.594 4.503H6.17c-.581 0-1.138.22-1.548.61-.41.39-.642.918-.642 1.47v33.653c0 .273.057.544.167.796.11.253.271.482.475.675.203.193.444.346.71.45.265.105.55.159.838.159h19.065V27.663h-5.174v-5.671h5.174v-4.254c-.107-.999.017-2.008.364-2.956.347-.949.907-1.813 1.643-2.534.736-.72 1.629-1.28 2.616-1.638.987-.358 2.045-.506 3.099-.435 1.549-.009 3.097.067 4.637.227v5.105H34.43c-2.508 0-2.985 1.134-2.985 2.779v3.649h5.97l-.776 5.672h-5.195v14.709h10.15c.288 0 .572-.054.838-.158.266-.105.507-.258.71-.451.204-.193.365-.422.475-.675.11-.252.166-.523.166-.796V6.583c0-.273-.056-.544-.166-.796-.11-.252-.271-.482-.475-.675-.203-.193-.444-.346-.71-.45-.266-.105-.55-.159-.838-.159z"/>
</svg>
