<svg xmlns="http://www.w3.org/2000/svg" width="47" height="47" fill="none" viewBox="0 0 47 47">
    <path fill="#fff" d="M23.602 18.72c-.928 0-1.834.276-2.605.791-.771.515-1.372 1.248-1.727 2.104-.355.857-.448 1.8-.267 2.71.181.909.628 1.744 1.283 2.4.656.656 1.491 1.102 2.401 1.283.91.181 1.852.088 2.71-.267.856-.354 1.588-.955 2.103-1.726.515-.771.79-1.678.79-2.605 0-.616-.12-1.226-.356-1.795s-.581-1.085-1.017-1.52c-.435-.436-.952-.782-1.52-1.017-.57-.236-1.18-.357-1.795-.357zm18.774-4.631c-.01-1.46-.279-2.907-.794-4.273-.38-1-.967-1.908-1.723-2.664-.756-.756-1.664-1.343-2.663-1.722-1.367-.516-2.813-.785-4.273-.794-2.44-.133-3.158-.133-9.321-.133-6.164 0-6.882 0-9.321.133-1.46.01-2.907.278-4.273.794-1 .38-1.907.966-2.664 1.722-.756.756-1.343 1.664-1.722 2.664-.516 1.366-.784 2.813-.794 4.273-.133 2.439-.133 3.157-.133 9.32 0 6.164 0 6.883.133 9.322.02 1.465.288 2.916.794 4.291.378.995.964 1.898 1.72 2.647.753.76 1.663 1.348 2.666 1.72 1.366.516 2.813.785 4.273.795 2.439.132 3.157.132 9.32.132 6.164 0 6.883 0 9.322-.132 1.46-.01 2.906-.28 4.273-.794 1.003-.373 1.912-.96 2.665-1.72.756-.75 1.343-1.653 1.72-2.648.515-1.373.784-2.825.795-4.291.132-2.44.132-3.158.132-9.321 0-6.164 0-6.882-.132-9.321zm-4.802 15.125c-.061 1.167-.31 2.316-.738 3.403-.367.907-.912 1.73-1.604 2.423-.692.691-1.516 1.237-2.423 1.604-1.097.404-2.253.627-3.422.662H17.816c-1.169-.035-2.324-.258-3.422-.662-.937-.348-1.784-.904-2.476-1.626-.685-.678-1.214-1.498-1.55-2.401-.406-1.096-.624-2.253-.644-3.422V23.41v-5.786c.02-1.168.238-2.325.643-3.422.349-.937.904-1.784 1.626-2.477.681-.68 1.5-1.21 2.401-1.55 1.098-.404 2.253-.627 3.422-.662h11.571c1.169.035 2.325.258 3.422.662.938.348 1.784.904 2.477 1.626.685.678 1.214 1.498 1.55 2.401.404 1.098.628 2.253.662 3.422v5.786c0 3.894.132 4.291.076 5.785v.019zm-3.025-14.066c-.225-.611-.58-1.166-1.04-1.626-.46-.46-1.016-.815-1.626-1.04-.839-.291-1.722-.432-2.61-.416H17.93c-.892.008-1.775.175-2.61.491-.6.215-1.15.556-1.609.999-.46.443-.82.98-1.056 1.573-.275.842-.409 1.723-.397 2.609V29.08c.019.891.185 1.773.491 2.61.226.61.58 1.165 1.04 1.625.46.46 1.016.815 1.626 1.04.807.297 1.656.463 2.515.492h11.344c.892-.009 1.775-.175 2.609-.492.61-.225 1.165-.58 1.625-1.04.46-.46.816-1.015 1.04-1.625.317-.834.483-1.718.492-2.61V23.41v-5.672c0-.893-.166-1.778-.491-2.61v.02zM23.602 30.632c-.948 0-1.886-.187-2.761-.55-.875-.364-1.67-.896-2.34-1.567-.669-.67-1.199-1.467-1.56-2.343-.36-.876-.545-1.815-.543-2.762 0-1.43.425-2.827 1.219-4.015.794-1.188 1.923-2.114 3.244-2.66 1.321-.546 2.774-.688 4.176-.407 1.401.28 2.688.97 3.697 1.981 1.01 1.012 1.696 2.301 1.972 3.703.277 1.402.131 2.855-.418 4.175-.55 1.319-1.479 2.446-2.669 3.237-1.19.791-2.588 1.212-4.017 1.208zm7.562-13.027c-.418-.044-.804-.241-1.086-.554-.28-.312-.436-.717-.436-1.138 0-.42.155-.825.436-1.138.282-.312.668-.51 1.086-.554.418.044.805.242 1.086.554.281.313.437.718.437 1.138 0 .42-.156.826-.437 1.138-.281.313-.668.51-1.086.554z"/>
</svg>
