<svg xmlns="http://www.w3.org/2000/svg" width="47" height="47" fill="none" viewBox="0 0 47 47">
    <path fill="#fff" d="M39.666 4.503H7.64c-.36-.005-.718.061-1.052.195-.335.133-.64.33-.898.582-.258.25-.464.55-.607.88-.142.332-.218.687-.223 1.047v32.406c.005.36.081.715.223 1.046.143.33.349.63.607.881s.563.449.898.582c.334.133.692.2 1.052.194h32.027c.36.005.718-.06 1.052-.194.335-.133.64-.33.898-.582.258-.25.464-.55.606-.881.143-.33.218-.686.223-1.046V7.207c-.005-.36-.08-.715-.223-1.046-.142-.33-.348-.63-.606-.881s-.563-.45-.898-.582c-.334-.134-.692-.2-1.052-.195zM16.26 36.153h-5.672V19.137h5.672v17.016zm-2.836-19.398c-.782 0-1.532-.31-2.086-.864-.553-.553-.863-1.303-.863-2.086 0-.782.31-1.532.863-2.085.554-.553 1.304-.864 2.086-.864.415-.047.836-.006 1.234.12.399.127.766.337 1.078.615.311.279.56.62.732 1.002.17.381.259.794.259 1.212 0 .418-.088.832-.26 1.213-.17.382-.42.723-.731 1.001-.312.279-.68.488-1.078.615s-.819.168-1.234.12zm23.293 19.398h-5.672V27.02c0-2.288-.813-3.781-2.874-3.781-.638.004-1.259.204-1.78.573-.52.368-.915.888-1.132 1.488-.148.444-.212.912-.189 1.38v9.453h-5.672V19.118h5.672v2.401c.516-.894 1.265-1.63 2.168-2.13.903-.5 1.925-.744 2.956-.706 3.781 0 6.523 2.44 6.523 7.676v9.794z"/>
</svg>
