<svg xmlns="http://www.w3.org/2000/svg" width="46" height="47" fill="none" viewBox="0 0 46 47">
    <path fill="#fff" d="M42.034 11.687c-1.422.617-2.925 1.024-4.462 1.21 1.622-.97 2.838-2.494 3.422-4.292-1.525.908-3.194 1.547-4.935 1.891-1.163-1.262-2.713-2.102-4.405-2.388-1.693-.286-3.433-.003-4.946.806-1.514.809-2.717 2.097-3.42 3.663-.703 1.566-.866 3.321-.463 4.99-3.083-.156-6.099-.959-8.851-2.356-2.752-1.397-5.18-3.358-7.125-5.755-.683 1.192-1.041 2.54-1.04 3.914-.003 1.275.31 2.53.91 3.656.601 1.124 1.47 2.083 2.53 2.79-1.232-.033-2.438-.363-3.516-.963v.094c.01 1.787.635 3.515 1.772 4.893 1.137 1.378 2.715 2.321 4.467 2.67-.674.205-1.374.313-2.08.321-.487-.005-.974-.05-1.455-.132.499 1.537 1.464 2.88 2.762 3.842 1.298.962 2.864 1.496 4.479 1.527-2.728 2.147-6.096 3.318-9.567 3.328-.632.002-1.263-.036-1.89-.114 3.544 2.289 7.674 3.503 11.892 3.498 2.91.03 5.799-.52 8.495-1.618 2.696-1.099 5.146-2.723 7.207-4.779s3.692-4.502 4.797-7.195c1.105-2.693 1.663-5.58 1.64-8.49v-1.003c1.484-1.106 2.763-2.462 3.782-4.008z"/>
</svg>
