<svg width="16" height="17" viewBox="0 0 16 17" fill="none" xmlns="http://www.w3.org/2000/svg">
<g clip-path="url(#clip0)">
<path d="M10.9148 11.2164H5.08437L4.56721 12.5356L4.47754 12.7643H5.60175C5.60018 12.754 5.59873 12.7436 5.59873 12.7329V12.5356V12.1605C5.59873 12.0498 5.68423 11.96 5.78975 11.96C5.89523 11.96 5.98077 12.0497 5.98077 12.1605V12.5356V12.7329C5.98077 12.7436 5.97931 12.754 5.97774 12.7643H7.81162C7.81005 12.754 7.8086 12.7436 7.8086 12.7329V12.5356V12.1605C7.8086 12.0498 7.8941 11.96 7.99962 11.96C8.1051 11.96 8.19064 12.0497 8.19064 12.1605V12.5356V12.7329C8.19064 12.7436 8.18918 12.754 8.18761 12.7643H10.0215C10.0199 12.754 10.0185 12.7436 10.0185 12.7329V12.5356V12.1605C10.0185 12.0498 10.104 11.96 10.2095 11.96C10.315 11.96 10.4005 12.0497 10.4005 12.1605V12.5356V12.7329C10.4005 12.7436 10.3991 12.754 10.3975 12.7643H11.5217L11.432 12.5356L10.9148 11.2164Z" fill="#03224C"/>
<path d="M15.8889 6.06748C15.8509 5.95122 15.7161 5.86076 15.6035 5.86076C15.1162 5.86076 14.6289 5.86076 14.1416 5.86076C14.029 5.86076 13.8942 5.95126 13.8562 6.06748C13.8039 6.22733 13.7704 6.36285 13.7551 6.4915C13.112 5.19143 12.4 3.74442 12.4 3.74442C12.3299 3.53895 12.1608 3.38847 11.9564 3.34964C10.6393 3.0995 9.30825 2.9727 8.00036 2.9727C6.69252 2.9727 5.36125 3.0995 4.04364 3.34964C3.83918 3.38843 3.66999 3.53895 3.59996 3.74438C3.59996 3.74438 2.88788 5.19143 2.24483 6.49146C2.22947 6.36285 2.19605 6.22729 2.14375 6.06744C2.10573 5.95118 1.97092 5.86072 1.85839 5.86072C1.37109 5.86072 0.883726 5.86072 0.396434 5.86072C0.283906 5.86072 0.149094 5.95122 0.110997 6.06744C-0.0370628 6.52004 -0.036948 6.77919 0.111035 7.23183C0.149094 7.34809 0.283906 7.43855 0.396434 7.43855C0.882846 7.43855 1.36926 7.43855 1.85563 7.43855C1.85594 7.45768 1.85697 7.47674 1.859 7.49579C1.55128 7.59381 1.32726 7.89376 1.32726 8.24887V11.5525V11.7484V13.449C1.32726 13.6579 1.48849 13.8273 1.68751 13.8273H3.50091C3.69989 13.8273 3.8612 13.6579 3.8612 13.449V12.5355H4.15452L4.78022 10.9394C4.80971 10.8642 4.87943 10.8152 4.95685 10.8152H11.0432C11.1206 10.8152 11.1904 10.8642 11.2198 10.9394L11.8455 12.5355H12.1388V13.449C12.1388 13.6579 12.3001 13.8273 12.4991 13.8273H14.3125C14.5115 13.8273 14.6727 13.6579 14.6727 13.449V11.7484V11.5525V8.24887C14.6727 7.89376 14.4487 7.59381 14.141 7.49579C14.143 7.47674 14.1441 7.45768 14.1444 7.43855C14.6307 7.43855 15.1172 7.43855 15.6036 7.43855C15.7161 7.43855 15.8509 7.34813 15.889 7.23183C16.037 6.77923 16.0369 6.52008 15.8889 6.06748ZM4.40381 4.19011C4.40381 4.19011 5.27452 3.95806 7.99998 3.95806C10.7254 3.95806 11.5961 4.19011 11.5961 4.19011L12.8742 7.43859H3.1258L4.40381 4.19011ZM2.8154 9.81113V8.74384H5.01692L5.67103 9.81113H2.8154ZM13.1845 9.81113H10.3289L10.983 8.74384H13.1845V9.81113Z" fill="#03224C"/>
</g>
<defs>
<clipPath id="clip0">
<rect width="16" height="16.8" fill="white"/>
</clipPath>
</defs>
</svg>
