<svg width="16" height="16" viewBox="0 0 16 16" fill="none" xmlns="http://www.w3.org/2000/svg">
<g clip-path="url(#clip0)">
<path d="M10.2137 7.12431C10.2436 7.13445 10.2743 7.13924 10.3041 7.13924C10.4216 7.13924 10.5311 7.06545 10.5708 6.94801C10.659 6.68947 10.9409 6.55062 11.1994 6.63821C11.752 6.82521 12.355 6.52865 12.5423 5.9758C12.5924 5.82879 12.5136 5.66854 12.3663 5.61841C12.2184 5.56856 12.059 5.64741 12.0089 5.79471C11.921 6.05353 11.6391 6.19238 11.3803 6.10451C10.8285 5.91835 10.225 6.21435 10.0374 6.76692C9.98756 6.91421 10.0664 7.07418 10.2137 7.12431Z" fill="#03224C"/>
<path d="M10.8796 5.16191C10.9094 5.17204 10.9401 5.17683 10.97 5.17683C11.0874 5.17683 11.197 5.10304 11.2367 4.9856C11.2792 4.86027 11.3679 4.75889 11.4868 4.70031C11.6056 4.64173 11.74 4.63328 11.8653 4.6758C12.4179 4.86281 13.0206 4.56625 13.2082 4.01312C13.2583 3.8661 13.1791 3.70585 13.0321 3.65572C12.8848 3.60503 12.7249 3.68473 12.675 3.83202C12.5871 4.09113 12.3058 4.22997 12.0464 4.1421C11.7783 4.05114 11.4913 4.06972 11.2378 4.19505C10.9844 4.3201 10.7945 4.53668 10.7036 4.80451C10.6534 4.95181 10.7323 5.11177 10.8796 5.16191Z" fill="#03224C"/>
<path d="M11.5456 3.19932C11.5757 3.20946 11.6062 3.21425 11.6363 3.21425C11.7537 3.21425 11.8633 3.14046 11.903 3.02302C11.9678 2.83207 12.1765 2.72927 12.3671 2.79405C12.6023 2.87375 12.8544 2.85742 13.0771 2.74786C13.2996 2.63802 13.4661 2.4482 13.5461 2.21303C13.5962 2.06602 13.5173 1.90577 13.37 1.85564C13.2222 1.80523 13.0628 1.88465 13.0126 2.03194C12.9811 2.1246 12.9155 2.19952 12.8279 2.24261C12.7403 2.2857 12.6412 2.29217 12.5482 2.26035C12.0633 2.09672 11.5341 2.35695 11.3696 2.84164C11.3195 2.98922 11.3983 3.14919 11.5456 3.19932Z" fill="#03224C"/>
<path d="M13.4248 7.04589C13.985 5.22653 14.2919 3.44377 14.3359 1.74636C14.3485 1.25969 14.1365 0.70684 13.8087 0.370286C13.4175 -0.0310447 12.8855 -0.113001 12.3605 0.157369C11.5192 0.59137 10.9177 1.86802 10.4344 2.8943C10.4065 2.95345 10.3792 3.01118 10.3521 3.06836C10.2454 2.57746 9.92095 2.15755 9.45963 1.93843C9.35092 1.41572 8.93635 1.00622 8.41533 0.900043C8.4097 0.870752 8.40266 0.842026 8.39392 0.813017C8.28662 0.446328 7.96274 0.170325 7.58873 0.125826C7.37243 0.0993525 7.1674 0.144977 6.98997 0.248619C6.83789 0.164129 6.66722 0.119067 6.49204 0.119067C6.00227 0.119067 5.5908 0.460691 5.4835 0.917786C4.94811 1.06367 4.55551 1.55513 4.55129 2.12628C3.94042 2.284 3.49543 2.83601 3.49543 3.4925C3.49543 3.66655 3.52811 3.83891 3.59091 4.00141C3.43235 4.19715 3.34448 4.44217 3.34448 4.69931C3.34448 4.85364 3.3763 5.00235 3.43629 5.13978C3.15494 4.8328 2.75896 4.58186 2.31426 4.5982C2.15879 4.60327 2.03656 4.7331 2.04135 4.88857C2.04614 5.04093 2.17118 5.16147 2.3227 5.16147C2.33228 5.16175 2.34101 5.16091 2.35002 5.16091C2.61392 5.16091 2.85922 5.33552 3.03778 5.5383C2.5911 5.66701 2.05262 5.87654 1.8014 6.35025C1.65044 6.63499 1.6327 6.9845 1.73211 7.38442C1.68198 7.46638 1.65748 7.56241 1.66283 7.66521L2.14218 14.4774C2.18583 15.3316 2.88992 16.0005 3.74496 16.0005H11.6508C12.5058 16.0005 13.2099 15.3316 13.2533 14.4825L13.745 7.42864C13.7504 7.32781 13.7135 7.22755 13.6439 7.15432C13.5867 7.09265 13.5073 7.05716 13.4248 7.04589ZM10.5822 3.87411C10.6938 3.66599 10.8154 3.40801 10.9441 3.13454C11.3674 2.23556 11.9476 1.00453 12.6187 0.658117C12.9229 0.501528 13.1829 0.535324 13.4053 0.763449C13.6566 1.02086 13.7802 1.44557 13.7729 1.73171C13.7298 3.39674 13.4256 5.14908 12.8686 6.94028C12.8502 6.99914 12.8097 7.11799 12.752 7.28106L12.272 7.49426C12.2616 7.49905 12.2515 7.50412 12.2416 7.51031C12.1059 7.5917 11.949 7.63198 11.7921 7.63367C11.6353 7.63198 11.4787 7.5917 11.3429 7.51031L11.1421 7.38977C10.916 7.2543 10.6571 7.18249 10.3935 7.18249C10.3223 7.18249 10.2516 7.18868 10.1817 7.1991C9.98657 7.22417 9.79619 7.28782 9.62608 7.39005L9.42556 7.51059C9.316 7.57621 9.1918 7.60832 9.06591 7.62212C9.0721 7.601 9.07914 7.58016 9.08534 7.55903C9.16335 7.29317 9.24756 7.03097 9.33543 6.77102C9.36754 6.67582 9.40105 6.58148 9.43485 6.48713C9.50836 6.28041 9.58524 6.07594 9.66467 5.87345C9.69874 5.78698 9.73141 5.69939 9.76662 5.61378C10.0122 5.01305 10.2834 4.43147 10.5822 3.87411ZM7.32821 7.20614C7.29724 7.2115 7.26654 7.21713 7.23612 7.22445C7.14318 7.24501 7.05193 7.27289 6.96434 7.31148L6.91027 7.0642C6.99138 7.07096 7.07221 7.07772 7.14797 7.07772C7.63914 7.07772 8.03456 6.93155 8.48912 6.60823C8.63219 6.50628 8.75892 6.42911 8.87946 6.36518C8.85355 6.43869 8.82792 6.51191 8.80286 6.5857C8.78483 6.63865 8.7654 6.69075 8.74794 6.74398C8.66514 6.99464 8.58628 7.24726 8.51277 7.50214L8.32549 7.39005C8.09933 7.25459 7.84051 7.18277 7.5769 7.18277C7.50874 7.18277 7.44143 7.18925 7.3744 7.19882C7.35919 7.20051 7.3437 7.20389 7.32821 7.20614ZM6.8807 3.39956C6.81761 3.41251 6.75509 3.37027 6.74213 3.31056C6.72861 3.24888 6.76945 3.18552 6.83113 3.172L8.4111 2.82925C8.46574 2.82925 8.51362 2.86783 8.52517 2.92078C8.53418 2.96133 8.51897 2.99316 8.50883 3.00865C8.49897 3.02386 8.47673 3.05061 8.43617 3.05962L6.8807 3.39956ZM6.99166 4.54187C7.02461 4.49963 7.05672 4.45851 7.0877 4.41739C7.10995 4.38782 7.12938 4.35712 7.14571 4.32642C7.215 4.19602 7.23133 4.04986 7.19923 3.9065L8.37477 3.64965C8.38266 3.6857 8.39111 3.72147 8.40463 3.7547C8.45729 3.88369 8.55136 3.99099 8.68232 4.06591C8.72513 4.08957 8.76991 4.11322 8.8161 4.13773C8.85412 4.15772 8.89214 4.17856 8.93044 4.1994C8.94875 4.20926 8.96733 4.21912 8.98564 4.22926C9.01916 4.24813 9.05154 4.26897 9.08421 4.28953C9.1121 4.30671 9.1397 4.32445 9.16673 4.34332C9.19799 4.36501 9.22785 4.38894 9.2577 4.41316C9.28389 4.43457 9.30896 4.45794 9.33374 4.48188C9.3605 4.50808 9.38697 4.53483 9.41147 4.56412C9.45485 4.61594 9.49653 4.66973 9.53061 4.73423C9.41119 4.99784 9.29882 5.2668 9.19011 5.53802C9.17321 5.57998 9.15519 5.62082 9.13857 5.66278C8.8299 5.74108 8.53164 5.88753 8.16326 6.14973C7.69913 6.47953 7.35356 6.56711 6.78409 6.48459L6.61314 5.70193C6.49711 5.17245 6.74861 4.85195 6.99166 4.54187ZM5.3241 11.5447C5.47956 11.5447 5.60573 11.6706 5.60573 11.8264C5.60573 11.9821 5.47956 12.108 5.3241 12.108H3.35265C3.19718 12.108 3.07101 11.9821 3.07101 11.8264C3.07101 11.6706 3.19718 11.5447 3.35265 11.5447H5.3241ZM3.35265 12.6713H5.88737C6.04283 12.6713 6.169 12.7972 6.169 12.9529C6.169 13.1087 6.04283 13.2346 5.88737 13.2346H3.35265C3.19718 13.2346 3.07101 13.1087 3.07101 12.9529C3.07101 12.7972 3.19718 12.6713 3.35265 12.6713ZM4.1094 4.27516L4.29387 4.12308L4.17418 3.91664C4.09926 3.78709 4.05955 3.64064 4.05955 3.4925C4.05955 3.03625 4.41695 2.66421 4.8732 2.64506L5.2151 2.63069L5.1354 2.29808C5.12188 2.24232 5.11512 2.1874 5.11512 2.1353C5.11512 1.77255 5.39845 1.46697 5.76007 1.43937L6.0203 1.41966V1.13943C6.02847 0.886242 6.23716 0.68262 6.4926 0.68262C6.63962 0.68262 6.74495 0.749649 6.80719 0.805976L7.00462 0.984251L7.19387 0.797246C7.28034 0.711628 7.39665 0.669946 7.52254 0.685718C7.6735 0.703461 7.80981 0.821185 7.85375 0.972423C7.86867 1.02312 7.8729 1.07212 7.86698 1.12197L7.83403 1.43628H8.15115C8.55586 1.43628 8.89439 1.75255 8.92227 2.15642L8.93495 2.34145L9.10984 2.40285C9.55004 2.55747 9.83956 2.97401 9.8297 3.44011C9.82548 3.63923 9.76127 3.83102 9.64495 3.99916C9.45654 3.83919 9.25348 3.73133 9.08281 3.64148C9.03859 3.61811 8.99578 3.59558 8.95269 3.57164C8.94058 3.56488 8.92593 3.55305 8.92086 3.52348C8.91411 3.48292 8.92931 3.4342 8.96001 3.39843C9.08281 3.25592 9.13209 3.0616 9.09238 2.87825L9.0583 2.72307C8.9893 2.40736 8.65951 2.19416 8.34379 2.26485L8.2686 2.28118C8.26775 2.28147 8.26691 2.28118 8.26634 2.28147L7.43974 2.46228L6.63314 2.6383C6.30982 2.70899 6.10423 3.02949 6.1752 3.35309L6.1921 3.42969C6.1921 3.42998 6.1921 3.43026 6.1921 3.43054C6.1921 3.43082 6.19238 3.4311 6.19238 3.43166L6.20899 3.50799C6.24983 3.69556 6.38023 3.85355 6.55738 3.9296C6.60131 3.94847 6.63793 3.98423 6.6506 4.02057C6.65792 4.04141 6.6537 4.05211 6.63736 4.07914C6.6092 4.1166 6.57935 4.1549 6.54865 4.19377C6.51739 4.23348 6.485 4.27544 6.45233 4.31854C6.44219 4.33177 6.43261 4.34557 6.42247 4.35909C6.39825 4.39176 6.37431 4.42556 6.35009 4.46048C6.33798 4.47822 6.32616 4.49653 6.31404 4.51483C6.29236 4.54835 6.27124 4.58271 6.25068 4.61848C6.23913 4.63847 6.22786 4.65819 6.2166 4.67875C6.19519 4.71846 6.17576 4.76042 6.15689 4.80295C6.14901 4.82069 6.14056 4.83759 6.13323 4.8559C6.10845 4.91757 6.08648 4.98179 6.06874 5.04938C6.06621 5.05952 6.06508 5.0705 6.06254 5.08092C6.04874 5.13894 6.03804 5.19865 6.03072 5.26145C6.0279 5.28623 6.02734 5.31215 6.02565 5.33777C6.0234 5.37101 6.01917 5.40283 6.01917 5.43747C6.011 5.42677 6.00312 5.41776 5.99495 5.40734C5.97636 5.38312 5.95778 5.36115 5.93919 5.33806C5.89751 5.28652 5.85554 5.23751 5.81358 5.19161C5.79302 5.16907 5.77218 5.14683 5.75162 5.1257C5.7074 5.08064 5.66262 5.03924 5.61812 5.00037C5.60151 4.98601 5.58517 4.96996 5.56856 4.95644C5.50913 4.908 5.44914 4.86519 5.38859 4.82773C5.37028 4.81647 5.3517 4.80802 5.33339 4.7976C5.28974 4.77309 5.2458 4.75056 5.20158 4.73169C5.17736 4.72127 5.15286 4.71226 5.12836 4.70381C5.08808 4.68945 5.04781 4.6779 5.00726 4.66833C4.98275 4.66241 4.95825 4.65593 4.93375 4.65171C4.88249 4.64298 4.83095 4.63847 4.77913 4.63706C4.7673 4.63678 4.75547 4.63369 4.74364 4.63369C4.45102 4.63369 4.1846 4.74775 3.94831 4.9018C3.92239 4.83815 3.90888 4.76971 3.90888 4.69902C3.90859 4.53455 3.98182 4.37993 4.1094 4.27516ZM2.29989 6.61358C2.41902 6.38912 2.70826 6.21789 3.21042 6.07425C3.4453 6.00722 3.66329 5.88189 3.84016 5.71291C3.91873 5.63772 3.99309 5.57266 4.0649 5.51436C4.12883 5.46226 4.19051 5.41663 4.24994 5.37748C4.25219 5.37608 4.25444 5.37467 4.2567 5.37326C4.37442 5.29666 4.48369 5.24568 4.58593 5.21949C4.59015 5.21836 4.5941 5.21752 4.59832 5.21667C4.64845 5.20484 4.69717 5.19808 4.74421 5.19808C5.09851 5.19808 5.47843 5.55154 5.87357 6.24858C6.08057 6.61386 6.14957 7.1532 6.05973 7.62353C6.03861 7.62156 6.01805 7.61874 5.9972 7.61536C5.8961 7.59593 5.79809 7.56354 5.71022 7.51087L5.50941 7.39033C5.28326 7.25487 5.02444 7.18305 4.76082 7.18305C4.68957 7.18305 4.61888 7.18925 4.54903 7.19967C4.35386 7.22473 4.16347 7.28838 3.99337 7.39062L3.89564 7.4492C3.72863 7.54918 3.53627 7.59959 3.34335 7.60128C3.15043 7.59959 2.95779 7.54946 2.79106 7.4492L2.4117 7.22135C2.36241 7.19206 2.30862 7.1715 2.25286 7.16108C2.20808 6.93746 2.22385 6.75722 2.29989 6.61358ZM6.45064 14.3611H3.35265C3.19718 14.3611 3.07101 14.2352 3.07101 14.0795C3.07101 13.9237 3.19718 13.7978 3.35265 13.7978H6.45064C6.6061 13.7978 6.73227 13.9237 6.73227 14.0795C6.73227 14.2352 6.6061 14.3611 6.45064 14.3611ZM8.14045 14.3611H7.57718C7.42172 14.3611 7.29555 14.2352 7.29555 14.0795C7.29555 13.9237 7.42172 13.7978 7.57718 13.7978H8.14045C8.29592 13.7978 8.42209 13.9237 8.42209 14.0795C8.42209 14.2352 8.29592 14.3611 8.14045 14.3611Z" fill="#03224C"/>
</g>
<defs>
<clipPath id="clip0">
<rect width="16" height="16" fill="white"/>
</clipPath>
</defs>
</svg>
