<svg width="16" height="16" viewBox="0 0 16 16" fill="none" xmlns="http://www.w3.org/2000/svg">
<path d="M14.344 1.73559C14.3113 1.73426 14.2786 1.73404 14.2459 1.73496H13.0121V0.674709C13.0122 0.250608 12.6073 0 12.1832 0H11.0459C10.6218 0 10.3134 0.250608 10.3134 0.674709V1.73492H5.68687V0.674709C5.68687 0.250608 5.37844 0 4.95434 0H3.81698C3.39291 0 2.98807 0.250608 2.98807 0.674709V1.73492H1.75437C0.966823 1.71297 0.3106 2.33362 0.288646 3.12113C0.287724 3.15382 0.287945 3.18658 0.289274 3.21928V14.3614C0.289274 15.2096 0.906127 16 1.75433 16H14.2459C15.0941 16 15.711 15.2096 15.711 14.3614V3.21928C15.7432 2.4321 15.1312 1.76784 14.344 1.73559ZM11.0459 0.771085H12.2411V2.89155H11.0459V0.771085ZM3.81701 0.771085H4.91582V2.89155H3.81701V0.771085ZM14.9399 14.3614C14.9399 14.7855 14.67 15.2289 14.2459 15.2289H1.75437C1.33026 15.2289 1.0604 14.7855 1.0604 14.3614V6.16868H14.9399V14.3614ZM14.9399 3.21928V5.3976H1.06036V3.21928C1.0277 2.85879 1.29348 2.54007 1.65397 2.50741C1.68732 2.50439 1.7209 2.50394 1.75433 2.50605H2.98807V2.93015C2.98807 3.35425 3.39288 3.66267 3.81698 3.66267H4.95434C5.34811 3.67348 5.67606 3.36299 5.68687 2.96922C5.68724 2.9562 5.68724 2.94317 5.68687 2.93015V2.50601H10.3134V2.93011C10.3026 3.32388 10.6131 3.65183 11.0068 3.66264C11.0199 3.66301 11.0329 3.66301 11.0459 3.66264H12.1833C12.6074 3.66264 13.0122 3.35421 13.0122 2.93011V2.50601H14.2459C14.6072 2.48324 14.9185 2.75765 14.9413 3.11891C14.9434 3.15234 14.9429 3.18592 14.9399 3.21928Z" fill="#03224C"/>
<path d="M1 6H15V15C15 15.5523 14.5523 16 14 16H2C1.44772 16 1 15.5523 1 15V6Z" fill="#03224C"/>
<path d="M5.86085 11.4313L5.51387 13.359C5.50014 13.4417 5.51372 13.5266 5.55257 13.6009C5.65127 13.7896 5.88424 13.8625 6.0729 13.7638L7.80782 12.8578L9.54275 13.7638L9.71624 13.8024C9.79989 13.8038 9.88154 13.7766 9.94755 13.7253C10.0628 13.6411 10.1221 13.5002 10.1018 13.359L9.7548 11.4313L11.162 10.0819C11.2627 9.97306 11.2993 9.81957 11.2584 9.67707C11.2065 9.54535 11.0895 9.45034 10.95 9.42646L9.02227 9.1373L8.15481 7.38308C8.11699 7.305 8.05397 7.24194 7.97589 7.20416C7.78425 7.11136 7.55367 7.19147 7.46084 7.38308L6.59338 9.1373L4.66566 9.42646C4.52612 9.4503 4.40915 9.54535 4.35724 9.67707C4.31639 9.81957 4.35296 9.97306 4.45361 10.0819L5.86085 11.4313ZM6.9211 9.86986C7.04216 9.85175 7.14474 9.77116 7.19097 9.65781L7.80782 8.42407L8.42468 9.65781C8.47095 9.77116 8.57348 9.85175 8.69455 9.86986L10.0632 10.0626L9.08009 11.0072C8.98851 11.0979 8.94556 11.2267 8.96441 11.3542L9.19573 12.7229L7.98128 12.0674L7.80779 12.0289L7.63429 12.0674L6.41985 12.7229L6.65116 11.3542C6.67005 11.2267 6.62706 11.0979 6.53549 11.0072L5.55235 10.0626L6.9211 9.86986Z" fill="white"/>
</svg>
