<svg width="16" height="16" viewBox="0 0 16 16" fill="none" xmlns="http://www.w3.org/2000/svg">
<g clip-path="url(#clip0)">
<path d="M15.9996 4.60937C15.9996 4.04594 15.7802 3.51622 15.3818 3.11784C15.0347 2.77078 14.5742 2.55959 14.0841 2.51584C14.111 2.38141 14.1246 2.24553 14.1246 2.10937C14.1246 0.94625 13.1784 0 12.0152 0C10.8521 0 9.90586 0.94625 9.90586 2.10937C9.90586 2.14347 9.9067 2.17756 9.90842 2.21159C10.0052 2.28697 10.0981 2.36769 10.1854 2.45494C10.7608 3.03034 11.0777 3.7955 11.0777 4.60937C11.0777 5.32022 10.836 5.99387 10.3913 6.53647C10.4319 6.72456 10.4527 6.91684 10.4527 7.10937C10.4527 7.74972 10.2314 8.33928 9.86133 8.80578C10.0467 8.87056 10.2456 8.90625 10.4527 8.90625C10.864 8.90625 11.2433 8.76722 11.5465 8.53387V3.59375C11.5465 3.33487 11.7564 3.125 12.0152 3.125C12.2741 3.125 12.484 3.33487 12.484 3.59375V4.53125L12.984 4.15625C13.1911 4.00094 13.4849 4.04284 13.6402 4.25C13.7956 4.45709 13.7536 4.75091 13.5465 4.90625L12.484 5.70312V8.53387C12.7871 8.76719 13.1664 8.90625 13.5777 8.90625C14.5685 8.90625 15.3746 8.10019 15.3746 7.10937C15.3746 6.8195 15.3046 6.53744 15.1705 6.28181C15.2487 6.22403 15.3186 6.16406 15.3818 6.10094C15.7802 5.7025 15.9996 5.17281 15.9996 4.60937Z" fill="#03224C"/>
<path d="M3.00094 6.28181C2.86688 6.53747 2.79688 6.8195 2.79688 7.10937C2.79688 8.10019 3.60294 8.90625 4.59375 8.90625C5.00503 8.90625 5.38434 8.76722 5.6875 8.53387V6.71875L4.625 5.92187C4.41791 5.76653 4.37591 5.47272 4.53125 5.26562C4.68656 5.05856 4.98041 5.01656 5.1875 5.17187L5.6875 5.54687V3.35937C5.6875 3.1005 5.89738 2.89062 6.15625 2.89062C6.41513 2.89062 6.625 3.1005 6.625 3.35937V4.29687L7.125 3.92187C7.33209 3.76656 7.62591 3.8085 7.78125 4.01562C7.93659 4.22272 7.89459 4.51653 7.6875 4.67187L6.625 5.46875V8.53387C6.92816 8.76719 7.30747 8.90625 7.71875 8.90625C8.70956 8.90625 9.51563 8.10019 9.51563 7.10937C9.51563 6.8195 9.44563 6.53744 9.31156 6.28181C9.38969 6.22403 9.45966 6.16406 9.52278 6.10094C9.92122 5.7025 10.1406 5.17281 10.1406 4.60937C10.1406 4.04594 9.92122 3.51622 9.52278 3.11784C9.17575 2.77078 8.71522 2.55959 8.22516 2.51584C8.25206 2.38141 8.26563 2.24556 8.26563 2.10937C8.26563 0.94625 7.31938 0 6.15625 0C4.99313 0 4.04688 0.94625 4.04688 2.10937C4.04688 2.24553 4.06044 2.38141 4.08734 2.51584C3.59731 2.55959 3.13672 2.77078 2.78975 3.11781C2.39128 3.51622 2.17188 4.04594 2.17188 4.60937C2.17188 5.17281 2.39128 5.7025 2.78972 6.10091C2.85284 6.16406 2.92281 6.22403 3.00094 6.28181Z" fill="#03224C"/>
<path d="M11.5469 8.53394V15.5313C11.5469 15.7902 11.7567 16.0001 12.0156 16.0001C12.2745 16.0001 12.4844 15.7902 12.4844 15.5313V8.53394H11.5469Z" fill="#03224C"/>
<path d="M5.6875 8.53394H6.625V9.43756H5.6875V8.53394Z" fill="#03224C"/>
<path d="M5.6875 15.5312C5.6875 15.79 5.89737 15.9999 6.15625 15.9999C6.41513 15.9999 6.625 15.79 6.625 15.5312V15.0624H5.6875V15.5312Z" fill="#03224C"/>
<path d="M9.12402 10.8438C9.12402 10.5849 8.91415 10.3751 8.65527 10.3751H1.09277C0.833898 10.3751 0.624023 10.5849 0.624023 10.8438V12.2501H9.12402V10.8438Z" fill="#03224C"/>
<path d="M9.28125 13.1875H0.46875C0.209875 13.1875 0 13.3973 0 13.6562C0 13.9151 0.209875 14.125 0.46875 14.125H1.25V15.5312C1.25 15.7901 1.45987 16 1.71875 16C1.97763 16 2.1875 15.7901 2.1875 15.5312V14.125H7.5625V15.5312C7.5625 15.7901 7.77238 16 8.03125 16C8.29012 16 8.5 15.7901 8.5 15.5312V14.125H9.28125C9.54012 14.125 9.75 13.9151 9.75 13.6562C9.75 13.3973 9.54012 13.1875 9.28125 13.1875Z" fill="#03224C"/>
</g>
<defs>
<clipPath id="clip0">
<rect width="16" height="16" fill="white"/>
</clipPath>
</defs>
</svg>
