<svg width="16" height="16" viewBox="0 0 16 16" fill="none" xmlns="http://www.w3.org/2000/svg">
<g clip-path="url(#clip0)">
<path d="M3.78125 2.14076H1.40625C1.14716 2.14076 0.9375 2.35042 0.9375 2.60951C0.9375 2.86861 1.14716 3.07826 1.40625 3.07826H3.78125C4.04034 3.07826 4.25 2.86861 4.25 2.60951C4.25 2.35042 4.04034 2.14076 3.78125 2.14076Z" fill="#03224C"/>
<path d="M3.78125 5.89073H1.40625C1.14716 5.89073 0.9375 6.10039 0.9375 6.35948C0.9375 6.61857 1.14716 6.82823 1.40625 6.82823H3.78125C4.04034 6.82823 4.25 6.61857 4.25 6.35948C4.25 6.10039 4.04034 5.89073 3.78125 5.89073Z" fill="#03224C"/>
<path d="M2.84375 4.01555H0.46875C0.209656 4.01555 0 4.2252 0 4.4843C0 4.74339 0.209656 4.95305 0.46875 4.95305H2.84375C3.10284 4.95305 3.3125 4.74339 3.3125 4.4843C3.3125 4.2252 3.10284 4.01555 2.84375 4.01555Z" fill="#03224C"/>
<path d="M15.0625 6.35938H12.2188V4.48438C12.2188 3.66107 11.2116 3.22757 10.6181 3.82182L6.86841 7.57154C6.5022 7.93776 6.5022 8.53101 6.86841 8.89723L9.01807 11.0469L6.39966 13.6653C6.03345 14.0315 6.03345 14.6248 6.39966 14.991C6.76585 15.3572 7.35913 15.3572 7.72535 14.991L11.0066 11.7097C11.3728 11.3435 11.3728 10.7503 11.0066 10.384L8.85695 8.23438L10.3438 6.74757V7.29688C10.3438 7.8146 10.7635 8.23438 11.2813 8.23438H15.0625C15.5802 8.23438 16 7.8146 16 7.29688C16 6.77916 15.5802 6.35938 15.0625 6.35938Z" fill="#03224C"/>
<path d="M8.75441 1.59489C8.38179 1.34724 7.88741 1.39624 7.57154 1.71208L4.99341 4.29021C4.6272 4.65642 4.6272 5.24967 4.99341 5.61589C5.35963 5.98211 5.95291 5.98208 6.31913 5.61586L8.35388 3.58111L9.03932 4.07486L9.95513 3.15905C10.1083 3.00586 10.289 2.88696 10.4866 2.79411L8.75441 1.59489Z" fill="#03224C"/>
<path d="M6.20459 9.56017C5.96706 9.32264 5.8085 9.0303 5.72491 8.71417L0.773687 13.6654C0.407469 14.0316 0.407469 14.6249 0.773687 14.9911C1.13987 15.3573 1.73316 15.3573 2.09937 14.9911L6.86744 10.223L6.20459 9.56017Z" fill="#03224C"/>
<path d="M12.6885 3.54689C13.4651 3.54689 14.0947 2.91729 14.0947 2.14064C14.0947 1.36399 13.4651 0.73439 12.6885 0.73439C11.9118 0.73439 11.2822 1.36399 11.2822 2.14064C11.2822 2.91729 11.9118 3.54689 12.6885 3.54689Z" fill="#03224C"/>
</g>
<defs>
<clipPath id="clip0">
<rect width="16" height="16" fill="white"/>
</clipPath>
</defs>
</svg>
