<svg width="16" height="16" viewBox="0 0 16 16" fill="none" xmlns="http://www.w3.org/2000/svg">
<g clip-path="url(#clip0)">
<path d="M15.7933 4.74064V4.42623H16V3.48387L15.5139 3.48474V1.47916H15.7145V0.946672H15.3178V0.634011H0.683124V0.946672H0.284635V1.47828H0.485194V3.48474L0 3.48387V4.42535H0.1918V4.74064H0.496579V14.4165H0.109475V15.3658H5.81794V14.4165H5.4177V8.34543H5.5228C5.71985 7.14121 6.75505 6.22249 8.01182 6.22249C9.27122 6.22249 10.3117 7.14121 10.5105 8.34543H10.5832V14.4165H10.1891V15.3667H15.8958V14.4165H15.5052V4.74064H15.7933ZM1.21386 4.29486H0.0937107V3.65377H1.21298L1.21386 4.29486ZM2.54595 4.29486H1.42668V3.65377H2.54595V4.29486ZM3.87629 4.29486H2.75702V3.65377H3.87629V4.29486ZM5.20576 4.29486H4.08736V3.65377H5.20488L5.20576 4.29486ZM6.53873 4.29486H5.42033V3.65377H6.53873V4.29486ZM7.86994 4.29486H6.75067V3.65377H7.86907L7.86994 4.29486ZM9.20291 4.29486H8.08189V3.65377H9.20291V4.29486ZM10.5333 4.29486H9.41486V3.65377H10.5333V4.29486ZM11.8636 4.29486H10.7443V3.65377H11.8636V4.29486ZM13.1948 4.29486H12.0773V3.65377H13.1948V4.29486ZM14.5269 4.29486H13.4076V3.65377H14.5269V4.29486ZM14.7388 4.29486V3.65377H15.8581V4.29486H14.7388Z" fill="#03224C"/>
</g>
<defs>
<clipPath id="clip0">
<rect width="16" height="16" fill="white"/>
</clipPath>
</defs>
</svg>
