<svg width="30" height="30" viewBox="0 0 30 30" fill="none" xmlns="http://www.w3.org/2000/svg">
<g clip-path="url(#clip0)">
<path d="M12.5 30C9.91638 30 7.8125 27.8975 7.8125 25.3125C7.8125 24.795 8.2325 24.375 8.75 24.375C9.2675 24.375 9.6875 24.795 9.6875 25.3125C9.6875 26.8639 10.95 28.125 12.5 28.125C14.05 28.125 15.3125 26.8639 15.3125 25.3125C15.3125 24.795 15.7325 24.375 16.25 24.375C16.7675 24.375 17.1875 24.795 17.1875 25.3125C17.1875 27.8975 15.0838 30 12.5 30Z" fill="#03224C"/>
<path d="M22.8124 26.2501H2.18742C0.981216 26.2501 0 25.2689 0 24.0627C0 23.4225 0.278778 22.8164 0.764923 22.4001C0.79628 22.3726 0.829925 22.3477 0.864944 22.325C2.69989 20.7238 3.75 18.4201 3.75 15.9875V12.5C3.75 8.42893 6.50871 4.9339 10.4588 4.00006C10.9637 3.88379 11.4688 4.19255 11.5876 4.69769C11.7062 5.20146 11.3937 5.70638 10.8913 5.82517C7.78999 6.55759 5.625 9.30257 5.625 12.5V15.9875C5.625 19.0076 4.30115 21.8652 1.99631 23.8263C1.97754 23.8414 1.96129 23.8551 1.94115 23.8688C1.9075 23.9114 1.875 23.9764 1.875 24.0627C1.875 24.2325 2.01759 24.3751 2.18742 24.3751H22.8124C22.9825 24.3751 23.1251 24.2325 23.1251 24.0627C23.1251 23.975 23.0926 23.9114 23.0576 23.8688C23.0388 23.8551 23.0212 23.8414 23.0038 23.8263C21.8839 22.8714 20.9999 21.719 20.3776 20.4001C20.1551 19.9325 20.3549 19.3738 20.8237 19.1514C21.2963 18.9289 21.85 19.1314 22.0713 19.5988C22.5661 20.6439 23.2599 21.5615 24.1374 22.3289C24.1699 22.3514 24.2038 22.3752 24.2324 22.4001C24.7213 22.8164 25.0001 23.4225 25.0001 24.0627C25.0001 25.2689 24.0189 26.2501 22.8124 26.2501V26.2501Z" fill="#03224C"/>
<path d="M2.18765 26H22.8126C24.0188 26 25 25.0309 25 23.8395C25 23.2072 24.7212 22.6086 24.2351 22.1974C24.2037 22.1703 24.1701 22.1457 24.1351 22.1233C22.3001 20.5418 21.25 18.2665 21.25 15.8639V12.4194C21.25 8.39845 18.4913 4.9465 14.5413 4.02417C14.0364 3.90933 13.5312 4.21429 13.4124 4.71321C13.2939 5.21077 13.6063 5.70946 14.1087 5.82678C17.21 6.55018 19.375 9.26132 19.375 12.4194V15.8639C19.375 18.8468 20.6989 21.6691 23.0037 23.606C23.0225 23.6209 23.0387 23.6345 23.0589 23.6481C23.0925 23.6901 23.125 23.7543 23.125 23.8395C23.125 24.0073 22.9824 24.1481 22.8126 24.1481H2.18765C2.01759 24.1481 1.87499 24.0073 1.87499 23.8395C1.87499 23.753 1.9075 23.6901 1.94251 23.6481C1.96128 23.6345 1.97891 23.6209 1.9963 23.606C3.11622 22.6629 4.00016 21.5247 4.62248 20.2221C4.84496 19.7603 4.64514 19.2085 4.17639 18.9887C3.70375 18.769 3.15009 18.9691 2.92876 19.4307C2.43392 20.4629 1.74018 21.3691 0.862653 22.1271C0.830152 22.1493 0.796277 22.1728 0.767667 22.1974C0.278777 22.6086 -2.97791e-07 23.2072 -2.97791e-07 23.8395C-2.97791e-07 25.0309 0.981213 26 2.18765 26V26Z" fill="#03224C"/>
</g>
<defs>
<clipPath id="clip0">
<rect width="30" height="30" fill="white"/>
</clipPath>
</defs>
</svg>
