<svg xmlns="http://www.w3.org/2000/svg" width="32" height="32" fill="none" viewBox="0 0 32 32">
    <g clip-path="url(#clip0)">
        <path fill="#EB5757" d="M14.681 5.854c1.317-.172 2.655-.086 3.94.252.01.004.016.01.026.013.01.002.025 0 .037.005 1.273.345 2.466.934 3.514 1.734.052.04.111.069.175.085.063.017.13.021.195.013.065-.01.127-.03.184-.064.057-.033.107-.077.147-.129.04-.052.069-.112.085-.175.017-.064.021-.13.013-.195-.01-.065-.03-.128-.064-.184-.033-.057-.076-.107-.129-.147-1.03-.781-2.186-1.378-3.42-1.763l.456-1.7c.334-.006.66-.106.941-.287.282-.182.506-.439.65-.74.143-.303.2-.64.162-.972-.037-.333-.166-.649-.373-.912s-.483-.463-.797-.578c-.314-.115-.654-.14-.982-.073-.328.068-.63.225-.874.455-.243.23-.417.523-.503.847-.1.376-.075.775.071 1.135s.406.664.74.865l-.457 1.705c-1.27-.282-2.578-.342-3.867-.178-.067.007-.132.026-.19.058-.06.032-.111.076-.153.128-.042.052-.073.113-.09.177-.019.065-.024.132-.015.199.008.066.03.13.064.188.034.058.079.108.132.149.054.04.115.069.18.085.066.016.133.018.2.008l.002-.004zm4.35-4.256c.055-.204.19-.378.373-.484.183-.106.401-.135.606-.08.193.064.354.2.45.38.097.18.122.389.069.586-.053.196-.179.366-.352.473-.173.107-.381.144-.58.103-.205-.055-.38-.189-.486-.372-.105-.183-.134-.401-.08-.606zM17.319 26.156c-1.319.173-2.658.087-3.944-.251-.01 0-.017-.01-.027-.013h-.018c-1.263-.34-2.449-.92-3.492-1.71-.053-.039-.113-.067-.176-.084-.064-.016-.13-.02-.195-.01s-.128.031-.184.064c-.057.034-.106.078-.145.13-.04.053-.068.113-.085.177-.016.063-.02.13-.01.195.019.13.089.25.195.329 1.017.767 2.158 1.356 3.374 1.74l-.455 1.696c-.39.003-.766.134-1.074.372-.308.239-.528.572-.628.948-.122.46-.057.95.181 1.363.239.412.631.713 1.091.837.417.11.86.068 1.248-.121.388-.19.694-.512.864-.91.17-.396.19-.84.058-1.252-.132-.41-.408-.76-.777-.984l.456-1.7c.788.174 1.593.264 2.4.266.49 0 .98-.032 1.467-.095.067-.006.131-.026.19-.058s.11-.076.152-.128c.042-.052.072-.113.09-.177.018-.064.023-.132.015-.198-.01-.067-.03-.13-.065-.188-.033-.058-.078-.108-.132-.148-.053-.04-.115-.07-.18-.086-.064-.016-.132-.018-.198-.008l.004.004zm-4.355 4.257c-.055.204-.189.378-.372.484-.184.106-.402.135-.606.08-.205-.055-.379-.189-.484-.372-.106-.183-.135-.4-.081-.605.064-.195.2-.358.38-.455.18-.098.39-.123.588-.07.197.053.367.18.475.354.107.175.143.384.1.584zM5.602 7.406c.302-.001.599-.079.862-.226l1.252 1.252c-.878.95-1.584 2.047-2.086 3.24-.025.06-.038.126-.039.191 0 .066.012.13.037.192.025.06.061.116.108.162.046.047.1.084.161.11.06.025.126.038.192.038.099 0 .195-.03.277-.084.083-.055.147-.132.185-.223 1.047-2.494 3.035-4.474 5.533-5.511.061-.025.116-.062.163-.108.046-.047.083-.102.108-.162.026-.06.039-.126.039-.192 0-.065-.013-.13-.038-.191-.025-.06-.062-.116-.108-.162-.047-.047-.102-.084-.162-.11-.06-.024-.126-.037-.192-.037-.065 0-.13.012-.191.037-1.21.504-2.32 1.217-3.282 2.106l-1.25-1.256c.192-.339.266-.731.212-1.117-.054-.385-.233-.742-.51-1.016-.208-.21-.466-.367-.75-.454-.283-.087-.584-.103-.875-.046-.29.057-.563.186-.793.373-.23.188-.41.43-.523.704-.114.274-.158.572-.128.867.029.295.13.579.296.825.165.247.389.448.65.587.263.14.555.212.852.21zm-.565-2.361c.072-.082.16-.148.26-.194.098-.046.206-.072.315-.075.109-.003.217.016.319.056.101.04.193.1.27.178.077.077.138.17.178.27.04.102.06.21.056.32-.003.109-.029.216-.075.315s-.112.187-.194.26c-.152.145-.354.226-.564.226-.21 0-.413-.081-.565-.227-.15-.15-.233-.353-.233-.564 0-.212.084-.415.233-.565zM25.535 24.836L24.28 23.58c.873-.944 1.575-2.032 2.077-3.215.026-.06.039-.126.04-.191 0-.066-.013-.131-.038-.192-.025-.06-.061-.116-.108-.163-.046-.046-.1-.083-.161-.109-.06-.025-.126-.038-.191-.039-.066 0-.131.012-.192.037-.06.025-.116.062-.163.108-.046.046-.083.101-.109.162-1.043 2.466-3.008 4.427-5.476 5.466-.06.026-.115.063-.162.11-.046.046-.082.101-.107.162-.025.06-.038.126-.038.191 0 .066.014.131.04.192.025.06.062.115.108.162.047.046.102.082.163.107.06.025.126.038.192.038.065 0 .13-.014.19-.04 1.189-.501 2.28-1.206 3.227-2.081l1.252 1.254c-.207.378-.27.819-.18 1.24.092.422.332.797.677 1.056.345.26.772.386 1.203.356.43-.03.835-.214 1.141-.519.337-.337.526-.795.526-1.272 0-.476-.189-.934-.526-1.271-.28-.266-.635-.436-1.017-.489-.382-.052-.77.016-1.111.196zm1.423 2.133c-.112.111-.254.187-.409.217-.154.03-.315.015-.46-.046-.146-.06-.27-.162-.358-.293-.088-.13-.136-.285-.136-.442 0-.158.048-.312.136-.443.087-.13.212-.233.358-.293.145-.06.306-.076.46-.046.155.03.297.106.41.217.148.15.23.352.23.563 0 .211-.082.413-.23.563v.003zM5.292 19.392c.383 1.226.976 2.376 1.75 3.4.04.052.09.096.146.13.057.032.12.054.185.063.065.009.131.005.195-.012.063-.017.123-.046.175-.085.052-.04.096-.09.13-.147.032-.056.054-.119.063-.184.009-.065.005-.131-.012-.195-.017-.063-.046-.123-.086-.175-.796-1.046-1.382-2.237-1.725-3.506v-.027c0-.008-.007-.013-.01-.021-.336-1.27-.425-2.591-.263-3.894.017-.132-.02-.264-.102-.369-.081-.105-.201-.172-.333-.189-.131-.016-.264.02-.369.102-.104.082-.172.202-.188.333-.155 1.271-.092 2.56.186 3.809l-1.703.458c-.201-.333-.505-.592-.865-.738-.36-.146-.759-.172-1.135-.073-.343.093-.651.285-.885.553-.235.267-.384.598-.43.95-.047.353.012.711.17 1.03.156.319.404.584.712.762.272.159.58.242.896.242.157 0 .314-.02.466-.062.377-.098.711-.318.95-.625.24-.307.372-.684.376-1.074l1.706-.456zm-2.8.818c-.093.16-.238.284-.411.349-.174.065-.364.068-.54.009-.175-.06-.324-.178-.422-.335-.097-.158-.137-.344-.113-.527.024-.184.111-.353.246-.48.135-.126.31-.202.495-.214.184-.012.368.04.518.148.15.108.259.265.307.444.027.101.033.207.019.311-.014.104-.05.205-.103.295h.004zM31.936 11.735c-.124-.46-.425-.852-.837-1.09-.412-.239-.902-.304-1.363-.182-.377.099-.71.319-.95.626-.239.307-.371.684-.375 1.073l-1.705.457c-.38-1.214-.964-2.355-1.729-3.373-.039-.052-.088-.096-.145-.13-.056-.033-.119-.055-.184-.065-.065-.009-.131-.005-.195.011-.063.016-.123.045-.175.084-.053.04-.097.09-.13.146-.034.056-.056.119-.066.184-.009.065-.005.13.011.194.017.064.045.124.084.176.787 1.04 1.366 2.223 1.707 3.482v.026c.002.006.004.012.008.018.33 1.25.422 2.553.27 3.838-.016.132.021.264.103.368.082.105.202.172.334.188l.06.003c.122 0 .24-.045.331-.127.091-.08.15-.193.164-.314.145-1.25.08-2.516-.193-3.745l1.703-.454c.223.372.573.65.985.784.413.133.86.114 1.258-.056.399-.17.723-.479.912-.868.189-.39.23-.836.117-1.254zm-1.533 1.237c-.205.055-.423.026-.606-.08-.184-.105-.318-.28-.373-.484-.054-.205-.025-.423.08-.606.106-.183.28-.317.485-.372.2-.043.41-.007.584.1.174.108.301.278.354.475.053.198.028.409-.07.589-.097.18-.26.316-.455.379zM22.66 8.635c-.046.046-.082.102-.108.162-.025.06-.038.126-.038.192 0 .065.013.13.038.191.026.06.063.116.109.162.046.047.101.084.162.109.06.025.126.038.192.038.065 0 .13-.013.191-.038.06-.025.116-.062.162-.109l1.763-1.762c.317.14.672.163 1.005.066.332-.096.62-.307.812-.595.193-.288.277-.635.24-.979-.039-.344-.197-.664-.447-.903s-.577-.382-.923-.404c-.345-.022-.687.079-.966.284-.279.205-.476.503-.557.84-.082.336-.042.69.112 1l-1.746 1.746zm2.724-2.728c.065-.065.148-.11.238-.128.091-.018.185-.008.27.027.085.035.158.095.21.172.05.076.078.167.078.259s-.027.183-.078.26c-.052.076-.125.136-.21.171-.085.035-.179.045-.27.027-.09-.018-.173-.063-.238-.128-.044-.043-.078-.095-.102-.151-.023-.057-.035-.118-.035-.179s.012-.122.035-.179c.024-.056.058-.108.102-.151zM9.344 23.366c.047-.046.084-.102.109-.162.025-.06.038-.126.038-.192 0-.065-.013-.13-.038-.191-.025-.06-.062-.116-.109-.162-.046-.047-.101-.084-.162-.109-.06-.025-.126-.038-.191-.038-.066 0-.131.013-.192.038-.06.025-.116.062-.162.109L6.874 24.42c-.27-.117-.568-.15-.857-.096-.288.054-.554.194-.763.402-.192.19-.327.43-.392.692-.064.263-.054.538.028.796.082.257.234.487.439.663.204.177.454.294.72.337.267.044.54.014.791-.088.25-.102.468-.272.628-.49.16-.217.257-.475.28-.744.023-.27-.029-.54-.15-.782l1.746-1.745zm-2.722 2.728c-.066.065-.149.11-.24.128-.09.018-.184.008-.269-.027-.085-.035-.158-.095-.21-.172-.05-.076-.078-.167-.078-.259s.027-.183.079-.26c.051-.076.124-.136.21-.171.084-.035.178-.045.269-.027.09.018.173.063.239.128.043.043.077.095.1.151.024.057.036.118.036.179s-.012.122-.035.179c-.024.056-.058.108-.101.151zM12.314 4.168l.639 2.384c.028.106.091.2.178.267.088.067.195.103.305.103.043 0 .087-.005.129-.016.128-.035.237-.119.303-.234.067-.114.085-.25.05-.379l-.644-2.408c.236-.175.414-.416.511-.694.098-.277.11-.577.034-.861-.07-.262-.21-.499-.405-.685-.195-.187-.438-.316-.702-.373-.264-.058-.54-.04-.794.048-.255.09-.481.247-.652.456-.171.21-.281.462-.318.73-.037.267.001.54.11.788.108.247.283.46.505.614.221.155.481.245.751.261zm-.033-1.91c.04-.01.08-.016.12-.016.12 0 .233.045.32.126.086.081.139.192.147.31.008.118-.03.235-.105.327-.075.091-.182.151-.3.167-.117.015-.236-.014-.332-.083-.097-.07-.163-.172-.187-.289-.023-.116 0-.236.062-.337.062-.1.16-.174.275-.205zM20.336 28.022c-.197-.112-.418-.176-.645-.188l-.639-2.384c-.015-.065-.043-.127-.082-.182-.04-.054-.09-.1-.147-.135-.058-.035-.122-.057-.189-.067-.066-.01-.134-.005-.2.012-.064.018-.125.048-.178.09-.053.04-.097.093-.13.151-.032.06-.053.124-.06.19-.007.068 0 .136.02.2l.644 2.406c-.237.175-.415.417-.512.694-.098.278-.109.579-.032.863.083.311.266.586.521.783.256.196.569.303.89.304.13 0 .258-.017.383-.05.28-.075.532-.231.723-.45.192-.217.314-.487.352-.775.038-.288-.01-.58-.139-.84-.128-.26-.331-.477-.582-.622h.002zm-.33 1.504c-.038.067-.092.122-.157.163-.065.04-.14.064-.216.069-.076.005-.153-.01-.223-.04-.07-.033-.13-.081-.177-.142-.047-.06-.078-.132-.09-.208-.013-.076-.006-.153.018-.226.025-.073.067-.138.123-.19.056-.053.124-.09.198-.11.06-.016.122-.02.182-.012.061.009.12.029.173.06.053.03.1.072.136.12.037.05.064.105.08.165.031.118.015.245-.046.351zM2.312 13.89c.297.078.61.062.898-.048.287-.11.532-.306.702-.562l2.38.638c.043.011.088.017.133.016.121 0 .239-.044.33-.124.092-.08.15-.19.166-.31.016-.121-.012-.243-.08-.344-.068-.101-.17-.174-.287-.205l-2.408-.645c-.033-.292-.153-.567-.345-.79-.192-.224-.446-.384-.73-.46-.376-.101-.776-.048-1.113.146-.337.195-.583.515-.684.89-.1.377-.048.777.147 1.114.194.337.515.583.89.684zm-.072-1.538c.024-.089.074-.169.143-.23.069-.061.155-.1.246-.113.091-.012.184.003.267.044.083.04.152.104.198.184.047.08.069.171.063.263-.005.092-.038.18-.094.254-.056.074-.132.129-.219.159s-.181.034-.27.01c-.06-.015-.116-.042-.165-.08-.049-.036-.09-.083-.12-.136-.032-.053-.052-.112-.06-.173-.008-.06-.004-.122.011-.182zM29.693 18.112c-.297-.082-.613-.067-.9.043-.288.11-.534.309-.7.568l-2.385-.639c-.063-.017-.13-.021-.195-.012-.065.008-.128.03-.184.062-.057.033-.107.077-.147.129-.04.052-.07.111-.086.175-.017.063-.022.13-.013.195s.03.127.063.184c.033.057.076.107.128.147.052.04.112.07.175.086l2.408.645c.034.292.154.568.345.79.191.223.445.384.729.46.374.096.77.04 1.104-.154.333-.195.576-.514.676-.887.1-.373.049-.77-.143-1.106-.191-.335-.507-.582-.879-.686h.004zm.071 1.538c-.024.089-.074.169-.143.23-.07.06-.155.1-.247.112-.091.012-.184-.004-.267-.044-.083-.041-.152-.106-.198-.186-.046-.08-.067-.171-.061-.264.006-.092.039-.18.095-.253.056-.073.133-.128.22-.158.088-.03.182-.033.271-.009.12.032.221.11.283.218.062.107.079.234.047.354zM7.342 16.543c0 .411.122.813.35 1.155.23.343.554.61.934.767.38.157.799.198 1.202.118.404-.08.774-.279 1.065-.57.291-.29.49-.661.57-1.065.08-.403.038-.822-.12-1.202-.157-.38-.424-.704-.766-.933-.342-.228-.744-.35-1.155-.35-.552 0-1.08.22-1.47.61-.39.39-.61.918-.61 1.47zm3.16 0c0 .213-.064.422-.182.6-.12.177-.288.316-.485.398-.197.081-.415.103-.624.061-.21-.042-.402-.144-.553-.296-.151-.15-.254-.343-.296-.552-.041-.21-.02-.427.062-.624.082-.198.22-.366.398-.485.177-.119.386-.182.6-.182.286 0 .56.114.763.317.202.202.316.476.317.763zM15.998 25.267c.638 0 1.262-.19 1.793-.544.53-.355.944-.86 1.189-1.449.244-.59.308-1.239.183-1.865-.124-.626-.431-1.201-.883-1.653-.451-.451-1.027-.759-1.653-.883-.626-.125-1.275-.06-1.865.183-.59.245-1.094.659-1.449 1.19-.354.53-.543 1.154-.543 1.793 0 .856.34 1.676.946 2.281.605.605 1.426.946 2.282.947zm0-5.456c.44 0 .87.13 1.237.375.367.245.652.593.82 1 .17.407.214.855.128 1.287-.086.433-.299.83-.61 1.141-.312.312-.709.524-1.14.61-.433.086-.881.042-1.288-.127-.407-.169-.755-.454-1-.82-.245-.367-.375-.798-.375-1.238 0-.59.235-1.157.653-1.575.418-.418.984-.652 1.575-.653zM15.118 6.994c-.464 0-.919.137-1.305.395-.387.257-.688.624-.867 1.053-.178.43-.224.902-.134 1.357.09.456.314.875.642 1.204.328.328.747.552 1.202.643.456.09.928.045 1.358-.133.43-.178.796-.479 1.054-.865s.396-.84.396-1.305c0-.622-.247-1.22-.687-1.66-.44-.44-1.036-.688-1.659-.689zm0 3.697c-.267 0-.528-.078-.75-.226-.222-.148-.395-.359-.498-.605-.102-.246-.13-.518-.077-.78.051-.261.18-.502.368-.69.189-.19.43-.318.69-.37.263-.053.534-.026.78.076.247.102.458.275.606.497.148.222.227.483.227.75 0 .357-.142.7-.394.952s-.595.395-.952.396zM22.16 10.506c-.386 0-.764.115-1.086.33-.322.214-.573.52-.72.877-.149.358-.188.751-.112 1.13.075.38.261.729.535 1.002.273.274.622.46 1.001.536.38.075.773.037 1.13-.111.358-.149.663-.4.878-.72.215-.323.33-.7.33-1.088 0-.518-.206-1.015-.573-1.382-.366-.367-.864-.573-1.382-.574zm0 2.912c-.188 0-.373-.056-.53-.161-.158-.105-.28-.255-.353-.43-.072-.174-.091-.366-.054-.552.036-.185.128-.356.261-.49.134-.133.304-.224.49-.261.185-.037.378-.018.552.055.175.072.324.195.43.352.104.157.16.342.16.531 0 .254-.1.496-.28.675-.18.18-.422.28-.675.28zM15.154 14.963c0 .303.09.6.258.852s.408.448.688.564c.28.116.589.147.886.088.297-.06.57-.206.785-.42.214-.215.36-.488.42-.785.059-.298.029-.606-.087-.886-.117-.28-.313-.52-.565-.688-.252-.169-.549-.259-.852-.259-.407 0-.797.162-1.084.45-.288.287-.45.677-.45 1.084zm2.066 0c0 .105-.031.208-.09.296-.058.088-.142.156-.239.197-.097.04-.205.05-.308.03-.104-.02-.199-.072-.273-.146-.075-.075-.126-.17-.146-.273-.02-.104-.01-.21.03-.308s.109-.181.197-.24c.087-.058.19-.09.296-.09.07 0 .14.014.204.04.065.027.124.067.174.116.05.05.089.109.116.173.027.065.04.135.04.205zM22.16 18.81c-.302 0-.599.09-.851.26-.252.168-.449.407-.565.687-.116.28-.146.589-.087.886.06.298.205.57.42.785.214.215.487.36.785.42.297.06.605.029.886-.087.28-.116.52-.313.688-.565.168-.252.258-.549.258-.852 0-.407-.162-.797-.449-1.084-.288-.288-.678-.45-1.084-.45zm0 2.067c-.105 0-.208-.03-.296-.09-.087-.058-.156-.141-.196-.239-.04-.097-.05-.204-.03-.308.02-.103.071-.198.146-.273.074-.075.17-.125.273-.146.103-.02.21-.01.308.03.097.04.18.11.24.197.058.088.09.19.09.296 0 .07-.014.14-.041.205-.027.064-.066.123-.116.173-.05.05-.108.09-.173.116-.065.027-.134.04-.204.04z"/>
    </g>
    <defs>
        <clipPath id="clip0">
            <path fill="#fff" d="M0 0H31.999V31.999H0z"/>
        </clipPath>
    </defs>
</svg>
