<svg width="432" height="220" viewBox="0 0 432 220" fill="none" xmlns="http://www.w3.org/2000/svg">
  <path fill-rule="evenodd" clip-rule="evenodd" d="M112.273 10.0163V0.695312H161.035V54.2703H112.27C103.241 43.7377 92.707 40.7283 82.173 40.7283C62.307 40.7283 47.558 54.8753 47.558 75.9453C47.558 91.8983 62.307 108.152 82.173 108.152C92.707 108.152 103.241 104.842 112.27 94.6102H161.035V147.272C161.097 193.222 128.89 219.71 83.1376 219.71C38.5896 219.71 6.38261 194.426 3.97461 156.5L3.77891 153.7H51.9746C51.9746 153.7 52.4399 156.528 52.4421 156.542C54.5637 170.063 64.7952 178.473 82.8366 178.473C99.6926 178.473 112.335 168.239 112.273 148.175V136.747C101.437 143.068 88.494 146.981 72.541 146.981C32.8089 146.981 0 115.376 0 75.9453C0 31.3973 32.8089 0.695312 72.541 0.695312C88.494 0.695312 101.437 3.39431 112.273 10.0163Z" fill="#141414"/>
  <path fill-rule="evenodd" clip-rule="evenodd" d="M188.131 54.2723C199.135 54.437 208.002 63.414 207.993 74.4576C207.983 85.5903 198.955 94.61 187.823 94.61H187.223C195.039 128.858 224.52 152.616 263.504 152.616C308.9 152.616 341.241 119.978 341.241 76.0662C341.241 32.7474 308.9 1 263.504 1C225.896 1 197.132 22.5075 188.131 54.2723ZM263.504 111.077C243.624 111.077 230.866 95.6487 230.866 76.3629C230.866 57.6705 243.624 42.5386 263.504 42.5386C282.789 42.5386 295.844 57.6705 295.844 76.3629C295.844 95.6487 282.789 111.077 263.504 111.077Z" fill="#141414"/>
  <path d="M397.913 152.701C416.045 152.701 431.275 138.37 431.275 119.513C431.275 101.033 416.045 86.7012 397.913 86.7012C380.143 86.7012 365.275 101.033 365.275 119.513C365.275 138.37 380.143 152.701 397.913 152.701Z" fill="#FE3945"/>
</svg>
