<svg xmlns="http://www.w3.org/2000/svg" width="120" height="32" fill="none" viewBox="0 0 120 32">
    <g fill="#FF5A4F" clip-path="url(#clip0)">
        <path d="M33.612 15.162v4.67c-.008.482-.205.941-.55 1.277-.343.336-.806.52-1.285.514-1.022 0-1.86-.815-1.86-1.79v-4.67c0-.185-.039-.368-.11-.538-.073-.17-.178-.323-.31-.452s-.288-.23-.459-.297c-.17-.068-.353-.101-.537-.097-.185-.005-.369.028-.542.095-.172.067-.33.168-.464.296-.134.129-.24.282-.316.453-.074.17-.115.353-.119.54v4.67c-.02.476-.221.927-.563 1.257-.342.33-.798.515-1.273.515-.474 0-.93-.185-1.272-.515-.343-.33-.544-.781-.564-1.258V12.01c.001-.229.047-.456.136-.667.089-.211.218-.402.381-.563.163-.16.356-.287.568-.371.212-.085.438-.127.666-.123.403.006.794.141 1.115.387.706-.33 1.476-.501 2.255-.5 2.826 0 5.103 2.245 5.103 4.99zM46.646 11.988v7.94c-.01.457-.198.892-.524 1.21-.326.318-.764.495-1.218.491-.487-.005-.953-.2-1.301-.543-.896.473-1.893.72-2.905.722-3.276 0-5.948-2.608-5.948-5.803 0-3.194 2.672-5.803 5.948-5.803.996.009 1.977.257 2.858.726.16-.204.366-.367.6-.477.234-.11.49-.165.748-.159.453-.003.89.173 1.216.49.326.317.514.75.526 1.206zm-3.693 4.017c.014-.45-.107-.896-.346-1.278-.24-.382-.587-.683-.998-.865-.41-.182-.866-.237-1.308-.158-.442.08-.85.29-1.172.605-.322.314-.544.718-.636 1.16-.093.441-.053.9.116 1.319.168.418.457.776.83 1.029.371.252.81.387 1.259.387.292.007.583-.046.854-.153.272-.107.52-.268.73-.473.21-.204.377-.448.492-.718.115-.27.176-.56.179-.855zM58.243 15.162v4.67c-.008.482-.206.941-.55 1.277-.344.335-.806.52-1.286.514-1.023 0-1.858-.815-1.858-1.79v-4.67c-.002-.186-.04-.368-.113-.538-.072-.17-.178-.323-.31-.452-.131-.129-.287-.23-.458-.298-.171-.067-.354-.1-.538-.096-.373-.009-.735.132-1.005.392-.27.259-.427.616-.436.991v4.67c-.014.48-.213.936-.556 1.271-.342.335-.801.522-1.279.522-.478 0-.937-.187-1.28-.522-.342-.335-.541-.79-.555-1.27V12.01c0-.228.046-.454.134-.665.088-.21.217-.402.379-.562.162-.16.354-.287.565-.372.21-.085.436-.128.664-.125.403.006.794.141 1.116.387.706-.33 1.475-.501 2.253-.5 2.835 0 5.113 2.245 5.113 4.99zM69.83 15.162v4.67c-.009.482-.207.941-.55 1.277-.345.336-.807.521-1.287.514-1.022 0-1.858-.815-1.858-1.79v-4.67c-.002-.185-.04-.368-.112-.538-.072-.17-.178-.323-.31-.452-.131-.129-.287-.23-.458-.297-.171-.068-.353-.101-.537-.097-.374-.009-.735.132-1.006.392-.27.259-.427.616-.435.991v4.67c-.014.48-.213.936-.556 1.271-.343.335-.802.522-1.28.522-.477 0-.936-.187-1.279-.522-.342-.335-.542-.79-.556-1.27V12.01c.001-.228.047-.454.135-.665.088-.21.217-.402.379-.562.162-.16.354-.287.564-.372.211-.085.437-.128.664-.125.404.006.795.141 1.116.387.706-.331 1.475-.502 2.254-.5 2.835 0 5.111 2.245 5.111 4.99z"/>
        <path d="M80.44 12.736l-3.577 8.57c-.325.794-.652 1.565-1.092 2.222-.954 1.406-2.72 2.403-4.671 2.403-.697 0-1.72-.458-1.696-1.61.004-.21.05-.417.134-.61.084-.192.205-.366.356-.511.151-.145.33-.26.524-.336.195-.076.403-.112.612-.107.482.023.96-.101 1.37-.356.41-.255.735-.629.93-1.072l.348-.794-3.298-7.8c-.174-.448-.165-.948.027-1.39.191-.442.55-.79.995-.967.45-.186.954-.188 1.405-.006.451.182.814.534 1.011.98l1.604 3.818 1.58-3.818c.2-.45.568-.803 1.023-.985.455-.182.963-.178 1.416.011.223.085.427.213.599.38.172.165.308.364.402.584.093.22.141.458.14.697 0 .24-.048.477-.142.697zM93.388 16.005c0 3.197-2.673 5.803-5.95 5.803-1.012-.002-2.008-.251-2.903-.725-.165.174-.364.311-.584.405-.22.093-.456.14-.695.139-.23.007-.458-.032-.672-.115-.214-.084-.41-.21-.574-.37-.165-.16-.296-.353-.385-.566-.09-.213-.135-.441-.135-.672V8.428c0-.907.791-1.68 1.72-1.701h.186c.235-.002.468.043.686.132.218.09.416.222.582.39.166.166.298.365.388.584.089.219.134.453.133.69v2.104c.718-.282 1.482-.426 2.253-.425 3.277 0 5.95 2.597 5.95 5.803zm-3.695 0c-.015-.59-.26-1.152-.68-1.565-.422-.412-.986-.643-1.574-.643-.588 0-1.153.23-1.574.643-.421.413-.665.974-.68 1.565 0 1.202 1.023 2.2 2.253 2.2 1.23 0 2.255-1.002 2.255-2.2zM106.403 11.988v7.94c-.01.457-.199.892-.525 1.21-.326.319-.764.495-1.219.491-.487-.006-.953-.2-1.301-.543-.895.472-1.89.72-2.9.722-3.277 0-5.95-2.608-5.95-5.803 0-3.194 2.67-5.803 5.95-5.803.996.009 1.976.258 2.857.726.161-.204.366-.367.6-.477.233-.11.489-.165.747-.159.453-.002.89.174 1.215.49.325.317.514.75.526 1.206zm-3.695 4.017c.015-.451-.105-.897-.344-1.28-.239-.382-.586-.684-.997-.867-.411-.183-.867-.238-1.309-.158-.442.079-.851.29-1.174.604-.322.314-.544.719-.636 1.16-.093.443-.052.903.117 1.321.169.419.459.777.831 1.03.373.251.812.385 1.262.385.291.005.581-.047.852-.154.271-.108.518-.268.727-.472.209-.204.376-.448.492-.717.115-.27.176-.559.179-.852zM119.385 11.942v8.645c0 3.174-2.673 5.758-5.923 5.758-.866.004-1.722-.181-2.51-.543-.207-.093-.393-.226-.548-.392-.156-.166-.277-.36-.357-.573-.08-.213-.117-.44-.109-.668.008-.227.06-.451.155-.658.207-.422.569-.747 1.01-.904.441-.158.926-.136 1.351.06.295.136.615.212.94.22.325.01.649-.049.951-.17.302-.12.576-.302.807-.533.23-.23.411-.506.532-.81-.716.283-1.478.43-2.247.434-3.3-.023-5.95-2.608-5.95-5.803 0-3.194 2.65-5.803 5.95-5.803.962-.001 1.911.232 2.765.68.168-.207.381-.374.623-.488.241-.113.504-.171.771-.169.229-.006.458.034.672.117.215.083.41.208.577.368.166.16.299.35.392.562.092.211.143.439.148.67zm-3.742 4.063c0-.591-.234-1.159-.65-1.577-.416-.419-.98-.654-1.569-.654-.588 0-1.152.235-1.568.654-.416.418-.65.986-.65 1.577 0 1.202.999 2.154 2.231 2.154.285.004.569-.048.834-.154s.508-.263.712-.463c.205-.2.369-.439.482-.703.113-.263.174-.547.178-.834zM20.78 13.562c-.197-3.068-1.653-6.206-4.084-8.246-.968.644-1.795 1.48-2.43 2.458-.58.937-1.006 1.964-1.257 3.04.612.701.953 1.602.96 2.536v.041c0 2.081-1.587 3.776-3.56 3.8-1.972.022-3.617-1.66-3.644-3.759-.027-2.098 1.578-3.818 3.566-3.84.365-.008.729.044 1.078.152.308-1.078.768-2.107 1.366-3.054.62-.955 1.389-1.802 2.278-2.509-1.423-.77-3.016-1.167-4.631-1.156C4.302 3.025.346 8.393.017 13.562c-.15 2.714.631 5.398 2.212 7.603l7.421 10.45c.082.119.191.216.318.283.127.067.269.102.413.102.143 0 .285-.035.412-.102.127-.067.236-.164.318-.283l7.46-10.453c1.579-2.205 2.358-4.887 2.208-7.6zM12.2 21.46H8.643c-.243-.014-.472-.12-.639-.299-.167-.178-.26-.413-.26-.658 0-.245.093-.481.26-.66.167-.177.396-.284.64-.298H12.2c.243.014.472.12.64.299.166.178.26.414.26.659 0 .245-.094.48-.26.658-.168.178-.397.285-.64.3z"/>
        <path d="M10.105 14.14c-.31-.008-.607-.126-.838-.335-.23-.21-.378-.495-.416-.805-.38-2.617.597-5.852 2.621-8.643 1.8-2.503 4.027-4.08 6.104-4.348.17-.017.341 0 .504.05.163.05.314.132.446.24.13.11.239.245.318.396.079.152.127.318.142.489.046.345-.044.695-.252.973-.208.279-.517.464-.86.515-1.356.17-3.037 1.437-4.388 3.31-1.584 2.194-2.398 4.734-2.126 6.613.056.344-.023.697-.222.982-.198.286-.5.482-.841.546-.064.01-.128.016-.192.016z"/>
    </g>
    <defs>
        <clipPath id="clip0">
            <path fill="#fff" d="M0 0H119.385V32H0z"/>
        </clipPath>
    </defs>
</svg>
