<svg xmlns="http://www.w3.org/2000/svg" width="31" height="23" fill="none" viewBox="0 0 31 23">
    <path fill="#03224C" fill-rule="evenodd" d="M2.292 12.446c-.527.67-.883 1.57-.758 2.539.112.865.391 1.605.678 2.136.143.266.282.468.392.6.038.045.069.078.092.1 2.873.74 7.112 1.68 10.726 2.433 1.83.38 3.496.712 4.736.945.62.116 1.13.207 1.5.266.185.03.329.051.431.064l.074.008c.053-.017.201-.072.427-.213.265-.166.574-.412.866-.735.581-.643 1.066-1.558 1.033-2.724-.05-1.794-1.367-2.882-2.055-3.222.192.259.191.62-.024.88-.065.08-.186.29-.317.638-.124.332-.238.737-.314 1.164-.141.79-.129 1.509.046 1.973.03-.042.066-.093.103-.155.34-.564.554-1.447.424-2.088-.08-.396.186-.78.595-.858.409-.078.805.18.886.576.216 1.064-.12 2.307-.602 3.107-.23.378-.588.823-1.094.986-.29.095-.62.091-.933-.065-.29-.145-.488-.386-.625-.63-.503-.899-.46-2.126-.287-3.095.091-.509.227-.997.382-1.412.15-.397.337-.786.557-1.052.066-.08.145-.143.232-.188-2.58-.57-5.963-1.257-8.96-1.826-1.712-.326-3.293-.613-4.523-.817-.616-.103-1.14-.184-1.546-.24-.424-.058-.674-.08-.772-.08-.07 0-.263.04-.546.22-.268.171-.56.431-.824.765zm.445 5.412l-.006-.004.006.004zm-.45-7.396c.408-.26.892-.462 1.375-.462.22 0 .574.04.983.095.428.059.968.143 1.59.247 1.247.207 2.84.496 4.559.823 3.435.653 7.383 1.46 10.068 2.075.05.011.099.027.145.049.987.446 2.919 1.949 2.99 4.537.046 1.609-.631 2.868-1.405 3.724-.386.427-.803.762-1.182 1-.353.22-.753.407-1.103.445-.14.015-.313-.006-.404-.017H19.9c-.131-.017-.297-.041-.49-.072-.39-.063-.914-.156-1.54-.273-1.254-.235-2.93-.57-4.766-.952-3.67-.764-8.006-1.725-10.917-2.48-.02-.005-.04-.01-.059-.017-.179-.062-.32-.169-.409-.246-.101-.087-.199-.19-.29-.3-.184-.221-.376-.507-.556-.841-.361-.67-.701-1.577-.837-2.631-.184-1.43.344-2.702 1.055-3.605.356-.453.771-.83 1.195-1.1zM9.292 2.446c-.527.67-.883 1.57-.758 2.539.112.864.391 1.605.678 2.136.143.266.282.468.392.6.038.045.069.078.092.1 2.873.74 7.112 1.68 10.726 2.433 1.83.38 3.496.713 4.736.945.62.116 1.13.207 1.5.267.185.03.329.05.431.063l.074.008c.053-.017.201-.072.427-.214.265-.165.574-.411.866-.734.581-.643 1.066-1.558 1.033-2.724-.05-1.794-1.367-2.882-2.055-3.222.192.259.191.62-.024.88-.065.08-.186.29-.317.638-.124.332-.238.737-.314 1.164-.141.79-.129 1.509.046 1.973.03-.042.066-.093.103-.155.34-.564.554-1.447.424-2.088-.08-.396.186-.78.595-.858.409-.078.805.18.886.576.216 1.064-.12 2.307-.602 3.107-.23.378-.588.822-1.094.986-.29.095-.62.091-.933-.065-.29-.145-.488-.386-.625-.63-.503-.899-.46-2.126-.287-3.095.091-.508.227-.997.382-1.412.15-.397.337-.786.557-1.052.066-.08.145-.143.232-.188-2.58-.57-5.963-1.257-8.96-1.826-1.712-.326-3.293-.613-4.523-.817-.616-.103-1.14-.184-1.546-.24-.424-.058-.674-.08-.772-.08-.07 0-.263.04-.546.22-.268.172-.56.431-.824.765zm.445 5.412l-.006-.004.006.004zM9.287.462C9.695.202 10.179 0 10.662 0c.22 0 .574.04.983.095.428.059.968.143 1.59.247 1.247.207 2.84.496 4.559.823 3.435.653 7.383 1.46 10.068 2.075.05.011.099.028.145.049.987.445 2.919 1.949 2.99 4.537.046 1.609-.631 2.868-1.405 3.724-.386.427-.803.762-1.182 1-.353.22-.753.407-1.103.445-.14.015-.313-.006-.404-.017H26.9c-.131-.017-.297-.041-.49-.072-.39-.063-.914-.156-1.54-.274-1.254-.234-2.93-.568-4.766-.95-3.67-.765-8.006-1.726-10.917-2.48-.02-.006-.04-.011-.059-.018-.179-.062-.32-.169-.409-.246-.101-.087-.199-.19-.29-.3-.184-.221-.376-.507-.556-.841-.361-.67-.7-1.577-.837-2.631-.184-1.43.344-2.702 1.055-3.605.356-.453.771-.83 1.195-1.1z" clip-rule="evenodd"/>
</svg>
