<svg xmlns="http://www.w3.org/2000/svg" width="58" height="58" fill="none" viewBox="0 0 58 58">
    <circle cx="29" cy="29" r="28.5" stroke="#FE3945"/>
    <mask id="e064btvlca" fill="#fff">
        <path fill-rule="evenodd" d="M33.69 18.013v-.17c0-.57.478-1.038 1.064-1.038.585 0 1.064.467 1.064 1.038v.17c1.278.424 2.183 1.595 2.183 2.995v6.487c0 .129-.022.252-.062.366-.154 3.278-2.357 6.002-5.367 7.03v5.266c-.107.57-.532 1.038-1.118 1.038h-5.907c-.586 0-1.065-.468-1.065-1.038v-5.235C21.305 33.874 19 30.932 19 27.495c0-.57.479-1.038 1.064-1.038h11.444v-5.449c0-1.4.904-2.57 2.181-2.995zm2.288 2.995v5.45h-2.342v-5.45c0-.622.533-1.141 1.171-1.141.639 0 1.171.519 1.171 1.141zm-14.743 7.525h14.583c-.479 2.698-2.927 4.774-5.854 4.774H27.09c-2.927 0-5.376-2.076-5.855-4.774zm5.802 6.798h2.874c.178 0 .356-.006.532-.017v3.857h-3.832V35.32c.141.007.283.01.426.01z" clip-rule="evenodd"/>
    </mask>
    <path fill="#FE3945" fill-rule="evenodd" d="M33.69 18.013v-.17c0-.57.478-1.038 1.064-1.038.585 0 1.064.467 1.064 1.038v.17c1.278.424 2.183 1.595 2.183 2.995v6.487c0 .129-.022.252-.062.366-.154 3.278-2.357 6.002-5.367 7.03v5.266c-.107.57-.532 1.038-1.118 1.038h-5.907c-.586 0-1.065-.468-1.065-1.038v-5.235C21.305 33.874 19 30.932 19 27.495c0-.57.479-1.038 1.064-1.038h11.444v-5.449c0-1.4.904-2.57 2.181-2.995zm2.288 2.995v5.45h-2.342v-5.45c0-.622.533-1.141 1.171-1.141.639 0 1.171.519 1.171 1.141zm-14.743 7.525h14.583c-.479 2.698-2.927 4.774-5.854 4.774H27.09c-2.927 0-5.376-2.076-5.855-4.774zm5.802 6.798h2.874c.178 0 .356-.006.532-.017v3.857h-3.832V35.32c.141.007.283.01.426.01z" clip-rule="evenodd"/>
    <path fill="#FFF3EE" d="M33.69 18.013l.122.37.266-.089v-.28h-.389zm2.128 0h-.39v.281l.268.088.122-.369zm2.12 9.848l-.366-.13-.02.055-.002.057.389.018zm-5.366 7.03l-.126-.368-.263.09v.278h.389zm0 5.266l.383.071.006-.035v-.036h-.389zm-8.09-5.235h.39v-.282l-.268-.088-.122.37zm7.026-8.465v.39h.389v-.39h-.39zm4.47 0v.39h.39v-.39h-.39zm-2.342 0h-.389v.39h.39v-.39zm-1.074 2.076l.002-.39h-.002v.39zm-11.327 0v-.39h-.464l.081.458.383-.068zm11.337 0l-.002.389h.002v-.39zm3.246 0l.384.068.08-.457h-.464v.389zm-5.375 6.78h.39V34.9l-.415.026.025.389zm0 3.858v.389h.39v-.39h-.39zm-3.832 0h-.39v.389h.39v-.39zm0-3.851l.02-.389-.41-.021v.41h.39zm7.467-17.307v-.17H33.3v.17h.778zm0-.17c0-.347.296-.649.676-.649v-.778c-.791 0-1.454.632-1.454 1.427h.778zm.676-.649c.38 0 .675.302.675.649h.778c0-.795-.662-1.427-1.453-1.427v.778zm.675.649v.17h.778v-.17h-.778zm.267.54c1.126.373 1.916 1.401 1.916 2.625h.778c0-1.575-1.02-2.89-2.45-3.364l-.244.739zm1.916 2.625v6.487h.778v-6.487h-.779zm0 6.487c0 .085-.015.165-.04.237l.734.26c.055-.157.084-.324.084-.497h-.779zm-.062.348c-.146 3.108-2.236 5.7-5.104 6.68l.252.737c3.151-1.077 5.468-3.933 5.63-7.38l-.778-.037zm-5.367 7.048v5.266h.778V34.89h-.778zm.006 5.194c-.082.442-.388.72-.735.72v.779c.824 0 1.37-.656 1.5-1.356l-.765-.143zm-.735.72h-5.907v.779h5.907v-.779zm-5.907 0c-.38 0-.676-.302-.676-.648h-.778c0 .795.663 1.427 1.454 1.427v-.779zm-.676-.648v-5.235h-.778v5.235h.778zm-.267-5.605c-3.028-.998-5.215-3.799-5.215-7.057h-.778c0 3.617 2.424 6.7 5.75 7.796l.243-.739zm-5.215-7.057c0-.347.296-.649.675-.649v-.778c-.79 0-1.453.632-1.453 1.427h.778zm.675-.649h11.444v-.778H20.064v.778zm11.833-.389v-5.449h-.779v5.45h.779zm0-5.449c0-1.224.789-2.251 1.915-2.625l-.245-.739c-1.43.475-2.449 1.79-2.449 3.364h.779zm4.47 5.45v-5.45h-.778v5.45h.779zm-2.73.388h2.341v-.778h-2.342v.778zm-.39-5.838v5.45h.779v-5.45h-.779zm1.56-1.53c-.844 0-1.56.684-1.56 1.53h.779c0-.398.348-.752.781-.752v-.778zm1.56 1.53c0-.846-.715-1.53-1.56-1.53v.778c.433 0 .782.354.782.752h.779zm-3.805 7.136H21.235v.778h11.327v-.778zm.012 0h-.01l-.004.778h.01l.004-.778zm3.244 0h-3.246v.778h3.246v-.778zm-5.854 5.552c3.11 0 5.725-2.206 6.238-5.095l-.767-.136c-.445 2.507-2.727 4.453-5.471 4.453v.778zm-2.874 0h2.874v-.778H27.09v.778zm-6.238-5.095c.513 2.89 3.127 5.095 6.238 5.095v-.778c-2.744 0-5.026-1.946-5.471-4.453l-.767.136zm9.059 6.34h-2.874v.779h2.874v-.779zm.507-.016c-.168.011-.337.016-.507.016v.779c.187 0 .373-.006.557-.018l-.05-.777zm.414 4.246v-3.857h-.778v3.857h.778zm-4.221.389h3.832v-.779h-3.832v.779zm-.39-4.24v3.85h.78v-3.85h-.78zm.816-.379c-.136 0-.272-.003-.406-.01l-.04.777c.148.008.296.012.446.012v-.779z" mask="url(#e064btvlca)"/>
</svg>
