<svg xmlns="http://www.w3.org/2000/svg" width="58" height="58" fill="none" viewBox="0 0 58 58">
    <circle cx="29" cy="29" r="28.5" stroke="#FE3945"/>
    <mask id="9cs909nq4a" fill="#fff">
        <path fill-rule="evenodd" d="M17.25 37.65c0 .55.45 1 1 1 .5 0 .95-.45 1-1V32.2h19.5v5.45c0 .55.45 1 1 1s1-.45 1-1v-6.151c.033-.095.05-.195.05-.299 0-.11-.017-.215-.05-.313V29.3c0-.55-.45-1-1-1s-1 .45-1 1v.9h-.068c-.744-3.107-4.873-5.2-8.632-5.2-.55 0-1 .45-1 1v4.2h-9.8v-9.85c0-.55-.45-1-1-1s-1 .45-1 1v17.3zm13.8-7.45h5.57c-.716-1.561-3.006-2.91-5.57-3.2v3.2z" clip-rule="evenodd"/>
    </mask>
    <path fill="#FE3945" fill-rule="evenodd" d="M17.25 37.65c0 .55.45 1 1 1 .5 0 .95-.45 1-1V32.2h19.5v5.45c0 .55.45 1 1 1s1-.45 1-1v-6.151c.033-.095.05-.195.05-.299 0-.11-.017-.215-.05-.313V29.3c0-.55-.45-1-1-1s-1 .45-1 1v.9h-.068c-.744-3.107-4.873-5.2-8.632-5.2-.55 0-1 .45-1 1v4.2h-9.8v-9.85c0-.55-.45-1-1-1s-1 .45-1 1v17.3zm13.8-7.45h5.57c-.716-1.561-3.006-2.91-5.57-3.2v3.2z" clip-rule="evenodd"/>
    <path fill="#FFF3EE" d="M19.25 37.65l.299.027.001-.013v-.014h-.3zm0-5.45v-.3h-.3v.3h.3zm19.5 0h.3v-.3h-.3v.3zm2-.701l-.283-.098-.017.047v.05h.3zm0-.612h-.3v.048l.015.047.285-.095zm-2-.687v.3h.3v-.3h-.3zm-.068 0l-.292.07.055.23h.237v-.3zm-9.632 0v.3h.3v-.3h-.3zm-9.8 0h-.3v.3h.3v-.3zm11.8 0h-.3v.3h.3v-.3zm5.57 0v.3h.467l-.195-.425-.273.125zM31.05 27l.034-.298-.334-.038V27h.3zm-12.8 11.35c-.384 0-.7-.316-.7-.7h-.6c0 .716.584 1.3 1.3 1.3v-.6zm.701-.727c-.038.42-.38.727-.701.727v.6c.68 0 1.237-.593 1.299-1.273l-.598-.054zM18.95 32.2v5.45h.6V32.2h-.6zm19.8-.3h-19.5v.6h19.5v-.6zm.3 5.75V32.2h-.6v5.45h.6zm.7.7c-.384 0-.7-.316-.7-.7h-.6c0 .716.584 1.3 1.3 1.3v-.6zm.7-.7c0 .384-.316.7-.7.7v.6c.716 0 1.3-.584 1.3-1.3h-.6zm0-6.151v6.151h.6v-6.151h-.6zm.05-.299c0 .07-.011.136-.033.2l.566.197c.044-.125.067-.259.067-.397h-.6zm-.035-.218c.023.068.035.141.035.218h.6c0-.142-.023-.28-.065-.408l-.57.19zM40.45 29.3v1.587h.6V29.3h-.6zm-.7-.7c.384 0 .7.316.7.7h.6c0-.716-.584-1.3-1.3-1.3v.6zm-.7.7c0-.384.316-.7.7-.7V28c-.716 0-1.3.584-1.3 1.3h.6zm0 .9v-.9h-.6v.9h.6zm-.368.3h.068v-.6h-.068v.6zm-8.632-5.2c1.828 0 3.749.51 5.298 1.395 1.553.887 2.696 2.13 3.042 3.575l.584-.14c-.398-1.662-1.691-3.02-3.328-3.956-1.641-.938-3.665-1.474-5.596-1.474v.6zm-.7.7c0-.385.316-.7.7-.7v-.6c-.716 0-1.3.584-1.3 1.3h.6zm0 4.2V26h-.6v4.2h.6zm-10.1.3h9.8v-.6h-9.8v.6zm-.3-10.15v9.85h.6v-9.85h-.6zm-.7-.7c.384 0 .7.316.7.7h.6c0-.716-.584-1.3-1.3-1.3v.6zm-.7.7c0-.384.316-.7.7-.7v-.6c-.716 0-1.3.584-1.3 1.3h.6zm0 17.3v-17.3h-.6v17.3h.6zm13.5-7.15h5.57v-.6h-5.57v.6zm5.842-.425c-.392-.856-1.2-1.624-2.214-2.212-1.02-.59-2.273-1.012-3.594-1.161l-.068.596c1.242.14 2.416.537 3.361 1.085.95.55 1.646 1.237 1.97 1.942l.545-.25zM30.75 27v3.2h.6V27h-.6z" mask="url(#9cs909nq4a)"/>
</svg>
