<svg xmlns="http://www.w3.org/2000/svg" width="61" height="46" fill="none" viewBox="0 0 61 46">
    <path fill="#FFF3EE" d="M4.48 23.755l22.987-12.826c.596-.332 1.28-.464 1.954-.374l26.21 3.468c1.436.19 2.572 1.334 2.821 2.785.13.762.296 1.68.5 2.73.623 3.206 1.819 5.899 1.819 5.899-5.92 2.073-4.117 1.945-7.565 4.987-3.448 3.042-5.631 2.457-6.09 3.861-.46 1.404-2.644 3.042-4.713 3.042-1.654 0-4.367 2.808-5.516 4.212-1.494-1.053-1.609 0-4.367 0s-6.32-.936-8.619-1.989c-2.298-1.053-5.171-.468-7.7-.819-2.528-.35-2.413-1.404-4.481-1.404-2.069 0-2.184.82-5.057 0-2.873-.819-1.149-1.872-2.988-1.52-1.47.28-2.91-.898-3.447-1.522.736-1.31 3.141-7.566 4.252-10.53z"/>
    <path fill="#03224C" fill-rule="evenodd" d="M29.392 10.786c-.626-.083-1.262.038-1.815.347L4.832 23.824c.105.116.24.25.402.377.27.215.598.404.95.481.793.173 8.935 1.805 12.91 2.6.125.025.205.147.18.273-.023.126-.143.209-.267.184-3.972-.794-12.12-2.428-12.918-2.602-.442-.096-.832-.328-1.136-.569-.152-.12-.286-.246-.397-.363-.557 1.48-1.363 3.589-2.13 5.523C1.65 31.68.91 33.474.507 34.25c.268.283.694.648 1.204.93.585.323 1.258.524 1.923.397.235-.045.423-.07.575-.073.151-.004.283.013.396.062.21.093.299.282.36.412l.021.045c.07.142.162.306.395.485.24.185.642.394 1.344.594 1.413.403 2.127.398 2.734.302.168-.027.335-.063.512-.1.461-.098.986-.21 1.75-.21.537 0 .941.069 1.286.181.344.112.62.265.892.418l.036.02c.526.297 1.102.621 2.298.787.903.126 1.845.13 2.806.133.366.002.734.003 1.104.011 1.327.03 2.659.147 3.852.693 2.275 1.043 5.806 1.969 8.526 1.969 1.112 0 1.774-.174 2.294-.31.11-.029.212-.056.312-.079.291-.068.568-.11.877-.051.26.048.529.164.84.364.59-.703 1.5-1.678 2.465-2.502.521-.444 1.063-.85 1.586-1.144.517-.293 1.038-.49 1.509-.49.978 0 1.998-.39 2.832-.956.84-.57 1.455-1.293 1.663-1.927.137-.42.407-.686.763-.896.288-.17.65-.31 1.058-.47l.238-.094c1.02-.404 2.402-1.006 4.099-2.503.854-.754 1.382-1.31 1.786-1.754l.201-.222c.306-.339.562-.623.872-.885.738-.622 1.771-1.11 4.548-2.089-.029-.068-.062-.15-.1-.245-.124-.305-.294-.745-.484-1.286-.38-1.08-.838-2.567-1.152-4.185-.204-1.05-.37-1.971-.5-2.734-.233-1.355-1.293-2.419-2.626-2.595l-26.21-3.468zm-2.035-.06c.639-.357 1.372-.497 2.094-.402l26.21 3.468c1.538.204 2.75 1.428 3.017 2.977.13.76.295 1.677.499 2.724.308 1.588.76 3.051 1.134 4.118.187.534.355.967.475 1.267.06.15.11.266.143.345l.03.07.008.019.01.022.002.006v.001c.027.06.028.128.002.188-.025.06-.074.107-.135.128-2.967 1.04-3.955 1.514-4.638 2.09-.284.239-.516.496-.82.833l-.21.232c-.412.452-.952 1.02-1.822 1.788-1.75 1.545-3.185 2.171-4.233 2.586l-.249.098c-.408.16-.73.286-.983.435-.29.17-.466.358-.559.64-.252.77-.958 1.567-1.842 2.168-.89.603-1.996 1.033-3.086 1.033-.357 0-.796.154-1.288.432-.487.275-1.005.66-1.513 1.093-1.016.867-1.972 1.91-2.54 2.603-.076.093-.208.111-.305.043-.36-.253-.616-.366-.836-.407-.219-.04-.423-.016-.692.047-.092.022-.19.048-.296.076-.523.137-1.24.325-2.413.325-2.797 0-6.391-.945-8.713-2.01-1.105-.505-2.358-.623-3.675-.652-.35-.007-.708-.009-1.067-.01-.971-.004-1.96-.008-2.895-.138-1.28-.178-1.913-.534-2.461-.843l-.032-.017c-.273-.154-.514-.286-.81-.383-.294-.096-.65-.159-1.148-.159-.713 0-1.169.097-1.616.193-.187.04-.373.08-.575.111-.686.11-1.467.104-2.927-.312-.734-.21-1.194-.44-1.496-.671-.31-.238-.44-.469-.528-.649l-.002-.004c-.094-.19-.105-.213-.152-.233-.029-.013-.087-.028-.204-.025-.117.003-.277.022-.502.065-.806.154-1.589-.094-2.225-.445-.638-.352-1.153-.82-1.436-1.151-.065-.075-.075-.183-.027-.269.358-.638 1.137-2.511 1.972-4.617.831-2.096 1.71-4.4 2.265-5.88.02-.052.056-.095.104-.122l22.986-12.826zm29.423 5.897c.067.109.034.252-.072.32L35.395 30.548c.069.916.197 2.28.37 3.564.091.675.194 1.325.307 1.874.114.555.235.988.355 1.241.055.116.007.255-.107.311-.113.056-.25.007-.305-.108-.146-.309-.275-.79-.39-1.349-.116-.563-.22-1.225-.313-1.906-.172-1.277-.3-2.632-.37-3.555l-9.975-1.94c-.124-.025-.205-.147-.181-.273.023-.126.143-.209.267-.185l10.058 1.958 21.353-13.63c.107-.068.248-.035.315.074zm-5.984 5.27c.126-.012.237.082.25.21.073.772.247 2.052.53 3.377.283 1.33.67 2.682 1.165 3.61.06.114.019.255-.092.316s-.25.02-.31-.094c-.526-.988-.925-2.394-1.21-3.733-.286-1.344-.463-2.643-.538-3.431-.013-.128.08-.242.205-.254zM6.984 26.77c.12.038.187.169.15.291-1.359 4.439-2.409 7.093-2.768 7.875-.054.116-.19.166-.304.112-.114-.055-.164-.194-.11-.31.347-.754 1.39-3.386 2.746-7.815.037-.123.165-.191.286-.153zm6.476.82c.125.024.207.145.184.271-.176.982-.566 3.12-.708 3.787-.027.125-.149.205-.272.178-.123-.028-.202-.152-.175-.277.14-.658.529-2.786.706-3.771.022-.127.141-.21.265-.187zm11.946 2.196c.125.022.207.143.185.27-.282 1.617-.792 5.435-.598 7.82.01.129-.083.241-.209.252-.125.01-.236-.085-.246-.213-.2-2.45.321-6.32.603-7.94.022-.127.141-.212.265-.19zm14.54 1.582c.125-.018.24.07.259.197.125.88.578 2.99 1.374 4.402.063.111.026.254-.084.318s-.249.025-.312-.086c-.84-1.489-1.303-3.667-1.43-4.567-.019-.128.068-.246.193-.264z" clip-rule="evenodd"/>
    <path fill="#F4D8CD" d="M53.294 15.424l-27.32-3.617c-1.337-.178-1.688 0-2.428.419-.592.335-.738 1.066-.737 1.39 9.606 1.375 29.052 4.16 29.985 4.296.933.136 1.277.546 1.333.735.666 1.9 2.017 6.86 2.61 9.102.577-.362 1.795-.98 2.332-1.244-.4-.588-1.907-6.426-2.61-9.271-.178-1.176-2.184-1.697-3.165-1.81z"/>
    <path fill="#03224C" fill-rule="evenodd" d="M24.584 12.02c-.31.067-.554.198-.927.41-.239.135-.395.353-.491.586-.06.14-.094.281-.112.4 9.678 1.386 28.847 4.131 29.773 4.266.967.14 1.42.579 1.517.892.643 1.833 1.91 6.467 2.536 8.82.553-.32 1.37-.74 1.88-.994-.033-.079-.068-.168-.103-.264-.083-.227-.178-.518-.283-.857-.21-.679-.459-1.555-.716-2.5-.515-1.892-1.068-4.065-1.42-5.488l-.003-.011-.001-.01c-.07-.46-.511-.84-1.148-1.127-.62-.279-1.343-.433-1.817-.487h-.004l-27.32-3.619c-.66-.087-1.051-.083-1.361-.017zm-.095-.455c.385-.082.837-.079 1.514.011l27.317 3.617h.002c.506.06 1.276.222 1.948.525.653.294 1.3.76 1.413 1.469.352 1.422.903 3.585 1.415 5.467.257.943.504 1.814.712 2.485.103.335.197.619.275.835.083.225.141.353.172.399l.152.224-.24.118c-.539.264-1.746.878-2.312 1.232l-.261.164-.08-.302c-.593-2.245-1.941-7.195-2.604-9.084l-.004-.011c-.018-.064-.254-.442-1.146-.572-.932-.135-20.378-2.92-29.985-4.296l-.196-.028v-.202c-.001-.19.04-.486.164-.782.124-.297.337-.612.69-.811.368-.209.669-.375 1.055-.458zM28.296 7.282c.198-.316.528-.556.945-.556l.026.001 28.29 3.39c.06.007.115.039.153.087.209.271.242.543.153.775-.032.084-.078.156-.129.217.184.219.346.585.346 1.115 0 .738-.457 1.237-.759 1.45-.056.26-.174.441-.327.554-.167.121-.351.144-.484.121L28.78 10.684l-.018-.004c-.466-.103-.71-.43-.816-.77-.091-.292-.088-.602-.055-.827-.079-.193-.042-.388.018-.532.046-.113.112-.213.175-.29-.045-.345.037-.699.211-.979zm.386.25c-.133.214-.187.494-.129.749.018.08-.006.164-.065.22-.05.049-.118.136-.157.23-.038.092-.032.151-.006.193.03.05.041.11.03.17-.035.173-.046.441.027.674.07.22.204.394.47.456l27.732 3.753c.025.004.085.002.143-.04.052-.038.13-.13.161-.35.01-.072.052-.135.114-.17.203-.117.62-.51.62-1.106 0-.64-.281-.877-.342-.907-.078-.037-.128-.117-.13-.204-.001-.088.045-.17.121-.21.063-.034.136-.102.166-.18.019-.049.032-.126-.036-.243L29.228 7.19c-.224.005-.416.133-.546.34z" clip-rule="evenodd"/>
    <path fill="#03224C" d="M57.11 12.386c-.054.324-.175.573-.27.556-.096-.017-.13-.293-.075-.616.054-.324.176-.573.271-.557.095.017.129.293.074.617z"/>
    <path fill="#fff" d="M30.5 11.34c.014-1.114.424-4.051 1.953-6.893 1.093-.268 4.136-.525 7.559.592 0 3.045-.997 6.117-1.495 7.273-1.745.113-5.79.076-8.017-.973z"/>
    <path fill="#03224C" fill-rule="evenodd" d="M32.603 4.65c-1.403 2.653-1.825 5.372-1.871 6.54 1.066.467 2.536.72 3.975.84 1.378.115 2.705.108 3.58.062.016-2.742.89-5.588 1.416-6.907-3.184-.985-5.994-.778-7.1-.535zm6.206 6.19c.15-1.594.533-3.14.897-4.29-.16 1.624-.54 3.16-.897 4.29zm-6.41-6.62c1.132-.276 4.218-.532 7.682.598l.159.051v.17c0 3.087-1.008 6.192-1.515 7.367l-.056.13-.139.008c-.882.057-2.34.076-3.86-.05-1.515-.127-3.116-.401-4.267-.943l-.134-.064.002-.15c.014-1.146.432-4.122 1.98-7.002l.05-.09.097-.024z" clip-rule="evenodd"/>
    <path fill="#FE3945" d="M31.609 12.046c.007-.533.203-1.938.934-3.299.524-.128 1.98-.25 3.619.284 0 1.457-.477 2.928-.716 3.48-.835.055-2.772.037-3.837-.465z"/>
    <path fill="#03224C" fill-rule="evenodd" d="M32.615 8.845c-.672 1.27-.874 2.57-.896 3.13.51.223 1.214.344 1.903.402.66.055 1.295.051 1.713.03.008-1.313.426-2.675.678-3.306-1.524-.472-2.869-.373-3.398-.256zm2.97 2.962c.072-.763.255-1.502.43-2.053-.077.777-.259 1.513-.43 2.053zM32.517 8.64c.542-.133 2.019-.255 3.677.286l.076.024v.082c0 1.477-.482 2.963-.725 3.526l-.027.062-.066.004c-.422.027-1.12.037-1.848-.024-.725-.061-1.491-.192-2.042-.451l-.064-.03v-.073c.008-.549.207-1.973.948-3.351l.024-.043.047-.012z" clip-rule="evenodd"/>
    <path fill="#fff" d="M41.828 12.566c.014-1.114.423-4.05 1.952-6.893 1.094-.267 4.137-.524 7.56.592 0 3.045-.998 6.118-1.496 7.273-1.745.113-5.79.077-8.017-.972z"/>
    <path fill="#03224C" fill-rule="evenodd" d="M43.93 5.877c-1.403 2.652-1.825 5.371-1.872 6.54 1.067.467 2.536.719 3.975.84 1.378.114 2.706.107 3.58.062.017-2.742.89-5.589 1.417-6.908-3.184-.984-5.994-.777-7.1-.534zm6.205 6.19c.15-1.594.533-3.14.897-4.29-.159 1.624-.54 3.16-.897 4.29zm-6.41-6.62c1.133-.277 4.218-.533 7.682.597l.16.052v.17c0 3.087-1.009 6.192-1.515 7.366l-.056.13-.14.009c-.882.057-2.34.076-3.86-.051-1.514-.127-3.115-.4-4.266-.943l-.134-.063.001-.15c.015-1.147.432-4.122 1.98-7.002l.05-.09.098-.025z" clip-rule="evenodd"/>
    <path fill="#FE3945" d="M42.586 13.48c.007-.533.203-1.939.935-3.3.523-.127 1.98-.25 3.618.284 0 1.458-.477 2.928-.716 3.481-.835.054-2.771.037-3.837-.465z"/>
    <path fill="#03224C" fill-rule="evenodd" d="M43.594 10.278c-.671 1.27-.873 2.571-.896 3.13.51.224 1.214.345 1.903.402.66.055 1.295.052 1.714.03.007-1.312.426-2.675.678-3.306-1.525-.471-2.87-.372-3.399-.256zm2.97 2.963c.072-.763.255-1.503.43-2.053-.076.777-.258 1.512-.43 2.053zm-3.068-3.168c.542-.133 2.02-.256 3.677.285l.076.025v.081c0 1.478-.482 2.964-.725 3.526l-.026.062-.067.005c-.422.027-1.12.036-1.848-.025-.725-.06-1.491-.191-2.042-.45l-.064-.031v-.072c.008-.549.207-1.973.949-3.352l.023-.043.047-.011z" clip-rule="evenodd"/>
    <path fill="#fff" d="M14.087 22.409c.075.611.375 1.05.483 1.09 1.752.478 5.234 1.221 5.403 1.202.211-.024.938-.525.915-1.41-.02-.707-.524-1.122-.774-1.24-1.619-.39-4.771-1.027-5.156-1.027-.336 0-.965.62-.871 1.385z"/>
    <path fill="#03224C" fill-rule="evenodd" d="M14.542 21.57c-.16.214-.268.5-.23.81.034.275.119.511.205.68.044.085.086.149.12.191.01.015.02.025.027.032.87.236 2.154.535 3.248.775.555.122 1.059.227 1.434.301.188.037.343.066.455.085.056.01.1.017.13.02l.023.003c.016-.005.06-.023.13-.068.08-.053.173-.131.261-.234.176-.205.323-.496.313-.868-.015-.572-.414-.918-.622-1.027.058.083.058.198-.008.281-.02.025-.056.092-.095.203-.038.106-.072.235-.096.371-.042.252-.038.48.014.629l.032-.05c.103-.18.167-.46.128-.665-.024-.126.056-.248.18-.273.124-.025.244.057.268.183.066.34-.036.735-.182.99-.07.12-.178.262-.331.314-.088.03-.188.03-.283-.02-.087-.047-.148-.123-.189-.201-.152-.287-.14-.677-.087-.986.028-.162.069-.318.116-.45.045-.127.102-.25.169-.336.02-.025.043-.045.07-.06-.782-.181-1.806-.4-2.714-.581-.518-.104-.997-.195-1.37-.26-.186-.033-.345-.06-.467-.077-.129-.018-.205-.026-.234-.026-.022 0-.08.014-.166.07-.08.055-.17.138-.25.244zm.134 1.725l-.001-.002.001.002zm-.136-2.357c.124-.083.27-.147.417-.147.066 0 .173.012.297.03.13.019.293.046.482.079.377.066.86.158 1.38.262 1.04.208 2.236.465 3.05.661.014.004.03.01.043.016.3.142.884.62.906 1.446.014.512-.191.913-.426 1.186-.117.136-.243.243-.358.319-.107.07-.228.13-.334.142-.042.004-.094-.002-.122-.006-.04-.005-.09-.013-.15-.023-.117-.02-.276-.05-.466-.087-.379-.075-.887-.181-1.443-.303-1.111-.243-2.424-.55-3.306-.79l-.018-.006c-.054-.02-.096-.053-.124-.078-.03-.028-.06-.06-.087-.096-.056-.07-.114-.161-.169-.268-.109-.213-.212-.502-.253-.838-.056-.455.104-.86.32-1.149.107-.144.233-.264.361-.35z" clip-rule="evenodd"/>
    <path fill="#fff" d="M27.103 25.02c.075.612.375 1.05.484 1.09 1.752.478 5.234 1.222 5.403 1.203.21-.024.938-.526.914-1.41-.019-.707-.524-1.122-.774-1.241-1.618-.39-4.77-1.026-5.156-1.026-.335 0-.965.62-.87 1.384z"/>
    <path fill="#03224C" fill-rule="evenodd" d="M27.56 24.183c-.16.213-.267.5-.23.809.034.275.119.511.206.68.043.085.085.15.118.191l.028.032c.87.236 2.154.536 3.248.776.555.12 1.059.227 1.434.3.189.038.343.067.455.086.056.01.1.016.13.02l.023.002c.016-.005.06-.023.13-.068.08-.052.173-.13.261-.234.176-.204.323-.496.313-.868-.015-.571-.414-.918-.622-1.026.058.082.058.197-.008.28-.02.025-.056.092-.095.203-.038.106-.072.235-.096.371-.042.252-.038.481.014.629l.032-.05c.103-.18.167-.46.128-.665-.024-.126.056-.248.18-.273.124-.025.244.057.268.183.066.34-.036.736-.182.99-.07.12-.178.263-.331.315-.088.03-.188.029-.282-.021-.088-.046-.148-.123-.19-.201-.152-.286-.14-.677-.087-.986.028-.162.069-.318.116-.45.045-.127.102-.25.169-.335.02-.026.044-.046.07-.06-.781-.182-1.806-.4-2.714-.582-.518-.104-.997-.195-1.37-.26-.186-.033-.344-.059-.467-.077-.129-.018-.205-.025-.234-.025-.022 0-.08.013-.166.07-.08.055-.17.137-.25.244zm.135 1.724l-.002-.001.002.001zm-.137-2.357c.124-.082.27-.147.417-.147.066 0 .173.013.297.03.13.02.294.046.482.08.377.065.86.157 1.38.261 1.04.209 2.236.466 3.05.662.015.003.03.009.044.015.298.142.883.621.905 1.446.014.513-.191.914-.426 1.187-.117.136-.243.242-.358.318-.106.07-.228.13-.334.142-.042.005-.094-.002-.122-.006-.04-.005-.09-.012-.15-.022-.117-.02-.276-.05-.465-.087-.38-.075-.887-.182-1.444-.304-1.111-.243-2.424-.55-3.306-.79l-.017-.005c-.055-.02-.097-.054-.124-.079-.031-.027-.06-.06-.088-.095-.056-.07-.114-.162-.169-.268-.109-.214-.212-.503-.253-.839-.056-.455.104-.86.32-1.148.107-.145.233-.265.361-.35z" clip-rule="evenodd"/>
    <path fill="#fff" d="M6.506 40.316c-.795.944-.65 1.484-.337 1.62.4.174 1.386.098 2.912-1.01 1.59-1.154 1.436-2.137.607-2.249-.828-.112-2.187.458-3.182 1.639z"/>
    <path fill="#fff" d="M8.386 39.002c.897.206.952 1.297.868 1.816 1.11-.785 1.242-1.816.808-2.123-.748-.529-1.676-.38-2.254 0-.463.304-.587.749-.591.933.016-.294.272-.832 1.169-.626z"/>
    <path fill="#fff" d="M8.872 41.234c-.796.944-.65 1.484-.338 1.62.4.174 1.387.098 2.912-1.01 1.59-1.154 1.437-2.136.608-2.249-.829-.112-2.187.458-3.182 1.639z"/>
    <path fill="#fff" d="M10.752 39.92c.896.206.952 1.297.868 1.816 1.109-.785 1.242-1.816.807-2.123-.747-.529-1.675-.38-2.254 0-.463.304-.587.749-.59.933.015-.294.272-.832 1.169-.626zM22.804 44.077c-.796.944-.65 1.484-.338 1.62.4.173 1.387.098 2.912-1.01 1.59-1.154 1.437-2.137.608-2.25-.829-.112-2.187.459-3.182 1.64z"/>
    <path fill="#fff" d="M24.684 42.763c.896.206.952 1.297.868 1.816 1.109-.785 1.242-1.816.808-2.123-.748-.53-1.676-.381-2.255 0-.463.304-.586.748-.59.933.015-.295.272-.832 1.169-.626z"/>
</svg>
