<svg xmlns="http://www.w3.org/2000/svg" width="46" height="58" fill="none" viewBox="0 0 46 58">
    <path fill="#F1F1F1" d="M21.808 55.484c7.764 0 14.058-2.13 14.058-4.759 0-2.628-6.294-4.758-14.058-4.758S7.75 48.097 7.75 50.725s6.294 4.759 14.058 4.759z"/>
    <path fill="#fff" d="M28.087 10.475c.942-.461 1.153-1.683 1.153-2.412l2.16.173c.014.221-.128.879 0 1.396.289 1.176 2.716 2.056 3.413 2.721.697.665 2.31 6.341 2.746 7.228.349.71 2.673 2.602 3.791 3.459l-.958 1.153c-1.366-.68-4.245-2.208-4.838-2.883-.593-.673-1.438-3.03-1.787-4.123-.116 1.182-.349 3.83-.349 4.966v3.37c-3.068 2.2-6.886.916-8.411 0 .174-.783.523-2.643.523-3.813 0-1.171-.174-3.503-.262-4.523-.174.93-2.004 4.08-3.355 4.123-1.081.036-3.066-.369-3.923-.576l-.48-1.596c.973.044 3.078.017 3.706-.444.784-.576 2.046-4.3 3.18-5.853 1.133-1.552 2.513-1.79 3.69-2.366z"/>
    <path fill="#71BFD6" d="M27.12 10.97l1.5-.756.75 1.135 2.25-1.135.375.378 3 1.892 1.125 2.648s.75 3.026 1.5 4.54c1.125 1.512 3.75 3.404 3.75 3.404l-.75 1.135s-4.41-2.172-4.875-2.648c-.464-.477-1.98-4.325-1.98-4.325l-.27 3.568v4.54s-1.5 1.134-2.625 1.134c-1.115.363-3 0-3 0l-3-.756.75-4.161-.25-4.325-1.318 2.226s-.87 1.275-1.807 1.72c-.937.445-4.125-.267-4.125-.267s-.462-.979-.375-1.624c1.875-.378 2.893.23 4.125-1.135 1.018-2.04 2.016-4.807 3.375-6.053 1.36-1.245 1.875-1.135 1.875-1.135z"/>
    <path fill="#03224C" fill-rule="evenodd" d="M29.111 7.923l2.409.192.007.113c.005.068-.003.161-.012.26l-.007.077c-.008.082-.016.172-.023.268-.018.254-.02.53.039.768.063.258.247.512.519.763.27.25.614.486.977.71.234.144.472.28.701.413l.37.213c.328.194.623.38.81.559.105.1.215.28.326.5.115.226.238.51.367.831.257.643.539 1.446.811 2.252.16.472.317.948.465 1.395.104.316.203.618.296.893.224.671.404 1.182.508 1.393.076.157.273.395.558.686.281.287.636.614 1.018.948.761.666 1.62 1.352 2.178 1.78l.108.082-1.111 1.337-.09-.045c-.684-.34-1.748-.894-2.715-1.447-.484-.276-.944-.553-1.322-.804-.375-.249-.68-.479-.84-.662-.16-.181-.33-.467-.499-.802-.17-.337-.344-.733-.509-1.14-.23-.565-.445-1.156-.613-1.648-.122 1.321-.29 3.384-.29 4.346v3.438l-.055.039c-1.566 1.122-3.32 1.354-4.871 1.191-1.549-.162-2.902-.719-3.68-1.186l-.08-.048.02-.093c.175-.783.52-2.63.52-3.785 0-.966-.12-2.735-.21-3.891-.062.144-.135.299-.216.46-.22.432-.511.92-.84 1.38-.327.459-.695.895-1.07 1.22-.37.322-.766.55-1.148.563-.554.018-1.331-.076-2.07-.2-.742-.122-1.456-.276-1.887-.38l-.071-.017L17.333 19l.182.008c.483.022 1.247.026 1.967-.032.36-.03.706-.074 1-.139.296-.065.524-.149.658-.248.081-.06.177-.167.286-.323.108-.154.224-.348.346-.574.244-.45.509-1.014.787-1.614l.095-.206c.526-1.136 1.095-2.364 1.638-3.108.897-1.229 1.96-1.662 2.927-2.054.28-.115.554-.226.812-.352.432-.212.702-.6.866-1.034.163-.435.214-.906.214-1.26v-.141zm.255.282c-.013.356-.073.796-.23 1.212-.177.474-.483.927-.994 1.176-.282.138-.57.256-.86.374-.956.39-1.934.789-2.783 1.953-.527.722-1.086 1.928-1.618 3.076l-.09.194c-.277.598-.546 1.17-.794 1.629-.125.23-.245.433-.361.598-.115.164-.23.3-.345.384-.18.132-.45.224-.755.292-.309.068-.667.114-1.034.144-.648.052-1.329.055-1.817.039l.406 1.349c.431.102 1.102.244 1.797.36.737.123 1.493.213 2.02.196.294-.01.633-.191.99-.501.355-.307.709-.725 1.03-1.175.32-.449.604-.926.818-1.347.216-.424.356-.782.396-.995l.254.013c.087 1.02.262 3.357.262 4.534 0 1.142-.325 2.918-.505 3.749.76.44 2.038.95 3.494 1.103 1.489.156 3.155-.063 4.643-1.106v-3.302c0-1.143.233-3.799.35-4.98l.25-.027c.173.545.47 1.404.798 2.21.163.403.334.791.5 1.12.167.33.325.592.462.747.135.154.413.368.788.617.371.246.827.52 1.308.795.92.526 1.93 1.054 2.612 1.395l.807-.97c-.56-.432-1.364-1.077-2.083-1.706-.383-.335-.744-.668-1.032-.962-.284-.29-.509-.554-.606-.753-.114-.231-.3-.763-.522-1.426l-.297-.896c-.147-.445-.303-.919-.463-1.39-.272-.807-.551-1.604-.806-2.24-.128-.318-.248-.593-.357-.809-.111-.22-.204-.363-.274-.43-.162-.154-.432-.327-.763-.522-.115-.068-.236-.137-.362-.21-.231-.133-.476-.274-.714-.42-.367-.227-.728-.473-1.016-.74-.287-.265-.514-.562-.596-.892-.068-.28-.063-.59-.045-.85.006-.1.015-.195.023-.278l.007-.074.01-.106-1.903-.152z" clip-rule="evenodd"/>
    <path fill="#03224C" fill-rule="evenodd" d="M29.116 7.952l2.409.192.007.113c.005.068-.003.162-.012.26l-.007.077c-.008.083-.017.173-.023.268-.018.254-.02.53.039.768.063.258.247.512.519.763.27.25.614.486.976.71.235.144.473.281.702.413l.37.214c.328.193.623.38.81.558.105.1.214.28.326.5.114.226.238.51.367.831.257.643.539 1.446.811 2.253.16.472.317.948.464 1.394l.296.893c.225.671.404 1.182.508 1.394.077.156.274.394.559.685.28.287.636.615 1.017.948.762.667 1.62 1.352 2.178 1.78l.11.083-1.112 1.336-.09-.045c-.684-.34-1.748-.894-2.715-1.447-.484-.276-.945-.553-1.323-.804-.374-.248-.678-.479-.84-.661-.159-.182-.329-.468-.498-.803-.17-.337-.344-.732-.509-1.139-.23-.566-.445-1.156-.613-1.649-.122 1.321-.29 3.384-.29 4.346v3.438l-.055.039c-1.566 1.123-3.321 1.354-4.871 1.192-1.55-.163-2.903-.72-3.68-1.186l-.08-.049.02-.093c.175-.783.52-2.63.52-3.784 0-.967-.12-2.735-.21-3.892-.062.144-.135.299-.217.46-.22.432-.51.92-.839 1.38-.327.46-.695.895-1.07 1.22-.37.322-.767.55-1.149.563-.553.018-1.33-.076-2.07-.199-.741-.123-1.455-.277-1.886-.38l-.072-.018-.555-1.845.182.008c.483.022 1.247.027 1.967-.032.36-.029.706-.073 1-.138.296-.066.524-.15.658-.249.081-.06.177-.166.286-.323.108-.154.223-.348.345-.573.244-.45.51-1.015.787-1.614l.096-.207c.526-1.136 1.095-2.364 1.638-3.108.897-1.229 1.96-1.661 2.927-2.054.28-.115.554-.226.812-.352.432-.212.702-.6.865-1.034.163-.435.215-.906.215-1.26v-.14zm.254.283c-.012.355-.073.795-.229 1.211-.177.474-.484.927-.994 1.177-.282.138-.57.255-.86.374-.956.39-1.934.788-2.784 1.952-.527.722-1.086 1.928-1.617 3.076l-.09.194c-.278.598-.546 1.17-.795 1.629-.124.23-.245.433-.36.599-.115.164-.23.299-.345.383-.18.132-.45.225-.755.292-.309.069-.667.114-1.034.144-.648.052-1.329.055-1.817.04l.406 1.348c.431.102 1.102.245 1.797.36.737.123 1.493.213 2.02.196.293-.01.633-.191.99-.501.355-.307.709-.725 1.03-1.175.32-.449.604-.925.818-1.346.216-.425.356-.782.396-.996l.254.013c.087 1.02.262 3.357.262 4.535 0 1.141-.325 2.917-.506 3.748.76.44 2.04.95 3.495 1.104 1.489.156 3.154-.063 4.643-1.107v-3.302c0-1.143.233-3.799.349-4.98l.25-.027c.174.545.47 1.404.798 2.21.164.403.335.791.5 1.12.168.33.326.592.462.747.136.155.414.368.789.617.371.247.827.52 1.308.796.92.526 1.93 1.053 2.612 1.395l.806-.97c-.56-.432-1.363-1.078-2.082-1.707-.384-.335-.745-.668-1.032-.961-.284-.29-.509-.555-.606-.753-.114-.232-.3-.763-.522-1.427l-.297-.896c-.147-.445-.303-.918-.463-1.39-.272-.807-.552-1.603-.806-2.24-.128-.317-.248-.593-.357-.809-.112-.22-.205-.363-.274-.43-.162-.154-.432-.327-.763-.522l-.362-.21c-.231-.133-.476-.273-.714-.42-.367-.226-.728-.473-1.016-.74-.287-.265-.514-.562-.596-.892-.069-.28-.064-.59-.046-.85.007-.1.016-.194.024-.277l.007-.075.009-.106-1.903-.151z" clip-rule="evenodd"/>
    <path fill="#fff" d="M32.035 8.145c1.533-1.19 1.2-4.566 1.12-5.767h-5.437c-.099.46-.232 1.898.004 3.725.295 2.283 2.59 3.38 4.313 2.042z"/>
    <path fill="#03224C" fill-rule="evenodd" d="M27.615 2.248h5.66l.008.122.015.215c.045.634.118 1.664.03 2.693-.099 1.147-.401 2.34-1.215 2.972-.9.699-1.955.764-2.824.35-.868-.411-1.541-1.296-1.694-2.48-.238-1.838-.104-3.291-.002-3.769l.022-.103zm.21.261c-.092.535-.194 1.886.025 3.577.142 1.1.763 1.905 1.548 2.278.783.372 1.736.317 2.56-.322.719-.558 1.016-1.648 1.114-2.787.086-1.006.015-2.015-.03-2.65l-.007-.096h-5.21z" clip-rule="evenodd"/>
    <path fill="#fff" d="M43.609 25.008c0-.273-.5-1.27-.94-1.386-.335-.09-.95-.325-1.259-.45l-.776.88c.077.827 1.043 1.086 1.516 1.112-.013.313-.008.938.115.938.154 0 1.344-.82 1.344-1.094z"/>
    <path fill="#03224C" fill-rule="evenodd" d="M41.369 23.136l-.055-.05-.813.921.005.057c.044.472.343.776.676.96.28.154.594.232.836.26-.003.146-.001.322.01.477.008.1.02.198.042.274.01.037.025.079.048.113.023.035.07.085.147.085.032 0 .063-.01.083-.017.023-.008.048-.019.074-.032.053-.025.115-.06.184-.102.137-.084.304-.197.465-.32.16-.12.32-.253.44-.375.06-.06.113-.12.152-.179.036-.053.074-.123.074-.2 0-.095-.04-.23-.094-.364-.057-.14-.136-.301-.23-.456-.093-.154-.202-.306-.32-.43-.114-.12-.248-.224-.392-.262-.326-.087-.934-.32-1.244-.444l-.048-.02-.04.104zm.077.192l-.678.767c.05.326.264.549.536.7.29.16.63.227.853.24l.127.006-.006.13c-.006.153-.008.381.007.57.006.085.016.156.028.207.042-.02.097-.051.16-.09.13-.079.29-.188.445-.305.156-.118.304-.242.412-.35.054-.056.095-.104.121-.143.025-.037.029-.053.03-.053v.002c0-.041-.023-.134-.076-.266-.051-.127-.124-.275-.21-.418-.087-.143-.185-.279-.286-.384-.102-.108-.196-.172-.273-.192-.315-.084-.864-.292-1.19-.421z" clip-rule="evenodd"/>
    <path fill="#03224C" d="M25.98 3.11c-.45-1.417.667-2.074 1.603-2.169 1.295 0 2.855-.083 3.68-.17 1.818-.191 3.056 1.573 2.676 3.212-.223.96-.483 1.725-.502 2.85-.019.743-.811 2.083-2.07 2.403-1.573.4-2.968.447-3.784-.417-.647-.685-.317-1.715 0-2.23l.628.422c.875-.977 2.814.453 3.156 0 .414-.548.765-2.308.596-2.822-.168-.515-.674-.972-1.798-.686-1.123.286-3.624 1.38-4.186-.392z"/>
    <path fill="#03224C" fill-rule="evenodd" d="M31.45 10.447c-.582.395-1.645.857-2.099 1.038l-.092.037-.058-.082c-.263-.364-.569-.84-.69-1.031l.218-.141c.11.176.377.591.62.936.491-.2 1.436-.62 1.958-.975l.142.218z" clip-rule="evenodd"/>
    <path fill="#fff" d="M13.76 19.574c.055-.286.504-.728.722-.913l.092.466c.305.149.996.548 1.32.95.406.501.81 1.594.6 1.576-.212-.018-2.415-.699-2.468-.824-.053-.126-.335-.896-.266-1.255zM16.737 19.06l.784.101.427 1.573-.868-.158-.343-1.516z"/>
    <path fill="#03224C" fill-rule="evenodd" d="M16.57 18.906l1.053.136.503 1.857-1.152-.21-.403-1.783zm.334.307l.282 1.25.584.105-.35-1.288-.516-.067z" clip-rule="evenodd"/>
    <path fill="#fff" d="M23.665 36.568c-.2-2.178.988-8.218 1.601-10.884 3.101 1.82 6.68 1.031 8.238-.18.774 4.835-.323 16.312-.968 21.446-1.033.71-2.066.296-2.454 0-.206-5.174-.602-13.388-.774-16.848-.56 1.993-1.678 6.227-1.678 7.225v9.623c-1.24.553-2.101.23-2.377 0-.446-2.553-1.388-8.203-1.588-10.382z"/>
    <path fill="#03224C" fill-rule="evenodd" d="M33.55 25.384c.043.017.073.055.08.1.39 2.434.308 6.526.05 10.64-.259 4.118-.695 8.274-1.018 10.844-.005.037-.025.07-.055.091-1.093.752-2.188.314-2.602-.003-.031-.024-.05-.06-.052-.1-.192-4.81-.547-12.248-.735-16.05-.256.937-.566 2.112-.835 3.214-.175.715-.332 1.398-.445 1.964-.114.57-.18 1.01-.18 1.244v9.623c0 .052-.03.099-.078.12-1.276.569-2.19.248-2.51-.019-.023-.02-.04-.047-.045-.078-.445-2.551-1.388-8.208-1.59-10.393-.1-1.11.15-3.18.498-5.293.35-2.119.8-4.298 1.107-5.633.01-.04.037-.074.074-.09.038-.017.08-.014.116.006 1.524.895 3.167 1.15 4.623 1.03 1.457-.12 2.716-.612 3.472-1.2.036-.027.084-.034.126-.017zm-8.198.5c-.304 1.341-.732 3.422-1.066 5.447-.349 2.12-.593 4.156-.494 5.226.198 2.158 1.128 7.743 1.578 10.32.266.191 1.025.454 2.13-.012v-9.537c0-.265.073-.73.186-1.296.115-.571.273-1.258.448-1.975.35-1.434.77-2.993 1.05-3.99.017-.061.075-.1.138-.094.062.008.11.06.114.124.17 3.445.564 11.606.772 16.785.386.266 1.291.59 2.207-.007.322-2.57.752-6.687 1.008-10.768.251-3.998.333-7.947-.015-10.37-.81.564-2.042 1.01-3.435 1.125-1.451.119-3.088-.123-4.621-.978z" clip-rule="evenodd"/>
    <path fill="#03224C" d="M21.778 49.539c1.085-1.38 3.225-2.232 3.496-2.485 1.088.33 2.306.138 2.78 0 1.082.897.409 1.795-1.083 2.485-1.493.69-6.549 1.726-5.193 0zM28.881 48.833c.274-.52.963-1.34 1.274-1.685 1.02.241 1.894.1 2.204 0 .425.403.873.779.873 1.526 0 .77-1.094 2.58-3.29 2.32-1.277-.151-1.403-1.513-1.061-2.161z"/>
    <path fill="#03224C" fill-rule="evenodd" d="M15.351 21.03c.304.006.576-.067.711-.274.228-.35.584-.523.791-.584l-.306-.788-.029-.01c-.028-.011-.066-.03-.112-.054l-.028-.014c-.095-.049-.233-.12-.434-.21-1.25-.562-2.024-.11-2.235.13-.114.13-.245.312-.288.459-.022.074-.018.123.002.154.02.029.066.062.181.068.18.01.4-.069.59-.18.094-.056.179-.118.245-.178.068-.061.113-.118.132-.16l.014-.031.034-.006c.205-.038.374-.015.514.051.139.067.242.174.32.298.149.233.214.534.26.75l.007.028.014.066-.066.013c-.238.046-.568.058-.919.047-.103-.003-.183.01-.24.03-.057.02-.082.047-.09.065-.007.014-.01.034.012.063.022.031.069.07.15.105.166.073.47.156.77.162zm-.002.132c-.318-.006-.64-.093-.82-.173-.093-.04-.163-.091-.205-.149-.043-.06-.055-.13-.024-.197.03-.062.091-.105.165-.132.076-.028.174-.041.289-.038.314.01.605 0 .823-.033-.047-.213-.108-.47-.234-.668-.069-.109-.155-.196-.267-.25-.104-.05-.235-.071-.403-.045-.033.056-.085.114-.146.17-.074.067-.166.135-.267.194-.2.117-.446.209-.662.197-.133-.006-.232-.046-.284-.127-.052-.079-.045-.176-.019-.264.052-.176.2-.376.316-.51.253-.285 1.09-.745 2.387-.161.204.092.344.163.439.212l.028.014c.048.025.08.04.101.049l.01.003.05-.028.406 1.042-.078.015c-.16.031-.548.185-.782.546-.174.267-.509.339-.823.333z" clip-rule="evenodd"/>
    <g clip-path="url(#clip0)">
        <path fill="#FAFAFA" d="M17.318 11.797c-.832-.43-1.024-1.52-1.024-2.18l-1.922.164c0 .199.128.793 0 1.256-.256 1.058-2.402 1.85-3.01 2.446-.608.594-2.05 5.683-2.434 6.477-.32.627-2.37 2.346-3.362 3.106l.865 1.024c1.216-.595 3.746-1.982 4.29-2.577.513-.595 1.281-2.71 1.57-3.701.096 1.057 1.184 3.04 1.184 4.064 0 1.025-2.433 5.255-2.113 14.805 2.722 1.983 9.287.826 10.632 0-.353-9.98-3.043-13.747-3.043-14.805 0-1.057.769-3.14.865-4.064.288.859 1.249 2.379 1.985 3.337.385.496 1.09 1.388 1.986 2.313l1.024-1.057c-.96-1.454-1.377-2.346-1.825-3.239-.384-.793-1.409-3.866-2.434-5.254-.96-1.388-2.177-1.62-3.234-2.115z"/>
        <path fill="#03224C" d="M16.037 37.904c-1.825 0-3.618-.298-4.74-1.124-.031-.033-.063-.066-.063-.132-.256-7.303 1.12-11.533 1.793-13.549.192-.595.32-1.024.32-1.255 0-.496-.32-1.322-.608-2.082-.192-.463-.352-.926-.48-1.355-.32.892-.93 2.61-1.441 3.205-.641.793-4.163 2.578-4.324 2.644-.064.033-.16 0-.192-.033l-.864-1.024c-.032-.034-.032-.067-.032-.133 0-.033.032-.099.064-.099 1.185-.925 3.042-2.478 3.298-3.04.128-.264.384-1.09.705-2.049.736-2.313 1.345-4.098 1.76-4.494.225-.232.61-.43 1.057-.694.801-.463 1.762-1.025 1.922-1.652.064-.298.032-.661 0-.926 0-.132-.032-.231-.032-.297 0-.066.064-.132.16-.165l1.921-.166c.032 0 .096 0 .128.033s.064.067.064.133c0 .363.064 1.586.93 2.015.223.133.48.232.736.33.832.364 1.793.728 2.593 1.851.705.992 1.41 2.776 1.922 4.065.224.529.384.991.512 1.223l.192.396c.384.793.8 1.62 1.633 2.842.032.066.032.166-.032.199l-1.024 1.057c-.064.066-.16.066-.224 0-.833-.86-1.505-1.685-1.89-2.181l-.096-.198c-.608-.76-1.377-1.95-1.793-2.875-.064.33-.192.727-.288 1.156-.224.826-.48 1.752-.48 2.347 0 .23.192.694.416 1.322.768 1.95 2.37 5.98 2.626 13.482 0 .066-.033.132-.065.132-.864.53-3.522 1.09-6.084 1.09zm-4.515-1.322c2.626 1.818 8.774.826 10.311 0-.256-7.37-1.857-11.335-2.594-13.251-.288-.727-.448-1.157-.448-1.454 0-.628.256-1.52.48-2.413.193-.66.353-1.288.385-1.652 0-.066.064-.132.128-.165.064 0 .16.033.16.099.288.793 1.185 2.313 1.953 3.305l.128.132c.385.462.993 1.255 1.762 2.049l.832-.827c-.8-1.19-1.185-2.015-1.569-2.742l-.192-.397c-.128-.231-.288-.694-.512-1.223-.513-1.288-1.217-3.04-1.89-3.998-.736-1.025-1.6-1.388-2.465-1.752-.257-.099-.513-.198-.737-.33-.897-.463-1.089-1.586-1.12-2.148l-1.602.132v.1c.032.297.064.693-.032 1.024-.192.76-1.185 1.354-2.081 1.883-.417.231-.801.463-.993.661-.384.364-1.153 2.776-1.665 4.362-.32.992-.577 1.785-.737 2.082-.352.727-2.658 2.578-3.266 3.073l.672.793c1.441-.727 3.683-1.982 4.131-2.478.48-.529 1.185-2.478 1.537-3.635.032-.066.096-.132.16-.1.065 0 .129.067.129.133.032.463.32 1.19.576 1.85.32.794.64 1.653.64 2.215 0 .264-.128.694-.352 1.355-.608 1.95-1.953 6.113-1.729 13.317z"/>
        <path fill="#FAFAFA" d="M17.862 42.696c-.352-1.751-.608-4.527-.576-4.99.288 0 2.402-.23 3.106-.33-.128 2.28-.448 7.138-.448 8.13 0 .99.224 2.412.352 2.742-.512 1.058-1.825.562-2.273.297.064-.23.064-.43.192-1.453.064-.794.064-2.181-.353-4.396z"/>
        <path fill="#03224C" d="M19.24 49.04c-.61 0-1.186-.297-1.314-.396l-.096-.066.032-.132c.032-.165.064-.33.128-1.024l.032-.397c.065-.76.097-2.148-.352-4.329-.32-1.718-.608-4.527-.608-5.056v-.165h.16c.256 0 2.37-.232 3.106-.33l.192-.034v.199c-.032.826-.128 2.015-.192 3.205-.128 2.115-.256 4.263-.256 4.89 0 .926.224 2.347.352 2.678l.032.066-.032.066c-.16.33-.416.562-.736.66-.16.166-.32.166-.449.166zm-1.057-.594c.256.132.896.397 1.377.231.224-.066.384-.23.512-.43-.128-.429-.352-1.784-.352-2.742 0-.628.128-2.809.256-4.924.064-1.123.128-2.214.192-3.007-.737.1-2.242.264-2.786.297.032.727.256 3.173.576 4.825.449 2.247.417 3.635.353 4.428l-.032.397c-.032.529-.064.76-.096.925z"/>
        <path fill="#FAFAFA" d="M17.894 48.478c.224-.066.385.1.449.199 1.28.495 1.889-.199 2.049-.628.128-.86.672-.661.672-.397 0 0 0 .364-.16.661.257.132.929.595 1.762.991.8.364.832 1.719 0 1.719h-4.483c-.193-.033-.641-.165-.705-.694-.096-.694.16-1.752.416-1.85z"/>
        <path fill="#03224C" d="M22.698 51.155h-4.515c-.257-.033-.769-.231-.865-.826-.096-.628.128-1.85.544-1.983.257-.099.48.033.609.231.48.166.896.199 1.249.034.288-.133.48-.397.544-.595.096-.562.384-.76.64-.727.193.033.385.198.385.396 0 .033 0 .298-.096.595.096.033.192.1.288.165.352.199.8.496 1.345.727.544.265.768.893.672 1.388-.16.33-.448.595-.8.595zm-4.74-2.511c-.16.066-.416.99-.32 1.619.064.495.544.562.544.562h4.484c.32 0 .416-.232.416-.397.064-.363-.096-.826-.48-.991-.545-.232-1.025-.53-1.377-.76-.16-.1-.32-.199-.385-.232l-.16-.066.064-.165c.128-.264.128-.562.128-.595 0 0-.032-.033-.064-.033-.128 0-.256.132-.288.496-.064.165-.224.562-.736.793-.417.198-.929.198-1.537-.033l-.064-.033-.032-.033c.064 0-.032-.166-.193-.133z"/>
        <path fill="#03224C" d="M21.737 49.867c-.032 0-.064 0-.064-.033-.064-.033-.096-.1-.064-.165l.064-.397-.448.364c-.064.033-.128.033-.192 0-.064-.034-.097-.1-.064-.166l.064-.495-.32.363c-.065.066-.16.066-.225 0-.064-.066-.064-.165 0-.231l.673-.76c.032-.066.128-.066.192-.033s.096.099.096.165l-.096.628.448-.397c.064-.033.128-.033.192 0s.096.1.064.166l-.064.363.192-.165c.065-.066.16-.066.225 0 .064.066.064.165 0 .231l-.513.463c-.096.066-.128.099-.16.099z"/>
        <path fill="#fff" d="M14.5 9.748c-1.89-1.487-1.73-4.163-1.665-5.254h4.803c.096.43.192 1.719 0 3.338-.256 2.049-1.601 3.106-3.138 1.916z"/>
        <path fill="#03224C" d="M15.75 10.41c-.45 0-.898-.199-1.378-.53-1.953-1.552-1.793-4.328-1.73-5.386V4.33h5.093l.032.132c.064.364.224 1.653 0 3.404-.16 1.19-.705 2.115-1.441 2.412-.129.1-.353.133-.577.133zm-1.154-.794c.577.463 1.153.595 1.665.364.64-.264 1.09-1.09 1.25-2.181.191-1.52.095-2.677.031-3.172h-4.547c-.064 1.123-.128 3.602 1.601 4.99z"/>
        <path fill="#03224C" d="M13.347 7.403c1.89-.397 2.338-1.95 2.562-2.611.16.991 1.185 1.454 1.697 1.553l-.096 4.395c.384-.396 1.313-3.304 1.249-4.758-.064-1.454-.48-3.305-2.818-3.602-2.338-.298-4.227.892-4.163 3.47.032 2.048.736 4.23 1.057 5.056l.512-3.503z"/>
        <path fill="#03224C" d="M11.426 2.875c.512.826 1.12.76 1.377.628l2.69-1.024c.16-.397.288-1.256-.449-1.686-.736-.43-1.6.033-1.953.298-1.089-.397-2.305.76-1.665 1.784z"/>
        <path fill="#F4D8CD" d="M6.494 46l3.138-.992c.065-.033.097-.132 0-.165l-5.86-2.478c-.064-.033-.128-.033-.192 0l-3.042.925c-.064.033-.096.132 0 .165L6.302 46c.064.033.128.033.192 0z"/>
        <path fill="#03224C" d="M6.398 46.198c-.064 0-.128 0-.192-.033L.442 43.621c-.096-.034-.16-.133-.16-.265s.064-.198.16-.231l3.042-.925c.096-.034.192-.034.288 0l5.86 2.511c.097.033.16.132.16.264 0 .1-.063.199-.16.232l-3.138.991h-.096zM.794 43.39l5.572 2.479h.096l2.946-.926L3.74 42.53h-.096l-2.85.86z"/>
        <path fill="#03224C" d="M6.494 44.943c-.096 0-.16-.066-.16-.166V25.644c0-.1.064-.165.16-.165s.16.066.16.165v19.133c0 .1-.064.166-.16.166zM3.548 43.687c-.096 0-.16-.066-.16-.165v-19.1c0-.1.064-.166.16-.166s.16.066.16.165v19.134c0 .066-.096.132-.16.132z"/>
        <path fill="#03224C" d="M8.032 26.107c.096.033.128.132.096.23-.032.1-.128.133-.224.1l.128-.33zM2.14 23.86c-.097-.034-.129-.133-.097-.232s.129-.132.225-.099l-.128.33zm5.764 2.577L2.14 23.859l.128-.297 5.764 2.545-.128.33zM6.879 57.434c.619 0 1.12-.517 1.12-1.156 0-.64-.501-1.157-1.12-1.157-.62 0-1.121.518-1.121 1.157s.502 1.156 1.12 1.156zM2.428 55.12c.619 0 1.12-.517 1.12-1.156 0-.639-.501-1.156-1.12-1.156-.62 0-1.121.517-1.121 1.156 0 .639.502 1.157 1.12 1.157z"/>
        <path fill="#F4D8CD" d="M9.152 55.055V44.943l-2.85 1.024-5.22-2.346v9.716l5.7 2.908c.385-.232 1.762-.893 2.37-1.19z"/>
        <path fill="#03224C" d="M6.782 56.443c-.032 0-.064 0-.064-.033l-5.7-2.908c-.064-.034-.096-.1-.096-.133v-9.748c0-.066.032-.1.064-.132.032-.033.096-.033.16 0l5.188 2.313 2.786-.992c.064-.033.096 0 .16.033.032.034.064.067.064.133V55.12c0 .066-.032.132-.096.165-.64.297-1.985.958-2.37 1.19-.064-.066-.064-.033-.096-.033zm-5.54-3.206l5.54 2.842c.513-.297 1.858-.925 2.242-1.123v-9.782l-2.626.958H6.27l-5.028-2.247v9.352z"/>
        <path fill="#03224C" d="M4.957 53.6c-.096 0-.16-.066-.16-.165v-6.51c0-.099.064-.165.16-.165s.16.066.16.165v6.51c0 .1-.064.166-.16.166zm-2.21-1.189c-.096 0-.16-.066-.16-.165v-6.279c0-.1.064-.165.16-.165.097 0 .16.066.16.165v6.279c0 .099-.063.165-.16.165z"/>
        <path fill="#fff" d="M2.748 25.148c0-.33.512-1.024 1.056-1.19.417-.098 1.441-.495 1.826-.66l.64.826c-.096 1.024-1.313 1.454-1.89 1.487 0 .397 0 1.157-.127 1.157-.192.033-1.505-1.29-1.505-1.62z"/>
        <path fill="#03224C" d="M4.22 26.966c-.288 0-1.633-1.388-1.633-1.817 0-.43.609-1.19 1.185-1.322.417-.1 1.441-.496 1.793-.661l.129-.033.768.991v.066c-.096 1.058-1.249 1.52-1.89 1.62 0 .396 0 .958-.16 1.09-.063.033-.127.066-.191.066zM2.909 25.15c.032.23.928 1.19 1.28 1.42.033-.165.065-.528.033-.958v-.165h.16c.544-.033 1.6-.43 1.729-1.256l-.545-.694c-.448.166-1.344.53-1.729.628-.48.132-.928.793-.928 1.025zM15.78 12.79c-.992 0-1.536-.794-1.728-1.256l.288-.1c.032.067.48 1.356 1.857.992.576-.297.576-.562.576-.826l.16-.033.16.033c0 .297 0 .76-.768 1.156-.192 0-.384.034-.544.034z"/>
        <path fill="#FE3945" d="M12.835 12.822c.416-.23 1.057-.76 1.345-.99.352.792 1.313 1.288 2.113.99.8-.33.897-.925.897-.925.288.132.352.1 1.537.727 1.185.628 1.377.958 1.89 1.652.48.661 1.248 2.611 1.504 3.239.097.264.769 1.95 1.345 3.007.257.463.865 1.52 1.121 1.85l-.768.76c-.929-.958-1.25-1.354-1.73-2.015-.576-.76-1.024-1.355-1.505-2.148-.48-.793-.416-.958-.576-1.256-.16-.264-.384-.132-.416-.033-.032.066-.096.463-.16.86-.064.396-.673 2.478-.737 3.106-.064.595.032.727.512 1.85.48 1.124 1.217 2.81 1.89 6.477.544 2.941.704 5.618.672 6.61-4.515 1.586-8.774.99-10.183.032-.256-7.336 1.025-10.872 1.249-11.566.224-.694.736-2.313.832-2.643.097-.33.065-.43.065-.727 0-.298-.32-1.09-.417-1.421-.128-.33-.672-1.818-.736-2.148-.064-.364-.096-.397-.192-.43-.064-.033-.225 0-.289.132-.064.133-.608 1.686-.736 2.016-.128.33-.288.76-.737 1.52-.416.727-1.473 1.09-1.921 1.355-.352.198-1.633.86-2.21 1.19l-.544-.694c.673-.562 2.018-1.719 2.178-1.85.224-.199.864-.86.992-1.124.16-.298.289-.76.385-1.058.128-.33 1.248-3.734 1.44-4.263.193-.528.449-.991.577-1.156.128-.165.8-.628 1.313-.926z"/>
        <path fill="#FE3945" d="M16.165 37.706c-2.145 0-3.842-.463-4.643-.992l-.064-.033v-.099c-.16-4.626.256-8.493 1.185-11.5l.032-.132c.096-.297.224-.727.384-1.19.192-.628.384-1.255.448-1.454.064-.264.064-.33.064-.528v-.166c0-.198-.192-.76-.32-1.09-.032-.1-.064-.198-.096-.264-.032-.1-.128-.331-.224-.595-.224-.595-.48-1.322-.544-1.587 0-.066-.065-.264-.097-.33 0 0-.064 0-.096.066-.032.1-.288.793-.448 1.289-.096.297-.192.595-.256.694-.128.363-.32.793-.737 1.52-.352.628-1.12.991-1.633 1.256l-.32.165c-.352.198-1.57.826-2.21 1.19l-.128.066-.736-.926.128-.099c.8-.66 2.05-1.718 2.177-1.85.577-.562.897-.926.993-1.09.096-.2.192-.497.288-.76l.096-.298c.032-.133.257-.694.48-1.421.385-1.124.833-2.512.961-2.842.193-.562.449-1.025.609-1.223.128-.165.48-.363 1.025-.66l.288-.166c.416-.231 1.056-.727 1.313-.958l.16-.133.096.199c.32.76 1.217 1.156 1.921.892.673-.264.8-.76.8-.793l.033-.199.192.1c.064.033.128.066.224.099.192.066.48.198 1.313.628 1.153.594 1.409.958 1.825 1.553l.096.132c.449.595 1.025 2.049 1.377 2.908.064.132.096.264.16.364l.065.132c.192.462.768 1.916 1.28 2.842.289.495.865 1.52 1.09 1.817l.095.1-.928.958-.128-.1c-.833-.826-1.153-1.255-1.57-1.784l-.256-.264c-.576-.727-.992-1.322-1.473-2.115-.32-.529-.384-.793-.448-.992-.032-.099-.064-.165-.096-.264l-.064-.066c-.032 0-.032 0-.064.033 0 .033-.096.397-.16.793-.032.165-.128.562-.257 1.09-.192.728-.416 1.653-.48 2.016-.064.496 0 .628.32 1.388l.192.43c.48 1.123 1.185 2.809 1.89 6.444.544 2.875.704 5.618.672 6.642v.1l-.096.032c-2.05.76-4.035 1.025-5.7 1.025zm-4.419-1.223c1.473.925 5.636 1.421 9.863-.033 0-1.09-.16-3.701-.673-6.477-.672-3.602-1.376-5.287-1.857-6.378l-.192-.43c-.352-.793-.416-.958-.352-1.553.032-.396.256-1.255.48-2.048.128-.463.224-.893.256-1.058.064-.396.16-.793.16-.892.032-.132.16-.198.32-.232.16 0 .289.067.385.232.064.099.096.198.128.33.064.166.128.43.416.926.449.76.897 1.354 1.441 2.081l.225.298c.384.496.704.925 1.44 1.652l.513-.529c-.288-.43-.8-1.288-1.025-1.751-.544-.925-1.089-2.346-1.313-2.875l-.064-.132c-.032-.1-.096-.232-.16-.364-.32-.793-.929-2.28-1.313-2.842l-.096-.132c-.416-.562-.64-.892-1.73-1.454-.832-.43-1.12-.562-1.28-.628-.032 0-.032-.033-.064-.033-.096.232-.352.595-.929.826-.8.33-1.793-.099-2.241-.892-.32.264-.833.661-1.217.86l-.288.165c-.417.23-.865.462-.961.594-.128.133-.352.562-.544 1.124-.129.33-.577 1.718-.961 2.842-.224.694-.448 1.289-.48 1.42l-.096.298c-.097.265-.193.595-.289.793-.128.265-.672.794-1.024 1.19-.193.165-1.634 1.421-2.082 1.785l.384.462c.64-.33 1.762-.925 2.082-1.123.096-.066.224-.1.352-.166.512-.23 1.185-.594 1.505-1.123.417-.694.577-1.124.705-1.487.032-.132.128-.397.256-.694.288-.86.448-1.256.48-1.322.096-.198.32-.264.48-.198.193.066.225.198.289.561.064.232.32.992.512 1.554.096.264.16.495.224.595.032.066.064.165.096.264.192.529.32.958.32 1.223v.132c0 .198 0 .33-.063.628-.065.198-.257.859-.449 1.487-.128.462-.288.892-.384 1.19l-.032.131c-.897 2.875-1.281 6.676-1.153 11.203z"/>
        <path fill="#fff" d="M25.74 23.628c-.192-.099-.705-.826-.96-1.156l-.897.958c.256.264.8.86.896 1.256.128.495.96 2.478 1.281 2.313.256-.132-.032-.76-.192-1.09.288.462.929 1.454 1.28 1.454.353 0-.351-.959-.736-1.454.545.561 1.538 1.52 1.377 1.09-.16-.463-.736-1.024-.992-1.289.64.397 2.145.793 1.473.265-.833-.661-1.794-1.19-1.601-1.19.192 0 1.28.43.896 0s-1.6-1.024-1.825-1.157z"/>
        <path fill="#03224C" d="M27.181 27.528c-.032 0-.032 0 0 0-.256 0-.576-.33-.833-.661v.066c-.032.099-.096.165-.16.198s-.128.033-.224 0c-.448-.231-1.153-1.983-1.249-2.412-.064-.33-.544-.893-.832-1.19-.032-.033-.064-.066-.064-.132 0-.033 0-.1.032-.132l.896-.959c.032-.033.064-.066.128-.066.032 0 .096.033.128.066.353.496.769 1.025.897 1.124.064.033.16.099.288.165.48.265 1.25.661 1.57 1.024.064.067.192.199.096.364-.065.132-.193.132-.417.1.288.198.673.429.993.726.096.066.32.265.192.43-.128.198-.64.066-1.12-.1.191.232.384.496.448.728.064.198 0 .264-.064.297-.064.033-.16.1-.545-.231.064.165.064.297.032.363 0 .133-.064.232-.192.232zm-1.313-1.785c.064 0 .096.033.128.066.385.628.8 1.19 1.057 1.322-.096-.198-.384-.628-.769-1.123-.064-.067-.064-.166 0-.232s.16-.066.225 0c.352.364.672.694.928.892-.224-.33-.512-.627-.736-.826-.064-.066-.064-.165-.032-.231.064-.066.128-.1.224-.033.352.198.896.396 1.217.463-.353-.265-.737-.53-1.025-.727-.512-.33-.608-.397-.544-.562.032-.066.096-.133.192-.133.064 0 .192.034.384.067.064 0 .128.033.224.066-.352-.265-.96-.628-1.345-.793-.16-.067-.256-.133-.32-.166-.192-.132-.64-.727-.897-1.024l-.64.694c.224.231.704.793.8 1.223.128.528.801 1.982 1.057 2.18.032-.099-.064-.429-.288-.825-.032-.067-.032-.166.064-.232.032-.066.064-.066.096-.066z"/>
        <path fill="#FAFAFA" d="M12.803 43.125c-.352-2.445-.512-4.924-.576-5.915.96.33 2.465.529 3.17.595-.096 1.95-.769 6.708-.769 7.898 0 .958.256 2.38.385 2.974-1.217.66-1.986.264-2.21 0l.224-.826c-.064-.132-.224-.43-.224-.694 0-.33.416-.958 0-4.032z"/>
        <path fill="#03224C" d="M13.732 49.206c-.545 0-.929-.232-1.09-.43l-.063-.066.224-.826c-.096-.166-.224-.463-.224-.727 0-.1.032-.165.032-.298.096-.43.288-1.322-.032-3.734-.32-2.346-.513-4.825-.577-5.915v-.232l.225.067c.928.297 2.401.528 3.138.561h.16v.166c-.064.958-.224 2.544-.416 4.097-.193 1.653-.353 3.206-.353 3.8 0 .926.256 2.314.353 2.942l.032.132-.097.066c-.48.297-.928.397-1.312.397zm-.769-.562c.256.231.865.43 1.857-.033-.128-.661-.352-1.983-.352-2.875 0-.628.192-2.181.352-3.834.16-1.454.32-2.974.385-3.932-.737-.066-1.954-.264-2.85-.496.064 1.19.256 3.47.544 5.651.352 2.478.128 3.404.032 3.833-.032.1-.032.166-.032.232 0 .198.128.462.192.595l.032.066-.16.793z"/>
        <path fill="#FAFAFA" d="M12.579 48.611c.096-.198.288-.297.448-.363l.128.43c.032-.166.224-.43.32-.43h.865c.288 0 .352.33.384.43l.128-.496c.192.066.417.066.48.43.033.462-.255.462.065 1.123.256.495.192.958 0 1.057-.8.529-3.042.595-3.17-.363-.033-.298.352-.86.352-1.025 0-.231-.128-.528 0-.793z"/>
        <path fill="#03224C" d="M12.995 48.215l.16-.067c0-.033-.032-.066-.096-.099-.032-.033-.096-.033-.128 0l.064.166zm-.416.396l.16.066-.16-.066zm-.353 1.785l-.16.033.16-.033zm3.17.363l-.063-.165.064.165zm0-1.057l.129-.066-.128.066zm-.063-1.09l-.16.032.16-.033zm-.48-.464l.031-.165-.16-.033-.032.165.16.033zm-.129.496l-.16.066c.032.066.096.1.16.1s.128-.067.128-.133l-.128-.033zm-.384-.43v-.165.166zm-.897 0v-.165.166zm-.288.463l-.16.066c.032.066.096.133.16.1.064 0 .128-.067.16-.133l-.16-.033zm-.224-.595c-.128.066-.384.166-.512.463l.288.132c.064-.165.224-.231.352-.297l-.128-.298zm-.512.43c-.097.165-.064.364-.064.496 0 .066.032.132.032.198v.132h.32c0-.066 0-.132-.032-.165 0-.066-.032-.132-.032-.165 0-.133 0-.232.032-.33l-.256-.166zm0 .826c-.032.066-.032.1-.032.132-.032.066-.065.166-.129.265-.031.099-.096.198-.128.33-.032.1-.064.232-.032.33l.32-.033c0-.032 0-.099.033-.198.032-.099.064-.198.128-.297.032-.1.096-.198.128-.298.032-.033.032-.099.064-.132 0-.033.032-.099.032-.132h-.384v.033zm-.353 1.058c.032.33.256.528.513.66.256.133.608.199.96.232.353.033.737 0 1.057-.066.32-.066.64-.166.865-.33l-.16-.265c-.16.099-.449.198-.769.264s-.672.1-.993.066c-.32-.033-.608-.066-.832-.198-.224-.099-.32-.231-.352-.397l-.289.034zm3.363.528c.192-.066.256-.297.256-.528 0-.232-.064-.496-.192-.76l-.288.132c.096.231.16.462.16.594 0 .166-.064.232-.064.232l.128.33zm.096-1.288c-.128-.298-.128-.43-.096-.53.032-.098.096-.264.064-.528l-.32.033c.032.198-.033.265-.065.43-.032.198-.032.396.129.727l.288-.133zm-.032-1.058c-.032-.231-.128-.363-.256-.463-.129-.066-.257-.099-.32-.132l-.097.33c.128.034.192.034.256.067.032.033.096.066.096.198h.32zm-.8-.463l-.129.496.32.1.128-.496-.32-.1zm.191.463s0-.033-.032-.1c-.032-.032-.032-.098-.064-.164-.064-.133-.192-.265-.416-.265v.33c.064 0 .128.034.16.1.032.033.032.066.064.1 0 .032.032.098.032.131l.256-.132zm-.544-.529h-.897v.33h.897v-.33zm-.897 0c-.032 0-.096.033-.096.033-.032.033-.064.033-.064.066l-.128.133c-.064.099-.128.231-.16.33l.32.066c0-.033.064-.132.128-.231.032-.033.064-.066.064-.1h0l-.064-.297zm-.16.562l-.128-.43-.32.1.128.43.32-.1zM13.347 50.164c-.032 0-.064 0-.096-.033-.064-.066-.096-.165-.032-.231.032-.066.128-.1.224-.133h-.096c-.064 0-.128-.066-.16-.132s0-.165.064-.198c.032 0 .064-.033.096-.033-.064 0-.16-.033-.16-.132-.032-.1.032-.166.128-.198.032 0 .865-.199 1.345 0 .064.032.096.099.096.165s-.064.132-.128.132c-.16.033-.352.033-.576.099.224.033.448.066.608.132.064.033.128.1.096.165 0 .066-.064.133-.16.133-.576 0-1.057.099-1.153.165-.032.066-.064.099-.096.099z"/>
    </g>
    <defs>
        <clipPath id="clip0">
            <path fill="#fff" d="M0 0H28.5V57.5H0z" transform="translate(0.25)"/>
        </clipPath>
    </defs>
</svg>
