<svg xmlns="http://www.w3.org/2000/svg" width="58" height="58" fill="none" viewBox="0 0 58 58">
    <circle cx="29" cy="29" r="28.5" stroke="#FE3945"/>
    <mask id="bvilbdrlca" fill="#fff">
        <path fill-rule="evenodd" d="M24.147 39.768c.817.766 1.838 1.226 2.962 1.226 1.072 0 2.145-.46 2.911-1.226l7.61-7.865c3.983-4.034 4.494-9.192 1.225-12.512-1.532-1.583-3.677-2.451-5.975-2.451-2.554 0-5.107 1.072-6.997 3.013l-.357.357c-.204.256-.306.562-.256.868.052.307.256.562.511.715l3.167 1.686c.408.204.919.102 1.225-.256.511-.613 1.38-1.021 2.247-1.021.511 0 .97.102 1.43.357.664.358 1.175.97 1.38 1.686.152.715.101 1.379-.256 1.992-.51.868-1.481 1.378-2.503 1.378-.51 0-.97-.102-1.43-.357l-7.456-3.984c-.357-.204-.868-.102-1.174.205l-4.24 4.29c-1.582 1.583-1.582 4.187 0 5.77l5.976 6.129zm-4.545-10.52l3.677-3.78 6.894 3.677c.715.409 1.532.613 2.35.613 1.787 0 3.37-.92 4.238-2.4.613-1.073.766-2.35.409-3.524-.358-1.277-1.175-2.298-2.35-2.91-.714-.41-1.532-.614-2.349-.614-1.174 0-2.349.409-3.217 1.175l-1.277-.664c1.43-1.175 3.218-1.839 4.954-1.839 1.736 0 3.37.664 4.545 1.89 2.86 2.911 1.38 7.048-1.225 9.703l-7.61 7.763c-.408.409-.97.613-1.532.613-.613 0-1.124-.204-1.532-.613l-5.975-6.077c-.817-.869-.817-2.196 0-3.014zm5.362 5.31c.204.205.46.307.715.307.255 0 .51-.102.715-.306.409-.409.409-1.022 0-1.43l-1.685-1.685c-.409-.409-1.022-.409-1.43 0-.409.408-.409 1.02 0 1.43l1.685 1.685z" clip-rule="evenodd"/>
    </mask>
    <path fill="#FE3945" fill-rule="evenodd" d="M24.147 39.768c.817.766 1.838 1.226 2.962 1.226 1.072 0 2.145-.46 2.911-1.226l7.61-7.865c3.983-4.034 4.494-9.192 1.225-12.512-1.532-1.583-3.677-2.451-5.975-2.451-2.554 0-5.107 1.072-6.997 3.013l-.357.357c-.204.256-.306.562-.256.868.052.307.256.562.511.715l3.167 1.686c.408.204.919.102 1.225-.256.511-.613 1.38-1.021 2.247-1.021.511 0 .97.102 1.43.357.664.358 1.175.97 1.38 1.686.152.715.101 1.379-.256 1.992-.51.868-1.481 1.378-2.503 1.378-.51 0-.97-.102-1.43-.357l-7.456-3.984c-.357-.204-.868-.102-1.174.205l-4.24 4.29c-1.582 1.583-1.582 4.187 0 5.77l5.976 6.129zm-4.545-10.52l3.677-3.78 6.894 3.677c.715.409 1.532.613 2.35.613 1.787 0 3.37-.92 4.238-2.4.613-1.073.766-2.35.409-3.524-.358-1.277-1.175-2.298-2.35-2.91-.714-.41-1.532-.614-2.349-.614-1.174 0-2.349.409-3.217 1.175l-1.277-.664c1.43-1.175 3.218-1.839 4.954-1.839 1.736 0 3.37.664 4.545 1.89 2.86 2.911 1.38 7.048-1.225 9.703l-7.61 7.763c-.408.409-.97.613-1.532.613-.613 0-1.124-.204-1.532-.613l-5.975-6.077c-.817-.869-.817-2.196 0-3.014zm5.362 5.31c.204.205.46.307.715.307.255 0 .51-.102.715-.306.409-.409.409-1.022 0-1.43l-1.685-1.685c-.409-.409-1.022-.409-1.43 0-.409.408-.409 1.02 0 1.43l1.685 1.685z" clip-rule="evenodd"/>
    <path fill="#FFF3EE" d="M24.147 39.768l-.22.214.01.01.21-.224zm5.873 0l.217.217.003-.004-.22-.213zm7.61-7.865l-.219-.215-.002.002.22.213zm1.225-12.512l-.22.213.002.002.218-.215zm-12.972.562l.217.216.003-.003-.22-.213zm-.357.357l-.217-.216-.012.011-.01.014.239.191zm-.256.868l.303-.05-.303.05zm.511.715l-.157.263.006.004.007.004.144-.27zm3.167 1.686l-.144.27.007.004.137-.274zm1.225-.256l.233.2.003-.003-.236-.197zm3.677-.664l-.148.268.003.002.145-.27zm1.38 1.686l.299-.064-.002-.01-.003-.01-.295.084zm-.256 1.992l.264.155v-.001l-.264-.154zm-3.932 1.02l.148-.267-.004-.002-.145.27zm-7.457-3.983l-.152.267.008.004.144-.27zm-1.174.205l-.217-.217-.001.001.218.216zm-4.24 4.29l.217.216.002-.001-.218-.215zm0 5.77l.22-.213-.003-.003-.216.216zm5.108-8.17l.144-.271-.203-.108-.16.165.219.213zm-3.677 3.778l.216.217.003-.003-.22-.213zm10.571-.102l.152-.266-.008-.004-.144.27zm6.588-1.787l.265.155.001-.003-.266-.152zm.409-3.524l-.295.083.002.006.293-.089zm-2.35-2.91l-.151.265.01.006.142-.272zm-5.566.56l-.141.273.186.097.158-.14-.203-.23zm-1.277-.663l-.194-.237-.359.295.412.214.141-.272zm9.5.051l-.222.212.003.003.218-.215zm-1.226 9.703l-.22-.214.22.214zm-7.61 7.763l.217.217.002-.002-.219-.215zm-3.064 0l-.219.215.002.002.217-.217zm-5.975-6.077l-.224.21.005.005.219-.215zm5.362 2.298l-.217.217.217-.217zm1.43-1.43l.217-.217-.217.217zm-1.685-1.685l-.217.216.217-.216zm-1.43 0l-.217-.217.217.216zm0 1.43l-.217.216.217-.217zm3.83 7.813c-1.036 0-1.984-.422-2.752-1.143l-.42.448c.866.812 1.96 1.308 3.172 1.308v-.613zm2.694-1.136c-.71.711-1.706 1.136-2.694 1.136v.613c1.157 0 2.307-.494 3.128-1.315l-.434-.434zm7.606-7.86l-7.61 7.864.441.426 7.61-7.865-.44-.426zm1.228-12.085c3.114 3.162 2.681 8.125-1.226 12.082l.437.43c4.06-4.112 4.649-9.465 1.226-12.942l-.437.43zm-5.757-2.36c2.22 0 4.284.838 5.755 2.358l.44-.426c-1.593-1.647-3.82-2.545-6.195-2.545v.613zm-6.777 2.92c1.833-1.883 4.308-2.92 6.777-2.92v-.613c-2.638 0-5.27 1.108-7.216 3.106l.439.427zm-.36.36l.357-.357-.433-.433-.358.357.433.434zm-.17.602c-.034-.203.03-.424.192-.626l-.478-.383c-.247.308-.387.7-.319 1.11l.605-.101zm.366.503c-.193-.116-.333-.301-.366-.503l-.605.1c.069.412.338.738.656.928l.315-.525zm3.153 1.677l-3.167-1.685-.288.54 3.167 1.686.288-.54zm.849-.184c-.217.252-.575.321-.856.18l-.274.549c.536.268 1.198.132 1.595-.33l-.465-.4zm2.48-1.128c-.956 0-1.912.446-2.483 1.131l.47.393c.45-.54 1.232-.912 2.012-.912v-.613zm1.578.396c-.51-.284-1.022-.396-1.579-.396v.612c.465 0 .873.092 1.282.32l.297-.536zm1.525 1.869c-.228-.8-.796-1.477-1.528-1.871l-.291.54c.595.32 1.05.868 1.23 1.499l.589-.168zm-.285 2.23c.405-.694.455-1.44.29-2.21l-.6.128c.142.66.09 1.242-.22 1.773l.53.309zm-2.768 1.53c1.12 0 2.196-.559 2.767-1.53l-.528-.31c-.45.766-1.316 1.228-2.239 1.228v.613zm-1.578-.395c.51.283 1.022.396 1.578.396v-.613c-.465 0-.872-.092-1.28-.319l-.298.536zm-7.452-3.981l7.456 3.983.289-.54-7.456-3.984-.29.54zm-.814.15c.227-.226.589-.279.806-.155l.304-.532c-.497-.284-1.156-.133-1.543.254l.433.433zm-4.237 4.289l4.239-4.29-.436-.43-4.24 4.29.437.43zm-.002 5.339c-1.463-1.464-1.463-3.874 0-5.338l-.433-.433c-1.703 1.703-1.703 4.501 0 6.204l.433-.433zm5.978 6.131l-5.975-6.128-.439.427 5.976 6.129.438-.428zm-1.307-14.3l-3.677 3.78.44.427 3.676-3.779-.439-.427zm7.258 3.621l-6.894-3.677-.288.54 6.894 3.678.288-.541zm2.206.577c-.767 0-1.532-.192-2.198-.573l-.304.532c.764.437 1.634.654 2.502.654v-.613zm3.974-2.25c-.813 1.387-2.295 2.25-3.974 2.25v.613c1.895 0 3.579-.976 4.503-2.552l-.529-.31zm.38-3.279c.332 1.092.19 2.282-.382 3.283l.532.304c.654-1.144.819-2.508.436-3.765l-.586.178zm-2.198-2.728c1.098.573 1.86 1.525 2.196 2.722l.59-.166c-.38-1.356-1.252-2.447-2.503-3.1l-.283.544zm-2.208-.578c.767 0 1.532.191 2.198.572l.304-.532c-.764-.436-1.634-.653-2.502-.653v.613zm-3.014 1.098c.807-.713 1.908-1.098 3.014-1.098v-.613c-1.242 0-2.49.431-3.42 1.251l.406.46zm-1.621-.622l1.277.664.282-.544-1.276-.664-.283.544zm5.095-2.417c-1.812 0-3.667.692-5.148 1.908l.389.474c1.379-1.133 3.099-1.77 4.76-1.77v-.612zm4.767 1.984c-1.236-1.29-2.952-1.984-4.767-1.984v.613c1.658 0 3.21.633 4.324 1.795l.442-.424zm-1.229 10.13c1.334-1.36 2.392-3.11 2.744-4.912.355-1.814-.007-3.683-1.518-5.22l-.437.429c1.349 1.373 1.676 3.028 1.354 4.674-.324 1.657-1.309 3.304-2.58 4.6l.437.429zm-7.609 7.763l7.61-7.763-.438-.43-7.61 7.764.438.428zm-1.751.704c.634 0 1.276-.23 1.749-.702l-.434-.434c-.344.345-.825.523-1.315.523v.613zm-1.749-.702c.47.47 1.06.702 1.749.702v-.613c-.537 0-.968-.175-1.315-.523l-.434.434zm-5.977-6.08l5.975 6.078.437-.43-5.975-6.077-.437.43zm.002-3.444c-.94.94-.931 2.457-.006 3.44l.446-.42c-.71-.754-.7-1.893-.007-2.587l-.433-.433zm6.294 5.528c-.171 0-.35-.068-.498-.217l-.434.434c.26.26.593.396.932.396v-.613zm.498-.217c-.148.149-.326.217-.498.217v.613c.34 0 .672-.137.932-.396l-.434-.434zm0-.996c.29.288.29.707 0 .996l.434.434c.528-.529.528-1.336 0-1.864l-.434.434zm-1.685-1.686l1.685 1.686.434-.434-1.686-1.685-.433.433zm-.997 0c.29-.289.708-.289.997 0l.433-.433c-.528-.528-1.335-.528-1.863 0l.433.433zm0 .997c-.288-.29-.288-.708 0-.997l-.433-.433c-.528.528-.528 1.335 0 1.863l.433-.433zm1.686 1.685l-1.686-1.685-.433.433 1.685 1.685.434-.433z" mask="url(#bvilbdrlca)"/>
</svg>
