<svg width="134" height="97" viewBox="0 0 134 97" fill="none" xmlns="http://www.w3.org/2000/svg">
<path d="M12.7107 53.5621L77.9219 17.8234C79.6124 16.8969 81.5536 16.5315 83.4652 16.78L126.342 22.9719C128.639 24.5033 130.996 25.8183 131.702 29.8633C132.073 31.9847 132.656 33.0652 133.234 35.989C134.765 45.1776 133.234 46.709 133.234 46.709C133.234 46.709 132.468 47.4747 131.702 47.4747C121.922 55.9512 117.189 58.1111 115.884 62.0233C114.58 65.9355 103.879 71.9776 98.0108 71.9776C91.8851 86.5262 81.1651 78.869 73.5079 89.589C68.9137 91.1205 68.9137 94.1833 68.9137 94.1833H67.3822C64.3194 91.8862 53.1365 96.2709 45.9641 95.2928C38.7918 94.3148 39.1178 91.3806 33.2495 91.3806C27.3811 91.3806 27.0551 93.6627 18.9047 91.3806C10.7542 89.0985 15.6445 86.1643 10.4282 87.1424C6.25516 87.9248 2.16959 84.6429 0.648438 82.9041C2.73495 79.2527 9.55935 61.8214 12.7107 53.5621Z" fill="#FFF3EE"/>
<path fill-rule="evenodd" clip-rule="evenodd" d="M83.3814 17.4235C81.606 17.1928 79.8032 17.5321 78.2332 18.3925L13.7083 53.7552C14.0046 54.0784 14.3912 54.4495 14.8483 54.8059C15.6154 55.4039 16.5449 55.9321 17.5454 56.1465C19.7927 56.628 30.8362 59.0424 42.1143 61.2577C42.4656 61.3267 42.88 62.0234 42.88 62.0234H41.3486C41.3486 62.0234 19.5355 57.8987 17.2738 57.4141C16.0198 57.1454 14.9133 56.5004 14.0512 55.8283C13.62 55.4921 13.2408 55.142 12.9256 54.8151C11.3458 58.9384 9.05718 64.8154 6.88109 70.2045C4.68456 75.6443 2.58057 80.6436 1.43966 82.8082C2.19913 83.5981 3.40573 84.6148 4.85268 85.3996C6.51376 86.3006 8.42276 86.8596 10.3085 86.506C10.9755 86.3809 11.5085 86.3128 11.9404 86.3028C12.3702 86.2927 12.7429 86.3386 13.0631 86.4764C13.6601 86.7333 13.9117 87.2609 14.0845 87.6234C14.1059 87.6683 14.1261 87.7107 14.1457 87.7498C14.3433 88.145 14.6033 88.6014 15.2656 89.1015C15.9477 89.6164 17.0869 90.1993 19.0792 90.7571C23.0875 91.8794 25.1112 91.8645 26.833 91.5966C27.3104 91.5223 27.786 91.4229 28.288 91.3179C29.5959 91.0442 31.0831 90.7331 33.2492 90.7331C34.7734 90.7331 35.9212 90.9241 36.9007 91.2377C37.8742 91.5495 38.6572 91.9756 39.4311 92.4033L39.5334 92.4599C41.0252 93.285 42.6587 94.1886 46.0515 94.6513C48.6143 95.0007 51.2869 95.0113 54.013 95.022C53.9829 95.0219 55.8971 95.7148 55.8971 95.7148L54.013 95.022C55.1314 94.9491 55.8799 94.5706 57.4286 94.1834C60.4914 93.4177 60.9302 93.2536 62.4052 92.8738C62.7154 92.7939 63.0078 92.7186 63.2906 92.6534C64.1168 92.4627 64.9015 92.3487 65.7795 92.5099C66.5188 92.6457 67.2787 92.9678 68.1627 93.5262C69.8374 91.566 72.4155 88.8496 75.156 86.5531C76.6329 85.3155 78.1716 84.1874 79.653 83.3655C81.1217 82.5507 82.5984 82.0005 83.9347 82.0005C86.7101 82.0005 89.6025 80.9165 91.9701 79.3382C94.3507 77.7511 96.0974 75.7345 96.6865 73.9672C97.0765 72.7972 97.8411 72.0554 98.8517 71.4715C99.6687 70.9994 100.696 70.6047 101.852 70.1608C102.073 70.0761 102.298 69.9896 102.527 69.9004C105.423 68.7742 109.342 67.0955 114.156 62.9238C116.579 60.8238 118.076 59.2741 119.223 58.0378C119.421 57.824 119.611 57.6179 119.794 57.4184C120.661 56.4743 124.698 52.7969 125.577 52.0691C127.669 50.3365 133.234 45.9434 133.234 46.7091C133.234 46.7091 133.234 42.8806 132.914 38.3426C132.335 35.4137 131.864 32.8487 131.493 30.7229C130.834 26.9474 127.826 23.9833 124.046 23.4919L83.3814 17.4235ZM77.6102 17.2557C79.4211 16.2632 81.5006 15.8718 83.5485 16.1379L124.213 22.2063C128.576 22.7734 132.017 26.1854 132.77 30.4999C133.14 32.6169 133.423 36.8989 134 39.8177C134 47.4749 133.234 46.7091 133.234 46.7091C133.234 47.4749 132.529 47.5468 131.703 48.373C129.406 49.772 130.171 49.772 126.343 52.8349C125.538 53.5013 121.632 57.3346 120.768 58.2745C120.581 58.4783 120.384 58.6928 120.174 58.9195C119.003 60.1808 117.472 61.7652 115.005 63.9034C110.038 68.2082 105.97 69.9527 102.997 71.1086C102.752 71.204 102.517 71.2946 102.291 71.3815C101.132 71.8273 100.221 72.1777 99.5003 72.594C98.6771 73.0696 98.2735 73.4887 98.0114 74.2749C97.2965 76.4198 95.1988 78.7438 92.6892 80.4169C90.1665 82.0987 87.0276 83.2969 83.9347 83.2969C82.9237 83.2969 81.6781 83.7246 80.2819 84.4992C78.8984 85.2667 77.4296 86.3392 75.9887 87.5467C73.1071 89.9615 70.3954 92.8663 68.7838 94.8003C68.5689 95.0581 68.1928 95.1093 67.9169 94.9183C66.8985 94.2132 66.17 93.8998 65.5453 93.785C64.9256 93.6712 64.3452 93.7405 63.5821 93.9166C63.3206 93.9769 63.0428 94.0487 62.7424 94.1262C61.26 94.5089 55.8971 95.7148 55.8971 95.7148C54.9013 95.6932 55.1079 96.3235 54.0894 96.3195C51.3333 96.3087 48.5303 96.2977 45.8763 95.9358C42.2445 95.4405 40.4496 94.448 38.8938 93.5876L38.804 93.538C38.0294 93.1099 37.3453 92.7414 36.5053 92.4724C35.6713 92.2053 34.6592 92.0295 33.2492 92.0295C31.2251 92.0295 29.9322 92.3006 28.6635 92.5667C28.1328 92.6779 27.6063 92.7883 27.0323 92.8776C25.0864 93.1803 22.8718 93.1653 18.7297 92.0055C16.6468 91.4223 15.3408 90.7826 14.4845 90.1361C13.6084 89.4747 13.2368 88.8309 12.9861 88.3295L12.9805 88.3183C12.7143 87.7859 12.6836 87.7244 12.5506 87.6672C12.4684 87.6318 12.3037 87.591 11.9707 87.5988C11.6397 87.6066 11.1846 87.6607 10.5474 87.7802C8.26015 88.2091 6.03984 87.5183 4.2346 86.5392C2.4266 85.5586 0.965879 84.2524 0.160352 83.3317C-0.021607 83.1237 -0.0516945 82.8232 0.085413 82.5833C1.10137 80.8053 3.31016 75.5855 5.67898 69.7191C8.03784 63.8773 10.5302 57.4587 12.1049 53.3318C12.1598 53.188 12.264 53.0684 12.399 52.9944L77.6102 17.2557ZM130.506 27.9282L71.0755 66.5008C71.2715 69.0529 71.4862 78.8413 71.9771 82.4173C72.2355 84.299 71.6569 86.0593 71.9771 87.5899C72.3008 89.1368 71.6366 87.3524 71.9771 88.0577C71.2114 88.0577 71.9771 88.0577 71.2114 88.0577C71.2114 88.0577 71.2114 88.0577 71.0755 87.641C70.6605 86.7814 71.4008 83.9724 71.0755 82.4173C70.7468 80.846 71.0926 79.2352 70.8321 77.3377C70.3434 73.7785 70.51 67.2552 70.3107 64.6848L129.925 27.0151C129.925 27.0151 130.294 27.5663 130.506 27.9282ZM19.8123 61.963C20.1541 62.0696 20.3448 62.433 20.2383 62.7747C16.3842 75.1418 13.4058 82.5396 12.385 84.7166C12.233 85.0407 11.8471 85.1803 11.5229 85.0283C11.1988 84.8763 11.0592 84.4903 11.2112 84.1662C12.1963 82.0655 15.1545 74.7307 19.0006 62.389C19.1071 62.0473 19.4705 61.8565 19.8123 61.963ZM29.0971 64.3206C29.0971 64.3206 30.6286 63.5549 30.6286 64.3206C30.1282 67.056 27.204 72.4166 26.8 74.2749C26.724 74.6247 26.0343 74.6328 26.0343 74.2749C26.0343 73.5091 25.9582 73.0932 26.0343 72.7434C26.4325 70.9116 29.0971 64.3206 29.0971 64.3206ZM76.9611 66.0427C77.3154 65.9913 77.6442 66.2369 77.6955 66.5912C78.0511 69.0455 79.3358 74.9222 81.5957 78.8573C81.7739 79.1677 81.6668 79.5639 81.3563 79.7422C81.0459 79.9205 80.6497 79.8133 80.4714 79.5029C78.0894 75.355 76.7759 69.2856 76.4125 66.7771C76.3612 66.4228 76.6068 66.094 76.9611 66.0427Z" fill="#03224C"/>
<path d="M45.3439 67.4847C45.6963 67.5472 45.9314 67.8837 45.8689 68.2361C45.0691 72.7447 43.6223 83.3817 44.172 90.0293C44.2015 90.3861 43.9362 90.6992 43.5794 90.7287C43.2227 90.7582 42.9095 90.4929 42.88 90.1361C42.3153 83.307 43.7913 72.5257 44.5924 68.0097C44.6549 67.6572 44.9914 67.4222 45.3439 67.4847Z" fill="#03224C"/>
<path d="M125.576 27.3985L73.6837 20.2702C69.8928 19.7771 68.8961 20.2702 66.7963 21.4379C65.1165 22.372 64.7022 24.4087 64.7051 25.3102C91.9577 29.1434 119.867 34.0801 122.514 34.4582C125.16 34.8362 123.122 46.0163 123.279 46.5414C123.279 48.8385 121.599 47.9498 123.279 54.1985C124.811 54.1985 126.351 54.1679 127.874 53.4328C127.874 53.4328 128.639 58.0271 127.108 42.7128C126.604 39.4362 128.36 27.7137 125.576 27.3985Z" fill="#F4D8CD"/>
<path fill-rule="evenodd" clip-rule="evenodd" d="M69.7392 20.8643C68.862 21.0491 68.1672 21.4158 67.1111 22.0031C66.4322 22.3807 65.9909 22.9904 65.7163 23.6381C65.5495 24.0313 65.4514 24.4225 65.4001 24.7522C92.8544 28.6138 109.166 31.7852 111.794 32.1607C114.539 32.5528 123.006 33.5857 123.28 34.4578C125.103 39.5673 122.273 47.8103 124.046 54.3664C125.615 53.4735 126.343 53.6007 127.874 53.6007C127.874 53.6007 128.171 53.7792 127.874 52.8349C127.279 50.9451 127.839 50.1089 127.108 47.4749C125.647 42.2056 127.341 39.9569 126.343 35.9892C126.146 34.7079 127.384 29.1314 125.577 28.3321C123.819 27.5544 117.735 26.9531 116.388 26.8007L73.5998 20.9117C71.7308 20.6686 70.6189 20.679 69.7392 20.8643ZM69.472 19.5957C70.5634 19.3658 71.8452 19.3762 73.7671 19.6262L123.28 26.8007C124.717 26.9639 124.435 26.7224 126.343 27.5664C128.194 28.3853 126.93 33.9633 127.252 35.9409C128.249 39.9027 126.42 42.2312 127.874 47.4749C128.603 50.1037 128.64 52.8349 128.64 52.8349C128.64 52.8349 128.64 52.8349 128.64 53.6007C128.64 54.3664 127.874 54.3664 127.874 54.3664H125.577L124.046 55.1321H123.28L122.514 54.3664C121.748 46.7092 124.046 41.3492 122.514 35.9892V35.2235C122.461 35.0466 113.557 33.2876 111.028 32.9264C108.383 32.5484 91.868 29.7842 64.6146 25.9509L64.0584 25.8727L64.0567 25.311C64.055 24.7786 64.173 23.9567 64.5227 23.132C64.8744 22.3025 65.4801 21.4268 66.481 20.8701C67.5247 20.2897 68.3782 19.8261 69.472 19.5957Z" fill="#03224C"/>
<path fill-rule="evenodd" clip-rule="evenodd" d="M80.4311 10.2932C80.7812 9.66504 81.3659 9.18848 82.105 9.18848C82.1208 9.18848 82.1366 9.18953 82.1523 9.19164L132.307 15.9175C132.414 15.9319 132.512 15.9942 132.579 16.0907C132.95 16.6289 133.008 17.1683 132.85 17.6286C132.793 17.7939 132.712 17.9372 132.622 18.0586C132.947 18.4926 133.235 19.2195 133.235 20.2706C133.235 21.7359 132.425 22.7249 131.889 23.1484C131.79 23.6622 131.581 24.023 131.309 24.2462C131.014 24.4875 130.687 24.5323 130.451 24.4872L81.2907 17.0418C81.2798 17.0402 81.2689 17.038 81.2581 17.0353C80.4315 16.8306 80.001 16.1821 79.8118 15.5063C79.6498 14.9278 79.6556 14.3122 79.7151 13.8655C79.5743 13.4835 79.6405 13.0969 79.746 12.8097C79.8279 12.5868 79.9446 12.3885 80.0574 12.2338C79.9764 11.5514 80.1213 10.849 80.4311 10.2932ZM81.115 10.7881C80.8782 11.213 80.7841 11.769 80.8865 12.274C80.9187 12.433 80.8749 12.5996 80.7711 12.7121C80.6832 12.8076 80.5613 12.9812 80.4934 13.1661C80.4258 13.3501 80.4361 13.4674 80.4811 13.5496C80.536 13.6498 80.555 13.7702 80.5344 13.8859C80.4729 14.2301 80.4542 14.7632 80.5837 15.2257C80.7055 15.6607 80.9455 16.007 81.415 16.1294L130.583 23.576C130.628 23.5851 130.733 23.5807 130.836 23.4966C130.928 23.4209 131.067 23.2407 131.122 22.8017C131.14 22.6599 131.214 22.5354 131.324 22.465C131.683 22.2341 132.425 21.4517 132.425 20.2706C132.425 19.0007 131.925 18.5313 131.817 18.4721C131.679 18.3968 131.59 18.2397 131.587 18.0658C131.584 17.8918 131.667 17.7306 131.801 17.6487C131.912 17.5813 132.042 17.4475 132.096 17.292C132.128 17.1962 132.151 17.0422 132.032 16.8101L82.0831 10.1119C81.6866 10.1209 81.3451 10.3754 81.115 10.7881Z" fill="#03224C"/>
<path d="M129.9 20.1782C129.746 21.0806 129.402 21.7746 129.131 21.7284C128.861 21.6822 128.766 20.9132 128.92 20.0108C129.074 19.1085 129.419 18.4144 129.689 18.4606C129.96 18.5069 130.054 19.2758 129.9 20.1782Z" fill="#03224C"/>
<path d="M91.0078 20.4969C91.0474 17.3942 92.2106 9.20944 96.5467 1.29121C99.6495 0.544935 108.282 -0.169928 117.992 2.94079C117.992 11.4256 115.164 19.9865 113.75 23.2064C108.8 23.521 97.3229 23.4195 91.0078 20.4969Z" fill="white"/>
<path fill-rule="evenodd" clip-rule="evenodd" d="M96.9777 1.85879C92.9976 9.2494 91.8 16.8253 91.6687 20.0822C94.6939 21.3828 98.8632 22.085 102.945 22.4203C106.854 22.7414 110.62 22.7216 113.101 22.595C113.148 14.9549 115.627 7.02298 117.119 3.34797C108.087 0.604869 100.116 1.18042 96.9777 1.85879ZM114.581 19.1044C115.005 14.6652 116.093 10.3572 117.127 7.1523C116.676 11.6767 115.596 15.958 114.581 19.1044ZM96.3963 0.661709C99.6093 -0.111066 108.363 -0.824326 118.191 2.32423L118.641 2.46855V2.94153C118.641 11.5433 115.782 20.1951 114.344 23.4677L114.186 23.829L113.792 23.854C111.289 24.0131 107.151 24.0666 102.839 23.7124C98.5434 23.3595 94.0014 22.5968 90.7367 21.0859L90.3555 20.9094L90.3608 20.4893C90.4016 17.2963 91.5853 9.00459 95.9793 0.980606L96.1172 0.728834L96.3963 0.661709Z" fill="#03224C"/>
<path d="M94.1543 22.4667C94.1733 20.9816 94.73 17.064 96.8055 13.2739C98.2906 12.9167 102.423 12.5746 107.07 14.0635C107.07 18.1247 105.716 22.2224 105.04 23.7636C102.671 23.9142 97.177 23.8656 94.1543 22.4667Z" fill="#FE3945"/>
<path fill-rule="evenodd" clip-rule="evenodd" d="M97.0134 13.546C95.1084 17.0834 94.5352 20.7096 94.4723 22.2685C95.9203 22.891 97.9159 23.2272 99.8698 23.3876C101.741 23.5413 103.543 23.5319 104.731 23.4712C104.753 19.8144 105.94 16.0178 106.654 14.2587C102.331 12.9458 98.5154 13.2213 97.0134 13.546ZM105.439 21.8005C105.642 19.6757 106.163 17.6137 106.658 16.0797C106.442 18.2453 105.925 20.2945 105.439 21.8005ZM96.7352 12.973C98.2731 12.6031 102.463 12.2617 107.167 13.7687L107.383 13.8378V14.0642C107.383 18.1814 106.014 22.3225 105.326 23.889L105.25 24.0619L105.062 24.0739C103.864 24.15 101.883 24.1756 99.819 24.0061C97.7629 23.8372 95.5889 23.4721 94.0262 22.7489L93.8438 22.6645L93.8463 22.4634C93.8658 20.935 94.4324 16.9663 96.5356 13.1256L96.6016 13.0051L96.7352 12.973Z" fill="#03224C"/>
<path d="M42.9063 48.4486C43.1086 50.2308 43.9184 51.5113 44.2114 51.6264C48.9384 53.0194 58.3331 55.1867 58.7887 55.1311C59.3582 55.0614 61.3198 53.5996 61.2565 51.0217C61.2059 48.9593 59.8433 47.7501 59.1683 47.4033C54.8023 46.2667 46.2957 44.4119 45.2567 44.4121C44.3507 44.4123 42.6534 46.2209 42.9063 48.4486Z" fill="white"/>
<path fill-rule="evenodd" clip-rule="evenodd" d="M44.6361 46.7172C44.2321 47.3489 43.96 48.1966 44.0558 49.11C44.1412 49.9248 44.3552 50.6231 44.5743 51.1232C44.6841 51.3736 44.7905 51.5638 44.875 51.6886C44.9037 51.731 44.9273 51.7619 44.9449 51.7832C47.1448 52.481 50.3909 53.3666 53.1584 54.0755C54.56 54.4345 55.8349 54.7472 56.7844 54.9663C57.2597 55.0759 57.6502 55.1614 57.9331 55.2174C58.0751 55.2455 58.1852 55.2653 58.2633 55.277C58.2882 55.2807 58.3067 55.2831 58.3196 55.2846C58.3607 55.2685 58.4739 55.2171 58.6473 55.0836C58.8497 54.9277 59.0867 54.6957 59.31 54.3915C59.7551 53.7855 60.1262 52.9232 60.1013 51.8242C60.063 50.1337 59.0541 49.1079 58.5275 48.7873C58.6744 49.0315 58.6741 49.3714 58.5088 49.6175C58.459 49.6918 58.3665 49.8899 58.2666 50.2186C58.1715 50.5312 58.0844 50.9133 58.026 51.3151C57.9177 52.0603 57.9275 52.7371 58.0607 53.1745C58.0847 53.1348 58.1113 53.0866 58.1399 53.0285C58.4007 52.4971 58.5645 51.6652 58.4646 51.0604C58.403 50.6876 58.6069 50.3258 58.92 50.2525C59.233 50.1791 59.5368 50.4219 59.5984 50.7948C59.7641 51.7979 59.5073 52.9694 59.1374 53.723C58.9623 54.0796 58.6872 54.4983 58.3 54.6529C58.0782 54.7415 57.8247 54.7386 57.586 54.5913C57.364 54.4542 57.212 54.2276 57.1069 53.9967C56.722 53.1503 56.7547 51.9942 56.8875 51.0804C56.9571 50.6014 57.0613 50.1411 57.1801 49.7502C57.294 49.3755 57.4379 49.0091 57.6064 48.7582C57.6567 48.6833 57.7174 48.6242 57.7841 48.5816C55.8084 48.0439 53.2179 47.3971 50.923 46.8601C49.6124 46.5534 48.4016 46.2833 47.4595 46.0901C46.9882 45.9935 46.5873 45.9168 46.2762 45.8645C45.9515 45.8098 45.7599 45.7882 45.6852 45.7882C45.6307 45.7882 45.4838 45.8273 45.2669 45.9972C45.0615 46.158 44.8374 46.4026 44.6361 46.7172ZM44.6321 44.8474C44.9447 44.6025 45.315 44.4122 45.685 44.4121C45.8538 44.4121 46.1243 44.4492 46.4378 44.5019C46.7651 44.557 47.1787 44.6362 47.6556 44.734C48.6099 44.9297 49.8303 45.202 51.1458 45.5098C53.7759 46.1253 56.7995 46.8859 58.855 47.4652C58.8934 47.476 58.9308 47.4915 58.9665 47.5113C59.7219 47.9316 61.2011 49.3483 61.2564 51.7871C61.2908 53.3035 60.7725 54.4904 60.1798 55.2975C59.8843 55.6998 59.5653 56.0153 59.2748 56.239C59.0045 56.4472 58.6982 56.6231 58.43 56.6586C58.3224 56.6728 58.1907 56.653 58.1205 56.6425C58.0205 56.6275 57.8918 56.6042 57.7436 56.5749C57.4459 56.5159 57.044 56.4278 56.5646 56.3172C55.605 56.0958 54.3219 55.781 52.9154 55.4208C50.1047 54.7008 46.7851 53.795 44.556 53.0838C44.5409 53.079 44.526 53.0735 44.5112 53.0672C44.374 53.0088 44.2666 52.9082 44.1979 52.8353C44.1204 52.7532 44.0457 52.6561 43.9755 52.5524C43.8346 52.3442 43.6879 52.0747 43.55 51.7598C43.2736 51.129 43.0134 50.2738 42.9092 49.2805C42.768 47.9339 43.1727 46.7342 43.717 45.8833C43.9899 45.4567 44.3078 45.1013 44.6321 44.8474Z" fill="#03224C"/>
</svg>
