<svg width="115" height="58" viewBox="0 0 115 58" fill="none" xmlns="http://www.w3.org/2000/svg">
<rect width="115" height="58" fill="white"/>
<path d="M0.904294 20.2818V35.5676C0.904294 36.316 1.28134 36.5218 1.45102 36.5592C3.01577 36.9147 5.56085 37.1767 6.14528 37.1767C6.7297 37.1767 7.21987 36.7276 8.29446 35.9044C11.3109 33.6031 17.4756 28.907 17.9092 28.5702C18.3428 28.2334 18.4182 27.5786 18.4559 26.7179C18.6633 22.5457 18.8707 14.1637 18.8707 13.4902C18.8707 12.8167 18.4748 12.4238 18.2674 12.2928C17.4568 12.1431 15.6846 11.8438 15.119 11.8438H14.1764C10.1231 14.0702 1.90347 18.6541 1.45102 19.047C0.998556 19.4399 0.885441 20.0386 0.904294 20.2818Z" fill="white"/>
<path d="M6.14538 37.5502C5.50439 37.5502 2.92161 37.2695 1.3757 36.9141C1.11177 36.8954 0.527344 36.5773 0.527344 35.567V20.2812C0.527344 19.9444 0.659311 19.2334 1.20603 18.747C1.79046 18.2418 12.7437 12.1986 14.0069 11.5063C14.0634 11.4689 14.12 11.4502 14.1954 11.4502H15.1191C15.8544 11.4502 18.2487 11.8992 18.3429 11.9179C18.3806 11.9179 18.4372 11.9366 18.4749 11.9741C18.7577 12.1425 19.2667 12.6663 19.2667 13.4896C19.2667 14.2379 19.0405 22.6199 18.8519 26.736C18.8142 27.6528 18.72 28.4386 18.1544 28.8689C17.7962 29.1495 13.611 32.3489 10.4437 34.7625L8.14374 36.5212C7.25767 37.1947 6.76751 37.5502 6.14538 37.5502ZM14.2708 12.2173C8.44538 15.4354 2.0921 18.9902 1.6962 19.327C1.338 19.645 1.26259 20.1315 1.26259 20.2812V35.5857C1.26259 36.0347 1.43226 36.1844 1.48882 36.2031C3.09128 36.5586 5.59866 36.8205 6.14538 36.8205C6.52243 36.8205 6.91833 36.5024 7.67243 35.9412L9.97243 34.1825C13.1396 31.7689 17.3249 28.5695 17.6831 28.2889C18.0036 28.0457 18.0413 27.4283 18.079 26.7173C18.2864 22.4328 18.4937 14.107 18.4937 13.5083C18.4937 13.0592 18.2487 12.7786 18.1167 12.6663C17.1364 12.4792 15.5905 12.236 15.1003 12.236H14.2708V12.2173ZM6.50357 34.3696C6.2962 34.3696 6.12652 34.2012 6.12652 33.9954V20.3934C6.01341 20.225 5.74948 19.907 5.39128 19.8508C4.84456 19.7573 3.69456 19.5141 3.18554 19.4205C2.97816 19.3831 2.8462 19.1773 2.8839 18.9715C2.92161 18.7657 3.12898 18.6347 3.33636 18.6721C3.82652 18.7657 4.97652 18.9902 5.52325 19.1025C6.01341 19.196 6.37161 19.4954 6.61669 19.776L17.3437 13.1715C17.5323 13.0592 17.7585 13.1154 17.8716 13.2837C17.9847 13.4708 17.9282 13.6954 17.7396 13.8076L6.88062 20.487V33.9766C6.88062 34.2012 6.71095 34.3696 6.50357 34.3696Z" fill="#03224C"/>
<path d="M6.76758 43.4249L8.80364 37.8682L14.3274 38.5791L8.80364 43.7617L6.76758 43.4249Z" fill="#03224C"/>
<path d="M91.1313 50.9466L83.4961 49.7305L89.8871 57.1582L92.8092 57.626L91.1313 50.9466Z" fill="#03224C"/>
<path d="M105.742 49.7309L105.064 48.3838L103.141 49.7309H105.742Z" fill="#03224C"/>
<path d="M22.2266 41.4986L22.943 40.0205L26.6757 40.6005L24.5454 41.9289L22.2266 41.4986Z" fill="#03224C"/>
<path d="M7.14524 24.2288L17.778 18.7843C18.0608 18.6346 18.4002 18.5785 18.7018 18.6346L107.553 31.7127V37.3069C107.553 37.8308 107.271 38.3359 106.818 38.6166L95.9215 45.2585L50.2797 38.1862L7.5977 31.5443C6.8436 31.4321 6.29688 30.7772 6.29688 30.0288V25.5946C6.29687 25.0333 6.61737 24.5095 7.14524 24.2288Z" fill="white"/>
<path d="M95.9204 45.5578H95.9015H95.8827L50.2409 38.4855L7.55889 31.8436C6.65398 31.6939 5.99414 30.9455 5.99414 30.0288V25.5946C5.99414 24.9023 6.37119 24.2849 6.99332 23.9668L17.6261 18.5223C17.9655 18.3352 18.3614 18.2791 18.7384 18.3352L107.59 31.4133C107.628 31.4133 107.647 31.432 107.665 31.432C107.684 31.432 107.684 31.4507 107.703 31.4507C107.741 31.4694 107.76 31.4881 107.779 31.5255C107.797 31.563 107.816 31.5817 107.835 31.6191C107.835 31.6378 107.835 31.6378 107.835 31.6565C107.835 31.6752 107.835 31.6939 107.835 31.7126V37.2881C107.835 37.9242 107.515 38.523 106.949 38.8597L96.0523 45.5017C96.0335 45.5204 95.9958 45.5391 95.9769 45.5391C95.9769 45.5578 95.9392 45.5578 95.9204 45.5578ZM50.3351 37.8868L95.6187 44.903V39.9823C95.6187 39.3649 95.9392 38.7849 96.4671 38.4294L106.704 31.8997L18.663 18.9526C18.3991 18.9152 18.154 18.9526 17.9089 19.0836L7.27611 24.5094C6.86135 24.7152 6.61627 25.1455 6.61627 25.5946V30.0288C6.61627 30.6275 7.04988 31.1513 7.65316 31.2449L49.449 37.7559C49.3736 37.6062 49.2982 37.4191 49.2228 37.232C49.1663 37.0449 49.1286 36.8578 49.1286 36.652V33.2281C49.1286 32.143 49.7884 31.6565 49.9769 31.5442C50.0146 31.5255 50.0712 31.4881 50.1089 31.4694C50.1466 31.4507 50.1843 31.432 50.222 31.3946L59.4974 25.4262C59.6482 25.3326 59.8368 25.3701 59.931 25.5197C60.0253 25.6694 59.9876 25.8565 59.8368 25.9501L50.5613 31.9184C50.5048 31.9559 50.4482 31.9746 50.4105 32.012L50.2974 32.0681C50.1654 32.143 49.7318 32.4797 49.7318 33.2468V36.6707C49.7318 36.8017 49.7507 36.9326 49.7884 37.0449C50.1089 37.8494 50.3163 37.8868 50.3351 37.8868ZM107.251 32.2739L96.8064 38.9533C96.4482 39.1778 96.2408 39.5707 96.2408 39.9823V44.7159L106.666 38.3546C107.043 38.1301 107.251 37.7372 107.251 37.3068V32.2739V32.2739ZM69.6966 35.8849C69.6777 35.8849 69.6589 35.8849 69.64 35.8849L52.8991 33.0972C52.7294 33.0784 52.6163 32.9101 52.654 32.7417C52.6728 32.5733 52.8425 32.4423 53.0122 32.4984L69.7531 35.2675C69.9228 35.2862 70.0359 35.4546 69.9982 35.623C69.9794 35.7726 69.8474 35.8849 69.6966 35.8849ZM46.9605 31.432C46.9417 31.432 46.9228 31.432 46.9228 31.432L9.5384 25.6881C9.36873 25.6694 9.25562 25.501 9.27447 25.3326C9.29332 25.1642 9.46299 25.052 9.63266 25.0707L46.9982 30.8146C47.1679 30.8333 47.281 31.0017 47.2622 31.1701C47.2245 31.3197 47.1113 31.432 46.9605 31.432Z" fill="#03224C"/>
<path d="M6.18359 32.3495C6.18359 31.9005 6.63605 31.545 6.86228 31.4141L95.7328 45.4837C99.2393 43.5753 106.818 38.7295 107.044 38.7295C107.27 38.7295 107.421 39.2534 107.478 39.5154C107.497 40.6379 107.516 42.9766 107.478 43.3321C107.44 43.6689 106.988 44.0805 106.761 44.2489C103.934 45.8392 98.127 50.2921 97.3164 50.816C96.5246 51.3212 95.9213 51.4708 95.7328 51.4895C66.3606 47.205 7.409 37.4573 6.86228 37.3076C6.31556 37.1579 6.18359 36.5405 6.18359 36.2599V32.3495V32.3495Z" fill="white"/>
<path d="M95.7517 51.8446C65.7763 47.5039 7.37139 37.831 6.76812 37.6626C6.10828 37.4943 5.80664 36.802 5.80664 36.2594V32.3491C5.80664 31.7317 6.35336 31.2639 6.69271 31.0955C6.76812 31.0581 6.84353 31.0394 6.93779 31.0581L95.6763 45.1091C97.6935 44.0052 101.012 41.9659 103.462 40.4504C106.856 38.3549 106.875 38.3549 107.063 38.3549C107.61 38.3549 107.817 39.122 107.874 39.4588C107.893 40.4504 107.912 42.9762 107.874 43.3691C107.817 43.9491 107.139 44.4543 106.988 44.5665C104.952 45.7078 101.389 48.3272 99.2583 49.8988C98.3911 50.5349 97.7689 50.9839 97.5427 51.1336C96.7132 51.6388 96.0534 51.8446 95.7517 51.8446ZM6.93779 31.8252C6.74926 31.9562 6.54189 32.162 6.54189 32.3678V36.2781C6.54189 36.2781 6.56074 36.8581 6.95664 36.9704C7.86156 37.1762 66.7378 46.9052 95.7706 51.1336C95.8271 51.1336 96.355 51.0026 97.0902 50.5162C97.2976 50.3852 97.9574 49.8988 98.7681 49.3001C100.898 47.7285 104.499 45.0904 106.535 43.9491C106.78 43.762 107.063 43.4626 107.063 43.3317C107.082 43.0323 107.082 40.9368 107.063 39.5523C107.044 39.4213 106.988 39.2904 106.95 39.1968C106.479 39.4588 105.178 40.2633 103.802 41.1052C101.313 42.6394 97.9009 44.7536 95.8648 45.8388C95.7894 45.8762 95.6952 45.8949 95.6198 45.8762L6.93779 31.8252Z" fill="#03224C"/>
<path d="M21.4353 5.18234L18.1738 18.4101L107.572 31.8436L111.494 16.7449C111.776 15.6785 111.06 14.5933 109.948 14.4249L27.355 1.83331C26.8837 1.75847 26.4124 1.87073 26.0165 2.13266L21.4353 5.18234Z" fill="white"/>
<path d="M18.1725 18.4104L17.8143 18.3168L17.7012 18.7097L18.1159 18.7659L18.1725 18.4104ZM21.434 5.18265L21.2266 4.86458L21.1135 4.95813L21.0758 5.10781L21.434 5.18265ZM26.0151 2.13297L25.8077 1.81491L26.0151 2.13297ZM27.3536 1.83362L27.4102 1.45942L27.3536 1.83362ZM109.946 14.4252L109.89 14.7994L109.946 14.4252ZM111.492 16.7452L111.85 16.8388L111.492 16.7452ZM107.571 31.8439L107.514 32.2181L107.854 32.2743L107.948 31.9562L107.571 31.8439ZM62.9848 11.6375L63.3618 11.7123V11.6936V11.6749L62.9848 11.6375ZM107.156 17.7743L107.514 17.8491L107.533 17.793V17.7368L107.156 17.7743ZM107.571 16.7826L107.326 16.502L107.571 16.7826ZM105.026 25.3704C104.988 25.5762 105.101 25.7633 105.309 25.8194C105.516 25.8755 105.704 25.7446 105.761 25.5388L105.026 25.3704ZM18.5495 18.4852L21.811 5.25749L21.0758 5.07039L17.8143 18.3168L18.5495 18.4852ZM21.6413 5.482L26.2225 2.43233L25.8077 1.81491L21.2266 4.86458L21.6413 5.482ZM27.2971 2.20781L109.89 14.7994L110.003 14.051L27.4102 1.45942L27.2971 2.20781ZM111.134 16.6517L107.213 31.7504L107.948 31.9375L111.85 16.8388L111.134 16.6517ZM107.627 31.4697L18.229 18.0362L18.1159 18.7846L107.514 32.2181L107.627 31.4697ZM24.0544 6.19297L62.9282 12.0117L63.0413 11.2633L24.1676 5.44458L24.0544 6.19297ZM63.3618 11.6749C63.3618 11.5814 63.3995 11.3943 63.4561 11.2072C63.5126 11.0201 63.5881 10.8517 63.6635 10.7581L63.0979 10.2717C62.9094 10.4775 62.7963 10.7768 62.7208 11.0014C62.6643 11.2259 62.6266 11.4504 62.6077 11.6001L63.3618 11.6749ZM63.6635 10.7394C63.9085 10.4588 64.6061 9.82265 64.9266 9.52329L64.4176 8.962C64.0971 9.24265 63.3807 9.9162 63.079 10.2343L63.6635 10.7394ZM62.6077 11.5626L60.3266 22.882L61.0618 23.0317L63.343 11.7123L62.6077 11.5626ZM72.5807 13.1904L107.1 18.1485L107.213 17.4001L72.6938 12.4607L72.5807 13.1904ZM107.533 17.7555C107.533 17.6994 107.533 17.5685 107.59 17.4188C107.627 17.2878 107.703 17.1568 107.816 17.0633L107.326 16.4833C107.081 16.6891 106.949 16.951 106.873 17.1755C106.798 17.4001 106.779 17.6246 106.779 17.7743L107.533 17.7555ZM107.816 17.0633C108.155 16.7826 108.834 16.3149 109.154 16.1091L108.74 15.4917C108.438 15.6975 107.703 16.1839 107.345 16.502L107.816 17.0633ZM106.798 17.6807L105.045 25.3704L105.78 25.5388L107.533 17.8491L106.798 17.6807ZM109.89 14.7994C110.776 14.9304 111.341 15.791 111.115 16.6517L111.85 16.8388C112.19 15.5478 111.322 14.2568 110.003 14.051L109.89 14.7994ZM26.2225 2.43233C26.543 2.22652 26.92 2.13297 27.2971 2.1891L27.4102 1.44071C26.8446 1.34717 26.279 1.47813 25.8077 1.7962L26.2225 2.43233Z" fill="#03224C"/>
<path d="M75.5781 27.5032C75.7666 26.6613 76.5396 24.5097 78.1798 22.62C79.0658 22.6013 81.4601 22.8819 83.9298 24.2852C83.4396 26.5864 82.1953 28.7381 81.6298 29.5239C80.2535 29.3181 77.1429 28.6445 75.5781 27.5032Z" fill="#FE3945"/>
<path d="M81.5924 29.6926C80.1596 29.4868 77.0301 28.7946 75.4654 27.6346L75.3711 27.5597L75.4088 27.4662C75.5973 26.5868 76.408 24.4165 78.0481 22.5081L78.1047 22.452H78.1801C79.1039 22.4333 81.5547 22.7326 84.0244 24.1358L83.9301 24.2855L84.1186 24.3229C83.6285 26.6242 82.3842 28.7946 81.7809 29.6365L81.6301 29.5242L81.5924 29.6926ZM75.7858 27.4288C77.2563 28.4578 80.0465 29.0939 81.4793 29.3184C81.9317 27.2791 83.044 25.2584 83.6662 24.3417C81.4227 23.1255 79.2358 22.8075 78.2932 22.8075C78.2744 22.8075 78.2744 22.8075 78.2555 22.8075C76.785 24.5662 76.0121 26.5307 75.7858 27.4288ZM83.4588 25.3707C82.9875 26.1939 82.4408 27.2978 82.0826 28.4765C82.5539 27.6533 83.0817 26.5681 83.4588 25.3707Z" fill="#03224C"/>
<path fill-rule="evenodd" clip-rule="evenodd" d="M23.7721 18.5412C24.6771 17.8676 25.2803 16.8012 25.2803 15.5851C25.2803 13.5644 23.6213 11.918 21.6041 11.918C20.9254 11.918 20.2844 12.1051 19.7377 12.4231L9.1992 18.2044C8.99182 18.2793 8.78445 18.3915 8.61477 18.5225L8.53936 18.5599C7.59674 19.2147 6.97461 20.3186 6.97461 21.5535C6.97461 23.5741 8.63363 25.2205 10.6697 25.2205C11.3861 25.2205 12.0459 25.0147 12.5926 24.678L23.1312 18.9341C23.3008 18.8593 23.4517 18.7657 23.6025 18.6722L23.7721 18.5412Z" fill="white"/>
<path fill-rule="evenodd" clip-rule="evenodd" d="M23.3949 18.0508L23.3992 18.0475C24.1601 17.4812 24.6587 16.5919 24.6587 15.5851C24.6587 13.9032 23.2761 12.535 21.6041 12.535C21.0412 12.535 20.5081 12.6901 20.0521 12.9555L20.0453 12.9594L9.45732 18.7678L9.4116 18.7843C9.26204 18.8383 9.11232 18.9201 8.99637 19.0096L8.94779 19.0471L8.86024 19.0905C8.09824 19.6366 7.59623 20.5422 7.59623 21.5535C7.59623 23.2332 8.97683 24.6035 10.6697 24.6035C11.2649 24.6035 11.8119 24.4327 12.2649 24.1537L12.2789 24.145L22.8549 18.3808L22.8787 18.3702C22.995 18.3189 23.1037 18.2537 23.2461 18.1656L23.3949 18.0508ZM8.53936 18.5599L8.61477 18.5225C8.78445 18.3915 8.99182 18.2793 9.1992 18.2044L19.7377 12.4231C20.2844 12.1051 20.9254 11.918 21.6041 11.918C23.6213 11.918 25.2803 13.5644 25.2803 15.5851C25.2803 16.8012 24.6771 17.8676 23.7721 18.5412L23.6025 18.6722C23.4517 18.7657 23.3008 18.8593 23.1312 18.9341L12.5926 24.678C12.0459 25.0147 11.3861 25.2205 10.6697 25.2205C8.63363 25.2205 6.97461 23.5741 6.97461 21.5535C6.97461 20.3186 7.59674 19.2147 8.53936 18.5599Z" fill="#03224C"/>
<path fill-rule="evenodd" clip-rule="evenodd" d="M106.818 31.208C107.723 30.5345 108.326 29.468 108.326 28.2519C108.326 26.2313 106.667 24.6035 104.631 24.6035C103.952 24.6035 103.311 24.7906 102.764 25.1087L92.2259 30.8713C92.0185 30.9648 91.8111 31.0771 91.6226 31.1893L91.5472 31.2267C90.6046 31.8816 89.9824 32.9855 89.9824 34.2203C89.9824 36.2409 91.6414 37.8687 93.6587 37.8687C94.375 37.8687 95.0349 37.6629 95.5816 37.3261L106.12 31.5822C106.29 31.5074 106.441 31.4325 106.591 31.3203L106.818 31.208Z" fill="white"/>
<path fill-rule="evenodd" clip-rule="evenodd" d="M103.072 25.6452L92.5048 31.4232L92.4831 31.433C92.3025 31.5144 92.1165 31.6148 91.9424 31.7184L91.9219 31.7306L91.8681 31.7573C91.1061 32.3034 90.604 33.209 90.604 34.2203C90.604 35.898 91.9826 37.2517 93.6587 37.2517C94.2538 37.2517 94.8008 37.0809 95.2538 36.8018L95.2679 36.7932L105.844 31.0289L105.868 31.0184C106.022 30.9503 106.123 30.8976 106.218 30.8266L106.263 30.7933L106.487 30.6821C107.224 30.1146 107.704 29.2398 107.704 28.2519C107.704 26.5762 106.328 25.2205 104.631 25.2205C104.068 25.2205 103.535 25.3757 103.079 25.641L103.072 25.6452ZM106.818 31.208C107.723 30.5345 108.326 29.468 108.326 28.2519C108.326 26.2313 106.667 24.6035 104.631 24.6035C103.952 24.6035 103.311 24.7906 102.764 25.1087L92.2259 30.8713C92.0185 30.9648 91.8111 31.0771 91.6226 31.1893L91.5472 31.2267C90.6046 31.8816 89.9824 32.9855 89.9824 34.2203C89.9824 36.2409 91.6414 37.8687 93.6587 37.8687C94.375 37.8687 95.0349 37.6629 95.5816 37.3261L106.12 31.5822C106.29 31.5074 106.441 31.4325 106.591 31.3203L106.818 31.208Z" fill="#03224C"/>
<path d="M95.1855 34.4068V49.6926C95.1855 50.441 95.5626 50.6468 95.7323 50.6842C97.297 51.0397 99.8421 51.3017 100.427 51.3017C101.011 51.3017 101.501 50.8526 102.576 50.0294C105.592 47.7281 111.757 43.032 112.19 42.6952C112.624 42.3584 112.699 41.7036 112.737 40.8429C112.945 36.6707 113.152 28.2887 113.152 27.6152C113.152 26.9417 112.756 26.5487 112.549 26.4178C111.738 26.2681 109.966 25.9688 109.381 25.9688H108.458C104.404 28.1952 96.1847 32.7791 95.7323 33.172C95.2798 33.5649 95.1667 34.1636 95.1855 34.4068Z" fill="white"/>
<path d="M100.427 51.6762C99.7856 51.6762 97.2029 51.3955 95.657 51.04C95.393 51.0213 94.8086 50.7033 94.8086 49.6929V34.4071C94.8086 34.0704 94.9406 33.3594 95.4873 32.8729C96.0906 32.3491 107.779 25.8942 108.288 25.6323C108.345 25.5949 108.401 25.5762 108.477 25.5762H109.4C110.154 25.5762 112.53 26.0252 112.643 26.0439C112.681 26.0439 112.737 26.0626 112.775 26.1C113.058 26.2684 113.567 26.7923 113.567 27.6155C113.567 28.2329 113.359 36.5962 113.152 40.862C113.114 41.76 113.02 42.5458 112.455 42.9949C112.021 43.3317 105.856 48.0278 102.84 50.3291L102.425 50.6471C101.539 51.302 101.049 51.6762 100.427 51.6762ZM108.552 26.3433C102.727 29.5426 96.3733 33.1162 95.9774 33.4529C95.6192 33.771 95.5438 34.2388 95.5438 34.4071V49.7117C95.5438 50.1607 95.7135 50.3104 95.7701 50.3291C97.3725 50.6846 99.8799 50.9465 100.427 50.9465C100.804 50.9465 101.2 50.6284 101.935 50.0671L102.35 49.7491C105.366 47.4478 111.531 42.7517 111.964 42.4149C112.285 42.1717 112.323 41.5542 112.36 40.8433C112.568 36.5775 112.775 28.2517 112.775 27.6342C112.775 27.1478 112.511 26.8858 112.398 26.7923C111.418 26.6052 109.872 26.362 109.382 26.362H108.552V26.3433ZM100.785 48.4768C100.577 48.4768 100.408 48.3084 100.408 48.1026V34.5007C100.295 34.3323 100.031 34.0142 99.6725 33.9581C99.1447 33.8646 98.0701 33.64 97.5422 33.5465C97.3348 33.5091 97.1651 33.3033 97.2217 33.0975C97.2594 32.8917 97.4291 32.7607 97.6365 32.7981C98.2209 32.9104 99.2955 33.1349 99.8233 33.2284C100.295 33.322 100.672 33.6213 100.917 33.902L111.644 27.2975C111.814 27.1852 112.059 27.2413 112.172 27.4097C112.285 27.5781 112.228 27.8213 112.059 27.9336L101.2 34.6129V48.1026C101.162 48.3084 100.992 48.4768 100.785 48.4768Z" fill="#03224C"/>
<path d="M26.5807 19.1213C26.2036 18.3542 24.9405 16.4458 22.9045 14.9678C22.0372 15.1362 19.7749 15.9781 17.7012 17.8865C18.7004 20.0007 20.4348 21.8155 21.17 22.4516C22.452 21.9652 25.3176 20.5994 26.5807 19.1213Z" fill="#FE3945"/>
<path d="M21.2283 22.6385L21.1529 22.4701L21.0398 22.6011C20.2668 21.9275 18.5324 20.094 17.5332 17.9611L17.7029 17.8862L17.5709 17.7553C19.6635 15.8282 21.9447 14.9675 22.8684 14.7804L22.9439 14.7617L23.0004 14.7991C25.0365 16.2772 26.3184 18.2043 26.7144 19.0275L26.7709 19.1398L26.6955 19.2333C25.4512 20.7114 22.5668 22.1146 21.2283 22.6385ZM17.9668 17.8862C18.7963 18.6533 20.3422 20.3372 21.2471 22.2269C22.5857 21.6843 25.1496 20.4307 26.3562 19.0837C25.9225 18.2604 24.716 16.5204 22.8684 15.1546C21.9635 15.3604 19.8898 16.1649 17.9668 17.8862ZM18.4193 18.8404C19.0603 19.9069 19.8332 20.8611 20.4742 21.5346C19.8332 20.4869 19.0603 19.5327 18.4193 18.8404Z" fill="#03224C"/>
</svg>
