<svg xmlns="http://www.w3.org/2000/svg" width="16" height="16" fill="none" viewBox="0 0 16 16">
    <g clip-path="url(#clip0)">
        <path fill="#03224C" d="M8.586 8.005l2.492-2.492c.162-.162.162-.424 0-.586-.162-.162-.424-.162-.586 0L8 7.419 5.508 4.927c-.162-.162-.424-.162-.587 0-.162.162-.162.424 0 .586l2.492 2.492-2.492 2.492c-.162.162-.162.425 0 .587.081.08.187.121.294.121.106 0 .212-.04.293-.121L8 8.592l2.492 2.492c.08.08.187.121.293.121.106 0 .212-.04.293-.121.162-.162.162-.425 0-.587L8.586 8.005z"/>
    </g>
    <circle cx="8" cy="8" r="7.5" stroke="#03224C"/>
    <defs>
        <clipPath id="clip0">
            <path fill="#fff" d="M0 0H6.4V6.4H0z" transform="translate(4.7998 4.79999)"/>
        </clipPath>
    </defs>
</svg>
