<svg xmlns="http://www.w3.org/2000/svg" width="27" height="44" fill="none" viewBox="0 0 27 44">
    <path fill="#F1F1F1" d="M26.39 39.546c0 1.987-5.002 3.597-11.172 3.597-6.17 0-11.172-1.61-11.172-3.597 0-1.986 5.002-3.596 11.172-3.596 6.17 0 11.172 1.61 11.172 3.596z"/>
    <path fill="#fff" d="M11.584 7.489c.754-.355.923-1.297.923-1.858l1.729.132c.011.171-.102.678 0 1.077.232.906 2.175 1.584 2.734 2.096.558.513 1.85 4.887 2.198 5.57.28.547 2.14 2.005 3.037 2.665l-.768.889c-1.094-.524-3.4-1.702-3.874-2.221-.475-.52-1.152-2.335-1.431-3.178-.093.911-.28 2.952-.28 3.827v2.597c-2.456 1.695-5.513.706-6.735 0 .14-.604.419-2.037.419-2.939 0-.902-.14-2.7-.21-3.485-.139.718-1.605 3.144-2.687 3.178-.865.027-2.454-.285-3.14-.444l-.386-1.23c.78.034 2.466.013 2.968-.342.629-.444 1.64-3.315 2.547-4.51.907-1.197 2.012-1.38 2.956-1.824z"/>
    <path fill="#03224C" fill-rule="evenodd" d="M12.404 5.522l1.93.148.005.087c.004.052-.002.124-.01.2l-.006.06c-.006.063-.013.132-.018.206-.014.196-.016.409.031.592.05.199.199.394.416.588.216.192.491.374.782.547.188.111.378.217.562.318.101.056.2.11.295.165.264.149.5.293.65.43.083.077.171.216.261.386.091.174.19.392.293.64.207.495.432 1.114.65 1.736.128.363.254.73.372 1.074l.237.688c.18.518.323.91.407 1.074.061.12.219.304.447.528.225.222.51.474.815.73.61.514 1.297 1.043 1.744 1.372l.087.064-.89 1.03-.072-.035c-.548-.262-1.4-.688-2.174-1.114-.387-.213-.756-.427-1.06-.62-.299-.192-.543-.37-.671-.51s-.264-.36-.4-.618c-.136-.26-.275-.565-.407-.878-.184-.436-.357-.891-.491-1.27-.098 1.017-.233 2.607-.233 3.348v2.65l-.043.03c-1.255.864-2.66 1.043-3.901.918-1.24-.126-2.324-.554-2.947-.914l-.064-.038.016-.071c.14-.604.417-2.027.417-2.917 0-.745-.096-2.107-.169-2.998-.05.11-.108.23-.173.354-.176.333-.41.709-.672 1.063-.262.354-.557.69-.857.94-.297.248-.614.425-.92.434-.443.014-1.065-.058-1.657-.153-.594-.095-1.166-.213-1.51-.293l-.058-.014-.445-1.421.145.006c.387.017 1 .02 1.576-.025.288-.022.565-.056.8-.107.238-.05.42-.115.528-.19.064-.047.141-.13.229-.25.086-.119.178-.268.276-.442.196-.347.408-.782.63-1.244l.077-.158c.421-.876.877-1.822 1.312-2.396.718-.947 1.57-1.28 2.343-1.583.225-.088.444-.174.65-.27.346-.164.563-.463.693-.798.131-.335.172-.698.172-.97v-.11zm.204.218c-.01.273-.058.612-.183.933-.143.365-.388.714-.796.907-.226.106-.457.197-.69.288-.765.3-1.548.608-2.228 1.504-.422.557-.87 1.486-1.296 2.37l-.072.15c-.222.461-.437.902-.636 1.256-.1.176-.196.333-.289.46-.091.127-.184.231-.276.296-.143.102-.36.173-.604.225-.247.053-.535.088-.828.111-.519.04-1.064.043-1.455.03l.325 1.04c.345.079.882.188 1.439.277.59.095 1.195.165 1.618.151.234-.007.506-.147.793-.386.283-.236.567-.558.824-.905.256-.346.483-.713.655-1.038.173-.327.285-.603.317-.767l.204.01c.07.786.21 2.587.21 3.494 0 .88-.261 2.248-.405 2.889.608.339 1.632.732 2.798.85 1.192.12 2.526-.048 3.717-.853v-2.544c0-.88.187-2.927.28-3.837l.2-.021c.14.42.377 1.081.64 1.703.13.31.267.61.4.863.134.255.26.456.37.576.109.118.331.283.631.475.298.19.662.401 1.047.613.738.405 1.546.812 2.092 1.075l.646-.747c-.448-.333-1.091-.83-1.668-1.315-.307-.259-.596-.515-.826-.741-.227-.224-.407-.428-.485-.58-.092-.18-.24-.589-.418-1.1l-.238-.69c-.118-.344-.243-.708-.37-1.072-.218-.621-.442-1.235-.646-1.725-.102-.245-.199-.458-.286-.624-.09-.17-.164-.28-.22-.331-.129-.12-.345-.252-.61-.403l-.29-.161c-.185-.103-.382-.211-.572-.324-.294-.175-.583-.364-.813-.57-.23-.204-.412-.433-.477-.688-.056-.215-.052-.455-.037-.655.005-.077.013-.15.019-.214l.005-.057.008-.082-1.524-.116z" clip-rule="evenodd"/>
    <path fill="#FE3945" d="M11.68 7.015l.895 1.149 2.046-.94 1.215 11.815c-2.865 1.887-5.699.786-6.758 0 .32-2.714.964-8.341.98-9.143.018-.802 1.088-2.254 1.621-2.88z"/>
    <path fill="#03224C" fill-rule="evenodd" d="M12.408 5.544l1.929.148.006.087c.004.052-.002.125-.01.2l-.006.06c-.006.064-.013.133-.018.207-.014.195-.016.408.031.592.05.198.199.394.416.587.216.193.491.375.782.547.188.112.378.217.562.319.101.056.2.11.295.164.264.15.5.293.65.43.083.078.171.216.26.386.092.174.191.393.294.64.206.496.432 1.114.65 1.736.128.364.254.73.372 1.075l.237.688c.18.517.323.91.407 1.074.061.12.218.303.447.528.225.221.51.473.815.73.61.514 1.297 1.042 1.744 1.371l.087.065-.89 1.03-.072-.035c-.548-.263-1.4-.69-2.174-1.115-.388-.213-.757-.427-1.06-.62-.299-.191-.543-.369-.671-.51-.128-.14-.264-.36-.4-.618-.136-.26-.275-.564-.408-.878-.184-.436-.356-.89-.49-1.27-.098 1.018-.233 2.608-.233 3.348v2.65l-.044.03c-1.254.865-2.659 1.043-3.9.918-1.24-.125-2.324-.554-2.947-.914l-.064-.037.016-.072c.14-.603.417-2.026.417-2.916 0-.745-.096-2.108-.169-2.999-.05.111-.108.23-.173.354-.177.334-.41.71-.672 1.064-.262.354-.557.69-.857.94-.297.248-.614.424-.92.434-.443.014-1.065-.059-1.658-.153-.593-.095-1.165-.214-1.51-.294l-.057-.013-.445-1.422.145.006c.387.017 1 .02 1.576-.024.288-.023.565-.057.8-.107.237-.05.42-.115.528-.191.064-.046.141-.129.228-.25.087-.118.18-.268.277-.441.195-.347.408-.782.63-1.244l.077-.159c.421-.875.877-1.822 1.311-2.395.719-.947 1.57-1.28 2.344-1.583.225-.088.443-.174.65-.271.346-.163.563-.463.693-.797.131-.336.172-.698.172-.97v-.11zm.204.218c-.01.274-.059.613-.184.934-.142.365-.387.714-.796.906-.225.106-.456.197-.689.288-.765.3-1.548.608-2.228 1.505-.422.556-.87 1.486-1.296 2.37l-.072.15c-.222.46-.437.901-.636 1.255-.1.177-.196.334-.289.461-.092.127-.184.23-.276.296-.144.101-.36.173-.604.225-.248.053-.535.088-.828.11-.519.041-1.064.043-1.456.031l.326 1.04c.345.078.882.188 1.439.277.59.094 1.195.164 1.617.15.235-.007.507-.146.794-.385.283-.237.567-.559.823-.905.257-.347.484-.714.656-1.038.173-.328.285-.603.317-.767l.203.01c.07.785.21 2.587.21 3.494 0 .88-.26 2.248-.405 2.888.61.34 1.633.733 2.799.85 1.192.121 2.525-.048 3.717-.852V16.51c0-.881.187-2.928.28-3.837l.2-.022c.14.42.377 1.082.64 1.703.13.31.267.61.4.863.134.255.26.456.37.576.109.119.33.284.631.475.298.19.662.401 1.048.613.737.406 1.545.812 2.091 1.075l.646-.747c-.448-.333-1.092-.83-1.668-1.315-.307-.259-.596-.515-.826-.741-.227-.223-.407-.427-.485-.58-.092-.179-.24-.588-.418-1.1-.075-.214-.154-.446-.238-.69-.118-.343-.243-.708-.37-1.072-.218-.62-.442-1.235-.646-1.725-.102-.245-.199-.457-.286-.623-.09-.17-.164-.28-.22-.332-.13-.119-.345-.252-.61-.402l-.29-.162c-.185-.102-.382-.21-.572-.324-.294-.174-.583-.364-.814-.57-.23-.204-.411-.433-.477-.687-.055-.216-.05-.455-.036-.656.005-.076.013-.15.019-.213l.005-.057c.003-.031.006-.058.007-.082l-1.523-.117z" clip-rule="evenodd"/>
    <path fill="#fff" d="M14.746 5.694c1.227-.917.96-3.519.896-4.444H11.29c-.079.354-.186 1.462.003 2.87.236 1.759 2.074 2.605 3.454 1.574z"/>
    <path fill="#03224C" fill-rule="evenodd" d="M11.205 1.149h4.533l.006.094.012.165c.036.49.095 1.283.024 2.076-.079.884-.321 1.803-.972 2.29-.72.538-1.566.588-2.262.27-.695-.317-1.234-1-1.356-1.911-.19-1.417-.084-2.537-.002-2.905l.017-.08zm.168.201c-.073.412-.155 1.453.02 2.757.114.847.612 1.468 1.24 1.755.627.287 1.39.244 2.05-.248.576-.43.814-1.27.892-2.148.07-.775.012-1.552-.024-2.042l-.005-.074h-4.173z" clip-rule="evenodd"/>
    <path fill="#F4D8CD" d="M21.08 28.992l-2.467-.734c-.138-.041-.148-.23-.014-.284l4.884-1.982c.109-.044.23-.05.344-.017l2.385.697c.138.04.149.228.017.283l-4.796 2.018c-.112.047-.236.054-.353.02z"/>
    <path fill="#03224C" fill-rule="evenodd" d="M23.444 25.9c.13-.054.276-.061.412-.022l-.029.097.03-.097 2.384.697c.23.068.25.38.029.473l-4.796 2.018c-.134.056-.284.064-.423.023l-2.467-.734c-.231-.07-.247-.384-.024-.474l4.884-1.982.039.093-.04-.093zm.354.171c-.091-.026-.188-.021-.276.014l-4.883 1.982c-.045.018-.042.081.005.095l2.466.734c.093.028.193.022.283-.015l4.795-2.018c.044-.019.04-.081-.005-.095l-2.385-.697z" clip-rule="evenodd"/>
    <path fill="#03224C" fill-rule="evenodd" d="M21.162 19.331c.057 0 .103.045.103.1v8.55c0 .056-.046.101-.103.101-.056 0-.102-.045-.102-.1v-8.55c0-.056.046-.1.102-.1zM23.776 18.294c.056 0 .103.045.103.1v8.55c0 .056-.047.101-.103.101-.057 0-.103-.045-.103-.1v-8.55c0-.056.046-.1.103-.1z" clip-rule="evenodd"/>
    <path fill="#03224C" fill-rule="evenodd" d="M25.056 17.754c.022.051-.002.11-.054.132L19.9 20.044c-.053.022-.113-.002-.136-.053-.022-.05.002-.11.054-.132L24.92 17.7c.053-.022.113.002.136.053z" clip-rule="evenodd"/>
    <path fill="#03224C" d="M21.813 37.6c0 .53-.443.959-.99.959-.547 0-.99-.43-.99-.959 0-.529.443-.958.99-.958.547 0 .99.43.99.958zM25.756 35.684c0 .53-.444.958-.99.958-.547 0-.99-.429-.99-.958 0-.53.443-.959.99-.959.546 0 .99.43.99.959z"/>
    <path fill="#F4D8CD" d="M18.814 36.602V28.12l2.51.855 4.628-1.953v8.136l-5.029 2.444c-.35-.2-1.552-.75-2.11-.999z"/>
    <path fill="#03224C" fill-rule="evenodd" d="M26.009 26.937c.029.019.046.05.046.084v8.136c0 .039-.022.074-.057.09l-5.029 2.444c-.03.015-.067.014-.097-.004-.344-.196-1.54-.742-2.101-.993-.037-.017-.06-.052-.06-.092V28.12c0-.033.016-.064.043-.083.027-.019.062-.023.094-.013l2.472.843 4.592-1.937c.032-.014.068-.01.097.008zm-.16.237l-4.484 1.892c-.024.01-.05.011-.075.003l-2.373-.809v8.278c.553.248 1.619.735 2.01.949l4.923-2.392v-7.92z" clip-rule="evenodd"/>
    <path fill="#03224C" fill-rule="evenodd" d="M24.463 28.889c.057 0 .103.045.103.1v5.258c0 .055-.046.1-.103.1-.057 0-.103-.045-.103-.1V28.99c0-.056.046-.101.103-.101zm-1.94.803c.057 0 .103.045.103.1v5.44c0 .056-.046.101-.103.101-.057 0-.103-.045-.103-.1v-5.44c0-.056.046-.101.103-.101z" clip-rule="evenodd"/>
    <path fill="#fff" d="M24.013 18.688c0-.21-.4-.978-.753-1.069-.268-.068-.76-.25-1.008-.345l-.621.677c.061.638.835.837 1.214.857-.01.241-.006.723.092.723.123 0 1.076-.632 1.076-.843z"/>
    <path fill="#03224C" fill-rule="evenodd" d="M22.22 17.245l-.044-.039-.652.71.005.044c.035.364.274.598.54.74.225.119.477.178.67.2-.002.113 0 .249.01.368.005.077.015.152.032.211.008.029.02.06.039.087.018.027.056.066.117.066.026 0 .05-.008.067-.013l.06-.025c.041-.02.091-.047.146-.079.11-.064.244-.152.373-.246.129-.093.256-.195.352-.289.048-.047.09-.094.122-.138.029-.041.06-.095.06-.154 0-.074-.033-.177-.076-.281-.046-.108-.11-.232-.184-.351-.075-.119-.162-.236-.256-.331-.092-.093-.2-.173-.314-.203-.261-.067-.748-.246-.997-.342l-.038-.015-.032.08zm.062.148l-.543.59c.04.252.211.424.43.54.231.123.503.175.682.185l.101.005-.004.1c-.005.118-.006.294.005.439.006.066.013.12.023.16.033-.016.077-.04.129-.07.103-.06.23-.144.355-.234.125-.091.244-.187.33-.27.043-.043.076-.08.097-.11.02-.029.023-.041.023-.041v.001c0-.031-.017-.103-.06-.205-.04-.098-.099-.211-.168-.322-.07-.11-.148-.215-.229-.296-.082-.083-.157-.132-.218-.148-.252-.064-.692-.225-.953-.324z" clip-rule="evenodd"/>
    <path fill="#03224C" d="M9.896 1.814C9.536.72 10.43.215 11.18.142c1.037 0 2.286-.064 2.947-.131 1.456-.147 2.447 1.212 2.142 2.475-.178.74-.386 1.33-.401 2.196-.015.573-.65 1.605-1.658 1.852-1.26.308-2.377.344-3.03-.321-.518-.528-.254-1.322 0-1.718l.503.324c.7-.753 2.254.35 2.527 0 .332-.422.613-1.778.478-2.174-.135-.397-.54-.75-1.44-.529-.9.22-2.902 1.064-3.352-.302zM10.845 10.342c.177-1.549.734-2.602.99-2.935l.19-.527c-1.559.385-2.74 1.388-3.135 1.842-.248.415-.803 1.377-1.033 1.908-.289.664-1.424 2.937-1.763 3.12-.271.146-1.663.286-2.324.338l.595 1.935c.887-.1 2.619.093 2.877 0 .257-.093 1.058-1.467 1.373-1.935v4.028l1.914.937c.031-2.259.14-7.163.316-8.711z"/>
    <path fill="#03224C" fill-rule="evenodd" d="M12.186 6.736l-.26.719-.009.012c-.244.317-.795 1.353-.97 2.886-.176 1.542-.284 6.44-.316 8.701l-.002.16-2.117-1.036v-3.742l-.11.175-.01.017c-.124.196-.263.415-.4.623-.135.207-.271.405-.39.557-.06.076-.116.143-.167.195-.048.048-.103.095-.158.114-.049.018-.118.025-.192.03-.077.003-.172.004-.279.002-.184-.003-.41-.013-.653-.023l-.118-.005c-.579-.024-1.225-.047-1.659.002l-.085.01-.657-2.135.127-.01c.33-.026.841-.074 1.303-.134.232-.03.45-.062.625-.096.181-.035.303-.069.355-.097.022-.011.065-.051.13-.132.06-.077.132-.18.21-.304.157-.246.338-.566.519-.902.361-.672.716-1.404.858-1.732.234-.538.792-1.506 1.04-1.92l.005-.008.006-.007c.405-.465 1.603-1.483 3.188-1.874l.186-.046zM8.974 8.78c-.251.42-.797 1.368-1.023 1.89-.146.335-.503 1.071-.866 1.747-.182.338-.366.663-.526.915-.08.126-.156.235-.223.32-.064.08-.13.152-.193.186-.084.045-.238.084-.414.118-.182.035-.405.068-.638.098-.41.053-.859.097-1.187.124l.535 1.736c.448-.039 1.066-.017 1.604.006l.12.005c.242.01.465.02.646.022.106.002.195.002.265-.002.075-.004.115-.01.131-.017.01-.003.036-.02.082-.066.044-.043.094-.103.151-.176.114-.146.246-.338.382-.544.135-.206.272-.424.396-.62l.012-.018c.118-.188.224-.356.3-.471l.19-.28v4.3l1.71.838c.034-2.32.141-7.042.314-8.56.177-1.546.729-2.61 1.001-2.972l.12-.332c-1.433.407-2.514 1.327-2.889 1.753z" clip-rule="evenodd"/>
    <path fill="#03224C" d="M14.5 10.06c0-1.614-.264-2.556-.264-3.342 1.191.471 2.856 1.545 3.167 2.14l1.837 5.8 2.123 1.674-.856 1.985c-.686-.434-2.204-1.377-2.787-1.675-.583-.297-1.067-1.447-1.235-1.984l.158 3.473c-1.52.596-2.748 1.081-2.916 1.112 0-1.871.773-7.571.773-9.184z"/>
    <path fill="#03224C" fill-rule="evenodd" d="M14.132 6.569l.142.056c.603.239 1.324.629 1.932 1.033.305.203.583.41.806.606.22.194.395.382.482.548l.004.008 1.83 5.778 2.159 1.704-.933 2.165-.103-.065c-.688-.436-2.202-1.375-2.78-1.67-.163-.084-.313-.223-.447-.387-.135-.164-.259-.358-.368-.557-.09-.163-.17-.331-.24-.492l.132 2.902-.068.027-.5.196c-.56.22-1.063.417-1.465.571-.26.1-.477.183-.64.242-.159.058-.277.098-.33.108l-.122.022v-.121c0-.942.194-2.841.387-4.699l.021-.2c.187-1.793.365-3.514.365-4.285 0-.8-.065-1.435-.13-1.969l-.035-.273c-.053-.412-.099-.77-.099-1.099v-.15zm.21.302c.01.273.048.57.092.916.012.09.024.183.035.28.067.537.133 1.18.133 1.992 0 .782-.18 2.51-.365 4.291l-.022.214c-.185 1.777-.368 3.574-.385 4.543l.173-.061c.162-.06.378-.141.637-.241l1.462-.57.434-.17-.155-3.403.201-.034c.083.264.244.68.455 1.064.105.193.222.375.347.527.126.153.255.269.383.334.56.286 1.968 1.158 2.692 1.614l.778-1.804-2.086-1.646-1.844-5.82c-.07-.13-.22-.297-.432-.483-.214-.188-.485-.39-.784-.589-.551-.366-1.193-.72-1.75-.954z" clip-rule="evenodd"/>
    <path fill="#03224C" fill-rule="evenodd" d="M14.276 7.467c-.466.304-1.316.66-1.68.8l-.074.028-.046-.062c-.21-.281-.456-.648-.552-.796l.173-.108c.088.136.303.456.498.722.393-.155 1.15-.479 1.567-.751l.114.167z" clip-rule="evenodd"/>
    <path fill="#E2EFF2" d="M1.403 15.947l-.917-3.253c-.013-.046.032-.088.078-.072l1.468.492c.04.013.069.045.079.085l.802 3.237c.012.047-.034.087-.08.07l-1.354-.479c-.037-.013-.065-.043-.076-.08z"/>
    <path fill="#03224C" fill-rule="evenodd" d="M.606 12.742l.896 3.178c.002.006.006.01.012.012l-.035.095.035-.095 1.28.454-.784-3.163c-.001-.007-.006-.011-.012-.014l-1.392-.467zm-.22-.021c-.035-.124.086-.236.21-.194l1.469.492c.072.024.127.083.145.156l.803 3.238c.03.124-.092.232-.215.188l-1.354-.48c-.069-.023-.121-.079-.14-.147L.386 12.72z" clip-rule="evenodd"/>
    <path fill="#fff" d="M.111 14.5c.044-.22.404-.56.578-.703l.074.359c.244.115.798.422 1.057.732.325.386.65 1.228.48 1.215-.17-.014-1.934-.539-1.976-.635-.042-.097-.268-.69-.213-.967z"/>
    <path fill="#03224C" fill-rule="evenodd" d="M.756 13.611l.098.476c.126.062.307.16.489.278.204.131.418.292.557.459.172.204.339.523.442.785.05.132.089.256.102.35.006.045.01.096-.004.14-.007.023-.02.052-.048.074-.03.025-.067.033-.1.03-.032-.002-.086-.015-.149-.03-.065-.016-.15-.038-.245-.065-.191-.053-.43-.123-.664-.196-.235-.073-.466-.148-.643-.212-.087-.032-.163-.061-.22-.086-.027-.013-.053-.025-.073-.038-.01-.006-.021-.013-.031-.021-.009-.007-.026-.023-.037-.048-.023-.052-.092-.23-.148-.429-.028-.1-.053-.207-.068-.309-.015-.1-.02-.202-.004-.287.015-.074.054-.149.1-.219.046-.07.104-.142.164-.21.122-.135.26-.26.35-.333l.132-.109zm-.474.761c-.04.06-.062.111-.07.148-.01.053-.008.128.005.22.014.091.037.19.064.285.047.168.103.32.13.382l.046.024c.05.022.12.049.206.08.172.062.4.137.633.21.233.071.47.141.658.193.094.027.176.048.24.064l.047.011v-.002c-.01-.072-.042-.18-.092-.306-.098-.251-.255-.547-.408-.73-.12-.142-.312-.29-.511-.418-.198-.127-.393-.23-.512-.286l-.046-.022-.048-.236c-.063.058-.132.126-.195.197-.057.063-.108.127-.147.186z" clip-rule="evenodd"/>
    <path fill="#fff" d="M2.495 14.104l.628.078.342 1.212-.695-.121-.275-1.169z"/>
    <path fill="#03224C" fill-rule="evenodd" d="M2.362 13.986l.843.105.403 1.43-.923-.16-.323-1.375zm.267.236l.226.963.468.082-.28-.993-.414-.052z" clip-rule="evenodd"/>
    <path fill="#fff" d="M8.042 27.596c-.16-1.679.792-6.333 1.283-8.387 2.483 1.402 5.348.795 6.596-.138.62 3.725-.258 12.569-.775 16.525-.827.548-1.654.229-1.964 0-.166-3.987-.483-10.316-.62-12.982-.449 1.535-1.345 4.798-1.345 5.567v7.415c-.992.426-1.682.178-1.903 0-.357-1.967-1.111-6.321-1.272-8z"/>
    <path fill="#03224C" fill-rule="evenodd" d="M15.96 18.977c.033.013.057.043.063.078.312 1.875.247 5.028.04 8.198-.207 3.174-.556 6.376-.815 8.356-.004.029-.02.055-.044.07-.876.58-1.752.242-2.084-.002-.025-.018-.04-.046-.04-.076-.155-3.707-.44-9.439-.59-12.369-.205.722-.453 1.628-.669 2.477-.14.551-.265 1.077-.356 1.514-.09.439-.145.777-.145.958v7.415c0 .04-.024.077-.061.093-1.022.438-1.754.19-2.01-.015-.019-.015-.032-.036-.036-.06-.357-1.966-1.112-6.325-1.273-8.008-.081-.855.12-2.452.398-4.08.28-1.632.641-3.311.887-4.34.007-.031.03-.057.06-.07.03-.012.063-.01.092.006 1.22.69 2.536.885 3.701.793 1.168-.092 2.176-.472 2.781-.924.029-.022.067-.027.1-.014zm-6.566.385C9.151 20.396 8.81 22 8.541 23.56c-.28 1.633-.475 3.203-.396 4.027.159 1.663.903 5.966 1.264 7.953.213.147.82.349 1.706-.01v-7.35c0-.203.058-.561.149-.998.091-.44.218-.97.358-1.522.28-1.105.616-2.306.84-3.074.014-.047.061-.078.111-.072.05.005.089.045.091.095.138 2.655.453 8.944.619 12.934.309.205 1.034.455 1.767-.005.258-1.98.603-5.153.808-8.297.2-3.082.266-6.125-.013-7.992-.649.435-1.635.78-2.75.867-1.162.091-2.473-.094-3.7-.754z" clip-rule="evenodd"/>
    <path fill="#03224C" d="M6.532 37.59c.868-1.063 2.582-1.72 2.8-1.914.87.255 1.846.106 2.224 0 .868.691.329 1.383-.866 1.915-1.196.532-5.244 1.33-4.158 0zM12.22 37.046c.219-.4.771-1.032 1.02-1.298.816.186 1.517.078 1.765 0 .34.31.698.6.698 1.176 0 .594-.875 1.988-2.634 1.788-1.023-.116-1.123-1.166-.85-1.666z"/>
</svg>
