<svg xmlns="http://www.w3.org/2000/svg" width="30" height="41" fill="none" viewBox="0 0 30 41">
    <g clip-path="url(#clip0)">
        <path fill="#FE3945" d="M6.724 8.934c.791-.894 2.049-3.237 10.019-5.225.791-.2 1.56-.339 2.307-.439 1.206.267 1.801 1.044 2.16 1.483.36.439 6.174.983 7.656 1.077 1.185.072 1.1-.377.91-.61C17.96-5.398 5.152 3.28 2.442 6.812c-2.47 3.215-2.622 5.841-2.06 5.775.555-.073 5.55-2.76 6.342-3.654z"/>
        <path fill="#03224C" d="M.354 12.699c-.073 0-.174-.028-.253-.161-.342-.583.118-3.015 2.251-5.792C3.817 4.836 9.014.683 15.693.078 20.835-.39 25.6 1.31 29.855 5.136l-.073.083.09-.072c.14.167.174.356.101.505-.118.234-.483.328-1.1.29-.735-.045-7.308-.59-7.74-1.117l-.045-.05c-.348-.427-.926-1.138-2.037-1.388-.758.1-1.521.244-2.273.433-7.201 1.8-8.902 3.898-9.722 4.909-.084.105-.162.205-.24.288-.792.889-5.827 3.615-6.416 3.693-.017-.011-.028-.011-.045-.011zM17.344.222c-.54 0-1.084.022-1.634.078C9.11.9 3.98 4.992 2.532 6.885.348 9.728.05 12.005.298 12.432c.033.056.056.05.067.05.455-.055 5.473-2.71 6.275-3.615.073-.083.146-.177.23-.277.837-1.027 2.57-3.165 9.845-4.98.769-.195 1.55-.34 2.318-.44 4.344-.566 7.819.417 9.766 1.366C25.286 1.666 21.441.222 17.344.222zm2.25 3.093c.865.339 1.353.933 1.662 1.316l.039.05c.28.344 5.461.905 7.577 1.033.702.044.853-.106.887-.167.04-.072-.006-.178-.062-.25-1.46-1-5.163-2.487-10.103-1.982zm-.544-.061v.01-.01z"/>
        <path fill="#fff" d="M13.976 4.381C10.9 2.393 9.053 2.737 7.869 2.71c0 0 .758-.406 1.375-.672.612-.267 1.302-.533 1.302-.533 3.306.283 5.013 1.577 5.68 2.226l-2.25.65zM19.538 3.104C17.703 1.338 15.306.605 14.565.444c.236-.066 1.78-.266 2.605-.266 2.043.266 3.878 1.893 4.72 2.804-.887 0-2.06.083-2.352.122z"/>
        <path fill="#03224C" d="M17.04 25.942L.787 12.582l.146-.172 15.71 12.915L6.354 9.228l.19-.116L16.71 25.025 10.277 6.063l.214-.072 6.724 19.828-.107.034-.067.088zm4.727-1.167l-.101-.044h-.113V4.947h.225V23.51l3.704-20.084.219.039-3.75 20.272 7.612-17.99.207.083-8.003 18.945z"/>
        <path fill="#03224C" d="M18.764 29.334l-1.796-3.926 4.765-1.044.331 3.793-.224.022-.31-3.542-4.248.927 1.69 3.681-.208.089zM22.21 39.962c.044-.256.162-.483.218-.567.28.117.54.05.629 0 .337.505 1.678 1.605.932 1.605-.118 0-1.836-.716-1.78-1.038z"/>
        <path fill="#03224C" d="M18.64 28.868l.119.422c1.083 0 1.487-.472 1.43-.783-.224-.023-.499-.334-.611-.478-.101.039-.544.111-.814.217-.275.11-.196.388-.123.622zM20.823 27.702c.056.277-.034.544-.112.644.09.066.224.172.488.266.264.095.73-.139.938-.3 0 0-.079-.238-.146-.427-.101-.289-.331-.389-.455-.394l-.713.21zM19.572 32.188l-.494-1.605c.45.278.797 1.072.893 1.305.095.239.033.517.039.644-.174.045-.399-.233-.438-.344zM22.07 30.233c0-.194.297-.627.443-.744.162.456.37 1.072.488 1.5.118.422.062.638-.107.71l-.196.061c-.112-.205-.376-.616-.432-.688-.068-.094-.197-.6-.197-.838z"/>
        <path fill="#03224C" d="M22.216 39.045l-.006-.116c-.022-.91-.196-2.565-.247-2.86-.039-.227-.516-.755-.898-1.182-.247-.273-.477-.534-.617-.728-.382-.533-.545-1.516-.556-2.01-.011-.427-.55-1.582-1.358-1.816-.982-.277-1.616-.76-1.746-1.321-.117-.5.118-1.41.326-1.899l.045-.111.724.46-.011.067c-.085.461-.107 1.039-.09 1.183.017.122.668.472 1.268.483.573.017.719-.139.876-.277.1-.095.185-.273.151-.456-.37-.11-.64-.477-.808-.75-.297-.477-.252-.804-.163-.999.113-.244.37-.422.69-.472.427-.066.73.278.832.467.134.239.488 1.177.174 1.571.022.033.095.078.33.206.326.172 1.162-.384 1.415-.722.112-.15-.28-.6-.718-.928l-.062-.044.393-.933.1.067c.326.21 1.022.738 1.348 1.221.42.622-.455 1.783-1.145 2.604-.472.561-.152 1.1.297 1.85l.045.072c.157.26.489.622.842 1.005.545.594 1.111 1.21 1.274 1.688.23.66.365 2.981.275 4.003l-.005.094h-1.1l-.012-.088c-.028-.228-.062-.5-.095-.789-.101-.86-.23-1.927-.309-2.204-.084-.3-.92-1.194-1.42-1.672.034.05.068.095.101.145.415.594.988 1.41 1.061 1.938.09.605-.05 2.154-.14 3.026l-.006.078-1.055.15zM17.26 27.313c-.202.533-.36 1.283-.27 1.666.113.488.696.91 1.606 1.171.954.272 1.493 1.544 1.51 2.005.01.505.185 1.432.516 1.899.135.188.36.438.6.71.46.517.898 1 .943 1.283.056.328.214 1.871.247 2.776l.657-.094c.073-.733.219-2.31.135-2.898-.068-.484-.646-1.305-1.027-1.85-.31-.444-.388-.566-.388-.65v-.088l.096-.022c.241-.039 1.852 1.688 1.975 2.115.085.29.208 1.322.315 2.238.028.25.056.489.084.7h.73c.072-1.1-.079-3.26-.276-3.826-.151-.439-.724-1.066-1.234-1.621-.36-.395-.696-.761-.865-1.039l-.044-.072c-.455-.755-.848-1.41-.281-2.082.376-.444 1.515-1.794 1.134-2.36-.281-.41-.848-.866-1.19-1.1l-.236.561c.264.206.96.806.696 1.16-.264.356-1.196 1.04-1.673.784-.202-.106-.325-.172-.387-.25-.107.061-.23.094-.354.089.017.227-.09.438-.224.56-.168.156-.382.34-1.016.334-.578-.011-1.437-.356-1.47-.661-.023-.172.005-.727.078-1.177l-.387-.261zm2.643-.866c-.022 0-.05 0-.072.005-.191.028-.433.14-.534.356-.1.21-.045.488.152.805.252.4.494.622.74.672l-.022.1.028-.095c.152.045.309.011.427-.1l.073.072-.073-.072c.236-.227.022-1.027-.174-1.371-.073-.14-.27-.372-.545-.372z"/>
        <path fill="#03224C" fill-rule="evenodd" d="M20.02 28.979l.759.139.325-.522c.421.188 1.28-.445 1.521-.767.197-.26-.41-.821-.74-1.066l.314-.75c.303.2.999.717 1.319 1.194.404.6-.607 1.844-1.14 2.482-.522.617-.168 1.21.287 1.966.016.022.027.05.044.072.163.267.494.633.854 1.027.521.567 1.094 1.194 1.251 1.655.213.622.36 2.904.27 3.96h-.915c-.028-.229-.062-.5-.096-.79-.106-.899-.23-1.943-.314-2.22-.13-.472-1.87-2.216-1.87-2.038 0 .06.158.289.371.594.393.566.971 1.388 1.044 1.893.09.622-.067 2.277-.14 2.999l-.848.122c-.022-.894-.19-2.554-.246-2.876-.045-.256-.5-.761-.921-1.233-.241-.272-.471-.528-.612-.716-.37-.517-.527-1.5-.539-1.955-.01-.46-.567-1.66-1.43-1.91-.87-.244-1.544-.683-1.673-1.244-.107-.45.095-1.255.314-1.788l.612.278c-.085.455-.158 1.072-.14 1.238.022.211.774.561 1.369.572.595.011.78-.15.948-.305.012 0 .017-.006.023-.011z" clip-rule="evenodd"/>
        <path fill="#fff" d="M17.608 26.541c-.068.045-.22.433-.28.628l.454.244.112-.144c.123-.034.376-.128.382-.228.01-.128-.113-.466-.163-.5-.05-.033-.415-.05-.505 0zM21.823 25.864c.09.01.275.155.33.233l-.207.483c-.062-.022-.174-.044-.185-.033-.04.033-.14.094-.18.1l.208.122c.011.005.022.01.028.016l-.028-.016c-.101-.045-.37-.095-.455-.189-.073-.083-.247-.483-.073-.605s.45-.122.562-.111z"/>
        <path fill="#03224C" d="M17.81 27.546l-.607-.327.028-.078c.096-.278.225-.622.326-.678.118-.072.527-.06.617.006.096.067.219.45.208.588-.011.162-.28.267-.421.306l-.152.183zm-.36-.427l.298.166.078-.105.034-.011c.157-.045.292-.111.309-.15.005-.078-.08-.328-.124-.4-.079-.022-.326-.022-.387 0-.034.055-.124.266-.208.5zM21.772 26.869l-.033-.017c-.017-.005-.062-.022-.113-.033-.134-.039-.291-.089-.364-.172-.073-.078-.197-.339-.174-.544.01-.117.067-.178.117-.211.236-.167.59-.134.63-.128.14.017.347.2.403.266l.034.045-.27.627-.095-.039c-.034-.01-.084-.022-.112-.027l-.006.005.05.028c.018.005.034.017.051.033l-.118.167zm-.05-.91c-.118 0-.286.021-.399.094-.005.005-.022.016-.028.066-.017.139.084.345.124.383.011.011.034.023.056.04l.112-.006c.011-.006.084-.045.118-.073.045-.038.13-.033.197-.016l.145-.339c-.067-.067-.185-.144-.224-.15h-.101z"/>
        <path fill="#FE3945" d="M20.116 26.902c-.544.194-.73.655-.797.872-.146-.034-.466-.328-.471-.672 0-.444.185-.755.567-.95.477-.238 1.038-.066 1.268.328.185.311.135.489.067.566-.05-.122-.09-.338-.634-.144z"/>
        <path fill="#03224C" d="M19.387 27.896l-.09-.022c-.19-.04-.55-.372-.55-.772 0-.483.208-.833.623-1.038.505-.256 1.14-.095 1.403.366.242.405.118.616.056.683l-.106.117-.079-.172c-.04-.1-.084-.206-.5-.062-.448.161-.645.528-.735.806l-.022.094zm.494-1.75c-.14 0-.286.034-.421.1-.343.173-.51.456-.51.862 0 .238.179.444.308.532.151-.405.438-.694.825-.827.337-.116.516-.094.629-.01-.012-.073-.045-.162-.107-.267-.152-.25-.432-.39-.724-.39zM22.743 39.595c-.13 0-.241-.033-.303-.066l-.05-.028-.029-.622.809-.145-.085.767-.05.022c-.101.055-.197.072-.292.072zm-.157-.227c.073.022.185.038.303 0l.045-.39-.365.067.017.322zM24.078 39.529c.045-.256.163-.484.22-.567.28.117.538.05.628 0 .331.505 1.678 1.605.932 1.605-.118 0-1.836-.716-1.78-1.038z"/>
        <path fill="#03224C" d="M24.612 39.162c-.129 0-.236-.033-.303-.067l-.056-.027v-.744h.78l-.084.744-.05.022c-.09.055-.191.072-.287.072zm-.151-.222c.073.022.185.039.297 0l.045-.41h-.348v.41h.006z"/>
    </g>
    <defs>
        <clipPath id="clip0">
            <path fill="#fff" d="M0 0H30V41H0z"/>
        </clipPath>
    </defs>
</svg>
