<svg xmlns="http://www.w3.org/2000/svg" width="51" height="47" fill="none" viewBox="0 0 51 47">
    <path fill="#FE3945" stroke="#FE3945" stroke-width=".5" d="M45.58 13.961v-4.65c0-.453-.367-.82-.82-.82h-1.567V6.189h.592c.453 0 .82-.37.82-.82V2.64h1.738c.453 0 .82-.369.82-.82 0-.452-.367-.821-.82-.821l-2.542.002L43.787 1l-11.282.016-8.166 1.554c-.444.084-.735.513-.65.958.075.394.417.669.804.669.051 0 .103-.006.154-.017l8.014-1.537h2.56v2.725c0 .454.366.82.819.82h.592v2.303h-1.567c-.453 0-.82.37-.82.82v4.65c-2.473.267-4.413 2.35-4.413 4.898 0 .453.367.82.82.82.452 0 .819-.369.819-.82 0-1.827 1.482-3.308 3.303-3.308H45.059c1.82 0 3.303 1.484 3.303 3.308v22.79c0 1.827-1.482 3.308-3.303 3.308H34.776c-1.82 0-3.303-1.483-3.303-3.307 0-.454-.367-.821-.82-.821-.452 0-.819.37-.819.82 0 2.73 2.216 4.952 4.942 4.952h10.283c2.726 0 4.942-2.222 4.942-4.951V18.859c-.008-2.549-1.948-4.63-4.422-4.898zm-2.614-11.32v1.904H36.855V2.641h6.11zM38.264 6.19h3.289V8.49h-3.29V6.189zm-2.386 7.719v-3.776h8.061v3.776h-8.061z"/>
    <path fill="#FE3945" stroke="#FE3945" stroke-width=".5" d="M24.06 16.622c1.78 0 3.225-1.451 3.225-3.234 0-1.477-2.097-5.162-2.517-5.884-.295-.505-1.122-.505-1.415 0-.42.724-2.517 4.407-2.517 5.884 0 1.783 1.446 3.234 3.224 3.234zm0-7.017c.851 1.6 1.587 3.245 1.587 3.783 0 .878-.713 1.59-1.587 1.59-.875 0-1.588-.714-1.588-1.59 0-.536.737-2.181 1.587-3.783zM35.201 37.17l5.757-3.143c.658-.344 1.129-.978 1.29-1.736.162-.757-.004-1.526-.46-2.11-.635-.844-1.698-1.207-2.691-.957-.07-.302-.2-.589-.381-.843-.687-.96-1.995-1.272-3.035-.724l-.045.024c-.39-1.643-1.713-2.93-3.374-3.264-.026-.214-.1-.52-.25-.95-.133-.388-.31-.761-.528-1.106-.444-.712-1.044-1.313-1.732-1.738-.842-.519-1.856-.806-2.853-.806-1.256 0-2.458.43-3.42 1.22-.977-1.126-2.374-1.766-3.881-1.766-2.734 0-4.985 2.154-5.143 4.857-2.767.289-4.892 2.628-4.892 5.447 0 .099.002.197.008.297-1.753.778-3.087 1.738-3.662 2.181H1.903c-.5 0-.903.407-.903.907v7.914c0 .5.405.907.903.907l4.274-.002c1.921.17 5.583.496 5.706.51l7.82.7c.315.027.626.044.94.044 3.96 0 7.827-2.15 11.238-4.047.312-.166 2.204-1.206 3.32-1.815zm2.05-7.73c.09.123.121.285.084.449-.022.105-.071.195-.151.275-.307-.275-.64-.517-.991-.724l.335-.177c.246-.135.557-.06.723.177zm-18.024 1.854c.117.054.244.076.432.078l7.922-1.53c.397 0 .72.324.72.726 0 .365-.27.673-.673.726l-10.07 2.811c-.45.056-.79.444-.79.901 0 .458.343.841.796.897l4.295.519c4.23.515 8.43-.314 12.146-2.389l5.36-2.985c.338-.178.751-.082.985.228.133.17.182.402.131.636-.05.232-.188.42-.38.52l-5.625 3.066c-1.07.59-3.145 1.726-3.471 1.909-3.471 1.928-7.391 4.113-11.145 3.783l-6.857-.613-6.686-.6-3.51-.006V33.87h3.422c.212 0 .42-.076.585-.213.029-.025 2.826-2.362 6.208-2.994 3.272-.615 6.094.583 6.205.632zm14.719-2.605c0 .268-.043.533-.123.785-.076.23-.055.477.055.694.11.217.3.378.533.451.385.121.743.294 1.077.515l-2.363 1.318c-2.695 1.502-7.283 2.722-10.998 2.478l5.88-1.88c.985-.539 2.103-1.148 2.103-2.482 0-1.397-1.128-2.532-2.578-2.532h-.01l-7.769 1.518c-.909-.36-3.727-1.292-7.059-.672-.444.082-.877.19-1.296.297.2-1.836 1.755-3.266 3.639-3.266.086 0 .18.002.28.012.281.016.537-.076.734-.283.196-.21.284-.48.241-.745-.022-.156-.033-.31-.033-.462 0-1.846 1.5-3.348 3.345-3.348 1.243 0 2.378.685 2.953 1.783.135.273.406.455.723.482.311.014.616-.1.799-.347.817-1.108 2.371-1.625 3.88-1.262.699.163 1.33.636 1.879 1.404.41.576.639 1.256.665 1.97l.002.125c0 .5.406.906.905.906 1.397-.002 2.536 1.14 2.536 2.54zM9.215 24.23c1.86 0 3.37-1.516 3.37-3.377 0-1.86-1.51-3.379-3.37-3.379s-3.371 1.516-3.371 3.377c0 1.861 1.513 3.38 3.37 3.38zm0-4.942c.86 0 1.562.702 1.562 1.565 0 .862-.7 1.564-1.562 1.564-.862 0-1.563-.702-1.563-1.564.002-.863.703-1.565 1.563-1.565zM15.45 16.998c1.504 0 2.729-1.227 2.729-2.733s-1.223-2.735-2.728-2.735c-1.506 0-2.728 1.229-2.728 2.735 0 1.506 1.224 2.733 2.728 2.733zm-1.169-2.733c0-.647.524-1.172 1.17-1.172.645 0 1.169.525 1.169 1.172 0 .644-.524 1.17-1.17 1.17-.644 0-1.169-.526-1.169-1.17z"/>
</svg>
