<svg xmlns="http://www.w3.org/2000/svg" width="38" height="51" fill="none" viewBox="0 0 38 51">
    <path fill="#FE3945" stroke="#FE3945" stroke-width=".5" d="M37.75 4.063c0-.813-.323-1.592-.897-2.166C36.279 1.323 35.5 1 34.687 1H4.064c-.813 0-1.592.323-2.166.897C1.323 2.471 1 3.25 1 4.063V50h36.75V4.062zM4.062 2.224h30.625c.488 0 .955.194 1.3.538.344.345.538.812.538 1.3V10.8h-34.3V4.062c0-.487.194-.954.538-1.299.345-.344.812-.538 1.3-.538zm32.463 9.8v34.3h-34.3v-34.3h34.3zm-34.3 36.75V47.55h34.3v1.225h-34.3z"/>
    <path fill="#FE3945" stroke="#FE3945" stroke-width=".5" d="M19.375 43.875c2.786 0 5.51-.826 7.826-2.374 2.317-1.548 4.122-3.748 5.189-6.322 1.066-2.575 1.345-5.407.801-8.14-.543-2.733-1.885-5.243-3.855-7.213-1.97-1.97-4.48-3.312-7.213-3.855-2.733-.544-5.565-.265-8.14.801-2.574 1.067-4.774 2.872-6.322 5.189S5.287 27 5.287 29.788c0 3.736 1.484 7.319 4.126 9.96 2.642 2.643 6.225 4.127 9.962 4.127zm0-26.95c2.544 0 5.03.754 7.146 2.168 2.115 1.413 3.764 3.422 4.737 5.772.973 2.35 1.228 4.937.732 7.432s-1.721 4.787-3.52 6.586c-1.8 1.798-4.091 3.023-6.586 3.52-2.495.496-5.081.241-7.432-.732-2.35-.974-4.359-2.622-5.772-4.737-1.414-2.116-2.168-4.603-2.168-7.146 0-3.412 1.355-6.683 3.767-9.096 2.413-2.412 5.684-3.767 9.096-3.767zM6.82 8.35h1.837c.569 0 1.114-.226 1.516-.628.402-.402.628-.947.628-1.516 0-.568-.226-1.114-.628-1.516-.402-.402-.947-.628-1.516-.628H6.82c-.569 0-1.114.226-1.516.628-.402.402-.628.948-.628 1.516 0 .569.226 1.114.628 1.516.402.402.947.628 1.516.628zm0-3.063h1.837c.244 0 .477.097.65.27.172.172.269.406.269.65 0 .243-.097.477-.27.649-.172.172-.405.269-.649.269H6.82c-.244 0-.478-.097-.65-.27-.172-.171-.27-.405-.27-.649 0-.243.098-.477.27-.65.172-.172.406-.269.65-.269zM14.78 8.35h1.838c.569 0 1.114-.226 1.516-.628.402-.402.628-.947.628-1.516 0-.568-.226-1.114-.628-1.516-.402-.402-.948-.628-1.516-.628h-1.837c-.57 0-1.114.226-1.516.628-.402.402-.628.948-.628 1.516 0 .569.226 1.114.628 1.516.402.402.947.628 1.515.628zm0-3.063h1.838c.244 0 .477.097.65.27.172.172.269.406.269.65 0 .243-.097.477-.27.649-.172.172-.405.269-.649.269h-1.837c-.244 0-.478-.097-.65-.27-.172-.171-.27-.405-.27-.649 0-.243.098-.477.27-.65.172-.172.406-.269.65-.269zM31.625 9.575c.606 0 1.198-.18 1.701-.516.504-.337.897-.815 1.128-1.375.232-.56.293-1.175.175-1.769-.118-.594-.41-1.14-.838-1.568-.429-.428-.974-.72-1.569-.838-.594-.118-1.21-.058-1.769.174-.56.232-1.038.624-1.374 1.128-.337.504-.517 1.096-.517 1.701 0 .813.323 1.592.897 2.166.575.574 1.354.897 2.166.897zm0-4.9c.337-.001.668.09.956.265.289.175.524.425.68.724.155.3.225.635.203.972-.023.336-.138.66-.332.935-.194.276-.46.492-.77.627-.309.134-.65.18-.983.135-.334-.046-.649-.183-.91-.396-.261-.213-.459-.494-.571-.812h1.727V5.9h-1.727c.126-.357.36-.667.67-.886.308-.22.678-.338 1.057-.34z"/>
    <path fill="#FE3945" stroke="#FE3945" stroke-width=".5" d="M8.35 29.787c-.005 2.924 1.152 5.73 3.216 7.801 2.064 2.071 4.866 3.238 7.79 3.242 2.924.005 5.73-1.151 7.801-3.216 2.072-2.064 3.238-4.866 3.243-7.79.005-2.924-1.152-5.73-3.216-7.801-2.065-2.071-4.867-3.238-7.791-3.242-2.924-.005-5.73 1.152-7.801 3.216-2.071 2.064-3.238 4.866-3.242 7.79zm11.025 9.8c-2.345-.003-4.61-.847-6.386-2.377-1.775-1.53-2.943-3.647-3.292-5.965 1.25.96 2.762 1.52 4.337 1.605h.196c1.953 0 3.834-.882 5.58-2.628 1.55-1.556 3.16-2.321 4.857-2.272 1.702.131 3.301.868 4.508 2.076-.063 2.558-1.123 4.99-2.954 6.776-1.831 1.786-4.288 2.786-6.846 2.785zm0-19.6c2.344.003 4.61.847 6.385 2.377 1.775 1.53 2.943 3.647 3.292 5.965-1.25-.96-2.762-1.52-4.336-1.604-2.028-.056-3.97.826-5.776 2.627-1.55 1.556-3.16 2.328-4.857 2.273-1.702-.133-3.301-.87-4.508-2.077.062-2.557 1.122-4.989 2.953-6.775 1.831-1.787 4.288-2.787 6.847-2.786z"/>
</svg>
