<svg xmlns="http://www.w3.org/2000/svg" width="37" height="51" fill="none" viewBox="0 0 37 51">
    <path fill="#FE3945" stroke="#FE3945" stroke-width=".5" d="M35.921 7.848l-4.525-4.2c-.585-.543-1.345-.843-2.14-.843H14.919c-1.137 0-2.064.933-2.064 2.08v1.088c0 1.05.621 1.992 1.582 2.397l1.716.724c-.012.952-.2 3.831-1.946 5.61-.303.308-.4.77-.248 1.18.152.406.51.679.933.713.117.01.248.016.39.016 1.517 0 4.295-.714 5.391-5.612l1.352.57v.757c-.696.36-1.175 1.096-1.175 1.946v3.642c0 .485.397.88.885.88h.387c-.177 3.825-1.65 5.943-2.9 7.06-.524.47-1.194.857-1.992 1.152-.91.337-3.866 1.705-3.643 5.14.037.577.042 1.16.042 1.655v13.8c0 1.322 1.076 2.398 2.397 2.398h14.806c1.322 0 2.397-1.076 2.397-2.398V28.474c0-1.836-.5-3.626-1.446-5.178l-.096-.16c-.678-1.154-1.036-2.506-1.036-3.911v-.43h.147c.488 0 .885-.394.885-.878v-3.643c0-.872-.506-1.625-1.233-1.974v-1.822c0-.248.195-.45.435-.45h4.188c.517 0 .974-.313 1.163-.796.19-.486.067-1.03-.315-1.384zm-19.94 7.142c1.235-1.72 1.591-3.823 1.687-5.112l1.531.626c-.671 3.195-2.062 4.224-3.219 4.486zm14.154-.716v2.974h-7.737v-2.974c0-.351.266-.637.593-.637h6.55c.327 0 .594.286.594.637zm.218 9.645l.109.182c.798 1.31 1.22 2.822 1.22 4.373v19.13c0 .468-.381.85-.85.85H16.026c-.468 0-.85-.382-.85-.85v-13.8c0-.52-.005-1.135-.045-1.757-.062-.952.198-2.685 2.636-3.588.98-.363 1.817-.85 2.487-1.45 1.482-1.326 3.232-3.81 3.417-8.214h5.432v.429c0 1.68.432 3.305 1.25 4.695zm.532-15.44c-1.094 0-1.983.897-1.983 1.999v1.612h-5.33v-1.545l-8.533-3.6c-.386-.163-.636-.544-.636-.971V4.886c0-.294.232-.533.517-.533h14.336c.404 0 .79.152 1.088.43l3.983 3.696h-3.442zM9.316 6.725c.527 0 .954-.427.954-.954 0-.528-.427-.955-.954-.955-.527 0-.955.427-.955.955 0 .527.428.954.955.954zM5.77 8.634c.528 0 .955-.427.955-.954 0-.527-.427-.955-.954-.955-.527 0-.955.428-.955.955 0 .527.428.954.955.954zM1.954 10.542c.527 0 .955-.427.955-.954 0-.527-.428-.954-.955-.954-.527 0-.954.427-.954.954 0 .527.427.954.954.954zM5.77 4.817c.528 0 .955-.428.955-.955 0-.527-.427-.954-.954-.954-.527 0-.955.427-.955.954 0 .527.428.955.955.955zM1.954 6.725c.527 0 .955-.427.955-.954 0-.528-.428-.955-.955-.955-.527 0-.954.427-.954.955 0 .527.427.954.954.954zM1.954 2.909c.527 0 .955-.428.955-.955 0-.527-.428-.954-.955-.954C1.427 1 1 1.427 1 1.954c0 .527.427.955.954.955z"/>
    <path fill="#FE3945" stroke="#FE3945" stroke-width=".5" d="M29.104 40.136c-.427 0-.774.346-.774.773v2.644c0 .427.347.774.774.774.427 0 .774-.347.774-.774v-2.644c0-.427-.347-.773-.774-.773zM28.33 30.658v7.35c0 .428.347.774.774.774.427 0 .774-.346.774-.774v-7.35c0-.427-.347-.774-.774-.774-.427 0-.774.347-.774.774z"/>
</svg>
