<svg xmlns="http://www.w3.org/2000/svg" width="171" height="53" fill="none" viewBox="0 0 171 53">
    <g fill="#03224C" clip-path="url(#clip0)">
        <path d="M72.666 12.566h-.028l-2.326 12.301h-3.196L64.092 9.859h2.557l2.093 11.565h.03L71.01 9.859h3.314l2.209 11.565h.029l2.182-11.565h2.471l-3.052 15.008h-3.255l-2.242-12.3zM85.05 13.596c2.238 0 4.796 1.178 4.796 5.683 0 4.65-2.558 5.709-4.796 5.709-2.239 0-4.825-1.092-4.825-5.71.029-4.504 2.616-5.682 4.825-5.682zm0 9.535c1.686 0 2.093-1.973 2.093-3.825 0-1.853-.378-3.797-2.093-3.797-1.715 0-2.093 1.943-2.093 3.797 0 1.853.407 3.825 2.093 3.825zM91.154 15.599c0-.618-.03-1.207-.088-1.825h2.384c.029.677.087 1.354.087 2.03h.03c.184-.61.551-1.149 1.051-1.54.5-.39 1.108-.612 1.739-.637.147.005.293.025.436.06v2.501c-.237-.068-.48-.107-.727-.117-1.076 0-2.267.677-2.267 2.737v6.061h-2.616l-.03-9.27zM97.926 8.74h2.645v16.1h-2.645V8.74zM111.297 8.74v14.214c0 .618.028 1.263.087 1.883h-2.471c-.058-.567-.087-1.137-.088-1.707h-.058c-.229.582-.633 1.077-1.155 1.414-.521.338-1.134.502-1.752.47-2.703 0-3.837-2.62-3.837-5.683 0-3.62 1.425-5.71 3.78-5.71.591-.028 1.176.126 1.68.44.503.316.9.778 1.139 1.326h.029V8.74h2.646zm-4.738 14.303c1.54 0 2.063-1.708 2.063-3.767 0-2.149-.582-3.71-2.035-3.71-1.453 0-1.976 1.442-1.976 3.65.029 2.561.436 3.826 1.948 3.826zM119.115 9.859h2.732v6.091h4.39V9.86h2.7v15.008h-2.703v-6.65h-4.39v6.62h-2.729V9.86zM138.563 24.308c-1.023.467-2.133.708-3.256.707-3.517 0-5.057-2.56-5.057-5.533 0-3.295 1.715-5.855 4.506-5.855 2.354 0 4.359 1.383 4.359 5.915v.53h-6.307c0 1.882.755 3.03 2.79 3.03 1.028.057 2.043-.244 2.878-.853l.087 2.06zm-2.006-5.947c0-1.942-.639-2.943-1.831-2.943-1.395 0-1.949 1.471-1.949 2.943h3.78zM140.8 14.42c1.077-.535 2.26-.817 3.459-.824 3.401 0 4.186 1.678 4.186 4.445v4.825c.005.65.053 1.3.145 1.943h-2.384c-.12-.49-.168-.995-.145-1.5h-.029c-.32.524-.77.955-1.306 1.249-.535.294-1.137.442-1.745.428-.427.018-.854-.053-1.253-.209-.399-.155-.762-.392-1.067-.695-.305-.303-.545-.667-.706-1.068-.161-.4-.239-.83-.23-1.264 0-2.998 2.413-3.766 5.756-3.766h.523v-.412c.031-.281.001-.566-.09-.833-.09-.268-.238-.512-.432-.714-.195-.203-.432-.36-.693-.458-.262-.1-.542-.138-.82-.114-1.086.034-2.134.415-2.994 1.089l-.175-2.122zm5.174 5.003h-.234c-2.238 0-3.575.474-3.575 2.09-.026.424.115.842.393 1.162.277.32.669.516 1.088.544h.204c1.57 0 2.15-1.177 2.15-3.149v-.647h-.026zM150.857 8.74h2.616v16.1h-2.616V8.74zM156.496 11.507l2.616-.824v3.09h2.183v1.942h-2.183v5.768c0 1.177.436 1.53 1.192 1.53.343-.001.681-.082.988-.237v1.884c-.562.235-1.165.355-1.773.352-1.949 0-3.052-.912-3.052-3.236v-6.031h-1.744v-1.943h1.743v-2.295h.03zM162.135 8.74h2.616v6.472h.058c.26-.493.651-.903 1.129-1.184.478-.28 1.023-.42 1.575-.402 2.471 0 3.227 1.854 3.227 4.09v7.124h-2.616V18.22c0-1.707-.436-2.414-1.512-2.414-1.366 0-1.86 1.178-1.86 2.59v6.445h-2.617V8.74zM70.11 28.84c3.081 0 5.9 2.325 5.9 7.71 0 5.386-2.819 7.711-5.9 7.711-3.082 0-5.901-2.325-5.901-7.71 0-5.386 2.82-7.71 5.9-7.71zm0 13.331c1.715 0 3.11-1.47 3.11-5.62s-1.395-5.592-3.11-5.592c-1.715 0-3.11 1.471-3.11 5.592 0 4.12 1.395 5.62 3.11 5.62zM77.115 34.815c0-.618-.03-1.207-.088-1.825h2.384c.029.677.087 1.354.087 2.03h.03c.187-.608.556-1.144 1.055-1.534.5-.39 1.105-.614 1.735-.642.147.005.293.025.436.059v2.502c-.247-.07-.5-.11-.757-.118-1.075 0-2.266.677-2.266 2.737v6.062h-2.616v-9.271zM84.032 45.79c.98.587 2.09.911 3.227.942 2.47 0 2.878-1.736 2.878-3.472V42.2h-.03c-.233.573-.634 1.06-1.148 1.397-.514.336-1.117.506-1.73.486-1.51 0-3.807-1.03-3.807-5.503 0-3.06 1.076-5.738 3.953-5.738.61-.008 1.208.166 1.72.501.512.335.915.816 1.158 1.382h.087c0-.589.058-1.147.087-1.707h2.384c-.029.589-.087 1.148-.087 1.736v8.152c0 3.473-1.046 5.915-5.058 5.915-1.279-.002-2.548-.231-3.75-.677l.116-2.353zm3.808-3.678c1.657 0 2.325-1.207 2.325-3.71 0-2.324-.872-3.56-2.121-3.53-1.396.028-1.919 1.323-1.919 3.56 0 2.591.814 3.68 1.715 3.68zM95.048 33.637c1.072-.549 2.258-.831 3.46-.824 3.4 0 4.185 1.677 4.185 4.444v4.826c.005.65.053 1.299.145 1.942h-2.384c-.12-.49-.168-.995-.145-1.5h-.028c-.321.525-.771.955-1.307 1.25-.535.293-1.136.441-1.745.428-.427.017-.854-.053-1.253-.21-.399-.155-.762-.391-1.067-.695-.305-.303-.545-.666-.706-1.067-.161-.401-.24-.831-.23-1.264 0-2.999 2.413-3.767 5.756-3.767h.523v-.412c.031-.28.001-.565-.09-.833-.09-.267-.238-.511-.432-.714-.195-.203-.431-.359-.693-.458-.262-.099-.542-.138-.82-.114-1.086.035-2.134.416-2.994 1.09l-.175-2.122zm5.174 5.003h-.234c-2.238 0-3.575.473-3.575 2.089-.026.425.115.843.393 1.163.278.32.669.515 1.088.544h.204c1.57 0 2.151-1.178 2.151-3.15l-.027-.646zM104.814 34.815c0-.618-.029-1.207-.087-1.825h2.471c.028.56.087 1.148.087 1.707h.029c.257-.559.668-1.031 1.183-1.36.516-.329 1.114-.5 1.724-.493 2.47 0 3.226 1.854 3.226 4.09v7.122h-2.645v-6.652c0-1.707-.436-2.414-1.511-2.414-1.367 0-1.86 1.178-1.86 2.59v6.444h-2.616l-.001-9.209zM115.453 28.281h2.732v2.62h-2.732v-2.62zm.059 4.709h2.616v11.064h-2.616V32.99zM120.191 41.76l4.677-6.74h-4.534v-2.03h7.156v2.265l-4.593 6.769h4.738v2.03h-7.473V41.76h.029zM129.638 33.637c1.072-.549 2.258-.831 3.459-.824 3.401 0 4.186 1.677 4.186 4.444v4.826c.005.65.053 1.299.145 1.942h-2.384c-.12-.49-.169-.995-.145-1.5h-.029c-.32.525-.771.955-1.306 1.25-.535.293-1.137.441-1.745.428-.428.017-.854-.053-1.253-.21-.399-.155-.762-.391-1.067-.695-.305-.303-.546-.666-.707-1.067-.16-.401-.238-.831-.229-1.264 0-2.999 2.413-3.767 5.755-3.767h.524v-.412c.031-.28 0-.565-.09-.833-.09-.267-.238-.511-.432-.714-.195-.203-.432-.359-.693-.458-.262-.099-.542-.138-.82-.114-1.087.035-2.134.416-2.994 1.09l-.175-2.122zm5.174 5.003h-.234c-2.238 0-3.575.473-3.575 2.089-.026.425.115.843.393 1.163.277.32.669.515 1.088.544h.204c1.57 0 2.15-1.178 2.15-3.15v-.646h-.026zM140.131 30.723l2.616-.824v3.09h2.182v1.942h-2.182v5.739c0 1.177.436 1.53 1.192 1.53.344.013.686-.07.988-.237v1.883c-.553.263-1.162.384-1.773.353-1.949 0-3.052-.913-3.052-3.207V34.93h-1.745v-1.943h1.744l.03-2.264zM146.525 28.281h2.704v2.62h-2.704v-2.62zm.059 4.709h2.645v11.064h-2.616l-.029-11.064zM155.478 32.813c2.237 0 4.795 1.177 4.795 5.682 0 4.65-2.558 5.71-4.795 5.71-2.238 0-4.826-1.06-4.826-5.71.029-4.476 2.616-5.682 4.826-5.682zm0 9.534c1.686 0 2.093-1.973 2.093-3.825s-.379-3.796-2.093-3.796c-1.715 0-2.093 1.942-2.093 3.796 0 1.854.406 3.825 2.093 3.825zM162.369 34.815c0-.618-.029-1.207-.088-1.825h2.471c.029.56.088 1.148.088 1.707h.028c.258-.559.669-1.031 1.184-1.36.516-.329 1.114-.5 1.723-.493 2.471 0 3.227 1.854 3.227 4.09v7.122h-2.616v-6.652c0-1.707-.436-2.414-1.512-2.414-1.366 0-1.86 1.178-1.86 2.59v6.444h-2.616l-.029-9.209zM48.222 9.713c1.134 1.383 3.11 2.177 4.273 3.56-.843-4.06-3.924-7.385-7.587-8.18 1.803 1.353 2.183 3.236 3.314 4.62zM4.272 20.01c2.53-5.562 6.279-4.385 7.877-9.653-.93 1.59-5.028 2.266-6.918 6.416.989-2.472.495-6.239 2.122-8.299-4.91 3.71-2.82 9.653-3.081 11.536zm4.536 13.3c.468 2.147-.872 5.296 1.248 8.269-2.183-2.472-6.831-3.12-8.72-6.886 2.353 9.21 8.516 7.327 11.277 9.328-2.266-3.326-.407-5.532-3.808-10.712h.003zm-.701 5.8c-1.367-5.15 1.046-6.945-.785-11.89-.175 2.796-2.035 4.15-.785 9.241C4.36 32.136.988 30.517 0 27.574c.058 8.093 6.482 9.3 8.107 11.537zm9.856 8.622c-1.89-2.649-.61-4.15-5.9-8.947 1.133 1.766-.03 3.973 3.545 7.387-3.488-2.09-8.34-1.207-10.667-4.002 4.01 7.769 11.045 4.59 13.021 5.562h.001zm25.723-1.56c3.575-3.443 2.413-5.65 3.546-7.386-5.32 4.797-4.011 6.298-5.93 8.947 2.006-.972 9.043 2.21 13.022-5.563-2.296 2.826-7.15 1.913-10.639 4.002h.001zm5.551-4.59c2.122-2.972.785-6.092 1.22-8.27-3.4 5.18-1.54 7.386-3.807 10.712 2.79-2.001 8.924-.117 11.278-9.328-1.89 3.767-6.511 4.414-8.69 6.886zm-8.486 6.533c-1.898-.516-3.849-.812-5.813-.883-1.805-.037-3.6.274-5.29.914-1.69-.64-3.485-.95-5.29-.912-1.964.07-3.915.366-5.813.88-3.196.854-5.959 1.531-8.372.295 2.297 2.06 5 2.825 8.895 2.384 3.226-.353 5.842-2.002 8.894-1.974h.116c-1.92.973-3.63 2.324-5.029 3.973l1.482.206c.537-.982 1.269-1.842 2.149-2.525.88-.684 1.89-1.176 2.966-1.448 1.078.271 2.088.764 2.97 1.448.88.684 1.612 1.544 2.15 2.527l1.481-.206c-1.398-1.65-3.108-3-5.028-3.973h.117c3.052-.03 5.668 1.619 8.895 1.973 3.897.412 6.569-.324 8.894-2.383-2.413 1.236-5.174.558-8.371-.295l-.003-.001zM7.557 21.63c-1.308 2.56-3.371 3.149-3.139 8.417-1.104-4.68-3.75-6.444-3.72-9.418-1.831 7.828 3.051 8.74 4.33 12.036-.203-4.708 2.762-5.65 2.53-11.035zm1.831-6.033c-.566.747-1.243 1.402-2.005 1.942-1.84 1.47-3.098 3.558-3.546 5.886.116-2.883-1.628-7.004-.468-10.005-4.506 6.444.262 10.3.436 12.654 1.133-4.503 3.837-4.532 5.58-10.477h.003zm46.067 7.828c-.459-2.322-1.712-4.407-3.54-5.886-.755-.548-1.43-1.202-2.005-1.942 1.744 5.944 4.447 5.975 5.612 10.477.175-2.325 4.942-6.18.436-12.654 1.163 2.999-.581 7.122-.494 10.005h-.01zm3.846 4.15c-.989 2.972-4.36 4.562-6.54 8.887 1.247-5.09-.61-6.444-.786-9.24-1.83 4.943.582 6.739-.784 11.889 1.627-2.237 8.051-3.444 8.106-11.536h.004zm-7.562-5.945c-.262 5.385 2.732 6.327 2.528 11.035 1.247-3.266 6.162-4.208 4.331-12.036.03 3-2.616 4.735-3.72 9.447.233-5.326-1.803-5.886-3.14-8.445v-.001zM11.075 9.713c1.133-1.384 1.511-3.267 3.313-4.62-1.902.488-3.628 1.513-4.976 2.957-1.349 1.443-2.264 3.245-2.64 5.195 1.163-1.384 3.168-2.178 4.303-3.532zm36.1.589c1.6 5.297 5.349 4.12 7.877 9.652-.262-1.853 1.831-7.828-3.081-11.476 1.656 2.03 1.163 5.827 2.122 8.298-1.919-4.15-6.017-4.826-6.919-6.471l.001-.003zm-12.79 3.03c-.958-.405-1.964-.682-2.993-.825v.678c.946.147 1.872.404 2.76.765.116-.19.195-.399.235-.618h-.001zM33.63 6.77l.204-.177-.378-.177-1.017-.029-.262.177-.582-.06v.148c.35.02.7.059 1.046.117l.495-.03.494.03zm-1.918 21.953c0-.177-.234-.353-.552-.5h-.058c0 .146-.028.823-.028 1.177.378-.206.639-.383.639-.677zm-11.656-12.92c.029-.117.058-.265.087-.383-.132.04-.27.05-.407.03l.32.353zm-4.677-4.735l2.384 2.413c-2.879 3.046-4.51 7.083-4.567 11.298H9.822c.046-5.123 2.034-10.031 5.552-13.713l.005.002zm-1.456 18.77l-.204-.03-.203-.206-.96-.088.291.412-.872-.177.234-.206-.204-.203-.64.266-.234.412.088.971.726 1.766.349.558.203.06-.552-1.06-.116-.53.116-.117-.087-.294.32.06.523.765.116.059v-.559l.203.118.059.294.523.147.234-.177.087.06v.411l.234.294.29.06.64 1.059.378.117.116-.5c.657 1.097 1.438 2.113 2.324 3.029l-2.383 2.413c-3.545-3.617-5.584-8.472-5.7-13.566h3.371c.039 1.489.283 2.965.727 4.385l.003-.003zm3.31-4.411c.002.335.031.67.088 1l-.407.089-.088.412-.872 1.118.03 1.53-.873.295h-.494c-.456-1.439-.71-2.934-.756-4.444h3.372zm.757 9.623l.755.44.145.118-.552.56c-.257-.261-.5-.537-.727-.825l.379-.293zm3.081-18.217l2.384 2.414c-.5.555-.92 1.179-1.247 1.853h-.175l-.349.089h-.116l-.348.323.468-.059.407-.088-.088.117-.348.237h-.175l-.523.412-.494-.06-.727 1.384.145.266-.407.473-.058.589h-1.515c.027-2.959 1.16-5.797 3.168-7.946l-.002-.004zm2.444 9.98l.174-.088.436.324-.203.146.494.324-.029-.353.262-.441.29.294.291.412-.523.147.234.474.349-.206-.059-.147.262-.177.145-.735c.201.438.466.842.787 1.2L24.043 30.4c-1.162-1.243-1.897-2.832-2.093-4.532l.494.53h.468l.604.415zm-3.43-2.56l.058-.677.407-.237.727.118.116.117c-.059.383-.087.795-.116 1.178h-.814l-.378-.499zm-1.105 2.349l-.32.5h-.551l-.029-.029c-.087-.536-.145-1.076-.175-1.619h1.018l-.234.824.291.324zm2.238 6.65c-.233-.265-.494-.529-.697-.794l.116-.853-.349-.82-.087-1.295-.407-.795.087-.5-.494-.942-.407-.206.175-.5-.175-.383.175-.441h.468l.174-.265h.782l.116.236-.174.795-.088.147.291.647-.203.118-.145-.177-.059.059.145.383.234.44h.117l.058-.411-.117-.146v-.268l-.03-.56.175-1-.174-.265h.556c.111 2.028.936 3.949 2.325 5.415l-2.388 2.381zm20.289 3.296c2.874-2.985 4.525-6.96 4.621-11.128H49.5c-.113 5.074-2.129 9.914-5.639 13.538l-2.353-2.41zm-.93-.941l.262-.295-.262-1.324-.175-.06.116-.236-.552-.177-.116.474-.058.589-.116.117-1.018-1.03c2.115-2.222 3.346-5.155 3.46-8.239h3.371c-.104 3.992-1.692 7.797-4.447 10.654l-.465-.473zm-2.962 3.207l.32-.677-.117-.294.468-.412v-.237l-.407-.265.32-.678.494-.647-.497-.525h-.378l-.234-.383c.204-.177.407-.353.582-.53l2.383 2.414c-.882.867-1.868 1.619-2.935 2.236v-.002zm-.469-6.648l-.32-.324.234-.323.32-.647-.116-.177.203-.474-.029-.441-.116-.441-.29-.088-.117.236-.174-.059c.26-.395.493-.808.697-1.236l.291-.117.175-.237.087.088.203-.237-.174-.206.145-.029.262.118h.523l.32-.177.813-.237-.145-.265-.058-.323.436.206.174-.089-.087-.353-.552.206-.581-.117-.468-.942h2.59c-.114 2.905-1.272 5.667-3.255 7.77l-.349-.354.145-.473-.261-1.06-.526.802zm-1.22-12.831l2.385-2.413c.55.621 1.046 1.291 1.48 2l-.29.09.029.529.872.559c.227.493.411 1.005.552 1.53l-.145.237-.32.236-.087.5-.234.118-.174.237-.175-.088h-.32l.175-.265.145-.678.234-.146-.64-.618-.467.177-.116.473-.29.324-.32-.266-.117-.294.175-.118.087.177.145-.059-.058-.294h-.204v.11l-.145.03-.726-.884-.262-.206.087-.088.234-.089-.234-.088s-.262.06-.29.06l.144.205h-.378c-.211-.363-.465-.699-.755-1l.004.002zm.375 13.152l-.723-.203-.234.089-.407-.324-.378-.147c.203-.147.378-.294.552-.441l.61.441.468.237.234.237-.122.111zm-1.275-11.33l.29-.06v-.059l-.29-.206.087-.647.349-.383c.228.262.442.537.639.824l-.116.383-.32-.237-.262.06.116.236h.116l-.145.353-.087-.147-.377-.118zm4.04 2.354l.61-.324.61-.088.146-.295.348-.206.145-.294.116-.5c.059.176.088.352.145.53l-.32.97v.324l.408-.677c.087.589.145 1.207.174 1.796h-2.962l-.058-.266.348-.265.058-.177.142-.113.407-.06.028-.176-.345-.18zm.669-8.005l.814.03.203.236-.087.353 1.133.706.234-.029 1.424 1.677.582-.206c.93 2.041 1.424 4.257 1.453 6.504h-3.373c-.004-.873-.112-1.742-.32-2.59l.145-.205.204-1.09-.145-1.147-.407-1.324-.93-1.383.234.117.116-.117-.755-.53-.059.177.756 1.089.436.883.29.883.088.589.145 1-.29.027s-.32-.618-.436-.883l.145-.236-.29-.412v-.378l-.204-.266-.262.03c-.08-.177-.177-.345-.29-.5l.174.088.058-.06-.087-.206.234-.117-.087-.118-.32.118.116-.53-.203-.117-.175.412c-.374-.555-.782-1.086-1.22-1.59l.956-.885zm4.302-4.384c3.479 3.678 5.444 8.56 5.494 13.653h-3.373c-.022-2.536-.619-5.033-1.744-7.299l.03-.059.233.118.058-.177-.615-1.055-.726-1-.843-.707c-.29-.352-.581-.706-.9-1.059l2.386-2.415zm-14.36 34.61c5.26-.012 10.314-2.065 14.121-5.739 3.808-3.672 6.078-8.685 6.342-14.002.265-5.318-1.496-10.536-4.92-14.578-3.423-4.042-8.248-6.6-13.479-7.146l-.029.118c-.029.206-.087.383-.116.559 4.503.444 8.72 2.438 11.947 5.65l-2.268 2.296.087-.412-.29-.146-.378.029.087-.266-.262-.941-.552-.618-1.77-.942-.146.176-.32.089c.605.88.93 1.927.93 2.999v.412l.873 1.118-.407.088.262.412-.785.795-.32-.588c-.146.414-.342.81-.581 1.177l.174.147-2.412 2.413c-.145-.147-.291-.265-.436-.412-.227.11-.46.209-.698.295l.201.153-.116.117-.29.147-.117.294-.178-.18-.494.177.145.237.348-.088.234.029.029-.118.174-.088.059-.088.32-.089h.233l.145.118-.93.971-.058-.088-.989.177-.233.236-.204.03.61-.59-.233-.117-.582.765.175-.03v.295l.203.088.029.295-.348-.06-.349.06-.872-.441s-.059 2.354-.059 3.531c2.035.707 4.215 1.708 4.215 4.356.007.555-.125 1.102-.384 1.591-.26.49-.636.903-1.097 1.204l-.058.03-.059.059c-.882.515-1.83.901-2.82 1.147l-.028 1.854c1.48.736 3.255 1.825 3.081 4.885-.029.765-.32.972-.552 1.03-.869.21-1.753.347-2.645.412v.677c3.832-.268 7.45-1.881 10.232-4.561l2.384 2.413c-3.683 3.591-8.594 5.603-13.708 5.614-5.113.01-10.033-1.98-13.73-5.555l2.381-2.416c2.77 2.621 6.338 4.21 10.119 4.502v-.677c-3.595-.28-6.983-1.808-9.592-4.326l.61-.647.872.089.468-.5 1.22.058.175-.44-.058-.177c1.808 1.394 3.96 2.26 6.22 2.501v-.677c-2.496-.285-4.837-1.367-6.685-3.09l2.384-2.413c.583.534 1.24.98 1.949 1.324.047-.226.126-.443.234-.647-.605-.313-1.171-.698-1.686-1.147l2.383-2.414c.375.303.797.541 1.247.707v-.736c-.28-.122-.544-.282-.784-.473l.668-.678c-.236-.065-.47-.144-.697-.236l-.468.473c-.23-.258-.425-.544-.582-.853-.417-.175-.817-.392-1.191-.647-.69-.427-1.256-1.03-1.643-1.747-.387-.718-.581-1.526-.563-2.344-.041-1.118.296-2.217.955-3.115l-2.384-2.414c1.75-1.695 3.973-2.805 6.366-3.178V12.6c-2.57.38-4.958 1.563-6.83 3.384l-.408-.412c-.119.2-.226.406-.32.618l.263.265c-2.117 2.273-3.32 5.264-3.372 8.387h-3.4c.053-4.038 1.61-7.907 4.359-10.833l1.076 1.089h.145c.21-.027.416-.086.61-.175l-1.366-1.384c.725-.71 1.514-1.35 2.357-1.914.04-.172.099-.34.174-.5.156-.25.33-.485.523-.706-1.275.708-2.448 1.59-3.488 2.619l-2.384-2.413c3.21-3.158 7.377-5.128 11.829-5.591 0-.05-.01-.1-.03-.147-.028-.177-.058-.324-.086-.53-5.227.541-10.05 3.094-13.47 7.132-3.42 4.037-5.178 9.252-4.91 14.564.27 5.313 2.544 10.317 6.354 13.98 3.81 3.663 8.865 5.704 14.119 5.701v-.002zM39.765 9.8l-.204-.324-.436-.237-.348.266.436.236.494.353.058-.294zm-2.036 9.652l.03.266.58-.177.175-.353-.407-.53.204-.323.552.383.087-.089-.116-.088-.116-.237.234-.117-.234-.295-.52.265-.175.324-.117.294.234.383-.087.177-.324.117zM13.371 34.755l.029-.147-.29-.677-.35-.147.611.971zm13.748-12.83c0 .588.349.97.96 1.324v-.266l-.378-.412.203-.382.175-.06c-.029-.677-.029-1.412-.029-1.53h-.029c-.253.12-.469.306-.627.539-.159.233-.253.504-.274.785"/>
        <path d="M30.898 36.727c.577.245 1.094.614 1.515 1.082.422.467.738 1.022.927 1.625.174-2.354-1.134-3.355-2.413-4.061l-.029 1.354zM37.933 12.86c0-2.147-1.54-4.502-5.29-5.326-.377-.059-.756-.117-1.133-.146 0 .323-.029 1.059-.029 1.059 0 .237-.029 1.089-.029 1.263l.727.088c2.183.53 2.962 1.795 2.962 3.031 0 2.03-1.715 2.796-3.808 3.384l-.697.177c-.64.147-1.308.324-1.95.5-.235.056-.468.124-.697.206-2.325.707-4.33 1.854-4.33 4.768 0 2.914 2.296 3.973 4.534 4.68 0-.825-.03-1.678-.059-2.503-1.017-.473-1.686-1.089-1.686-2.119 0-1.03.64-1.618 1.599-2.06.204-.088.436-.176.697-.264.552-.206 1.192-.353 1.832-.53l.697-.177c3.14-.765 6.685-1.765 6.656-6.032M26.625 33.255c0 1.177.843 1.795 1.686 2.296 0-.206-.029-2.002-.029-2.031.033-.165.11-.319.223-.443s.257-.215.416-.263c.444-.207.9-.384 1.367-.53.262-.088.468-.177.698-.237 1.714-.53 3.691-1.177 3.691-3.295 0-2.119-1.687-2.973-3.546-3.62-.03.677-.03 1.648-.059 2.325.785.295 1.308.677 1.308 1.295 0 .765-.785 1.178-1.366 1.413-.234.088-.582.206-.698.237-.468.147-.93.294-1.395.473-.238.086-.47.184-.698.295-.431.163-.809.445-1.091.813-.282.368-.458.808-.507 1.272zM27.788 7.71c-.709.229-1.399.514-2.063.854-1.081.166-2.08.682-2.848 1.47-.349.413-.67.854-.989 1.296-.32.473-.348 1.236-.581 1.618-.2.27-.292.606-.262.942-.067.272-.196.524-.378.736-.168.202-.384.358-.629.45-.244.093-.509.12-.767.079.385.12.8.09 1.163-.088-.114.315-.201.64-.261.971.255-.708.674-1.344 1.22-1.856.585.038 1.163-.14 1.628-.5 1.1-.572 2.108-1.306 2.994-2.178.456-.627 1.082-1.108 1.802-1.383 0-.883-.029-1.707-.029-2.414v.003zm-4.302 3.911l-.523.117.64-1.059.726.03-.843.912z"/>
        <path d="M29.909 33.106c-.087.03-.348.147-.523.206-.175.06-.378.147-.378.207 0 0 .174 9.064.174 9.24 0 1.854.93 1.883.93 0 0-.117.204-9.8.204-9.8s-.262.09-.407.147zM28.92 30.105c.291-.088.582-.206.843-.265.204-.06.378-.118.582-.177 0-.558.175-8.444.203-9.859-.609.146-1.21.323-1.802.53.029 1.06.175 8.918.175 9.77M29.703 0c-2.616 0-1.511 3.946-1.308 5.238 0 .06.203 8.918.262 10.947.407-.117.785-.206 1.192-.294l.785-.206c.029-1.973.234-10.418.234-10.477C31.044 3.855 32.41 0 29.703 0z"/>
    </g>
    <defs>
        <clipPath id="clip0">
            <path fill="#fff" d="M0 0H171V53H0z"/>
        </clipPath>
    </defs>
</svg>
